<?xml version="1.0" encoding="UTF-8"?>
<svg version="1.1" xmlns="http://www.w3.org/2000/svg" width="750" height="750">
<path d="M0 0 C247.5 0 495 0 750 0 C750 247.5 750 495 750 750 C502.5 750 255 750 0 750 C0 502.5 0 255 0 0 Z " fill="#000000" transform="translate(0,0)"/>
<path d="M0 0 C0 110.55 0 221.1 0 335 C-59.73 335 -119.46 335 -181 335 C-174.2532097 326.0042796 -174.2532097 326.0042796 -171.51953125 323.140625 C-170.91802246 322.50552002 -170.31651367 321.87041504 -169.69677734 321.21606445 C-169.07496582 320.56726318 -168.4531543 319.91846191 -167.8125 319.25 C-166.48769945 317.85341625 -165.16348582 316.45627553 -163.83984375 315.05859375 C-163.19128418 314.37522949 -162.54272461 313.69186523 -161.87451172 312.98779297 C-158.32232239 309.2209363 -154.84772669 305.38371148 -151.3671875 301.55078125 C-148.97105429 298.96880932 -146.49057991 296.49057991 -144 294 C-142.34414063 292.21759528 -140.69889724 290.42528911 -139.0625 288.625 C-134.17882702 283.2692302 -129.24750172 277.95986442 -124.2902832 272.67211914 C-121.33979033 269.52148254 -118.40753994 266.35728207 -115.51171875 263.15625 C-114.96185303 262.55095459 -114.4119873 261.94565918 -113.84545898 261.32202148 C-112.80266325 260.17199411 -111.76421197 259.01800835 -110.73071289 257.85961914 C-109.52724484 256.53549006 -108.26842608 255.26204138 -107 254 C-106.34 254 -105.68 254 -105 254 C-105 258.95 -105 263.9 -105 269 C-91.8 269 -78.6 269 -65 269 C-65 232.37 -65 195.74 -65 158 C-66.65 159.65 -68.3 161.3 -70 163 C-71.31097656 164.29357422 -71.31097656 164.29357422 -72.6484375 165.61328125 C-73.54820312 166.50402344 -74.44796875 167.39476562 -75.375 168.3125 C-76.26960937 169.19550781 -77.16421875 170.07851563 -78.0859375 170.98828125 C-80.9048066 173.84114774 -83.51379429 176.85727267 -86.13916016 179.88745117 C-89.98375921 184.25209504 -94.03174465 188.42993834 -98.0390625 192.64453125 C-101.93896864 196.7627719 -105.72548834 200.95164727 -109.44140625 205.23632812 C-111.37192173 207.4208588 -113.40795347 209.47040262 -115.5 211.5 C-118.9288279 214.88241399 -122.12048518 218.38070442 -125.25390625 222.03515625 C-127.09615675 224.10820324 -129.02401662 226.05435802 -131 228 C-133.47963329 230.44663437 -135.85440376 232.92107774 -138.125 235.5625 C-141.6001348 239.60353978 -145.22991828 243.48803489 -148.875 247.375 C-152.74902616 251.50692446 -156.60816934 255.64455941 -160.375 259.875 C-165.19269185 265.2722638 -170.17210466 270.51575401 -175.15380859 275.76123047 C-178.9479359 279.76879499 -182.63340577 283.84468805 -186.24951172 288.01318359 C-189.85700402 292.10771252 -193.64219233 296.03876799 -197.39453125 300 C-201.24020427 304.07657264 -204.94793129 308.2258922 -208.53710938 312.53125 C-209.01986328 313.0159375 -209.50261719 313.500625 -210 314 C-210.66 314 -211.32 314 -212 314 C-212.28387573 314.57601456 -212.56775146 315.15202911 -212.86022949 315.74549866 C-216.96077994 323.85651437 -221.64387497 330.83709981 -230 335 C-242.26450798 338.23019054 -256.11847566 336.67660647 -268.64715576 336.16729736 C-273.42624451 335.99174067 -278.20688129 335.91540802 -282.98828125 335.83007812 C-292.32957496 335.64905827 -301.66400382 335.35990766 -311 335 C-309.57567584 332.02183282 -308.22096735 330.02068318 -305.8125 327.75 C-303.28403411 325.29973408 -300.91244124 322.80167949 -298.625 320.125 C-295.33032202 316.29844576 -291.79248191 312.77492697 -288.19921875 309.23046875 C-285.5495937 306.54319361 -283.09524007 303.72084254 -280.6328125 300.86328125 C-278.20404417 298.09169634 -275.69949402 295.51115723 -273 293 C-272.34 293 -271.68 293 -271 293 C-270.90976562 292.41734375 -270.81953125 291.8346875 -270.7265625 291.234375 C-269.81578283 288.43348267 -268.51939046 287.25363896 -266.375 285.25 C-263.75389789 282.72580483 -261.23819829 280.20461229 -258.875 277.4375 C-254.87320075 272.78848493 -250.67365664 268.33152833 -246.47949219 263.85693359 C-242.50336498 259.61425626 -238.55583594 255.34712382 -234.625 251.0625 C-230.78108393 246.87723716 -226.84410682 242.81291623 -222.796875 238.82421875 C-219.01184024 234.98158564 -215.5516525 230.8417989 -212.078125 226.71875 C-211.45421875 225.9865625 -210.8303125 225.254375 -210.1875 224.5 C-209.34251953 223.49453125 -209.34251953 223.49453125 -208.48046875 222.46875 C-207 221 -207 221 -205 221 C-204.7421875 220.42765625 -204.484375 219.8553125 -204.21875 219.265625 C-202.88634058 216.78871005 -201.34943882 214.8658834 -199.5 212.75 C-198.8915625 212.04359375 -198.283125 211.3371875 -197.65625 210.609375 C-196 209 -196 209 -194 209 C-193.74605469 208.41734375 -193.49210937 207.8346875 -193.23046875 207.234375 C-191.86679667 204.75811967 -190.35774797 203.19479374 -188.3125 201.25 C-185.72078619 198.72296354 -183.22913949 196.18699116 -180.875 193.4375 C-177.31240652 189.29763443 -173.6013163 185.30443083 -169.875 181.3125 C-169.27671387 180.67046631 -168.67842773 180.02843262 -168.06201172 179.36694336 C-164.76853284 175.84605978 -161.40933778 172.40933778 -158 169 C-156.71783347 167.59358228 -155.44725596 166.1765261 -154.1875 164.75 C-149.87264976 159.92199337 -145.44735527 155.20600016 -141 150.5 C-135.99741199 145.20375059 -131.04041283 139.8792865 -126.19140625 134.44140625 C-122.02921905 129.80438843 -117.78108613 125.24587385 -113.54833984 120.67333984 C-111.52789422 118.48978035 -109.51009234 116.30378955 -107.49267578 114.11743164 C-106.49788302 113.03949543 -105.50276596 111.96185841 -104.50732422 110.88452148 C-101.96389811 108.13142672 -99.4252299 105.37417716 -96.89453125 102.609375 C-91.79055585 97.04176771 -86.65986007 91.54896633 -81.23046875 86.29296875 C-78.66503282 83.6556467 -76.27428402 80.89392664 -73.86254883 78.11645508 C-70.90326175 74.75375228 -67.82702188 71.50467437 -64.75 68.25 C-59.35771614 62.52256864 -54.00574804 56.76378378 -48.703125 50.953125 C-46.74447272 48.80821159 -44.77379778 46.67496033 -42.796875 44.546875 C-42.25764404 43.96574951 -41.71841309 43.38462402 -41.1628418 42.78588867 C-40.12922151 41.67279552 -39.09431764 40.56089232 -38.05786133 39.45043945 C-35.94105392 37.16871419 -33.89923031 34.87292575 -31.96484375 32.43359375 C-29.80264501 29.75556231 -27.46479164 27.40149638 -25 25 C-19.33477016 19.40997233 -13.74406842 13.84397153 -8.56640625 7.79296875 C-1.75816993 0 -1.75816993 0 0 0 Z " fill="#FDFDFD" transform="translate(387,207)"/>
<path d="M0 0 C1.90413666 -0.00021904 1.90413666 -0.00021904 3.84674072 -0.0004425 C7.29646625 -0.00072714 10.74615637 0.00511516 14.19587374 0.01213145 C17.81265866 0.01842101 21.42944458 0.0189732 25.04623413 0.02015686 C31.88119054 0.02325376 38.71613079 0.03144483 45.55108011 0.04150635 C53.33834419 0.0527187 61.12560907 0.0581908 68.91287923 0.06320179 C84.9189796 0.07362897 100.92506388 0.09119635 116.93115234 0.11352539 C116.93115234 3.11352539 116.93115234 3.11352539 115.63818359 4.44555664 C115.01298828 4.93411133 114.38779297 5.42266602 113.74365234 5.92602539 C105.13092999 13.1288359 97.78569356 21.90419309 90.47021484 30.39086914 C88.30883931 32.81007374 85.99484709 35.05989662 83.68115234 37.33227539 C81.84872747 39.19742214 80.137621 41.13280285 78.43115234 43.11352539 C75.64875903 46.34308906 72.72095806 49.34675192 69.68115234 52.33227539 C67.84872747 54.19742214 66.137621 56.13280285 64.43115234 58.11352539 C62.18557295 60.72000148 59.88563722 63.2028706 57.43115234 65.61352539 C53.07813648 69.89837322 49.12706082 74.50804298 45.19287109 79.17602539 C43.78986699 80.8368608 42.36281993 82.47733387 40.93115234 84.11352539 C40.60115234 84.11352539 40.27115234 84.11352539 39.93115234 84.11352539 C39.93115234 78.50352539 39.93115234 72.89352539 39.93115234 67.11352539 C33.02988713 67.207738 26.12894507 67.31397599 19.22802734 67.4309082 C16.88497864 67.46896984 14.54187604 67.50386057 12.19873047 67.53540039 C8.81246798 67.58155048 5.42656941 67.63945811 2.04052734 67.69946289 C1.0087738 67.7110141 -0.02297974 67.72256531 -1.08599854 67.73446655 C-19.66208534 68.10351921 -31.22205772 73.01234357 -44.06884766 86.11352539 C-47.1625655 89.58416436 -49.58218538 92.65353857 -51.06884766 97.11352539 C-51.58447266 98.24790039 -52.10009766 99.38227539 -52.63134766 100.55102539 C-56.90431248 112.06850926 -56.3179915 127.4580753 -51.37353516 138.66430664 C-49.00659304 143.10763809 -46.10248542 147.106834 -43.06884766 151.11352539 C-42.40884766 152.04165039 -41.74884766 152.96977539 -41.06884766 153.92602539 C-38.36381364 156.88465634 -35.46144653 158.99643849 -32.06884766 161.11352539 C-31.04017578 161.76708008 -31.04017578 161.76708008 -29.99072266 162.43383789 C-22.20479281 166.8564579 -13.80691183 167.86667865 -5.06884766 169.11352539 C-5.45556641 169.56083008 -5.84228516 170.00813477 -6.24072266 170.46899414 C-6.76150391 171.07356445 -7.28228516 171.67813477 -7.81884766 172.30102539 C-8.36541016 172.93524414 -8.91197266 173.56946289 -9.47509766 174.22290039 C-10.80095424 175.79573026 -12.06796842 177.41793305 -13.31884766 179.05102539 C-13.89634766 179.73165039 -14.47384766 180.41227539 -15.06884766 181.11352539 C-15.72884766 181.11352539 -16.38884766 181.11352539 -17.06884766 181.11352539 C-17.29572266 181.83540039 -17.52259766 182.55727539 -17.75634766 183.30102539 C-19.36148289 186.74060089 -21.28987369 188.51578885 -24.06884766 191.11352539 C-29.35597469 196.15822957 -34.05040678 201.45493424 -38.61962891 207.15649414 C-41.78544415 210.9786985 -45.13144805 214.6118012 -48.52709961 218.22973633 C-51.09956478 220.95234836 -51.09956478 220.95234836 -53.06884766 224.11352539 C-59.38516593 223.71035614 -63.7187875 221.40120408 -69.06884766 218.11352539 C-69.06884766 217.45352539 -69.06884766 216.79352539 -69.06884766 216.11352539 C-69.79072266 215.86344727 -70.51259766 215.61336914 -71.25634766 215.35571289 C-74.3210437 214.0021388 -76.49266697 212.37192502 -79.06884766 210.23852539 C-80.30634766 209.22145508 -80.30634766 209.22145508 -81.56884766 208.18383789 C-82.80634766 207.1590332 -82.80634766 207.1590332 -84.06884766 206.11352539 C-84.92994141 205.4393457 -85.79103516 204.76516602 -86.67822266 204.07055664 C-92.41806339 199.37176545 -96.70556985 193.39706732 -100.94384766 187.36352539 C-101.33733398 186.80866455 -101.73082031 186.25380371 -102.13623047 185.68212891 C-104.0574938 182.89174272 -105.55987571 180.49572604 -106.06884766 177.11352539 C-106.72884766 177.11352539 -107.38884766 177.11352539 -108.06884766 177.11352539 C-111.36382342 172.62037662 -113.15189199 167.29758489 -115.06884766 162.11352539 C-115.31070801 161.47189453 -115.55256836 160.83026367 -115.80175781 160.16918945 C-122.01897942 143.48959183 -123.57412022 127.81548836 -123.06884766 110.11352539 C-123.06240234 109.05133789 -123.05595703 107.98915039 -123.04931641 106.89477539 C-122.09317279 79.41449969 -107.54655426 54.51340959 -89.06884766 35.11352539 C-88.50552734 34.46383789 -87.94220703 33.81415039 -87.36181641 33.14477539 C-73.11630771 17.45220599 -51.53657737 7.72667253 -31.31884766 2.86352539 C-30.64660156 2.70037842 -29.97435547 2.53723145 -29.28173828 2.36914062 C-19.59058936 0.15708173 -9.90387983 -0.0301847 0 0 Z " fill="#FDFDFD" transform="translate(534.06884765625,204.886474609375)"/>
<path d="M0 0 C13.15467476 5.58818742 25.15015257 15.5042153 35.26953125 25.4453125 C35.78330322 25.94514648 36.2970752 26.44498047 36.82641602 26.95996094 C39.46687569 29.63519321 40.6638971 31.47348006 41.51953125 35.0703125 C42.11636719 35.35519531 42.71320313 35.64007813 43.328125 35.93359375 C46.59000925 37.62558719 47.71711907 40.13525242 49.58203125 43.2578125 C50.25363281 44.36511719 50.92523437 45.47242188 51.6171875 46.61328125 C53.4993133 50.03357146 55.03864814 53.46040354 56.51953125 57.0703125 C56.94234375 58.04613281 57.36515625 59.02195312 57.80078125 60.02734375 C68.09595627 84.14841086 70.67234725 113.92672888 62.5 139.2265625 C61.84300835 140.86042937 61.15312938 142.48181319 60.41796875 144.08203125 C59.35925777 146.27814105 59.35925777 146.27814105 58.58203125 149.6328125 C57.42281758 153.38320966 55.78055659 156.41347478 53.81640625 159.79296875 C52.23098137 162.57701304 50.8620784 165.43987925 49.51171875 168.34375 C48.51953125 170.0703125 48.51953125 170.0703125 46.96484375 171.609375 C45.25717336 173.1200554 45.25717336 173.1200554 44.51953125 176.0703125 C43.41709761 177.2071972 42.30597882 178.33654643 41.16015625 179.4296875 C39.09425993 181.49558382 37.19622854 183.68664706 35.26953125 185.8828125 C20.37008837 202.44864044 2.0438258 213.60356471 -19.29296875 219.6953125 C-20.00316162 219.9015625 -20.71335449 220.1078125 -21.44506836 220.3203125 C-32.49468962 223.36950802 -43.46025026 224.36767591 -54.88989258 224.29736328 C-56.79468636 224.29780136 -56.79468636 224.29780136 -58.73796082 224.29824829 C-62.17515665 224.29881534 -65.61220906 224.28716772 -69.04937196 224.27310038 C-72.65812568 224.26048336 -76.26688375 224.25941396 -79.87565613 224.25704956 C-86.68928655 224.25086669 -93.50285176 224.23449975 -100.31645364 224.21435058 C-108.08201531 224.19189137 -115.84758032 224.18097311 -123.61316645 224.17095971 C-139.56897147 224.15013017 -155.52471166 224.11501725 -171.48046875 224.0703125 C-170.04098265 221.08574317 -168.54016593 218.79440347 -166.32421875 216.3203125 C-165.70160156 215.62421875 -165.07898438 214.928125 -164.4375 214.2109375 C-160.69853387 210.12121008 -156.89659597 206.09311072 -153.0859375 202.0703125 C-149.37790326 198.13964267 -145.77404457 194.14120109 -142.23095703 190.06152344 C-139.28125414 186.70618497 -136.2278283 183.45000653 -133.16796875 180.1953125 C-132.51570313 179.49986328 -131.8634375 178.80441406 -131.19140625 178.08789062 C-126.7492332 173.36972457 -122.21009746 168.77431329 -117.6015625 164.21875 C-115.08628951 161.67105176 -112.74375819 159.01010597 -110.41015625 156.296875 C-107.86264765 153.35744201 -105.27468397 150.45726968 -102.66796875 147.5703125 C-102.187229 147.02906738 -101.70648926 146.48782227 -101.21118164 145.93017578 C-100.00897387 144.60482335 -98.74889925 143.3324324 -97.48046875 142.0703125 C-96.82046875 142.0703125 -96.16046875 142.0703125 -95.48046875 142.0703125 C-95.48046875 147.0203125 -95.48046875 151.9703125 -95.48046875 157.0703125 C-66.77046875 156.5753125 -66.77046875 156.5753125 -37.48046875 156.0703125 C-37.48046875 155.4103125 -37.48046875 154.7503125 -37.48046875 154.0703125 C-35.80984375 153.5134375 -35.80984375 153.5134375 -34.10546875 152.9453125 C-26.62252249 150.12757785 -19.78266704 146.10892722 -14.48046875 140.0703125 C-14.0009375 139.57015625 -13.52140625 139.07 -13.02734375 138.5546875 C-3.40133108 128.15081522 -1.03174631 116.33389755 -1.30078125 102.5234375 C-1.96763708 89.70820812 -6.24040423 79.64148767 -15.08203125 70.20703125 C-25.55559448 60.8763487 -36.97766459 57.21561783 -50.48046875 55.0703125 C-48.04632039 50.5254341 -44.89264937 47.12913311 -41.35546875 43.4453125 C-36.52533796 38.33591355 -31.95907522 33.10690063 -27.55078125 27.625 C-25.42575919 25.00280296 -23.25706413 22.43021257 -21.04296875 19.8828125 C-20.40488281 19.14675781 -19.76679687 18.41070312 -19.109375 17.65234375 C-17.48046875 16.0703125 -17.48046875 16.0703125 -15.48046875 16.0703125 C-15.14982422 15.27560547 -15.14982422 15.27560547 -14.8125 14.46484375 C-12.99896329 11.20473231 -10.6395622 8.52481552 -8.16796875 5.7578125 C-7.45737305 4.91379883 -7.45737305 4.91379883 -6.73242188 4.05273438 C-3.18712495 0.0903437 -3.18712495 0.0903437 0 0 Z " fill="#FCFCFC" transform="translate(617.48046875,318.9296875)"/>
<path d="M0 0 C0.33 0.66 0.66 1.32 1 2 C0.67 2.66 0.34 3.32 0 4 C45.87 4 91.74 4 139 4 C139 4.33 139 4.66 139 5 C130.12519593 6.60681438 121.60096085 7.28248067 112.59057617 7.22705078 C110.68578239 7.22748886 110.68578239 7.22748886 108.74250793 7.22793579 C105.3053121 7.22850284 101.86825969 7.21685522 98.43109679 7.20278788 C94.82234307 7.19017086 91.213585 7.18910146 87.60481262 7.18673706 C80.7911822 7.18055419 73.97761699 7.16418725 67.16401511 7.14403808 C59.39845344 7.12157887 51.63288843 7.11066061 43.8673023 7.10064721 C27.91149728 7.07981767 11.95575709 7.04470475 -4 7 C-2.79618552 4.50638429 -1.54571278 2.31856917 0 0 Z " fill="#B4B4B4" transform="translate(450,536)"/>
<path d="M0 0 C1.90413666 -0.00021904 1.90413666 -0.00021904 3.84674072 -0.0004425 C7.29646625 -0.00072714 10.74615637 0.00511516 14.19587374 0.01213145 C17.81265866 0.01842101 21.42944458 0.0189732 25.04623413 0.02015686 C31.88119054 0.02325376 38.71613079 0.03144483 45.55108011 0.04150635 C53.33834419 0.0527187 61.12560907 0.0581908 68.91287923 0.06320179 C84.9189796 0.07362897 100.92506388 0.09119635 116.93115234 0.11352539 C116.93115234 1.10352539 116.93115234 2.09352539 116.93115234 3.11352539 C70.73115234 2.78352539 24.53115234 2.45352539 -23.06884766 2.11352539 C-23.06884766 1.78352539 -23.06884766 1.45352539 -23.06884766 1.11352539 C-15.36095374 0.1556016 -7.76103137 -0.0236538 0 0 Z " fill="#B3B3B3" transform="translate(534.06884765625,204.886474609375)"/>
<path d="M0 0 C0.66 0 1.32 0 2 0 C2 36.63 2 73.26 2 111 C-11.2 111 -24.4 111 -38 111 C-38.33 105.72 -38.66 100.44 -39 95 C-38.34 95 -37.68 95 -37 95 C-37 99.95 -37 104.9 -37 110 C-24.46 110 -11.92 110 1 110 C0.67 75.02 0.34 40.04 0 4 C-2.97 6.97 -5.94 9.94 -9 13 C-9.66 12.67 -10.32 12.34 -11 12 C-10.45730469 11.46890625 -9.91460937 10.9378125 -9.35546875 10.390625 C-8.64003906 9.68421875 -7.92460937 8.9778125 -7.1875 8.25 C-6.47980469 7.55390625 -5.77210938 6.8578125 -5.04296875 6.140625 C-2.96718507 4.06278237 -2.96718507 4.06278237 -1.36328125 1.734375 C-0.91339844 1.16203125 -0.46351563 0.5896875 0 0 Z " fill="#4A4A4A" transform="translate(320,365)"/>
<path d="M0 0 C-1.66135251 4.26173035 -4.74435318 7.03991533 -7.9375 10.1875 C-8.47568359 10.73341797 -9.01386719 11.27933594 -9.56835938 11.84179688 C-12.01160618 14.27299314 -13.68733927 15.89577976 -17 17 C-15.68692628 14.10147635 -14.27315362 12.01722783 -12.03125 9.765625 C-11.17466797 8.90517578 -11.17466797 8.90517578 -10.30078125 8.02734375 C-9.70652344 7.44082031 -9.11226563 6.85429687 -8.5 6.25 C-7.90574219 5.64800781 -7.31148438 5.04601562 -6.69921875 4.42578125 C-6.12816406 3.85730469 -5.55710937 3.28882813 -4.96875 2.703125 C-4.44732422 2.18395508 -3.92589844 1.66478516 -3.38867188 1.12988281 C-2 0 -2 0 0 0 Z " fill="#C9C9C9" transform="translate(455,232)"/>
<path d="M0 0 C0.66 0 1.32 0 2 0 C2 4.95 2 9.9 2 15 C1.67 15 1.34 15 1 15 C0.67 11.37 0.34 7.74 0 4 C-2.97 6.97 -5.94 9.94 -9 13 C-9.66 12.67 -10.32 12.34 -11 12 C-9.21479439 9.99388266 -7.42241288 7.9951283 -5.625 6 C-5.11710937 5.42765625 -4.60921875 4.8553125 -4.0859375 4.265625 C-2.76495095 2.80558723 -1.38599201 1.39847843 0 0 Z " fill="#D5D5D5" transform="translate(280,461)"/>
<path d="M0 0 C0.66 0 1.32 0 2 0 C0.52278578 3.45201639 -1.43794001 5.64961936 -4.125 8.25 C-4.84945313 8.95640625 -5.57390625 9.6628125 -6.3203125 10.390625 C-6.87460937 10.92171875 -7.42890625 11.4528125 -8 12 C-8.66 11.67 -9.32 11.34 -10 11 C-9.44570313 10.45730469 -8.89140625 9.91460937 -8.3203125 9.35546875 C-7.23363281 8.28232422 -7.23363281 8.28232422 -6.125 7.1875 C-5.40570313 6.47980469 -4.68640625 5.77210938 -3.9453125 5.04296875 C-1.84641063 2.95600806 -1.84641063 2.95600806 0 0 Z " fill="#313131" transform="translate(319,366)"/>
<path d="M0 0 C0.66 0 1.32 0 2 0 C1.67 0.99 1.34 1.98 1 3 C0.34 3 -0.32 3 -1 3 C-1.66 4.32 -2.32 5.64 -3 7 C-3.99 7 -4.98 7 -6 7 C-5.04882866 5.8274869 -4.08882991 4.66212985 -3.125 3.5 C-2.59132813 2.8503125 -2.05765625 2.200625 -1.5078125 1.53125 C-0.76144531 0.77328125 -0.76144531 0.77328125 0 0 Z " fill="#3D3D3D" transform="translate(627,231)"/>
</svg>
