<?xml version="1.0" encoding="UTF-8"?>
<svg version="1.1" xmlns="http://www.w3.org/2000/svg" width="4330" height="1364">
<path d="M0 0 C0 449.46 0 898.92 0 1362 C-243.21 1362 -486.42 1362 -737 1362 C-734.51603673 1357.86006122 -732.63361263 1355.43976121 -729.25 1352.1875 C-725.57669554 1348.64703517 -722.19192046 1344.96517645 -718.85644531 1341.11254883 C-715.74560184 1337.57255297 -712.4939074 1334.16767404 -709.25 1330.75 C-703.7052989 1324.88445742 -698.20994682 1318.9819657 -692.76953125 1313.01953125 C-688.96648719 1308.86103655 -685.11012687 1304.75222296 -681.26123047 1300.63623047 C-677.49268557 1296.60430924 -673.73896493 1292.55935825 -670 1288.5 C-665.68516176 1283.81591604 -661.34871907 1279.15264265 -657 1274.5 C-650.6382591 1267.69267615 -644.31232065 1260.85313527 -638 1254 C-631.09610561 1246.5046073 -624.16989476 1239.03120872 -617.21142578 1231.58642578 C-613.45999941 1227.57065447 -609.72329131 1223.54186169 -606 1219.5 C-601.68513091 1214.81594425 -597.34871931 1210.15264291 -593 1205.5 C-586.6382591 1198.69267615 -580.31232065 1191.85313527 -574 1185 C-567.09610561 1177.5046073 -560.16989476 1170.03120872 -553.21142578 1162.58642578 C-549.45999941 1158.57065447 -545.72329131 1154.54186169 -542 1150.5 C-537.68513091 1145.81594425 -533.34871931 1141.15264291 -529 1136.5 C-522.6382591 1129.69267615 -516.31232065 1122.85313527 -510 1116 C-503.09610561 1108.5046073 -496.16989476 1101.03120872 -489.21142578 1093.58642578 C-485.45999941 1089.57065447 -481.72329131 1085.54186169 -478 1081.5 C-473.68513091 1076.81594425 -469.34871931 1072.15264291 -465 1067.5 C-459.13828487 1061.22772425 -453.30601035 1054.92915811 -447.48974609 1048.61474609 C-445.93978891 1046.93473678 -444.38631745 1045.2580358 -442.83203125 1043.58203125 C-441.78378843 1042.45058173 -440.73561036 1041.31907222 -439.6875 1040.1875 C-439.18669922 1039.64762451 -438.68589844 1039.10774902 -438.16992188 1038.55151367 C-434.77895515 1034.88268235 -431.49345268 1031.14011082 -428.3046875 1027.29296875 C-427 1026 -427 1026 -425 1026 C-425 1048.77 -425 1071.54 -425 1095 C-372.86 1095 -320.72 1095 -267 1095 C-267.33 946.17 -267.66 797.34 -268 644 C-271.63 647.96 -275.26 651.92 -279 656 C-281.30845804 658.48323089 -283.61903259 660.96371504 -285.9375 663.4375 C-290.30793768 668.11017431 -294.6654777 672.79398868 -299 677.5 C-303.3345263 682.20601567 -307.69262642 686.88929463 -312.0625 691.5625 C-316.23121603 696.02121366 -320.38169776 700.49466201 -324.5 705 C-329.21127288 710.15403568 -333.96899392 715.2629371 -338.73828125 720.36328125 C-342.50701921 724.39533714 -346.26087919 728.44047252 -350 732.5 C-354.31483824 737.18408396 -358.65128093 741.84735735 -363 746.5 C-369.3617409 753.30732385 -375.68767935 760.14686473 -382 767 C-388.90389439 774.4953927 -395.83010524 781.96879128 -402.78857422 789.41357422 C-406.54000059 793.42934553 -410.27670869 797.45813831 -414 801.5 C-418.31486909 806.18405575 -422.65128069 810.84735709 -427 815.5 C-433.3617409 822.30732385 -439.68767935 829.14686473 -446 836 C-452.90389439 843.4953927 -459.83010524 850.96879128 -466.78857422 858.41357422 C-470.54000059 862.42934553 -474.27670869 866.45813831 -478 870.5 C-482.31486909 875.18405575 -486.65128069 879.84735709 -491 884.5 C-497.3617409 891.30732385 -503.68767935 898.14686473 -510 905 C-516.90389439 912.4953927 -523.83010524 919.96879128 -530.78857422 927.41357422 C-534.54000059 931.42934553 -538.27670869 935.45813831 -542 939.5 C-546.31486909 944.18405575 -550.65128069 948.84735709 -555 953.5 C-561.3617409 960.30732385 -567.68767935 967.14686473 -574 974 C-580.90389439 981.4953927 -587.83010524 988.96879128 -594.78857422 996.41357422 C-598.54000059 1000.42934553 -602.27670869 1004.45813831 -606 1008.5 C-610.31486909 1013.18405575 -614.65128069 1017.84735709 -619 1022.5 C-625.3617409 1029.30732385 -631.68767935 1036.14686473 -638 1043 C-644.90389439 1050.4953927 -651.83010524 1057.96879128 -658.78857422 1065.41357422 C-662.54000059 1069.42934553 -666.27670869 1073.45813831 -670 1077.5 C-674.31486909 1082.18405575 -678.65128069 1086.84735709 -683 1091.5 C-689.3617409 1098.30732385 -695.68767935 1105.14686473 -702 1112 C-708.90389439 1119.4953927 -715.83010524 1126.96879128 -722.78857422 1134.41357422 C-726.54000059 1138.42934553 -730.27670869 1142.45813831 -734 1146.5 C-738.31486909 1151.18405575 -742.65128069 1155.84735709 -747 1160.5 C-753.3617409 1167.30732385 -759.68767935 1174.14686473 -766 1181 C-772.90389439 1188.4953927 -779.83010524 1195.96879128 -786.78857422 1203.41357422 C-790.54000059 1207.42934553 -794.27670869 1211.45813831 -798 1215.5 C-802.31486909 1220.18405575 -806.65128069 1224.84735709 -811 1229.5 C-817.3617409 1236.30732385 -823.68767935 1243.14686473 -830 1250 C-836.90389439 1257.4953927 -843.83010524 1264.96879128 -850.78857422 1272.41357422 C-854.54000059 1276.42934553 -858.27670869 1280.45813831 -862 1284.5 C-866.31486909 1289.18405575 -870.65128069 1293.84735709 -875 1298.5 C-881.3617409 1305.30732385 -887.68767935 1312.14686473 -894 1319 C-900.89511264 1326.48585857 -907.81188943 1333.95034612 -914.76220703 1341.38500977 C-919.28523345 1346.22607132 -923.78487985 1351.08821768 -928.26953125 1355.96484375 C-933.80617455 1361.9795816 -933.80617455 1361.9795816 -936.35795462 1362.24839699 C-937.35661909 1362.24763755 -938.35528356 1362.24687811 -939.38421059 1362.24609566 C-940.53422983 1362.25007775 -941.68424907 1362.25405985 -942.86911738 1362.25816262 C-944.14341369 1362.25233693 -945.41770999 1362.24651125 -946.73062134 1362.24050903 C-948.08940759 1362.24138047 -949.44819351 1362.24313032 -950.80697763 1362.24568737 C-954.55361937 1362.25017702 -958.3001476 1362.24213515 -962.04677486 1362.23213124 C-966.08222396 1362.22352222 -970.11766626 1362.22641509 -974.15312195 1362.22793579 C-981.14906973 1362.22898626 -988.14498031 1362.22269277 -995.14091873 1362.21146011 C-1005.25595945 1362.19522998 -1015.37098211 1362.18999966 -1025.48603444 1362.18748413 C-1041.89564775 1362.18310311 -1058.30524122 1362.169783 -1074.71484375 1362.15087891 C-1090.65852763 1362.13253062 -1106.60220613 1362.11836897 -1122.54589844 1362.10986328 C-1123.52809454 1362.10933783 -1124.51029063 1362.10881239 -1125.52225025 1362.10827102 C-1130.44946839 1362.10566101 -1135.37668657 1362.10313358 -1140.30390477 1362.10064721 C-1181.20261699 1362.07990205 -1222.10130736 1362.04466548 -1263 1362 C-1261.64036026 1359.18634947 -1260.32325227 1357.05261884 -1258.1640625 1354.78515625 C-1257.60074219 1354.18832031 -1257.03742188 1353.59148437 -1256.45703125 1352.9765625 C-1255.85246094 1352.34492187 -1255.24789063 1351.71328125 -1254.625 1351.0625 C-1253.34600308 1349.70996733 -1252.06736303 1348.35709711 -1250.7890625 1347.00390625 C-1250.1487207 1346.32859863 -1249.50837891 1345.65329102 -1248.84863281 1344.95751953 C-1246.2076498 1342.16097941 -1243.60237873 1339.33241594 -1241 1336.5 C-1236.68580122 1331.81533185 -1232.34871401 1327.15263724 -1228 1322.5 C-1221.6382591 1315.69267615 -1215.31232065 1308.85313527 -1209 1302 C-1202.09610561 1294.5046073 -1195.16989476 1287.03120872 -1188.21142578 1279.58642578 C-1184.45999941 1275.57065447 -1180.72329131 1271.54186169 -1177 1267.5 C-1172.68513091 1262.81594425 -1168.34871931 1258.15264291 -1164 1253.5 C-1157.6382591 1246.69267615 -1151.31232065 1239.85313527 -1145 1233 C-1138.09610561 1225.5046073 -1131.16989476 1218.03120872 -1124.21142578 1210.58642578 C-1120.45999941 1206.57065447 -1116.72329131 1202.54186169 -1113 1198.5 C-1108.68513091 1193.81594425 -1104.34871931 1189.15264291 -1100 1184.5 C-1093.6382591 1177.69267615 -1087.31232065 1170.85313527 -1081 1164 C-1074.09610561 1156.5046073 -1067.16989476 1149.03120872 -1060.21142578 1141.58642578 C-1056.45999941 1137.57065447 -1052.72329131 1133.54186169 -1049 1129.5 C-1044.68513091 1124.81594425 -1040.34871931 1120.15264291 -1036 1115.5 C-1029.6382591 1108.69267615 -1023.31232065 1101.85313527 -1017 1095 C-1010.09610561 1087.5046073 -1003.16989476 1080.03120872 -996.21142578 1072.58642578 C-992.45999941 1068.57065447 -988.72329131 1064.54186169 -985 1060.5 C-980.68513091 1055.81594425 -976.34871931 1051.15264291 -972 1046.5 C-965.6382591 1039.69267615 -959.31232065 1032.85313527 -953 1026 C-946.09610561 1018.5046073 -939.16989476 1011.03120872 -932.21142578 1003.58642578 C-928.45999941 999.57065447 -924.72329131 995.54186169 -921 991.5 C-916.68513091 986.81594425 -912.34871931 982.15264291 -908 977.5 C-901.6382591 970.69267615 -895.31232065 963.85313527 -889 957 C-882.09610561 949.5046073 -875.16989476 942.03120872 -868.21142578 934.58642578 C-864.45999941 930.57065447 -860.72329131 926.54186169 -857 922.5 C-852.68513091 917.81594425 -848.34871931 913.15264291 -844 908.5 C-837.6382591 901.69267615 -831.31232065 894.85313527 -825 888 C-818.09610561 880.5046073 -811.16989476 873.03120872 -804.21142578 865.58642578 C-800.45999941 861.57065447 -796.72329131 857.54186169 -793 853.5 C-788.68513091 848.81594425 -784.34871931 844.15264291 -780 839.5 C-773.6382591 832.69267615 -767.31232065 825.85313527 -761 819 C-754.09610561 811.5046073 -747.16989476 804.03120872 -740.21142578 796.58642578 C-736.45999941 792.57065447 -732.72329131 788.54186169 -729 784.5 C-724.68513091 779.81594425 -720.34871931 775.15264291 -716 770.5 C-709.6382591 763.69267615 -703.31232065 756.85313527 -697 750 C-690.09610561 742.5046073 -683.16989476 735.03120872 -676.21142578 727.58642578 C-672.45999941 723.57065447 -668.72329131 719.54186169 -665 715.5 C-660.68513091 710.81594425 -656.34871931 706.15264291 -652 701.5 C-645.6382591 694.69267615 -639.31232065 687.85313527 -633 681 C-626.09610561 673.5046073 -619.16989476 666.03120872 -612.21142578 658.58642578 C-608.45999941 654.57065447 -604.72329131 650.54186169 -601 646.5 C-596.68513091 641.81594425 -592.34871931 637.15264291 -588 632.5 C-581.6382591 625.69267615 -575.31232065 618.85313527 -569 612 C-562.09610561 604.5046073 -555.16989476 597.03120872 -548.21142578 589.58642578 C-544.45999941 585.57065447 -540.72329131 581.54186169 -537 577.5 C-532.68513091 572.81594425 -528.34871931 568.15264291 -524 563.5 C-517.6382591 556.69267615 -511.31232065 549.85313527 -505 543 C-498.09610561 535.5046073 -491.16989476 528.03120872 -484.21142578 520.58642578 C-480.45999941 516.57065447 -476.72329131 512.54186169 -473 508.5 C-468.68513091 503.81594425 -464.34871931 499.15264291 -460 494.5 C-453.6382591 487.69267615 -447.31232065 480.85313527 -441 474 C-434.09610561 466.5046073 -427.16989476 459.03120872 -420.21142578 451.58642578 C-416.45999941 447.57065447 -412.72329131 443.54186169 -409 439.5 C-404.68513091 434.81594425 -400.34871931 430.15264291 -396 425.5 C-389.6382591 418.69267615 -383.31232065 411.85313527 -377 405 C-370.09610561 397.5046073 -363.16989476 390.03120872 -356.21142578 382.58642578 C-352.45999941 378.57065447 -348.72329131 374.54186169 -345 370.5 C-340.68513091 365.81594425 -336.34871931 361.15264291 -332 356.5 C-325.6382591 349.69267615 -319.31232065 342.85313527 -313 336 C-306.09610561 328.5046073 -299.16989476 321.03120872 -292.21142578 313.58642578 C-288.45999941 309.57065447 -284.72329131 305.54186169 -281 301.5 C-276.68513091 296.81594425 -272.34871931 292.15264291 -268 287.5 C-261.6382591 280.69267615 -255.31232065 273.85313527 -249 267 C-242.09610561 259.5046073 -235.16989476 252.03120872 -228.21142578 244.58642578 C-224.45999941 240.57065447 -220.72329131 236.54186169 -217 232.5 C-212.68513091 227.81594425 -208.34871931 223.15264291 -204 218.5 C-197.6382591 211.69267615 -191.31232065 204.85313527 -185 198 C-178.09610561 190.5046073 -171.16989476 183.03120872 -164.21142578 175.58642578 C-160.45999941 171.57065447 -156.72329131 167.54186169 -153 163.5 C-148.68513091 158.81594425 -144.34871931 154.15264291 -140 149.5 C-133.6382591 142.69267615 -127.31232065 135.85313527 -121 129 C-114.09610561 121.5046073 -107.16989476 114.03120872 -100.21142578 106.58642578 C-96.45999941 102.57065447 -92.72329131 98.54186169 -89 94.5 C-84.68513091 89.81594425 -80.34871931 85.15264291 -76 80.5 C-69.6382591 73.69267615 -63.31232065 66.85313527 -57 60 C-50.09610561 52.5046073 -43.16989476 45.03120872 -36.21142578 37.58642578 C-32.45999866 33.57065367 -28.72338964 29.54177185 -25 25.5 C-20.51421023 20.63255389 -16.01307971 15.77965844 -11.5 10.9375 C-10.9121875 10.30585938 -10.324375 9.67421875 -9.71875 9.0234375 C-1.29947354 0 -1.29947354 0 0 0 Z " fill="#000000" transform="translate(1263,1)"/>
<path d="M0 0 C2.0369862 -0.00115586 4.07397218 -0.00274649 6.11095774 -0.00472724 C11.63994228 -0.00885646 17.1689093 -0.00685927 22.69789386 -0.00374103 C28.68696374 -0.00146082 34.67603079 -0.00497943 40.6651001 -0.00772095 C51.69473366 -0.01189415 62.72436209 -0.01155601 73.75399584 -0.00880948 C83.9432226 -0.00628492 94.13244734 -0.00564141 104.32167435 -0.00683212 C104.99992269 -0.00690851 105.67817104 -0.00698489 106.37697237 -0.00706359 C109.13076166 -0.00737497 111.88455095 -0.00769338 114.63834024 -0.00802336 C140.41661467 -0.01107542 166.19488559 -0.00831956 191.97315948 -0.00292646 C214.8421851 0.00182161 237.71120514 0.00139101 260.58023071 -0.00338745 C286.32314185 -0.00874853 312.0660499 -0.0108621 337.80896151 -0.00777519 C340.55561042 -0.0074545 343.30225933 -0.00714166 346.04890823 -0.00683212 C346.72511649 -0.00675305 347.40132475 -0.00667397 348.09802417 -0.00659249 C358.28141857 -0.005458 368.46481072 -0.00677965 378.6482048 -0.00931168 C390.22968873 -0.01217712 401.81116639 -0.011347 413.39264958 -0.00603093 C419.29641526 -0.00340993 425.20016965 -0.0023617 431.10393524 -0.00568008 C436.51577277 -0.00867591 441.92758863 -0.00699586 447.33942421 -0.00170253 C449.28924005 -0.00059235 451.23905775 -0.00113818 453.18887238 -0.00357832 C464.43224358 -0.01656173 475.57037181 0.2629171 486.78384399 1.12698364 C485.07358934 4.79133316 483.02386476 7.06154254 480.09634399 9.87698364 C476.40169322 13.43947739 472.99334164 17.14066961 469.63809204 21.01663208 C466.52818439 24.55607142 463.2770367 27.96006257 460.03384399 31.37698364 C454.4891429 37.24252623 448.99379081 43.14501794 443.55337524 49.10745239 C439.75033118 53.26594709 435.89397086 57.37476068 432.04507446 61.49075317 C428.27652956 65.52267441 424.52280893 69.56762539 420.78384399 73.62698364 C416.46900576 78.3110676 412.13256307 82.97434099 407.78384399 87.62698364 C401.42210309 94.43430749 395.09616465 101.27384837 388.78384399 108.12698364 C381.87994961 115.62237634 374.95373875 123.09577492 367.99526978 130.54055786 C364.2438434 134.55632917 360.5071353 138.58512195 356.78384399 142.62698364 C352.46897491 147.31103939 348.1325633 151.97434074 343.78384399 156.62698364 C337.42210309 163.43430749 331.09616465 170.27384837 324.78384399 177.12698364 C317.87994961 184.62237634 310.95373875 192.09577492 303.99526978 199.54055786 C300.2438434 203.55632917 296.5071353 207.58512195 292.78384399 211.62698364 C288.46897491 216.31103939 284.1325633 220.97434074 279.78384399 225.62698364 C273.42210309 232.43430749 267.09616465 239.27384837 260.78384399 246.12698364 C253.87994961 253.62237634 246.95373875 261.09577492 239.99526978 268.54055786 C236.2438434 272.55632917 232.5071353 276.58512195 228.78384399 280.62698364 C224.46897491 285.31103939 220.1325633 289.97434074 215.78384399 294.62698364 C209.91930701 300.90227889 204.08403231 307.20372672 198.26480103 313.52102661 C196.74049283 315.17399386 195.21367439 316.82460966 193.68618774 318.47463989 C193.1737854 319.02853394 192.66138306 319.58242798 192.13345337 320.15310669 C191.12093378 321.24748341 190.10792497 322.34140774 189.09439087 323.43484497 C186.73409778 325.98751919 184.39487421 328.55407152 182.10025024 331.16604614 C181.29458618 332.08128052 180.48892212 332.99651489 179.65884399 333.93948364 C178.95501587 334.75030396 178.25118774 335.56112427 177.52603149 336.39651489 C175.78384399 338.12698364 175.78384399 338.12698364 173.78384399 338.12698364 C173.78384399 315.68698364 173.78384399 293.24698364 173.78384399 270.12698364 C149.39082193 270.21269545 124.9978727 270.30642872 100.60494041 270.41451073 C89.27673034 270.4644523 77.94852685 270.51089595 66.62026978 270.54885864 C56.73682602 270.58198869 46.85343624 270.62193274 36.97005236 270.6697737 C31.74574792 270.69483179 26.52147831 270.71667184 21.29713058 270.73032761 C-14.9340498 270.55792236 -14.9340498 270.55792236 -50.77865601 275.31448364 C-52.33169434 275.6359436 -52.33169434 275.6359436 -53.91610718 275.96389771 C-101.22568996 286.20121503 -144.49053626 314.17605698 -173.21615601 353.12698364 C-174.38984741 354.7183313 -174.38984741 354.7183313 -175.58724976 356.34182739 C-208.14455101 401.98975931 -219.84873543 457.58740161 -211.15365601 512.70877075 C-207.69303823 532.33116873 -201.04598134 553.01326122 -191.20492554 570.36575317 C-190.1674492 572.21374189 -189.18797584 574.08557474 -188.21224976 575.96682739 C-179.42513832 592.61793069 -167.84915922 607.23918008 -154.68197632 620.63040161 C-153.45407375 621.88407295 -152.25006386 623.16108588 -151.05209351 624.44338989 C-114.27499385 663.17671825 -60.69531962 678.05225093 -9.21615601 682.12698364 C-11.01642013 685.98830023 -13.49710133 688.8067343 -16.40365601 691.87698364 C-17.40564317 692.95186627 -18.40694606 694.02738716 -19.40756226 695.10354614 C-19.89241089 695.6233606 -20.37725952 696.14317505 -20.87680054 696.67874146 C-22.567038 698.50639159 -24.2100813 700.37145045 -25.84115601 702.25198364 C-30.66227604 707.80775054 -35.61447413 713.24592654 -40.54428101 718.70510864 C-44.53320177 723.12819766 -48.49183508 727.57313369 -52.40365601 732.06448364 C-55.24763396 735.30073441 -58.14228301 738.49107032 -61.02865601 741.68948364 C-62.9416975 743.82115845 -64.83503213 745.96717474 -66.71615601 748.12698364 C-71.58758804 753.71678353 -76.57510751 759.20233262 -81.54428101 764.70510864 C-85.53320177 769.12819766 -89.49183508 773.57313369 -93.40365601 778.06448364 C-96.2488489 781.30211694 -99.14469436 784.49384654 -102.03256226 787.69338989 C-103.92464286 789.80209511 -105.79521358 791.92618166 -107.65365601 794.06448364 C-111.30552653 798.25862729 -115.05881785 802.35792656 -118.80599976 806.46682739 C-121.38608737 809.3145416 -123.91817456 812.19942382 -126.43881226 815.09963989 C-129.26927216 818.32823042 -132.15576807 821.50611539 -135.03256226 824.69338989 C-136.92464286 826.80209511 -138.79521358 828.92618166 -140.65365601 831.06448364 C-144.30552653 835.25862729 -148.05881785 839.35792656 -151.80599976 843.46682739 C-154.38608737 846.3145416 -156.91817456 849.19942382 -159.43881226 852.09963989 C-162.26927216 855.32823042 -165.15576807 858.50611539 -168.03256226 861.69338989 C-169.92464286 863.80209511 -171.79521358 865.92618166 -173.65365601 868.06448364 C-177.30552653 872.25862729 -181.05881785 876.35792656 -184.80599976 880.46682739 C-187.38485861 883.31318539 -189.91591064 886.19651257 -192.43490601 889.09573364 C-195.22313448 892.27529242 -198.06682377 895.40450902 -200.90756226 898.53713989 C-203.7227849 901.69533382 -206.47277157 904.90638814 -209.21615601 908.12698364 C-250.9527941 888.7476226 -290.06416125 864.31475012 -324.05599976 833.10354614 C-326.09731017 831.23572866 -328.17804223 829.42750973 -330.27865601 827.62698364 C-334.81240221 823.68060537 -339.00235719 819.40886897 -343.21615601 815.12698364 C-346.01547045 812.31350741 -348.83321307 809.52048775 -351.66928101 806.74417114 C-358.14233586 800.38054154 -364.41606874 794.06085388 -369.99349976 786.88479614 C-371.93454702 784.47639655 -373.94381397 782.19411074 -376.01693726 779.90042114 C-380.10347408 775.32913715 -383.81917354 770.55260695 -387.46615601 765.62698364 C-388.43657837 764.32168701 -388.43657837 764.32168701 -389.42660522 762.99002075 C-391.364094 760.37453007 -393.29224737 757.7524756 -395.21615601 755.12698364 C-395.75852905 754.38851196 -396.3009021 753.65004028 -396.85971069 752.88919067 C-450.12140783 680.00565406 -479.65857097 591.23875255 -485.21615601 488.12698364 C-485.2490271 486.78168579 -485.2490271 486.78168579 -485.28256226 485.40921021 C-487.28388787 390.64644255 -460.44841917 297.22649665 -402.21615601 207.12698364 C-401.81235718 206.54738892 -401.40855835 205.96779419 -400.99252319 205.37063599 C-392.17260025 192.73882896 -382.81362299 180.65204713 -372.76303101 168.9770813 C-371.63901496 167.63273256 -370.5435888 166.26431862 -369.46615601 164.88235474 C-362.78868408 156.40574629 -355.25828499 148.86545891 -347.61508179 141.26516724 C-345.34565582 139.0064622 -343.08712327 136.73726038 -340.82943726 134.46682739 C-333.25876596 126.88924798 -325.65061263 119.73980269 -317.21615601 113.12698364 C-316.05132646 112.13304503 -314.89393504 111.13025898 -313.74740601 110.11526489 C-269.62583449 71.10551299 -214.80091847 42.63402932 -159.21615601 24.12698364 C-158.13511597 23.76620728 -157.05407593 23.40543091 -155.9402771 23.03372192 C-105.37665079 6.36363445 -53.05854349 -0.0669038 0 0 Z " fill="#000000" transform="translate(1844.2161560058594,-0.126983642578125)"/>
<path d="M0 0 C6.14374385 0.9889187 11.23527003 3.85229165 16.75 6.625 C18.46437256 7.48484497 18.46437256 7.48484497 20.21337891 8.36206055 C56.32960737 26.76196874 89.69702685 50.58981632 119.63671875 77.85546875 C121.1474549 79.22636816 122.66990601 80.58453746 124.20703125 81.92578125 C130.08854453 87.08588234 135.64674412 92.5402657 141.1875 98.0625 C141.94804687 98.81845459 142.70859375 99.57440918 143.4921875 100.35327148 C148.20063628 105.07455963 152.65670286 109.94312863 157 115 C158.02161194 116.15656304 159.04500364 117.31155682 160.0703125 118.46484375 C168.17305873 127.64611699 175.70431557 137.16820711 183 147 C183.54156738 147.72590332 184.08313477 148.45180664 184.64111328 149.19970703 C197.73107902 166.79943227 208.98924147 185.27922605 219.59570312 204.46582031 C220.76494228 206.57581726 221.94857212 208.67630743 223.140625 210.7734375 C241.28686474 243.48241585 254.10393408 279.76593674 263 316 C263.27924316 317.13727539 263.55848633 318.27455078 263.84619141 319.44628906 C291.52905688 434.12080774 274.81117911 556.26844892 206.9140625 680.71484375 C201.57626272 689.36041051 195.92790393 697.74986098 190 706 C189.42507813 706.80405273 188.85015625 707.60810547 188.2578125 708.43652344 C181.67508563 717.6099414 174.92608362 726.55344696 167.51953125 735.078125 C165.06963657 737.91924317 162.71786655 740.82040522 160.375 743.75 C156.85897869 748.07596194 153.1039219 752.00336883 149.11328125 755.890625 C147.16104942 757.83924827 145.35299104 759.84090628 143.5625 761.9375 C137.61946162 768.84353071 131.09698496 775.19142484 124.171875 781.10546875 C122.02988521 782.97393106 119.9530619 784.90282402 117.87890625 786.84594727 C111.45821998 792.84032499 104.71740801 798.28796396 97.75585938 803.63818359 C96.05667488 804.95604387 94.3771996 806.29497111 92.703125 807.64453125 C53.4957344 839.17750585 8.17404556 862.87558321 -39 880 C-39.93328125 880.34482422 -40.8665625 880.68964844 -41.828125 881.04492188 C-67.59042087 890.48496315 -94.70446136 896.94826386 -121.75 901.4375 C-122.74379166 901.60804901 -122.74379166 901.60804901 -123.75765991 901.78204346 C-156.43649918 907.29716219 -189.5233129 907.44086621 -222.55689573 907.36285591 C-228.68330351 907.35177771 -234.80969862 907.35839873 -240.93611145 907.36264038 C-251.50881998 907.36758267 -262.08148169 907.36173525 -272.65417862 907.34775543 C-283.72737138 907.33313184 -294.80054222 907.32446286 -305.87374496 907.32357025 C-306.56715152 907.32350916 -307.26055808 907.32344806 -307.97497695 907.32338512 C-310.79057165 907.32315555 -313.60616635 907.32296839 -316.42176106 907.32283698 C-341.97161813 907.3216311 -367.5214448 907.30602849 -393.07128906 907.28125 C-417.15364824 907.25789994 -441.23598896 907.24377347 -465.31835938 907.24023438 C-466.06230392 907.24012286 -466.80624847 907.24001134 -467.57273679 907.23989645 C-470.57224533 907.23944757 -473.57175388 907.23900559 -476.57126242 907.23856402 C-478.06625452 907.23834364 -479.56124661 907.23812235 -481.05623871 907.23790014 C-482.54771618 907.23767878 -484.03919365 907.23746001 -485.53067113 907.23724384 C-509.28118124 907.23372893 -533.03168793 907.22227516 -556.78219459 907.2094375 C-563.7218841 907.20572351 -570.66157338 907.20245732 -577.60126352 907.20018864 C-592.171137 907.19537987 -606.74099959 907.18813741 -621.31086631 907.17204097 C-627.33144954 907.16543985 -633.35202305 907.16036895 -639.37261009 907.15958023 C-644.88350072 907.15879226 -650.39436673 907.15337557 -655.9052497 907.14426073 C-657.89760749 907.14175681 -659.88996822 907.14091765 -661.88232733 907.14191952 C-680.23393209 907.14936541 -680.23393209 907.14936541 -689 906 C-685.22701804 900.65356563 -681.171497 895.998487 -676.44140625 891.46875 C-673.79103556 888.78869516 -671.34440212 885.97913017 -668.8762207 883.13232422 C-665.77640406 879.60938361 -662.54207165 876.2161299 -659.3125 872.8125 C-652.97029889 866.10119158 -646.67616366 859.3494323 -640.42675781 852.55175781 C-633.05393526 844.53299324 -625.64968292 836.54452835 -618.21142578 828.58642578 C-614.45999941 824.57065447 -610.72329131 820.54186169 -607 816.5 C-602.68513091 811.81594425 -598.34871931 807.15264291 -594 802.5 C-587.6382591 795.69267615 -581.31232065 788.85313527 -575 782 C-568.09610561 774.5046073 -561.16989476 767.03120872 -554.21142578 759.58642578 C-550.45999941 755.57065447 -546.72329131 751.54186169 -543 747.5 C-538.68513091 742.81594425 -534.34871931 738.15264291 -530 733.5 C-523.6382591 726.69267615 -517.31232065 719.85313527 -511 713 C-504.09610561 705.5046073 -497.16989476 698.03120872 -490.21142578 690.58642578 C-486.45999941 686.57065447 -482.72329131 682.54186169 -479 678.5 C-474.68513091 673.81594425 -470.34871931 669.15264291 -466 664.5 C-459.6382591 657.69267615 -453.31232065 650.85313527 -447 644 C-440.09610561 636.5046073 -433.16989476 629.03120872 -426.21142578 621.58642578 C-422.45999941 617.57065447 -418.72329131 613.54186169 -415 609.5 C-410.68512973 604.81594297 -406.34855417 600.15279847 -402 595.5 C-397.45229944 590.63060523 -392.90545398 585.76045224 -388.375 580.875 C-387.64796875 580.09479492 -387.64796875 580.09479492 -386.90625 579.29882812 C-384.75595126 576.97541211 -382.72342316 574.64132968 -380.7890625 572.1328125 C-379.90347656 571.07707031 -379.90347656 571.07707031 -379 570 C-378.34 570 -377.68 570 -377 570 C-377 592.11 -377 614.22 -377 637 C-352.51110664 636.93690945 -328.0223487 636.86154378 -303.53356934 636.76428509 C-292.16057264 636.71950156 -280.78760604 636.68004768 -269.41455078 636.65356445 C-259.49078211 636.63044203 -249.56711009 636.59688802 -239.64341831 636.55129844 C-234.39891233 636.52755638 -229.15450094 636.50870408 -223.90994263 636.50238609 C-174.14485969 636.43442195 -125.73732964 630.95211053 -84 601 C-83.3601416 600.54512207 -82.7202832 600.09024414 -82.06103516 599.62158203 C-72.79016149 592.98495805 -64.19858665 585.92377369 -56 578 C-55.07703125 577.12859375 -54.1540625 576.2571875 -53.203125 575.359375 C-19.88280718 543.16855948 3.95251449 493.48257696 5.16113281 446.8449707 C5.18066396 445.37197053 5.19442461 443.89888521 5.203125 442.42578125 C5.21018463 441.62814865 5.21724426 440.83051605 5.22451782 440.00871277 C5.46314994 415.35004069 5.46314994 415.35004069 2 391 C1.81195801 390.11634766 1.62391602 389.23269531 1.43017578 388.32226562 C-6.52524252 351.94378957 -24.30662803 315.14833624 -51.75390625 289.3515625 C-53 288 -53 288 -53 286 C-53.58265625 285.74992187 -54.1653125 285.49984375 -54.765625 285.2421875 C-57.30221163 283.83198724 -58.79145598 282.26373007 -60.75 280.125 C-97.08055635 243.14250871 -149.93077841 228.82435875 -200 226 C-198.20099271 222.8557739 -196.39136862 220.13152717 -193.890625 217.51171875 C-193.30434326 216.89192139 -192.71806152 216.27212402 -192.11401367 215.63354492 C-191.49888916 214.9913501 -190.88376465 214.34915527 -190.25 213.6875 C-188.97958196 212.34458836 -187.71003974 211.00084761 -186.44140625 209.65625 C-185.8395752 209.01945313 -185.23774414 208.38265625 -184.61767578 207.7265625 C-182.22277194 205.17045626 -179.92204214 202.540457 -177.63671875 199.88671875 C-175.62126228 197.56341213 -173.56151538 195.28251535 -171.5 193 C-168.82951656 190.04130249 -166.17701942 187.07073528 -163.5625 184.0625 C-159.91062947 179.86835635 -156.15733816 175.76905708 -152.41015625 171.66015625 C-149.83006864 168.81244205 -147.29798144 165.92755982 -144.77734375 163.02734375 C-142.70640513 160.66510827 -140.60487152 158.33204147 -138.5 156 C-135.81016569 153.01937279 -133.13689636 150.02754767 -130.5 147 C-125.62856797 141.41020011 -120.6410485 135.92465102 -115.671875 130.421875 C-111.68295423 125.99878599 -107.72432093 121.55384995 -103.8125 117.0625 C-100.96852205 113.82624923 -98.07387299 110.63591332 -95.1875 107.4375 C-93.27445851 105.30582519 -91.38112388 103.1598089 -89.5 101 C-84.62856797 95.41020011 -79.6410485 89.92465102 -74.671875 84.421875 C-70.68295423 79.99878599 -66.72432093 75.55384995 -62.8125 71.0625 C-59.9673071 67.8248667 -57.07146164 64.6331371 -54.18359375 61.43359375 C-52.29151315 59.32488854 -50.42094242 57.20080199 -48.5625 55.0625 C-44.91062947 50.86835635 -41.15733816 46.76905708 -37.41015625 42.66015625 C-34.83006864 39.81244205 -32.29798144 36.92755982 -29.77734375 34.02734375 C-27.70640513 31.66510827 -25.60487152 29.33204147 -23.5 27 C-20.24100623 23.38868258 -17.02071819 19.7481153 -13.828125 16.078125 C-10.92928269 12.78285981 -7.97092309 9.54150298 -5.015625 6.296875 C-3.22980465 4.26187041 -1.58796705 2.19099251 0 0 Z " fill="#000000" transform="translate(2187,457)"/>
<path d="M0 0 C24.09 0 48.18 0 73 0 C73 449.79 73 899.58 73 1363 C48.91 1363 24.82 1363 0 1363 C0 913.21 0 463.42 0 0 Z " fill="#000000" transform="translate(2652,1)"/>
<path d="M0 0 C221.0625 0 221.0625 0 261.1875 37.6875 C282.50584077 59.87103317 289.22625038 89.45289949 289.25 119.375 C289.25067474 120.1363324 289.25134949 120.89766479 289.25204468 121.68206787 C289.23603211 133.04620345 288.80921889 143.94436436 286 155 C285.83371094 155.66515625 285.66742187 156.3303125 285.49609375 157.015625 C282.74325934 167.70070077 278.33204707 177.36842738 273 187 C272.45601562 187.98742187 271.91203125 188.97484375 271.3515625 189.9921875 C261.24792261 206.99587415 244.98909924 220.9159416 227 229 C226.34 229 225.68 229 225 229 C229.78434451 239.02353868 235.15406377 248.63533245 240.69921875 258.25390625 C244.13990702 264.22551013 247.51302531 270.23381007 250.875 276.25 C251.45894531 277.29438232 252.04289062 278.33876465 252.64453125 279.41479492 C253.83444121 281.54361821 255.02405593 283.67260654 256.21337891 285.80175781 C259.16058535 291.07757149 262.11089729 296.35164478 265.0625 301.625 C265.64241699 302.66108398 266.22233398 303.69716797 266.81982422 304.76464844 C271.22517161 312.62949284 275.65632464 320.47950201 280.09912109 328.32324219 C282.9387583 333.34025078 285.76558658 338.36399659 288.57421875 343.3984375 C289.17218262 344.4702124 289.77014648 345.5419873 290.38623047 346.64624023 C291.57429139 348.77582898 292.76212205 350.9055462 293.94970703 353.03540039 C297.9065953 360.10910772 301.95514912 367.12094156 306.15698242 374.05224609 C309 378.79000396 309 378.79000396 309 381 C274.68 381 240.36 381 205 381 C201.7 374.4 198.4 367.8 195 361 C191.36220692 354.04976039 191.36220692 354.04976039 187.69921875 347.11328125 C184.60118564 341.25861204 181.55128423 335.3791304 178.5 329.5 C174.686655 322.15600539 170.86188614 314.81859078 167 307.5 C163.13811261 300.18140685 159.31368974 292.8438173 155.5 285.5 C151.47028765 277.74372145 147.43662806 269.98962409 143.375 262.25 C142.77268555 261.09854492 142.77268555 261.09854492 142.15820312 259.92382812 C140.58341578 256.92875065 138.99708267 253.99524488 137.2265625 251.109375 C136 249 136 249 136 247 C121.81 247 107.62 247 93 247 C93 291.22 93 335.44 93 381 C62.31 381 31.62 381 0 381 C0 255.27 0 129.54 0 0 Z M93 73 C93 106.33 93 139.66 93 174 C105.3440625 174.0928125 105.3440625 174.0928125 117.9375 174.1875 C120.49749756 174.21481201 123.05749512 174.24212402 125.69506836 174.27026367 C147.7031483 174.40739254 169.0948461 172.97358178 186 157.125 C196.14384036 146.28158445 199.50622616 132.45617719 199.35351562 117.88793945 C198.96492144 106.40081773 195.7156129 96.06909048 188.0625 87.375 C173.73911992 74.04371551 152.82558396 72.81775479 134.30859375 72.90234375 C132.72987488 72.90385437 132.72987488 72.90385437 131.1192627 72.90539551 C127.22533055 72.91058798 123.33141407 72.92454894 119.4375 72.9375 C110.713125 72.958125 101.98875 72.97875 93 73 Z " fill="#000000" transform="translate(3366,460)"/>
<path d="M0 0 C172.69902716 0 172.69902716 0 192.75 4.25 C193.79019287 4.46615967 194.83038574 4.68231934 195.90209961 4.9050293 C227.02580603 11.6241855 254.8555951 26.26712014 273.0859375 53.06640625 C290.93307241 82.02526309 293.70741366 121.37245458 286 154 C285.83371094 154.71752441 285.66742188 155.43504883 285.49609375 156.17431641 C278.97755968 183.23226846 262.70980158 207.28562407 239.09082031 222.20605469 C227.93450553 229 227.93450553 229 225 229 C230.14798117 239.70477261 235.79602549 250.0392328 241.734375 260.32421875 C245.16666409 266.27054546 248.52613563 272.25638668 251.875 278.25 C252.45902588 279.29454346 253.04305176 280.33908691 253.64477539 281.4152832 C254.83461131 283.54393962 256.02414458 285.67276524 257.21337891 287.80175781 C260.16058535 293.07757149 263.11089729 298.35164478 266.0625 303.625 C266.64241699 304.66108398 267.22233398 305.69716797 267.81982422 306.76464844 C272.22468585 314.62862562 276.65662481 322.47703711 281.09692383 330.32104492 C285.7626166 338.56809482 290.39619511 346.83292871 295.02001953 355.10351562 C297.63129683 359.77375584 300.24585191 364.44185933 302.8828125 369.09765625 C303.30916992 369.85119385 303.73552734 370.60473145 304.17480469 371.38110352 C304.95228602 372.7537155 305.73147544 374.12536196 306.51269531 375.49584961 C309 379.88948709 309 379.88948709 309 381 C274.68 381 240.36 381 205 381 C198.73 368.79 192.46 356.58 186 344 C182.20109476 336.75270712 182.20109476 336.75270712 178.3828125 329.515625 C175.39040548 323.86015585 172.44795046 318.17872817 169.5 312.5 C165.29892126 304.40948441 161.07830492 296.33002631 156.82177734 288.26855469 C154.40871636 283.69283548 152.01447281 279.10777631 149.6328125 274.515625 C149.05144531 273.39478516 148.47007813 272.27394531 147.87109375 271.11914062 C146.7343738 268.92580516 145.59889246 266.73182718 144.46484375 264.53710938 C142.25563468 260.2741541 140.05037702 256.03067881 137.6171875 251.890625 C136 249 136 249 136 247 C121.81 247 107.62 247 93 247 C93 291.22 93 335.44 93 381 C62.31 381 31.62 381 0 381 C0 255.27 0 129.54 0 0 Z M93 73 C93 106.33 93 139.66 93 174 C101.1675 174.0825 109.335 174.165 117.75 174.25 C121.54902832 174.30462402 121.54902832 174.30462402 125.42480469 174.36035156 C147.12375282 174.54215517 169.61191855 173.0683949 186.10546875 157.15625 C197.10287159 144.63961832 199.92408087 129.18852781 199 113 C197.39157498 100.97770455 192.95027617 91.55595648 183.5390625 83.75 C169.31733459 73.94794753 151.01983815 72.82600376 134.30859375 72.90234375 C132.72987488 72.90385437 132.72987488 72.90385437 131.1192627 72.90539551 C127.22533055 72.91058798 123.33141407 72.92454894 119.4375 72.9375 C110.713125 72.958125 101.98875 72.97875 93 73 Z " fill="#000000" transform="translate(4021,972)"/>
<path d="M0 0 C1.21538405 0.00138269 1.21538405 0.00138269 2.45532131 0.00279331 C3.38225292 0.00141865 4.30918453 0.00004398 5.26420498 -0.00137234 C6.80168392 0.00402058 6.80168392 0.00402058 8.37022305 0.00952244 C9.97978123 0.0093034 9.97978123 0.0093034 11.62185574 0.00907993 C15.18765656 0.00977959 18.75340589 0.01757445 22.31919765 0.02539158 C24.78399534 0.02725557 27.24879339 0.02867956 29.71359158 0.0296793 C36.21558045 0.03350596 42.71754716 0.0433375 49.21952724 0.05438328 C55.84844957 0.06513035 62.47737833 0.06917624 69.10630703 0.0742197 C82.12389464 0.08495964 95.14146685 0.10184686 108.1590414 0.12304783 C112.54291363 13.17767519 116.89962396 26.23212213 120.94419765 39.39648533 C121.3624233 40.75031623 121.78090515 42.104068 122.19961452 43.45774937 C123.08426155 46.31941044 123.96735713 49.18154313 124.84910488 52.04409885 C126.26440704 56.63857938 127.68355074 61.23186805 129.10337734 65.82495213 C129.59712312 67.42228736 130.090867 69.01962318 130.58460903 70.61695957 C130.95492434 71.8149578 130.95492434 71.8149578 131.33272076 73.03715801 C132.08806339 75.48119 132.84306201 77.92532803 133.59797573 80.36949253 C138.77196774 97.11924338 143.97577222 113.85969391 149.18243313 130.59931278 C151.11390557 136.80950024 153.04455349 143.01994411 154.97530651 149.23035526 C155.44815819 150.75130886 155.92102038 152.2722592 156.39389324 153.79320621 C161.09119799 168.90167831 165.78274695 184.01193226 170.4715414 199.12304783 C171.01566677 200.87665119 171.01566677 200.87665119 171.57078457 202.66568089 C173.3771578 208.48737671 175.18341078 214.30910984 176.98960781 220.13086033 C179.95906325 229.70184628 182.92940922 239.27255583 185.89976406 248.84326267 C187.3982948 253.67166407 188.89665892 258.50011713 190.39488125 263.32861423 C194.0309336 275.04655886 197.66848582 286.76403438 201.30966854 298.48038578 C215.35599937 343.6788361 215.35599937 343.6788361 221.0645895 362.28009129 C221.53866351 363.82395378 222.01363774 365.36754018 222.48957729 366.91082859 C223.12435382 368.97031556 223.75557175 371.0308554 224.3856039 373.09179783 C224.73187832 374.22037205 225.07815273 375.34894627 225.43492031 376.5117197 C226.1590414 379.12304783 226.1590414 379.12304783 226.1590414 381.12304783 C194.1490414 381.12304783 162.1390414 381.12304783 129.1590414 381.12304783 C125.98713589 369.70418799 122.86572297 358.29791045 119.95201015 346.81445408 C119.5780821 345.34519291 119.2040825 343.87594994 118.83001614 342.40672398 C118.0581715 339.37298264 117.28789207 336.33884922 116.51866055 333.30444431 C115.53283609 329.41662491 114.54181261 325.5301503 113.54955482 321.64396858 C112.78103703 318.63093392 112.01576923 315.61708099 111.25144291 312.60298061 C110.88696441 311.16775692 110.52134331 309.73282289 110.15454578 308.29819012 C109.64637934 306.30909397 109.14273563 304.31890585 108.64024258 302.32837009 C108.35332043 301.19907581 108.06639828 300.06978153 107.77078152 298.90626621 C107.1590414 296.12304783 107.1590414 296.12304783 107.1590414 293.12304783 C52.2140414 293.61804783 52.2140414 293.61804783 -3.8409586 294.12304783 C-10.70832985 321.63212722 -10.70832985 321.63212722 -17.57313633 349.14184666 C-18.90162754 354.4603281 -18.90162754 354.4603281 -19.52371311 356.94950962 C-19.95826904 358.68926963 -20.39235856 360.42914619 -20.82608128 362.16911411 C-21.48285916 364.80352889 -22.14111274 367.43757092 -22.79969883 370.07153416 C-22.99283633 370.84768228 -23.18597383 371.62383039 -23.38496399 372.42349815 C-24.12085584 375.36136122 -24.88277922 378.24850971 -25.8409586 381.12304783 C-56.8609586 381.12304783 -87.8809586 381.12304783 -119.8409586 381.12304783 C-118.6235433 375.03597134 -117.50276981 369.59349349 -115.66810703 363.77075291 C-115.45882132 363.10146196 -115.2495356 362.43217102 -115.03390789 361.74259853 C-114.3442063 359.5410442 -113.64727568 357.3418509 -112.9503336 355.14257908 C-112.45287235 353.55921923 -111.95590645 351.97570369 -111.45939732 350.39204502 C-110.39754089 347.0082757 -109.33261582 343.62549427 -108.26521397 340.24347019 C-106.5652021 334.85654193 -104.87245505 329.46734914 -103.18129063 324.07763767 C-102.89629766 323.16942894 -102.6113047 322.26122021 -102.31767559 321.32549 C-101.73883258 319.48082416 -101.16000891 317.63615226 -100.58120441 315.79147434 C-99.70420986 312.99722509 -98.826566 310.20318048 -97.9487772 307.40918064 C-92.71758218 290.75456801 -87.54101642 274.08332214 -82.38334751 257.40581608 C-80.58800279 251.60119791 -78.79103164 245.79708281 -76.99428654 239.99289799 C-76.54359084 238.53694841 -76.09292244 237.08099038 -75.64228153 235.62502384 C-70.38389052 218.6362618 -65.10550558 201.65372378 -59.8251543 184.67177677 C-57.65448458 177.69073872 -55.4840613 170.70962404 -53.31361485 163.72851658 C-53.08023348 162.97787685 -52.84685211 162.22723713 -52.60639858 161.45385075 C-47.90899919 146.34505741 -43.21735052 131.23448376 -38.5284586 116.12304783 C-38.16869938 114.96361668 -37.80894016 113.80418552 -37.43827915 112.60962009 C-35.64206966 106.8206692 -33.84598106 101.03168081 -32.04994297 95.24267673 C-29.71505081 87.71700098 -27.37962446 80.19149103 -25.0440836 72.66601658 C-24.84370298 72.02035866 -24.64332237 71.37470074 -24.43686962 70.70947742 C-23.43693876 67.4875504 -22.43700056 64.26562566 -21.43705845 61.04370213 C-19.24969685 53.99578367 -19.24969685 53.99578367 -17.06259251 46.94778538 C-16.37671473 44.73808317 -15.69043269 42.52850639 -15.0037241 40.31906223 C-13.32295243 34.90946333 -11.64731831 29.49837316 -9.98433304 24.08328247 C-9.15206844 21.37425665 -8.31748494 18.66594777 -7.48269939 15.95769787 C-7.08046648 14.65046145 -6.67936512 13.34287628 -6.27943325 12.03493404 C-5.72601847 10.22530625 -5.16847959 8.41694121 -4.61073399 6.60864353 C-4.29262257 5.57198048 -3.97451115 4.53531742 -3.64675999 3.46724033 C-2.51264727 0.16794283 -2.51264727 0.16794283 0 0 Z M50.1590414 69.12304783 C48.59509398 75.64353482 47.03300791 82.16446632 45.4715414 88.68554783 C45.22772732 89.7033231 44.98391323 90.72109837 44.73271084 91.76971531 C41.79431216 104.03933195 38.87296691 116.31268338 35.99107265 128.59570408 C28.6545724 159.84505037 21.00530636 190.99665609 13.1590414 222.12304783 C38.2390414 222.12304783 63.3190414 222.12304783 89.1590414 222.12304783 C87.64360169 213.57951608 87.64360169 213.57951608 85.74888515 205.17358494 C85.48614803 204.129258 85.22341091 203.08493107 84.95271206 202.00895786 C84.67017574 200.90063099 84.38763943 199.79230412 84.0965414 198.65039158 C83.79281612 197.44502247 83.48909084 196.23965336 83.17616177 194.99775791 C82.5177581 192.3849767 81.85821303 189.77251597 81.1967001 187.16052341 C79.40155813 180.0709072 77.61865089 172.97821735 75.8387289 165.88476658 C75.65189415 165.14050545 75.46505939 164.39624432 75.27256298 163.62942982 C72.17828287 151.29382242 69.15620184 138.941502 66.1668539 126.58007908 C65.96168903 125.73235872 65.75652416 124.88463837 65.54514217 124.01122952 C63.52416709 115.66037796 61.50760462 107.30849695 59.50331211 98.95362473 C58.75771074 95.84962957 58.00829632 92.74656342 57.2580061 89.64369869 C56.90916052 88.19690065 56.56208909 86.74967354 56.21690655 85.30199718 C55.74386065 83.31843821 55.26435569 81.33642292 54.78452969 79.35449314 C54.51746212 78.24181065 54.25039455 77.12912815 53.97523403 75.982728 C53.26017068 73.47737275 52.42359468 71.38995685 51.1590414 69.12304783 C50.8290414 69.12304783 50.4990414 69.12304783 50.1590414 69.12304783 Z " fill="#000000" transform="translate(3725.840958595276,971.8769521713257)"/>
<path d="M0 0 C1.21538405 0.00138269 1.21538405 0.00138269 2.45532131 0.00279331 C3.38225292 0.00141865 4.30918453 0.00004398 5.26420498 -0.00137234 C6.80168392 0.00402058 6.80168392 0.00402058 8.37022305 0.00952244 C9.97978123 0.0093034 9.97978123 0.0093034 11.62185574 0.00907993 C15.18765656 0.00977959 18.75340589 0.01757445 22.31919765 0.02539158 C24.78399534 0.02725557 27.24879339 0.02867956 29.71359158 0.0296793 C36.21558045 0.03350596 42.71754716 0.0433375 49.21952724 0.05438328 C55.84844957 0.06513035 62.47737833 0.06917624 69.10630703 0.0742197 C82.12389464 0.08495964 95.14146685 0.10184686 108.1590414 0.12304783 C110.07029216 5.12921009 111.84856098 10.13084714 113.44541836 15.24829197 C113.65483594 15.91724554 113.86425352 16.58619911 114.08001709 17.275424 C114.77131355 19.48567184 115.45934425 21.69692141 116.14732265 23.90820408 C116.64291934 25.49536308 117.13870247 27.08246389 117.63465786 28.66951084 C118.97114839 32.94847613 120.30468144 37.22835776 121.63756847 41.50844669 C122.7581132 45.1054598 123.88033909 48.70194753 125.00252914 52.29844761 C134.82234629 83.77162021 144.58561879 115.26229338 154.33160305 146.75839329 C158.68293597 160.81987082 163.0449817 174.87801481 167.4090414 188.93554783 C168.14765164 191.31494128 168.88625843 193.69433581 169.62486172 196.07373142 C170.71962897 199.60045395 171.81441428 203.12717087 172.90925503 206.65387058 C175.42951302 214.7722551 177.9488118 222.89093684 180.46763515 231.00976658 C189.52985726 260.21860683 198.6014931 289.42450842 207.68037319 318.62817478 C207.9166282 319.38813314 208.15288321 320.14809151 208.39629745 320.93107891 C208.86719289 322.44574075 209.33811896 323.96039307 209.80907631 325.47503567 C210.94902101 329.14139378 212.0883883 332.80792916 213.22640896 336.47488499 C215.20128763 342.836823 217.1796831 349.19752212 219.17912674 355.55179024 C220.03424311 358.27038275 220.88635299 360.98991302 221.73817158 363.70954037 C222.32774166 365.58733056 222.92180831 367.46370709 223.51599026 369.34004307 C223.86540173 370.45654743 224.21481319 371.5730518 224.57481289 372.72338963 C224.88224926 373.69866108 225.18968563 374.67393253 225.50643826 375.67875767 C226.1590414 378.12304783 226.1590414 378.12304783 226.1590414 381.12304783 C194.1490414 381.12304783 162.1390414 381.12304783 129.1590414 381.12304783 C125.9640357 369.6210273 122.83702004 358.13850063 119.95201015 346.56054783 C119.57814856 345.06645444 119.2041475 343.57239595 118.83001614 342.07837009 C118.05804201 338.99338024 117.28772197 335.90798379 116.51866055 332.82226658 C115.53223691 328.86501562 114.54148606 324.90886215 113.54955482 320.95298862 C112.7818026 317.88918172 112.01627782 314.82482172 111.25144291 311.76028538 C110.88651306 310.29923326 110.52088585 308.83835514 110.15454578 307.37765598 C109.64750389 305.35454363 109.14346449 303.33070696 108.64024258 301.30664158 C108.35332043 300.15736179 108.06639828 299.00808201 107.77078152 297.82397556 C107.1590414 295.12304783 107.1590414 295.12304783 107.1590414 293.12304783 C70.5290414 293.12304783 33.8990414 293.12304783 -3.8409586 293.12304783 C-5.1609586 299.06304783 -6.4809586 305.00304783 -7.8409586 311.12304783 C-10.2049878 320.62793578 -10.2049878 320.62793578 -11.05336094 323.89233494 C-11.23840183 324.60582096 -11.42344273 325.31930698 -11.61409092 326.0544138 C-11.7972385 326.76026615 -11.98038609 327.46611851 -12.1690836 328.19336033 C-12.52270788 329.56495379 -12.87605979 330.93661751 -13.22914219 332.30835056 C-14.51314627 337.28909328 -15.80233925 342.26849718 -17.0909586 347.24804783 C-19.9784586 358.42679783 -22.8659586 369.60554783 -25.8409586 381.12304783 C-56.8609586 381.12304783 -87.8809586 381.12304783 -119.8409586 381.12304783 C-117.59096504 370.99807683 -117.59096504 370.99807683 -116.41835117 367.22680759 C-116.15145481 366.36219913 -115.88455845 365.49759068 -115.60957432 364.60678196 C-115.32112644 363.68531376 -115.03267857 362.76384556 -114.73548985 361.81445408 C-114.42391941 360.80887455 -114.11234898 359.80329502 -113.79133701 358.76724339 C-112.74880493 355.40560348 -111.70112252 352.0455916 -110.6534586 348.68554783 C-109.90240989 346.26743315 -109.15168642 343.84921744 -108.40126133 341.43090916 C-106.76546021 336.16193108 -105.12742045 330.89365704 -103.48744297 325.62597752 C-100.97136929 317.54411934 -98.45968497 309.46090119 -95.94882679 301.37742138 C-92.04205144 288.80012143 -88.13303357 276.22352013 -84.22219563 263.64748287 C-78.98546399 246.80770461 -73.75453956 229.96613485 -68.5284586 213.12304783 C-68.16449986 211.95011173 -67.80054111 210.77717564 -67.42555332 209.56869602 C-64.89712002 201.42021955 -62.36899177 193.27164845 -59.8409586 185.12304783 C-57.31283965 176.97417075 -54.78461272 168.82532721 -52.25608921 160.67657566 C-51.52186391 158.3103344 -50.78767193 155.9440828 -50.05351353 153.57782078 C-45.67164928 139.45508717 -41.28548231 125.3337043 -36.89298534 111.21427441 C-35.41189787 106.4532946 -33.9310762 101.6922321 -32.45024872 96.93117142 C-31.21402114 92.9565839 -29.97764797 88.98204179 -28.74095249 85.00759983 C-23.75322383 68.9772842 -18.77541973 52.94418656 -13.8565836 36.89257908 C-13.28630939 35.0327338 -13.28630939 35.0327338 -12.7045145 33.1353159 C-10.94767457 27.40362381 -9.19463575 21.6708131 -7.44789219 15.93603611 C-6.84201797 13.95537926 -6.23606621 11.97474614 -5.6300211 9.99414158 C-5.22242558 8.64845852 -5.22242558 8.64845852 -4.8065958 7.27558994 C-2.62895985 0.17571704 -2.62895985 0.17571704 0 0 Z M50.1590414 69.12304783 C49.92926098 70.10480991 49.69948055 71.086572 49.46273708 72.09808445 C46.51447729 84.69141748 43.55754925 97.28270649 40.5965414 109.87304783 C40.35995941 110.8793512 40.12337742 111.88565456 39.87962627 112.92245197 C32.96550754 142.32566829 25.90616496 171.68295999 18.42832851 200.94824314 C17.9881036 202.68013134 17.9881036 202.68013134 17.53898525 204.44700718 C17.00029454 206.56406795 16.45752796 208.68009795 15.90971279 210.79481602 C15.67641262 211.71177753 15.44311245 212.62873905 15.20274258 213.57348728 C14.99960949 214.36205616 14.7964764 215.15062504 14.58718777 215.96308994 C14.0294169 218.4099941 14.0294169 218.4099941 14.1590414 222.12304783 C38.9090414 222.12304783 63.6590414 222.12304783 89.1590414 222.12304783 C88.49765802 216.83198074 87.81297235 212.26414382 86.50767422 207.18701267 C86.34284007 206.54000998 86.17800592 205.8930073 86.0081768 205.22639847 C85.46395485 203.09442775 84.91298839 200.96425942 84.3621664 198.83398533 C83.97231471 197.3104706 83.58298884 195.78682124 83.19415188 194.26304722 C82.36667262 191.02301887 81.53662865 187.78366402 80.70448208 184.54483128 C78.52381789 176.05473321 76.36190636 167.55985554 74.20201015 159.06445408 C73.98580957 158.21452318 73.76960899 157.36459229 73.54685688 156.48890591 C68.18094855 135.38152463 63.08705326 114.21200366 58.05097866 93.02362156 C56.14983695 85.04070294 54.17540055 77.07763176 52.1590414 69.12304783 C51.4990414 69.12304783 50.8390414 69.12304783 50.1590414 69.12304783 Z " fill="#000000" transform="translate(3070.840958595276,459.8769521713257)"/>
<path d="M0 0 C1.06589355 0.51385254 1.06589355 0.51385254 2.15332031 1.03808594 C18.40802115 8.89806521 32.03147867 19.52271054 45 32 C41.29093112 38.05658083 37.00387881 43.47829125 32.3815918 48.85058594 C27.53650835 54.49600599 22.96128603 60.33447739 18.39697266 66.20751953 C16.48071547 68.66630322 14.54910557 71.11285323 12.6184082 73.56030273 C8.33889583 78.98763859 4.11173032 84.44360768 0 90 C-4.2751157 89.41654749 -7.37488859 86.84640198 -10.8125 84.4375 C-36.17632126 67.18985391 -65.74651025 57.32661529 -96.625 63.1875 C-108.28740043 66.14763924 -115.65926665 70.85879352 -121.9375 81.1875 C-123.82897901 87.97457176 -124.41232966 95.69775775 -121.5625 102.3125 C-109.85852697 121.47174353 -80.0613193 128.43232725 -60.315979 136.18969727 C-54.04238406 138.65669845 -47.77579049 141.14143786 -41.50882149 143.62520981 C-39.35692521 144.47633613 -37.2033133 145.32297712 -35.04930115 146.16873169 C-28.13941887 148.8903807 -21.2754027 151.69609277 -14.46704102 154.66357422 C-13.83158576 154.93989748 -13.1961305 155.21622074 -12.54141903 155.50091743 C15.54590222 167.86915347 37.40101902 186.97539296 49.50390625 215.55078125 C59.87214245 243.86999355 58.48737575 276.64278886 46.21484375 304.0625 C42.12369219 312.83058634 37.23185319 320.56034464 31 328 C30.16726563 328.99644531 29.33453125 329.99289062 28.4765625 331.01953125 C3.16363966 360.35694553 -35.47213578 373.67947682 -73.16015625 376.82348633 C-129.1568029 380.30402068 -184.08084353 363.3051491 -227 327 C-228.66281338 325.66186427 -230.32842041 324.32716888 -232 323 C-230.48655805 318.14057495 -227.69640639 315.03008888 -224.375 311.3125 C-223.2748082 310.05576625 -222.17585085 308.79795077 -221.078125 307.5390625 C-220.54509766 306.9296582 -220.01207031 306.32025391 -219.46289062 305.69238281 C-217.62637409 303.56776121 -215.86631271 301.39063912 -214.125 299.1875 C-209.89765471 293.83933456 -205.55843179 288.5863093 -201.21899414 283.32910156 C-197.81918802 279.20995599 -194.43264874 275.08093629 -191.0625 270.9375 C-187.47059517 266.53842555 -183.77820591 262.23985165 -180 258 C-179.57332031 258.32871094 -179.14664063 258.65742187 -178.70703125 258.99609375 C-152.1201461 279.22405379 -121.51450644 296.50385268 -87.1875 296.3125 C-86.13868652 296.30758545 -85.08987305 296.3026709 -84.00927734 296.29760742 C-70.38175444 296.09240534 -56.21170581 293.91136152 -46 284 C-39.85002037 275.91716963 -38.96044815 267.92498454 -40 258 C-42.62016565 248.99394226 -48.49154859 243.47366606 -56.48168945 238.9921875 C-66.49353027 233.56582529 -76.72575516 228.96133415 -87.2623291 224.65646362 C-90.97950589 223.1363902 -94.68747345 221.59438704 -98.39633179 220.05415344 C-101.30691377 218.84577298 -104.21858499 217.64004593 -107.13037109 216.43457031 C-115.78152982 212.84915904 -124.42153978 209.23828449 -133.04299927 205.58200073 C-134.81808718 204.83150614 -136.59495288 204.08519961 -138.37374878 203.34353638 C-153.55425012 197.0119377 -167.48993973 189.85184758 -180 179 C-180.83015625 178.30261719 -181.6603125 177.60523438 -182.515625 176.88671875 C-202.4849688 159.64325163 -214.58580975 135.96873329 -217.75 109.875 C-217.8591409 108.25152912 -217.94023752 106.62603748 -218 105 C-218.0515625 103.92105469 -218.103125 102.84210938 -218.15625 101.73046875 C-218.8322271 75.28286459 -210.79855657 48.90264949 -193 29 C-192.31421875 28.18402344 -191.6284375 27.36804688 -190.921875 26.52734375 C-181.81435099 15.9291998 -171.16112298 7.80803273 -159 1 C-158.39704102 0.66226563 -157.79408203 0.32453125 -157.17285156 -0.0234375 C-109.70637993 -26.20504756 -47.75664217 -23.80054154 0 0 Z " fill="#000000" transform="translate(3183,983)"/>
<path d="M0 0 C98.34 0 196.68 0 298 0 C298 25.41 298 50.82 298 77 C264.01 77 230.02 77 195 77 C195 177.32 195 277.64 195 381 C164.31 381 133.62 381 102 381 C102 280.68 102 180.36 102 77 C68.34 77 34.68 77 0 77 C0 51.59 0 26.18 0 0 Z " fill="#000000" transform="translate(3291,972)"/>
<path d="M0 0 C98.34 0 196.68 0 298 0 C298 25.41 298 50.82 298 77 C264.01 77 230.02 77 195 77 C195 177.32 195 277.64 195 381 C164.64 381 134.28 381 103 381 C103 280.68 103 180.36 103 77 C69.01 77 35.02 77 0 77 C0 51.59 0 26.18 0 0 Z " fill="#000000" transform="translate(3718,460)"/>
</svg>
