<?xml version="1.0" encoding="utf-8" standalone="no"?>
<!DOCTYPE svg PUBLIC "-//W3C//DTD SVG 1.1//EN"
  "http://www.w3.org/Graphics/SVG/1.1/DTD/svg11.dtd">
<svg xmlns:xlink="http://www.w3.org/1999/xlink" width="576pt" height="360pt" viewBox="0 0 576 360" xmlns="http://www.w3.org/2000/svg" version="1.1">
 <metadata>
  <rdf:RDF xmlns:dc="http://purl.org/dc/elements/1.1/" xmlns:cc="http://creativecommons.org/ns#" xmlns:rdf="http://www.w3.org/1999/02/22-rdf-syntax-ns#">
   <cc:Work>
    <dc:type rdf:resource="http://purl.org/dc/dcmitype/StillImage"/>
    <dc:date>2026-04-28T11:47:11.338125</dc:date>
    <dc:format>image/svg+xml</dc:format>
    <dc:creator>
     <cc:Agent>
      <dc:title>Matplotlib v3.9.4, https://matplotlib.org/</dc:title>
     </cc:Agent>
    </dc:creator>
   </cc:Work>
  </rdf:RDF>
 </metadata>
 <defs>
  <style type="text/css">*{stroke-linejoin: round; stroke-linecap: butt}</style>
 </defs>
 <g id="figure_1">
  <g id="patch_1">
   <path d="M 0 360 
L 576 360 
L 576 0 
L 0 0 
L 0 360 
z
" style="fill: none"/>
  </g>
  <g id="axes_1">
   <g id="patch_2">
    <path d="M 57.044375 310.493125 
L 565.2 310.493125 
L 565.2 38.810625 
L 57.044375 38.810625 
L 57.044375 310.493125 
z
" style="fill: none"/>
   </g>
   <g id="PolyCollection_1">
    <defs>
     <path id="m8e9b03a807" d="M 80.142358 -49.506875 
L 80.142358 -321.189375 
L 131.471209 -185.348125 
L 182.80006 -139.977148 
L 234.128911 -117.4275 
L 285.457762 -103.843375 
L 336.786613 -94.60617 
L 388.115464 -88.08579 
L 439.444315 -83.467187 
L 490.773166 -79.663633 
L 542.102017 -76.675125 
L 542.102017 -49.506875 
L 542.102017 -49.506875 
L 490.773166 -49.506875 
L 439.444315 -49.506875 
L 388.115464 -49.506875 
L 336.786613 -49.506875 
L 285.457762 -49.506875 
L 234.128911 -49.506875 
L 182.80006 -49.506875 
L 131.471209 -49.506875 
L 80.142358 -49.506875 
z
" style="stroke: #8b5cf6; stroke-opacity: 0.1"/>
    </defs>
    <g clip-path="url(#pe43d27927e)">
     <use xlink:href="#m8e9b03a807" x="0" y="360" style="fill: #8b5cf6; fill-opacity: 0.1; stroke: #8b5cf6; stroke-opacity: 0.1"/>
    </g>
   </g>
   <g id="matplotlib.axis_1">
    <g id="xtick_1">
     <g id="line2d_1">
      <path d="M 131.471209 310.493125 
L 131.471209 38.810625 
" clip-path="url(#pe43d27927e)" style="fill: none; stroke-dasharray: 2.96,1.28; stroke-dashoffset: 0; stroke: #eeeeee; stroke-opacity: 0.5; stroke-width: 0.8"/>
     </g>
     <g id="line2d_2">
      <defs>
       <path id="mb3f1e785b9" d="M 0 0 
L 0 3.5 
" style="stroke: #666666; stroke-width: 0.8"/>
      </defs>
      <g>
       <use xlink:href="#mb3f1e785b9" x="131.471209" y="310.493125" style="fill: #666666; stroke: #666666; stroke-width: 0.8"/>
      </g>
     </g>
     <g id="text_1">
      <!-- 20 -->
      <g style="fill: #666666" transform="translate(125.910271 324.650937) scale(0.1 -0.1)">
       <defs>
        <path id="ArialUnicodeMS-32" d="M 3231 0 
L 197 0 
Q 197 388 467 784 
Q 738 1181 1478 1778 
Q 1931 2141 2287 2539 
Q 2644 2938 2644 3341 
Q 2644 3688 2398 3914 
Q 2153 4141 1778 4141 
Q 1400 4141 1144 3908 
Q 888 3675 884 3213 
L 306 3278 
Q 359 3922 764 4262 
Q 1169 4603 1791 4603 
Q 2466 4603 2842 4229 
Q 3219 3856 3219 3328 
Q 3219 2888 2901 2436 
Q 2584 1984 1638 1228 
Q 1141 831 978 544 
L 3231 544 
L 3231 0 
z
" transform="scale(0.015625)"/>
        <path id="ArialUnicodeMS-30" d="M 1778 4603 
Q 3272 4603 3272 2259 
Q 3272 1075 2886 498 
Q 2500 -78 1778 -78 
Q 288 -78 288 2259 
Q 288 3444 673 4023 
Q 1059 4603 1778 4603 
z
M 1778 384 
Q 2231 384 2462 823 
Q 2694 1263 2694 2259 
Q 2694 2953 2592 3351 
Q 2491 3750 2286 3945 
Q 2081 4141 1772 4141 
Q 1319 4141 1091 3694 
Q 863 3247 863 2259 
Q 863 1575 966 1175 
Q 1069 775 1272 579 
Q 1475 384 1778 384 
z
" transform="scale(0.015625)"/>
       </defs>
       <use xlink:href="#ArialUnicodeMS-32"/>
       <use xlink:href="#ArialUnicodeMS-30" x="55.615234"/>
      </g>
     </g>
    </g>
    <g id="xtick_2">
     <g id="line2d_3">
      <path d="M 234.128911 310.493125 
L 234.128911 38.810625 
" clip-path="url(#pe43d27927e)" style="fill: none; stroke-dasharray: 2.96,1.28; stroke-dashoffset: 0; stroke: #eeeeee; stroke-opacity: 0.5; stroke-width: 0.8"/>
     </g>
     <g id="line2d_4">
      <g>
       <use xlink:href="#mb3f1e785b9" x="234.128911" y="310.493125" style="fill: #666666; stroke: #666666; stroke-width: 0.8"/>
      </g>
     </g>
     <g id="text_2">
      <!-- 40 -->
      <g style="fill: #666666" transform="translate(228.567973 324.650937) scale(0.1 -0.1)">
       <defs>
        <path id="ArialUnicodeMS-34" d="M 3263 1094 
L 2644 1094 
L 2644 0 
L 2081 0 
L 2081 1094 
L 97 1094 
L 97 1613 
L 2181 4581 
L 2644 4581 
L 2644 1613 
L 3263 1613 
L 3263 1094 
z
M 2081 1613 
L 2081 3681 
L 2069 3681 
L 647 1613 
L 2081 1613 
z
" transform="scale(0.015625)"/>
       </defs>
       <use xlink:href="#ArialUnicodeMS-34"/>
       <use xlink:href="#ArialUnicodeMS-30" x="55.615234"/>
      </g>
     </g>
    </g>
    <g id="xtick_3">
     <g id="line2d_5">
      <path d="M 336.786613 310.493125 
L 336.786613 38.810625 
" clip-path="url(#pe43d27927e)" style="fill: none; stroke-dasharray: 2.96,1.28; stroke-dashoffset: 0; stroke: #eeeeee; stroke-opacity: 0.5; stroke-width: 0.8"/>
     </g>
     <g id="line2d_6">
      <g>
       <use xlink:href="#mb3f1e785b9" x="336.786613" y="310.493125" style="fill: #666666; stroke: #666666; stroke-width: 0.8"/>
      </g>
     </g>
     <g id="text_3">
      <!-- 60 -->
      <g style="fill: #666666" transform="translate(331.225676 324.650937) scale(0.1 -0.1)">
       <defs>
        <path id="ArialUnicodeMS-36" d="M 838 2363 
Q 1225 2969 1941 2969 
Q 2503 2969 2897 2553 
Q 3291 2138 3291 1491 
Q 3291 838 2898 380 
Q 2506 -78 1856 -78 
Q 1197 -78 733 409 
Q 269 897 269 2144 
Q 269 3369 689 3986 
Q 1109 4603 1906 4603 
Q 2422 4603 2778 4315 
Q 3134 4028 3213 3463 
L 2650 3413 
Q 2497 4141 1875 4141 
Q 1444 4141 1134 3712 
Q 825 3284 825 2363 
L 838 2363 
z
M 1844 384 
Q 2231 384 2472 696 
Q 2713 1009 2713 1453 
Q 2713 1897 2472 2187 
Q 2231 2478 1825 2478 
Q 1453 2478 1184 2204 
Q 916 1931 916 1484 
Q 916 1028 1180 706 
Q 1444 384 1844 384 
z
" transform="scale(0.015625)"/>
       </defs>
       <use xlink:href="#ArialUnicodeMS-36"/>
       <use xlink:href="#ArialUnicodeMS-30" x="55.615234"/>
      </g>
     </g>
    </g>
    <g id="xtick_4">
     <g id="line2d_7">
      <path d="M 439.444315 310.493125 
L 439.444315 38.810625 
" clip-path="url(#pe43d27927e)" style="fill: none; stroke-dasharray: 2.96,1.28; stroke-dashoffset: 0; stroke: #eeeeee; stroke-opacity: 0.5; stroke-width: 0.8"/>
     </g>
     <g id="line2d_8">
      <g>
       <use xlink:href="#mb3f1e785b9" x="439.444315" y="310.493125" style="fill: #666666; stroke: #666666; stroke-width: 0.8"/>
      </g>
     </g>
     <g id="text_4">
      <!-- 80 -->
      <g style="fill: #666666" transform="translate(433.883378 324.650937) scale(0.1 -0.1)">
       <defs>
        <path id="ArialUnicodeMS-38" d="M 2425 2478 
Q 3284 2203 3284 1306 
Q 3284 716 2862 319 
Q 2441 -78 1778 -78 
Q 1109 -78 689 322 
Q 269 722 269 1325 
Q 269 1759 505 2084 
Q 741 2409 1141 2478 
L 1141 2491 
Q 453 2703 453 3419 
Q 453 3925 815 4264 
Q 1178 4603 1766 4603 
Q 2363 4603 2730 4253 
Q 3097 3903 3097 3406 
Q 3097 2731 2425 2491 
L 2425 2478 
z
M 1778 2700 
Q 2094 2700 2308 2901 
Q 2522 3103 2522 3406 
Q 2522 3716 2305 3928 
Q 2088 4141 1772 4141 
Q 1450 4141 1240 3931 
Q 1031 3722 1031 3438 
Q 1031 3097 1247 2898 
Q 1463 2700 1778 2700 
z
M 1778 384 
Q 2175 384 2440 640 
Q 2706 897 2706 1306 
Q 2706 1716 2432 1978 
Q 2159 2241 1766 2241 
Q 1356 2241 1100 1970 
Q 844 1700 844 1319 
Q 844 922 1108 653 
Q 1372 384 1778 384 
z
" transform="scale(0.015625)"/>
       </defs>
       <use xlink:href="#ArialUnicodeMS-38"/>
       <use xlink:href="#ArialUnicodeMS-30" x="55.615234"/>
      </g>
     </g>
    </g>
    <g id="xtick_5">
     <g id="line2d_9">
      <path d="M 542.102017 310.493125 
L 542.102017 38.810625 
" clip-path="url(#pe43d27927e)" style="fill: none; stroke-dasharray: 2.96,1.28; stroke-dashoffset: 0; stroke: #eeeeee; stroke-opacity: 0.5; stroke-width: 0.8"/>
     </g>
     <g id="line2d_10">
      <g>
       <use xlink:href="#mb3f1e785b9" x="542.102017" y="310.493125" style="fill: #666666; stroke: #666666; stroke-width: 0.8"/>
      </g>
     </g>
     <g id="text_5">
      <!-- 100 -->
      <g style="fill: #666666" transform="translate(533.760611 324.650937) scale(0.1 -0.1)">
       <defs>
        <path id="ArialUnicodeMS-31" d="M 2400 0 
L 1838 0 
L 1838 3584 
Q 1416 3184 709 2906 
L 709 3450 
Q 1681 3916 2034 4603 
L 2400 4603 
L 2400 0 
z
" transform="scale(0.015625)"/>
       </defs>
       <use xlink:href="#ArialUnicodeMS-31"/>
       <use xlink:href="#ArialUnicodeMS-30" x="55.615234"/>
       <use xlink:href="#ArialUnicodeMS-30" x="111.230469"/>
      </g>
     </g>
    </g>
    <g id="text_6">
     <!-- 艺术品代币数量（x） -->
     <g style="fill: #666666" transform="translate(254.122187 346.605) scale(0.12 -0.12)">
      <defs>
       <path id="ArialUnicodeMS-827a" d="M 5881 4172 
L 4256 4172 
L 4256 3494 
L 3775 3494 
L 3775 4172 
L 2497 4172 
L 2497 3494 
L 2016 3494 
L 2016 4172 
L 441 4172 
L 441 4616 
L 2016 4616 
L 2016 5247 
L 2497 5247 
L 2497 4616 
L 3775 4616 
L 3775 5247 
L 4256 5247 
L 4256 4616 
L 5881 4616 
L 5881 4172 
z
M 5663 916 
Q 5522 -184 5006 -184 
L 1709 -184 
Q 1484 -184 1356 -32 
Q 1228 119 1228 338 
Q 1228 650 1828 1256 
Q 2428 1863 3681 2706 
L 3681 2713 
L 1325 2713 
L 1325 3181 
L 4494 3181 
L 4494 2725 
Q 3250 1931 2486 1186 
Q 1722 441 1722 338 
Q 1722 281 1772 281 
L 4825 281 
Q 5103 281 5172 1106 
L 5663 916 
z
" transform="scale(0.015625)"/>
       <path id="ArialUnicodeMS-672f" d="M 6059 494 
L 5716 103 
Q 5100 413 4472 1198 
Q 3844 1984 3513 3291 
L 3372 3291 
L 3372 -441 
L 2888 -441 
L 2888 3291 
L 2747 3291 
Q 2241 1028 563 109 
L 219 481 
Q 1775 1356 2278 3291 
L 391 3291 
L 391 3756 
L 2888 3756 
L 2888 5216 
L 3372 5216 
L 3372 3756 
L 5850 3756 
L 5850 3291 
L 3975 3291 
Q 4609 1278 6059 494 
z
M 5125 4159 
L 4750 3859 
Q 4403 4409 3744 4738 
L 4056 5050 
Q 4722 4747 5125 4159 
z
" transform="scale(0.015625)"/>
       <path id="ArialUnicodeMS-54c1" d="M 4997 2963 
L 1363 2963 
L 1363 5069 
L 4997 5069 
L 4997 2963 
z
M 4575 3378 
L 4575 4653 
L 1806 4653 
L 1806 3378 
L 4575 3378 
z
M 5656 -372 
L 5172 -372 
L 5172 72 
L 3956 72 
L 3956 -372 
L 3469 -372 
L 3469 2491 
L 5656 2491 
L 5656 -372 
z
M 5172 538 
L 5172 2022 
L 3956 2022 
L 3956 538 
L 5172 538 
z
M 2894 -397 
L 2406 -397 
L 2406 38 
L 1228 38 
L 1228 -422 
L 744 -409 
L 744 2472 
L 2894 2472 
L 2894 -397 
z
M 2406 506 
L 2406 2003 
L 1228 2003 
L 1228 506 
L 2406 506 
z
" transform="scale(0.015625)"/>
       <path id="ArialUnicodeMS-4ee3" d="M 2438 5119 
Q 2325 4741 2097 4194 
L 1869 3653 
L 1869 -434 
L 1381 -434 
L 1381 2919 
Q 1200 2553 697 2041 
L 294 2344 
Q 1381 3447 1991 5313 
L 2438 5119 
z
M 6125 991 
Q 6100 781 5947 298 
Q 5794 -184 5656 -281 
Q 5519 -378 5356 -378 
Q 5100 -378 4628 -26 
Q 4156 325 3812 1044 
Q 3469 1763 3347 2753 
L 2241 2656 
L 2181 3138 
L 3291 3231 
Q 3178 4506 3188 5300 
L 3700 5300 
Q 3728 3881 3816 3278 
Q 4725 3344 5759 3450 
L 5813 2975 
L 3872 2797 
Q 4034 1797 4451 987 
Q 4869 178 5331 178 
Q 5497 178 5650 1209 
L 6125 991 
z
M 5509 4019 
L 5113 3694 
Q 4566 4472 4078 4769 
L 4434 5088 
Q 4978 4763 5509 4019 
z
" transform="scale(0.015625)"/>
       <path id="ArialUnicodeMS-5e01" d="M 5588 4813 
Q 4684 4531 3431 4422 
L 3431 3525 
L 5363 3525 
L 5363 1019 
Q 5363 800 5255 648 
Q 5147 497 4998 465 
Q 4850 434 4331 409 
L 4128 916 
L 4638 884 
Q 4878 884 4878 1013 
L 4878 3059 
L 3431 3059 
L 3431 -397 
L 2925 -397 
L 2925 3059 
L 1522 3059 
L 1522 397 
L 1044 397 
L 1044 3525 
L 2925 3525 
L 2925 4372 
Q 1913 4313 756 4331 
L 581 4813 
Q 972 4794 1416 4794 
Q 3953 4794 5325 5209 
L 5588 4813 
z
" transform="scale(0.015625)"/>
       <path id="ArialUnicodeMS-6570" d="M 6138 19 
L 5806 -378 
Q 5031 194 4697 716 
Q 4344 144 3328 -441 
L 2981 -50 
Q 3966 434 4403 1153 
Q 4038 1834 3866 2753 
Q 3678 2356 3353 1919 
L 2950 2203 
Q 3838 3172 3963 5253 
L 4409 5125 
Q 4341 4384 4269 4006 
L 5984 4006 
L 5984 3547 
L 5619 3541 
L 5594 3341 
Q 5441 2113 4978 1191 
Q 5281 672 6138 19 
z
M 5166 3541 
L 4172 3541 
Q 4297 2419 4691 1650 
Q 5038 2513 5166 3541 
z
M 3438 3653 
L 2209 3653 
L 2209 2338 
L 1919 2338 
Q 1900 2269 1753 1931 
L 3225 1931 
L 3225 1472 
L 2913 1472 
Q 2763 991 2503 666 
Q 2947 353 3103 184 
L 2747 -172 
Q 2463 138 2150 313 
Q 1322 -225 563 -428 
L 269 6 
Q 1106 163 1684 563 
Q 1291 756 703 884 
L 1038 1472 
L 403 1472 
L 403 1931 
L 1259 1931 
Q 1328 2056 1466 2553 
L 1747 2484 
L 1747 3653 
L 1716 3653 
Q 1413 2881 678 2456 
L 378 2803 
Q 938 3091 1241 3653 
L 403 3653 
L 403 4122 
L 1747 4122 
L 1747 5228 
L 2209 5228 
L 2209 4122 
L 3438 4122 
L 3438 3653 
z
M 2406 1472 
L 1538 1472 
Q 1422 1241 1369 1153 
Q 1388 1159 2069 884 
Q 2219 1031 2406 1472 
z
M 1625 4441 
L 1288 4159 
Q 1022 4547 575 4813 
L 878 5075 
Q 1394 4844 1625 4441 
z
M 3384 4844 
Q 3097 4409 2669 4172 
L 2322 4481 
Q 2806 4759 3047 5069 
L 3384 4844 
z
M 3303 2888 
L 2944 2578 
Q 2706 3025 2291 3297 
L 2584 3566 
Q 2988 3359 3303 2888 
z
" transform="scale(0.015625)"/>
       <path id="ArialUnicodeMS-91cf" d="M 5056 3378 
L 1313 3378 
L 1313 5050 
L 5056 5050 
L 5056 3378 
z
M 4569 4403 
L 4569 4609 
L 1797 4609 
L 1797 4403 
L 4569 4403 
z
M 4569 3794 
L 4569 4031 
L 1797 4031 
L 1797 3794 
L 4569 3794 
z
M 5797 2816 
L 581 2816 
L 581 3231 
L 5797 3231 
L 5797 2816 
z
M 6059 -191 
L 341 -191 
L 341 275 
L 2950 275 
L 2950 459 
L 897 459 
L 897 878 
L 2950 878 
L 2950 1044 
L 1125 1044 
L 1125 2669 
L 5269 2669 
L 5269 1044 
L 3438 1044 
L 3438 878 
L 5509 878 
L 5509 459 
L 3438 459 
L 3438 275 
L 6059 275 
L 6059 -191 
z
M 4781 2053 
L 4781 2253 
L 3438 2253 
L 3438 2053 
L 4781 2053 
z
M 2950 2053 
L 2950 2253 
L 1613 2253 
L 1613 2053 
L 2950 2053 
z
M 4781 1459 
L 4781 1697 
L 3438 1697 
L 3438 1459 
L 4781 1459 
z
M 2950 1459 
L 2950 1697 
L 1613 1697 
L 1613 1459 
L 2950 1459 
z
" transform="scale(0.015625)"/>
       <path id="ArialUnicodeMS-ff08" d="M 3964 -1344 
L 3561 -1344 
Q 3042 -681 2745 103 
Q 2448 888 2448 1656 
Q 2448 2528 2764 3275 
Q 3080 4022 3561 4659 
L 3964 4659 
Q 3408 3747 3219 3059 
Q 3030 2372 3030 1663 
Q 3030 153 3964 -1344 
z
" transform="scale(0.015625)"/>
       <path id="ArialUnicodeMS-78" d="M 3156 0 
L 2463 0 
L 1600 1313 
L 728 0 
L 44 0 
L 1259 1728 
L 141 3316 
L 838 3316 
Q 1519 2288 1581 2169 
L 2394 3316 
L 3066 3316 
L 1919 1759 
L 3156 0 
z
" transform="scale(0.015625)"/>
       <path id="ArialUnicodeMS-ff09" d="M 2850 4659 
Q 3369 3997 3666 3212 
Q 3963 2428 3963 1656 
Q 3963 788 3647 41 
Q 3332 -706 2850 -1344 
L 2447 -1344 
Q 3004 -431 3193 255 
Q 3382 941 3382 1650 
Q 3382 3163 2447 4659 
L 2850 4659 
z
" transform="scale(0.015625)"/>
      </defs>
      <use xlink:href="#ArialUnicodeMS-827a"/>
      <use xlink:href="#ArialUnicodeMS-672f" x="100"/>
      <use xlink:href="#ArialUnicodeMS-54c1" x="200"/>
      <use xlink:href="#ArialUnicodeMS-4ee3" x="300"/>
      <use xlink:href="#ArialUnicodeMS-5e01" x="400"/>
      <use xlink:href="#ArialUnicodeMS-6570" x="500"/>
      <use xlink:href="#ArialUnicodeMS-91cf" x="600"/>
      <use xlink:href="#ArialUnicodeMS-ff08" x="700"/>
      <use xlink:href="#ArialUnicodeMS-78" x="800"/>
      <use xlink:href="#ArialUnicodeMS-ff09" x="850"/>
     </g>
    </g>
   </g>
   <g id="matplotlib.axis_2">
    <g id="ytick_1">
     <g id="line2d_11">
      <path d="M 57.044375 310.493125 
L 565.2 310.493125 
" clip-path="url(#pe43d27927e)" style="fill: none; stroke-dasharray: 2.96,1.28; stroke-dashoffset: 0; stroke: #eeeeee; stroke-opacity: 0.5; stroke-width: 0.8"/>
     </g>
     <g id="line2d_12">
      <defs>
       <path id="m13b31c5752" d="M 0 0 
L -3.5 0 
" style="stroke: #666666; stroke-width: 0.8"/>
      </defs>
      <g>
       <use xlink:href="#m13b31c5752" x="57.044375" y="310.493125" style="fill: #666666; stroke: #666666; stroke-width: 0.8"/>
      </g>
     </g>
     <g id="text_7">
      <!-- 0 -->
      <g style="fill: #666666" transform="translate(44.483438 314.072031) scale(0.1 -0.1)">
       <use xlink:href="#ArialUnicodeMS-30"/>
      </g>
     </g>
    </g>
    <g id="ytick_2">
     <g id="line2d_13">
      <path d="M 57.044375 256.156625 
L 565.2 256.156625 
" clip-path="url(#pe43d27927e)" style="fill: none; stroke-dasharray: 2.96,1.28; stroke-dashoffset: 0; stroke: #eeeeee; stroke-opacity: 0.5; stroke-width: 0.8"/>
     </g>
     <g id="line2d_14">
      <g>
       <use xlink:href="#m13b31c5752" x="57.044375" y="256.156625" style="fill: #666666; stroke: #666666; stroke-width: 0.8"/>
      </g>
     </g>
     <g id="text_8">
      <!-- 20 -->
      <g style="fill: #666666" transform="translate(38.9225 259.735531) scale(0.1 -0.1)">
       <use xlink:href="#ArialUnicodeMS-32"/>
       <use xlink:href="#ArialUnicodeMS-30" x="55.615234"/>
      </g>
     </g>
    </g>
    <g id="ytick_3">
     <g id="line2d_15">
      <path d="M 57.044375 201.820125 
L 565.2 201.820125 
" clip-path="url(#pe43d27927e)" style="fill: none; stroke-dasharray: 2.96,1.28; stroke-dashoffset: 0; stroke: #eeeeee; stroke-opacity: 0.5; stroke-width: 0.8"/>
     </g>
     <g id="line2d_16">
      <g>
       <use xlink:href="#m13b31c5752" x="57.044375" y="201.820125" style="fill: #666666; stroke: #666666; stroke-width: 0.8"/>
      </g>
     </g>
     <g id="text_9">
      <!-- 40 -->
      <g style="fill: #666666" transform="translate(38.9225 205.399031) scale(0.1 -0.1)">
       <use xlink:href="#ArialUnicodeMS-34"/>
       <use xlink:href="#ArialUnicodeMS-30" x="55.615234"/>
      </g>
     </g>
    </g>
    <g id="ytick_4">
     <g id="line2d_17">
      <path d="M 57.044375 147.483625 
L 565.2 147.483625 
" clip-path="url(#pe43d27927e)" style="fill: none; stroke-dasharray: 2.96,1.28; stroke-dashoffset: 0; stroke: #eeeeee; stroke-opacity: 0.5; stroke-width: 0.8"/>
     </g>
     <g id="line2d_18">
      <g>
       <use xlink:href="#m13b31c5752" x="57.044375" y="147.483625" style="fill: #666666; stroke: #666666; stroke-width: 0.8"/>
      </g>
     </g>
     <g id="text_10">
      <!-- 60 -->
      <g style="fill: #666666" transform="translate(38.9225 151.062531) scale(0.1 -0.1)">
       <use xlink:href="#ArialUnicodeMS-36"/>
       <use xlink:href="#ArialUnicodeMS-30" x="55.615234"/>
      </g>
     </g>
    </g>
    <g id="ytick_5">
     <g id="line2d_19">
      <path d="M 57.044375 93.147125 
L 565.2 93.147125 
" clip-path="url(#pe43d27927e)" style="fill: none; stroke-dasharray: 2.96,1.28; stroke-dashoffset: 0; stroke: #eeeeee; stroke-opacity: 0.5; stroke-width: 0.8"/>
     </g>
     <g id="line2d_20">
      <g>
       <use xlink:href="#m13b31c5752" x="57.044375" y="93.147125" style="fill: #666666; stroke: #666666; stroke-width: 0.8"/>
      </g>
     </g>
     <g id="text_11">
      <!-- 80 -->
      <g style="fill: #666666" transform="translate(38.9225 96.726031) scale(0.1 -0.1)">
       <use xlink:href="#ArialUnicodeMS-38"/>
       <use xlink:href="#ArialUnicodeMS-30" x="55.615234"/>
      </g>
     </g>
    </g>
    <g id="ytick_6">
     <g id="line2d_21">
      <path d="M 57.044375 38.810625 
L 565.2 38.810625 
" clip-path="url(#pe43d27927e)" style="fill: none; stroke-dasharray: 2.96,1.28; stroke-dashoffset: 0; stroke: #eeeeee; stroke-opacity: 0.5; stroke-width: 0.8"/>
     </g>
     <g id="line2d_22">
      <g>
       <use xlink:href="#m13b31c5752" x="57.044375" y="38.810625" style="fill: #666666; stroke: #666666; stroke-width: 0.8"/>
      </g>
     </g>
     <g id="text_12">
      <!-- 100 -->
      <g style="fill: #666666" transform="translate(33.361563 42.389531) scale(0.1 -0.1)">
       <use xlink:href="#ArialUnicodeMS-31"/>
       <use xlink:href="#ArialUnicodeMS-30" x="55.615234"/>
       <use xlink:href="#ArialUnicodeMS-30" x="111.230469"/>
      </g>
     </g>
    </g>
    <g id="text_13">
     <!-- 稳定币数量（y） -->
     <g style="fill: #666666" transform="translate(20.841563 219.651875) rotate(-90) scale(0.12 -0.12)">
      <defs>
       <path id="ArialUnicodeMS-7a33" d="M 5600 1703 
L 2694 1703 
L 2694 2169 
L 5113 2169 
L 5113 2559 
L 2572 2559 
L 2572 3028 
L 5113 3028 
L 5113 3384 
L 2816 3384 
L 2816 3634 
L 2572 3531 
L 2297 3938 
Q 3206 4325 3413 5338 
L 3866 5184 
L 3738 4806 
L 5106 4806 
L 5106 4416 
Q 4956 4041 4838 3853 
L 5600 3853 
L 5600 1703 
z
M 4581 4341 
L 3519 4341 
Q 3363 4094 3078 3853 
L 4281 3853 
Q 4450 4059 4581 4341 
z
M 2547 2003 
Q 2359 1869 2125 1747 
Q 1956 2269 1650 2606 
L 1650 -391 
L 1166 -391 
L 1166 2259 
L 1153 2272 
Q 944 1575 488 1056 
L 122 1388 
Q 844 2225 1075 3272 
L 397 3272 
L 397 3738 
L 1166 3738 
L 1166 4397 
Q 644 4325 403 4325 
L 128 4819 
Q 1019 4778 2181 5159 
Q 2334 4891 2425 4794 
Q 2034 4619 1650 4506 
L 1650 3738 
L 2297 3738 
L 2297 3272 
L 1650 3272 
L 1650 2931 
L 1844 3053 
Q 2375 2541 2547 2003 
z
M 4494 844 
L 4084 616 
Q 3963 994 3616 1422 
L 4000 1625 
Q 4394 1200 4494 844 
z
M 5178 588 
Q 4972 -88 4722 -122 
L 4531 -147 
L 3500 -147 
Q 3259 -147 3098 -26 
Q 2938 94 2938 288 
L 2938 1528 
L 3425 1528 
L 3425 422 
Q 3434 391 3478 355 
Q 3522 319 3553 319 
L 4538 319 
Q 4628 319 4659 426 
Q 4691 534 4728 844 
L 5178 588 
z
M 6059 347 
L 5697 -13 
Q 5394 678 4728 1113 
L 5031 1441 
Q 5725 956 6059 347 
z
M 2869 1172 
Q 2638 363 2125 -50 
L 1728 288 
Q 2272 731 2472 1403 
L 2869 1172 
z
" transform="scale(0.015625)"/>
       <path id="ArialUnicodeMS-5b9a" d="M 5747 3353 
L 5247 3353 
L 5247 4153 
L 1141 4153 
L 1141 3391 
L 653 3391 
L 653 4622 
L 2956 4622 
L 2956 5288 
L 3444 5288 
L 3444 4622 
L 5747 4622 
L 5747 3353 
z
M 6100 416 
L 5863 -97 
Q 5559 -109 5147 -109 
Q 3516 -109 2859 30 
Q 2203 169 1638 781 
Q 1378 175 659 -428 
L 263 -25 
Q 1481 681 1434 2528 
L 1913 2419 
Q 1903 1834 1806 1288 
Q 2259 666 3009 500 
L 3009 2925 
L 1325 2925 
L 1325 3391 
L 5106 3391 
L 5106 2925 
L 3494 2925 
L 3494 1978 
L 5422 1978 
L 5422 1509 
L 3494 1509 
L 3494 428 
L 4263 403 
L 6100 416 
z
" transform="scale(0.015625)"/>
       <path id="ArialUnicodeMS-79" d="M 3150 3316 
L 1881 -56 
Q 1878 -63 1875 -78 
Q 1694 -641 1451 -992 
Q 1209 -1344 763 -1344 
Q 613 -1344 397 -1281 
L 341 -750 
Q 503 -800 659 -800 
Q 972 -800 1092 -628 
Q 1213 -456 1363 -6 
L 103 3316 
L 709 3316 
L 1491 1144 
Q 1559 944 1638 628 
L 1650 628 
Q 1728 991 1850 1319 
L 2578 3316 
L 3150 3316 
z
" transform="scale(0.015625)"/>
      </defs>
      <use xlink:href="#ArialUnicodeMS-7a33"/>
      <use xlink:href="#ArialUnicodeMS-5b9a" x="100"/>
      <use xlink:href="#ArialUnicodeMS-5e01" x="200"/>
      <use xlink:href="#ArialUnicodeMS-6570" x="300"/>
      <use xlink:href="#ArialUnicodeMS-91cf" x="400"/>
      <use xlink:href="#ArialUnicodeMS-ff08" x="500"/>
      <use xlink:href="#ArialUnicodeMS-79" x="600"/>
      <use xlink:href="#ArialUnicodeMS-ff09" x="650"/>
     </g>
    </g>
   </g>
   <g id="line2d_23">
    <path d="M 80.142358 38.810625 
L 131.471209 174.651875 
L 182.80006 220.022853 
L 234.128911 242.5725 
L 285.457762 256.156625 
L 336.786613 265.39383 
L 388.115464 271.91421 
L 439.444315 276.532813 
L 490.773166 280.336367 
L 542.102017 283.324875 
" clip-path="url(#pe43d27927e)" style="fill: none; stroke: #8b5cf6; stroke-width: 2.5; stroke-linecap: square"/>
    <defs>
     <path id="md874686df9" d="M 0 4 
C 1.060812 4 2.078319 3.578535 2.828427 2.828427 
C 3.578535 2.078319 4 1.060812 4 0 
C 4 -1.060812 3.578535 -2.078319 2.828427 -2.828427 
C 2.078319 -3.578535 1.060812 -4 0 -4 
C -1.060812 -4 -2.078319 -3.578535 -2.828427 -2.828427 
C -3.578535 -2.078319 -4 -1.060812 -4 0 
C -4 1.060812 -3.578535 2.078319 -2.828427 2.828427 
C -2.078319 3.578535 -1.060812 4 0 4 
z
" style="stroke: #8b5cf6; stroke-width: 2"/>
    </defs>
    <g clip-path="url(#pe43d27927e)">
     <use xlink:href="#md874686df9" x="80.142358" y="38.810625" style="fill: #ffffff; stroke: #8b5cf6; stroke-width: 2"/>
     <use xlink:href="#md874686df9" x="131.471209" y="174.651875" style="fill: #ffffff; stroke: #8b5cf6; stroke-width: 2"/>
     <use xlink:href="#md874686df9" x="182.80006" y="220.022853" style="fill: #ffffff; stroke: #8b5cf6; stroke-width: 2"/>
     <use xlink:href="#md874686df9" x="234.128911" y="242.5725" style="fill: #ffffff; stroke: #8b5cf6; stroke-width: 2"/>
     <use xlink:href="#md874686df9" x="285.457762" y="256.156625" style="fill: #ffffff; stroke: #8b5cf6; stroke-width: 2"/>
     <use xlink:href="#md874686df9" x="336.786613" y="265.39383" style="fill: #ffffff; stroke: #8b5cf6; stroke-width: 2"/>
     <use xlink:href="#md874686df9" x="388.115464" y="271.91421" style="fill: #ffffff; stroke: #8b5cf6; stroke-width: 2"/>
     <use xlink:href="#md874686df9" x="439.444315" y="276.532813" style="fill: #ffffff; stroke: #8b5cf6; stroke-width: 2"/>
     <use xlink:href="#md874686df9" x="490.773166" y="280.336367" style="fill: #ffffff; stroke: #8b5cf6; stroke-width: 2"/>
     <use xlink:href="#md874686df9" x="542.102017" y="283.324875" style="fill: #ffffff; stroke: #8b5cf6; stroke-width: 2"/>
    </g>
   </g>
   <g id="patch_3">
    <path d="M 57.044375 310.493125 
L 57.044375 38.810625 
" style="fill: none; stroke: #dddddd; stroke-width: 0.8; stroke-linejoin: miter; stroke-linecap: square"/>
   </g>
   <g id="patch_4">
    <path d="M 57.044375 310.493125 
L 565.2 310.493125 
" style="fill: none; stroke: #dddddd; stroke-width: 0.8; stroke-linejoin: miter; stroke-linecap: square"/>
   </g>
   <g id="text_14">
    <!-- AMM 恒定乘积流动性曲线（x · y = k） -->
    <g style="fill: #333333" transform="translate(182.992891 23.810625) scale(0.15 -0.15)">
     <defs>
      <path id="ArialUnicodeMS-41" d="M 4275 0 
L 3591 0 
L 3053 1394 
L 1141 1394 
L 634 0 
L -6 0 
L 1753 4581 
L 2406 4581 
L 4275 0 
z
M 2869 1875 
Q 2306 3363 2234 3564 
Q 2163 3766 2075 4103 
L 2059 4103 
Q 1972 3641 1825 3247 
L 1313 1875 
L 2869 1875 
z
" transform="scale(0.015625)"/>
      <path id="ArialUnicodeMS-4d" d="M 4844 0 
L 4269 0 
L 4269 3834 
L 4256 3834 
L 2938 0 
L 2394 0 
L 1081 3897 
L 1063 3897 
L 1063 0 
L 488 0 
L 488 4581 
L 1394 4581 
L 2478 1338 
Q 2659 797 2688 659 
L 2700 659 
Q 2784 925 2944 1394 
L 4038 4581 
L 4844 4581 
L 4844 0 
z
" transform="scale(0.015625)"/>
      <path id="ArialUnicodeMS-20" transform="scale(0.015625)"/>
      <path id="ArialUnicodeMS-6052" d="M 2681 2875 
L 2253 2631 
Q 2072 3306 1813 3597 
L 1813 -378 
L 1325 -378 
L 1325 5434 
L 1813 5434 
L 1813 4031 
L 1997 4103 
Q 2434 3694 2681 2875 
z
M 5881 4581 
L 2375 4581 
L 2375 5050 
L 5881 5050 
L 5881 4581 
z
M 1253 3922 
Q 1197 3128 647 2425 
L 225 2669 
Q 656 3188 856 4147 
L 1253 3922 
z
M 5575 1069 
L 2741 1069 
L 2741 3994 
L 5575 3994 
L 5575 1069 
z
M 5088 2778 
L 5088 3525 
L 3225 3525 
L 3225 2778 
L 5088 2778 
z
M 5088 1538 
L 5088 2309 
L 3225 2309 
L 3225 1538 
L 5088 1538 
z
M 6113 -97 
L 2131 -97 
L 2131 372 
L 6113 372 
L 6113 -97 
z
" transform="scale(0.015625)"/>
      <path id="ArialUnicodeMS-4e58" d="M 6100 384 
L 5797 -25 
Q 4147 494 3419 1550 
L 3419 -447 
L 2931 -447 
L 2931 1550 
Q 2166 559 628 -63 
L 319 325 
Q 1563 831 2363 1594 
L 1947 1594 
L 1947 1716 
L 775 1416 
L 556 1813 
Q 1016 1913 1947 2163 
L 1947 2478 
L 928 2478 
L 928 2944 
L 1947 2944 
L 1947 3334 
L 2431 3334 
L 2431 1656 
Q 2741 1966 2931 2241 
L 2931 3463 
L 588 3463 
L 588 3928 
L 2931 3928 
L 2931 4391 
Q 2056 4325 1125 4294 
L 872 4750 
Q 3481 4741 5119 5275 
L 5434 4934 
Q 4531 4588 3419 4453 
L 3419 3928 
L 5797 3928 
L 5797 3463 
L 3419 3463 
L 3419 2297 
Q 3722 1694 4455 1175 
Q 5188 656 6100 384 
z
M 5784 2394 
L 5663 1906 
Q 5569 1544 5191 1544 
L 4441 1544 
Q 4222 1544 4080 1686 
Q 3938 1828 3938 2047 
L 3938 3334 
L 4422 3334 
L 4422 2816 
Q 5009 3072 5253 3231 
L 5516 2847 
Q 4988 2534 4422 2375 
L 4422 2138 
Q 4422 2009 4609 2009 
L 5038 2009 
Q 5216 2009 5247 2156 
L 5325 2503 
L 5784 2394 
z
" transform="scale(0.015625)"/>
      <path id="ArialUnicodeMS-79ef" d="M 2778 1753 
L 2350 1522 
Q 2106 2225 1797 2584 
L 1797 -397 
L 1313 -397 
L 1313 2253 
L 1306 2253 
Q 1069 1594 519 1025 
L 153 1369 
Q 953 2247 1253 3272 
L 347 3272 
L 347 3731 
L 1313 3731 
L 1313 4434 
Q 1128 4394 550 4325 
L 306 4806 
Q 1300 4828 2328 5313 
L 2584 4941 
Q 2013 4653 1797 4581 
L 1797 3731 
L 2656 3731 
L 2656 3272 
L 1797 3272 
L 1797 2894 
L 2047 3003 
Q 2466 2575 2778 1753 
z
M 5588 1941 
L 2816 1941 
L 2816 4934 
L 5588 4934 
L 5588 1941 
z
M 5100 2400 
L 5100 4475 
L 3303 4475 
L 3303 2400 
L 5100 2400 
z
M 3816 1491 
Q 3388 284 2631 -341 
L 2253 -6 
Q 2941 588 3419 1703 
L 3816 1491 
z
M 6009 -31 
L 5594 -319 
Q 5266 547 4453 1416 
L 4825 1678 
Q 5600 922 6009 -31 
z
" transform="scale(0.015625)"/>
      <path id="ArialUnicodeMS-6d41" d="M 5838 4141 
L 3841 4141 
Q 3503 3456 3181 3041 
L 4878 3128 
Q 4556 3431 4275 3531 
L 4672 3841 
Q 5428 3406 5797 2669 
L 5381 2356 
Q 5325 2484 5153 2731 
L 2216 2534 
L 2016 3022 
L 2619 3041 
Q 2903 3391 3278 4141 
L 1984 4141 
L 1984 4609 
L 3634 4609 
L 3634 5313 
L 4122 5313 
L 4122 4609 
L 5838 4609 
L 5838 4141 
z
M 1959 4244 
L 1581 3891 
Q 1284 4469 581 4678 
L 941 5025 
Q 1475 4881 1959 4244 
z
M 1722 2719 
L 1325 2419 
Q 1003 3097 256 3347 
L 628 3700 
Q 1281 3478 1722 2719 
z
M 6169 838 
Q 6131 344 6022 58 
Q 5913 -228 5745 -273 
Q 5578 -319 5147 -319 
Q 4925 -319 4779 -178 
Q 4634 -38 4634 206 
L 4634 2356 
L 5119 2356 
L 5119 281 
Q 5119 97 5300 97 
Q 5491 97 5542 134 
Q 5594 172 5641 465 
Q 5688 759 5703 984 
L 6169 838 
z
M 4050 -319 
L 3566 -319 
L 3566 2356 
L 4050 2356 
L 4050 -319 
z
M 3016 1069 
Q 3016 84 1772 -447 
L 1422 -31 
Q 2528 363 2528 1294 
L 2528 2338 
L 3016 2338 
L 3016 1069 
z
M 1900 2022 
Q 1613 447 794 -331 
L 372 -19 
Q 1247 744 1459 2209 
L 1900 2022 
z
" transform="scale(0.015625)"/>
      <path id="ArialUnicodeMS-52a8" d="M 5678 3834 
Q 5613 2631 5508 1595 
Q 5403 559 5328 262 
Q 5253 -34 5048 -161 
Q 4844 -288 4591 -288 
Q 4416 -288 4097 -256 
Q 4016 25 3944 238 
Q 4550 172 4644 172 
Q 4703 172 4812 456 
Q 4922 741 5023 1741 
Q 5125 2741 5159 3391 
L 4359 3391 
Q 4366 1738 3883 889 
Q 3400 41 2528 -384 
L 2156 25 
Q 2716 300 3009 634 
Q 2913 850 2719 1075 
Q 1478 731 763 475 
L 428 959 
Q 678 1172 1014 1786 
Q 1350 2400 1503 2906 
L 353 2906 
L 353 3372 
L 3144 3372 
L 3144 2906 
L 2041 2906 
Q 1500 1597 1125 1125 
L 1141 1113 
L 2444 1484 
Q 2397 1556 2125 1797 
L 2478 2047 
Q 3131 1475 3359 997 
Q 3528 1178 3697 1742 
Q 3866 2306 3866 2888 
L 3866 3391 
L 3194 3391 
L 3194 3834 
L 3866 3834 
L 3866 5319 
L 4353 5325 
L 4353 3834 
L 5678 3834 
z
M 2881 4219 
L 603 4219 
L 603 4659 
L 2881 4659 
L 2881 4219 
z
" transform="scale(0.015625)"/>
      <path id="ArialUnicodeMS-6027" d="M 6088 6 
L 2322 6 
L 2322 475 
L 3928 475 
L 3928 1778 
L 2669 1778 
L 2669 2247 
L 3928 2247 
L 3928 3463 
L 3169 3463 
Q 2978 2881 2606 2375 
L 2113 2597 
Q 2363 2838 2438 3003 
L 2203 2900 
Q 2078 3494 1766 3866 
L 1766 -434 
L 1281 -434 
L 1281 5281 
L 1766 5281 
L 1766 3928 
L 2138 4128 
Q 2413 3813 2597 3347 
Q 2844 3763 2894 4775 
L 3378 4647 
Q 3363 4338 3291 3928 
L 3928 3928 
L 3928 5294 
L 4416 5294 
L 4416 3928 
L 5759 3928 
L 5759 3463 
L 4416 3463 
L 4416 2247 
L 5569 2247 
L 5569 1778 
L 4416 1778 
L 4416 475 
L 6088 475 
L 6088 6 
z
M 1241 3897 
Q 1175 2956 763 2344 
L 347 2528 
Q 819 3406 819 4025 
L 1241 3897 
z
" transform="scale(0.015625)"/>
      <path id="ArialUnicodeMS-66f2" d="M 5503 -409 
L 4997 -409 
L 4997 141 
L 1528 141 
L 1528 -434 
L 1044 -434 
L 1044 4044 
L 2344 4044 
L 2344 5319 
L 2828 5319 
L 2828 4044 
L 3675 4044 
L 3675 5319 
L 4159 5319 
L 4159 4044 
L 5503 4044 
L 5503 -409 
z
M 4997 2344 
L 4997 3566 
L 4159 3566 
L 4159 2344 
L 4997 2344 
z
M 3675 2344 
L 3675 3566 
L 2828 3566 
L 2828 2344 
L 3675 2344 
z
M 2344 2344 
L 2344 3566 
L 1528 3566 
L 1528 2344 
L 2344 2344 
z
M 4997 622 
L 4997 1863 
L 4159 1863 
L 4159 622 
L 4997 622 
z
M 3675 622 
L 3675 1863 
L 2828 1863 
L 2828 622 
L 3675 622 
z
M 2344 622 
L 2344 1863 
L 1528 1863 
L 1528 622 
L 2344 622 
z
" transform="scale(0.015625)"/>
      <path id="ArialUnicodeMS-7ebf" d="M 2503 3981 
Q 1903 2625 1141 1947 
L 1153 1931 
L 2444 2144 
L 2456 1709 
Q 1428 1534 575 1313 
L 341 1772 
Q 934 2234 1344 2919 
L 563 2725 
L 347 3206 
Q 1059 4156 1325 5319 
Q 1403 5288 1551 5209 
Q 1700 5131 1791 5100 
Q 1441 3947 959 3316 
Q 1597 3375 1650 3397 
Q 1944 3938 2059 4225 
L 2503 3981 
z
M 5997 481 
Q 5925 44 5808 -170 
Q 5691 -384 5497 -384 
Q 5319 -384 4869 -115 
Q 4419 153 4031 666 
Q 3594 188 2388 -341 
L 2088 72 
Q 3097 466 3763 1088 
Q 3503 1550 3406 2419 
L 2484 2272 
L 2406 2725 
L 3378 2900 
L 3378 3397 
L 2606 3278 
L 2522 3731 
L 3378 3891 
L 3378 5209 
Q 3763 5288 3866 5294 
L 3866 3975 
L 5409 4231 
L 5497 3781 
Q 4550 3622 3866 3481 
L 3866 2994 
L 5772 3341 
Q 5825 3150 5856 2875 
L 3884 2516 
Q 3988 1794 4147 1466 
Q 4731 1991 5075 2484 
L 5453 2222 
Q 4731 1353 4372 1025 
Q 4753 456 5403 153 
Q 5494 378 5509 750 
L 5997 481 
z
M 5166 4544 
L 4831 4225 
Q 4478 4656 4019 4856 
L 4306 5178 
Q 4784 4956 5166 4544 
z
M 2578 872 
L 531 134 
Q 500 197 412 347 
Q 325 497 281 603 
L 2578 1369 
L 2578 872 
z
" transform="scale(0.015625)"/>
      <path id="ArialUnicodeMS-b7" d="M 1209 1931 
L 569 1931 
L 569 2572 
L 1209 2572 
L 1209 1931 
z
" transform="scale(0.015625)"/>
      <path id="ArialUnicodeMS-3d" d="M 3384 2694 
L 353 2694 
L 353 3219 
L 3384 3219 
L 3384 2694 
z
M 3384 1300 
L 353 1300 
L 353 1825 
L 3384 1825 
L 3384 1300 
z
" transform="scale(0.015625)"/>
      <path id="ArialUnicodeMS-6b" d="M 3175 0 
L 2484 0 
L 1381 1697 
L 984 1319 
L 984 0 
L 422 0 
L 422 4581 
L 984 4581 
L 984 1972 
L 2316 3316 
L 3047 3316 
L 1778 2088 
L 3175 0 
z
" transform="scale(0.015625)"/>
     </defs>
     <use xlink:href="#ArialUnicodeMS-41"/>
     <use xlink:href="#ArialUnicodeMS-4d" x="66.699219"/>
     <use xlink:href="#ArialUnicodeMS-4d" x="150"/>
     <use xlink:href="#ArialUnicodeMS-20" x="233.300781"/>
     <use xlink:href="#ArialUnicodeMS-6052" x="261.083984"/>
     <use xlink:href="#ArialUnicodeMS-5b9a" x="361.083984"/>
     <use xlink:href="#ArialUnicodeMS-4e58" x="461.083984"/>
     <use xlink:href="#ArialUnicodeMS-79ef" x="561.083984"/>
     <use xlink:href="#ArialUnicodeMS-6d41" x="661.083984"/>
     <use xlink:href="#ArialUnicodeMS-52a8" x="761.083984"/>
     <use xlink:href="#ArialUnicodeMS-6027" x="861.083984"/>
     <use xlink:href="#ArialUnicodeMS-66f2" x="961.083984"/>
     <use xlink:href="#ArialUnicodeMS-7ebf" x="1061.083984"/>
     <use xlink:href="#ArialUnicodeMS-ff08" x="1161.083984"/>
     <use xlink:href="#ArialUnicodeMS-78" x="1261.083984"/>
     <use xlink:href="#ArialUnicodeMS-20" x="1311.083984"/>
     <use xlink:href="#ArialUnicodeMS-b7" x="1338.867188"/>
     <use xlink:href="#ArialUnicodeMS-20" x="1366.650391"/>
     <use xlink:href="#ArialUnicodeMS-79" x="1394.433594"/>
     <use xlink:href="#ArialUnicodeMS-20" x="1444.433594"/>
     <use xlink:href="#ArialUnicodeMS-3d" x="1472.216797"/>
     <use xlink:href="#ArialUnicodeMS-20" x="1530.615234"/>
     <use xlink:href="#ArialUnicodeMS-6b" x="1558.398438"/>
     <use xlink:href="#ArialUnicodeMS-ff09" x="1608.398438"/>
    </g>
   </g>
  </g>
 </g>
 <defs>
  <clipPath id="pe43d27927e">
   <rect x="57.044375" y="38.810625" width="508.155625" height="271.6825"/>
  </clipPath>
 </defs>
</svg>
