<?xml version="1.0" encoding="utf-8" standalone="no"?>
<!DOCTYPE svg PUBLIC "-//W3C//DTD SVG 1.1//EN"
  "http://www.w3.org/Graphics/SVG/1.1/DTD/svg11.dtd">
<svg xmlns:xlink="http://www.w3.org/1999/xlink" width="432pt" height="288pt" viewBox="0 0 432 288" xmlns="http://www.w3.org/2000/svg" version="1.1">
 <metadata>
  <rdf:RDF xmlns:dc="http://purl.org/dc/elements/1.1/" xmlns:cc="http://creativecommons.org/ns#" xmlns:rdf="http://www.w3.org/1999/02/22-rdf-syntax-ns#">
   <cc:Work>
    <dc:type rdf:resource="http://purl.org/dc/dcmitype/StillImage"/>
    <dc:date>2026-05-11T09:52:21.972944</dc:date>
    <dc:format>image/svg+xml</dc:format>
    <dc:creator>
     <cc:Agent>
      <dc:title>Matplotlib v3.9.4, https://matplotlib.org/</dc:title>
     </cc:Agent>
    </dc:creator>
   </cc:Work>
  </rdf:RDF>
 </metadata>
 <defs>
  <style type="text/css">*{stroke-linejoin: round; stroke-linecap: butt}</style>
 </defs>
 <g id="figure_1">
  <g id="patch_1">
   <path d="M 0 288 
L 432 288 
L 432 0 
L 0 0 
z
" style="fill: #ffffff"/>
  </g>
  <g id="axes_1">
   <g id="patch_2">
    <path d="M 26.0275 261.9725 
L 421.2 261.9725 
L 421.2 10.8 
L 26.0275 10.8 
z
" style="fill: #ffffff"/>
   </g>
   <g id="matplotlib.axis_1">
    <g id="text_1">
     <!-- Art Token Reserve (x) -->
     <g transform="translate(164.935625 274.708125) scale(0.12 -0.12)">
      <defs>
       <path id="ArialUnicodeMS-41" d="M 4275 0 
L 3591 0 
L 3053 1394 
L 1141 1394 
L 634 0 
L -6 0 
L 1753 4581 
L 2406 4581 
L 4275 0 
z
M 2869 1875 
Q 2306 3363 2234 3564 
Q 2163 3766 2075 4103 
L 2059 4103 
Q 1972 3641 1825 3247 
L 1313 1875 
L 2869 1875 
z
" transform="scale(0.015625)"/>
       <path id="ArialUnicodeMS-72" d="M 2216 3213 
L 2022 2694 
Q 1813 2816 1613 2816 
Q 1297 2816 1134 2533 
Q 972 2250 972 1741 
L 972 0 
L 409 0 
L 409 3316 
L 922 3316 
L 922 2816 
L 934 2816 
Q 1203 3391 1638 3391 
Q 1925 3391 2216 3213 
z
" transform="scale(0.015625)"/>
       <path id="ArialUnicodeMS-74" d="M 1722 6 
Q 1472 -44 1300 -44 
Q 931 -44 762 86 
Q 594 216 556 416 
Q 519 616 519 972 
L 519 2881 
L 109 2881 
L 109 3316 
L 519 3316 
L 519 4141 
L 1081 4481 
L 1081 3316 
L 1644 3316 
L 1644 2881 
L 1081 2881 
L 1081 941 
Q 1081 691 1132 586 
Q 1184 481 1394 481 
Q 1516 481 1644 506 
L 1722 6 
z
" transform="scale(0.015625)"/>
       <path id="ArialUnicodeMS-20" transform="scale(0.015625)"/>
       <path id="ArialUnicodeMS-54" d="M 3769 4038 
L 2253 4038 
L 2253 0 
L 1644 0 
L 1644 4038 
L 141 4038 
L 141 4581 
L 3769 4581 
L 3769 4038 
z
" transform="scale(0.015625)"/>
       <path id="ArialUnicodeMS-6f" d="M 1778 3391 
Q 2450 3391 2892 2953 
Q 3334 2516 3334 1709 
Q 3334 731 2856 326 
Q 2378 -78 1778 -78 
Q 1150 -78 687 337 
Q 225 753 225 1656 
Q 225 2531 672 2961 
Q 1119 3391 1778 3391 
z
M 1778 384 
Q 2259 384 2509 740 
Q 2759 1097 2759 1678 
Q 2759 2300 2476 2615 
Q 2194 2931 1778 2931 
Q 1350 2931 1075 2611 
Q 800 2291 800 1656 
Q 800 1025 1079 704 
Q 1359 384 1778 384 
z
" transform="scale(0.015625)"/>
       <path id="ArialUnicodeMS-6b" d="M 3175 0 
L 2484 0 
L 1381 1697 
L 984 1319 
L 984 0 
L 422 0 
L 422 4581 
L 984 4581 
L 984 1972 
L 2316 3316 
L 3047 3316 
L 1778 2088 
L 3175 0 
z
" transform="scale(0.015625)"/>
       <path id="ArialUnicodeMS-65" d="M 3309 1516 
L 825 1516 
Q 859 966 1139 675 
Q 1419 384 1838 384 
Q 2159 384 2378 554 
Q 2597 725 2713 1069 
L 3291 997 
Q 3150 478 2775 200 
Q 2400 -78 1838 -78 
Q 1091 -78 670 380 
Q 250 838 250 1631 
Q 250 2416 658 2903 
Q 1066 3391 1806 3391 
Q 2169 3391 2505 3231 
Q 2841 3072 3075 2689 
Q 3309 2306 3309 1516 
z
M 2731 1978 
Q 2697 2484 2417 2707 
Q 2138 2931 1806 2931 
Q 1409 2931 1153 2665 
Q 897 2400 856 1978 
L 2731 1978 
z
" transform="scale(0.015625)"/>
       <path id="ArialUnicodeMS-6e" d="M 3138 0 
L 2572 0 
L 2572 2016 
Q 2572 2525 2389 2715 
Q 2206 2906 1881 2906 
Q 1631 2906 1407 2784 
Q 1184 2663 1090 2441 
Q 997 2219 997 1813 
L 997 0 
L 434 0 
L 434 3316 
L 941 3316 
L 941 2847 
L 953 2847 
Q 1131 3119 1392 3255 
Q 1653 3391 1997 3391 
Q 2259 3391 2515 3297 
Q 2772 3203 2917 3015 
Q 3063 2828 3100 2615 
Q 3138 2403 3138 2041 
L 3138 0 
z
" transform="scale(0.015625)"/>
       <path id="ArialUnicodeMS-52" d="M 4550 0 
L 3788 0 
Q 3103 1081 2937 1328 
Q 2772 1575 2589 1751 
Q 2406 1928 2245 1975 
Q 2084 2022 1819 2022 
L 1119 2022 
L 1119 0 
L 513 0 
L 513 4581 
L 2541 4581 
Q 2956 4581 3237 4528 
Q 3519 4475 3731 4304 
Q 3944 4134 4058 3875 
Q 4172 3616 4172 3328 
Q 4172 2809 3844 2493 
Q 3516 2178 2888 2094 
L 2888 2081 
Q 3347 1878 3750 1247 
L 4550 0 
z
M 1119 2566 
L 2419 2566 
Q 2813 2566 3042 2633 
Q 3272 2700 3409 2894 
Q 3547 3088 3547 3328 
Q 3547 3641 3319 3859 
Q 3091 4078 2566 4078 
L 1119 4078 
L 1119 2566 
z
" transform="scale(0.015625)"/>
       <path id="ArialUnicodeMS-73" d="M 2278 2388 
Q 2241 2659 2058 2795 
Q 1875 2931 1550 2931 
Q 1228 2931 1029 2822 
Q 831 2713 831 2503 
Q 831 2306 989 2222 
Q 1147 2138 1613 2016 
Q 2138 1881 2398 1778 
Q 2659 1675 2804 1489 
Q 2950 1303 2950 972 
Q 2950 528 2587 225 
Q 2225 -78 1619 -78 
Q 988 -78 633 189 
Q 278 456 197 991 
L 756 1075 
Q 800 728 1014 556 
Q 1228 384 1613 384 
Q 1981 384 2178 539 
Q 2375 694 2375 916 
Q 2375 1066 2284 1156 
Q 2194 1247 2058 1292 
Q 1922 1338 1447 1453 
Q 741 1622 514 1862 
Q 288 2103 288 2438 
Q 288 2853 619 3122 
Q 950 3391 1509 3391 
Q 2103 3391 2433 3158 
Q 2763 2925 2828 2463 
L 2278 2388 
z
" transform="scale(0.015625)"/>
       <path id="ArialUnicodeMS-76" d="M 3122 3316 
L 1869 0 
L 1344 0 
L 84 3316 
L 678 3316 
L 1363 1397 
Q 1556 853 1594 659 
L 1606 659 
Q 1656 859 1778 1197 
L 2547 3316 
L 3122 3316 
z
" transform="scale(0.015625)"/>
       <path id="ArialUnicodeMS-28" d="M 1900 -1344 
L 1497 -1344 
Q 978 -681 681 103 
Q 384 888 384 1656 
Q 384 2528 700 3275 
Q 1016 4022 1497 4659 
L 1900 4659 
Q 1344 3747 1155 3059 
Q 966 2372 966 1663 
Q 966 153 1900 -1344 
z
" transform="scale(0.015625)"/>
       <path id="ArialUnicodeMS-78" d="M 3156 0 
L 2463 0 
L 1600 1313 
L 728 0 
L 44 0 
L 1259 1728 
L 141 3316 
L 838 3316 
Q 1519 2288 1581 2169 
L 2394 3316 
L 3066 3316 
L 1919 1759 
L 3156 0 
z
" transform="scale(0.015625)"/>
       <path id="ArialUnicodeMS-29" d="M 634 4659 
Q 1153 3997 1450 3212 
Q 1747 2428 1747 1656 
Q 1747 788 1431 41 
Q 1116 -706 634 -1344 
L 231 -1344 
Q 788 -431 977 255 
Q 1166 941 1166 1650 
Q 1166 3163 231 4659 
L 634 4659 
z
" transform="scale(0.015625)"/>
      </defs>
      <use xlink:href="#ArialUnicodeMS-41"/>
      <use xlink:href="#ArialUnicodeMS-72" x="66.699219"/>
      <use xlink:href="#ArialUnicodeMS-74" x="100"/>
      <use xlink:href="#ArialUnicodeMS-20" x="127.783203"/>
      <use xlink:href="#ArialUnicodeMS-54" x="155.566406"/>
      <use xlink:href="#ArialUnicodeMS-6f" x="216.650391"/>
      <use xlink:href="#ArialUnicodeMS-6b" x="272.265625"/>
      <use xlink:href="#ArialUnicodeMS-65" x="322.265625"/>
      <use xlink:href="#ArialUnicodeMS-6e" x="377.880859"/>
      <use xlink:href="#ArialUnicodeMS-20" x="433.496094"/>
      <use xlink:href="#ArialUnicodeMS-52" x="461.279297"/>
      <use xlink:href="#ArialUnicodeMS-65" x="533.496094"/>
      <use xlink:href="#ArialUnicodeMS-73" x="589.111328"/>
      <use xlink:href="#ArialUnicodeMS-65" x="639.111328"/>
      <use xlink:href="#ArialUnicodeMS-72" x="694.726562"/>
      <use xlink:href="#ArialUnicodeMS-76" x="728.027344"/>
      <use xlink:href="#ArialUnicodeMS-65" x="778.027344"/>
      <use xlink:href="#ArialUnicodeMS-20" x="833.642578"/>
      <use xlink:href="#ArialUnicodeMS-28" x="861.425781"/>
      <use xlink:href="#ArialUnicodeMS-78" x="894.726562"/>
      <use xlink:href="#ArialUnicodeMS-29" x="944.726562"/>
     </g>
    </g>
   </g>
   <g id="matplotlib.axis_2">
    <g id="text_2">
     <!-- Quote Token Reserve (y) -->
     <g transform="translate(19.5075 203.740938) rotate(-90) scale(0.12 -0.12)">
      <defs>
       <path id="ArialUnicodeMS-51" d="M 4769 63 
L 4588 -359 
Q 4056 -156 3609 206 
Q 3091 -78 2484 -78 
Q 1525 -78 912 586 
Q 300 1250 300 2291 
Q 300 3322 894 3990 
Q 1488 4659 2497 4659 
Q 3456 4659 4070 4006 
Q 4684 3353 4684 2297 
Q 4684 1166 3994 494 
Q 4381 216 4769 63 
z
M 3519 825 
Q 4056 1322 4056 2291 
Q 4056 3156 3623 3648 
Q 3191 4141 2497 4141 
Q 1803 4141 1365 3669 
Q 928 3197 928 2291 
Q 928 1403 1365 922 
Q 1803 441 2497 441 
Q 2838 441 3109 563 
Q 2806 756 2509 825 
L 2656 1269 
Q 3216 1109 3519 825 
z
" transform="scale(0.015625)"/>
       <path id="ArialUnicodeMS-75" d="M 3116 0 
L 2613 0 
L 2613 488 
L 2597 488 
Q 2216 -78 1556 -78 
Q 1209 -78 914 83 
Q 619 244 520 526 
Q 422 809 422 1259 
L 422 3316 
L 984 3316 
L 984 1478 
Q 984 1038 1026 847 
Q 1069 656 1247 532 
Q 1425 409 1672 409 
Q 1991 409 2272 629 
Q 2553 850 2553 1544 
L 2553 3316 
L 3116 3316 
L 3116 0 
z
" transform="scale(0.015625)"/>
       <path id="ArialUnicodeMS-79" d="M 3150 3316 
L 1881 -56 
Q 1878 -63 1875 -78 
Q 1694 -641 1451 -992 
Q 1209 -1344 763 -1344 
Q 613 -1344 397 -1281 
L 341 -750 
Q 503 -800 659 -800 
Q 972 -800 1092 -628 
Q 1213 -456 1363 -6 
L 103 3316 
L 709 3316 
L 1491 1144 
Q 1559 944 1638 628 
L 1650 628 
Q 1728 991 1850 1319 
L 2578 3316 
L 3150 3316 
z
" transform="scale(0.015625)"/>
      </defs>
      <use xlink:href="#ArialUnicodeMS-51"/>
      <use xlink:href="#ArialUnicodeMS-75" x="77.783203"/>
      <use xlink:href="#ArialUnicodeMS-6f" x="133.398438"/>
      <use xlink:href="#ArialUnicodeMS-74" x="189.013672"/>
      <use xlink:href="#ArialUnicodeMS-65" x="216.796875"/>
      <use xlink:href="#ArialUnicodeMS-20" x="272.412109"/>
      <use xlink:href="#ArialUnicodeMS-54" x="300.195312"/>
      <use xlink:href="#ArialUnicodeMS-6f" x="361.279297"/>
      <use xlink:href="#ArialUnicodeMS-6b" x="416.894531"/>
      <use xlink:href="#ArialUnicodeMS-65" x="466.894531"/>
      <use xlink:href="#ArialUnicodeMS-6e" x="522.509766"/>
      <use xlink:href="#ArialUnicodeMS-20" x="578.125"/>
      <use xlink:href="#ArialUnicodeMS-52" x="605.908203"/>
      <use xlink:href="#ArialUnicodeMS-65" x="678.125"/>
      <use xlink:href="#ArialUnicodeMS-73" x="733.740234"/>
      <use xlink:href="#ArialUnicodeMS-65" x="783.740234"/>
      <use xlink:href="#ArialUnicodeMS-72" x="839.355469"/>
      <use xlink:href="#ArialUnicodeMS-76" x="872.65625"/>
      <use xlink:href="#ArialUnicodeMS-65" x="922.65625"/>
      <use xlink:href="#ArialUnicodeMS-20" x="978.271484"/>
      <use xlink:href="#ArialUnicodeMS-28" x="1006.054688"/>
      <use xlink:href="#ArialUnicodeMS-79" x="1039.355469"/>
      <use xlink:href="#ArialUnicodeMS-29" x="1089.355469"/>
     </g>
    </g>
   </g>
   <g id="line2d_1">
    <path d="M 43.989886 22.216932 
L 47.618651 43.359398 
L 51.247416 61.249177 
L 54.876181 76.583274 
L 58.504946 89.872824 
L 62.133711 101.501181 
L 65.762476 111.761495 
L 69.391241 120.881775 
L 73.020006 129.042025 
L 76.648771 136.38625 
L 80.277536 143.031025 
L 83.906301 149.07173 
L 87.535065 154.587156 
L 91.16383 159.642963 
L 94.792595 164.294306 
L 98.42136 168.587853 
L 102.050125 172.563359 
L 105.67889 176.254901 
L 109.307655 179.691853 
L 112.93642 182.899676 
L 116.565185 185.900542 
L 120.19395 188.713854 
L 123.822715 191.356662 
L 127.45148 193.844011 
L 131.080244 196.189226 
L 134.709009 198.404151 
L 138.337774 200.499351 
L 141.966539 202.484276 
L 145.595304 204.367411 
L 149.224069 206.156389 
L 152.852834 207.8581 
L 156.481599 209.478776 
L 160.110364 211.024073 
L 163.739129 212.499129 
L 167.367894 213.908627 
L 170.996659 215.256842 
L 174.625424 216.547686 
L 178.254188 217.784745 
L 181.882953 218.971312 
L 185.511718 220.110417 
L 189.140483 221.20485 
L 192.769248 222.25719 
L 196.398013 223.269819 
L 200.026778 224.244943 
L 203.655543 225.184609 
L 207.284308 226.090714 
L 210.913073 226.965027 
L 214.541838 227.809191 
L 218.170603 228.624739 
L 221.799368 229.413102 
L 225.428132 230.175617 
L 229.056897 230.913535 
L 232.685662 231.628027 
L 236.314427 232.320191 
L 239.943192 232.991058 
L 243.571957 233.641595 
L 247.200722 234.272714 
L 250.829487 234.88527 
L 254.458252 235.48007 
L 258.087017 236.057877 
L 261.715782 236.619407 
L 265.344547 237.16534 
L 268.973312 237.696315 
L 272.602076 238.212939 
L 276.230841 238.715787 
L 279.859606 239.205402 
L 283.488371 239.6823 
L 287.117136 240.146969 
L 290.745901 240.599875 
L 294.374666 241.041458 
L 298.003431 241.472138 
L 301.632196 241.892314 
L 305.260961 242.302364 
L 308.889726 242.702652 
L 312.518491 243.093521 
L 316.147256 243.4753 
L 319.77602 243.848303 
L 323.404785 244.212828 
L 327.03355 244.569162 
L 330.662315 244.917577 
L 334.29108 245.258335 
L 337.919845 245.591685 
L 341.54861 245.917866 
L 345.177375 246.237107 
L 348.80614 246.549627 
L 352.434905 246.855637 
L 356.06367 247.155336 
L 359.692435 247.44892 
L 363.321199 247.736573 
L 366.949964 248.018472 
L 370.578729 248.29479 
L 374.207494 248.565689 
L 377.836259 248.831328 
L 381.465024 249.091859 
L 385.093789 249.347427 
L 388.722554 249.598173 
L 392.351319 249.844233 
L 395.980084 250.085736 
L 399.608849 250.322807 
L 403.237614 250.555568 
" clip-path="url(#p24643b7643)" style="fill: none; stroke: #2980b9; stroke-width: 2; stroke-linecap: square"/>
   </g>
   <g id="patch_3">
    <path d="M 26.0275 261.9725 
L 26.0275 10.8 
" style="fill: none; stroke: #000000; stroke-width: 0.8; stroke-linejoin: miter; stroke-linecap: square"/>
   </g>
   <g id="patch_4">
    <path d="M 26.0275 261.9725 
L 421.2 261.9725 
" style="fill: none; stroke: #000000; stroke-width: 0.8; stroke-linejoin: miter; stroke-linecap: square"/>
   </g>
   <g id="text_3">
    <!-- $x \cdot y = k$ -->
    <g style="fill: #2980b9" transform="translate(163.739129 199.813649) scale(0.14 -0.14)">
     <defs>
      <path id="DejaVuSans-Oblique-78" d="M 3841 3500 
L 2234 1784 
L 3219 0 
L 2559 0 
L 1819 1388 
L 531 0 
L -166 0 
L 1556 1844 
L 641 3500 
L 1300 3500 
L 1972 2234 
L 3144 3500 
L 3841 3500 
z
" transform="scale(0.015625)"/>
      <path id="DejaVuSans-22c5" d="M 684 2619 
L 1344 2619 
L 1344 1825 
L 684 1825 
L 684 2619 
z
" transform="scale(0.015625)"/>
      <path id="DejaVuSans-Oblique-79" d="M 1588 -325 
Q 1188 -997 936 -1164 
Q 684 -1331 294 -1331 
L -159 -1331 
L -63 -850 
L 269 -850 
Q 509 -850 678 -719 
Q 847 -588 1056 -206 
L 1234 128 
L 459 3500 
L 1069 3500 
L 1650 819 
L 3256 3500 
L 3859 3500 
L 1588 -325 
z
" transform="scale(0.015625)"/>
      <path id="DejaVuSans-3d" d="M 678 2906 
L 4684 2906 
L 4684 2381 
L 678 2381 
L 678 2906 
z
M 678 1631 
L 4684 1631 
L 4684 1100 
L 678 1100 
L 678 1631 
z
" transform="scale(0.015625)"/>
      <path id="DejaVuSans-Oblique-6b" d="M 1172 4863 
L 1747 4863 
L 1197 2028 
L 3169 3500 
L 3916 3500 
L 1716 1825 
L 3322 0 
L 2625 0 
L 1131 1709 
L 800 0 
L 225 0 
L 1172 4863 
z
" transform="scale(0.015625)"/>
     </defs>
     <use xlink:href="#DejaVuSans-Oblique-78" transform="translate(0 0.015625)"/>
     <use xlink:href="#DejaVuSans-22c5" transform="translate(78.662109 0.015625)"/>
     <use xlink:href="#DejaVuSans-Oblique-79" transform="translate(129.931641 0.015625)"/>
     <use xlink:href="#DejaVuSans-3d" transform="translate(208.59375 0.015625)"/>
     <use xlink:href="#DejaVuSans-Oblique-6b" transform="translate(311.865234 0.015625)"/>
    </g>
   </g>
  </g>
 </g>
 <defs>
  <clipPath id="p24643b7643">
   <rect x="26.0275" y="10.8" width="395.1725" height="251.1725"/>
  </clipPath>
 </defs>
</svg>
