<?xml version="1.0" encoding="utf-8" standalone="no"?>
<!DOCTYPE svg PUBLIC "-//W3C//DTD SVG 1.1//EN"
  "http://www.w3.org/Graphics/SVG/1.1/DTD/svg11.dtd">
<svg xmlns:xlink="http://www.w3.org/1999/xlink" width="432pt" height="288pt" viewBox="0 0 432 288" xmlns="http://www.w3.org/2000/svg" version="1.1">
 <metadata>
  <rdf:RDF xmlns:dc="http://purl.org/dc/elements/1.1/" xmlns:cc="http://creativecommons.org/ns#" xmlns:rdf="http://www.w3.org/1999/02/22-rdf-syntax-ns#">
   <cc:Work>
    <dc:type rdf:resource="http://purl.org/dc/dcmitype/StillImage"/>
    <dc:date>2026-05-11T09:52:21.951908</dc:date>
    <dc:format>image/svg+xml</dc:format>
    <dc:creator>
     <cc:Agent>
      <dc:title>Matplotlib v3.9.4, https://matplotlib.org/</dc:title>
     </cc:Agent>
    </dc:creator>
   </cc:Work>
  </rdf:RDF>
 </metadata>
 <defs>
  <style type="text/css">*{stroke-linejoin: round; stroke-linecap: butt}</style>
 </defs>
 <g id="figure_1">
  <g id="patch_1">
   <path d="M 0 288 
L 432 288 
L 432 0 
L 0 0 
z
" style="fill: #ffffff"/>
  </g>
  <g id="axes_1">
   <g id="patch_2">
    <path d="M 27.45625 260.785625 
L 421.2 260.785625 
L 421.2 10.8 
L 27.45625 10.8 
z
" style="fill: #ffffff"/>
   </g>
   <g id="matplotlib.axis_1">
    <g id="text_1">
     <!-- 艺术品代币储备 (x) -->
     <g transform="translate(173.665625 274.78125) scale(0.12 -0.12)">
      <defs>
       <path id="ArialUnicodeMS-827a" d="M 5881 4172 
L 4256 4172 
L 4256 3494 
L 3775 3494 
L 3775 4172 
L 2497 4172 
L 2497 3494 
L 2016 3494 
L 2016 4172 
L 441 4172 
L 441 4616 
L 2016 4616 
L 2016 5247 
L 2497 5247 
L 2497 4616 
L 3775 4616 
L 3775 5247 
L 4256 5247 
L 4256 4616 
L 5881 4616 
L 5881 4172 
z
M 5663 916 
Q 5522 -184 5006 -184 
L 1709 -184 
Q 1484 -184 1356 -32 
Q 1228 119 1228 338 
Q 1228 650 1828 1256 
Q 2428 1863 3681 2706 
L 3681 2713 
L 1325 2713 
L 1325 3181 
L 4494 3181 
L 4494 2725 
Q 3250 1931 2486 1186 
Q 1722 441 1722 338 
Q 1722 281 1772 281 
L 4825 281 
Q 5103 281 5172 1106 
L 5663 916 
z
" transform="scale(0.015625)"/>
       <path id="ArialUnicodeMS-672f" d="M 6059 494 
L 5716 103 
Q 5100 413 4472 1198 
Q 3844 1984 3513 3291 
L 3372 3291 
L 3372 -441 
L 2888 -441 
L 2888 3291 
L 2747 3291 
Q 2241 1028 563 109 
L 219 481 
Q 1775 1356 2278 3291 
L 391 3291 
L 391 3756 
L 2888 3756 
L 2888 5216 
L 3372 5216 
L 3372 3756 
L 5850 3756 
L 5850 3291 
L 3975 3291 
Q 4609 1278 6059 494 
z
M 5125 4159 
L 4750 3859 
Q 4403 4409 3744 4738 
L 4056 5050 
Q 4722 4747 5125 4159 
z
" transform="scale(0.015625)"/>
       <path id="ArialUnicodeMS-54c1" d="M 4997 2963 
L 1363 2963 
L 1363 5069 
L 4997 5069 
L 4997 2963 
z
M 4575 3378 
L 4575 4653 
L 1806 4653 
L 1806 3378 
L 4575 3378 
z
M 5656 -372 
L 5172 -372 
L 5172 72 
L 3956 72 
L 3956 -372 
L 3469 -372 
L 3469 2491 
L 5656 2491 
L 5656 -372 
z
M 5172 538 
L 5172 2022 
L 3956 2022 
L 3956 538 
L 5172 538 
z
M 2894 -397 
L 2406 -397 
L 2406 38 
L 1228 38 
L 1228 -422 
L 744 -409 
L 744 2472 
L 2894 2472 
L 2894 -397 
z
M 2406 506 
L 2406 2003 
L 1228 2003 
L 1228 506 
L 2406 506 
z
" transform="scale(0.015625)"/>
       <path id="ArialUnicodeMS-4ee3" d="M 2438 5119 
Q 2325 4741 2097 4194 
L 1869 3653 
L 1869 -434 
L 1381 -434 
L 1381 2919 
Q 1200 2553 697 2041 
L 294 2344 
Q 1381 3447 1991 5313 
L 2438 5119 
z
M 6125 991 
Q 6100 781 5947 298 
Q 5794 -184 5656 -281 
Q 5519 -378 5356 -378 
Q 5100 -378 4628 -26 
Q 4156 325 3812 1044 
Q 3469 1763 3347 2753 
L 2241 2656 
L 2181 3138 
L 3291 3231 
Q 3178 4506 3188 5300 
L 3700 5300 
Q 3728 3881 3816 3278 
Q 4725 3344 5759 3450 
L 5813 2975 
L 3872 2797 
Q 4034 1797 4451 987 
Q 4869 178 5331 178 
Q 5497 178 5650 1209 
L 6125 991 
z
M 5509 4019 
L 5113 3694 
Q 4566 4472 4078 4769 
L 4434 5088 
Q 4978 4763 5509 4019 
z
" transform="scale(0.015625)"/>
       <path id="ArialUnicodeMS-5e01" d="M 5588 4813 
Q 4684 4531 3431 4422 
L 3431 3525 
L 5363 3525 
L 5363 1019 
Q 5363 800 5255 648 
Q 5147 497 4998 465 
Q 4850 434 4331 409 
L 4128 916 
L 4638 884 
Q 4878 884 4878 1013 
L 4878 3059 
L 3431 3059 
L 3431 -397 
L 2925 -397 
L 2925 3059 
L 1522 3059 
L 1522 397 
L 1044 397 
L 1044 3525 
L 2925 3525 
L 2925 4372 
Q 1913 4313 756 4331 
L 581 4813 
Q 972 4794 1416 4794 
Q 3953 4794 5325 5209 
L 5588 4813 
z
" transform="scale(0.015625)"/>
       <path id="ArialUnicodeMS-50a8" d="M 1966 5119 
Q 1841 4672 1641 4128 
L 1441 3591 
L 1441 -403 
L 978 -403 
L 978 2663 
L 966 2663 
Q 831 2366 556 2081 
L 178 2381 
Q 1072 3447 1563 5331 
L 1966 5119 
z
M 5900 2869 
L 4628 2869 
Q 4275 2488 4134 2363 
L 5422 2363 
L 5422 -403 
L 4959 -403 
L 4959 -97 
L 3775 -97 
L 3775 -403 
L 3316 -403 
L 3316 1691 
Q 3181 1553 2706 1281 
L 2553 1569 
L 2534 1569 
L 2534 831 
L 3163 1259 
L 3163 659 
L 2241 -19 
L 1972 441 
Q 2075 547 2075 697 
L 2075 2638 
L 1563 2638 
L 1563 3103 
L 2534 3103 
L 2534 1778 
Q 2784 1878 3278 2245 
Q 3772 2613 4000 2869 
L 2644 2869 
L 2644 3334 
L 3775 3334 
L 3775 3841 
L 2888 3841 
L 2888 4306 
L 3775 4306 
L 3775 5288 
L 4238 5288 
L 4238 4306 
L 4781 4306 
L 4781 3841 
L 4238 3841 
L 4238 3334 
L 4403 3334 
Q 4863 3744 5409 4716 
L 5806 4475 
Q 5588 4056 5006 3347 
L 5900 3334 
L 5900 2869 
z
M 4959 1381 
L 4959 1925 
L 3775 1925 
L 3775 1381 
L 4959 1381 
z
M 4959 341 
L 4959 947 
L 3775 947 
L 3775 341 
L 4959 341 
z
M 2828 3731 
L 2444 3500 
Q 2138 4075 1819 4366 
L 2150 4616 
Q 2544 4181 2828 3731 
z
" transform="scale(0.015625)"/>
       <path id="ArialUnicodeMS-5907" d="M 5953 2316 
L 5722 1875 
Q 5131 1984 4872 2075 
L 4872 -403 
L 4384 -403 
L 4384 -44 
L 1838 -44 
L 1838 -403 
L 1350 -403 
L 1350 2034 
Q 903 1922 519 1850 
L 275 2297 
Q 1931 2553 2797 3066 
Q 2216 3456 1888 4019 
Q 1478 3531 750 3059 
L 434 3456 
Q 1588 4141 2119 5294 
L 2503 5081 
Q 2466 4984 2430 4921 
Q 2394 4859 2394 4856 
L 4838 4856 
L 4838 4434 
Q 4294 3559 3591 3047 
Q 5009 2378 5953 2316 
z
M 4238 4391 
L 2163 4391 
Q 2509 3778 3188 3322 
Q 3691 3581 4238 4391 
z
M 4281 2259 
L 4281 2278 
Q 3775 2394 3188 2772 
Q 2609 2400 2041 2278 
L 2041 2259 
L 4281 2259 
z
M 4384 1369 
L 4384 1791 
L 3359 1791 
L 3359 1369 
L 4384 1369 
z
M 2875 1369 
L 2875 1791 
L 1838 1791 
L 1838 1369 
L 2875 1369 
z
M 4384 422 
L 4384 903 
L 3359 903 
L 3359 422 
L 4384 422 
z
M 2875 422 
L 2875 903 
L 1838 903 
L 1838 422 
L 2875 422 
z
" transform="scale(0.015625)"/>
       <path id="ArialUnicodeMS-20" transform="scale(0.015625)"/>
       <path id="ArialUnicodeMS-28" d="M 1900 -1344 
L 1497 -1344 
Q 978 -681 681 103 
Q 384 888 384 1656 
Q 384 2528 700 3275 
Q 1016 4022 1497 4659 
L 1900 4659 
Q 1344 3747 1155 3059 
Q 966 2372 966 1663 
Q 966 153 1900 -1344 
z
" transform="scale(0.015625)"/>
       <path id="ArialUnicodeMS-78" d="M 3156 0 
L 2463 0 
L 1600 1313 
L 728 0 
L 44 0 
L 1259 1728 
L 141 3316 
L 838 3316 
Q 1519 2288 1581 2169 
L 2394 3316 
L 3066 3316 
L 1919 1759 
L 3156 0 
z
" transform="scale(0.015625)"/>
       <path id="ArialUnicodeMS-29" d="M 634 4659 
Q 1153 3997 1450 3212 
Q 1747 2428 1747 1656 
Q 1747 788 1431 41 
Q 1116 -706 634 -1344 
L 231 -1344 
Q 788 -431 977 255 
Q 1166 941 1166 1650 
Q 1166 3163 231 4659 
L 634 4659 
z
" transform="scale(0.015625)"/>
      </defs>
      <use xlink:href="#ArialUnicodeMS-827a"/>
      <use xlink:href="#ArialUnicodeMS-672f" x="100"/>
      <use xlink:href="#ArialUnicodeMS-54c1" x="200"/>
      <use xlink:href="#ArialUnicodeMS-4ee3" x="300"/>
      <use xlink:href="#ArialUnicodeMS-5e01" x="400"/>
      <use xlink:href="#ArialUnicodeMS-50a8" x="500"/>
      <use xlink:href="#ArialUnicodeMS-5907" x="600"/>
      <use xlink:href="#ArialUnicodeMS-20" x="700"/>
      <use xlink:href="#ArialUnicodeMS-28" x="727.783203"/>
      <use xlink:href="#ArialUnicodeMS-78" x="761.083984"/>
      <use xlink:href="#ArialUnicodeMS-29" x="811.083984"/>
     </g>
    </g>
   </g>
   <g id="matplotlib.axis_2">
    <g id="text_2">
     <!-- 计价代币储备 (y) -->
     <g transform="translate(20.93625 180.455312) rotate(-90) scale(0.12 -0.12)">
      <defs>
       <path id="ArialUnicodeMS-8ba1" d="M 2075 4422 
L 1672 4116 
Q 1431 4616 856 5081 
L 1203 5375 
Q 1741 5006 2075 4422 
z
M 5997 2956 
L 4506 2956 
L 4506 -422 
L 4019 -422 
L 4019 2956 
L 2528 2956 
L 2528 3425 
L 4019 3425 
L 4019 5325 
L 4506 5325 
L 4506 3425 
L 5997 3425 
L 5997 2956 
z
M 2853 384 
L 1600 -306 
L 1313 103 
Q 1409 203 1409 372 
L 1409 3116 
L 475 3116 
L 475 3584 
L 1894 3584 
L 1894 391 
L 2853 916 
L 2853 384 
z
" transform="scale(0.015625)"/>
       <path id="ArialUnicodeMS-4ef7" d="M 6284 2975 
L 5900 2572 
Q 4847 3084 3928 4519 
Q 3178 3188 2041 2584 
L 1697 2981 
Q 3113 3628 3859 5422 
L 4281 5184 
L 4206 4997 
Q 5038 3547 6284 2975 
z
M 2241 5172 
Q 2156 4775 1913 4147 
L 1672 3531 
L 1672 -428 
L 1184 -428 
L 1184 2663 
Q 1113 2534 659 2041 
L 213 2322 
Q 1372 3522 1784 5344 
L 2241 5172 
z
M 4984 -409 
L 4500 -409 
L 4500 3116 
L 4984 3116 
L 4984 -409 
z
M 3397 1791 
Q 3397 1034 3097 531 
Q 2797 28 2059 -475 
L 1697 -72 
Q 2209 191 2561 647 
Q 2913 1103 2913 1528 
L 2913 3116 
L 3397 3116 
L 3397 1791 
z
" transform="scale(0.015625)"/>
       <path id="ArialUnicodeMS-79" d="M 3150 3316 
L 1881 -56 
Q 1878 -63 1875 -78 
Q 1694 -641 1451 -992 
Q 1209 -1344 763 -1344 
Q 613 -1344 397 -1281 
L 341 -750 
Q 503 -800 659 -800 
Q 972 -800 1092 -628 
Q 1213 -456 1363 -6 
L 103 3316 
L 709 3316 
L 1491 1144 
Q 1559 944 1638 628 
L 1650 628 
Q 1728 991 1850 1319 
L 2578 3316 
L 3150 3316 
z
" transform="scale(0.015625)"/>
      </defs>
      <use xlink:href="#ArialUnicodeMS-8ba1"/>
      <use xlink:href="#ArialUnicodeMS-4ef7" x="100"/>
      <use xlink:href="#ArialUnicodeMS-4ee3" x="200"/>
      <use xlink:href="#ArialUnicodeMS-5e01" x="300"/>
      <use xlink:href="#ArialUnicodeMS-50a8" x="400"/>
      <use xlink:href="#ArialUnicodeMS-5907" x="500"/>
      <use xlink:href="#ArialUnicodeMS-20" x="600"/>
      <use xlink:href="#ArialUnicodeMS-28" x="627.783203"/>
      <use xlink:href="#ArialUnicodeMS-79" x="661.083984"/>
      <use xlink:href="#ArialUnicodeMS-29" x="711.083984"/>
     </g>
    </g>
   </g>
   <g id="line2d_1">
    <path d="M 45.353693 22.162983 
L 48.969338 43.205544 
L 52.584983 61.010788 
L 56.200628 76.272426 
L 59.816274 89.499178 
L 63.431919 101.072587 
L 67.047564 111.284418 
L 70.663209 120.361601 
L 74.278854 128.483291 
L 77.894499 135.792813 
L 81.510144 142.406189 
L 85.125789 148.418349 
L 88.741434 153.907713 
L 92.357079 158.93963 
L 95.972724 163.568993 
L 99.588369 167.842252 
L 103.204015 171.798972 
L 106.81966 175.47307 
L 110.435305 178.893782 
L 114.05095 182.086447 
L 117.666595 185.073133 
L 121.28224 187.873151 
L 124.897885 190.503471 
L 128.51353 192.979067 
L 132.129175 195.313199 
L 135.74482 197.517658 
L 139.360465 199.602957 
L 142.976111 201.578503 
L 146.591756 203.452739 
L 150.207401 205.233264 
L 153.823046 206.926933 
L 157.438691 208.539952 
L 161.054336 210.077947 
L 164.669981 211.546032 
L 168.285626 212.94887 
L 171.901271 214.290714 
L 175.516916 215.575459 
L 179.132561 216.806672 
L 182.748206 217.987633 
L 186.363852 219.121354 
L 189.979497 220.210616 
L 193.595142 221.257983 
L 197.210787 222.265827 
L 200.826432 223.236344 
L 204.442077 224.171569 
L 208.057722 225.073393 
L 211.673367 225.943574 
L 215.289012 226.783749 
L 218.904657 227.595443 
L 222.520302 228.380081 
L 226.135948 229.138993 
L 229.751593 229.873424 
L 233.367238 230.58454 
L 236.982883 231.273433 
L 240.598528 231.94113 
L 244.214173 232.588593 
L 247.829818 233.216729 
L 251.445463 233.826391 
L 255.061108 234.418381 
L 258.676753 234.993457 
L 262.292398 235.552334 
L 265.908044 236.095687 
L 269.523689 236.624153 
L 273.139334 237.138336 
L 276.754979 237.638808 
L 280.370624 238.126109 
L 283.986269 238.600754 
L 287.601914 239.063227 
L 291.217559 239.513993 
L 294.833204 239.95349 
L 298.448849 240.382134 
L 302.064494 240.800324 
L 305.680139 241.208438 
L 309.295785 241.606834 
L 312.91143 241.995856 
L 316.527075 242.375831 
L 320.14272 242.747071 
L 323.758365 243.109874 
L 327.37401 243.464524 
L 330.989655 243.811292 
L 334.6053 244.15044 
L 338.220945 244.482215 
L 341.83659 244.806854 
L 345.452235 245.124587 
L 349.067881 245.43563 
L 352.683526 245.740194 
L 356.299171 246.038478 
L 359.914816 246.330674 
L 363.530461 246.616967 
L 367.146106 246.897535 
L 370.761751 247.172546 
L 374.377396 247.442166 
L 377.993041 247.70655 
L 381.608686 247.965849 
L 385.224331 248.22021 
L 388.839976 248.469771 
L 392.455622 248.714668 
L 396.071267 248.95503 
L 399.686912 249.190981 
L 403.302557 249.422642 
" clip-path="url(#p719a35c3ac)" style="fill: none; stroke: #2980b9; stroke-width: 2; stroke-linecap: square"/>
   </g>
   <g id="patch_3">
    <path d="M 27.45625 260.785625 
L 27.45625 10.8 
" style="fill: none; stroke: #000000; stroke-width: 0.8; stroke-linejoin: miter; stroke-linecap: square"/>
   </g>
   <g id="patch_4">
    <path d="M 27.45625 260.785625 
L 421.2 260.785625 
" style="fill: none; stroke: #000000; stroke-width: 0.8; stroke-linejoin: miter; stroke-linecap: square"/>
   </g>
   <g id="text_3">
    <!-- $x \cdot y = k$ -->
    <g style="fill: #2980b9" transform="translate(164.669981 198.920496) scale(0.14 -0.14)">
     <defs>
      <path id="DejaVuSans-Oblique-78" d="M 3841 3500 
L 2234 1784 
L 3219 0 
L 2559 0 
L 1819 1388 
L 531 0 
L -166 0 
L 1556 1844 
L 641 3500 
L 1300 3500 
L 1972 2234 
L 3144 3500 
L 3841 3500 
z
" transform="scale(0.015625)"/>
      <path id="DejaVuSans-22c5" d="M 684 2619 
L 1344 2619 
L 1344 1825 
L 684 1825 
L 684 2619 
z
" transform="scale(0.015625)"/>
      <path id="DejaVuSans-Oblique-79" d="M 1588 -325 
Q 1188 -997 936 -1164 
Q 684 -1331 294 -1331 
L -159 -1331 
L -63 -850 
L 269 -850 
Q 509 -850 678 -719 
Q 847 -588 1056 -206 
L 1234 128 
L 459 3500 
L 1069 3500 
L 1650 819 
L 3256 3500 
L 3859 3500 
L 1588 -325 
z
" transform="scale(0.015625)"/>
      <path id="DejaVuSans-3d" d="M 678 2906 
L 4684 2906 
L 4684 2381 
L 678 2381 
L 678 2906 
z
M 678 1631 
L 4684 1631 
L 4684 1100 
L 678 1100 
L 678 1631 
z
" transform="scale(0.015625)"/>
      <path id="DejaVuSans-Oblique-6b" d="M 1172 4863 
L 1747 4863 
L 1197 2028 
L 3169 3500 
L 3916 3500 
L 1716 1825 
L 3322 0 
L 2625 0 
L 1131 1709 
L 800 0 
L 225 0 
L 1172 4863 
z
" transform="scale(0.015625)"/>
     </defs>
     <use xlink:href="#DejaVuSans-Oblique-78" transform="translate(0 0.015625)"/>
     <use xlink:href="#DejaVuSans-22c5" transform="translate(78.662109 0.015625)"/>
     <use xlink:href="#DejaVuSans-Oblique-79" transform="translate(129.931641 0.015625)"/>
     <use xlink:href="#DejaVuSans-3d" transform="translate(208.59375 0.015625)"/>
     <use xlink:href="#DejaVuSans-Oblique-6b" transform="translate(311.865234 0.015625)"/>
    </g>
   </g>
  </g>
 </g>
 <defs>
  <clipPath id="p719a35c3ac">
   <rect x="27.45625" y="10.8" width="393.74375" height="249.985625"/>
  </clipPath>
 </defs>
</svg>
