<?xml version="1.0" encoding="utf-8" standalone="no"?>
<!DOCTYPE svg PUBLIC "-//W3C//DTD SVG 1.1//EN"
  "http://www.w3.org/Graphics/SVG/1.1/DTD/svg11.dtd">
<svg xmlns:xlink="http://www.w3.org/1999/xlink" width="576pt" height="360pt" viewBox="0 0 576 360" xmlns="http://www.w3.org/2000/svg" version="1.1">
 <metadata>
  <rdf:RDF xmlns:dc="http://purl.org/dc/elements/1.1/" xmlns:cc="http://creativecommons.org/ns#" xmlns:rdf="http://www.w3.org/1999/02/22-rdf-syntax-ns#">
   <cc:Work>
    <dc:type rdf:resource="http://purl.org/dc/dcmitype/StillImage"/>
    <dc:date>2026-04-28T12:02:13.463577</dc:date>
    <dc:format>image/svg+xml</dc:format>
    <dc:creator>
     <cc:Agent>
      <dc:title>Matplotlib v3.9.4, https://matplotlib.org/</dc:title>
     </cc:Agent>
    </dc:creator>
   </cc:Work>
  </rdf:RDF>
 </metadata>
 <defs>
  <style type="text/css">*{stroke-linejoin: round; stroke-linecap: butt}</style>
 </defs>
 <g id="figure_1">
  <g id="patch_1">
   <path d="M 0 360 
L 576 360 
L 576 0 
L 0 0 
L 0 360 
z
" style="fill: none"/>
  </g>
  <g id="axes_1">
   <g id="patch_2">
    <path d="M 59.800625 310.0825 
L 565.2 310.0825 
L 565.2 36.88125 
L 59.800625 36.88125 
L 59.800625 310.0825 
z
" style="fill: none"/>
   </g>
   <g id="PolyCollection_1">
    <defs>
     <path id="md8fa19996d" d="M 82.773324 -146.025797 
L 82.773324 -98.703438 
L 87.414273 -100.468512 
L 92.055222 -102.215667 
L 96.696172 -103.944902 
L 101.337121 -105.656218 
L 105.97807 -107.349614 
L 110.619019 -109.02509 
L 115.259969 -110.682647 
L 119.900918 -112.322285 
L 124.541867 -113.944003 
L 129.182817 -115.547802 
L 133.823766 -117.133681 
L 138.464715 -118.70164 
L 143.105664 -120.25168 
L 147.746614 -121.7838 
L 152.387563 -123.298001 
L 157.028512 -124.794282 
L 161.669461 -126.272644 
L 166.310411 -127.733086 
L 170.95136 -129.175609 
L 175.592309 -130.600212 
L 180.233258 -132.006896 
L 184.874208 -133.39566 
L 189.515157 -134.766504 
L 194.156106 -136.119429 
L 198.797055 -137.454435 
L 203.438005 -138.771521 
L 208.078954 -140.070687 
L 212.719903 -141.351934 
L 217.360853 -142.615261 
L 222.001802 -143.860669 
L 226.642751 -145.088157 
L 231.2837 -146.297726 
L 235.92465 -147.489375 
L 240.565599 -148.663105 
L 245.206548 -149.818915 
L 249.847497 -150.956805 
L 254.488447 -152.076776 
L 259.129396 -153.178828 
L 263.770345 -154.26296 
L 268.411294 -155.329172 
L 273.052244 -156.377465 
L 277.693193 -157.407838 
L 282.334142 -158.420292 
L 286.975092 -159.414826 
L 291.616041 -160.391441 
L 296.25699 -161.350136 
L 300.897939 -162.290912 
L 305.538889 -163.213768 
L 310.179838 -164.118705 
L 314.820787 -165.005722 
L 319.461736 -165.874819 
L 324.102686 -166.725997 
L 328.743635 -167.559256 
L 333.384584 -168.374595 
L 338.025533 -169.172014 
L 342.666483 -169.951514 
L 347.307432 -170.713094 
L 351.948381 -171.456755 
L 356.589331 -172.182496 
L 361.23028 -172.890318 
L 365.871229 -173.58022 
L 370.512178 -174.252202 
L 375.153128 -174.906265 
L 379.794077 -175.542409 
L 384.435026 -176.160633 
L 389.075975 -176.760938 
L 393.716925 -177.343322 
L 398.357874 -177.907788 
L 402.998823 -178.454334 
L 407.639772 -178.98296 
L 412.280722 -179.493667 
L 416.921671 -179.986454 
L 421.56262 -180.461322 
L 426.20357 -180.91827 
L 430.844519 -181.357299 
L 435.485468 -181.778408 
L 440.126417 -182.181597 
L 444.767367 -182.566867 
L 449.408316 -182.934218 
L 454.049265 -183.283649 
L 458.690214 -183.61516 
L 463.331164 -183.928752 
L 467.972113 -184.224424 
L 472.613062 -184.502177 
L 477.254011 -184.76201 
L 481.894961 -185.003924 
L 486.53591 -185.227918 
L 491.176859 -185.433993 
L 495.817808 -185.622148 
L 500.458758 -185.792384 
L 505.099707 -185.9447 
L 509.740656 -186.079096 
L 514.381606 -186.195573 
L 519.022555 -186.294131 
L 523.663504 -186.374769 
L 528.304453 -186.437487 
L 532.945403 -186.482286 
L 537.586352 -186.509165 
L 542.227301 -186.518125 
L 542.227301 -286.529297 
L 542.227301 -286.529297 
L 537.586352 -285.636904 
L 532.945403 -284.733759 
L 528.304453 -283.819863 
L 523.663504 -282.895215 
L 519.022555 -281.959815 
L 514.381606 -281.013664 
L 509.740656 -280.05676 
L 505.099707 -279.089105 
L 500.458758 -278.110699 
L 495.817808 -277.12154 
L 491.176859 -276.12163 
L 486.53591 -275.110968 
L 481.894961 -274.089555 
L 477.254011 -273.05739 
L 472.613062 -272.014472 
L 467.972113 -270.960804 
L 463.331164 -269.896383 
L 458.690214 -268.821211 
L 454.049265 -267.735287 
L 449.408316 -266.638612 
L 444.767367 -265.531184 
L 440.126417 -264.413005 
L 435.485468 -263.284074 
L 430.844519 -262.144392 
L 426.20357 -260.993958 
L 421.56262 -259.832772 
L 416.921671 -258.660834 
L 412.280722 -257.478145 
L 407.639772 -256.284704 
L 402.998823 -255.080511 
L 398.357874 -253.865566 
L 393.716925 -252.63987 
L 389.075975 -251.403422 
L 384.435026 -250.156222 
L 379.794077 -248.898271 
L 375.153128 -247.629568 
L 370.512178 -246.350113 
L 365.871229 -245.059906 
L 361.23028 -243.758948 
L 356.589331 -242.447238 
L 351.948381 -241.124776 
L 347.307432 -239.791562 
L 342.666483 -238.447597 
L 338.025533 -237.09288 
L 333.384584 -235.727412 
L 328.743635 -234.351191 
L 324.102686 -232.964219 
L 319.461736 -231.566495 
L 314.820787 -230.15802 
L 310.179838 -228.738792 
L 305.538889 -227.308813 
L 300.897939 -225.868083 
L 296.25699 -224.4166 
L 291.616041 -222.954366 
L 286.975092 -221.48138 
L 282.334142 -219.997643 
L 277.693193 -218.503153 
L 273.052244 -216.997912 
L 268.411294 -215.481919 
L 263.770345 -213.955175 
L 259.129396 -212.417679 
L 254.488447 -210.869431 
L 249.847497 -209.310431 
L 245.206548 -207.74068 
L 240.565599 -206.160177 
L 235.92465 -204.568922 
L 231.2837 -202.966915 
L 226.642751 -201.354157 
L 222.001802 -199.730647 
L 217.360853 -198.096385 
L 212.719903 -196.451372 
L 208.078954 -194.795607 
L 203.438005 -193.12909 
L 198.797055 -191.451821 
L 194.156106 -189.763801 
L 189.515157 -188.065029 
L 184.874208 -186.355505 
L 180.233258 -184.63523 
L 175.592309 -182.904203 
L 170.95136 -181.162424 
L 166.310411 -179.409893 
L 161.669461 -177.646611 
L 157.028512 -175.872576 
L 152.387563 -174.087791 
L 147.746614 -172.292253 
L 143.105664 -170.485964 
L 138.464715 -168.668923 
L 133.823766 -166.84113 
L 129.182817 -165.002586 
L 124.541867 -163.15329 
L 119.900918 -161.293242 
L 115.259969 -159.422442 
L 110.619019 -157.540891 
L 105.97807 -155.648588 
L 101.337121 -153.745533 
L 96.696172 -151.831727 
L 92.055222 -149.907168 
L 87.414273 -147.971859 
L 82.773324 -146.025797 
z
" style="stroke: #3b82f6; stroke-opacity: 0.1"/>
    </defs>
    <g clip-path="url(#pc741b1ebcd)">
     <use xlink:href="#md8fa19996d" x="0" y="360" style="fill: #3b82f6; fill-opacity: 0.1; stroke: #3b82f6; stroke-opacity: 0.1"/>
    </g>
   </g>
   <g id="matplotlib.axis_1">
    <g id="xtick_1">
     <g id="line2d_1">
      <path d="M 82.773324 310.0825 
L 82.773324 36.88125 
" clip-path="url(#pc741b1ebcd)" style="fill: none; stroke-dasharray: 2.96,1.28; stroke-dashoffset: 0; stroke: #eeeeee; stroke-opacity: 0.5; stroke-width: 0.8"/>
     </g>
     <g id="line2d_2">
      <defs>
       <path id="m8e04db8191" d="M 0 0 
L 0 3.5 
" style="stroke: #666666; stroke-width: 0.8"/>
      </defs>
      <g>
       <use xlink:href="#m8e04db8191" x="82.773324" y="310.0825" style="fill: #666666; stroke: #666666; stroke-width: 0.8"/>
      </g>
     </g>
     <g id="text_1">
      <!-- 0.10 -->
      <g style="fill: #666666" transform="translate(73.042855 324.240313) scale(0.1 -0.1)">
       <defs>
        <path id="ArialUnicodeMS-30" d="M 1778 4603 
Q 3272 4603 3272 2259 
Q 3272 1075 2886 498 
Q 2500 -78 1778 -78 
Q 288 -78 288 2259 
Q 288 3444 673 4023 
Q 1059 4603 1778 4603 
z
M 1778 384 
Q 2231 384 2462 823 
Q 2694 1263 2694 2259 
Q 2694 2953 2592 3351 
Q 2491 3750 2286 3945 
Q 2081 4141 1772 4141 
Q 1319 4141 1091 3694 
Q 863 3247 863 2259 
Q 863 1575 966 1175 
Q 1069 775 1272 579 
Q 1475 384 1778 384 
z
" transform="scale(0.015625)"/>
        <path id="ArialUnicodeMS-2e" d="M 1209 0 
L 569 0 
L 569 641 
L 1209 641 
L 1209 0 
z
" transform="scale(0.015625)"/>
        <path id="ArialUnicodeMS-31" d="M 2400 0 
L 1838 0 
L 1838 3584 
Q 1416 3184 709 2906 
L 709 3450 
Q 1681 3916 2034 4603 
L 2400 4603 
L 2400 0 
z
" transform="scale(0.015625)"/>
       </defs>
       <use xlink:href="#ArialUnicodeMS-30"/>
       <use xlink:href="#ArialUnicodeMS-2e" x="55.615234"/>
       <use xlink:href="#ArialUnicodeMS-31" x="83.398438"/>
       <use xlink:href="#ArialUnicodeMS-30" x="139.013672"/>
      </g>
     </g>
    </g>
    <g id="xtick_2">
     <g id="line2d_3">
      <path d="M 159.348987 310.0825 
L 159.348987 36.88125 
" clip-path="url(#pc741b1ebcd)" style="fill: none; stroke-dasharray: 2.96,1.28; stroke-dashoffset: 0; stroke: #eeeeee; stroke-opacity: 0.5; stroke-width: 0.8"/>
     </g>
     <g id="line2d_4">
      <g>
       <use xlink:href="#m8e04db8191" x="159.348987" y="310.0825" style="fill: #666666; stroke: #666666; stroke-width: 0.8"/>
      </g>
     </g>
     <g id="text_2">
      <!-- 0.15 -->
      <g style="fill: #666666" transform="translate(149.618518 324.240313) scale(0.1 -0.1)">
       <defs>
        <path id="ArialUnicodeMS-35" d="M 1013 2753 
Q 1431 3041 1881 3041 
Q 2453 3041 2878 2636 
Q 3303 2231 3303 1556 
Q 3303 875 2872 398 
Q 2441 -78 1741 -78 
Q 1169 -78 750 245 
Q 331 569 269 1203 
L 856 1247 
Q 928 813 1162 598 
Q 1397 384 1741 384 
Q 2169 384 2434 707 
Q 2700 1031 2700 1503 
Q 2700 1984 2428 2262 
Q 2156 2541 1728 2541 
Q 1188 2541 897 2100 
L 366 2163 
L 813 4519 
L 3084 4519 
L 3084 3975 
L 1259 3975 
L 1013 2753 
z
" transform="scale(0.015625)"/>
       </defs>
       <use xlink:href="#ArialUnicodeMS-30"/>
       <use xlink:href="#ArialUnicodeMS-2e" x="55.615234"/>
       <use xlink:href="#ArialUnicodeMS-31" x="83.398438"/>
       <use xlink:href="#ArialUnicodeMS-35" x="139.013672"/>
      </g>
     </g>
    </g>
    <g id="xtick_3">
     <g id="line2d_5">
      <path d="M 235.92465 310.0825 
L 235.92465 36.88125 
" clip-path="url(#pc741b1ebcd)" style="fill: none; stroke-dasharray: 2.96,1.28; stroke-dashoffset: 0; stroke: #eeeeee; stroke-opacity: 0.5; stroke-width: 0.8"/>
     </g>
     <g id="line2d_6">
      <g>
       <use xlink:href="#m8e04db8191" x="235.92465" y="310.0825" style="fill: #666666; stroke: #666666; stroke-width: 0.8"/>
      </g>
     </g>
     <g id="text_3">
      <!-- 0.20 -->
      <g style="fill: #666666" transform="translate(226.194181 324.240313) scale(0.1 -0.1)">
       <defs>
        <path id="ArialUnicodeMS-32" d="M 3231 0 
L 197 0 
Q 197 388 467 784 
Q 738 1181 1478 1778 
Q 1931 2141 2287 2539 
Q 2644 2938 2644 3341 
Q 2644 3688 2398 3914 
Q 2153 4141 1778 4141 
Q 1400 4141 1144 3908 
Q 888 3675 884 3213 
L 306 3278 
Q 359 3922 764 4262 
Q 1169 4603 1791 4603 
Q 2466 4603 2842 4229 
Q 3219 3856 3219 3328 
Q 3219 2888 2901 2436 
Q 2584 1984 1638 1228 
Q 1141 831 978 544 
L 3231 544 
L 3231 0 
z
" transform="scale(0.015625)"/>
       </defs>
       <use xlink:href="#ArialUnicodeMS-30"/>
       <use xlink:href="#ArialUnicodeMS-2e" x="55.615234"/>
       <use xlink:href="#ArialUnicodeMS-32" x="83.398438"/>
       <use xlink:href="#ArialUnicodeMS-30" x="139.013672"/>
      </g>
     </g>
    </g>
    <g id="xtick_4">
     <g id="line2d_7">
      <path d="M 312.500312 310.0825 
L 312.500312 36.88125 
" clip-path="url(#pc741b1ebcd)" style="fill: none; stroke-dasharray: 2.96,1.28; stroke-dashoffset: 0; stroke: #eeeeee; stroke-opacity: 0.5; stroke-width: 0.8"/>
     </g>
     <g id="line2d_8">
      <g>
       <use xlink:href="#m8e04db8191" x="312.500312" y="310.0825" style="fill: #666666; stroke: #666666; stroke-width: 0.8"/>
      </g>
     </g>
     <g id="text_4">
      <!-- 0.25 -->
      <g style="fill: #666666" transform="translate(302.769844 324.240313) scale(0.1 -0.1)">
       <use xlink:href="#ArialUnicodeMS-30"/>
       <use xlink:href="#ArialUnicodeMS-2e" x="55.615234"/>
       <use xlink:href="#ArialUnicodeMS-32" x="83.398438"/>
       <use xlink:href="#ArialUnicodeMS-35" x="139.013672"/>
      </g>
     </g>
    </g>
    <g id="xtick_5">
     <g id="line2d_9">
      <path d="M 389.075975 310.0825 
L 389.075975 36.88125 
" clip-path="url(#pc741b1ebcd)" style="fill: none; stroke-dasharray: 2.96,1.28; stroke-dashoffset: 0; stroke: #eeeeee; stroke-opacity: 0.5; stroke-width: 0.8"/>
     </g>
     <g id="line2d_10">
      <g>
       <use xlink:href="#m8e04db8191" x="389.075975" y="310.0825" style="fill: #666666; stroke: #666666; stroke-width: 0.8"/>
      </g>
     </g>
     <g id="text_5">
      <!-- 0.30 -->
      <g style="fill: #666666" transform="translate(379.345507 324.240313) scale(0.1 -0.1)">
       <defs>
        <path id="ArialUnicodeMS-33" d="M 2425 2478 
Q 2850 2397 3067 2067 
Q 3284 1738 3284 1350 
Q 3284 725 2829 323 
Q 2375 -78 1741 -78 
Q 1134 -78 740 275 
Q 347 628 281 1209 
L 844 1288 
Q 928 834 1151 609 
Q 1375 384 1741 384 
Q 2134 384 2407 661 
Q 2681 938 2681 1338 
Q 2681 1722 2432 1975 
Q 2184 2228 1784 2228 
Q 1622 2228 1388 2169 
L 1453 2663 
Q 1678 2663 1809 2684 
Q 1941 2706 2103 2790 
Q 2266 2875 2372 3033 
Q 2478 3191 2478 3425 
Q 2478 3766 2251 3953 
Q 2025 4141 1728 4141 
Q 1388 4141 1173 3925 
Q 959 3709 903 3309 
L 341 3413 
Q 450 4009 823 4306 
Q 1197 4603 1716 4603 
Q 2288 4603 2670 4258 
Q 3053 3913 3053 3413 
Q 3053 2772 2425 2491 
L 2425 2478 
z
" transform="scale(0.015625)"/>
       </defs>
       <use xlink:href="#ArialUnicodeMS-30"/>
       <use xlink:href="#ArialUnicodeMS-2e" x="55.615234"/>
       <use xlink:href="#ArialUnicodeMS-33" x="83.398438"/>
       <use xlink:href="#ArialUnicodeMS-30" x="139.013672"/>
      </g>
     </g>
    </g>
    <g id="xtick_6">
     <g id="line2d_11">
      <path d="M 465.651638 310.0825 
L 465.651638 36.88125 
" clip-path="url(#pc741b1ebcd)" style="fill: none; stroke-dasharray: 2.96,1.28; stroke-dashoffset: 0; stroke: #eeeeee; stroke-opacity: 0.5; stroke-width: 0.8"/>
     </g>
     <g id="line2d_12">
      <g>
       <use xlink:href="#m8e04db8191" x="465.651638" y="310.0825" style="fill: #666666; stroke: #666666; stroke-width: 0.8"/>
      </g>
     </g>
     <g id="text_6">
      <!-- 0.35 -->
      <g style="fill: #666666" transform="translate(455.92117 324.240313) scale(0.1 -0.1)">
       <use xlink:href="#ArialUnicodeMS-30"/>
       <use xlink:href="#ArialUnicodeMS-2e" x="55.615234"/>
       <use xlink:href="#ArialUnicodeMS-33" x="83.398438"/>
       <use xlink:href="#ArialUnicodeMS-35" x="139.013672"/>
      </g>
     </g>
    </g>
    <g id="xtick_7">
     <g id="line2d_13">
      <path d="M 542.227301 310.0825 
L 542.227301 36.88125 
" clip-path="url(#pc741b1ebcd)" style="fill: none; stroke-dasharray: 2.96,1.28; stroke-dashoffset: 0; stroke: #eeeeee; stroke-opacity: 0.5; stroke-width: 0.8"/>
     </g>
     <g id="line2d_14">
      <g>
       <use xlink:href="#m8e04db8191" x="542.227301" y="310.0825" style="fill: #666666; stroke: #666666; stroke-width: 0.8"/>
      </g>
     </g>
     <g id="text_7">
      <!-- 0.40 -->
      <g style="fill: #666666" transform="translate(532.496832 324.240313) scale(0.1 -0.1)">
       <defs>
        <path id="ArialUnicodeMS-34" d="M 3263 1094 
L 2644 1094 
L 2644 0 
L 2081 0 
L 2081 1094 
L 97 1094 
L 97 1613 
L 2181 4581 
L 2644 4581 
L 2644 1613 
L 3263 1613 
L 3263 1094 
z
M 2081 1613 
L 2081 3681 
L 2069 3681 
L 647 1613 
L 2081 1613 
z
" transform="scale(0.015625)"/>
       </defs>
       <use xlink:href="#ArialUnicodeMS-30"/>
       <use xlink:href="#ArialUnicodeMS-2e" x="55.615234"/>
       <use xlink:href="#ArialUnicodeMS-34" x="83.398438"/>
       <use xlink:href="#ArialUnicodeMS-30" x="139.013672"/>
      </g>
     </g>
    </g>
    <g id="text_8">
     <!-- 组合风险 (σ) -->
     <g style="fill: #666666" transform="translate(279.1225 346.539375) scale(0.12 -0.12)">
      <defs>
       <path id="ArialUnicodeMS-7ec4" d="M 2509 1619 
Q 853 1231 622 1147 
L 391 1575 
Q 1022 2209 1306 2625 
L 1294 2638 
Q 1284 2631 1023 2561 
Q 763 2491 609 2438 
L 366 2881 
Q 853 3669 1441 5166 
L 1875 4966 
Q 1300 3650 947 3022 
L 1619 3163 
Q 1797 3416 2047 3922 
L 2503 3719 
Q 1863 2416 1153 1772 
L 1166 1759 
L 2509 2053 
L 2509 1619 
z
M 5919 -91 
L 2150 -91 
L 2150 378 
L 2881 378 
L 2881 4941 
L 5184 4941 
L 5184 378 
L 5919 378 
L 5919 -91 
z
M 4697 3469 
L 4697 4475 
L 3366 4475 
L 3366 3469 
L 4697 3469 
z
M 4697 1972 
L 4697 3028 
L 3366 3028 
L 3366 1972 
L 4697 1972 
z
M 4697 378 
L 4697 1528 
L 3366 1528 
L 3366 378 
L 4697 378 
z
M 2650 691 
L 647 19 
L 409 459 
Q 2306 1044 2650 1172 
L 2650 691 
z
" transform="scale(0.015625)"/>
       <path id="ArialUnicodeMS-5408" d="M 6119 2925 
L 5797 2497 
Q 5525 2603 5015 2934 
Q 4506 3266 4200 3555 
Q 3894 3844 3200 4659 
Q 2319 3578 603 2419 
L 256 2803 
Q 2228 4103 3175 5497 
L 3647 5178 
L 3450 4978 
Q 3994 4306 4803 3698 
Q 5613 3091 6119 2925 
z
M 4691 2597 
L 1638 2597 
L 1638 3084 
L 4691 3084 
L 4691 2597 
z
M 5063 -434 
L 4556 -434 
L 4556 -38 
L 1838 -38 
L 1838 -469 
L 1331 -469 
L 1331 1906 
L 5063 1906 
L 5063 -434 
z
M 4556 447 
L 4556 1441 
L 1838 1441 
L 1838 447 
L 4556 447 
z
" transform="scale(0.015625)"/>
       <path id="ArialUnicodeMS-98ce" d="M 6028 481 
L 5947 116 
Q 5788 -359 5534 -359 
Q 5416 -359 5278 -273 
Q 5141 -188 4917 176 
Q 4694 541 4576 1092 
Q 4459 1644 4428 2134 
Q 4397 2625 4394 3269 
L 4384 4588 
L 1575 4588 
L 1575 2356 
Q 1575 1563 1311 800 
Q 1047 38 575 -403 
L 166 -63 
Q 1088 834 1088 2478 
L 1088 5056 
L 4872 5056 
L 4872 2847 
Q 4872 1138 5497 206 
L 5588 738 
L 6028 481 
z
M 4378 603 
L 3944 353 
Q 3653 1191 3150 1894 
Q 2497 978 1838 347 
L 1447 697 
Q 2000 1109 2875 2278 
Q 2481 2828 1684 3591 
L 2009 3884 
Q 2681 3294 3138 2719 
Q 3481 3228 3822 4044 
L 4225 3816 
Q 3822 2838 3438 2316 
Q 4153 1334 4378 603 
z
" transform="scale(0.015625)"/>
       <path id="ArialUnicodeMS-9669" d="M 6041 3109 
L 5753 2688 
L 5375 2913 
L 5375 2613 
L 2809 2613 
L 2809 2906 
Q 2800 2900 2703 2834 
Q 2606 2769 2484 2719 
Q 2353 2866 2131 3169 
Q 2706 3375 3234 4004 
Q 3763 4634 3944 5294 
L 4422 5088 
L 4294 4763 
Q 4916 3678 6041 3109 
z
M 5166 3078 
Q 4406 3603 4056 4294 
Q 3659 3519 3041 3091 
L 3041 3078 
L 5166 3078 
z
M 2584 4575 
Q 2584 4516 1881 3256 
Q 2559 2400 2559 1734 
Q 2559 1403 2301 1133 
Q 2044 863 1666 863 
Q 1559 863 1416 884 
L 1253 1416 
Q 1522 1369 1659 1369 
Q 1909 1369 1995 1509 
Q 2081 1650 2081 1759 
Q 2081 2300 1300 3244 
Q 1725 3975 2016 4550 
L 1125 4550 
L 1125 -428 
L 641 -428 
L 641 5019 
L 2584 5019 
L 2584 4575 
z
M 4506 1088 
L 4056 863 
Q 3956 1488 3322 2297 
L 3769 2497 
Q 4356 1744 4506 1088 
z
M 5863 -172 
L 2216 -172 
L 2216 294 
L 4391 294 
Q 4878 1100 5125 2444 
L 5588 2259 
Q 5384 1181 4878 294 
L 5863 294 
L 5863 -172 
z
M 3700 756 
L 3213 525 
Q 3163 1300 2606 2113 
L 3028 2309 
Q 3600 1447 3700 756 
z
" transform="scale(0.015625)"/>
       <path id="ArialUnicodeMS-20" transform="scale(0.015625)"/>
       <path id="ArialUnicodeMS-28" d="M 1900 -1344 
L 1497 -1344 
Q 978 -681 681 103 
Q 384 888 384 1656 
Q 384 2528 700 3275 
Q 1016 4022 1497 4659 
L 1900 4659 
Q 1344 3747 1155 3059 
Q 966 2372 966 1663 
Q 966 153 1900 -1344 
z
" transform="scale(0.015625)"/>
       <path id="ArialUnicodeMS-3c3" d="M 3822 2950 
Q 3378 2906 3116 2906 
Q 3334 2397 3334 1656 
Q 3334 813 2895 367 
Q 2456 -78 1772 -78 
Q 1088 -78 656 372 
Q 225 822 225 1656 
Q 225 2500 662 2945 
Q 1100 3391 1772 3391 
L 2834 3366 
Q 3359 3366 3822 3419 
L 3822 2950 
z
M 2759 1656 
Q 2759 2441 2516 2906 
L 1778 2931 
Q 1350 2931 1075 2590 
Q 800 2250 800 1656 
Q 800 1066 1075 725 
Q 1350 384 1778 384 
Q 2206 384 2482 726 
Q 2759 1069 2759 1656 
z
" transform="scale(0.015625)"/>
       <path id="ArialUnicodeMS-29" d="M 634 4659 
Q 1153 3997 1450 3212 
Q 1747 2428 1747 1656 
Q 1747 788 1431 41 
Q 1116 -706 634 -1344 
L 231 -1344 
Q 788 -431 977 255 
Q 1166 941 1166 1650 
Q 1166 3163 231 4659 
L 634 4659 
z
" transform="scale(0.015625)"/>
      </defs>
      <use xlink:href="#ArialUnicodeMS-7ec4"/>
      <use xlink:href="#ArialUnicodeMS-5408" x="100"/>
      <use xlink:href="#ArialUnicodeMS-98ce" x="200"/>
      <use xlink:href="#ArialUnicodeMS-9669" x="300"/>
      <use xlink:href="#ArialUnicodeMS-20" x="400"/>
      <use xlink:href="#ArialUnicodeMS-28" x="427.783203"/>
      <use xlink:href="#ArialUnicodeMS-3c3" x="461.083984"/>
      <use xlink:href="#ArialUnicodeMS-29" x="522.998047"/>
     </g>
    </g>
   </g>
   <g id="matplotlib.axis_2">
    <g id="ytick_1">
     <g id="line2d_15">
      <path d="M 59.800625 310.0825 
L 565.2 310.0825 
" clip-path="url(#pc741b1ebcd)" style="fill: none; stroke-dasharray: 2.96,1.28; stroke-dashoffset: 0; stroke: #eeeeee; stroke-opacity: 0.5; stroke-width: 0.8"/>
     </g>
     <g id="line2d_16">
      <defs>
       <path id="mba88a400b0" d="M 0 0 
L -3.5 0 
" style="stroke: #666666; stroke-width: 0.8"/>
      </defs>
      <g>
       <use xlink:href="#mba88a400b0" x="59.800625" y="310.0825" style="fill: #666666; stroke: #666666; stroke-width: 0.8"/>
      </g>
     </g>
     <g id="text_9">
      <!-- 0.04 -->
      <g style="fill: #666666" transform="translate(33.339688 313.661406) scale(0.1 -0.1)">
       <use xlink:href="#ArialUnicodeMS-30"/>
       <use xlink:href="#ArialUnicodeMS-2e" x="55.615234"/>
       <use xlink:href="#ArialUnicodeMS-30" x="83.398438"/>
       <use xlink:href="#ArialUnicodeMS-34" x="139.013672"/>
      </g>
     </g>
    </g>
    <g id="ytick_2">
     <g id="line2d_17">
      <path d="M 59.800625 271.05375 
L 565.2 271.05375 
" clip-path="url(#pc741b1ebcd)" style="fill: none; stroke-dasharray: 2.96,1.28; stroke-dashoffset: 0; stroke: #eeeeee; stroke-opacity: 0.5; stroke-width: 0.8"/>
     </g>
     <g id="line2d_18">
      <g>
       <use xlink:href="#mba88a400b0" x="59.800625" y="271.05375" style="fill: #666666; stroke: #666666; stroke-width: 0.8"/>
      </g>
     </g>
     <g id="text_10">
      <!-- 0.06 -->
      <g style="fill: #666666" transform="translate(33.339688 274.632656) scale(0.1 -0.1)">
       <defs>
        <path id="ArialUnicodeMS-36" d="M 838 2363 
Q 1225 2969 1941 2969 
Q 2503 2969 2897 2553 
Q 3291 2138 3291 1491 
Q 3291 838 2898 380 
Q 2506 -78 1856 -78 
Q 1197 -78 733 409 
Q 269 897 269 2144 
Q 269 3369 689 3986 
Q 1109 4603 1906 4603 
Q 2422 4603 2778 4315 
Q 3134 4028 3213 3463 
L 2650 3413 
Q 2497 4141 1875 4141 
Q 1444 4141 1134 3712 
Q 825 3284 825 2363 
L 838 2363 
z
M 1844 384 
Q 2231 384 2472 696 
Q 2713 1009 2713 1453 
Q 2713 1897 2472 2187 
Q 2231 2478 1825 2478 
Q 1453 2478 1184 2204 
Q 916 1931 916 1484 
Q 916 1028 1180 706 
Q 1444 384 1844 384 
z
" transform="scale(0.015625)"/>
       </defs>
       <use xlink:href="#ArialUnicodeMS-30"/>
       <use xlink:href="#ArialUnicodeMS-2e" x="55.615234"/>
       <use xlink:href="#ArialUnicodeMS-30" x="83.398438"/>
       <use xlink:href="#ArialUnicodeMS-36" x="139.013672"/>
      </g>
     </g>
    </g>
    <g id="ytick_3">
     <g id="line2d_19">
      <path d="M 59.800625 232.025 
L 565.2 232.025 
" clip-path="url(#pc741b1ebcd)" style="fill: none; stroke-dasharray: 2.96,1.28; stroke-dashoffset: 0; stroke: #eeeeee; stroke-opacity: 0.5; stroke-width: 0.8"/>
     </g>
     <g id="line2d_20">
      <g>
       <use xlink:href="#mba88a400b0" x="59.800625" y="232.025" style="fill: #666666; stroke: #666666; stroke-width: 0.8"/>
      </g>
     </g>
     <g id="text_11">
      <!-- 0.08 -->
      <g style="fill: #666666" transform="translate(33.339688 235.603906) scale(0.1 -0.1)">
       <defs>
        <path id="ArialUnicodeMS-38" d="M 2425 2478 
Q 3284 2203 3284 1306 
Q 3284 716 2862 319 
Q 2441 -78 1778 -78 
Q 1109 -78 689 322 
Q 269 722 269 1325 
Q 269 1759 505 2084 
Q 741 2409 1141 2478 
L 1141 2491 
Q 453 2703 453 3419 
Q 453 3925 815 4264 
Q 1178 4603 1766 4603 
Q 2363 4603 2730 4253 
Q 3097 3903 3097 3406 
Q 3097 2731 2425 2491 
L 2425 2478 
z
M 1778 2700 
Q 2094 2700 2308 2901 
Q 2522 3103 2522 3406 
Q 2522 3716 2305 3928 
Q 2088 4141 1772 4141 
Q 1450 4141 1240 3931 
Q 1031 3722 1031 3438 
Q 1031 3097 1247 2898 
Q 1463 2700 1778 2700 
z
M 1778 384 
Q 2175 384 2440 640 
Q 2706 897 2706 1306 
Q 2706 1716 2432 1978 
Q 2159 2241 1766 2241 
Q 1356 2241 1100 1970 
Q 844 1700 844 1319 
Q 844 922 1108 653 
Q 1372 384 1778 384 
z
" transform="scale(0.015625)"/>
       </defs>
       <use xlink:href="#ArialUnicodeMS-30"/>
       <use xlink:href="#ArialUnicodeMS-2e" x="55.615234"/>
       <use xlink:href="#ArialUnicodeMS-30" x="83.398438"/>
       <use xlink:href="#ArialUnicodeMS-38" x="139.013672"/>
      </g>
     </g>
    </g>
    <g id="ytick_4">
     <g id="line2d_21">
      <path d="M 59.800625 192.99625 
L 565.2 192.99625 
" clip-path="url(#pc741b1ebcd)" style="fill: none; stroke-dasharray: 2.96,1.28; stroke-dashoffset: 0; stroke: #eeeeee; stroke-opacity: 0.5; stroke-width: 0.8"/>
     </g>
     <g id="line2d_22">
      <g>
       <use xlink:href="#mba88a400b0" x="59.800625" y="192.99625" style="fill: #666666; stroke: #666666; stroke-width: 0.8"/>
      </g>
     </g>
     <g id="text_12">
      <!-- 0.10 -->
      <g style="fill: #666666" transform="translate(33.339688 196.575156) scale(0.1 -0.1)">
       <use xlink:href="#ArialUnicodeMS-30"/>
       <use xlink:href="#ArialUnicodeMS-2e" x="55.615234"/>
       <use xlink:href="#ArialUnicodeMS-31" x="83.398438"/>
       <use xlink:href="#ArialUnicodeMS-30" x="139.013672"/>
      </g>
     </g>
    </g>
    <g id="ytick_5">
     <g id="line2d_23">
      <path d="M 59.800625 153.9675 
L 565.2 153.9675 
" clip-path="url(#pc741b1ebcd)" style="fill: none; stroke-dasharray: 2.96,1.28; stroke-dashoffset: 0; stroke: #eeeeee; stroke-opacity: 0.5; stroke-width: 0.8"/>
     </g>
     <g id="line2d_24">
      <g>
       <use xlink:href="#mba88a400b0" x="59.800625" y="153.9675" style="fill: #666666; stroke: #666666; stroke-width: 0.8"/>
      </g>
     </g>
     <g id="text_13">
      <!-- 0.12 -->
      <g style="fill: #666666" transform="translate(33.339688 157.546406) scale(0.1 -0.1)">
       <use xlink:href="#ArialUnicodeMS-30"/>
       <use xlink:href="#ArialUnicodeMS-2e" x="55.615234"/>
       <use xlink:href="#ArialUnicodeMS-31" x="83.398438"/>
       <use xlink:href="#ArialUnicodeMS-32" x="139.013672"/>
      </g>
     </g>
    </g>
    <g id="ytick_6">
     <g id="line2d_25">
      <path d="M 59.800625 114.93875 
L 565.2 114.93875 
" clip-path="url(#pc741b1ebcd)" style="fill: none; stroke-dasharray: 2.96,1.28; stroke-dashoffset: 0; stroke: #eeeeee; stroke-opacity: 0.5; stroke-width: 0.8"/>
     </g>
     <g id="line2d_26">
      <g>
       <use xlink:href="#mba88a400b0" x="59.800625" y="114.93875" style="fill: #666666; stroke: #666666; stroke-width: 0.8"/>
      </g>
     </g>
     <g id="text_14">
      <!-- 0.14 -->
      <g style="fill: #666666" transform="translate(33.339688 118.517656) scale(0.1 -0.1)">
       <use xlink:href="#ArialUnicodeMS-30"/>
       <use xlink:href="#ArialUnicodeMS-2e" x="55.615234"/>
       <use xlink:href="#ArialUnicodeMS-31" x="83.398438"/>
       <use xlink:href="#ArialUnicodeMS-34" x="139.013672"/>
      </g>
     </g>
    </g>
    <g id="ytick_7">
     <g id="line2d_27">
      <path d="M 59.800625 75.91 
L 565.2 75.91 
" clip-path="url(#pc741b1ebcd)" style="fill: none; stroke-dasharray: 2.96,1.28; stroke-dashoffset: 0; stroke: #eeeeee; stroke-opacity: 0.5; stroke-width: 0.8"/>
     </g>
     <g id="line2d_28">
      <g>
       <use xlink:href="#mba88a400b0" x="59.800625" y="75.91" style="fill: #666666; stroke: #666666; stroke-width: 0.8"/>
      </g>
     </g>
     <g id="text_15">
      <!-- 0.16 -->
      <g style="fill: #666666" transform="translate(33.339688 79.488906) scale(0.1 -0.1)">
       <use xlink:href="#ArialUnicodeMS-30"/>
       <use xlink:href="#ArialUnicodeMS-2e" x="55.615234"/>
       <use xlink:href="#ArialUnicodeMS-31" x="83.398438"/>
       <use xlink:href="#ArialUnicodeMS-36" x="139.013672"/>
      </g>
     </g>
    </g>
    <g id="ytick_8">
     <g id="line2d_29">
      <path d="M 59.800625 36.88125 
L 565.2 36.88125 
" clip-path="url(#pc741b1ebcd)" style="fill: none; stroke-dasharray: 2.96,1.28; stroke-dashoffset: 0; stroke: #eeeeee; stroke-opacity: 0.5; stroke-width: 0.8"/>
     </g>
     <g id="line2d_30">
      <g>
       <use xlink:href="#mba88a400b0" x="59.800625" y="36.88125" style="fill: #666666; stroke: #666666; stroke-width: 0.8"/>
      </g>
     </g>
     <g id="text_16">
      <!-- 0.18 -->
      <g style="fill: #666666" transform="translate(33.339688 40.460156) scale(0.1 -0.1)">
       <use xlink:href="#ArialUnicodeMS-30"/>
       <use xlink:href="#ArialUnicodeMS-2e" x="55.615234"/>
       <use xlink:href="#ArialUnicodeMS-31" x="83.398438"/>
       <use xlink:href="#ArialUnicodeMS-38" x="139.013672"/>
      </g>
     </g>
    </g>
    <g id="text_17">
     <!-- 预期收益 (E[r]) -->
     <g style="fill: #666666" transform="translate(20.819688 212.478125) rotate(-90) scale(0.12 -0.12)">
      <defs>
       <path id="ArialUnicodeMS-9884" d="M 5888 4519 
L 4538 4519 
Q 4450 4066 4306 3828 
L 5594 3828 
L 5594 872 
L 5106 872 
L 5106 3359 
L 3431 3359 
L 3431 825 
L 2944 825 
L 2944 3828 
L 3725 3828 
Q 3906 4113 4031 4519 
L 2700 4519 
L 2700 4984 
L 5888 4984 
L 5888 4519 
z
M 2747 2822 
Q 2747 2788 2650 2513 
Q 2553 2238 2406 1953 
Q 2288 1997 1947 2175 
Q 2159 2513 2241 2759 
L 1728 2759 
L 1728 63 
Q 1728 -141 1609 -275 
Q 1491 -409 1306 -409 
L 703 -409 
L 519 109 
L 1106 84 
Q 1156 84 1198 134 
Q 1241 184 1241 238 
L 1241 2759 
L 319 2759 
L 319 3225 
L 1619 3225 
Q 1413 3463 594 3794 
L 916 4153 
Q 1138 4094 1281 4006 
L 1747 4447 
L 391 4447 
L 391 4916 
L 2484 4916 
L 2484 4494 
Q 2016 3963 1741 3750 
Q 1981 3588 2181 3391 
L 2053 3225 
L 2747 3225 
L 2747 2822 
z
M 4494 1747 
Q 4494 1088 4069 481 
Q 3644 -125 2688 -409 
L 2369 38 
Q 4003 384 4019 1931 
L 4031 3122 
L 4494 3053 
L 4494 1747 
z
M 5991 -13 
L 5663 -416 
Q 5234 169 4325 594 
L 4609 966 
Q 5506 559 5991 -13 
z
" transform="scale(0.015625)"/>
       <path id="ArialUnicodeMS-671f" d="M 3738 1281 
L 506 1281 
L 506 1747 
L 1075 1747 
L 1075 4134 
L 531 4134 
L 531 4603 
L 1075 4603 
L 1075 5281 
L 1563 5281 
L 1563 4603 
L 2741 4603 
L 2741 5306 
L 3225 5306 
L 3225 4603 
L 3738 4603 
L 3738 4134 
L 3225 4134 
L 3225 1747 
L 3738 1747 
L 3738 1281 
z
M 2741 3688 
L 2741 4134 
L 1563 4134 
L 1563 3688 
L 2741 3688 
z
M 2741 2766 
L 2741 3219 
L 1563 3219 
L 1563 2766 
L 2741 2766 
z
M 2741 1747 
L 2741 2297 
L 1563 2297 
L 1563 1747 
L 2741 1747 
z
M 5753 366 
Q 5753 38 5672 -57 
Q 5591 -153 5489 -233 
Q 5388 -313 4697 -313 
L 4538 178 
L 5147 159 
Q 5269 159 5269 300 
L 5269 1753 
L 4331 1753 
Q 4275 494 3719 -447 
L 3284 -153 
Q 3853 716 3853 1984 
L 3853 4997 
L 5753 4997 
L 5753 366 
z
M 5269 3688 
L 5269 4531 
L 4341 4531 
L 4341 3688 
L 5269 3688 
z
M 5269 2222 
L 5269 3219 
L 4341 3219 
L 4341 2222 
L 5269 2222 
z
M 1931 934 
Q 1556 213 750 -422 
L 384 -84 
Q 1203 488 1588 1247 
L 1931 934 
z
M 3494 366 
L 3150 0 
Q 2775 566 2222 850 
L 2547 1178 
Q 3075 947 3494 366 
z
" transform="scale(0.015625)"/>
       <path id="ArialUnicodeMS-6536" d="M 6088 -13 
L 5728 -391 
Q 5000 -66 4391 716 
Q 3878 91 2938 -447 
L 2584 -116 
L 2584 -434 
L 2100 -434 
L 2100 1313 
L 647 825 
L 428 1247 
Q 509 1284 621 1318 
Q 734 1353 763 1369 
L 763 4641 
L 1247 4641 
L 1247 1528 
L 2100 1838 
L 2100 5247 
L 2584 5247 
L 2584 -56 
Q 3647 494 4147 1147 
Q 3669 1850 3463 2719 
Q 3253 2297 2975 1925 
L 2613 2272 
Q 3469 3409 3525 5313 
L 4006 5159 
Q 4006 4703 3916 4166 
L 5813 4166 
L 5813 3700 
L 5422 3700 
Q 5363 2247 4697 1147 
Q 5272 319 6088 -13 
z
M 4947 3700 
L 3816 3700 
L 3763 3500 
Q 3975 2297 4416 1588 
Q 4878 2472 4947 3700 
z
" transform="scale(0.015625)"/>
       <path id="ArialUnicodeMS-76ca" d="M 5191 5063 
Q 4775 4500 4072 4000 
L 3706 4341 
Q 4428 4822 4788 5375 
L 5191 5063 
z
M 2675 4306 
L 2259 3994 
Q 1838 4713 1197 5075 
L 1631 5350 
Q 2178 5041 2675 4306 
z
M 5869 3506 
L 531 3506 
L 531 3975 
L 5869 3975 
L 5869 3506 
z
M 6144 2150 
L 5831 1753 
Q 5544 1859 5209 2034 
L 5209 353 
L 5984 353 
L 5984 -116 
L 403 -116 
L 403 353 
L 1203 353 
L 1203 2113 
Q 906 1969 609 1875 
L 288 2284 
Q 1559 2691 2322 3463 
L 2688 3116 
Q 2044 2509 1313 2150 
L 5006 2150 
Q 4272 2588 3738 3169 
L 4128 3481 
Q 4856 2681 6144 2150 
z
M 4691 366 
L 4691 1709 
L 4044 1709 
L 4044 366 
L 4691 366 
z
M 3547 366 
L 3547 1709 
L 2847 1709 
L 2847 366 
L 3547 366 
z
M 2350 353 
L 2350 1684 
L 1703 1684 
L 1703 353 
L 2350 353 
z
" transform="scale(0.015625)"/>
       <path id="ArialUnicodeMS-45" d="M 3928 0 
L 506 0 
L 506 4581 
L 3822 4581 
L 3822 4038 
L 1113 4038 
L 1113 2638 
L 3647 2638 
L 3647 2094 
L 1113 2094 
L 1113 544 
L 3928 544 
L 3928 0 
z
" transform="scale(0.015625)"/>
       <path id="ArialUnicodeMS-5b" d="M 1678 -1275 
L 434 -1275 
L 434 4581 
L 1678 4581 
L 1678 4116 
L 997 4116 
L 997 -806 
L 1678 -806 
L 1678 -1275 
z
" transform="scale(0.015625)"/>
       <path id="ArialUnicodeMS-72" d="M 2216 3213 
L 2022 2694 
Q 1813 2816 1613 2816 
Q 1297 2816 1134 2533 
Q 972 2250 972 1741 
L 972 0 
L 409 0 
L 409 3316 
L 922 3316 
L 922 2816 
L 934 2816 
Q 1203 3391 1638 3391 
Q 1925 3391 2216 3213 
z
" transform="scale(0.015625)"/>
       <path id="ArialUnicodeMS-5d" d="M 1344 -1275 
L 103 -1275 
L 103 -806 
L 781 -806 
L 781 4116 
L 103 4116 
L 103 4581 
L 1344 4581 
L 1344 -1275 
z
" transform="scale(0.015625)"/>
      </defs>
      <use xlink:href="#ArialUnicodeMS-9884"/>
      <use xlink:href="#ArialUnicodeMS-671f" x="100"/>
      <use xlink:href="#ArialUnicodeMS-6536" x="200"/>
      <use xlink:href="#ArialUnicodeMS-76ca" x="300"/>
      <use xlink:href="#ArialUnicodeMS-20" x="400"/>
      <use xlink:href="#ArialUnicodeMS-28" x="427.783203"/>
      <use xlink:href="#ArialUnicodeMS-45" x="461.083984"/>
      <use xlink:href="#ArialUnicodeMS-5b" x="527.783203"/>
      <use xlink:href="#ArialUnicodeMS-72" x="555.566406"/>
      <use xlink:href="#ArialUnicodeMS-5d" x="588.867188"/>
      <use xlink:href="#ArialUnicodeMS-29" x="616.650391"/>
     </g>
    </g>
   </g>
   <g id="line2d_31">
    <path d="M 82.773324 261.296562 
L 87.414273 259.531488 
L 92.055222 257.784333 
L 96.696172 256.055098 
L 101.337121 254.343782 
L 105.97807 252.650386 
L 110.619019 250.97491 
L 115.259969 249.317353 
L 119.900918 247.677715 
L 124.541867 246.055997 
L 129.182817 244.452198 
L 133.823766 242.866319 
L 138.464715 241.29836 
L 143.105664 239.74832 
L 147.746614 238.2162 
L 152.387563 236.701999 
L 157.028512 235.205718 
L 161.669461 233.727356 
L 166.310411 232.266914 
L 170.95136 230.824391 
L 175.592309 229.399788 
L 180.233258 227.993104 
L 184.874208 226.60434 
L 189.515157 225.233496 
L 194.156106 223.880571 
L 198.797055 222.545565 
L 203.438005 221.228479 
L 208.078954 219.929313 
L 212.719903 218.648066 
L 217.360853 217.384739 
L 222.001802 216.139331 
L 226.642751 214.911843 
L 231.2837 213.702274 
L 235.92465 212.510625 
L 240.565599 211.336895 
L 245.206548 210.181085 
L 249.847497 209.043195 
L 254.488447 207.923224 
L 259.129396 206.821172 
L 263.770345 205.73704 
L 268.411294 204.670828 
L 273.052244 203.622535 
L 277.693193 202.592162 
L 282.334142 201.579708 
L 286.975092 200.585174 
L 291.616041 199.608559 
L 296.25699 198.649864 
L 300.897939 197.709088 
L 305.538889 196.786232 
L 310.179838 195.881295 
L 314.820787 194.994278 
L 319.461736 194.125181 
L 324.102686 193.274003 
L 328.743635 192.440744 
L 333.384584 191.625405 
L 338.025533 190.827986 
L 342.666483 190.048486 
L 347.307432 189.286906 
L 351.948381 188.543245 
L 356.589331 187.817504 
L 361.23028 187.109682 
L 365.871229 186.41978 
L 370.512178 185.747798 
L 375.153128 185.093735 
L 379.794077 184.457591 
L 384.435026 183.839367 
L 389.075975 183.239062 
L 393.716925 182.656678 
L 398.357874 182.092212 
L 402.998823 181.545666 
L 407.639772 181.01704 
L 412.280722 180.506333 
L 416.921671 180.013546 
L 421.56262 179.538678 
L 426.20357 179.08173 
L 430.844519 178.642701 
L 435.485468 178.221592 
L 440.126417 177.818403 
L 444.767367 177.433133 
L 449.408316 177.065782 
L 454.049265 176.716351 
L 458.690214 176.38484 
L 463.331164 176.071248 
L 467.972113 175.775576 
L 472.613062 175.497823 
L 477.254011 175.23799 
L 481.894961 174.996076 
L 486.53591 174.772082 
L 491.176859 174.566007 
L 495.817808 174.377852 
L 500.458758 174.207616 
L 505.099707 174.0553 
L 509.740656 173.920904 
L 514.381606 173.804427 
L 519.022555 173.705869 
L 523.663504 173.625231 
L 528.304453 173.562513 
L 532.945403 173.517714 
L 537.586352 173.490835 
L 542.227301 173.481875 
" clip-path="url(#pc741b1ebcd)" style="fill: none; stroke-dasharray: 9.25,4; stroke-dashoffset: 0; stroke: #94a3b8; stroke-width: 2.5"/>
   </g>
   <g id="line2d_32">
    <path d="M 82.773324 213.974203 
L 87.414273 212.028141 
L 92.055222 210.092832 
L 96.696172 208.168273 
L 101.337121 206.254467 
L 105.97807 204.351412 
L 110.619019 202.459109 
L 115.259969 200.577558 
L 119.900918 198.706758 
L 124.541867 196.84671 
L 129.182817 194.997414 
L 133.823766 193.15887 
L 138.464715 191.331077 
L 143.105664 189.514036 
L 147.746614 187.707747 
L 152.387563 185.912209 
L 157.028512 184.127424 
L 161.669461 182.353389 
L 166.310411 180.590107 
L 170.95136 178.837576 
L 175.592309 177.095797 
L 180.233258 175.36477 
L 184.874208 173.644495 
L 189.515157 171.934971 
L 194.156106 170.236199 
L 198.797055 168.548179 
L 203.438005 166.87091 
L 208.078954 165.204393 
L 212.719903 163.548628 
L 217.360853 161.903615 
L 222.001802 160.269353 
L 226.642751 158.645843 
L 231.2837 157.033085 
L 235.92465 155.431078 
L 240.565599 153.839823 
L 245.206548 152.25932 
L 249.847497 150.689569 
L 254.488447 149.130569 
L 259.129396 147.582321 
L 263.770345 146.044825 
L 268.411294 144.518081 
L 273.052244 143.002088 
L 277.693193 141.496847 
L 282.334142 140.002357 
L 286.975092 138.51862 
L 291.616041 137.045634 
L 296.25699 135.5834 
L 300.897939 134.131917 
L 305.538889 132.691187 
L 310.179838 131.261208 
L 314.820787 129.84198 
L 319.461736 128.433505 
L 324.102686 127.035781 
L 328.743635 125.648809 
L 333.384584 124.272588 
L 338.025533 122.90712 
L 342.666483 121.552403 
L 347.307432 120.208438 
L 351.948381 118.875224 
L 356.589331 117.552762 
L 361.23028 116.241052 
L 365.871229 114.940094 
L 370.512178 113.649887 
L 375.153128 112.370432 
L 379.794077 111.101729 
L 384.435026 109.843778 
L 389.075975 108.596578 
L 393.716925 107.36013 
L 398.357874 106.134434 
L 402.998823 104.919489 
L 407.639772 103.715296 
L 412.280722 102.521855 
L 416.921671 101.339166 
L 421.56262 100.167228 
L 426.20357 99.006042 
L 430.844519 97.855608 
L 435.485468 96.715926 
L 440.126417 95.586995 
L 444.767367 94.468816 
L 449.408316 93.361388 
L 454.049265 92.264713 
L 458.690214 91.178789 
L 463.331164 90.103617 
L 467.972113 89.039196 
L 472.613062 87.985528 
L 477.254011 86.94261 
L 481.894961 85.910445 
L 486.53591 84.889032 
L 491.176859 83.87837 
L 495.817808 82.87846 
L 500.458758 81.889301 
L 505.099707 80.910895 
L 509.740656 79.94324 
L 514.381606 78.986336 
L 519.022555 78.040185 
L 523.663504 77.104785 
L 528.304453 76.180137 
L 532.945403 75.266241 
L 537.586352 74.363096 
L 542.227301 73.470703 
" clip-path="url(#pc741b1ebcd)" style="fill: none; stroke: #3b82f6; stroke-width: 2.5; stroke-linecap: square"/>
   </g>
   <g id="patch_3">
    <path d="M 59.800625 310.0825 
L 59.800625 36.88125 
" style="fill: none; stroke: #dddddd; stroke-width: 0.8; stroke-linejoin: miter; stroke-linecap: square"/>
   </g>
   <g id="patch_4">
    <path d="M 59.800625 310.0825 
L 565.2 310.0825 
" style="fill: none; stroke: #dddddd; stroke-width: 0.8; stroke-linejoin: miter; stroke-linecap: square"/>
   </g>
   <g id="text_18">
    <!-- 低相关性带来的有效前沿改善 -->
    <g style="fill: #333333" transform="translate(215.000312 21.88125) scale(0.15 -0.15)">
     <defs>
      <path id="ArialUnicodeMS-4f4e" d="M 2188 5153 
Q 1994 4550 1828 4150 
L 1663 3794 
L 1663 -434 
L 1172 -434 
L 1172 2956 
Q 997 2628 622 2253 
L 244 2591 
Q 1125 3463 1741 5363 
L 2188 5153 
z
M 6150 872 
Q 6053 -13 5886 -186 
Q 5719 -359 5478 -359 
Q 4941 -359 4542 559 
Q 4144 1478 4013 2875 
L 2869 2875 
L 2869 1031 
L 4050 1281 
L 4050 788 
L 2175 372 
L 1906 831 
L 2363 928 
L 2363 4594 
Q 4388 4797 5459 5319 
L 5797 4947 
Q 5131 4625 4428 4469 
Q 4419 3966 4469 3341 
L 5894 3341 
L 5894 2875 
L 4500 2875 
Q 4625 1759 4904 978 
Q 5184 197 5478 197 
Q 5559 197 5603 420 
Q 5647 644 5684 1106 
L 6150 872 
z
M 3975 3328 
Q 3938 3875 3928 4353 
Q 3438 4266 2869 4191 
L 2869 3328 
L 3975 3328 
z
M 4263 -250 
L 2188 -250 
L 2188 219 
L 4263 219 
L 4263 -250 
z
" transform="scale(0.015625)"/>
      <path id="ArialUnicodeMS-76f8" d="M 3009 1791 
L 2566 1503 
Q 2322 1975 2003 2406 
L 2003 -416 
L 1509 -416 
L 1509 2094 
Q 1313 1497 659 678 
L 275 972 
Q 1053 1969 1459 3603 
L 519 3603 
L 519 4072 
L 1516 4072 
L 1516 5300 
L 2003 5300 
L 2003 4072 
L 2881 4072 
L 2881 3603 
L 2003 3603 
L 2003 2900 
L 2131 2975 
Q 2681 2434 3009 1791 
z
M 5691 -416 
L 5178 -416 
L 5178 38 
L 3659 38 
L 3659 -416 
L 3150 -416 
L 3150 4966 
L 5691 4966 
L 5691 -416 
z
M 5178 3547 
L 5178 4500 
L 3659 4500 
L 3659 3547 
L 5178 3547 
z
M 5178 2059 
L 5178 3078 
L 3659 3078 
L 3659 2059 
L 5178 2059 
z
M 5178 506 
L 5178 1594 
L 3659 1594 
L 3659 506 
L 5178 506 
z
" transform="scale(0.015625)"/>
      <path id="ArialUnicodeMS-5173" d="M 5881 -38 
L 5516 -397 
Q 4691 -63 4152 460 
Q 3613 984 3244 1941 
L 3156 1941 
Q 2881 1134 2139 467 
Q 1397 -200 575 -397 
L 244 -13 
Q 1122 272 1767 803 
Q 2413 1334 2644 1941 
L 366 1941 
L 366 2406 
L 2759 2406 
Q 2784 2628 2784 3525 
L 738 3525 
L 738 3969 
L 2222 3969 
Q 1884 4613 1441 5106 
L 1838 5306 
Q 2359 4784 2747 3969 
L 3378 3969 
Q 3725 4450 4072 5319 
L 4519 5119 
Q 4209 4425 3903 3969 
L 5441 3969 
L 5441 3525 
L 3272 3525 
Q 3253 2594 3231 2406 
L 5819 2406 
L 5819 1941 
L 3781 1941 
Q 4272 669 5881 -38 
z
" transform="scale(0.015625)"/>
      <path id="ArialUnicodeMS-6027" d="M 6088 6 
L 2322 6 
L 2322 475 
L 3928 475 
L 3928 1778 
L 2669 1778 
L 2669 2247 
L 3928 2247 
L 3928 3463 
L 3169 3463 
Q 2978 2881 2606 2375 
L 2113 2597 
Q 2363 2838 2438 3003 
L 2203 2900 
Q 2078 3494 1766 3866 
L 1766 -434 
L 1281 -434 
L 1281 5281 
L 1766 5281 
L 1766 3928 
L 2138 4128 
Q 2413 3813 2597 3347 
Q 2844 3763 2894 4775 
L 3378 4647 
Q 3363 4338 3291 3928 
L 3928 3928 
L 3928 5294 
L 4416 5294 
L 4416 3928 
L 5759 3928 
L 5759 3463 
L 4416 3463 
L 4416 2247 
L 5569 2247 
L 5569 1778 
L 4416 1778 
L 4416 475 
L 6088 475 
L 6088 6 
z
M 1241 3897 
Q 1175 2956 763 2344 
L 347 2528 
Q 819 3406 819 4025 
L 1241 3897 
z
" transform="scale(0.015625)"/>
      <path id="ArialUnicodeMS-5e26" d="M 5844 4103 
L 4622 4103 
L 4622 3463 
L 4159 3463 
L 4159 4103 
L 3334 4103 
L 3334 3438 
L 2881 3438 
L 2881 4103 
L 2075 4103 
L 2075 3463 
L 1613 3463 
L 1613 4103 
L 416 4103 
L 416 4538 
L 1613 4538 
L 1613 5184 
L 2075 5184 
L 2075 4538 
L 2881 4538 
L 2881 5300 
L 3334 5300 
L 3334 4538 
L 4159 4538 
L 4159 5184 
L 4622 5184 
L 4622 4538 
L 5844 4538 
L 5844 4103 
z
M 5716 2041 
L 5253 2041 
L 5253 2900 
L 997 2900 
L 997 2041 
L 513 2041 
L 513 3334 
L 5716 3334 
L 5716 2041 
z
M 4897 609 
Q 4897 428 4745 292 
Q 4594 156 3872 184 
L 3744 647 
Q 4200 603 4325 603 
Q 4434 603 4434 678 
L 4434 1888 
L 3334 1888 
L 3334 -378 
L 2847 -372 
L 2847 1888 
L 1784 1888 
L 1784 103 
L 1325 103 
L 1325 2322 
L 2847 2322 
L 2847 2778 
L 3334 2778 
L 3334 2322 
L 4897 2322 
L 4897 609 
z
" transform="scale(0.015625)"/>
      <path id="ArialUnicodeMS-6765" d="M 6088 366 
L 5772 -19 
Q 4219 581 3419 2222 
L 3419 -366 
L 2931 -366 
L 2931 2234 
Q 2334 678 641 6 
L 313 372 
Q 1234 781 1693 1197 
Q 2153 1613 2438 2194 
L 481 2194 
L 481 2663 
L 2919 2663 
L 2919 4128 
L 722 4128 
L 722 4594 
L 2919 4594 
L 2919 5313 
L 3419 5313 
L 3419 4594 
L 5678 4594 
L 5678 4128 
L 3419 4128 
L 3419 2663 
L 5913 2663 
L 5913 2194 
L 3944 2194 
Q 4216 1644 4828 1125 
Q 5441 606 6088 366 
z
M 2534 3003 
L 2119 2725 
Q 1784 3472 1222 3822 
L 1606 4078 
Q 2294 3628 2534 3003 
z
M 5159 3816 
Q 4753 3069 4238 2725 
L 3834 3009 
Q 4353 3366 4769 4038 
L 5159 3816 
z
" transform="scale(0.015625)"/>
      <path id="ArialUnicodeMS-7684" d="M 5644 4281 
Q 5619 1694 5395 673 
Q 5172 -347 4606 -347 
Q 4350 -347 3609 -134 
L 3525 403 
Q 4247 134 4531 134 
Q 4806 134 4976 1142 
Q 5147 2150 5159 3841 
L 3794 3841 
Q 3550 3166 3053 2497 
L 2719 2713 
L 2719 -147 
L 2216 -147 
L 2216 269 
L 1153 269 
L 1153 -250 
L 647 -250 
L 647 4184 
L 1234 4184 
Q 1494 4644 1625 5313 
L 2088 5125 
Q 1903 4444 1741 4184 
L 2719 4184 
L 2719 2881 
Q 3431 3888 3681 5363 
L 4191 5247 
Q 4106 4869 3916 4281 
L 5644 4281 
z
M 2216 2484 
L 2216 3719 
L 1153 3719 
L 1153 2484 
L 2216 2484 
z
M 2216 738 
L 2216 2016 
L 1153 2016 
L 1153 738 
L 2216 738 
z
M 4775 1369 
L 4313 1166 
Q 4034 1925 3444 2669 
L 3841 2931 
Q 4484 2191 4775 1369 
z
" transform="scale(0.015625)"/>
      <path id="ArialUnicodeMS-6709" d="M 5991 4031 
L 2547 4031 
Q 2403 3600 2316 3438 
L 5216 3438 
L 5216 166 
Q 5178 -269 4550 -269 
L 4031 -269 
L 3809 225 
Q 4103 184 4447 184 
Q 4728 184 4728 300 
L 4728 934 
L 2322 934 
L 2322 -416 
L 1813 -416 
L 1813 2656 
Q 1644 2369 738 1434 
L 288 1728 
Q 1619 2903 2022 4031 
L 678 4031 
L 678 4500 
L 2203 4500 
Q 2288 4700 2450 5403 
L 2944 5294 
Q 2884 5041 2731 4500 
L 5991 4500 
L 5991 4031 
z
M 4728 2450 
L 4728 2969 
L 2322 2969 
L 2322 2450 
L 4728 2450 
z
M 4728 1403 
L 4728 1984 
L 2322 1984 
L 2322 1403 
L 4728 1403 
z
" transform="scale(0.015625)"/>
      <path id="ArialUnicodeMS-6548" d="M 6119 -38 
L 5747 -409 
Q 5044 116 4609 756 
Q 4109 116 3384 -403 
L 3009 -63 
Q 3956 584 4341 1197 
Q 4041 1756 3866 2534 
Q 3672 2144 3450 1850 
L 3022 2081 
Q 3528 2766 3722 3500 
Q 3916 4234 3916 5338 
L 4366 5259 
Q 4384 4781 4306 4072 
L 5953 4072 
L 5953 3603 
L 5569 3603 
Q 5491 2219 4884 1184 
Q 5456 391 6119 -38 
z
M 5063 3603 
L 4231 3603 
L 4166 3322 
Q 4375 2238 4628 1716 
Q 5025 2469 5063 3603 
z
M 3359 3878 
L 569 3878 
L 569 4347 
L 1753 4347 
L 1753 5184 
L 2253 5184 
L 2253 4347 
L 3359 4347 
L 3359 3878 
z
M 1656 3641 
Q 1409 2850 775 2419 
L 384 2719 
Q 953 3006 1234 3803 
L 1656 3641 
z
M 3366 2803 
L 2969 2553 
Q 2688 3184 2150 3547 
L 2559 3794 
Q 3134 3359 3366 2803 
z
M 3278 628 
L 2888 281 
Q 2581 716 2234 1063 
Q 1747 269 769 -306 
L 469 103 
Q 1353 613 1869 1416 
Q 1272 2016 984 2163 
L 1344 2456 
Q 1422 2409 2113 1838 
Q 2219 2069 2375 2650 
L 2797 2456 
Q 2691 1897 2491 1503 
Q 2981 1028 3278 628 
z
" transform="scale(0.015625)"/>
      <path id="ArialUnicodeMS-524d" d="M 5913 3975 
L 488 3975 
L 488 4434 
L 2047 4434 
Q 1791 4891 1394 5131 
L 1869 5403 
Q 2231 5181 2663 4434 
L 3669 4434 
Q 4044 4813 4281 5441 
L 4744 5191 
Q 4538 4744 4269 4434 
L 5913 4434 
L 5913 3975 
z
M 5369 128 
Q 5369 -369 4709 -378 
L 4231 -384 
L 4078 91 
Q 4647 91 4755 127 
Q 4863 163 4863 281 
L 4863 3700 
L 5369 3700 
L 5369 128 
z
M 3206 244 
Q 3206 -19 3014 -153 
Q 2822 -288 2528 -281 
L 2100 -275 
L 1941 191 
L 2591 172 
Q 2719 194 2719 294 
L 2719 1038 
L 1544 1038 
L 1544 -231 
L 1056 -231 
L 1056 3469 
L 3206 3469 
L 3206 244 
z
M 2719 2491 
L 2719 3009 
L 1544 3009 
L 1544 2491 
L 2719 2491 
z
M 2719 1497 
L 2719 2059 
L 1544 2059 
L 1544 1497 
L 2719 1497 
z
M 4281 763 
L 3794 763 
L 3794 3278 
L 4281 3278 
L 4281 763 
z
" transform="scale(0.015625)"/>
      <path id="ArialUnicodeMS-6cbf" d="M 2222 4359 
L 1875 3975 
Q 1500 4534 738 4838 
L 1019 5209 
Q 1859 4875 2222 4359 
z
M 3425 5056 
Q 3194 3188 2022 2344 
L 1678 2719 
Q 2763 3516 2913 5178 
L 3425 5056 
z
M 5991 2741 
L 5625 2350 
Q 4475 3175 4238 5069 
L 4728 5172 
Q 4872 3556 5991 2741 
z
M 1784 3047 
L 1453 2694 
Q 1044 3200 275 3488 
L 556 3866 
Q 1322 3616 1784 3047 
z
M 5172 -306 
L 4684 -306 
L 4684 141 
L 2938 141 
L 2938 -306 
L 2450 -306 
L 2450 2463 
L 5172 2463 
L 5172 -306 
z
M 4684 609 
L 4684 1997 
L 2938 1997 
L 2938 609 
L 4684 609 
z
M 1863 2069 
Q 1575 691 775 -256 
L 341 31 
Q 1200 997 1428 2266 
L 1863 2069 
z
" transform="scale(0.015625)"/>
      <path id="ArialUnicodeMS-6539" d="M 6053 56 
L 5722 -359 
Q 5019 44 4453 763 
Q 3838 34 2994 -416 
L 2650 -6 
Q 3656 503 4166 1184 
Q 3784 1816 3634 2472 
L 3622 2472 
Q 3416 2038 3225 1753 
L 2822 2053 
Q 3656 3181 3675 5281 
L 4159 5184 
Q 4169 4850 4084 4141 
L 5972 4141 
L 5972 3675 
L 5459 3675 
Q 5303 2100 4750 1178 
Q 5134 597 6053 56 
z
M 4978 3675 
L 4013 3675 
L 3922 3231 
Q 4094 2284 4459 1644 
Q 4838 2400 4978 3675 
z
M 3109 1141 
Q 3019 147 2419 147 
L 1294 147 
Q 1066 147 927 294 
Q 788 441 788 678 
L 788 1094 
L 781 1094 
L 781 3059 
L 2425 3059 
L 2425 4434 
L 659 4434 
L 659 4903 
L 2919 4903 
L 2919 2316 
L 2425 2316 
L 2425 2591 
L 1269 2591 
L 1269 769 
Q 1269 616 1453 616 
L 2291 616 
Q 2466 616 2537 794 
Q 2609 972 2638 1388 
L 3109 1141 
z
" transform="scale(0.015625)"/>
      <path id="ArialUnicodeMS-5584" d="M 5806 1650 
L 359 1650 
L 359 2119 
L 1856 2119 
Q 1725 2300 1447 2450 
L 1697 2613 
L 481 2613 
L 481 3078 
L 2853 3078 
L 2853 3456 
L 1006 3456 
L 1006 3897 
L 2853 3897 
L 2853 4231 
L 672 4231 
L 672 4697 
L 2156 4697 
Q 2050 4822 1588 5088 
L 2028 5344 
Q 2509 5059 2731 4697 
L 3475 4697 
Q 3803 4959 3994 5344 
L 4459 5125 
Q 4222 4788 4031 4697 
L 5516 4697 
L 5516 4231 
L 3341 4231 
L 3341 3897 
L 5141 3897 
L 5141 3456 
L 3341 3456 
L 3341 3078 
L 5703 3078 
L 5703 2613 
L 4372 2613 
L 4659 2484 
Q 4506 2244 4372 2119 
L 5806 2119 
L 5806 1650 
z
M 4128 2613 
L 3341 2613 
L 3341 2119 
L 3803 2119 
Q 4025 2313 4128 2613 
z
M 2853 2119 
L 2853 2613 
L 1959 2613 
Q 2175 2475 2394 2119 
L 2853 2119 
z
M 5013 -422 
L 4525 -422 
L 4525 -50 
L 1672 -50 
L 1672 -447 
L 1184 -447 
L 1184 1388 
L 5013 1388 
L 5013 -422 
z
M 4525 416 
L 4525 922 
L 1672 922 
L 1672 416 
L 4525 416 
z
" transform="scale(0.015625)"/>
     </defs>
     <use xlink:href="#ArialUnicodeMS-4f4e"/>
     <use xlink:href="#ArialUnicodeMS-76f8" x="100"/>
     <use xlink:href="#ArialUnicodeMS-5173" x="200"/>
     <use xlink:href="#ArialUnicodeMS-6027" x="300"/>
     <use xlink:href="#ArialUnicodeMS-5e26" x="400"/>
     <use xlink:href="#ArialUnicodeMS-6765" x="500"/>
     <use xlink:href="#ArialUnicodeMS-7684" x="600"/>
     <use xlink:href="#ArialUnicodeMS-6709" x="700"/>
     <use xlink:href="#ArialUnicodeMS-6548" x="800"/>
     <use xlink:href="#ArialUnicodeMS-524d" x="900"/>
     <use xlink:href="#ArialUnicodeMS-6cbf" x="1000"/>
     <use xlink:href="#ArialUnicodeMS-6539" x="1100"/>
     <use xlink:href="#ArialUnicodeMS-5584" x="1200"/>
    </g>
   </g>
   <g id="legend_1">
    <g id="line2d_33">
     <path d="M 398.125469 276.764531 
L 409.125469 276.764531 
L 420.125469 276.764531 
" style="fill: none; stroke-dasharray: 9.25,4; stroke-dashoffset: 0; stroke: #94a3b8; stroke-width: 2.5"/>
    </g>
    <g id="text_19">
     <!-- 高相关性资产组合 (ρ=0.8) -->
     <g transform="translate(428.925469 280.614531) scale(0.11 -0.11)">
      <defs>
       <path id="ArialUnicodeMS-9ad8" d="M 5863 4313 
L 653 4313 
L 653 4781 
L 2956 4781 
L 2956 5300 
L 3444 5300 
L 3444 4781 
L 5863 4781 
L 5863 4313 
z
M 4775 2747 
L 1625 2747 
L 1625 4038 
L 4775 4038 
L 4775 2747 
z
M 4288 3572 
L 2113 3572 
L 2113 3213 
L 4281 3213 
L 4288 3572 
z
M 5563 213 
Q 5563 -359 4903 -359 
L 4403 -359 
L 4263 134 
L 4750 109 
Q 5075 88 5075 359 
L 5075 2022 
L 1331 2022 
L 1331 -428 
L 838 -428 
L 838 2491 
L 5563 2491 
L 5563 213 
z
M 4453 378 
L 1919 378 
L 1919 1722 
L 4453 1722 
L 4453 378 
z
M 3969 1253 
L 2406 1253 
L 2406 844 
L 3963 844 
L 3969 1253 
z
" transform="scale(0.015625)"/>
       <path id="ArialUnicodeMS-8d44" d="M 5522 4863 
Q 5541 4597 5477 4328 
Q 5413 4059 5131 3622 
L 4697 3859 
Q 4913 4106 5013 4397 
L 3144 4397 
Q 2878 3913 2203 3444 
L 1875 3822 
Q 2672 4297 3003 5306 
L 3431 5153 
Q 3403 5059 3322 4863 
L 5522 4863 
z
M 1766 4550 
L 1409 4172 
Q 1103 4628 594 4941 
L 891 5234 
Q 1459 4978 1766 4550 
z
M 6009 2778 
L 5678 2369 
Q 4472 2688 3788 3481 
Q 3591 3172 3142 2912 
Q 2694 2653 2222 2578 
L 2222 2572 
L 4813 2572 
L 4813 575 
L 4325 575 
L 4325 2106 
L 2119 2106 
L 2119 575 
L 1631 575 
L 1631 2572 
L 1913 2572 
L 1716 2847 
Q 2591 3081 3020 3382 
Q 3450 3684 3641 4250 
L 4091 4147 
L 4006 3897 
Q 4269 3525 4686 3267 
Q 5103 3009 6009 2778 
z
M 1806 3688 
Q 1628 3134 831 2369 
L 453 2713 
Q 1106 3253 1453 3922 
L 1806 3688 
z
M 3450 1906 
Q 3453 572 2761 120 
Q 2069 -331 819 -384 
L 594 84 
Q 1419 134 1742 186 
Q 2066 238 2409 461 
Q 2753 684 2848 979 
Q 2944 1275 2988 1906 
L 3450 1906 
z
M 5503 0 
L 5259 -447 
Q 4506 47 3272 306 
L 3494 722 
Q 4728 478 5503 0 
z
" transform="scale(0.015625)"/>
       <path id="ArialUnicodeMS-4ea7" d="M 5691 3994 
L 481 3994 
L 481 4434 
L 3053 4434 
Q 2816 4841 2431 5125 
L 2766 5394 
Q 3319 4947 3578 4550 
L 3413 4447 
L 3413 4434 
L 5691 4434 
L 5691 3994 
z
M 5691 2547 
L 1509 2547 
L 1509 1375 
Q 1509 219 519 -403 
L 159 -38 
Q 1025 456 1025 1516 
L 1025 2988 
L 2278 2988 
Q 2122 3325 1691 3681 
L 1997 3938 
Q 2450 3641 2803 3138 
L 2584 2988 
L 3413 2988 
Q 3856 3441 4056 3928 
L 4481 3700 
Q 4278 3306 4000 2988 
L 5691 2988 
L 5691 2547 
z
" transform="scale(0.015625)"/>
       <path id="ArialUnicodeMS-3c1" d="M 422 -1275 
L 422 1613 
Q 422 3391 1894 3391 
Q 2575 3391 3003 2916 
Q 3431 2441 3431 1650 
Q 3431 850 3015 386 
Q 2600 -78 1972 -78 
Q 1356 -78 984 313 
L 984 -1275 
L 422 -1275 
z
M 1894 384 
Q 2319 384 2586 704 
Q 2853 1025 2853 1650 
Q 2853 2288 2565 2609 
Q 2278 2931 1894 2931 
Q 1450 2931 1220 2592 
Q 991 2253 991 1625 
Q 991 1025 1222 704 
Q 1453 384 1894 384 
z
" transform="scale(0.015625)"/>
       <path id="ArialUnicodeMS-3d" d="M 3384 2694 
L 353 2694 
L 353 3219 
L 3384 3219 
L 3384 2694 
z
M 3384 1300 
L 353 1300 
L 353 1825 
L 3384 1825 
L 3384 1300 
z
" transform="scale(0.015625)"/>
      </defs>
      <use xlink:href="#ArialUnicodeMS-9ad8"/>
      <use xlink:href="#ArialUnicodeMS-76f8" x="100"/>
      <use xlink:href="#ArialUnicodeMS-5173" x="200"/>
      <use xlink:href="#ArialUnicodeMS-6027" x="300"/>
      <use xlink:href="#ArialUnicodeMS-8d44" x="400"/>
      <use xlink:href="#ArialUnicodeMS-4ea7" x="500"/>
      <use xlink:href="#ArialUnicodeMS-7ec4" x="600"/>
      <use xlink:href="#ArialUnicodeMS-5408" x="700"/>
      <use xlink:href="#ArialUnicodeMS-20" x="800"/>
      <use xlink:href="#ArialUnicodeMS-28" x="827.783203"/>
      <use xlink:href="#ArialUnicodeMS-3c1" x="861.083984"/>
      <use xlink:href="#ArialUnicodeMS-3d" x="918.164062"/>
      <use xlink:href="#ArialUnicodeMS-30" x="976.5625"/>
      <use xlink:href="#ArialUnicodeMS-2e" x="1032.177734"/>
      <use xlink:href="#ArialUnicodeMS-38" x="1059.960938"/>
      <use xlink:href="#ArialUnicodeMS-29" x="1115.576172"/>
     </g>
    </g>
    <g id="line2d_34">
     <path d="M 398.125469 294.0225 
L 409.125469 294.0225 
L 420.125469 294.0225 
" style="fill: none; stroke: #3b82f6; stroke-width: 2.5; stroke-linecap: square"/>
    </g>
    <g id="text_20">
     <!-- 含艺术品组合 (ρ=0.2) -->
     <g transform="translate(428.925469 297.8725) scale(0.11 -0.11)">
      <defs>
       <path id="ArialUnicodeMS-542b" d="M 6181 3481 
L 5894 3016 
Q 5197 3216 4428 3700 
L 4428 3456 
L 1900 3456 
L 1900 3706 
Q 1278 3309 506 2988 
L 238 3456 
Q 941 3656 1781 4232 
Q 2622 4809 3116 5491 
L 3584 5259 
L 3488 5119 
Q 4572 3931 6181 3481 
z
M 4091 3928 
Q 3516 4338 3181 4763 
Q 2775 4319 2222 3928 
L 4091 3928 
z
M 5141 2638 
Q 4156 1803 2016 1600 
L 1797 2059 
Q 3313 2181 4256 2591 
L 1184 2591 
L 1184 3059 
L 5141 3059 
L 5141 2638 
z
M 5081 -416 
L 4575 -416 
L 4575 -38 
L 1806 -38 
L 1806 -416 
L 1300 -416 
L 1300 1588 
L 5081 1588 
L 5081 -416 
z
M 4575 428 
L 4575 1119 
L 1806 1119 
L 1806 428 
L 4575 428 
z
" transform="scale(0.015625)"/>
       <path id="ArialUnicodeMS-827a" d="M 5881 4172 
L 4256 4172 
L 4256 3494 
L 3775 3494 
L 3775 4172 
L 2497 4172 
L 2497 3494 
L 2016 3494 
L 2016 4172 
L 441 4172 
L 441 4616 
L 2016 4616 
L 2016 5247 
L 2497 5247 
L 2497 4616 
L 3775 4616 
L 3775 5247 
L 4256 5247 
L 4256 4616 
L 5881 4616 
L 5881 4172 
z
M 5663 916 
Q 5522 -184 5006 -184 
L 1709 -184 
Q 1484 -184 1356 -32 
Q 1228 119 1228 338 
Q 1228 650 1828 1256 
Q 2428 1863 3681 2706 
L 3681 2713 
L 1325 2713 
L 1325 3181 
L 4494 3181 
L 4494 2725 
Q 3250 1931 2486 1186 
Q 1722 441 1722 338 
Q 1722 281 1772 281 
L 4825 281 
Q 5103 281 5172 1106 
L 5663 916 
z
" transform="scale(0.015625)"/>
       <path id="ArialUnicodeMS-672f" d="M 6059 494 
L 5716 103 
Q 5100 413 4472 1198 
Q 3844 1984 3513 3291 
L 3372 3291 
L 3372 -441 
L 2888 -441 
L 2888 3291 
L 2747 3291 
Q 2241 1028 563 109 
L 219 481 
Q 1775 1356 2278 3291 
L 391 3291 
L 391 3756 
L 2888 3756 
L 2888 5216 
L 3372 5216 
L 3372 3756 
L 5850 3756 
L 5850 3291 
L 3975 3291 
Q 4609 1278 6059 494 
z
M 5125 4159 
L 4750 3859 
Q 4403 4409 3744 4738 
L 4056 5050 
Q 4722 4747 5125 4159 
z
" transform="scale(0.015625)"/>
       <path id="ArialUnicodeMS-54c1" d="M 4997 2963 
L 1363 2963 
L 1363 5069 
L 4997 5069 
L 4997 2963 
z
M 4575 3378 
L 4575 4653 
L 1806 4653 
L 1806 3378 
L 4575 3378 
z
M 5656 -372 
L 5172 -372 
L 5172 72 
L 3956 72 
L 3956 -372 
L 3469 -372 
L 3469 2491 
L 5656 2491 
L 5656 -372 
z
M 5172 538 
L 5172 2022 
L 3956 2022 
L 3956 538 
L 5172 538 
z
M 2894 -397 
L 2406 -397 
L 2406 38 
L 1228 38 
L 1228 -422 
L 744 -409 
L 744 2472 
L 2894 2472 
L 2894 -397 
z
M 2406 506 
L 2406 2003 
L 1228 2003 
L 1228 506 
L 2406 506 
z
" transform="scale(0.015625)"/>
      </defs>
      <use xlink:href="#ArialUnicodeMS-542b"/>
      <use xlink:href="#ArialUnicodeMS-827a" x="100"/>
      <use xlink:href="#ArialUnicodeMS-672f" x="200"/>
      <use xlink:href="#ArialUnicodeMS-54c1" x="300"/>
      <use xlink:href="#ArialUnicodeMS-7ec4" x="400"/>
      <use xlink:href="#ArialUnicodeMS-5408" x="500"/>
      <use xlink:href="#ArialUnicodeMS-20" x="600"/>
      <use xlink:href="#ArialUnicodeMS-28" x="627.783203"/>
      <use xlink:href="#ArialUnicodeMS-3c1" x="661.083984"/>
      <use xlink:href="#ArialUnicodeMS-3d" x="718.164062"/>
      <use xlink:href="#ArialUnicodeMS-30" x="776.5625"/>
      <use xlink:href="#ArialUnicodeMS-2e" x="832.177734"/>
      <use xlink:href="#ArialUnicodeMS-32" x="859.960938"/>
      <use xlink:href="#ArialUnicodeMS-29" x="915.576172"/>
     </g>
    </g>
   </g>
  </g>
 </g>
 <defs>
  <clipPath id="pc741b1ebcd">
   <rect x="59.800625" y="36.88125" width="505.399375" height="273.20125"/>
  </clipPath>
 </defs>
</svg>
