<?xml version="1.0" encoding="utf-8" standalone="no"?>
<!DOCTYPE svg PUBLIC "-//W3C//DTD SVG 1.1//EN"
  "http://www.w3.org/Graphics/SVG/1.1/DTD/svg11.dtd">
<svg xmlns:xlink="http://www.w3.org/1999/xlink" width="432pt" height="288pt" viewBox="0 0 432 288" xmlns="http://www.w3.org/2000/svg" version="1.1">
 <metadata>
  <rdf:RDF xmlns:dc="http://purl.org/dc/elements/1.1/" xmlns:cc="http://creativecommons.org/ns#" xmlns:rdf="http://www.w3.org/1999/02/22-rdf-syntax-ns#">
   <cc:Work>
    <dc:type rdf:resource="http://purl.org/dc/dcmitype/StillImage"/>
    <dc:date>2026-05-11T09:52:22.074272</dc:date>
    <dc:format>image/svg+xml</dc:format>
    <dc:creator>
     <cc:Agent>
      <dc:title>Matplotlib v3.9.4, https://matplotlib.org/</dc:title>
     </cc:Agent>
    </dc:creator>
   </cc:Work>
  </rdf:RDF>
 </metadata>
 <defs>
  <style type="text/css">*{stroke-linejoin: round; stroke-linecap: butt}</style>
 </defs>
 <g id="figure_1">
  <g id="patch_1">
   <path d="M 0 288 
L 432 288 
L 432 0 
L 0 0 
z
" style="fill: #ffffff"/>
  </g>
  <g id="axes_1">
   <g id="patch_2">
    <path d="M 56.738 241.072 
L 421.2 241.072 
L 421.2 10.8 
L 56.738 10.8 
z
" style="fill: #ffffff"/>
   </g>
   <g id="matplotlib.axis_1">
    <g id="xtick_1">
     <g id="line2d_1">
      <path d="M 73.304455 241.072 
L 73.304455 10.8 
" clip-path="url(#pcb6d3f9a1c)" style="fill: none; stroke-dasharray: 2.96,1.28; stroke-dashoffset: 0; stroke: #b0b0b0; stroke-opacity: 0.3; stroke-width: 0.8"/>
     </g>
     <g id="line2d_2">
      <defs>
       <path id="m073bc90cf8" d="M 0 0 
L 0 3.5 
" style="stroke: #000000; stroke-width: 0.8"/>
      </defs>
      <g>
       <use xlink:href="#m073bc90cf8" x="73.304455" y="241.072" style="stroke: #000000; stroke-width: 0.8"/>
      </g>
     </g>
     <g id="text_1">
      <!-- 0.10 -->
      <g transform="translate(63.573986 255.229813) scale(0.1 -0.1)">
       <defs>
        <path id="ArialUnicodeMS-30" d="M 1778 4603 
Q 3272 4603 3272 2259 
Q 3272 1075 2886 498 
Q 2500 -78 1778 -78 
Q 288 -78 288 2259 
Q 288 3444 673 4023 
Q 1059 4603 1778 4603 
z
M 1778 384 
Q 2231 384 2462 823 
Q 2694 1263 2694 2259 
Q 2694 2953 2592 3351 
Q 2491 3750 2286 3945 
Q 2081 4141 1772 4141 
Q 1319 4141 1091 3694 
Q 863 3247 863 2259 
Q 863 1575 966 1175 
Q 1069 775 1272 579 
Q 1475 384 1778 384 
z
" transform="scale(0.015625)"/>
        <path id="ArialUnicodeMS-2e" d="M 1209 0 
L 569 0 
L 569 641 
L 1209 641 
L 1209 0 
z
" transform="scale(0.015625)"/>
        <path id="ArialUnicodeMS-31" d="M 2400 0 
L 1838 0 
L 1838 3584 
Q 1416 3184 709 2906 
L 709 3450 
Q 1681 3916 2034 4603 
L 2400 4603 
L 2400 0 
z
" transform="scale(0.015625)"/>
       </defs>
       <use xlink:href="#ArialUnicodeMS-30"/>
       <use xlink:href="#ArialUnicodeMS-2e" x="55.615234"/>
       <use xlink:href="#ArialUnicodeMS-31" x="83.398438"/>
       <use xlink:href="#ArialUnicodeMS-30" x="139.013672"/>
      </g>
     </g>
    </g>
    <g id="xtick_2">
     <g id="line2d_3">
      <path d="M 128.52597 241.072 
L 128.52597 10.8 
" clip-path="url(#pcb6d3f9a1c)" style="fill: none; stroke-dasharray: 2.96,1.28; stroke-dashoffset: 0; stroke: #b0b0b0; stroke-opacity: 0.3; stroke-width: 0.8"/>
     </g>
     <g id="line2d_4">
      <g>
       <use xlink:href="#m073bc90cf8" x="128.52597" y="241.072" style="stroke: #000000; stroke-width: 0.8"/>
      </g>
     </g>
     <g id="text_2">
      <!-- 0.15 -->
      <g transform="translate(118.795501 255.229813) scale(0.1 -0.1)">
       <defs>
        <path id="ArialUnicodeMS-35" d="M 1013 2753 
Q 1431 3041 1881 3041 
Q 2453 3041 2878 2636 
Q 3303 2231 3303 1556 
Q 3303 875 2872 398 
Q 2441 -78 1741 -78 
Q 1169 -78 750 245 
Q 331 569 269 1203 
L 856 1247 
Q 928 813 1162 598 
Q 1397 384 1741 384 
Q 2169 384 2434 707 
Q 2700 1031 2700 1503 
Q 2700 1984 2428 2262 
Q 2156 2541 1728 2541 
Q 1188 2541 897 2100 
L 366 2163 
L 813 4519 
L 3084 4519 
L 3084 3975 
L 1259 3975 
L 1013 2753 
z
" transform="scale(0.015625)"/>
       </defs>
       <use xlink:href="#ArialUnicodeMS-30"/>
       <use xlink:href="#ArialUnicodeMS-2e" x="55.615234"/>
       <use xlink:href="#ArialUnicodeMS-31" x="83.398438"/>
       <use xlink:href="#ArialUnicodeMS-35" x="139.013672"/>
      </g>
     </g>
    </g>
    <g id="xtick_3">
     <g id="line2d_5">
      <path d="M 183.747485 241.072 
L 183.747485 10.8 
" clip-path="url(#pcb6d3f9a1c)" style="fill: none; stroke-dasharray: 2.96,1.28; stroke-dashoffset: 0; stroke: #b0b0b0; stroke-opacity: 0.3; stroke-width: 0.8"/>
     </g>
     <g id="line2d_6">
      <g>
       <use xlink:href="#m073bc90cf8" x="183.747485" y="241.072" style="stroke: #000000; stroke-width: 0.8"/>
      </g>
     </g>
     <g id="text_3">
      <!-- 0.20 -->
      <g transform="translate(174.017016 255.229813) scale(0.1 -0.1)">
       <defs>
        <path id="ArialUnicodeMS-32" d="M 3231 0 
L 197 0 
Q 197 388 467 784 
Q 738 1181 1478 1778 
Q 1931 2141 2287 2539 
Q 2644 2938 2644 3341 
Q 2644 3688 2398 3914 
Q 2153 4141 1778 4141 
Q 1400 4141 1144 3908 
Q 888 3675 884 3213 
L 306 3278 
Q 359 3922 764 4262 
Q 1169 4603 1791 4603 
Q 2466 4603 2842 4229 
Q 3219 3856 3219 3328 
Q 3219 2888 2901 2436 
Q 2584 1984 1638 1228 
Q 1141 831 978 544 
L 3231 544 
L 3231 0 
z
" transform="scale(0.015625)"/>
       </defs>
       <use xlink:href="#ArialUnicodeMS-30"/>
       <use xlink:href="#ArialUnicodeMS-2e" x="55.615234"/>
       <use xlink:href="#ArialUnicodeMS-32" x="83.398438"/>
       <use xlink:href="#ArialUnicodeMS-30" x="139.013672"/>
      </g>
     </g>
    </g>
    <g id="xtick_4">
     <g id="line2d_7">
      <path d="M 238.969 241.072 
L 238.969 10.8 
" clip-path="url(#pcb6d3f9a1c)" style="fill: none; stroke-dasharray: 2.96,1.28; stroke-dashoffset: 0; stroke: #b0b0b0; stroke-opacity: 0.3; stroke-width: 0.8"/>
     </g>
     <g id="line2d_8">
      <g>
       <use xlink:href="#m073bc90cf8" x="238.969" y="241.072" style="stroke: #000000; stroke-width: 0.8"/>
      </g>
     </g>
     <g id="text_4">
      <!-- 0.25 -->
      <g transform="translate(229.238531 255.229813) scale(0.1 -0.1)">
       <use xlink:href="#ArialUnicodeMS-30"/>
       <use xlink:href="#ArialUnicodeMS-2e" x="55.615234"/>
       <use xlink:href="#ArialUnicodeMS-32" x="83.398438"/>
       <use xlink:href="#ArialUnicodeMS-35" x="139.013672"/>
      </g>
     </g>
    </g>
    <g id="xtick_5">
     <g id="line2d_9">
      <path d="M 294.190515 241.072 
L 294.190515 10.8 
" clip-path="url(#pcb6d3f9a1c)" style="fill: none; stroke-dasharray: 2.96,1.28; stroke-dashoffset: 0; stroke: #b0b0b0; stroke-opacity: 0.3; stroke-width: 0.8"/>
     </g>
     <g id="line2d_10">
      <g>
       <use xlink:href="#m073bc90cf8" x="294.190515" y="241.072" style="stroke: #000000; stroke-width: 0.8"/>
      </g>
     </g>
     <g id="text_5">
      <!-- 0.30 -->
      <g transform="translate(284.460046 255.229813) scale(0.1 -0.1)">
       <defs>
        <path id="ArialUnicodeMS-33" d="M 2425 2478 
Q 2850 2397 3067 2067 
Q 3284 1738 3284 1350 
Q 3284 725 2829 323 
Q 2375 -78 1741 -78 
Q 1134 -78 740 275 
Q 347 628 281 1209 
L 844 1288 
Q 928 834 1151 609 
Q 1375 384 1741 384 
Q 2134 384 2407 661 
Q 2681 938 2681 1338 
Q 2681 1722 2432 1975 
Q 2184 2228 1784 2228 
Q 1622 2228 1388 2169 
L 1453 2663 
Q 1678 2663 1809 2684 
Q 1941 2706 2103 2790 
Q 2266 2875 2372 3033 
Q 2478 3191 2478 3425 
Q 2478 3766 2251 3953 
Q 2025 4141 1728 4141 
Q 1388 4141 1173 3925 
Q 959 3709 903 3309 
L 341 3413 
Q 450 4009 823 4306 
Q 1197 4603 1716 4603 
Q 2288 4603 2670 4258 
Q 3053 3913 3053 3413 
Q 3053 2772 2425 2491 
L 2425 2478 
z
" transform="scale(0.015625)"/>
       </defs>
       <use xlink:href="#ArialUnicodeMS-30"/>
       <use xlink:href="#ArialUnicodeMS-2e" x="55.615234"/>
       <use xlink:href="#ArialUnicodeMS-33" x="83.398438"/>
       <use xlink:href="#ArialUnicodeMS-30" x="139.013672"/>
      </g>
     </g>
    </g>
    <g id="xtick_6">
     <g id="line2d_11">
      <path d="M 349.41203 241.072 
L 349.41203 10.8 
" clip-path="url(#pcb6d3f9a1c)" style="fill: none; stroke-dasharray: 2.96,1.28; stroke-dashoffset: 0; stroke: #b0b0b0; stroke-opacity: 0.3; stroke-width: 0.8"/>
     </g>
     <g id="line2d_12">
      <g>
       <use xlink:href="#m073bc90cf8" x="349.41203" y="241.072" style="stroke: #000000; stroke-width: 0.8"/>
      </g>
     </g>
     <g id="text_6">
      <!-- 0.35 -->
      <g transform="translate(339.681562 255.229813) scale(0.1 -0.1)">
       <use xlink:href="#ArialUnicodeMS-30"/>
       <use xlink:href="#ArialUnicodeMS-2e" x="55.615234"/>
       <use xlink:href="#ArialUnicodeMS-33" x="83.398438"/>
       <use xlink:href="#ArialUnicodeMS-35" x="139.013672"/>
      </g>
     </g>
    </g>
    <g id="xtick_7">
     <g id="line2d_13">
      <path d="M 404.633545 241.072 
L 404.633545 10.8 
" clip-path="url(#pcb6d3f9a1c)" style="fill: none; stroke-dasharray: 2.96,1.28; stroke-dashoffset: 0; stroke: #b0b0b0; stroke-opacity: 0.3; stroke-width: 0.8"/>
     </g>
     <g id="line2d_14">
      <g>
       <use xlink:href="#m073bc90cf8" x="404.633545" y="241.072" style="stroke: #000000; stroke-width: 0.8"/>
      </g>
     </g>
     <g id="text_7">
      <!-- 0.40 -->
      <g transform="translate(394.903077 255.229813) scale(0.1 -0.1)">
       <defs>
        <path id="ArialUnicodeMS-34" d="M 3263 1094 
L 2644 1094 
L 2644 0 
L 2081 0 
L 2081 1094 
L 97 1094 
L 97 1613 
L 2181 4581 
L 2644 4581 
L 2644 1613 
L 3263 1613 
L 3263 1094 
z
M 2081 1613 
L 2081 3681 
L 2069 3681 
L 647 1613 
L 2081 1613 
z
" transform="scale(0.015625)"/>
       </defs>
       <use xlink:href="#ArialUnicodeMS-30"/>
       <use xlink:href="#ArialUnicodeMS-2e" x="55.615234"/>
       <use xlink:href="#ArialUnicodeMS-34" x="83.398438"/>
       <use xlink:href="#ArialUnicodeMS-30" x="139.013672"/>
      </g>
     </g>
    </g>
    <g id="text_8">
     <!-- 组合风险 ($\sigma_p$) -->
     <g transform="translate(202.669 271.542) scale(0.12 -0.12)">
      <defs>
       <path id="ArialUnicodeMS-7ec4" d="M 2509 1619 
Q 853 1231 622 1147 
L 391 1575 
Q 1022 2209 1306 2625 
L 1294 2638 
Q 1284 2631 1023 2561 
Q 763 2491 609 2438 
L 366 2881 
Q 853 3669 1441 5166 
L 1875 4966 
Q 1300 3650 947 3022 
L 1619 3163 
Q 1797 3416 2047 3922 
L 2503 3719 
Q 1863 2416 1153 1772 
L 1166 1759 
L 2509 2053 
L 2509 1619 
z
M 5919 -91 
L 2150 -91 
L 2150 378 
L 2881 378 
L 2881 4941 
L 5184 4941 
L 5184 378 
L 5919 378 
L 5919 -91 
z
M 4697 3469 
L 4697 4475 
L 3366 4475 
L 3366 3469 
L 4697 3469 
z
M 4697 1972 
L 4697 3028 
L 3366 3028 
L 3366 1972 
L 4697 1972 
z
M 4697 378 
L 4697 1528 
L 3366 1528 
L 3366 378 
L 4697 378 
z
M 2650 691 
L 647 19 
L 409 459 
Q 2306 1044 2650 1172 
L 2650 691 
z
" transform="scale(0.015625)"/>
       <path id="ArialUnicodeMS-5408" d="M 6119 2925 
L 5797 2497 
Q 5525 2603 5015 2934 
Q 4506 3266 4200 3555 
Q 3894 3844 3200 4659 
Q 2319 3578 603 2419 
L 256 2803 
Q 2228 4103 3175 5497 
L 3647 5178 
L 3450 4978 
Q 3994 4306 4803 3698 
Q 5613 3091 6119 2925 
z
M 4691 2597 
L 1638 2597 
L 1638 3084 
L 4691 3084 
L 4691 2597 
z
M 5063 -434 
L 4556 -434 
L 4556 -38 
L 1838 -38 
L 1838 -469 
L 1331 -469 
L 1331 1906 
L 5063 1906 
L 5063 -434 
z
M 4556 447 
L 4556 1441 
L 1838 1441 
L 1838 447 
L 4556 447 
z
" transform="scale(0.015625)"/>
       <path id="ArialUnicodeMS-98ce" d="M 6028 481 
L 5947 116 
Q 5788 -359 5534 -359 
Q 5416 -359 5278 -273 
Q 5141 -188 4917 176 
Q 4694 541 4576 1092 
Q 4459 1644 4428 2134 
Q 4397 2625 4394 3269 
L 4384 4588 
L 1575 4588 
L 1575 2356 
Q 1575 1563 1311 800 
Q 1047 38 575 -403 
L 166 -63 
Q 1088 834 1088 2478 
L 1088 5056 
L 4872 5056 
L 4872 2847 
Q 4872 1138 5497 206 
L 5588 738 
L 6028 481 
z
M 4378 603 
L 3944 353 
Q 3653 1191 3150 1894 
Q 2497 978 1838 347 
L 1447 697 
Q 2000 1109 2875 2278 
Q 2481 2828 1684 3591 
L 2009 3884 
Q 2681 3294 3138 2719 
Q 3481 3228 3822 4044 
L 4225 3816 
Q 3822 2838 3438 2316 
Q 4153 1334 4378 603 
z
" transform="scale(0.015625)"/>
       <path id="ArialUnicodeMS-9669" d="M 6041 3109 
L 5753 2688 
L 5375 2913 
L 5375 2613 
L 2809 2613 
L 2809 2906 
Q 2800 2900 2703 2834 
Q 2606 2769 2484 2719 
Q 2353 2866 2131 3169 
Q 2706 3375 3234 4004 
Q 3763 4634 3944 5294 
L 4422 5088 
L 4294 4763 
Q 4916 3678 6041 3109 
z
M 5166 3078 
Q 4406 3603 4056 4294 
Q 3659 3519 3041 3091 
L 3041 3078 
L 5166 3078 
z
M 2584 4575 
Q 2584 4516 1881 3256 
Q 2559 2400 2559 1734 
Q 2559 1403 2301 1133 
Q 2044 863 1666 863 
Q 1559 863 1416 884 
L 1253 1416 
Q 1522 1369 1659 1369 
Q 1909 1369 1995 1509 
Q 2081 1650 2081 1759 
Q 2081 2300 1300 3244 
Q 1725 3975 2016 4550 
L 1125 4550 
L 1125 -428 
L 641 -428 
L 641 5019 
L 2584 5019 
L 2584 4575 
z
M 4506 1088 
L 4056 863 
Q 3956 1488 3322 2297 
L 3769 2497 
Q 4356 1744 4506 1088 
z
M 5863 -172 
L 2216 -172 
L 2216 294 
L 4391 294 
Q 4878 1100 5125 2444 
L 5588 2259 
Q 5384 1181 4878 294 
L 5863 294 
L 5863 -172 
z
M 3700 756 
L 3213 525 
Q 3163 1300 2606 2113 
L 3028 2309 
Q 3600 1447 3700 756 
z
" transform="scale(0.015625)"/>
       <path id="ArialUnicodeMS-20" transform="scale(0.015625)"/>
       <path id="ArialUnicodeMS-28" d="M 1900 -1344 
L 1497 -1344 
Q 978 -681 681 103 
Q 384 888 384 1656 
Q 384 2528 700 3275 
Q 1016 4022 1497 4659 
L 1900 4659 
Q 1344 3747 1155 3059 
Q 966 2372 966 1663 
Q 966 153 1900 -1344 
z
" transform="scale(0.015625)"/>
       <path id="DejaVuSans-Oblique-3c3" d="M 2219 3044 
Q 1744 3044 1422 2700 
Q 1081 2341 969 1747 
Q 844 1119 1044 756 
Q 1241 397 1706 397 
Q 2166 397 2503 759 
Q 2844 1122 2966 1747 
Q 3075 2319 2881 2700 
Q 2700 3044 2219 3044 
z
M 2309 3503 
L 4219 3500 
L 4106 2925 
L 3463 2925 
Q 3706 2438 3575 1747 
Q 3406 888 2884 400 
Q 2359 -91 1609 -91 
Q 856 -91 525 400 
Q 194 888 363 1747 
Q 528 2609 1050 3097 
Q 1484 3503 2309 3503 
z
" transform="scale(0.015625)"/>
       <path id="DejaVuSans-Oblique-70" d="M 3175 2156 
Q 3175 2616 2975 2859 
Q 2775 3103 2400 3103 
Q 2144 3103 1911 2972 
Q 1678 2841 1497 2591 
Q 1319 2344 1212 1994 
Q 1106 1644 1106 1300 
Q 1106 863 1306 627 
Q 1506 391 1875 391 
Q 2147 391 2380 519 
Q 2613 647 2778 891 
Q 2956 1147 3065 1494 
Q 3175 1841 3175 2156 
z
M 1394 2969 
Q 1625 3272 1939 3428 
Q 2253 3584 2638 3584 
Q 3175 3584 3472 3232 
Q 3769 2881 3769 2247 
Q 3769 1728 3584 1258 
Q 3400 788 3053 416 
Q 2822 169 2531 39 
Q 2241 -91 1919 -91 
Q 1547 -91 1294 64 
Q 1041 219 916 525 
L 556 -1331 
L -19 -1331 
L 922 3500 
L 1497 3500 
L 1394 2969 
z
" transform="scale(0.015625)"/>
       <path id="ArialUnicodeMS-29" d="M 634 4659 
Q 1153 3997 1450 3212 
Q 1747 2428 1747 1656 
Q 1747 788 1431 41 
Q 1116 -706 634 -1344 
L 231 -1344 
Q 788 -431 977 255 
Q 1166 941 1166 1650 
Q 1166 3163 231 4659 
L 634 4659 
z
" transform="scale(0.015625)"/>
      </defs>
      <use xlink:href="#ArialUnicodeMS-7ec4" transform="translate(0 0.109375)"/>
      <use xlink:href="#ArialUnicodeMS-5408" transform="translate(100 0.109375)"/>
      <use xlink:href="#ArialUnicodeMS-98ce" transform="translate(200 0.109375)"/>
      <use xlink:href="#ArialUnicodeMS-9669" transform="translate(300 0.109375)"/>
      <use xlink:href="#ArialUnicodeMS-20" transform="translate(400 0.109375)"/>
      <use xlink:href="#ArialUnicodeMS-28" transform="translate(427.783203 0.109375)"/>
      <use xlink:href="#DejaVuSans-Oblique-3c3" transform="translate(461.083984 0.109375)"/>
      <use xlink:href="#DejaVuSans-Oblique-70" transform="translate(524.462891 -16.296875) scale(0.7)"/>
      <use xlink:href="#ArialUnicodeMS-29" transform="translate(571.630859 0.109375)"/>
     </g>
    </g>
   </g>
   <g id="matplotlib.axis_2">
    <g id="ytick_1">
     <g id="line2d_15">
      <path d="M 56.738 219.758901 
L 421.2 219.758901 
" clip-path="url(#pcb6d3f9a1c)" style="fill: none; stroke-dasharray: 2.96,1.28; stroke-dashoffset: 0; stroke: #b0b0b0; stroke-opacity: 0.3; stroke-width: 0.8"/>
     </g>
     <g id="line2d_16">
      <defs>
       <path id="m0fad3365a9" d="M 0 0 
L -3.5 0 
" style="stroke: #000000; stroke-width: 0.8"/>
      </defs>
      <g>
       <use xlink:href="#m0fad3365a9" x="56.738" y="219.758901" style="stroke: #000000; stroke-width: 0.8"/>
      </g>
     </g>
     <g id="text_9">
      <!-- 0.10 -->
      <g transform="translate(30.277063 223.337807) scale(0.1 -0.1)">
       <use xlink:href="#ArialUnicodeMS-30"/>
       <use xlink:href="#ArialUnicodeMS-2e" x="55.615234"/>
       <use xlink:href="#ArialUnicodeMS-31" x="83.398438"/>
       <use xlink:href="#ArialUnicodeMS-30" x="139.013672"/>
      </g>
     </g>
    </g>
    <g id="ytick_2">
     <g id="line2d_17">
      <path d="M 56.738 179.382829 
L 421.2 179.382829 
" clip-path="url(#pcb6d3f9a1c)" style="fill: none; stroke-dasharray: 2.96,1.28; stroke-dashoffset: 0; stroke: #b0b0b0; stroke-opacity: 0.3; stroke-width: 0.8"/>
     </g>
     <g id="line2d_18">
      <g>
       <use xlink:href="#m0fad3365a9" x="56.738" y="179.382829" style="stroke: #000000; stroke-width: 0.8"/>
      </g>
     </g>
     <g id="text_10">
      <!-- 0.15 -->
      <g transform="translate(30.277063 182.961735) scale(0.1 -0.1)">
       <use xlink:href="#ArialUnicodeMS-30"/>
       <use xlink:href="#ArialUnicodeMS-2e" x="55.615234"/>
       <use xlink:href="#ArialUnicodeMS-31" x="83.398438"/>
       <use xlink:href="#ArialUnicodeMS-35" x="139.013672"/>
      </g>
     </g>
    </g>
    <g id="ytick_3">
     <g id="line2d_19">
      <path d="M 56.738 139.006757 
L 421.2 139.006757 
" clip-path="url(#pcb6d3f9a1c)" style="fill: none; stroke-dasharray: 2.96,1.28; stroke-dashoffset: 0; stroke: #b0b0b0; stroke-opacity: 0.3; stroke-width: 0.8"/>
     </g>
     <g id="line2d_20">
      <g>
       <use xlink:href="#m0fad3365a9" x="56.738" y="139.006757" style="stroke: #000000; stroke-width: 0.8"/>
      </g>
     </g>
     <g id="text_11">
      <!-- 0.20 -->
      <g transform="translate(30.277063 142.585663) scale(0.1 -0.1)">
       <use xlink:href="#ArialUnicodeMS-30"/>
       <use xlink:href="#ArialUnicodeMS-2e" x="55.615234"/>
       <use xlink:href="#ArialUnicodeMS-32" x="83.398438"/>
       <use xlink:href="#ArialUnicodeMS-30" x="139.013672"/>
      </g>
     </g>
    </g>
    <g id="ytick_4">
     <g id="line2d_21">
      <path d="M 56.738 98.630685 
L 421.2 98.630685 
" clip-path="url(#pcb6d3f9a1c)" style="fill: none; stroke-dasharray: 2.96,1.28; stroke-dashoffset: 0; stroke: #b0b0b0; stroke-opacity: 0.3; stroke-width: 0.8"/>
     </g>
     <g id="line2d_22">
      <g>
       <use xlink:href="#m0fad3365a9" x="56.738" y="98.630685" style="stroke: #000000; stroke-width: 0.8"/>
      </g>
     </g>
     <g id="text_12">
      <!-- 0.25 -->
      <g transform="translate(30.277063 102.209591) scale(0.1 -0.1)">
       <use xlink:href="#ArialUnicodeMS-30"/>
       <use xlink:href="#ArialUnicodeMS-2e" x="55.615234"/>
       <use xlink:href="#ArialUnicodeMS-32" x="83.398438"/>
       <use xlink:href="#ArialUnicodeMS-35" x="139.013672"/>
      </g>
     </g>
    </g>
    <g id="ytick_5">
     <g id="line2d_23">
      <path d="M 56.738 58.254612 
L 421.2 58.254612 
" clip-path="url(#pcb6d3f9a1c)" style="fill: none; stroke-dasharray: 2.96,1.28; stroke-dashoffset: 0; stroke: #b0b0b0; stroke-opacity: 0.3; stroke-width: 0.8"/>
     </g>
     <g id="line2d_24">
      <g>
       <use xlink:href="#m0fad3365a9" x="56.738" y="58.254612" style="stroke: #000000; stroke-width: 0.8"/>
      </g>
     </g>
     <g id="text_13">
      <!-- 0.30 -->
      <g transform="translate(30.277063 61.833519) scale(0.1 -0.1)">
       <use xlink:href="#ArialUnicodeMS-30"/>
       <use xlink:href="#ArialUnicodeMS-2e" x="55.615234"/>
       <use xlink:href="#ArialUnicodeMS-33" x="83.398438"/>
       <use xlink:href="#ArialUnicodeMS-30" x="139.013672"/>
      </g>
     </g>
    </g>
    <g id="ytick_6">
     <g id="line2d_25">
      <path d="M 56.738 17.87854 
L 421.2 17.87854 
" clip-path="url(#pcb6d3f9a1c)" style="fill: none; stroke-dasharray: 2.96,1.28; stroke-dashoffset: 0; stroke: #b0b0b0; stroke-opacity: 0.3; stroke-width: 0.8"/>
     </g>
     <g id="line2d_26">
      <g>
       <use xlink:href="#m0fad3365a9" x="56.738" y="17.87854" style="stroke: #000000; stroke-width: 0.8"/>
      </g>
     </g>
     <g id="text_14">
      <!-- 0.35 -->
      <g transform="translate(30.277063 21.457447) scale(0.1 -0.1)">
       <use xlink:href="#ArialUnicodeMS-30"/>
       <use xlink:href="#ArialUnicodeMS-2e" x="55.615234"/>
       <use xlink:href="#ArialUnicodeMS-33" x="83.398438"/>
       <use xlink:href="#ArialUnicodeMS-35" x="139.013672"/>
      </g>
     </g>
    </g>
    <g id="text_15">
     <!-- 预期收益率 ($E[r_p]$) -->
     <g transform="translate(22.557063 175.376) rotate(-90) scale(0.12 -0.12)">
      <defs>
       <path id="ArialUnicodeMS-9884" d="M 5888 4519 
L 4538 4519 
Q 4450 4066 4306 3828 
L 5594 3828 
L 5594 872 
L 5106 872 
L 5106 3359 
L 3431 3359 
L 3431 825 
L 2944 825 
L 2944 3828 
L 3725 3828 
Q 3906 4113 4031 4519 
L 2700 4519 
L 2700 4984 
L 5888 4984 
L 5888 4519 
z
M 2747 2822 
Q 2747 2788 2650 2513 
Q 2553 2238 2406 1953 
Q 2288 1997 1947 2175 
Q 2159 2513 2241 2759 
L 1728 2759 
L 1728 63 
Q 1728 -141 1609 -275 
Q 1491 -409 1306 -409 
L 703 -409 
L 519 109 
L 1106 84 
Q 1156 84 1198 134 
Q 1241 184 1241 238 
L 1241 2759 
L 319 2759 
L 319 3225 
L 1619 3225 
Q 1413 3463 594 3794 
L 916 4153 
Q 1138 4094 1281 4006 
L 1747 4447 
L 391 4447 
L 391 4916 
L 2484 4916 
L 2484 4494 
Q 2016 3963 1741 3750 
Q 1981 3588 2181 3391 
L 2053 3225 
L 2747 3225 
L 2747 2822 
z
M 4494 1747 
Q 4494 1088 4069 481 
Q 3644 -125 2688 -409 
L 2369 38 
Q 4003 384 4019 1931 
L 4031 3122 
L 4494 3053 
L 4494 1747 
z
M 5991 -13 
L 5663 -416 
Q 5234 169 4325 594 
L 4609 966 
Q 5506 559 5991 -13 
z
" transform="scale(0.015625)"/>
       <path id="ArialUnicodeMS-671f" d="M 3738 1281 
L 506 1281 
L 506 1747 
L 1075 1747 
L 1075 4134 
L 531 4134 
L 531 4603 
L 1075 4603 
L 1075 5281 
L 1563 5281 
L 1563 4603 
L 2741 4603 
L 2741 5306 
L 3225 5306 
L 3225 4603 
L 3738 4603 
L 3738 4134 
L 3225 4134 
L 3225 1747 
L 3738 1747 
L 3738 1281 
z
M 2741 3688 
L 2741 4134 
L 1563 4134 
L 1563 3688 
L 2741 3688 
z
M 2741 2766 
L 2741 3219 
L 1563 3219 
L 1563 2766 
L 2741 2766 
z
M 2741 1747 
L 2741 2297 
L 1563 2297 
L 1563 1747 
L 2741 1747 
z
M 5753 366 
Q 5753 38 5672 -57 
Q 5591 -153 5489 -233 
Q 5388 -313 4697 -313 
L 4538 178 
L 5147 159 
Q 5269 159 5269 300 
L 5269 1753 
L 4331 1753 
Q 4275 494 3719 -447 
L 3284 -153 
Q 3853 716 3853 1984 
L 3853 4997 
L 5753 4997 
L 5753 366 
z
M 5269 3688 
L 5269 4531 
L 4341 4531 
L 4341 3688 
L 5269 3688 
z
M 5269 2222 
L 5269 3219 
L 4341 3219 
L 4341 2222 
L 5269 2222 
z
M 1931 934 
Q 1556 213 750 -422 
L 384 -84 
Q 1203 488 1588 1247 
L 1931 934 
z
M 3494 366 
L 3150 0 
Q 2775 566 2222 850 
L 2547 1178 
Q 3075 947 3494 366 
z
" transform="scale(0.015625)"/>
       <path id="ArialUnicodeMS-6536" d="M 6088 -13 
L 5728 -391 
Q 5000 -66 4391 716 
Q 3878 91 2938 -447 
L 2584 -116 
L 2584 -434 
L 2100 -434 
L 2100 1313 
L 647 825 
L 428 1247 
Q 509 1284 621 1318 
Q 734 1353 763 1369 
L 763 4641 
L 1247 4641 
L 1247 1528 
L 2100 1838 
L 2100 5247 
L 2584 5247 
L 2584 -56 
Q 3647 494 4147 1147 
Q 3669 1850 3463 2719 
Q 3253 2297 2975 1925 
L 2613 2272 
Q 3469 3409 3525 5313 
L 4006 5159 
Q 4006 4703 3916 4166 
L 5813 4166 
L 5813 3700 
L 5422 3700 
Q 5363 2247 4697 1147 
Q 5272 319 6088 -13 
z
M 4947 3700 
L 3816 3700 
L 3763 3500 
Q 3975 2297 4416 1588 
Q 4878 2472 4947 3700 
z
" transform="scale(0.015625)"/>
       <path id="ArialUnicodeMS-76ca" d="M 5191 5063 
Q 4775 4500 4072 4000 
L 3706 4341 
Q 4428 4822 4788 5375 
L 5191 5063 
z
M 2675 4306 
L 2259 3994 
Q 1838 4713 1197 5075 
L 1631 5350 
Q 2178 5041 2675 4306 
z
M 5869 3506 
L 531 3506 
L 531 3975 
L 5869 3975 
L 5869 3506 
z
M 6144 2150 
L 5831 1753 
Q 5544 1859 5209 2034 
L 5209 353 
L 5984 353 
L 5984 -116 
L 403 -116 
L 403 353 
L 1203 353 
L 1203 2113 
Q 906 1969 609 1875 
L 288 2284 
Q 1559 2691 2322 3463 
L 2688 3116 
Q 2044 2509 1313 2150 
L 5006 2150 
Q 4272 2588 3738 3169 
L 4128 3481 
Q 4856 2681 6144 2150 
z
M 4691 366 
L 4691 1709 
L 4044 1709 
L 4044 366 
L 4691 366 
z
M 3547 366 
L 3547 1709 
L 2847 1709 
L 2847 366 
L 3547 366 
z
M 2350 353 
L 2350 1684 
L 1703 1684 
L 1703 353 
L 2350 353 
z
" transform="scale(0.015625)"/>
       <path id="ArialUnicodeMS-7387" d="M 5663 4313 
L 3469 4313 
Q 3113 3806 2828 3488 
L 3244 3309 
Q 3453 3538 3822 4078 
L 4263 3872 
Q 3531 2878 3022 2356 
L 3809 2406 
Q 3738 2594 3591 2822 
L 4019 2969 
Q 4375 2419 4459 1813 
L 3988 1678 
Q 3988 1806 3938 1966 
L 2150 1819 
L 1997 2316 
L 2431 2328 
Q 2616 2500 2931 2906 
Q 2372 3163 1978 3278 
L 2203 3731 
L 2419 3647 
Q 2634 3900 2888 4313 
L 709 4313 
L 709 4781 
L 2956 4781 
L 2956 5375 
L 3444 5375 
L 3444 4781 
L 5663 4781 
L 5663 4313 
z
M 5734 3922 
Q 5091 3316 4581 3128 
L 4294 3553 
Q 4947 3791 5447 4281 
L 5734 3922 
z
M 1984 3397 
L 1619 3059 
Q 1263 3534 653 3853 
L 947 4184 
Q 1531 3975 1984 3397 
z
M 2131 2597 
Q 1419 2031 763 1813 
L 459 2209 
Q 1238 2447 1863 2994 
L 2131 2597 
z
M 5906 2216 
L 5619 1831 
Q 5109 2341 4306 2553 
L 4550 2938 
Q 5391 2722 5906 2216 
z
M 5941 1038 
L 3456 1038 
L 3456 -441 
L 2963 -441 
L 2963 1038 
L 459 1038 
L 459 1503 
L 2963 1503 
L 2963 1831 
L 3456 1831 
L 3456 1503 
L 5941 1503 
L 5941 1038 
z
" transform="scale(0.015625)"/>
       <path id="DejaVuSans-Oblique-45" d="M 1081 4666 
L 4031 4666 
L 3928 4134 
L 1606 4134 
L 1338 2753 
L 3566 2753 
L 3463 2222 
L 1234 2222 
L 909 531 
L 3284 531 
L 3181 0 
L 172 0 
L 1081 4666 
z
" transform="scale(0.015625)"/>
       <path id="DejaVuSans-5b" d="M 550 4863 
L 1875 4863 
L 1875 4416 
L 1125 4416 
L 1125 -397 
L 1875 -397 
L 1875 -844 
L 550 -844 
L 550 4863 
z
" transform="scale(0.015625)"/>
       <path id="DejaVuSans-Oblique-72" d="M 2853 2969 
Q 2766 3016 2653 3041 
Q 2541 3066 2413 3066 
Q 1953 3066 1609 2717 
Q 1266 2369 1153 1784 
L 800 0 
L 225 0 
L 909 3500 
L 1484 3500 
L 1375 2956 
Q 1603 3259 1920 3421 
Q 2238 3584 2597 3584 
Q 2691 3584 2781 3573 
Q 2872 3563 2963 3538 
L 2853 2969 
z
" transform="scale(0.015625)"/>
       <path id="DejaVuSans-5d" d="M 1947 4863 
L 1947 -844 
L 622 -844 
L 622 -397 
L 1369 -397 
L 1369 4416 
L 622 4416 
L 622 4863 
L 1947 4863 
z
" transform="scale(0.015625)"/>
      </defs>
      <use xlink:href="#ArialUnicodeMS-9884" transform="translate(0 0.015625)"/>
      <use xlink:href="#ArialUnicodeMS-671f" transform="translate(100 0.015625)"/>
      <use xlink:href="#ArialUnicodeMS-6536" transform="translate(200 0.015625)"/>
      <use xlink:href="#ArialUnicodeMS-76ca" transform="translate(300 0.015625)"/>
      <use xlink:href="#ArialUnicodeMS-7387" transform="translate(400 0.015625)"/>
      <use xlink:href="#ArialUnicodeMS-20" transform="translate(500 0.015625)"/>
      <use xlink:href="#ArialUnicodeMS-28" transform="translate(527.783203 0.015625)"/>
      <use xlink:href="#DejaVuSans-Oblique-45" transform="translate(561.083984 0.015625)"/>
      <use xlink:href="#DejaVuSans-5b" transform="translate(624.267578 0.015625)"/>
      <use xlink:href="#DejaVuSans-Oblique-72" transform="translate(663.28125 0.015625)"/>
      <use xlink:href="#DejaVuSans-Oblique-70" transform="translate(704.394531 -16.390625) scale(0.7)"/>
      <use xlink:href="#DejaVuSans-5d" transform="translate(751.5625 0.015625)"/>
      <use xlink:href="#ArialUnicodeMS-29" transform="translate(790.576172 0.015625)"/>
     </g>
    </g>
   </g>
   <g id="line2d_27">
    <path d="M 73.304455 230.605091 
L 76.651213 227.266466 
L 79.997972 224.141166 
L 83.34473 221.192874 
L 86.691489 218.39454 
L 90.038247 215.725372 
L 93.385006 213.168982 
L 96.731764 210.712178 
L 100.078522 208.344155 
L 103.425281 206.055933 
L 106.772039 203.83995 
L 110.118798 201.689766 
L 113.465556 199.599848 
L 116.812315 197.565396 
L 120.159073 195.582213 
L 123.505832 193.64661 
L 126.85259 191.755317 
L 130.199349 189.905425 
L 133.546107 188.094327 
L 136.892866 186.31968 
L 140.239624 184.57937 
L 143.586383 182.871476 
L 146.933141 181.194252 
L 150.2799 179.546102 
L 153.626658 177.925566 
L 156.973417 176.331299 
L 160.320175 174.762065 
L 163.666934 173.21672 
L 167.013692 171.694205 
L 170.360451 170.193537 
L 173.707209 168.713802 
L 177.053968 167.254148 
L 180.400726 165.813778 
L 183.747485 164.391949 
L 187.094243 162.987961 
L 190.441002 161.60116 
L 193.78776 160.230929 
L 197.134519 158.876688 
L 200.481277 157.537891 
L 203.828036 156.214021 
L 207.174794 154.904589 
L 210.521553 153.609132 
L 213.868311 152.327214 
L 217.21507 151.058417 
L 220.561828 149.802348 
L 223.908587 148.55863 
L 227.255345 147.326907 
L 230.602104 146.106837 
L 233.948862 144.898097 
L 237.295621 143.700375 
L 240.642379 142.513377 
L 243.989138 141.33682 
L 247.335896 140.170432 
L 250.682655 139.013954 
L 254.029413 137.867138 
L 257.376172 136.729747 
L 260.72293 135.60155 
L 264.069689 134.482329 
L 267.416447 133.371873 
L 270.763206 132.269979 
L 274.109964 131.176452 
L 277.456723 130.091105 
L 280.803481 129.013755 
L 284.15024 127.94423 
L 287.496998 126.882362 
L 290.843757 125.827987 
L 294.190515 124.78095 
L 297.537274 123.741099 
L 300.884032 122.708289 
L 304.230791 121.682379 
L 307.577549 120.663231 
L 310.924308 119.650714 
L 314.271066 118.644701 
L 317.617825 117.645067 
L 320.964583 116.651693 
L 324.311342 115.664462 
L 327.6581 114.683262 
L 331.004859 113.707983 
L 334.351617 112.738521 
L 337.698376 111.774771 
L 341.045134 110.816635 
L 344.391893 109.864015 
L 347.738651 108.916817 
L 351.08541 107.974949 
L 354.432168 107.038322 
L 357.778927 106.106851 
L 361.125685 105.18045 
L 364.472444 104.259038 
L 367.819202 103.342536 
L 371.165961 102.430864 
L 374.512719 101.523949 
L 377.859478 100.621715 
L 381.206236 99.724092 
L 384.552994 98.831009 
L 387.899753 97.942399 
L 391.246511 97.058194 
L 394.59327 96.17833 
L 397.940028 95.302744 
L 401.286787 94.431373 
L 404.633545 93.564158 
" clip-path="url(#pcb6d3f9a1c)" style="fill: none; stroke-dasharray: 5.55,2.4; stroke-dashoffset: 0; stroke: #bdc3c7; stroke-width: 1.5"/>
   </g>
   <g id="line2d_28">
    <path d="M 73.304455 169.851331 
L 76.651213 167.155705 
L 79.997972 164.536058 
L 83.34473 161.986307 
L 86.691489 159.501137 
L 90.038247 157.075877 
L 93.385006 154.706393 
L 96.731764 152.389005 
L 100.078522 150.12042 
L 103.425281 147.897679 
L 106.772039 145.718111 
L 110.118798 143.579293 
L 113.465556 141.479021 
L 116.812315 139.415285 
L 120.159073 137.38624 
L 123.505832 135.390195 
L 126.85259 133.42559 
L 130.199349 131.490983 
L 133.546107 129.585043 
L 136.892866 127.70653 
L 140.239624 125.854294 
L 143.586383 124.027262 
L 146.933141 122.224432 
L 150.2799 120.444868 
L 153.626658 118.68769 
L 156.973417 116.952076 
L 160.320175 115.237249 
L 163.666934 113.542482 
L 167.013692 111.867084 
L 170.360451 110.210409 
L 173.707209 108.57184 
L 177.053968 106.950798 
L 180.400726 105.346731 
L 183.747485 103.759118 
L 187.094243 102.187462 
L 190.441002 100.631291 
L 193.78776 99.090157 
L 197.134519 97.563632 
L 200.481277 96.051308 
L 203.828036 94.552796 
L 207.174794 93.067724 
L 210.521553 91.595737 
L 213.868311 90.136496 
L 217.21507 88.689674 
L 220.561828 87.254961 
L 223.908587 85.832056 
L 227.255345 84.420673 
L 230.602104 83.020537 
L 233.948862 81.631383 
L 237.295621 80.252957 
L 240.642379 78.885013 
L 243.989138 77.527316 
L 247.335896 76.17964 
L 250.682655 74.841765 
L 254.029413 73.513482 
L 257.376172 72.194585 
L 260.72293 70.88488 
L 264.069689 69.584177 
L 267.416447 68.292293 
L 270.763206 67.00905 
L 274.109964 65.734277 
L 277.456723 64.46781 
L 280.803481 63.209487 
L 284.15024 61.959154 
L 287.496998 60.71666 
L 290.843757 59.48186 
L 294.190515 58.254612 
L 297.537274 57.03478 
L 300.884032 55.822231 
L 304.230791 54.616836 
L 307.577549 53.418469 
L 310.924308 52.22701 
L 314.271066 51.042339 
L 317.617825 49.864343 
L 320.964583 48.69291 
L 324.311342 47.527931 
L 327.6581 46.369301 
L 331.004859 45.216917 
L 334.351617 44.07068 
L 337.698376 42.930491 
L 341.045134 41.796256 
L 344.391893 40.667883 
L 347.738651 39.545282 
L 351.08541 38.428365 
L 354.432168 37.317047 
L 357.778927 36.211244 
L 361.125685 35.110875 
L 364.472444 34.01586 
L 367.819202 32.926123 
L 371.165961 31.841588 
L 374.512719 30.762181 
L 377.859478 29.687829 
L 381.206236 28.618463 
L 384.552994 27.554014 
L 387.899753 26.494414 
L 391.246511 25.439598 
L 394.59327 24.389502 
L 397.940028 23.344062 
L 401.286787 22.303218 
L 404.633545 21.266909 
" clip-path="url(#pcb6d3f9a1c)" style="fill: none; stroke: #27ae60; stroke-width: 2; stroke-linecap: square"/>
   </g>
   <g id="patch_3">
    <path d="M 56.738 241.072 
L 56.738 10.8 
" style="fill: none; stroke: #000000; stroke-width: 0.8; stroke-linejoin: miter; stroke-linecap: square"/>
   </g>
   <g id="patch_4">
    <path d="M 56.738 241.072 
L 421.2 241.072 
" style="fill: none; stroke: #000000; stroke-width: 0.8; stroke-linejoin: miter; stroke-linecap: square"/>
   </g>
   <g id="legend_1">
    <g id="line2d_29">
     <path d="M 65.738 24.9 
L 75.738 24.9 
L 85.738 24.9 
" style="fill: none; stroke-dasharray: 5.55,2.4; stroke-dashoffset: 0; stroke: #bdc3c7; stroke-width: 1.5"/>
    </g>
    <g id="text_16">
     <!-- 高相关性组合 ($\rho \approx 1$) -->
     <g transform="translate(93.738 28.4) scale(0.1 -0.1)">
      <defs>
       <path id="ArialUnicodeMS-9ad8" d="M 5863 4313 
L 653 4313 
L 653 4781 
L 2956 4781 
L 2956 5300 
L 3444 5300 
L 3444 4781 
L 5863 4781 
L 5863 4313 
z
M 4775 2747 
L 1625 2747 
L 1625 4038 
L 4775 4038 
L 4775 2747 
z
M 4288 3572 
L 2113 3572 
L 2113 3213 
L 4281 3213 
L 4288 3572 
z
M 5563 213 
Q 5563 -359 4903 -359 
L 4403 -359 
L 4263 134 
L 4750 109 
Q 5075 88 5075 359 
L 5075 2022 
L 1331 2022 
L 1331 -428 
L 838 -428 
L 838 2491 
L 5563 2491 
L 5563 213 
z
M 4453 378 
L 1919 378 
L 1919 1722 
L 4453 1722 
L 4453 378 
z
M 3969 1253 
L 2406 1253 
L 2406 844 
L 3963 844 
L 3969 1253 
z
" transform="scale(0.015625)"/>
       <path id="ArialUnicodeMS-76f8" d="M 3009 1791 
L 2566 1503 
Q 2322 1975 2003 2406 
L 2003 -416 
L 1509 -416 
L 1509 2094 
Q 1313 1497 659 678 
L 275 972 
Q 1053 1969 1459 3603 
L 519 3603 
L 519 4072 
L 1516 4072 
L 1516 5300 
L 2003 5300 
L 2003 4072 
L 2881 4072 
L 2881 3603 
L 2003 3603 
L 2003 2900 
L 2131 2975 
Q 2681 2434 3009 1791 
z
M 5691 -416 
L 5178 -416 
L 5178 38 
L 3659 38 
L 3659 -416 
L 3150 -416 
L 3150 4966 
L 5691 4966 
L 5691 -416 
z
M 5178 3547 
L 5178 4500 
L 3659 4500 
L 3659 3547 
L 5178 3547 
z
M 5178 2059 
L 5178 3078 
L 3659 3078 
L 3659 2059 
L 5178 2059 
z
M 5178 506 
L 5178 1594 
L 3659 1594 
L 3659 506 
L 5178 506 
z
" transform="scale(0.015625)"/>
       <path id="ArialUnicodeMS-5173" d="M 5881 -38 
L 5516 -397 
Q 4691 -63 4152 460 
Q 3613 984 3244 1941 
L 3156 1941 
Q 2881 1134 2139 467 
Q 1397 -200 575 -397 
L 244 -13 
Q 1122 272 1767 803 
Q 2413 1334 2644 1941 
L 366 1941 
L 366 2406 
L 2759 2406 
Q 2784 2628 2784 3525 
L 738 3525 
L 738 3969 
L 2222 3969 
Q 1884 4613 1441 5106 
L 1838 5306 
Q 2359 4784 2747 3969 
L 3378 3969 
Q 3725 4450 4072 5319 
L 4519 5119 
Q 4209 4425 3903 3969 
L 5441 3969 
L 5441 3525 
L 3272 3525 
Q 3253 2594 3231 2406 
L 5819 2406 
L 5819 1941 
L 3781 1941 
Q 4272 669 5881 -38 
z
" transform="scale(0.015625)"/>
       <path id="ArialUnicodeMS-6027" d="M 6088 6 
L 2322 6 
L 2322 475 
L 3928 475 
L 3928 1778 
L 2669 1778 
L 2669 2247 
L 3928 2247 
L 3928 3463 
L 3169 3463 
Q 2978 2881 2606 2375 
L 2113 2597 
Q 2363 2838 2438 3003 
L 2203 2900 
Q 2078 3494 1766 3866 
L 1766 -434 
L 1281 -434 
L 1281 5281 
L 1766 5281 
L 1766 3928 
L 2138 4128 
Q 2413 3813 2597 3347 
Q 2844 3763 2894 4775 
L 3378 4647 
Q 3363 4338 3291 3928 
L 3928 3928 
L 3928 5294 
L 4416 5294 
L 4416 3928 
L 5759 3928 
L 5759 3463 
L 4416 3463 
L 4416 2247 
L 5569 2247 
L 5569 1778 
L 4416 1778 
L 4416 475 
L 6088 475 
L 6088 6 
z
M 1241 3897 
Q 1175 2956 763 2344 
L 347 2528 
Q 819 3406 819 4025 
L 1241 3897 
z
" transform="scale(0.015625)"/>
       <path id="DejaVuSans-Oblique-3c1" d="M 1203 2875 
Q 1453 3194 1981 3475 
Q 2188 3584 2756 3584 
Q 3394 3584 3694 3078 
Q 3994 2572 3834 1747 
Q 3672 922 3175 415 
Q 2678 -91 2041 -91 
Q 1656 -91 1409 63 
Q 1163 213 1044 525 
L 681 -1331 
L 103 -1331 
L 697 1716 
Q 838 2438 1203 2875 
z
M 3238 1747 
Q 3359 2381 3169 2744 
Q 2978 3103 2522 3103 
Q 2066 3103 1734 2744 
Q 1403 2381 1281 1747 
Q 1156 1113 1347 750 
Q 1538 391 1994 391 
Q 2450 391 2781 750 
Q 3113 1113 3238 1747 
z
" transform="scale(0.015625)"/>
       <path id="DejaVuSans-2248" d="M 4684 1947 
L 4684 1388 
Q 4356 1144 4076 1036 
Q 3797 928 3494 928 
Q 3150 928 2694 1113 
Q 2663 1125 2641 1134 
Q 2622 1141 2575 1159 
Q 2091 1350 1797 1350 
Q 1522 1350 1253 1231 
Q 984 1113 678 850 
L 678 1409 
Q 1006 1653 1286 1761 
Q 1566 1869 1869 1869 
Q 2213 1869 2672 1684 
Q 2706 1669 2722 1663 
Q 2741 1656 2788 1638 
Q 3272 1447 3566 1447 
Q 3834 1447 4098 1564 
Q 4363 1681 4684 1947 
z
M 4684 3163 
L 4684 2606 
Q 4356 2359 4076 2251 
Q 3797 2144 3494 2144 
Q 3150 2144 2694 2328 
Q 2663 2341 2641 2350 
Q 2622 2356 2575 2375 
Q 2091 2566 1797 2566 
Q 1522 2566 1253 2447 
Q 984 2328 678 2069 
L 678 2625 
Q 1006 2869 1286 2976 
Q 1566 3084 1869 3084 
Q 2213 3084 2672 2900 
Q 2703 2888 2719 2881 
Q 2741 2872 2788 2853 
Q 3272 2663 3566 2663 
Q 3834 2663 4098 2780 
Q 4363 2897 4684 3163 
z
" transform="scale(0.015625)"/>
       <path id="DejaVuSans-31" d="M 794 531 
L 1825 531 
L 1825 4091 
L 703 3866 
L 703 4441 
L 1819 4666 
L 2450 4666 
L 2450 531 
L 3481 531 
L 3481 0 
L 794 0 
L 794 531 
z
" transform="scale(0.015625)"/>
      </defs>
      <use xlink:href="#ArialUnicodeMS-9ad8" transform="translate(0 0.109375)"/>
      <use xlink:href="#ArialUnicodeMS-76f8" transform="translate(100 0.109375)"/>
      <use xlink:href="#ArialUnicodeMS-5173" transform="translate(200 0.109375)"/>
      <use xlink:href="#ArialUnicodeMS-6027" transform="translate(300 0.109375)"/>
      <use xlink:href="#ArialUnicodeMS-7ec4" transform="translate(400 0.109375)"/>
      <use xlink:href="#ArialUnicodeMS-5408" transform="translate(500 0.109375)"/>
      <use xlink:href="#ArialUnicodeMS-20" transform="translate(600 0.109375)"/>
      <use xlink:href="#ArialUnicodeMS-28" transform="translate(627.783203 0.109375)"/>
      <use xlink:href="#DejaVuSans-Oblique-3c1" transform="translate(661.083984 0.109375)"/>
      <use xlink:href="#DejaVuSans-2248" transform="translate(744.042969 0.109375)"/>
      <use xlink:href="#DejaVuSans-31" transform="translate(847.314453 0.109375)"/>
      <use xlink:href="#ArialUnicodeMS-29" transform="translate(910.9375 0.109375)"/>
     </g>
    </g>
    <g id="line2d_30">
     <path d="M 65.738 40.6 
L 75.738 40.6 
L 85.738 40.6 
" style="fill: none; stroke: #27ae60; stroke-width: 2; stroke-linecap: square"/>
    </g>
    <g id="text_17">
     <!-- 低相关性组合 ($\rho &lt; 0.3$) -->
     <g transform="translate(93.738 44.1) scale(0.1 -0.1)">
      <defs>
       <path id="ArialUnicodeMS-4f4e" d="M 2188 5153 
Q 1994 4550 1828 4150 
L 1663 3794 
L 1663 -434 
L 1172 -434 
L 1172 2956 
Q 997 2628 622 2253 
L 244 2591 
Q 1125 3463 1741 5363 
L 2188 5153 
z
M 6150 872 
Q 6053 -13 5886 -186 
Q 5719 -359 5478 -359 
Q 4941 -359 4542 559 
Q 4144 1478 4013 2875 
L 2869 2875 
L 2869 1031 
L 4050 1281 
L 4050 788 
L 2175 372 
L 1906 831 
L 2363 928 
L 2363 4594 
Q 4388 4797 5459 5319 
L 5797 4947 
Q 5131 4625 4428 4469 
Q 4419 3966 4469 3341 
L 5894 3341 
L 5894 2875 
L 4500 2875 
Q 4625 1759 4904 978 
Q 5184 197 5478 197 
Q 5559 197 5603 420 
Q 5647 644 5684 1106 
L 6150 872 
z
M 3975 3328 
Q 3938 3875 3928 4353 
Q 3438 4266 2869 4191 
L 2869 3328 
L 3975 3328 
z
M 4263 -250 
L 2188 -250 
L 2188 219 
L 4263 219 
L 4263 -250 
z
" transform="scale(0.015625)"/>
       <path id="DejaVuSans-3c" d="M 4684 3150 
L 1459 2003 
L 4684 863 
L 4684 294 
L 678 1747 
L 678 2266 
L 4684 3719 
L 4684 3150 
z
" transform="scale(0.015625)"/>
       <path id="DejaVuSans-30" d="M 2034 4250 
Q 1547 4250 1301 3770 
Q 1056 3291 1056 2328 
Q 1056 1369 1301 889 
Q 1547 409 2034 409 
Q 2525 409 2770 889 
Q 3016 1369 3016 2328 
Q 3016 3291 2770 3770 
Q 2525 4250 2034 4250 
z
M 2034 4750 
Q 2819 4750 3233 4129 
Q 3647 3509 3647 2328 
Q 3647 1150 3233 529 
Q 2819 -91 2034 -91 
Q 1250 -91 836 529 
Q 422 1150 422 2328 
Q 422 3509 836 4129 
Q 1250 4750 2034 4750 
z
" transform="scale(0.015625)"/>
       <path id="DejaVuSans-2e" d="M 684 794 
L 1344 794 
L 1344 0 
L 684 0 
L 684 794 
z
" transform="scale(0.015625)"/>
       <path id="DejaVuSans-33" d="M 2597 2516 
Q 3050 2419 3304 2112 
Q 3559 1806 3559 1356 
Q 3559 666 3084 287 
Q 2609 -91 1734 -91 
Q 1441 -91 1130 -33 
Q 819 25 488 141 
L 488 750 
Q 750 597 1062 519 
Q 1375 441 1716 441 
Q 2309 441 2620 675 
Q 2931 909 2931 1356 
Q 2931 1769 2642 2001 
Q 2353 2234 1838 2234 
L 1294 2234 
L 1294 2753 
L 1863 2753 
Q 2328 2753 2575 2939 
Q 2822 3125 2822 3475 
Q 2822 3834 2567 4026 
Q 2313 4219 1838 4219 
Q 1578 4219 1281 4162 
Q 984 4106 628 3988 
L 628 4550 
Q 988 4650 1302 4700 
Q 1616 4750 1894 4750 
Q 2613 4750 3031 4423 
Q 3450 4097 3450 3541 
Q 3450 3153 3228 2886 
Q 3006 2619 2597 2516 
z
" transform="scale(0.015625)"/>
      </defs>
      <use xlink:href="#ArialUnicodeMS-4f4e" transform="translate(0 0.109375)"/>
      <use xlink:href="#ArialUnicodeMS-76f8" transform="translate(100 0.109375)"/>
      <use xlink:href="#ArialUnicodeMS-5173" transform="translate(200 0.109375)"/>
      <use xlink:href="#ArialUnicodeMS-6027" transform="translate(300 0.109375)"/>
      <use xlink:href="#ArialUnicodeMS-7ec4" transform="translate(400 0.109375)"/>
      <use xlink:href="#ArialUnicodeMS-5408" transform="translate(500 0.109375)"/>
      <use xlink:href="#ArialUnicodeMS-20" transform="translate(600 0.109375)"/>
      <use xlink:href="#ArialUnicodeMS-28" transform="translate(627.783203 0.109375)"/>
      <use xlink:href="#DejaVuSans-Oblique-3c1" transform="translate(661.083984 0.109375)"/>
      <use xlink:href="#DejaVuSans-3c" transform="translate(744.042969 0.109375)"/>
      <use xlink:href="#DejaVuSans-30" transform="translate(847.314453 0.109375)"/>
      <use xlink:href="#DejaVuSans-2e" transform="translate(910.9375 0.109375)"/>
      <use xlink:href="#DejaVuSans-33" transform="translate(942.724609 0.109375)"/>
      <use xlink:href="#ArialUnicodeMS-29" transform="translate(1006.347656 0.109375)"/>
     </g>
    </g>
   </g>
  </g>
 </g>
 <defs>
  <clipPath id="pcb6d3f9a1c">
   <rect x="56.738" y="10.8" width="364.462" height="230.272"/>
  </clipPath>
 </defs>
</svg>
