<?xml version="1.0" encoding="utf-8" standalone="no"?>
<!DOCTYPE svg PUBLIC "-//W3C//DTD SVG 1.1//EN"
  "http://www.w3.org/Graphics/SVG/1.1/DTD/svg11.dtd">
<svg xmlns:xlink="http://www.w3.org/1999/xlink" width="432pt" height="288pt" viewBox="0 0 432 288" xmlns="http://www.w3.org/2000/svg" version="1.1">
 <metadata>
  <rdf:RDF xmlns:dc="http://purl.org/dc/elements/1.1/" xmlns:cc="http://creativecommons.org/ns#" xmlns:rdf="http://www.w3.org/1999/02/22-rdf-syntax-ns#">
   <cc:Work>
    <dc:type rdf:resource="http://purl.org/dc/dcmitype/StillImage"/>
    <dc:date>2026-05-11T09:52:22.288135</dc:date>
    <dc:format>image/svg+xml</dc:format>
    <dc:creator>
     <cc:Agent>
      <dc:title>Matplotlib v3.9.4, https://matplotlib.org/</dc:title>
     </cc:Agent>
    </dc:creator>
   </cc:Work>
  </rdf:RDF>
 </metadata>
 <defs>
  <style type="text/css">*{stroke-linejoin: round; stroke-linecap: butt}</style>
 </defs>
 <g id="figure_1">
  <g id="patch_1">
   <path d="M 0 288 
L 432 288 
L 432 0 
L 0 0 
z
" style="fill: #ffffff"/>
  </g>
  <g id="axes_1">
   <g id="patch_2">
    <path d="M 25.96 262.04 
L 421.2 262.04 
L 421.2 10.8 
L 25.96 10.8 
z
" style="fill: #ffffff"/>
   </g>
   <g id="matplotlib.axis_1">
    <g id="text_1">
     <!-- Time -->
     <g transform="translate(210.247813 274.629375) scale(0.12 -0.12)">
      <defs>
       <path id="ArialUnicodeMS-54" d="M 3769 4038 
L 2253 4038 
L 2253 0 
L 1644 0 
L 1644 4038 
L 141 4038 
L 141 4581 
L 3769 4581 
L 3769 4038 
z
" transform="scale(0.015625)"/>
       <path id="ArialUnicodeMS-69" d="M 991 0 
L 428 0 
L 428 3316 
L 991 3316 
L 991 0 
z
M 991 3944 
L 428 3944 
L 428 4581 
L 991 4581 
L 991 3944 
z
" transform="scale(0.015625)"/>
       <path id="ArialUnicodeMS-6d" d="M 4922 0 
L 4359 0 
L 4359 2094 
Q 4359 2325 4328 2489 
Q 4297 2653 4167 2779 
Q 4038 2906 3763 2906 
Q 3431 2906 3190 2675 
Q 2950 2444 2950 1925 
L 2950 0 
L 2388 0 
L 2388 2156 
Q 2388 2588 2236 2747 
Q 2084 2906 1806 2906 
Q 1444 2906 1211 2656 
Q 978 2406 978 1722 
L 978 0 
L 416 0 
L 416 3316 
L 922 3316 
L 922 2853 
L 934 2853 
Q 1272 3391 1925 3391 
Q 2291 3391 2527 3245 
Q 2763 3100 2869 2809 
Q 3238 3391 3891 3391 
Q 4406 3391 4664 3112 
Q 4922 2834 4922 2278 
L 4922 0 
z
" transform="scale(0.015625)"/>
       <path id="ArialUnicodeMS-65" d="M 3309 1516 
L 825 1516 
Q 859 966 1139 675 
Q 1419 384 1838 384 
Q 2159 384 2378 554 
Q 2597 725 2713 1069 
L 3291 997 
Q 3150 478 2775 200 
Q 2400 -78 1838 -78 
Q 1091 -78 670 380 
Q 250 838 250 1631 
Q 250 2416 658 2903 
Q 1066 3391 1806 3391 
Q 2169 3391 2505 3231 
Q 2841 3072 3075 2689 
Q 3309 2306 3309 1516 
z
M 2731 1978 
Q 2697 2484 2417 2707 
Q 2138 2931 1806 2931 
Q 1409 2931 1153 2665 
Q 897 2400 856 1978 
L 2731 1978 
z
" transform="scale(0.015625)"/>
      </defs>
      <use xlink:href="#ArialUnicodeMS-54"/>
      <use xlink:href="#ArialUnicodeMS-69" x="61.083984"/>
      <use xlink:href="#ArialUnicodeMS-6d" x="83.300781"/>
      <use xlink:href="#ArialUnicodeMS-65" x="166.601562"/>
     </g>
    </g>
   </g>
   <g id="matplotlib.axis_2">
    <g id="text_2">
     <!-- Retained Asset Value -->
     <g transform="translate(19.569375 194.120313) rotate(-90) scale(0.12 -0.12)">
      <defs>
       <path id="ArialUnicodeMS-52" d="M 4550 0 
L 3788 0 
Q 3103 1081 2937 1328 
Q 2772 1575 2589 1751 
Q 2406 1928 2245 1975 
Q 2084 2022 1819 2022 
L 1119 2022 
L 1119 0 
L 513 0 
L 513 4581 
L 2541 4581 
Q 2956 4581 3237 4528 
Q 3519 4475 3731 4304 
Q 3944 4134 4058 3875 
Q 4172 3616 4172 3328 
Q 4172 2809 3844 2493 
Q 3516 2178 2888 2094 
L 2888 2081 
Q 3347 1878 3750 1247 
L 4550 0 
z
M 1119 2566 
L 2419 2566 
Q 2813 2566 3042 2633 
Q 3272 2700 3409 2894 
Q 3547 3088 3547 3328 
Q 3547 3641 3319 3859 
Q 3091 4078 2566 4078 
L 1119 4078 
L 1119 2566 
z
" transform="scale(0.015625)"/>
       <path id="ArialUnicodeMS-74" d="M 1722 6 
Q 1472 -44 1300 -44 
Q 931 -44 762 86 
Q 594 216 556 416 
Q 519 616 519 972 
L 519 2881 
L 109 2881 
L 109 3316 
L 519 3316 
L 519 4141 
L 1081 4481 
L 1081 3316 
L 1644 3316 
L 1644 2881 
L 1081 2881 
L 1081 941 
Q 1081 691 1132 586 
Q 1184 481 1394 481 
Q 1516 481 1644 506 
L 1722 6 
z
" transform="scale(0.015625)"/>
       <path id="ArialUnicodeMS-61" d="M 3303 0 
L 2713 0 
Q 2631 156 2597 409 
Q 2031 -78 1375 -78 
Q 850 -78 547 184 
Q 244 447 244 878 
Q 244 1291 536 1558 
Q 828 1825 1550 1913 
L 2075 1991 
Q 2369 2038 2559 2106 
Q 2559 2359 2543 2464 
Q 2528 2569 2451 2681 
Q 2375 2794 2206 2862 
Q 2038 2931 1753 2931 
Q 1391 2931 1180 2797 
Q 969 2663 891 2297 
L 341 2369 
Q 431 2878 806 3134 
Q 1181 3391 1838 3391 
Q 2434 3391 2714 3214 
Q 2994 3038 3058 2788 
Q 3122 2538 3122 2144 
L 3122 1388 
Q 3122 697 3148 461 
Q 3175 225 3303 0 
z
M 2559 1459 
L 2559 1663 
Q 2119 1516 1481 1430 
Q 844 1344 844 891 
Q 844 663 1016 514 
Q 1188 366 1509 366 
Q 1925 366 2242 614 
Q 2559 863 2559 1459 
z
" transform="scale(0.015625)"/>
       <path id="ArialUnicodeMS-6e" d="M 3138 0 
L 2572 0 
L 2572 2016 
Q 2572 2525 2389 2715 
Q 2206 2906 1881 2906 
Q 1631 2906 1407 2784 
Q 1184 2663 1090 2441 
Q 997 2219 997 1813 
L 997 0 
L 434 0 
L 434 3316 
L 941 3316 
L 941 2847 
L 953 2847 
Q 1131 3119 1392 3255 
Q 1653 3391 1997 3391 
Q 2259 3391 2515 3297 
Q 2772 3203 2917 3015 
Q 3063 2828 3100 2615 
Q 3138 2403 3138 2041 
L 3138 0 
z
" transform="scale(0.015625)"/>
       <path id="ArialUnicodeMS-64" d="M 3109 0 
L 2584 0 
L 2584 422 
L 2572 422 
Q 2269 -78 1656 -78 
Q 1047 -78 639 405 
Q 231 888 231 1656 
Q 231 2459 615 2925 
Q 1000 3391 1631 3391 
Q 2225 3391 2534 2938 
L 2547 2938 
L 2547 4581 
L 3109 4581 
L 3109 0 
z
M 1716 384 
Q 2084 384 2340 687 
Q 2597 991 2597 1606 
Q 2597 2213 2362 2572 
Q 2128 2931 1691 2931 
Q 1253 2931 1029 2579 
Q 806 2228 806 1656 
Q 806 1244 926 958 
Q 1047 672 1262 528 
Q 1478 384 1716 384 
z
" transform="scale(0.015625)"/>
       <path id="ArialUnicodeMS-20" transform="scale(0.015625)"/>
       <path id="ArialUnicodeMS-41" d="M 4275 0 
L 3591 0 
L 3053 1394 
L 1141 1394 
L 634 0 
L -6 0 
L 1753 4581 
L 2406 4581 
L 4275 0 
z
M 2869 1875 
Q 2306 3363 2234 3564 
Q 2163 3766 2075 4103 
L 2059 4103 
Q 1972 3641 1825 3247 
L 1313 1875 
L 2869 1875 
z
" transform="scale(0.015625)"/>
       <path id="ArialUnicodeMS-73" d="M 2278 2388 
Q 2241 2659 2058 2795 
Q 1875 2931 1550 2931 
Q 1228 2931 1029 2822 
Q 831 2713 831 2503 
Q 831 2306 989 2222 
Q 1147 2138 1613 2016 
Q 2138 1881 2398 1778 
Q 2659 1675 2804 1489 
Q 2950 1303 2950 972 
Q 2950 528 2587 225 
Q 2225 -78 1619 -78 
Q 988 -78 633 189 
Q 278 456 197 991 
L 756 1075 
Q 800 728 1014 556 
Q 1228 384 1613 384 
Q 1981 384 2178 539 
Q 2375 694 2375 916 
Q 2375 1066 2284 1156 
Q 2194 1247 2058 1292 
Q 1922 1338 1447 1453 
Q 741 1622 514 1862 
Q 288 2103 288 2438 
Q 288 2853 619 3122 
Q 950 3391 1509 3391 
Q 2103 3391 2433 3158 
Q 2763 2925 2828 2463 
L 2278 2388 
z
" transform="scale(0.015625)"/>
       <path id="ArialUnicodeMS-56" d="M 4225 4581 
L 2431 0 
L 1813 0 
L 38 4581 
L 691 4581 
L 1881 1253 
Q 2016 934 2119 506 
L 2131 506 
Q 2225 872 2369 1253 
L 3609 4581 
L 4225 4581 
z
" transform="scale(0.015625)"/>
       <path id="ArialUnicodeMS-6c" d="M 991 0 
L 428 0 
L 428 4581 
L 991 4581 
L 991 0 
z
" transform="scale(0.015625)"/>
       <path id="ArialUnicodeMS-75" d="M 3116 0 
L 2613 0 
L 2613 488 
L 2597 488 
Q 2216 -78 1556 -78 
Q 1209 -78 914 83 
Q 619 244 520 526 
Q 422 809 422 1259 
L 422 3316 
L 984 3316 
L 984 1478 
Q 984 1038 1026 847 
Q 1069 656 1247 532 
Q 1425 409 1672 409 
Q 1991 409 2272 629 
Q 2553 850 2553 1544 
L 2553 3316 
L 3116 3316 
L 3116 0 
z
" transform="scale(0.015625)"/>
      </defs>
      <use xlink:href="#ArialUnicodeMS-52"/>
      <use xlink:href="#ArialUnicodeMS-65" x="72.216797"/>
      <use xlink:href="#ArialUnicodeMS-74" x="127.832031"/>
      <use xlink:href="#ArialUnicodeMS-61" x="155.615234"/>
      <use xlink:href="#ArialUnicodeMS-69" x="211.230469"/>
      <use xlink:href="#ArialUnicodeMS-6e" x="233.447266"/>
      <use xlink:href="#ArialUnicodeMS-65" x="289.0625"/>
      <use xlink:href="#ArialUnicodeMS-64" x="344.677734"/>
      <use xlink:href="#ArialUnicodeMS-20" x="400.292969"/>
      <use xlink:href="#ArialUnicodeMS-41" x="428.076172"/>
      <use xlink:href="#ArialUnicodeMS-73" x="494.775391"/>
      <use xlink:href="#ArialUnicodeMS-73" x="544.775391"/>
      <use xlink:href="#ArialUnicodeMS-65" x="594.775391"/>
      <use xlink:href="#ArialUnicodeMS-74" x="650.390625"/>
      <use xlink:href="#ArialUnicodeMS-20" x="678.173828"/>
      <use xlink:href="#ArialUnicodeMS-56" x="705.957031"/>
      <use xlink:href="#ArialUnicodeMS-61" x="772.65625"/>
      <use xlink:href="#ArialUnicodeMS-6c" x="828.271484"/>
      <use xlink:href="#ArialUnicodeMS-75" x="850.488281"/>
      <use xlink:href="#ArialUnicodeMS-65" x="906.103516"/>
     </g>
    </g>
   </g>
   <g id="line2d_1">
    <path d="M 43.925455 22.22 
L 47.554839 22.22 
L 51.184224 22.22 
L 54.813609 22.22 
L 58.442994 22.22 
L 62.072378 22.22 
L 65.701763 22.22 
L 69.331148 22.22 
L 72.960533 22.22 
L 76.589917 22.22 
L 80.219302 22.22 
L 83.848687 22.22 
L 87.478072 22.22 
L 91.107456 22.22 
L 94.736841 22.22 
L 98.366226 22.22 
L 101.995611 22.22 
L 105.624995 22.22 
L 109.25438 22.22 
L 112.883765 22.22 
L 116.51315 22.22 
L 120.142534 22.22 
L 123.771919 22.22 
L 127.401304 22.22 
L 131.030689 22.22 
L 134.660073 22.22 
L 138.289458 22.22 
L 141.918843 22.22 
L 145.548228 22.22 
L 149.177612 22.22 
L 152.806997 22.22 
L 156.436382 22.22 
L 160.065767 22.22 
L 163.695152 22.22 
L 167.324536 22.22 
L 170.953921 22.22 
L 174.583306 22.22 
L 178.212691 22.22 
L 181.842075 22.22 
L 185.47146 22.22 
L 189.100845 22.22 
L 192.73023 22.22 
L 196.359614 22.22 
L 199.988999 22.22 
L 203.618384 22.22 
L 207.247769 22.22 
L 210.877153 22.22 
L 214.506538 22.22 
L 218.135923 22.22 
L 221.765308 22.22 
L 225.394692 250.62 
L 229.024077 250.62 
L 232.653462 250.62 
L 236.282847 250.62 
L 239.912231 250.62 
L 243.541616 250.62 
L 247.171001 250.62 
L 250.800386 250.62 
L 254.42977 250.62 
L 258.059155 250.62 
L 261.68854 250.62 
L 265.317925 250.62 
L 268.947309 250.62 
L 272.576694 250.62 
L 276.206079 250.62 
L 279.835464 250.62 
L 283.464848 250.62 
L 287.094233 250.62 
L 290.723618 250.62 
L 294.353003 250.62 
L 297.982388 250.62 
L 301.611772 250.62 
L 305.241157 250.62 
L 308.870542 250.62 
L 312.499927 250.62 
L 316.129311 250.62 
L 319.758696 250.62 
L 323.388081 250.62 
L 327.017466 250.62 
L 330.64685 250.62 
L 334.276235 250.62 
L 337.90562 250.62 
L 341.535005 250.62 
L 345.164389 250.62 
L 348.793774 250.62 
L 352.423159 250.62 
L 356.052544 250.62 
L 359.681928 250.62 
L 363.311313 250.62 
L 366.940698 250.62 
L 370.570083 250.62 
L 374.199467 250.62 
L 377.828852 250.62 
L 381.458237 250.62 
L 385.087622 250.62 
L 388.717006 250.62 
L 392.346391 250.62 
L 395.975776 250.62 
L 399.605161 250.62 
L 403.234545 250.62 
" clip-path="url(#pdf56e97c2b)" style="fill: none; stroke-dasharray: 5.55,2.4; stroke-dashoffset: 0; stroke: #c0392b; stroke-width: 1.5"/>
   </g>
   <g id="line2d_2">
    <path d="M 43.925455 22.22 
L 47.554839 22.22 
L 51.184224 22.22 
L 54.813609 22.22 
L 58.442994 22.22 
L 62.072378 22.22 
L 65.701763 22.22 
L 69.331148 22.22 
L 72.960533 22.22 
L 76.589917 22.22 
L 80.219302 22.22 
L 83.848687 22.22 
L 87.478072 22.22 
L 91.107456 22.22 
L 94.736841 22.22 
L 98.366226 22.22 
L 101.995611 22.22 
L 105.624995 22.22 
L 109.25438 22.22 
L 112.883765 22.22 
L 116.51315 22.22 
L 120.142534 22.22 
L 123.771919 22.22 
L 127.401304 22.22 
L 131.030689 22.22 
L 134.660073 22.22 
L 138.289458 22.22 
L 141.918843 22.22 
L 145.548228 22.22 
L 149.177612 22.22 
L 152.806997 22.22 
L 156.436382 22.22 
L 160.065767 22.22 
L 163.695152 22.22 
L 167.324536 22.22 
L 170.953921 22.22 
L 174.583306 22.22 
L 178.212691 22.22 
L 181.842075 22.22 
L 185.47146 22.22 
L 189.100845 22.22 
L 192.73023 22.22 
L 196.359614 22.22 
L 199.988999 22.22 
L 203.618384 22.22 
L 207.247769 22.22 
L 210.877153 22.22 
L 214.506538 22.22 
L 218.135923 22.22 
L 221.765308 22.22 
L 225.394692 79.32 
L 229.024077 79.32 
L 232.653462 79.32 
L 236.282847 79.32 
L 239.912231 79.32 
L 243.541616 79.32 
L 247.171001 79.32 
L 250.800386 79.32 
L 254.42977 79.32 
L 258.059155 79.32 
L 261.68854 79.32 
L 265.317925 79.32 
L 268.947309 79.32 
L 272.576694 79.32 
L 276.206079 79.32 
L 279.835464 79.32 
L 283.464848 79.32 
L 287.094233 79.32 
L 290.723618 79.32 
L 294.353003 79.32 
L 297.982388 79.32 
L 301.611772 79.32 
L 305.241157 79.32 
L 308.870542 79.32 
L 312.499927 79.32 
L 316.129311 79.32 
L 319.758696 79.32 
L 323.388081 79.32 
L 327.017466 79.32 
L 330.64685 79.32 
L 334.276235 79.32 
L 337.90562 79.32 
L 341.535005 79.32 
L 345.164389 79.32 
L 348.793774 79.32 
L 352.423159 79.32 
L 356.052544 79.32 
L 359.681928 79.32 
L 363.311313 79.32 
L 366.940698 79.32 
L 370.570083 79.32 
L 374.199467 79.32 
L 377.828852 79.32 
L 381.458237 79.32 
L 385.087622 79.32 
L 388.717006 79.32 
L 392.346391 79.32 
L 395.975776 79.32 
L 399.605161 79.32 
L 403.234545 79.32 
" clip-path="url(#pdf56e97c2b)" style="fill: none; stroke: #16a085; stroke-width: 2; stroke-linecap: square"/>
   </g>
   <g id="line2d_3">
    <path d="M 223.58 262.04 
L 223.58 10.8 
" clip-path="url(#pdf56e97c2b)" style="fill: none; stroke-dasharray: 1.5,2.475; stroke-dashoffset: 0; stroke: #808080; stroke-opacity: 0.5; stroke-width: 1.5"/>
   </g>
   <g id="patch_3">
    <path d="M 25.96 262.04 
L 25.96 10.8 
" style="fill: none; stroke: #000000; stroke-width: 0.8; stroke-linejoin: miter; stroke-linecap: square"/>
   </g>
   <g id="patch_4">
    <path d="M 25.96 262.04 
L 421.2 262.04 
" style="fill: none; stroke: #000000; stroke-width: 0.8; stroke-linejoin: miter; stroke-linecap: square"/>
   </g>
   <g id="text_3">
    <!-- Extreme Disaster -->
    <g style="fill: #808080" transform="translate(230.766182 164.97) scale(0.1 -0.1)">
     <defs>
      <path id="ArialUnicodeMS-45" d="M 3928 0 
L 506 0 
L 506 4581 
L 3822 4581 
L 3822 4038 
L 1113 4038 
L 1113 2638 
L 3647 2638 
L 3647 2094 
L 1113 2094 
L 1113 544 
L 3928 544 
L 3928 0 
z
" transform="scale(0.015625)"/>
      <path id="ArialUnicodeMS-78" d="M 3156 0 
L 2463 0 
L 1600 1313 
L 728 0 
L 44 0 
L 1259 1728 
L 141 3316 
L 838 3316 
Q 1519 2288 1581 2169 
L 2394 3316 
L 3066 3316 
L 1919 1759 
L 3156 0 
z
" transform="scale(0.015625)"/>
      <path id="ArialUnicodeMS-72" d="M 2216 3213 
L 2022 2694 
Q 1813 2816 1613 2816 
Q 1297 2816 1134 2533 
Q 972 2250 972 1741 
L 972 0 
L 409 0 
L 409 3316 
L 922 3316 
L 922 2816 
L 934 2816 
Q 1203 3391 1638 3391 
Q 1925 3391 2216 3213 
z
" transform="scale(0.015625)"/>
      <path id="ArialUnicodeMS-44" d="M 513 4581 
L 2094 4581 
Q 2509 4581 2809 4539 
Q 3109 4497 3382 4333 
Q 3656 4169 3861 3881 
Q 4066 3594 4183 3220 
Q 4300 2847 4300 2316 
Q 4300 1303 3819 651 
Q 3338 0 2163 0 
L 513 0 
L 513 4581 
z
M 1119 544 
L 2100 544 
Q 2400 544 2636 581 
Q 2872 619 3114 784 
Q 3356 950 3515 1328 
Q 3675 1706 3675 2328 
Q 3675 2672 3614 2970 
Q 3553 3269 3389 3514 
Q 3225 3759 3012 3873 
Q 2800 3988 2598 4013 
Q 2397 4038 2081 4038 
L 1119 4038 
L 1119 544 
z
" transform="scale(0.015625)"/>
     </defs>
     <use xlink:href="#ArialUnicodeMS-45"/>
     <use xlink:href="#ArialUnicodeMS-78" x="66.699219"/>
     <use xlink:href="#ArialUnicodeMS-74" x="116.699219"/>
     <use xlink:href="#ArialUnicodeMS-72" x="144.482422"/>
     <use xlink:href="#ArialUnicodeMS-65" x="177.783203"/>
     <use xlink:href="#ArialUnicodeMS-6d" x="233.398438"/>
     <use xlink:href="#ArialUnicodeMS-65" x="316.699219"/>
     <use xlink:href="#ArialUnicodeMS-20" x="372.314453"/>
     <use xlink:href="#ArialUnicodeMS-44" x="400.097656"/>
     <use xlink:href="#ArialUnicodeMS-69" x="472.314453"/>
     <use xlink:href="#ArialUnicodeMS-73" x="494.53125"/>
     <use xlink:href="#ArialUnicodeMS-61" x="544.53125"/>
     <use xlink:href="#ArialUnicodeMS-73" x="600.146484"/>
     <use xlink:href="#ArialUnicodeMS-74" x="650.146484"/>
     <use xlink:href="#ArialUnicodeMS-65" x="677.929688"/>
     <use xlink:href="#ArialUnicodeMS-72" x="733.544922"/>
    </g>
   </g>
   <g id="legend_1">
    <g id="line2d_4">
     <path d="M 266.93125 23.457813 
L 276.93125 23.457813 
L 286.93125 23.457813 
" style="fill: none; stroke-dasharray: 5.55,2.4; stroke-dashoffset: 0; stroke: #c0392b; stroke-width: 1.5"/>
    </g>
    <g id="text_4">
     <!-- Traditional Financial Asset -->
     <g transform="translate(294.93125 26.957813) scale(0.1 -0.1)">
      <defs>
       <path id="ArialUnicodeMS-6f" d="M 1778 3391 
Q 2450 3391 2892 2953 
Q 3334 2516 3334 1709 
Q 3334 731 2856 326 
Q 2378 -78 1778 -78 
Q 1150 -78 687 337 
Q 225 753 225 1656 
Q 225 2531 672 2961 
Q 1119 3391 1778 3391 
z
M 1778 384 
Q 2259 384 2509 740 
Q 2759 1097 2759 1678 
Q 2759 2300 2476 2615 
Q 2194 2931 1778 2931 
Q 1350 2931 1075 2611 
Q 800 2291 800 1656 
Q 800 1025 1079 704 
Q 1359 384 1778 384 
z
" transform="scale(0.015625)"/>
       <path id="ArialUnicodeMS-46" d="M 3603 4038 
L 1119 4038 
L 1119 2619 
L 3272 2619 
L 3272 2075 
L 1119 2075 
L 1119 0 
L 513 0 
L 513 4581 
L 3603 4581 
L 3603 4038 
z
" transform="scale(0.015625)"/>
       <path id="ArialUnicodeMS-63" d="M 3144 1147 
Q 3034 513 2643 217 
Q 2253 -78 1759 -78 
Q 1038 -78 644 395 
Q 250 869 250 1650 
Q 250 2297 476 2686 
Q 703 3075 1043 3233 
Q 1384 3391 1759 3391 
Q 2272 3391 2636 3125 
Q 3000 2859 3084 2344 
L 2541 2259 
Q 2456 2594 2267 2762 
Q 2078 2931 1784 2931 
Q 1313 2931 1069 2597 
Q 825 2263 825 1663 
Q 825 1050 1064 717 
Q 1303 384 1753 384 
Q 2116 384 2323 592 
Q 2531 800 2584 1216 
L 3144 1147 
z
" transform="scale(0.015625)"/>
      </defs>
      <use xlink:href="#ArialUnicodeMS-54"/>
      <use xlink:href="#ArialUnicodeMS-72" x="61.083984"/>
      <use xlink:href="#ArialUnicodeMS-61" x="94.384766"/>
      <use xlink:href="#ArialUnicodeMS-64" x="150"/>
      <use xlink:href="#ArialUnicodeMS-69" x="205.615234"/>
      <use xlink:href="#ArialUnicodeMS-74" x="227.832031"/>
      <use xlink:href="#ArialUnicodeMS-69" x="255.615234"/>
      <use xlink:href="#ArialUnicodeMS-6f" x="277.832031"/>
      <use xlink:href="#ArialUnicodeMS-6e" x="333.447266"/>
      <use xlink:href="#ArialUnicodeMS-61" x="389.0625"/>
      <use xlink:href="#ArialUnicodeMS-6c" x="444.677734"/>
      <use xlink:href="#ArialUnicodeMS-20" x="466.894531"/>
      <use xlink:href="#ArialUnicodeMS-46" x="494.677734"/>
      <use xlink:href="#ArialUnicodeMS-69" x="555.761719"/>
      <use xlink:href="#ArialUnicodeMS-6e" x="577.978516"/>
      <use xlink:href="#ArialUnicodeMS-61" x="633.59375"/>
      <use xlink:href="#ArialUnicodeMS-6e" x="689.208984"/>
      <use xlink:href="#ArialUnicodeMS-63" x="744.824219"/>
      <use xlink:href="#ArialUnicodeMS-69" x="794.824219"/>
      <use xlink:href="#ArialUnicodeMS-61" x="817.041016"/>
      <use xlink:href="#ArialUnicodeMS-6c" x="872.65625"/>
      <use xlink:href="#ArialUnicodeMS-20" x="894.873047"/>
      <use xlink:href="#ArialUnicodeMS-41" x="922.65625"/>
      <use xlink:href="#ArialUnicodeMS-73" x="989.355469"/>
      <use xlink:href="#ArialUnicodeMS-73" x="1039.355469"/>
      <use xlink:href="#ArialUnicodeMS-65" x="1089.355469"/>
      <use xlink:href="#ArialUnicodeMS-74" x="1144.970703"/>
     </g>
    </g>
    <g id="line2d_5">
     <path d="M 266.93125 37.607813 
L 276.93125 37.607813 
L 286.93125 37.607813 
" style="fill: none; stroke: #16a085; stroke-width: 2; stroke-linecap: square"/>
    </g>
    <g id="text_5">
     <!-- Fine Art -->
     <g transform="translate(294.93125 41.107813) scale(0.1 -0.1)">
      <use xlink:href="#ArialUnicodeMS-46"/>
      <use xlink:href="#ArialUnicodeMS-69" x="61.083984"/>
      <use xlink:href="#ArialUnicodeMS-6e" x="83.300781"/>
      <use xlink:href="#ArialUnicodeMS-65" x="138.916016"/>
      <use xlink:href="#ArialUnicodeMS-20" x="194.53125"/>
      <use xlink:href="#ArialUnicodeMS-41" x="222.314453"/>
      <use xlink:href="#ArialUnicodeMS-72" x="289.013672"/>
      <use xlink:href="#ArialUnicodeMS-74" x="322.314453"/>
     </g>
    </g>
   </g>
  </g>
 </g>
 <defs>
  <clipPath id="pdf56e97c2b">
   <rect x="25.96" y="10.8" width="395.24" height="251.24"/>
  </clipPath>
 </defs>
</svg>
