<?xml version="1.0" encoding="utf-8" standalone="no"?>
<!DOCTYPE svg PUBLIC "-//W3C//DTD SVG 1.1//EN"
  "http://www.w3.org/Graphics/SVG/1.1/DTD/svg11.dtd">
<svg xmlns:xlink="http://www.w3.org/1999/xlink" width="432pt" height="288pt" viewBox="0 0 432 288" xmlns="http://www.w3.org/2000/svg" version="1.1">
 <metadata>
  <rdf:RDF xmlns:dc="http://purl.org/dc/elements/1.1/" xmlns:cc="http://creativecommons.org/ns#" xmlns:rdf="http://www.w3.org/1999/02/22-rdf-syntax-ns#">
   <cc:Work>
    <dc:type rdf:resource="http://purl.org/dc/dcmitype/StillImage"/>
    <dc:date>2026-05-11T09:52:22.264020</dc:date>
    <dc:format>image/svg+xml</dc:format>
    <dc:creator>
     <cc:Agent>
      <dc:title>Matplotlib v3.9.4, https://matplotlib.org/</dc:title>
     </cc:Agent>
    </dc:creator>
   </cc:Work>
  </rdf:RDF>
 </metadata>
 <defs>
  <style type="text/css">*{stroke-linejoin: round; stroke-linecap: butt}</style>
 </defs>
 <g id="figure_1">
  <g id="patch_1">
   <path d="M 0 288 
L 432 288 
L 432 0 
L 0 0 
z
" style="fill: #ffffff"/>
  </g>
  <g id="axes_1">
   <g id="patch_2">
    <path d="M 25.96 262.04 
L 421.2 262.04 
L 421.2 10.8 
L 25.96 10.8 
z
" style="fill: #ffffff"/>
   </g>
   <g id="matplotlib.axis_1">
    <g id="text_1">
     <!-- 时间 -->
     <g transform="translate(211.58 274.629375) scale(0.12 -0.12)">
      <defs>
       <path id="ArialUnicodeMS-65f6" d="M 5931 3481 
L 5259 3481 
L 5259 72 
Q 5259 -122 5142 -259 
Q 5025 -397 4863 -397 
L 4281 -397 
L 4097 122 
L 4672 78 
Q 4775 66 4775 191 
L 4775 3481 
L 2784 3481 
L 2784 3950 
L 4775 3950 
L 4775 5306 
L 5259 5306 
L 5259 3950 
L 5931 3950 
L 5931 3481 
z
M 2463 97 
L 1978 97 
L 1978 569 
L 1147 569 
L 1147 97 
L 659 97 
L 659 4313 
L 2463 4313 
L 2463 97 
z
M 1978 2675 
L 1978 3847 
L 1147 3847 
L 1147 2675 
L 1978 2675 
z
M 1978 1038 
L 1978 2209 
L 1147 2209 
L 1147 1038 
L 1978 1038 
z
M 4306 1575 
L 3903 1300 
Q 3594 2103 2888 2725 
L 3272 2994 
Q 3997 2375 4306 1575 
z
" transform="scale(0.015625)"/>
       <path id="ArialUnicodeMS-95f4" d="M 2463 4313 
L 2088 4006 
Q 1600 4669 1094 4984 
L 1484 5247 
Q 2044 4888 2463 4313 
z
M 5497 178 
Q 5497 -50 5353 -181 
Q 5209 -313 4853 -313 
Q 4753 -313 4506 -300 
L 4366 147 
Q 4631 106 4806 106 
Q 4991 106 5002 142 
Q 5013 178 5013 275 
L 5013 4453 
L 2841 4453 
L 2841 4922 
L 5497 4922 
L 5497 178 
z
M 1125 -384 
L 641 -384 
L 641 4197 
L 1125 4197 
L 1125 -384 
z
M 4306 481 
L 3822 481 
L 3822 813 
L 2375 813 
L 2375 481 
L 1888 481 
L 1888 3669 
L 4306 3669 
L 4306 481 
z
M 3822 2559 
L 3822 3200 
L 2375 3200 
L 2375 2559 
L 3822 2559 
z
M 3822 1281 
L 3822 2094 
L 2375 2094 
L 2375 1281 
L 3822 1281 
z
" transform="scale(0.015625)"/>
      </defs>
      <use xlink:href="#ArialUnicodeMS-65f6"/>
      <use xlink:href="#ArialUnicodeMS-95f4" x="100"/>
     </g>
    </g>
   </g>
   <g id="matplotlib.axis_2">
    <g id="text_2">
     <!-- 资产留存价值 -->
     <g transform="translate(19.569375 172.42) rotate(-90) scale(0.12 -0.12)">
      <defs>
       <path id="ArialUnicodeMS-8d44" d="M 5522 4863 
Q 5541 4597 5477 4328 
Q 5413 4059 5131 3622 
L 4697 3859 
Q 4913 4106 5013 4397 
L 3144 4397 
Q 2878 3913 2203 3444 
L 1875 3822 
Q 2672 4297 3003 5306 
L 3431 5153 
Q 3403 5059 3322 4863 
L 5522 4863 
z
M 1766 4550 
L 1409 4172 
Q 1103 4628 594 4941 
L 891 5234 
Q 1459 4978 1766 4550 
z
M 6009 2778 
L 5678 2369 
Q 4472 2688 3788 3481 
Q 3591 3172 3142 2912 
Q 2694 2653 2222 2578 
L 2222 2572 
L 4813 2572 
L 4813 575 
L 4325 575 
L 4325 2106 
L 2119 2106 
L 2119 575 
L 1631 575 
L 1631 2572 
L 1913 2572 
L 1716 2847 
Q 2591 3081 3020 3382 
Q 3450 3684 3641 4250 
L 4091 4147 
L 4006 3897 
Q 4269 3525 4686 3267 
Q 5103 3009 6009 2778 
z
M 1806 3688 
Q 1628 3134 831 2369 
L 453 2713 
Q 1106 3253 1453 3922 
L 1806 3688 
z
M 3450 1906 
Q 3453 572 2761 120 
Q 2069 -331 819 -384 
L 594 84 
Q 1419 134 1742 186 
Q 2066 238 2409 461 
Q 2753 684 2848 979 
Q 2944 1275 2988 1906 
L 3450 1906 
z
M 5503 0 
L 5259 -447 
Q 4506 47 3272 306 
L 3494 722 
Q 4728 478 5503 0 
z
" transform="scale(0.015625)"/>
       <path id="ArialUnicodeMS-4ea7" d="M 5691 3994 
L 481 3994 
L 481 4434 
L 3053 4434 
Q 2816 4841 2431 5125 
L 2766 5394 
Q 3319 4947 3578 4550 
L 3413 4447 
L 3413 4434 
L 5691 4434 
L 5691 3994 
z
M 5691 2547 
L 1509 2547 
L 1509 1375 
Q 1509 219 519 -403 
L 159 -38 
Q 1025 456 1025 1516 
L 1025 2988 
L 2278 2988 
Q 2122 3325 1691 3681 
L 1997 3938 
Q 2450 3641 2803 3138 
L 2584 2988 
L 3413 2988 
Q 3856 3441 4056 3928 
L 4481 3700 
Q 4278 3306 4000 2988 
L 5691 2988 
L 5691 2547 
z
" transform="scale(0.015625)"/>
       <path id="ArialUnicodeMS-7559" d="M 5741 5019 
Q 5666 3128 5442 2879 
Q 5219 2631 4959 2631 
Q 4856 2631 4331 2772 
L 4275 3278 
Q 4738 3097 4909 3097 
Q 5153 3097 5184 3641 
L 5241 4550 
L 4391 4550 
Q 4303 3022 3109 2547 
L 2869 2847 
L 2528 2688 
Q 2475 2938 2431 3003 
L 728 2559 
L 481 3028 
L 891 3116 
L 891 4666 
Q 2113 4803 2809 5234 
L 3138 4897 
Q 2259 4422 1369 4288 
L 1369 3194 
L 2297 3406 
Q 2109 3738 1953 3884 
L 2363 4091 
Q 2756 3669 2963 3003 
Q 3841 3400 3909 4550 
L 3250 4550 
L 3250 5019 
L 5741 5019 
z
M 5269 -403 
L 4781 -403 
L 4781 -25 
L 1625 -25 
L 1625 -434 
L 1141 -434 
L 1141 2463 
L 5269 2463 
L 5269 -403 
z
M 4781 1472 
L 4781 1997 
L 3450 1997 
L 3450 1472 
L 4781 1472 
z
M 2963 1472 
L 2963 1997 
L 1625 1997 
L 1625 1472 
L 2963 1472 
z
M 4781 441 
L 4781 1006 
L 3450 1006 
L 3450 441 
L 4781 441 
z
M 2963 441 
L 2963 1006 
L 1625 1006 
L 1625 441 
L 2963 441 
z
" transform="scale(0.015625)"/>
       <path id="ArialUnicodeMS-5b58" d="M 5850 4013 
L 2425 4013 
L 2028 3238 
L 2028 -441 
L 1544 -441 
L 1544 2491 
Q 1334 2172 738 1594 
L 300 1913 
Q 1272 2759 1875 4013 
L 756 4013 
L 756 4481 
L 2081 4481 
Q 2203 4744 2344 5369 
L 2797 5209 
Q 2778 5038 2606 4481 
L 5850 4481 
L 5850 4013 
z
M 6034 1472 
L 4347 1472 
L 4347 153 
Q 4347 -134 4144 -265 
Q 3941 -397 3219 -372 
L 3009 128 
L 3628 128 
Q 3841 128 3841 366 
L 3841 1472 
L 2253 1472 
L 2253 1941 
L 3841 1941 
L 3841 2425 
Q 4309 2631 4697 3022 
L 2688 3022 
L 2688 3488 
L 5422 3488 
L 5422 3047 
Q 4831 2441 4347 2156 
L 4347 1941 
L 6034 1941 
L 6034 1472 
z
" transform="scale(0.015625)"/>
       <path id="ArialUnicodeMS-4ef7" d="M 6284 2975 
L 5900 2572 
Q 4847 3084 3928 4519 
Q 3178 3188 2041 2584 
L 1697 2981 
Q 3113 3628 3859 5422 
L 4281 5184 
L 4206 4997 
Q 5038 3547 6284 2975 
z
M 2241 5172 
Q 2156 4775 1913 4147 
L 1672 3531 
L 1672 -428 
L 1184 -428 
L 1184 2663 
Q 1113 2534 659 2041 
L 213 2322 
Q 1372 3522 1784 5344 
L 2241 5172 
z
M 4984 -409 
L 4500 -409 
L 4500 3116 
L 4984 3116 
L 4984 -409 
z
M 3397 1791 
Q 3397 1034 3097 531 
Q 2797 28 2059 -475 
L 1697 -72 
Q 2209 191 2561 647 
Q 2913 1103 2913 1528 
L 2913 3116 
L 3397 3116 
L 3397 1791 
z
" transform="scale(0.015625)"/>
       <path id="ArialUnicodeMS-503c" d="M 6034 -172 
L 1791 -172 
L 1791 294 
L 2344 294 
L 2344 3853 
L 3425 3853 
Q 3544 4109 3609 4341 
L 1925 4341 
L 1919 4672 
Q 1841 4369 1691 3981 
L 1544 3622 
L 1544 -434 
L 1056 -434 
L 1056 2753 
Q 859 2466 634 2241 
L 238 2516 
Q 1222 3619 1588 5325 
L 2028 5172 
Q 2009 5038 1953 4806 
L 3731 4806 
Q 3772 4997 3781 5338 
L 4275 5253 
Q 4275 5013 4225 4806 
L 5813 4806 
L 5813 4341 
L 4134 4341 
Q 4091 4188 3956 3853 
L 5409 3853 
L 5409 294 
L 6034 294 
L 6034 -172 
z
M 4922 2994 
L 4922 3384 
L 2828 3384 
L 2828 2994 
L 4922 2994 
z
M 4922 2138 
L 4922 2584 
L 2828 2584 
L 2828 2138 
L 4922 2138 
z
M 4922 1241 
L 4922 1716 
L 2828 1716 
L 2828 1241 
L 4922 1241 
z
M 4922 294 
L 4922 825 
L 2828 825 
L 2828 294 
L 4922 294 
z
" transform="scale(0.015625)"/>
      </defs>
      <use xlink:href="#ArialUnicodeMS-8d44"/>
      <use xlink:href="#ArialUnicodeMS-4ea7" x="100"/>
      <use xlink:href="#ArialUnicodeMS-7559" x="200"/>
      <use xlink:href="#ArialUnicodeMS-5b58" x="300"/>
      <use xlink:href="#ArialUnicodeMS-4ef7" x="400"/>
      <use xlink:href="#ArialUnicodeMS-503c" x="500"/>
     </g>
    </g>
   </g>
   <g id="line2d_1">
    <path d="M 43.925455 22.22 
L 47.554839 22.22 
L 51.184224 22.22 
L 54.813609 22.22 
L 58.442994 22.22 
L 62.072378 22.22 
L 65.701763 22.22 
L 69.331148 22.22 
L 72.960533 22.22 
L 76.589917 22.22 
L 80.219302 22.22 
L 83.848687 22.22 
L 87.478072 22.22 
L 91.107456 22.22 
L 94.736841 22.22 
L 98.366226 22.22 
L 101.995611 22.22 
L 105.624995 22.22 
L 109.25438 22.22 
L 112.883765 22.22 
L 116.51315 22.22 
L 120.142534 22.22 
L 123.771919 22.22 
L 127.401304 22.22 
L 131.030689 22.22 
L 134.660073 22.22 
L 138.289458 22.22 
L 141.918843 22.22 
L 145.548228 22.22 
L 149.177612 22.22 
L 152.806997 22.22 
L 156.436382 22.22 
L 160.065767 22.22 
L 163.695152 22.22 
L 167.324536 22.22 
L 170.953921 22.22 
L 174.583306 22.22 
L 178.212691 22.22 
L 181.842075 22.22 
L 185.47146 22.22 
L 189.100845 22.22 
L 192.73023 22.22 
L 196.359614 22.22 
L 199.988999 22.22 
L 203.618384 22.22 
L 207.247769 22.22 
L 210.877153 22.22 
L 214.506538 22.22 
L 218.135923 22.22 
L 221.765308 22.22 
L 225.394692 250.62 
L 229.024077 250.62 
L 232.653462 250.62 
L 236.282847 250.62 
L 239.912231 250.62 
L 243.541616 250.62 
L 247.171001 250.62 
L 250.800386 250.62 
L 254.42977 250.62 
L 258.059155 250.62 
L 261.68854 250.62 
L 265.317925 250.62 
L 268.947309 250.62 
L 272.576694 250.62 
L 276.206079 250.62 
L 279.835464 250.62 
L 283.464848 250.62 
L 287.094233 250.62 
L 290.723618 250.62 
L 294.353003 250.62 
L 297.982388 250.62 
L 301.611772 250.62 
L 305.241157 250.62 
L 308.870542 250.62 
L 312.499927 250.62 
L 316.129311 250.62 
L 319.758696 250.62 
L 323.388081 250.62 
L 327.017466 250.62 
L 330.64685 250.62 
L 334.276235 250.62 
L 337.90562 250.62 
L 341.535005 250.62 
L 345.164389 250.62 
L 348.793774 250.62 
L 352.423159 250.62 
L 356.052544 250.62 
L 359.681928 250.62 
L 363.311313 250.62 
L 366.940698 250.62 
L 370.570083 250.62 
L 374.199467 250.62 
L 377.828852 250.62 
L 381.458237 250.62 
L 385.087622 250.62 
L 388.717006 250.62 
L 392.346391 250.62 
L 395.975776 250.62 
L 399.605161 250.62 
L 403.234545 250.62 
" clip-path="url(#p183208438b)" style="fill: none; stroke-dasharray: 5.55,2.4; stroke-dashoffset: 0; stroke: #c0392b; stroke-width: 1.5"/>
   </g>
   <g id="line2d_2">
    <path d="M 43.925455 22.22 
L 47.554839 22.22 
L 51.184224 22.22 
L 54.813609 22.22 
L 58.442994 22.22 
L 62.072378 22.22 
L 65.701763 22.22 
L 69.331148 22.22 
L 72.960533 22.22 
L 76.589917 22.22 
L 80.219302 22.22 
L 83.848687 22.22 
L 87.478072 22.22 
L 91.107456 22.22 
L 94.736841 22.22 
L 98.366226 22.22 
L 101.995611 22.22 
L 105.624995 22.22 
L 109.25438 22.22 
L 112.883765 22.22 
L 116.51315 22.22 
L 120.142534 22.22 
L 123.771919 22.22 
L 127.401304 22.22 
L 131.030689 22.22 
L 134.660073 22.22 
L 138.289458 22.22 
L 141.918843 22.22 
L 145.548228 22.22 
L 149.177612 22.22 
L 152.806997 22.22 
L 156.436382 22.22 
L 160.065767 22.22 
L 163.695152 22.22 
L 167.324536 22.22 
L 170.953921 22.22 
L 174.583306 22.22 
L 178.212691 22.22 
L 181.842075 22.22 
L 185.47146 22.22 
L 189.100845 22.22 
L 192.73023 22.22 
L 196.359614 22.22 
L 199.988999 22.22 
L 203.618384 22.22 
L 207.247769 22.22 
L 210.877153 22.22 
L 214.506538 22.22 
L 218.135923 22.22 
L 221.765308 22.22 
L 225.394692 79.32 
L 229.024077 79.32 
L 232.653462 79.32 
L 236.282847 79.32 
L 239.912231 79.32 
L 243.541616 79.32 
L 247.171001 79.32 
L 250.800386 79.32 
L 254.42977 79.32 
L 258.059155 79.32 
L 261.68854 79.32 
L 265.317925 79.32 
L 268.947309 79.32 
L 272.576694 79.32 
L 276.206079 79.32 
L 279.835464 79.32 
L 283.464848 79.32 
L 287.094233 79.32 
L 290.723618 79.32 
L 294.353003 79.32 
L 297.982388 79.32 
L 301.611772 79.32 
L 305.241157 79.32 
L 308.870542 79.32 
L 312.499927 79.32 
L 316.129311 79.32 
L 319.758696 79.32 
L 323.388081 79.32 
L 327.017466 79.32 
L 330.64685 79.32 
L 334.276235 79.32 
L 337.90562 79.32 
L 341.535005 79.32 
L 345.164389 79.32 
L 348.793774 79.32 
L 352.423159 79.32 
L 356.052544 79.32 
L 359.681928 79.32 
L 363.311313 79.32 
L 366.940698 79.32 
L 370.570083 79.32 
L 374.199467 79.32 
L 377.828852 79.32 
L 381.458237 79.32 
L 385.087622 79.32 
L 388.717006 79.32 
L 392.346391 79.32 
L 395.975776 79.32 
L 399.605161 79.32 
L 403.234545 79.32 
" clip-path="url(#p183208438b)" style="fill: none; stroke: #16a085; stroke-width: 2; stroke-linecap: square"/>
   </g>
   <g id="line2d_3">
    <path d="M 223.58 262.04 
L 223.58 10.8 
" clip-path="url(#p183208438b)" style="fill: none; stroke-dasharray: 1.5,2.475; stroke-dashoffset: 0; stroke: #808080; stroke-opacity: 0.5; stroke-width: 1.5"/>
   </g>
   <g id="patch_3">
    <path d="M 25.96 262.04 
L 25.96 10.8 
" style="fill: none; stroke: #000000; stroke-width: 0.8; stroke-linejoin: miter; stroke-linecap: square"/>
   </g>
   <g id="patch_4">
    <path d="M 25.96 262.04 
L 421.2 262.04 
" style="fill: none; stroke: #000000; stroke-width: 0.8; stroke-linejoin: miter; stroke-linecap: square"/>
   </g>
   <g id="text_3">
    <!-- 极端灾难发生 -->
    <g style="fill: #808080" transform="translate(230.766182 164.97) scale(0.1 -0.1)">
     <defs>
      <path id="ArialUnicodeMS-6781" d="M 6222 -91 
L 5797 -469 
Q 4819 78 4475 475 
Q 3747 -184 3175 -453 
L 2828 -91 
Q 3834 481 4153 863 
Q 3713 1453 3488 2053 
Q 3488 2059 3491 2056 
Q 3494 2050 3450 1828 
Q 3347 1284 3097 778 
Q 2841 256 2478 -128 
L 2259 -359 
L 1894 -56 
L 1894 -403 
L 1416 -409 
L 1416 2169 
L 1403 2169 
Q 1244 1688 691 1050 
L 288 1369 
Q 1134 2266 1344 3597 
L 513 3597 
L 513 4063 
L 1416 4063 
L 1416 5306 
L 1894 5306 
L 1894 4063 
L 2688 4063 
L 2688 3597 
L 1900 3597 
L 1900 2944 
L 2034 3041 
Q 2684 2434 2809 1972 
L 2375 1684 
Q 2278 2113 1894 2491 
L 1894 25 
Q 2519 681 2764 1229 
Q 3009 1778 3009 2950 
L 3009 4550 
L 2478 4550 
L 2478 5025 
L 5484 5025 
L 5484 4538 
Q 5219 3819 4991 3397 
L 5734 3397 
Q 5725 1919 4813 844 
Q 5278 316 6222 -91 
z
M 5253 2938 
L 4409 2938 
L 4403 3372 
Q 4756 3966 4966 4550 
L 3506 4550 
L 3506 3519 
Q 3809 2106 4459 1247 
Q 5094 1891 5253 2938 
z
" transform="scale(0.015625)"/>
      <path id="ArialUnicodeMS-7aef" d="M 5734 3525 
L 2638 3525 
L 2638 4891 
L 3122 4891 
L 3122 3994 
L 3938 3994 
L 3938 5313 
L 4422 5313 
L 4422 3994 
L 5247 3994 
L 5247 4909 
L 5734 4909 
L 5734 3525 
z
M 2463 3572 
L 372 3572 
L 372 4038 
L 1253 4038 
L 1253 5275 
L 1741 5275 
L 1741 4038 
L 2463 4038 
L 2463 3572 
z
M 2491 709 
L 556 166 
L 275 653 
Q 1097 816 1447 916 
Q 1775 1891 1888 3309 
L 2363 3219 
Q 2291 2153 1959 1056 
Q 1966 1056 2491 1203 
L 2491 709 
z
M 1331 1222 
L 878 1106 
Q 828 2456 544 3116 
L 972 3225 
Q 1272 2578 1331 1222 
z
M 6028 2669 
L 4513 2669 
Q 4413 2269 4366 2181 
L 5813 2181 
L 5813 306 
Q 5813 -41 5630 -198 
Q 5447 -356 5172 -347 
L 4838 -331 
L 4678 147 
Q 4966 116 4984 116 
Q 5166 116 5245 156 
Q 5325 197 5325 353 
L 5325 1716 
L 4891 1716 
L 4891 191 
L 4428 191 
L 4428 1716 
L 3981 1716 
L 3981 -63 
L 3519 -63 
L 3519 1716 
L 3091 1716 
L 3091 -447 
L 2606 -447 
L 2606 2181 
L 3822 2181 
Q 3991 2409 4044 2669 
L 2438 2669 
L 2438 3138 
L 6028 3138 
L 6028 2669 
z
" transform="scale(0.015625)"/>
      <path id="ArialUnicodeMS-707e" d="M 5716 3250 
L 5228 3250 
L 5228 3922 
L 997 3922 
L 997 3272 
L 513 3272 
L 513 4391 
L 2956 4391 
Q 2791 4738 2316 5050 
L 2688 5344 
Q 3266 4984 3500 4544 
L 3316 4409 
L 3316 4391 
L 5716 4391 
L 5716 3250 
z
M 5919 -38 
L 5600 -459 
Q 4638 -34 4105 458 
Q 3572 950 3175 1734 
Q 2713 138 616 -447 
L 288 -13 
Q 2056 497 2517 1430 
Q 2978 2363 2931 3694 
L 3406 3634 
Q 3413 3338 3391 2881 
L 3366 2522 
Q 3366 2406 3514 2079 
Q 3663 1753 3820 1518 
Q 3978 1284 4175 1078 
Q 4372 872 4617 689 
Q 4863 506 5211 303 
Q 5559 100 5919 -38 
z
M 2034 3053 
Q 1884 2072 1416 1453 
L 959 1709 
Q 1484 2341 1581 3181 
L 2034 3053 
z
M 5228 2975 
Q 5134 2059 4781 1491 
L 4275 1672 
Q 4741 2338 4769 3097 
L 5228 2975 
z
" transform="scale(0.015625)"/>
      <path id="ArialUnicodeMS-96be" d="M 5966 97 
L 3309 97 
L 3309 -391 
L 2822 -391 
L 2822 2681 
L 2816 2681 
Q 2700 2400 2497 2175 
L 2144 2584 
Q 2788 3400 3144 5275 
L 3584 5159 
Q 3475 4572 3372 4213 
L 5869 4213 
L 5869 3744 
L 4678 3744 
L 4678 3003 
L 5766 3003 
L 5766 2534 
L 4678 2534 
L 4678 1791 
L 5766 1791 
L 5766 1325 
L 4678 1325 
L 4678 563 
L 5966 563 
L 5966 97 
z
M 4191 3003 
L 4191 3744 
L 3309 3744 
L 3309 3003 
L 4191 3003 
z
M 4191 1791 
L 4191 2534 
L 3309 2534 
L 3309 1791 
L 4191 1791 
z
M 4191 563 
L 4191 1325 
L 3309 1325 
L 3309 563 
L 4191 563 
z
M 4838 4513 
L 4481 4250 
Q 4216 4684 3781 4997 
L 4103 5253 
Q 4584 4963 4838 4513 
z
M 2597 525 
L 2156 263 
Q 1984 1025 1734 1497 
Q 1325 509 775 0 
L 603 -159 
L 256 191 
Q 1041 959 1447 2016 
Q 925 2841 475 3309 
L 825 3572 
Q 1300 3109 1600 2675 
Q 1713 3038 1881 3981 
L 441 3981 
L 441 4447 
L 2425 4447 
Q 2359 3491 1959 2069 
Q 2384 1328 2597 525 
z
" transform="scale(0.015625)"/>
      <path id="ArialUnicodeMS-53d1" d="M 6016 6 
L 5684 -384 
Q 5053 -234 4711 -46 
Q 4369 141 3725 609 
Q 2963 -134 1703 -372 
L 1422 31 
Q 2738 313 3384 922 
Q 2891 1450 2522 2181 
Q 2066 844 594 -225 
L 244 184 
Q 1922 1250 2400 3278 
L 934 3278 
L 934 3706 
L 1522 5172 
L 1953 4947 
L 1472 3744 
L 2522 3744 
Q 2663 4269 2772 5300 
L 3238 5178 
Q 3097 4141 3009 3744 
L 5766 3744 
L 5766 3278 
L 2900 3278 
L 2731 2778 
L 4922 2778 
L 4922 2381 
Q 4559 1531 4025 934 
Q 4781 309 6016 6 
z
M 4378 2309 
L 2975 2309 
Q 3363 1584 3700 1269 
Q 4141 1759 4378 2309 
z
M 4941 4172 
L 4550 3866 
Q 4244 4381 3531 4788 
L 3866 5100 
Q 4519 4753 4941 4172 
z
" transform="scale(0.015625)"/>
      <path id="ArialUnicodeMS-751f" d="M 5978 -50 
L 697 -50 
L 697 416 
L 2981 416 
L 2981 1778 
L 1325 1778 
L 1325 2247 
L 2981 2247 
L 2981 3444 
L 1734 3444 
Q 1547 2906 872 2188 
L 384 2450 
Q 1459 3413 1556 4831 
L 2041 4684 
Q 2041 4438 1906 3909 
L 2981 3909 
L 2981 5275 
L 3469 5275 
L 3469 3909 
L 5569 3909 
L 5569 3444 
L 3469 3444 
L 3469 2247 
L 5269 2247 
L 5269 1778 
L 3469 1778 
L 3469 416 
L 5978 416 
L 5978 -50 
z
" transform="scale(0.015625)"/>
     </defs>
     <use xlink:href="#ArialUnicodeMS-6781"/>
     <use xlink:href="#ArialUnicodeMS-7aef" x="100"/>
     <use xlink:href="#ArialUnicodeMS-707e" x="200"/>
     <use xlink:href="#ArialUnicodeMS-96be" x="300"/>
     <use xlink:href="#ArialUnicodeMS-53d1" x="400"/>
     <use xlink:href="#ArialUnicodeMS-751f" x="500"/>
    </g>
   </g>
   <g id="legend_1">
    <g id="line2d_4">
     <path d="M 324.2 23.575 
L 334.2 23.575 
L 344.2 23.575 
" style="fill: none; stroke-dasharray: 5.55,2.4; stroke-dashoffset: 0; stroke: #c0392b; stroke-width: 1.5"/>
    </g>
    <g id="text_4">
     <!-- 传统金融资产 -->
     <g transform="translate(352.2 27.075) scale(0.1 -0.1)">
      <defs>
       <path id="ArialUnicodeMS-4f20" d="M 5778 2791 
L 3506 2791 
L 3291 2150 
L 5409 2150 
L 5409 1766 
Q 4894 1028 4422 563 
Q 4847 391 5344 -19 
L 4991 -422 
Q 4031 394 2753 659 
L 3034 1063 
Q 3878 806 3988 763 
Q 4309 1063 4775 1684 
L 3128 1684 
L 3003 1331 
L 2547 1503 
L 3034 2791 
L 1894 2791 
L 1894 3225 
L 3163 3225 
L 3378 3950 
L 2272 3950 
L 2272 4384 
L 3506 4384 
L 3763 5319 
L 4206 5141 
L 3988 4384 
L 5466 4384 
L 5466 3950 
L 3853 3950 
L 3653 3225 
L 5778 3225 
L 5778 2791 
z
M 2169 5094 
Q 2103 4713 1938 4109 
L 1772 3559 
L 1772 -384 
L 1313 -384 
L 1313 2644 
L 1300 2644 
Q 1016 2081 538 1606 
L 178 1966 
Q 1334 3053 1766 5319 
L 2169 5094 
z
" transform="scale(0.015625)"/>
       <path id="ArialUnicodeMS-7edf" d="M 5913 2478 
L 5503 2228 
Q 5319 2544 5259 2606 
Q 4153 2541 2547 2363 
L 2272 2875 
Q 3269 3503 3559 4084 
L 2356 4084 
L 2356 4550 
L 3878 4550 
Q 3725 4731 3128 5044 
L 3475 5363 
Q 4016 5141 4428 4697 
L 4256 4550 
L 5747 4550 
L 5747 4084 
L 4153 4084 
Q 3747 3338 3053 2919 
L 3066 2906 
L 4903 3053 
Q 4684 3288 4403 3506 
L 4850 3744 
Q 5534 3147 5913 2478 
z
M 2553 1663 
Q 1341 1369 622 1147 
L 391 1575 
Q 1022 2209 1306 2625 
L 1294 2638 
Q 1284 2631 1023 2561 
Q 763 2491 609 2438 
L 366 2881 
Q 853 3669 1441 5166 
L 1875 4966 
Q 1300 3650 947 3022 
L 1619 3163 
Q 1797 3416 2047 3922 
L 2503 3719 
Q 1888 2469 1153 1784 
L 1166 1772 
L 2553 2100 
L 2553 1663 
z
M 6028 947 
Q 5978 609 5822 225 
Q 5666 -159 5288 -159 
L 4788 -159 
Q 4547 -159 4395 -31 
Q 4244 97 4244 325 
L 4244 2194 
L 4728 2194 
L 4728 447 
Q 4728 306 4891 306 
L 5259 306 
Q 5356 306 5418 448 
Q 5481 591 5581 1088 
L 6028 947 
z
M 3659 2194 
Q 3659 1441 3579 1006 
Q 3500 572 3165 206 
Q 2831 -159 2216 -453 
L 1869 0 
Q 2388 150 2713 439 
Q 3038 728 3103 1103 
Q 3169 1478 3169 2194 
L 3659 2194 
z
M 2688 666 
L 647 -50 
L 409 397 
L 2688 1141 
L 2688 666 
z
" transform="scale(0.015625)"/>
       <path id="ArialUnicodeMS-91d1" d="M 6144 3163 
L 5753 2766 
Q 5238 2934 4647 3328 
L 4647 3072 
L 3488 3072 
L 3488 2328 
L 5228 2328 
L 5228 1869 
L 3488 1869 
L 3488 325 
L 5778 325 
L 5778 -134 
L 709 -134 
L 709 325 
L 3003 325 
L 3003 1869 
L 1234 1869 
L 1234 2328 
L 3003 2328 
L 3003 3072 
L 1838 3072 
L 1838 3341 
Q 1266 2969 672 2700 
L 347 3103 
Q 2378 4019 3225 5478 
L 3622 5209 
L 3531 5044 
Q 4700 3588 6144 3163 
z
M 4378 3525 
Q 3634 4109 3244 4647 
Q 2638 3903 2113 3547 
L 2113 3525 
L 4378 3525 
z
M 5025 1522 
Q 4675 769 4141 359 
L 3706 659 
Q 4281 1072 4634 1806 
L 5025 1522 
z
M 2644 628 
L 2175 428 
Q 1897 1125 1441 1544 
L 1875 1747 
Q 2356 1334 2644 628 
z
" transform="scale(0.015625)"/>
       <path id="ArialUnicodeMS-878d" d="M 6188 -153 
Q 5934 -256 5728 -306 
Q 5663 131 5631 213 
Q 5316 122 3653 -219 
L 3463 166 
L 3450 166 
Q 3425 -9 3290 -151 
Q 3156 -294 2939 -303 
Q 2722 -313 2431 -313 
L 2284 122 
Q 2400 128 2537 109 
Q 2675 91 2722 91 
Q 2894 91 2948 158 
Q 3003 225 3003 459 
L 3003 1403 
Q 2700 1391 2512 1469 
Q 2325 1547 2289 1706 
Q 2253 1866 2203 2369 
L 1906 2375 
Q 1925 2031 1764 1711 
Q 1603 1391 1269 1281 
L 1269 1269 
L 2875 1269 
Q 2884 1125 2881 831 
L 2222 831 
L 2222 -31 
L 1772 -31 
L 1772 831 
L 1203 831 
L 1203 1269 
L 1069 1478 
L 1056 1478 
L 1056 -397 
L 603 -397 
L 603 2847 
L 3456 2847 
L 3456 263 
Q 4519 438 4575 453 
L 4575 1619 
L 3794 1619 
L 3794 4006 
L 4575 4006 
L 4575 5288 
L 5031 5281 
L 5031 4006 
L 5819 4006 
L 5819 1619 
L 5038 1619 
L 5038 513 
Q 5075 525 5265 558 
Q 5456 591 5503 616 
Q 5488 641 5414 817 
Q 5341 994 5241 1106 
L 5644 1253 
Q 6047 741 6188 -153 
z
M 5388 2094 
L 5388 3547 
L 5031 3541 
L 5031 2094 
L 5388 2094 
z
M 4575 2094 
L 4575 3547 
L 4244 3547 
L 4244 2094 
L 4575 2094 
z
M 3009 1844 
L 3009 2375 
L 2638 2375 
L 2638 1931 
Q 2666 1884 2692 1876 
Q 2719 1869 2819 1859 
Q 2919 1850 3009 1844 
z
M 1472 2375 
L 1063 2375 
L 1063 1650 
Q 1513 1853 1472 2375 
z
M 3694 4659 
L 409 4659 
L 409 5119 
L 3694 5119 
L 3694 4659 
z
M 3156 3122 
L 928 3122 
L 928 4372 
L 3156 4372 
L 3156 3122 
z
M 2681 3559 
L 2681 3922 
L 1394 3922 
L 1394 3559 
L 2681 3559 
z
" transform="scale(0.015625)"/>
      </defs>
      <use xlink:href="#ArialUnicodeMS-4f20"/>
      <use xlink:href="#ArialUnicodeMS-7edf" x="100"/>
      <use xlink:href="#ArialUnicodeMS-91d1" x="200"/>
      <use xlink:href="#ArialUnicodeMS-878d" x="300"/>
      <use xlink:href="#ArialUnicodeMS-8d44" x="400"/>
      <use xlink:href="#ArialUnicodeMS-4ea7" x="500"/>
     </g>
    </g>
    <g id="line2d_5">
     <path d="M 324.2 37.725 
L 334.2 37.725 
L 344.2 37.725 
" style="fill: none; stroke: #16a085; stroke-width: 2; stroke-linecap: square"/>
    </g>
    <g id="text_5">
     <!-- 艺术品 -->
     <g transform="translate(352.2 41.225) scale(0.1 -0.1)">
      <defs>
       <path id="ArialUnicodeMS-827a" d="M 5881 4172 
L 4256 4172 
L 4256 3494 
L 3775 3494 
L 3775 4172 
L 2497 4172 
L 2497 3494 
L 2016 3494 
L 2016 4172 
L 441 4172 
L 441 4616 
L 2016 4616 
L 2016 5247 
L 2497 5247 
L 2497 4616 
L 3775 4616 
L 3775 5247 
L 4256 5247 
L 4256 4616 
L 5881 4616 
L 5881 4172 
z
M 5663 916 
Q 5522 -184 5006 -184 
L 1709 -184 
Q 1484 -184 1356 -32 
Q 1228 119 1228 338 
Q 1228 650 1828 1256 
Q 2428 1863 3681 2706 
L 3681 2713 
L 1325 2713 
L 1325 3181 
L 4494 3181 
L 4494 2725 
Q 3250 1931 2486 1186 
Q 1722 441 1722 338 
Q 1722 281 1772 281 
L 4825 281 
Q 5103 281 5172 1106 
L 5663 916 
z
" transform="scale(0.015625)"/>
       <path id="ArialUnicodeMS-672f" d="M 6059 494 
L 5716 103 
Q 5100 413 4472 1198 
Q 3844 1984 3513 3291 
L 3372 3291 
L 3372 -441 
L 2888 -441 
L 2888 3291 
L 2747 3291 
Q 2241 1028 563 109 
L 219 481 
Q 1775 1356 2278 3291 
L 391 3291 
L 391 3756 
L 2888 3756 
L 2888 5216 
L 3372 5216 
L 3372 3756 
L 5850 3756 
L 5850 3291 
L 3975 3291 
Q 4609 1278 6059 494 
z
M 5125 4159 
L 4750 3859 
Q 4403 4409 3744 4738 
L 4056 5050 
Q 4722 4747 5125 4159 
z
" transform="scale(0.015625)"/>
       <path id="ArialUnicodeMS-54c1" d="M 4997 2963 
L 1363 2963 
L 1363 5069 
L 4997 5069 
L 4997 2963 
z
M 4575 3378 
L 4575 4653 
L 1806 4653 
L 1806 3378 
L 4575 3378 
z
M 5656 -372 
L 5172 -372 
L 5172 72 
L 3956 72 
L 3956 -372 
L 3469 -372 
L 3469 2491 
L 5656 2491 
L 5656 -372 
z
M 5172 538 
L 5172 2022 
L 3956 2022 
L 3956 538 
L 5172 538 
z
M 2894 -397 
L 2406 -397 
L 2406 38 
L 1228 38 
L 1228 -422 
L 744 -409 
L 744 2472 
L 2894 2472 
L 2894 -397 
z
M 2406 506 
L 2406 2003 
L 1228 2003 
L 1228 506 
L 2406 506 
z
" transform="scale(0.015625)"/>
      </defs>
      <use xlink:href="#ArialUnicodeMS-827a"/>
      <use xlink:href="#ArialUnicodeMS-672f" x="100"/>
      <use xlink:href="#ArialUnicodeMS-54c1" x="200"/>
     </g>
    </g>
   </g>
  </g>
 </g>
 <defs>
  <clipPath id="p183208438b">
   <rect x="25.96" y="10.8" width="395.24" height="251.24"/>
  </clipPath>
 </defs>
</svg>
