<?xml version="1.0" encoding="utf-8" standalone="no"?>
<!DOCTYPE svg PUBLIC "-//W3C//DTD SVG 1.1//EN"
  "http://www.w3.org/Graphics/SVG/1.1/DTD/svg11.dtd">
<svg xmlns:xlink="http://www.w3.org/1999/xlink" width="576pt" height="360pt" viewBox="0 0 576 360" xmlns="http://www.w3.org/2000/svg" version="1.1">
 <metadata>
  <rdf:RDF xmlns:dc="http://purl.org/dc/elements/1.1/" xmlns:cc="http://creativecommons.org/ns#" xmlns:rdf="http://www.w3.org/1999/02/22-rdf-syntax-ns#">
   <cc:Work>
    <dc:type rdf:resource="http://purl.org/dc/dcmitype/StillImage"/>
    <dc:date>2026-04-28T12:02:13.606321</dc:date>
    <dc:format>image/svg+xml</dc:format>
    <dc:creator>
     <cc:Agent>
      <dc:title>Matplotlib v3.9.4, https://matplotlib.org/</dc:title>
     </cc:Agent>
    </dc:creator>
   </cc:Work>
  </rdf:RDF>
 </metadata>
 <defs>
  <style type="text/css">*{stroke-linejoin: round; stroke-linecap: butt}</style>
 </defs>
 <g id="figure_1">
  <g id="patch_1">
   <path d="M 0 360 
L 576 360 
L 576 0 
L 0 0 
L 0 360 
z
" style="fill: none"/>
  </g>
  <g id="axes_1">
   <g id="patch_2">
    <path d="M 57.123125 310.470625 
L 565.2 310.470625 
L 565.2 37.044375 
L 57.123125 37.044375 
L 57.123125 310.470625 
z
" style="fill: none"/>
   </g>
   <g id="matplotlib.axis_1">
    <g id="xtick_1">
     <g id="line2d_1">
      <path d="M 80.217528 310.470625 
L 80.217528 37.044375 
" clip-path="url(#p7f298bba52)" style="fill: none; stroke-dasharray: 2.96,1.28; stroke-dashoffset: 0; stroke: #eeeeee; stroke-opacity: 0.5; stroke-width: 0.8"/>
     </g>
     <g id="line2d_2">
      <defs>
       <path id="m7a4eca11eb" d="M 0 0 
L 0 3.5 
" style="stroke: #666666; stroke-width: 0.8"/>
      </defs>
      <g>
       <use xlink:href="#m7a4eca11eb" x="80.217528" y="310.470625" style="fill: #666666; stroke: #666666; stroke-width: 0.8"/>
      </g>
     </g>
     <g id="text_1">
      <!-- 0.0 -->
      <g style="fill: #666666" transform="translate(73.267528 324.628437) scale(0.1 -0.1)">
       <defs>
        <path id="ArialUnicodeMS-30" d="M 1778 4603 
Q 3272 4603 3272 2259 
Q 3272 1075 2886 498 
Q 2500 -78 1778 -78 
Q 288 -78 288 2259 
Q 288 3444 673 4023 
Q 1059 4603 1778 4603 
z
M 1778 384 
Q 2231 384 2462 823 
Q 2694 1263 2694 2259 
Q 2694 2953 2592 3351 
Q 2491 3750 2286 3945 
Q 2081 4141 1772 4141 
Q 1319 4141 1091 3694 
Q 863 3247 863 2259 
Q 863 1575 966 1175 
Q 1069 775 1272 579 
Q 1475 384 1778 384 
z
" transform="scale(0.015625)"/>
        <path id="ArialUnicodeMS-2e" d="M 1209 0 
L 569 0 
L 569 641 
L 1209 641 
L 1209 0 
z
" transform="scale(0.015625)"/>
       </defs>
       <use xlink:href="#ArialUnicodeMS-30"/>
       <use xlink:href="#ArialUnicodeMS-2e" x="55.615234"/>
       <use xlink:href="#ArialUnicodeMS-30" x="83.398438"/>
      </g>
     </g>
    </g>
    <g id="xtick_2">
     <g id="line2d_3">
      <path d="M 157.198873 310.470625 
L 157.198873 37.044375 
" clip-path="url(#p7f298bba52)" style="fill: none; stroke-dasharray: 2.96,1.28; stroke-dashoffset: 0; stroke: #eeeeee; stroke-opacity: 0.5; stroke-width: 0.8"/>
     </g>
     <g id="line2d_4">
      <g>
       <use xlink:href="#m7a4eca11eb" x="157.198873" y="310.470625" style="fill: #666666; stroke: #666666; stroke-width: 0.8"/>
      </g>
     </g>
     <g id="text_2">
      <!-- 0.5 -->
      <g style="fill: #666666" transform="translate(150.248873 324.628437) scale(0.1 -0.1)">
       <defs>
        <path id="ArialUnicodeMS-35" d="M 1013 2753 
Q 1431 3041 1881 3041 
Q 2453 3041 2878 2636 
Q 3303 2231 3303 1556 
Q 3303 875 2872 398 
Q 2441 -78 1741 -78 
Q 1169 -78 750 245 
Q 331 569 269 1203 
L 856 1247 
Q 928 813 1162 598 
Q 1397 384 1741 384 
Q 2169 384 2434 707 
Q 2700 1031 2700 1503 
Q 2700 1984 2428 2262 
Q 2156 2541 1728 2541 
Q 1188 2541 897 2100 
L 366 2163 
L 813 4519 
L 3084 4519 
L 3084 3975 
L 1259 3975 
L 1013 2753 
z
" transform="scale(0.015625)"/>
       </defs>
       <use xlink:href="#ArialUnicodeMS-30"/>
       <use xlink:href="#ArialUnicodeMS-2e" x="55.615234"/>
       <use xlink:href="#ArialUnicodeMS-35" x="83.398438"/>
      </g>
     </g>
    </g>
    <g id="xtick_3">
     <g id="line2d_5">
      <path d="M 234.180218 310.470625 
L 234.180218 37.044375 
" clip-path="url(#p7f298bba52)" style="fill: none; stroke-dasharray: 2.96,1.28; stroke-dashoffset: 0; stroke: #eeeeee; stroke-opacity: 0.5; stroke-width: 0.8"/>
     </g>
     <g id="line2d_6">
      <g>
       <use xlink:href="#m7a4eca11eb" x="234.180218" y="310.470625" style="fill: #666666; stroke: #666666; stroke-width: 0.8"/>
      </g>
     </g>
     <g id="text_3">
      <!-- 1.0 -->
      <g style="fill: #666666" transform="translate(227.230218 324.628437) scale(0.1 -0.1)">
       <defs>
        <path id="ArialUnicodeMS-31" d="M 2400 0 
L 1838 0 
L 1838 3584 
Q 1416 3184 709 2906 
L 709 3450 
Q 1681 3916 2034 4603 
L 2400 4603 
L 2400 0 
z
" transform="scale(0.015625)"/>
       </defs>
       <use xlink:href="#ArialUnicodeMS-31"/>
       <use xlink:href="#ArialUnicodeMS-2e" x="55.615234"/>
       <use xlink:href="#ArialUnicodeMS-30" x="83.398438"/>
      </g>
     </g>
    </g>
    <g id="xtick_4">
     <g id="line2d_7">
      <path d="M 311.161562 310.470625 
L 311.161562 37.044375 
" clip-path="url(#p7f298bba52)" style="fill: none; stroke-dasharray: 2.96,1.28; stroke-dashoffset: 0; stroke: #eeeeee; stroke-opacity: 0.5; stroke-width: 0.8"/>
     </g>
     <g id="line2d_8">
      <g>
       <use xlink:href="#m7a4eca11eb" x="311.161562" y="310.470625" style="fill: #666666; stroke: #666666; stroke-width: 0.8"/>
      </g>
     </g>
     <g id="text_4">
      <!-- 1.5 -->
      <g style="fill: #666666" transform="translate(304.211562 324.628437) scale(0.1 -0.1)">
       <use xlink:href="#ArialUnicodeMS-31"/>
       <use xlink:href="#ArialUnicodeMS-2e" x="55.615234"/>
       <use xlink:href="#ArialUnicodeMS-35" x="83.398438"/>
      </g>
     </g>
    </g>
    <g id="xtick_5">
     <g id="line2d_9">
      <path d="M 388.142907 310.470625 
L 388.142907 37.044375 
" clip-path="url(#p7f298bba52)" style="fill: none; stroke-dasharray: 2.96,1.28; stroke-dashoffset: 0; stroke: #eeeeee; stroke-opacity: 0.5; stroke-width: 0.8"/>
     </g>
     <g id="line2d_10">
      <g>
       <use xlink:href="#m7a4eca11eb" x="388.142907" y="310.470625" style="fill: #666666; stroke: #666666; stroke-width: 0.8"/>
      </g>
     </g>
     <g id="text_5">
      <!-- 2.0 -->
      <g style="fill: #666666" transform="translate(381.192907 324.628437) scale(0.1 -0.1)">
       <defs>
        <path id="ArialUnicodeMS-32" d="M 3231 0 
L 197 0 
Q 197 388 467 784 
Q 738 1181 1478 1778 
Q 1931 2141 2287 2539 
Q 2644 2938 2644 3341 
Q 2644 3688 2398 3914 
Q 2153 4141 1778 4141 
Q 1400 4141 1144 3908 
Q 888 3675 884 3213 
L 306 3278 
Q 359 3922 764 4262 
Q 1169 4603 1791 4603 
Q 2466 4603 2842 4229 
Q 3219 3856 3219 3328 
Q 3219 2888 2901 2436 
Q 2584 1984 1638 1228 
Q 1141 831 978 544 
L 3231 544 
L 3231 0 
z
" transform="scale(0.015625)"/>
       </defs>
       <use xlink:href="#ArialUnicodeMS-32"/>
       <use xlink:href="#ArialUnicodeMS-2e" x="55.615234"/>
       <use xlink:href="#ArialUnicodeMS-30" x="83.398438"/>
      </g>
     </g>
    </g>
    <g id="xtick_6">
     <g id="line2d_11">
      <path d="M 465.124252 310.470625 
L 465.124252 37.044375 
" clip-path="url(#p7f298bba52)" style="fill: none; stroke-dasharray: 2.96,1.28; stroke-dashoffset: 0; stroke: #eeeeee; stroke-opacity: 0.5; stroke-width: 0.8"/>
     </g>
     <g id="line2d_12">
      <g>
       <use xlink:href="#m7a4eca11eb" x="465.124252" y="310.470625" style="fill: #666666; stroke: #666666; stroke-width: 0.8"/>
      </g>
     </g>
     <g id="text_6">
      <!-- 2.5 -->
      <g style="fill: #666666" transform="translate(458.174252 324.628437) scale(0.1 -0.1)">
       <use xlink:href="#ArialUnicodeMS-32"/>
       <use xlink:href="#ArialUnicodeMS-2e" x="55.615234"/>
       <use xlink:href="#ArialUnicodeMS-35" x="83.398438"/>
      </g>
     </g>
    </g>
    <g id="xtick_7">
     <g id="line2d_13">
      <path d="M 542.105597 310.470625 
L 542.105597 37.044375 
" clip-path="url(#p7f298bba52)" style="fill: none; stroke-dasharray: 2.96,1.28; stroke-dashoffset: 0; stroke: #eeeeee; stroke-opacity: 0.5; stroke-width: 0.8"/>
     </g>
     <g id="line2d_14">
      <g>
       <use xlink:href="#m7a4eca11eb" x="542.105597" y="310.470625" style="fill: #666666; stroke: #666666; stroke-width: 0.8"/>
      </g>
     </g>
     <g id="text_7">
      <!-- 3.0 -->
      <g style="fill: #666666" transform="translate(535.155597 324.628437) scale(0.1 -0.1)">
       <defs>
        <path id="ArialUnicodeMS-33" d="M 2425 2478 
Q 2850 2397 3067 2067 
Q 3284 1738 3284 1350 
Q 3284 725 2829 323 
Q 2375 -78 1741 -78 
Q 1134 -78 740 275 
Q 347 628 281 1209 
L 844 1288 
Q 928 834 1151 609 
Q 1375 384 1741 384 
Q 2134 384 2407 661 
Q 2681 938 2681 1338 
Q 2681 1722 2432 1975 
Q 2184 2228 1784 2228 
Q 1622 2228 1388 2169 
L 1453 2663 
Q 1678 2663 1809 2684 
Q 1941 2706 2103 2790 
Q 2266 2875 2372 3033 
Q 2478 3191 2478 3425 
Q 2478 3766 2251 3953 
Q 2025 4141 1728 4141 
Q 1388 4141 1173 3925 
Q 959 3709 903 3309 
L 341 3413 
Q 450 4009 823 4306 
Q 1197 4603 1716 4603 
Q 2288 4603 2670 4258 
Q 3053 3913 3053 3413 
Q 3053 2772 2425 2491 
L 2425 2478 
z
" transform="scale(0.015625)"/>
       </defs>
       <use xlink:href="#ArialUnicodeMS-33"/>
       <use xlink:href="#ArialUnicodeMS-2e" x="55.615234"/>
       <use xlink:href="#ArialUnicodeMS-30" x="83.398438"/>
      </g>
     </g>
    </g>
    <g id="text_8">
     <!-- 时间 (t) -->
     <g style="fill: #666666" transform="translate(291.832187 346.569375) scale(0.12 -0.12)">
      <defs>
       <path id="ArialUnicodeMS-65f6" d="M 5931 3481 
L 5259 3481 
L 5259 72 
Q 5259 -122 5142 -259 
Q 5025 -397 4863 -397 
L 4281 -397 
L 4097 122 
L 4672 78 
Q 4775 66 4775 191 
L 4775 3481 
L 2784 3481 
L 2784 3950 
L 4775 3950 
L 4775 5306 
L 5259 5306 
L 5259 3950 
L 5931 3950 
L 5931 3481 
z
M 2463 97 
L 1978 97 
L 1978 569 
L 1147 569 
L 1147 97 
L 659 97 
L 659 4313 
L 2463 4313 
L 2463 97 
z
M 1978 2675 
L 1978 3847 
L 1147 3847 
L 1147 2675 
L 1978 2675 
z
M 1978 1038 
L 1978 2209 
L 1147 2209 
L 1147 1038 
L 1978 1038 
z
M 4306 1575 
L 3903 1300 
Q 3594 2103 2888 2725 
L 3272 2994 
Q 3997 2375 4306 1575 
z
" transform="scale(0.015625)"/>
       <path id="ArialUnicodeMS-95f4" d="M 2463 4313 
L 2088 4006 
Q 1600 4669 1094 4984 
L 1484 5247 
Q 2044 4888 2463 4313 
z
M 5497 178 
Q 5497 -50 5353 -181 
Q 5209 -313 4853 -313 
Q 4753 -313 4506 -300 
L 4366 147 
Q 4631 106 4806 106 
Q 4991 106 5002 142 
Q 5013 178 5013 275 
L 5013 4453 
L 2841 4453 
L 2841 4922 
L 5497 4922 
L 5497 178 
z
M 1125 -384 
L 641 -384 
L 641 4197 
L 1125 4197 
L 1125 -384 
z
M 4306 481 
L 3822 481 
L 3822 813 
L 2375 813 
L 2375 481 
L 1888 481 
L 1888 3669 
L 4306 3669 
L 4306 481 
z
M 3822 2559 
L 3822 3200 
L 2375 3200 
L 2375 2559 
L 3822 2559 
z
M 3822 1281 
L 3822 2094 
L 2375 2094 
L 2375 1281 
L 3822 1281 
z
" transform="scale(0.015625)"/>
       <path id="ArialUnicodeMS-20" transform="scale(0.015625)"/>
       <path id="ArialUnicodeMS-28" d="M 1900 -1344 
L 1497 -1344 
Q 978 -681 681 103 
Q 384 888 384 1656 
Q 384 2528 700 3275 
Q 1016 4022 1497 4659 
L 1900 4659 
Q 1344 3747 1155 3059 
Q 966 2372 966 1663 
Q 966 153 1900 -1344 
z
" transform="scale(0.015625)"/>
       <path id="ArialUnicodeMS-74" d="M 1722 6 
Q 1472 -44 1300 -44 
Q 931 -44 762 86 
Q 594 216 556 416 
Q 519 616 519 972 
L 519 2881 
L 109 2881 
L 109 3316 
L 519 3316 
L 519 4141 
L 1081 4481 
L 1081 3316 
L 1644 3316 
L 1644 2881 
L 1081 2881 
L 1081 941 
Q 1081 691 1132 586 
Q 1184 481 1394 481 
Q 1516 481 1644 506 
L 1722 6 
z
" transform="scale(0.015625)"/>
       <path id="ArialUnicodeMS-29" d="M 634 4659 
Q 1153 3997 1450 3212 
Q 1747 2428 1747 1656 
Q 1747 788 1431 41 
Q 1116 -706 634 -1344 
L 231 -1344 
Q 788 -431 977 255 
Q 1166 941 1166 1650 
Q 1166 3163 231 4659 
L 634 4659 
z
" transform="scale(0.015625)"/>
      </defs>
      <use xlink:href="#ArialUnicodeMS-65f6"/>
      <use xlink:href="#ArialUnicodeMS-95f4" x="100"/>
      <use xlink:href="#ArialUnicodeMS-20" x="200"/>
      <use xlink:href="#ArialUnicodeMS-28" x="227.783203"/>
      <use xlink:href="#ArialUnicodeMS-74" x="261.083984"/>
      <use xlink:href="#ArialUnicodeMS-29" x="288.867188"/>
     </g>
    </g>
   </g>
   <g id="matplotlib.axis_2">
    <g id="ytick_1">
     <g id="line2d_15">
      <path d="M 57.123125 310.470625 
L 565.2 310.470625 
" clip-path="url(#p7f298bba52)" style="fill: none; stroke-dasharray: 2.96,1.28; stroke-dashoffset: 0; stroke: #eeeeee; stroke-opacity: 0.5; stroke-width: 0.8"/>
     </g>
     <g id="line2d_16">
      <defs>
       <path id="m8b8830957f" d="M 0 0 
L -3.5 0 
" style="stroke: #666666; stroke-width: 0.8"/>
      </defs>
      <g>
       <use xlink:href="#m8b8830957f" x="57.123125" y="310.470625" style="fill: #666666; stroke: #666666; stroke-width: 0.8"/>
      </g>
     </g>
     <g id="text_9">
      <!-- 0 -->
      <g style="fill: #666666" transform="translate(44.562188 314.049531) scale(0.1 -0.1)">
       <use xlink:href="#ArialUnicodeMS-30"/>
      </g>
     </g>
    </g>
    <g id="ytick_2">
     <g id="line2d_17">
      <path d="M 57.123125 260.756761 
L 565.2 260.756761 
" clip-path="url(#p7f298bba52)" style="fill: none; stroke-dasharray: 2.96,1.28; stroke-dashoffset: 0; stroke: #eeeeee; stroke-opacity: 0.5; stroke-width: 0.8"/>
     </g>
     <g id="line2d_18">
      <g>
       <use xlink:href="#m8b8830957f" x="57.123125" y="260.756761" style="fill: #666666; stroke: #666666; stroke-width: 0.8"/>
      </g>
     </g>
     <g id="text_10">
      <!-- 20 -->
      <g style="fill: #666666" transform="translate(39.00125 264.335668) scale(0.1 -0.1)">
       <use xlink:href="#ArialUnicodeMS-32"/>
       <use xlink:href="#ArialUnicodeMS-30" x="55.615234"/>
      </g>
     </g>
    </g>
    <g id="ytick_3">
     <g id="line2d_19">
      <path d="M 57.123125 211.042898 
L 565.2 211.042898 
" clip-path="url(#p7f298bba52)" style="fill: none; stroke-dasharray: 2.96,1.28; stroke-dashoffset: 0; stroke: #eeeeee; stroke-opacity: 0.5; stroke-width: 0.8"/>
     </g>
     <g id="line2d_20">
      <g>
       <use xlink:href="#m8b8830957f" x="57.123125" y="211.042898" style="fill: #666666; stroke: #666666; stroke-width: 0.8"/>
      </g>
     </g>
     <g id="text_11">
      <!-- 40 -->
      <g style="fill: #666666" transform="translate(39.00125 214.621804) scale(0.1 -0.1)">
       <defs>
        <path id="ArialUnicodeMS-34" d="M 3263 1094 
L 2644 1094 
L 2644 0 
L 2081 0 
L 2081 1094 
L 97 1094 
L 97 1613 
L 2181 4581 
L 2644 4581 
L 2644 1613 
L 3263 1613 
L 3263 1094 
z
M 2081 1613 
L 2081 3681 
L 2069 3681 
L 647 1613 
L 2081 1613 
z
" transform="scale(0.015625)"/>
       </defs>
       <use xlink:href="#ArialUnicodeMS-34"/>
       <use xlink:href="#ArialUnicodeMS-30" x="55.615234"/>
      </g>
     </g>
    </g>
    <g id="ytick_4">
     <g id="line2d_21">
      <path d="M 57.123125 161.329034 
L 565.2 161.329034 
" clip-path="url(#p7f298bba52)" style="fill: none; stroke-dasharray: 2.96,1.28; stroke-dashoffset: 0; stroke: #eeeeee; stroke-opacity: 0.5; stroke-width: 0.8"/>
     </g>
     <g id="line2d_22">
      <g>
       <use xlink:href="#m8b8830957f" x="57.123125" y="161.329034" style="fill: #666666; stroke: #666666; stroke-width: 0.8"/>
      </g>
     </g>
     <g id="text_12">
      <!-- 60 -->
      <g style="fill: #666666" transform="translate(39.00125 164.90794) scale(0.1 -0.1)">
       <defs>
        <path id="ArialUnicodeMS-36" d="M 838 2363 
Q 1225 2969 1941 2969 
Q 2503 2969 2897 2553 
Q 3291 2138 3291 1491 
Q 3291 838 2898 380 
Q 2506 -78 1856 -78 
Q 1197 -78 733 409 
Q 269 897 269 2144 
Q 269 3369 689 3986 
Q 1109 4603 1906 4603 
Q 2422 4603 2778 4315 
Q 3134 4028 3213 3463 
L 2650 3413 
Q 2497 4141 1875 4141 
Q 1444 4141 1134 3712 
Q 825 3284 825 2363 
L 838 2363 
z
M 1844 384 
Q 2231 384 2472 696 
Q 2713 1009 2713 1453 
Q 2713 1897 2472 2187 
Q 2231 2478 1825 2478 
Q 1453 2478 1184 2204 
Q 916 1931 916 1484 
Q 916 1028 1180 706 
Q 1444 384 1844 384 
z
" transform="scale(0.015625)"/>
       </defs>
       <use xlink:href="#ArialUnicodeMS-36"/>
       <use xlink:href="#ArialUnicodeMS-30" x="55.615234"/>
      </g>
     </g>
    </g>
    <g id="ytick_5">
     <g id="line2d_23">
      <path d="M 57.123125 111.61517 
L 565.2 111.61517 
" clip-path="url(#p7f298bba52)" style="fill: none; stroke-dasharray: 2.96,1.28; stroke-dashoffset: 0; stroke: #eeeeee; stroke-opacity: 0.5; stroke-width: 0.8"/>
     </g>
     <g id="line2d_24">
      <g>
       <use xlink:href="#m8b8830957f" x="57.123125" y="111.61517" style="fill: #666666; stroke: #666666; stroke-width: 0.8"/>
      </g>
     </g>
     <g id="text_13">
      <!-- 80 -->
      <g style="fill: #666666" transform="translate(39.00125 115.194077) scale(0.1 -0.1)">
       <defs>
        <path id="ArialUnicodeMS-38" d="M 2425 2478 
Q 3284 2203 3284 1306 
Q 3284 716 2862 319 
Q 2441 -78 1778 -78 
Q 1109 -78 689 322 
Q 269 722 269 1325 
Q 269 1759 505 2084 
Q 741 2409 1141 2478 
L 1141 2491 
Q 453 2703 453 3419 
Q 453 3925 815 4264 
Q 1178 4603 1766 4603 
Q 2363 4603 2730 4253 
Q 3097 3903 3097 3406 
Q 3097 2731 2425 2491 
L 2425 2478 
z
M 1778 2700 
Q 2094 2700 2308 2901 
Q 2522 3103 2522 3406 
Q 2522 3716 2305 3928 
Q 2088 4141 1772 4141 
Q 1450 4141 1240 3931 
Q 1031 3722 1031 3438 
Q 1031 3097 1247 2898 
Q 1463 2700 1778 2700 
z
M 1778 384 
Q 2175 384 2440 640 
Q 2706 897 2706 1306 
Q 2706 1716 2432 1978 
Q 2159 2241 1766 2241 
Q 1356 2241 1100 1970 
Q 844 1700 844 1319 
Q 844 922 1108 653 
Q 1372 384 1778 384 
z
" transform="scale(0.015625)"/>
       </defs>
       <use xlink:href="#ArialUnicodeMS-38"/>
       <use xlink:href="#ArialUnicodeMS-30" x="55.615234"/>
      </g>
     </g>
    </g>
    <g id="ytick_6">
     <g id="line2d_25">
      <path d="M 57.123125 61.901307 
L 565.2 61.901307 
" clip-path="url(#p7f298bba52)" style="fill: none; stroke-dasharray: 2.96,1.28; stroke-dashoffset: 0; stroke: #eeeeee; stroke-opacity: 0.5; stroke-width: 0.8"/>
     </g>
     <g id="line2d_26">
      <g>
       <use xlink:href="#m8b8830957f" x="57.123125" y="61.901307" style="fill: #666666; stroke: #666666; stroke-width: 0.8"/>
      </g>
     </g>
     <g id="text_14">
      <!-- 100 -->
      <g style="fill: #666666" transform="translate(33.440313 65.480213) scale(0.1 -0.1)">
       <use xlink:href="#ArialUnicodeMS-31"/>
       <use xlink:href="#ArialUnicodeMS-30" x="55.615234"/>
       <use xlink:href="#ArialUnicodeMS-30" x="111.230469"/>
      </g>
     </g>
    </g>
    <g id="text_15">
     <!-- 资产残值 (归一化) -->
     <g style="fill: #666666" transform="translate(20.920313 221.42) rotate(-90) scale(0.12 -0.12)">
      <defs>
       <path id="ArialUnicodeMS-8d44" d="M 5522 4863 
Q 5541 4597 5477 4328 
Q 5413 4059 5131 3622 
L 4697 3859 
Q 4913 4106 5013 4397 
L 3144 4397 
Q 2878 3913 2203 3444 
L 1875 3822 
Q 2672 4297 3003 5306 
L 3431 5153 
Q 3403 5059 3322 4863 
L 5522 4863 
z
M 1766 4550 
L 1409 4172 
Q 1103 4628 594 4941 
L 891 5234 
Q 1459 4978 1766 4550 
z
M 6009 2778 
L 5678 2369 
Q 4472 2688 3788 3481 
Q 3591 3172 3142 2912 
Q 2694 2653 2222 2578 
L 2222 2572 
L 4813 2572 
L 4813 575 
L 4325 575 
L 4325 2106 
L 2119 2106 
L 2119 575 
L 1631 575 
L 1631 2572 
L 1913 2572 
L 1716 2847 
Q 2591 3081 3020 3382 
Q 3450 3684 3641 4250 
L 4091 4147 
L 4006 3897 
Q 4269 3525 4686 3267 
Q 5103 3009 6009 2778 
z
M 1806 3688 
Q 1628 3134 831 2369 
L 453 2713 
Q 1106 3253 1453 3922 
L 1806 3688 
z
M 3450 1906 
Q 3453 572 2761 120 
Q 2069 -331 819 -384 
L 594 84 
Q 1419 134 1742 186 
Q 2066 238 2409 461 
Q 2753 684 2848 979 
Q 2944 1275 2988 1906 
L 3450 1906 
z
M 5503 0 
L 5259 -447 
Q 4506 47 3272 306 
L 3494 722 
Q 4728 478 5503 0 
z
" transform="scale(0.015625)"/>
       <path id="ArialUnicodeMS-4ea7" d="M 5691 3994 
L 481 3994 
L 481 4434 
L 3053 4434 
Q 2816 4841 2431 5125 
L 2766 5394 
Q 3319 4947 3578 4550 
L 3413 4447 
L 3413 4434 
L 5691 4434 
L 5691 3994 
z
M 5691 2547 
L 1509 2547 
L 1509 1375 
Q 1509 219 519 -403 
L 159 -38 
Q 1025 456 1025 1516 
L 1025 2988 
L 2278 2988 
Q 2122 3325 1691 3681 
L 1997 3938 
Q 2450 3641 2803 3138 
L 2584 2988 
L 3413 2988 
Q 3856 3441 4056 3928 
L 4481 3700 
Q 4278 3306 4000 2988 
L 5691 2988 
L 5691 2547 
z
" transform="scale(0.015625)"/>
       <path id="ArialUnicodeMS-6b8b" d="M 5466 4788 
L 5106 4494 
Q 4856 4878 4428 5147 
L 4775 5409 
Q 5259 5097 5466 4788 
z
M 6175 647 
Q 6056 31 5923 -158 
Q 5791 -347 5588 -347 
Q 5350 -347 5076 -125 
Q 4803 97 4609 434 
Q 3850 -91 3091 -263 
L 2766 134 
Q 3903 425 4416 831 
Q 4281 1078 4116 1625 
L 2719 1269 
L 2584 1703 
L 3988 2069 
Q 3884 2472 3853 2663 
L 3022 2444 
L 2888 2881 
L 3775 3097 
Q 3703 3531 3681 3706 
L 2900 3531 
L 2766 3956 
L 3634 4134 
L 3488 5281 
L 3981 5294 
L 4091 4244 
L 5478 4556 
L 5588 4122 
L 4141 3794 
Q 4163 3531 4225 3206 
L 5503 3572 
L 5631 3138 
L 4294 2772 
Q 4338 2497 4422 2188 
L 5947 2584 
L 6069 2156 
L 4544 1747 
Q 4697 1269 4781 1106 
Q 5184 1478 5453 1966 
L 5838 1722 
Q 5294 934 4984 703 
Q 5256 166 5503 166 
Q 5534 166 5592 233 
Q 5650 300 5656 347 
L 5753 863 
Q 5884 806 6175 647 
z
M 3066 4519 
L 1806 4519 
Q 1806 4050 1709 3513 
L 2841 3513 
Q 2747 2253 2264 1301 
Q 1781 350 634 -391 
L 341 -13 
Q 1438 675 1844 1503 
Q 1722 1778 1275 2156 
L 1588 2478 
Q 1834 2306 2047 1972 
Q 2281 2488 2344 3072 
L 1619 3072 
Q 1331 2072 666 1484 
L 300 1813 
Q 1369 2753 1331 4519 
L 494 4519 
L 494 4959 
L 3066 4959 
L 3066 4519 
z
" transform="scale(0.015625)"/>
       <path id="ArialUnicodeMS-503c" d="M 6034 -172 
L 1791 -172 
L 1791 294 
L 2344 294 
L 2344 3853 
L 3425 3853 
Q 3544 4109 3609 4341 
L 1925 4341 
L 1919 4672 
Q 1841 4369 1691 3981 
L 1544 3622 
L 1544 -434 
L 1056 -434 
L 1056 2753 
Q 859 2466 634 2241 
L 238 2516 
Q 1222 3619 1588 5325 
L 2028 5172 
Q 2009 5038 1953 4806 
L 3731 4806 
Q 3772 4997 3781 5338 
L 4275 5253 
Q 4275 5013 4225 4806 
L 5813 4806 
L 5813 4341 
L 4134 4341 
Q 4091 4188 3956 3853 
L 5409 3853 
L 5409 294 
L 6034 294 
L 6034 -172 
z
M 4922 2994 
L 4922 3384 
L 2828 3384 
L 2828 2994 
L 4922 2994 
z
M 4922 2138 
L 4922 2584 
L 2828 2584 
L 2828 2138 
L 4922 2138 
z
M 4922 1241 
L 4922 1716 
L 2828 1716 
L 2828 1241 
L 4922 1241 
z
M 4922 294 
L 4922 825 
L 2828 825 
L 2828 294 
L 4922 294 
z
" transform="scale(0.015625)"/>
       <path id="ArialUnicodeMS-5f52" d="M 2450 5325 
Q 2463 4616 2463 3953 
Q 2463 2844 2439 2359 
Q 2416 1875 2173 1336 
Q 1931 797 1501 345 
Q 1072 -106 544 -397 
L 172 -72 
Q 1978 1047 1978 2572 
L 1978 5325 
L 2450 5325 
z
M 5509 -244 
L 5056 -244 
L 5056 184 
L 2022 184 
L 2022 653 
L 5056 653 
L 5056 2350 
L 2747 2350 
L 2747 2816 
L 5056 2816 
L 5056 4469 
L 2619 4469 
L 2619 4934 
L 5509 4934 
L 5509 -244 
z
M 1209 1088 
L 756 1088 
L 756 4763 
L 1209 4763 
L 1209 1088 
z
" transform="scale(0.015625)"/>
       <path id="ArialUnicodeMS-4e00" d="M 5734 2278 
L 775 2278 
L 775 2809 
L 5734 2809 
L 5734 2278 
z
" transform="scale(0.015625)"/>
       <path id="ArialUnicodeMS-5316" d="M 2431 5147 
Q 2322 4731 2081 4159 
L 1844 3603 
L 1844 -366 
L 1350 -366 
L 1350 2834 
Q 1006 2356 653 2075 
L 306 2444 
Q 1350 3319 2003 5350 
L 2431 5147 
z
M 6081 1325 
Q 5994 419 5786 114 
Q 5578 -191 5203 -191 
L 3872 -191 
Q 3534 -191 3339 -12 
Q 3144 166 3144 469 
L 3144 5178 
L 3628 5178 
L 3628 2853 
Q 4478 3413 5288 4488 
L 5709 4197 
Q 4800 2984 3628 2272 
L 3628 550 
Q 3628 288 3981 288 
L 5113 288 
Q 5553 288 5581 1503 
L 6081 1325 
z
" transform="scale(0.015625)"/>
      </defs>
      <use xlink:href="#ArialUnicodeMS-8d44"/>
      <use xlink:href="#ArialUnicodeMS-4ea7" x="100"/>
      <use xlink:href="#ArialUnicodeMS-6b8b" x="200"/>
      <use xlink:href="#ArialUnicodeMS-503c" x="300"/>
      <use xlink:href="#ArialUnicodeMS-20" x="400"/>
      <use xlink:href="#ArialUnicodeMS-28" x="427.783203"/>
      <use xlink:href="#ArialUnicodeMS-5f52" x="461.083984"/>
      <use xlink:href="#ArialUnicodeMS-4e00" x="561.083984"/>
      <use xlink:href="#ArialUnicodeMS-5316" x="661.083984"/>
      <use xlink:href="#ArialUnicodeMS-29" x="761.083984"/>
     </g>
    </g>
   </g>
   <g id="line2d_27">
    <path d="M 80.217528 61.901307 
L 88.320828 61.901307 
L 96.424127 61.901307 
L 104.527427 61.901307 
L 112.630726 61.901307 
L 120.734026 61.901307 
L 128.837325 61.901307 
L 136.940625 61.901307 
L 145.043924 61.901307 
L 153.147223 61.901307 
L 161.250523 61.901307 
L 169.353822 61.901307 
L 177.457122 61.901307 
L 185.560421 61.901307 
L 193.663721 61.901307 
L 201.76702 61.901307 
L 209.870319 61.901307 
L 217.973619 61.901307 
L 226.076918 61.901307 
L 234.180218 61.901307 
" clip-path="url(#p7f298bba52)" style="fill: none; stroke: #94a3b8; stroke-width: 2.5; stroke-linecap: square"/>
   </g>
   <g id="line2d_28">
    <path d="M 234.180218 257.35348 
L 242.07574 259.692309 
L 249.971263 259.332222 
L 257.866785 261.689575 
L 265.762308 258.45238 
L 273.65783 260.952981 
L 281.553353 263.417961 
L 289.448876 259.600216 
L 297.344398 260.351668 
L 305.239921 258.169207 
L 313.135443 259.815838 
L 321.030966 261.646364 
L 328.926488 259.868184 
L 336.822011 259.683938 
L 344.717533 257.789703 
L 352.613056 262.140742 
L 360.508578 264.67419 
L 368.404101 258.399661 
L 376.299623 261.047312 
L 384.195146 260.273909 
L 392.090668 258.098958 
L 399.986191 261.004708 
L 407.881714 259.47202 
L 415.777236 259.962374 
L 423.672759 262.332682 
L 431.568281 258.018714 
L 439.463804 260.449449 
L 447.359326 258.198116 
L 455.254849 262.524215 
L 463.150371 260.711158 
L 471.045894 253.936247 
L 478.941416 265.348581 
L 486.836939 259.530653 
L 494.732461 260.298291 
L 502.627984 261.442122 
L 510.523506 262.89036 
L 518.419029 259.233598 
L 526.314552 259.444955 
L 534.210074 266.031174 
L 542.105597 264.896876 
" clip-path="url(#p7f298bba52)" style="fill: none; stroke: #94a3b8; stroke-width: 2.5; stroke-linecap: square"/>
   </g>
   <g id="line2d_29">
    <path d="M 80.217528 61.901307 
L 88.320828 61.901307 
L 96.424127 61.901307 
L 104.527427 61.901307 
L 112.630726 61.901307 
L 120.734026 61.901307 
L 128.837325 61.901307 
L 136.940625 61.901307 
L 145.043924 61.901307 
L 153.147223 61.901307 
L 161.250523 61.901307 
L 169.353822 61.901307 
L 177.457122 61.901307 
L 185.560421 61.901307 
L 193.663721 61.901307 
L 201.76702 61.901307 
L 209.870319 61.901307 
L 217.973619 61.901307 
L 226.076918 61.901307 
L 234.180218 61.901307 
" clip-path="url(#p7f298bba52)" style="fill: none; stroke: #10b981; stroke-width: 2.5; stroke-linecap: square"/>
   </g>
   <g id="line2d_30">
    <path d="M 234.180218 85.054785 
L 242.07574 93.431832 
L 249.971263 102.278136 
L 257.866785 94.244834 
L 265.762308 96.822101 
L 273.65783 98.388253 
L 281.553353 107.153832 
L 289.448876 95.593704 
L 297.344398 100.250243 
L 305.239921 97.93707 
L 313.135443 99.262204 
L 321.030966 97.171288 
L 328.926488 97.883482 
L 336.822011 99.162549 
L 344.717533 95.875295 
L 352.613056 100.823743 
L 360.508578 99.711164 
L 368.404101 100.007395 
L 376.299623 107.082342 
L 384.195146 99.548488 
L 392.090668 96.91435 
L 399.986191 96.344557 
L 407.881714 95.851535 
L 415.777236 99.635973 
L 423.672759 93.086746 
L 431.568281 86.886688 
L 439.463804 102.691457 
L 447.359326 106.178233 
L 455.254849 99.522011 
L 463.150371 92.763642 
L 471.045894 106.371289 
L 478.941416 110.169627 
L 486.836939 87.403304 
L 494.732461 97.893924 
L 502.627984 92.743674 
L 510.523506 92.393086 
L 518.419029 101.438192 
L 526.314552 102.395244 
L 534.210074 99.829777 
L 542.105597 90.515534 
" clip-path="url(#p7f298bba52)" style="fill: none; stroke: #10b981; stroke-width: 2.5; stroke-linecap: square"/>
   </g>
   <g id="line2d_31">
    <path d="M 234.180218 310.470625 
L 234.180218 37.044375 
" clip-path="url(#p7f298bba52)" style="fill: none; stroke-dasharray: 5.55,2.4; stroke-dashoffset: 0; stroke: #ef4444; stroke-opacity: 0.5; stroke-width: 1.5"/>
   </g>
   <g id="patch_3">
    <path d="M 57.123125 310.470625 
L 57.123125 37.044375 
" style="fill: none; stroke: #dddddd; stroke-width: 0.8; stroke-linejoin: miter; stroke-linecap: square"/>
   </g>
   <g id="patch_4">
    <path d="M 57.123125 310.470625 
L 565.2 310.470625 
" style="fill: none; stroke: #dddddd; stroke-width: 0.8; stroke-linejoin: miter; stroke-linecap: square"/>
   </g>
   <g id="text_16">
    <!-- 灾难发生 -->
    <g style="fill: #ef4444" transform="translate(241.878352 186.185966) scale(0.12 -0.12)">
     <defs>
      <path id="ArialUnicodeMS-707e" d="M 5716 3250 
L 5228 3250 
L 5228 3922 
L 997 3922 
L 997 3272 
L 513 3272 
L 513 4391 
L 2956 4391 
Q 2791 4738 2316 5050 
L 2688 5344 
Q 3266 4984 3500 4544 
L 3316 4409 
L 3316 4391 
L 5716 4391 
L 5716 3250 
z
M 5919 -38 
L 5600 -459 
Q 4638 -34 4105 458 
Q 3572 950 3175 1734 
Q 2713 138 616 -447 
L 288 -13 
Q 2056 497 2517 1430 
Q 2978 2363 2931 3694 
L 3406 3634 
Q 3413 3338 3391 2881 
L 3366 2522 
Q 3366 2406 3514 2079 
Q 3663 1753 3820 1518 
Q 3978 1284 4175 1078 
Q 4372 872 4617 689 
Q 4863 506 5211 303 
Q 5559 100 5919 -38 
z
M 2034 3053 
Q 1884 2072 1416 1453 
L 959 1709 
Q 1484 2341 1581 3181 
L 2034 3053 
z
M 5228 2975 
Q 5134 2059 4781 1491 
L 4275 1672 
Q 4741 2338 4769 3097 
L 5228 2975 
z
" transform="scale(0.015625)"/>
      <path id="ArialUnicodeMS-96be" d="M 5966 97 
L 3309 97 
L 3309 -391 
L 2822 -391 
L 2822 2681 
L 2816 2681 
Q 2700 2400 2497 2175 
L 2144 2584 
Q 2788 3400 3144 5275 
L 3584 5159 
Q 3475 4572 3372 4213 
L 5869 4213 
L 5869 3744 
L 4678 3744 
L 4678 3003 
L 5766 3003 
L 5766 2534 
L 4678 2534 
L 4678 1791 
L 5766 1791 
L 5766 1325 
L 4678 1325 
L 4678 563 
L 5966 563 
L 5966 97 
z
M 4191 3003 
L 4191 3744 
L 3309 3744 
L 3309 3003 
L 4191 3003 
z
M 4191 1791 
L 4191 2534 
L 3309 2534 
L 3309 1791 
L 4191 1791 
z
M 4191 563 
L 4191 1325 
L 3309 1325 
L 3309 563 
L 4191 563 
z
M 4838 4513 
L 4481 4250 
Q 4216 4684 3781 4997 
L 4103 5253 
Q 4584 4963 4838 4513 
z
M 2597 525 
L 2156 263 
Q 1984 1025 1734 1497 
Q 1325 509 775 0 
L 603 -159 
L 256 191 
Q 1041 959 1447 2016 
Q 925 2841 475 3309 
L 825 3572 
Q 1300 3109 1600 2675 
Q 1713 3038 1881 3981 
L 441 3981 
L 441 4447 
L 2425 4447 
Q 2359 3491 1959 2069 
Q 2384 1328 2597 525 
z
" transform="scale(0.015625)"/>
      <path id="ArialUnicodeMS-53d1" d="M 6016 6 
L 5684 -384 
Q 5053 -234 4711 -46 
Q 4369 141 3725 609 
Q 2963 -134 1703 -372 
L 1422 31 
Q 2738 313 3384 922 
Q 2891 1450 2522 2181 
Q 2066 844 594 -225 
L 244 184 
Q 1922 1250 2400 3278 
L 934 3278 
L 934 3706 
L 1522 5172 
L 1953 4947 
L 1472 3744 
L 2522 3744 
Q 2663 4269 2772 5300 
L 3238 5178 
Q 3097 4141 3009 3744 
L 5766 3744 
L 5766 3278 
L 2900 3278 
L 2731 2778 
L 4922 2778 
L 4922 2381 
Q 4559 1531 4025 934 
Q 4781 309 6016 6 
z
M 4378 2309 
L 2975 2309 
Q 3363 1584 3700 1269 
Q 4141 1759 4378 2309 
z
M 4941 4172 
L 4550 3866 
Q 4244 4381 3531 4788 
L 3866 5100 
Q 4519 4753 4941 4172 
z
" transform="scale(0.015625)"/>
      <path id="ArialUnicodeMS-751f" d="M 5978 -50 
L 697 -50 
L 697 416 
L 2981 416 
L 2981 1778 
L 1325 1778 
L 1325 2247 
L 2981 2247 
L 2981 3444 
L 1734 3444 
Q 1547 2906 872 2188 
L 384 2450 
Q 1459 3413 1556 4831 
L 2041 4684 
Q 2041 4438 1906 3909 
L 2981 3909 
L 2981 5275 
L 3469 5275 
L 3469 3909 
L 5569 3909 
L 5569 3444 
L 3469 3444 
L 3469 2247 
L 5269 2247 
L 5269 1778 
L 3469 1778 
L 3469 416 
L 5978 416 
L 5978 -50 
z
" transform="scale(0.015625)"/>
     </defs>
     <use xlink:href="#ArialUnicodeMS-707e"/>
     <use xlink:href="#ArialUnicodeMS-96be" x="100"/>
     <use xlink:href="#ArialUnicodeMS-53d1" x="200"/>
     <use xlink:href="#ArialUnicodeMS-751f" x="300"/>
    </g>
   </g>
   <g id="text_17">
    <!-- 极端灾难事件前后的资产价值路径 -->
    <g style="fill: #333333" transform="translate(198.661562 22.044375) scale(0.15 -0.15)">
     <defs>
      <path id="ArialUnicodeMS-6781" d="M 6222 -91 
L 5797 -469 
Q 4819 78 4475 475 
Q 3747 -184 3175 -453 
L 2828 -91 
Q 3834 481 4153 863 
Q 3713 1453 3488 2053 
Q 3488 2059 3491 2056 
Q 3494 2050 3450 1828 
Q 3347 1284 3097 778 
Q 2841 256 2478 -128 
L 2259 -359 
L 1894 -56 
L 1894 -403 
L 1416 -409 
L 1416 2169 
L 1403 2169 
Q 1244 1688 691 1050 
L 288 1369 
Q 1134 2266 1344 3597 
L 513 3597 
L 513 4063 
L 1416 4063 
L 1416 5306 
L 1894 5306 
L 1894 4063 
L 2688 4063 
L 2688 3597 
L 1900 3597 
L 1900 2944 
L 2034 3041 
Q 2684 2434 2809 1972 
L 2375 1684 
Q 2278 2113 1894 2491 
L 1894 25 
Q 2519 681 2764 1229 
Q 3009 1778 3009 2950 
L 3009 4550 
L 2478 4550 
L 2478 5025 
L 5484 5025 
L 5484 4538 
Q 5219 3819 4991 3397 
L 5734 3397 
Q 5725 1919 4813 844 
Q 5278 316 6222 -91 
z
M 5253 2938 
L 4409 2938 
L 4403 3372 
Q 4756 3966 4966 4550 
L 3506 4550 
L 3506 3519 
Q 3809 2106 4459 1247 
Q 5094 1891 5253 2938 
z
" transform="scale(0.015625)"/>
      <path id="ArialUnicodeMS-7aef" d="M 5734 3525 
L 2638 3525 
L 2638 4891 
L 3122 4891 
L 3122 3994 
L 3938 3994 
L 3938 5313 
L 4422 5313 
L 4422 3994 
L 5247 3994 
L 5247 4909 
L 5734 4909 
L 5734 3525 
z
M 2463 3572 
L 372 3572 
L 372 4038 
L 1253 4038 
L 1253 5275 
L 1741 5275 
L 1741 4038 
L 2463 4038 
L 2463 3572 
z
M 2491 709 
L 556 166 
L 275 653 
Q 1097 816 1447 916 
Q 1775 1891 1888 3309 
L 2363 3219 
Q 2291 2153 1959 1056 
Q 1966 1056 2491 1203 
L 2491 709 
z
M 1331 1222 
L 878 1106 
Q 828 2456 544 3116 
L 972 3225 
Q 1272 2578 1331 1222 
z
M 6028 2669 
L 4513 2669 
Q 4413 2269 4366 2181 
L 5813 2181 
L 5813 306 
Q 5813 -41 5630 -198 
Q 5447 -356 5172 -347 
L 4838 -331 
L 4678 147 
Q 4966 116 4984 116 
Q 5166 116 5245 156 
Q 5325 197 5325 353 
L 5325 1716 
L 4891 1716 
L 4891 191 
L 4428 191 
L 4428 1716 
L 3981 1716 
L 3981 -63 
L 3519 -63 
L 3519 1716 
L 3091 1716 
L 3091 -447 
L 2606 -447 
L 2606 2181 
L 3822 2181 
Q 3991 2409 4044 2669 
L 2438 2669 
L 2438 3138 
L 6028 3138 
L 6028 2669 
z
" transform="scale(0.015625)"/>
      <path id="ArialUnicodeMS-4e8b" d="M 6081 1288 
L 5484 1288 
L 5484 469 
L 3456 469 
L 3463 213 
Q 3472 -94 3333 -239 
Q 3194 -384 2803 -397 
L 2156 -416 
L 1972 78 
Q 2491 31 2716 31 
Q 2850 31 2900 84 
Q 2950 138 2950 275 
L 2950 469 
L 984 469 
L 984 909 
L 2950 909 
L 2963 1288 
L 384 1288 
L 384 1728 
L 2956 1728 
L 2956 2059 
L 984 2059 
L 984 2503 
L 2956 2503 
L 2956 2809 
L 1125 2822 
L 1125 4084 
L 2956 4084 
L 2956 4372 
L 422 4372 
L 422 4813 
L 2956 4813 
L 2956 5288 
L 3463 5288 
L 3463 4813 
L 6016 4813 
L 6016 4372 
L 3463 4372 
L 3463 4078 
L 5269 4091 
L 5269 2809 
L 3463 2809 
L 3463 2503 
L 5484 2503 
L 5484 1728 
L 6081 1728 
L 6081 1288 
z
M 4781 3250 
L 4781 3641 
L 3463 3641 
L 3463 3250 
L 4781 3250 
z
M 2956 3250 
L 2956 3641 
L 1613 3641 
L 1613 3250 
L 2956 3250 
z
M 4978 1728 
L 4978 2059 
L 3444 2059 
L 3444 1728 
L 4978 1728 
z
M 4978 909 
L 4978 1288 
L 3444 1288 
L 3456 909 
L 4978 909 
z
" transform="scale(0.015625)"/>
      <path id="ArialUnicodeMS-4ef6" d="M 6081 1844 
L 4313 1844 
L 4313 -391 
L 3809 -391 
L 3809 1844 
L 2022 1844 
L 2022 2328 
L 3809 2328 
L 3809 3603 
L 2944 3603 
Q 2691 3019 2388 2572 
L 1941 2797 
Q 2625 3694 2759 4884 
L 3200 4744 
Q 3181 4369 3103 4091 
L 3809 4091 
L 3809 5356 
L 4313 5356 
L 4313 4091 
L 5644 4091 
L 5644 3603 
L 4313 3603 
L 4313 2328 
L 6081 2328 
L 6081 1844 
z
M 2175 5234 
Q 2113 4869 1947 4313 
L 1778 3781 
L 1778 -428 
L 1294 -428 
L 1294 2859 
L 703 2003 
L 288 2297 
Q 1400 3653 1716 5331 
L 2175 5234 
z
" transform="scale(0.015625)"/>
      <path id="ArialUnicodeMS-524d" d="M 5913 3975 
L 488 3975 
L 488 4434 
L 2047 4434 
Q 1791 4891 1394 5131 
L 1869 5403 
Q 2231 5181 2663 4434 
L 3669 4434 
Q 4044 4813 4281 5441 
L 4744 5191 
Q 4538 4744 4269 4434 
L 5913 4434 
L 5913 3975 
z
M 5369 128 
Q 5369 -369 4709 -378 
L 4231 -384 
L 4078 91 
Q 4647 91 4755 127 
Q 4863 163 4863 281 
L 4863 3700 
L 5369 3700 
L 5369 128 
z
M 3206 244 
Q 3206 -19 3014 -153 
Q 2822 -288 2528 -281 
L 2100 -275 
L 1941 191 
L 2591 172 
Q 2719 194 2719 294 
L 2719 1038 
L 1544 1038 
L 1544 -231 
L 1056 -231 
L 1056 3469 
L 3206 3469 
L 3206 244 
z
M 2719 2491 
L 2719 3009 
L 1544 3009 
L 1544 2491 
L 2719 2491 
z
M 2719 1497 
L 2719 2059 
L 1544 2059 
L 1544 1497 
L 2719 1497 
z
M 4281 763 
L 3794 763 
L 3794 3278 
L 4281 3278 
L 4281 763 
z
" transform="scale(0.015625)"/>
      <path id="ArialUnicodeMS-540e" d="M 5925 3138 
L 1631 3138 
L 1631 1850 
Q 1631 747 709 -384 
L 281 -56 
Q 1147 881 1147 1869 
L 1147 4666 
Q 3191 4666 5275 5403 
L 5613 5025 
Q 3828 4219 1631 4178 
L 1631 3603 
L 5925 3603 
L 5925 3138 
z
M 5388 -409 
L 4903 -409 
L 4903 97 
L 2644 97 
L 2644 -409 
L 2156 -409 
L 2156 2338 
L 5388 2338 
L 5388 -409 
z
M 4903 563 
L 4903 1869 
L 2644 1869 
L 2644 563 
L 4903 563 
z
" transform="scale(0.015625)"/>
      <path id="ArialUnicodeMS-7684" d="M 5644 4281 
Q 5619 1694 5395 673 
Q 5172 -347 4606 -347 
Q 4350 -347 3609 -134 
L 3525 403 
Q 4247 134 4531 134 
Q 4806 134 4976 1142 
Q 5147 2150 5159 3841 
L 3794 3841 
Q 3550 3166 3053 2497 
L 2719 2713 
L 2719 -147 
L 2216 -147 
L 2216 269 
L 1153 269 
L 1153 -250 
L 647 -250 
L 647 4184 
L 1234 4184 
Q 1494 4644 1625 5313 
L 2088 5125 
Q 1903 4444 1741 4184 
L 2719 4184 
L 2719 2881 
Q 3431 3888 3681 5363 
L 4191 5247 
Q 4106 4869 3916 4281 
L 5644 4281 
z
M 2216 2484 
L 2216 3719 
L 1153 3719 
L 1153 2484 
L 2216 2484 
z
M 2216 738 
L 2216 2016 
L 1153 2016 
L 1153 738 
L 2216 738 
z
M 4775 1369 
L 4313 1166 
Q 4034 1925 3444 2669 
L 3841 2931 
Q 4484 2191 4775 1369 
z
" transform="scale(0.015625)"/>
      <path id="ArialUnicodeMS-4ef7" d="M 6284 2975 
L 5900 2572 
Q 4847 3084 3928 4519 
Q 3178 3188 2041 2584 
L 1697 2981 
Q 3113 3628 3859 5422 
L 4281 5184 
L 4206 4997 
Q 5038 3547 6284 2975 
z
M 2241 5172 
Q 2156 4775 1913 4147 
L 1672 3531 
L 1672 -428 
L 1184 -428 
L 1184 2663 
Q 1113 2534 659 2041 
L 213 2322 
Q 1372 3522 1784 5344 
L 2241 5172 
z
M 4984 -409 
L 4500 -409 
L 4500 3116 
L 4984 3116 
L 4984 -409 
z
M 3397 1791 
Q 3397 1034 3097 531 
Q 2797 28 2059 -475 
L 1697 -72 
Q 2209 191 2561 647 
Q 2913 1103 2913 1528 
L 2913 3116 
L 3397 3116 
L 3397 1791 
z
" transform="scale(0.015625)"/>
      <path id="ArialUnicodeMS-8def" d="M 6194 2163 
L 5831 1772 
Q 4972 2059 4256 2688 
Q 3738 2263 3103 1972 
L 5306 1972 
L 5306 -409 
L 4806 -409 
L 4806 -78 
L 3584 -78 
L 3584 -428 
L 3084 -428 
L 3084 1959 
Q 2947 1891 2553 1753 
L 2431 1931 
L 1881 1931 
L 1881 856 
Q 2491 1103 2747 1191 
L 2747 697 
L 525 -250 
L 184 178 
Q 359 241 581 325 
L 581 2578 
L 1063 2578 
L 1063 525 
L 1403 659 
L 1403 3103 
L 672 3103 
L 672 5006 
L 2503 5006 
L 2503 3391 
Q 3100 3963 3513 5363 
L 3963 5203 
Q 3922 5013 3803 4738 
L 5491 4738 
L 5491 4341 
Q 5241 3619 4609 3016 
Q 5144 2531 6194 2163 
z
M 2022 3572 
L 2022 4538 
L 1153 4538 
L 1153 3572 
L 2022 3572 
z
M 4909 4269 
L 3713 4269 
Q 3863 3900 4288 3359 
Q 4669 3750 4909 4269 
z
M 3944 3041 
Q 3653 3403 3419 3816 
Q 3128 3297 2822 3028 
L 2503 3225 
L 2503 3103 
L 1881 3103 
L 1881 2400 
L 2503 2400 
L 2503 2247 
Q 3363 2569 3944 3041 
z
M 4806 391 
L 4806 1503 
L 3584 1503 
L 3584 391 
L 4806 391 
z
" transform="scale(0.015625)"/>
      <path id="ArialUnicodeMS-5f84" d="M 2209 5056 
Q 1775 3869 684 3041 
L 325 3391 
Q 1378 4219 1806 5325 
L 2209 5056 
z
M 6194 2450 
L 5875 1997 
Q 4631 2447 4038 2919 
Q 3281 2403 2222 2016 
L 1925 2413 
Q 2794 2691 3653 3250 
Q 3097 3756 2700 4588 
L 2431 4588 
L 2431 5075 
L 5556 5075 
L 5556 4588 
Q 5103 3778 4447 3250 
Q 5225 2750 6194 2450 
z
M 4972 4588 
L 3250 4588 
Q 3572 3925 4050 3553 
Q 4644 4019 4972 4588 
z
M 2394 3744 
Q 2072 3103 1831 2759 
L 1831 -422 
L 1350 -422 
L 1350 2150 
Q 969 1731 647 1478 
L 288 1850 
Q 809 2250 1150 2653 
Q 1491 3056 1991 4019 
L 2394 3744 
z
M 6059 -159 
L 1972 -159 
L 1972 300 
L 3775 300 
L 3775 1288 
L 2431 1288 
L 2431 1772 
L 3775 1772 
L 3775 2606 
L 4281 2606 
L 4281 1772 
L 5606 1772 
L 5606 1288 
L 4281 1288 
L 4281 300 
L 6059 300 
L 6059 -159 
z
" transform="scale(0.015625)"/>
     </defs>
     <use xlink:href="#ArialUnicodeMS-6781"/>
     <use xlink:href="#ArialUnicodeMS-7aef" x="100"/>
     <use xlink:href="#ArialUnicodeMS-707e" x="200"/>
     <use xlink:href="#ArialUnicodeMS-96be" x="300"/>
     <use xlink:href="#ArialUnicodeMS-4e8b" x="400"/>
     <use xlink:href="#ArialUnicodeMS-4ef6" x="500"/>
     <use xlink:href="#ArialUnicodeMS-524d" x="600"/>
     <use xlink:href="#ArialUnicodeMS-540e" x="700"/>
     <use xlink:href="#ArialUnicodeMS-7684" x="800"/>
     <use xlink:href="#ArialUnicodeMS-8d44" x="900"/>
     <use xlink:href="#ArialUnicodeMS-4ea7" x="1000"/>
     <use xlink:href="#ArialUnicodeMS-4ef7" x="1100"/>
     <use xlink:href="#ArialUnicodeMS-503c" x="1200"/>
     <use xlink:href="#ArialUnicodeMS-8def" x="1300"/>
     <use xlink:href="#ArialUnicodeMS-5f84" x="1400"/>
    </g>
   </g>
   <g id="legend_1">
    <g id="line2d_32">
     <path d="M 435.561562 165.046016 
L 446.561562 165.046016 
L 457.561562 165.046016 
" style="fill: none; stroke: #94a3b8; stroke-width: 2.5; stroke-linecap: square"/>
    </g>
    <g id="text_18">
     <!-- 金融资产 (b=80%) -->
     <g transform="translate(466.361562 168.896016) scale(0.11 -0.11)">
      <defs>
       <path id="ArialUnicodeMS-91d1" d="M 6144 3163 
L 5753 2766 
Q 5238 2934 4647 3328 
L 4647 3072 
L 3488 3072 
L 3488 2328 
L 5228 2328 
L 5228 1869 
L 3488 1869 
L 3488 325 
L 5778 325 
L 5778 -134 
L 709 -134 
L 709 325 
L 3003 325 
L 3003 1869 
L 1234 1869 
L 1234 2328 
L 3003 2328 
L 3003 3072 
L 1838 3072 
L 1838 3341 
Q 1266 2969 672 2700 
L 347 3103 
Q 2378 4019 3225 5478 
L 3622 5209 
L 3531 5044 
Q 4700 3588 6144 3163 
z
M 4378 3525 
Q 3634 4109 3244 4647 
Q 2638 3903 2113 3547 
L 2113 3525 
L 4378 3525 
z
M 5025 1522 
Q 4675 769 4141 359 
L 3706 659 
Q 4281 1072 4634 1806 
L 5025 1522 
z
M 2644 628 
L 2175 428 
Q 1897 1125 1441 1544 
L 1875 1747 
Q 2356 1334 2644 628 
z
" transform="scale(0.015625)"/>
       <path id="ArialUnicodeMS-878d" d="M 6188 -153 
Q 5934 -256 5728 -306 
Q 5663 131 5631 213 
Q 5316 122 3653 -219 
L 3463 166 
L 3450 166 
Q 3425 -9 3290 -151 
Q 3156 -294 2939 -303 
Q 2722 -313 2431 -313 
L 2284 122 
Q 2400 128 2537 109 
Q 2675 91 2722 91 
Q 2894 91 2948 158 
Q 3003 225 3003 459 
L 3003 1403 
Q 2700 1391 2512 1469 
Q 2325 1547 2289 1706 
Q 2253 1866 2203 2369 
L 1906 2375 
Q 1925 2031 1764 1711 
Q 1603 1391 1269 1281 
L 1269 1269 
L 2875 1269 
Q 2884 1125 2881 831 
L 2222 831 
L 2222 -31 
L 1772 -31 
L 1772 831 
L 1203 831 
L 1203 1269 
L 1069 1478 
L 1056 1478 
L 1056 -397 
L 603 -397 
L 603 2847 
L 3456 2847 
L 3456 263 
Q 4519 438 4575 453 
L 4575 1619 
L 3794 1619 
L 3794 4006 
L 4575 4006 
L 4575 5288 
L 5031 5281 
L 5031 4006 
L 5819 4006 
L 5819 1619 
L 5038 1619 
L 5038 513 
Q 5075 525 5265 558 
Q 5456 591 5503 616 
Q 5488 641 5414 817 
Q 5341 994 5241 1106 
L 5644 1253 
Q 6047 741 6188 -153 
z
M 5388 2094 
L 5388 3547 
L 5031 3541 
L 5031 2094 
L 5388 2094 
z
M 4575 2094 
L 4575 3547 
L 4244 3547 
L 4244 2094 
L 4575 2094 
z
M 3009 1844 
L 3009 2375 
L 2638 2375 
L 2638 1931 
Q 2666 1884 2692 1876 
Q 2719 1869 2819 1859 
Q 2919 1850 3009 1844 
z
M 1472 2375 
L 1063 2375 
L 1063 1650 
Q 1513 1853 1472 2375 
z
M 3694 4659 
L 409 4659 
L 409 5119 
L 3694 5119 
L 3694 4659 
z
M 3156 3122 
L 928 3122 
L 928 4372 
L 3156 4372 
L 3156 3122 
z
M 2681 3559 
L 2681 3922 
L 1394 3922 
L 1394 3559 
L 2681 3559 
z
" transform="scale(0.015625)"/>
       <path id="ArialUnicodeMS-62" d="M 1006 2944 
Q 1319 3391 1900 3391 
Q 2541 3391 2925 2925 
Q 3309 2459 3309 1709 
Q 3309 844 2879 383 
Q 2450 -78 1875 -78 
Q 1291 -78 966 416 
L 953 416 
L 953 0 
L 428 0 
L 428 4581 
L 991 4581 
L 991 2944 
L 1006 2944 
z
M 1831 384 
Q 2222 384 2476 720 
Q 2731 1056 2731 1663 
Q 2731 2247 2497 2589 
Q 2263 2931 1850 2931 
Q 1444 2931 1195 2578 
Q 947 2225 947 1684 
Q 947 1156 1050 932 
Q 1153 709 1361 546 
Q 1569 384 1831 384 
z
" transform="scale(0.015625)"/>
       <path id="ArialUnicodeMS-3d" d="M 3384 2694 
L 353 2694 
L 353 3219 
L 3384 3219 
L 3384 2694 
z
M 3384 1300 
L 353 1300 
L 353 1825 
L 3384 1825 
L 3384 1300 
z
" transform="scale(0.015625)"/>
       <path id="ArialUnicodeMS-25" d="M 4325 4659 
L 1838 -159 
L 1369 -159 
L 3872 4659 
L 4325 4659 
z
M 1428 4653 
Q 1856 4653 2137 4343 
Q 2419 4034 2419 3438 
Q 2419 2850 2131 2539 
Q 1844 2228 1434 2228 
Q 1009 2228 739 2540 
Q 469 2853 469 3475 
Q 469 3984 722 4318 
Q 975 4653 1428 4653 
z
M 1441 2619 
Q 1931 2619 1931 3463 
Q 1931 4269 1441 4269 
Q 953 4269 953 3419 
Q 953 2619 1441 2619 
z
M 4250 2253 
Q 4681 2253 4961 1943 
Q 5241 1634 5241 1038 
Q 5241 600 5087 328 
Q 4934 56 4709 -58 
Q 4484 -172 4256 -172 
Q 3831 -172 3561 140 
Q 3291 453 3291 1075 
Q 3291 1584 3544 1918 
Q 3797 2253 4250 2253 
z
M 4263 219 
Q 4756 219 4756 1063 
Q 4756 1869 4263 1869 
Q 3775 1869 3775 1019 
Q 3775 219 4263 219 
z
" transform="scale(0.015625)"/>
      </defs>
      <use xlink:href="#ArialUnicodeMS-91d1"/>
      <use xlink:href="#ArialUnicodeMS-878d" x="100"/>
      <use xlink:href="#ArialUnicodeMS-8d44" x="200"/>
      <use xlink:href="#ArialUnicodeMS-4ea7" x="300"/>
      <use xlink:href="#ArialUnicodeMS-20" x="400"/>
      <use xlink:href="#ArialUnicodeMS-28" x="427.783203"/>
      <use xlink:href="#ArialUnicodeMS-62" x="461.083984"/>
      <use xlink:href="#ArialUnicodeMS-3d" x="516.699219"/>
      <use xlink:href="#ArialUnicodeMS-38" x="575.097656"/>
      <use xlink:href="#ArialUnicodeMS-30" x="630.712891"/>
      <use xlink:href="#ArialUnicodeMS-25" x="686.328125"/>
      <use xlink:href="#ArialUnicodeMS-29" x="775.244141"/>
     </g>
    </g>
    <g id="line2d_33">
     <path d="M 435.561562 181.874297 
L 446.561562 181.874297 
L 457.561562 181.874297 
" style="fill: none; stroke: #10b981; stroke-width: 2.5; stroke-linecap: square"/>
    </g>
    <g id="text_19">
     <!-- 艺术品 (b=15%) -->
     <g transform="translate(466.361562 185.724297) scale(0.11 -0.11)">
      <defs>
       <path id="ArialUnicodeMS-827a" d="M 5881 4172 
L 4256 4172 
L 4256 3494 
L 3775 3494 
L 3775 4172 
L 2497 4172 
L 2497 3494 
L 2016 3494 
L 2016 4172 
L 441 4172 
L 441 4616 
L 2016 4616 
L 2016 5247 
L 2497 5247 
L 2497 4616 
L 3775 4616 
L 3775 5247 
L 4256 5247 
L 4256 4616 
L 5881 4616 
L 5881 4172 
z
M 5663 916 
Q 5522 -184 5006 -184 
L 1709 -184 
Q 1484 -184 1356 -32 
Q 1228 119 1228 338 
Q 1228 650 1828 1256 
Q 2428 1863 3681 2706 
L 3681 2713 
L 1325 2713 
L 1325 3181 
L 4494 3181 
L 4494 2725 
Q 3250 1931 2486 1186 
Q 1722 441 1722 338 
Q 1722 281 1772 281 
L 4825 281 
Q 5103 281 5172 1106 
L 5663 916 
z
" transform="scale(0.015625)"/>
       <path id="ArialUnicodeMS-672f" d="M 6059 494 
L 5716 103 
Q 5100 413 4472 1198 
Q 3844 1984 3513 3291 
L 3372 3291 
L 3372 -441 
L 2888 -441 
L 2888 3291 
L 2747 3291 
Q 2241 1028 563 109 
L 219 481 
Q 1775 1356 2278 3291 
L 391 3291 
L 391 3756 
L 2888 3756 
L 2888 5216 
L 3372 5216 
L 3372 3756 
L 5850 3756 
L 5850 3291 
L 3975 3291 
Q 4609 1278 6059 494 
z
M 5125 4159 
L 4750 3859 
Q 4403 4409 3744 4738 
L 4056 5050 
Q 4722 4747 5125 4159 
z
" transform="scale(0.015625)"/>
       <path id="ArialUnicodeMS-54c1" d="M 4997 2963 
L 1363 2963 
L 1363 5069 
L 4997 5069 
L 4997 2963 
z
M 4575 3378 
L 4575 4653 
L 1806 4653 
L 1806 3378 
L 4575 3378 
z
M 5656 -372 
L 5172 -372 
L 5172 72 
L 3956 72 
L 3956 -372 
L 3469 -372 
L 3469 2491 
L 5656 2491 
L 5656 -372 
z
M 5172 538 
L 5172 2022 
L 3956 2022 
L 3956 538 
L 5172 538 
z
M 2894 -397 
L 2406 -397 
L 2406 38 
L 1228 38 
L 1228 -422 
L 744 -409 
L 744 2472 
L 2894 2472 
L 2894 -397 
z
M 2406 506 
L 2406 2003 
L 1228 2003 
L 1228 506 
L 2406 506 
z
" transform="scale(0.015625)"/>
      </defs>
      <use xlink:href="#ArialUnicodeMS-827a"/>
      <use xlink:href="#ArialUnicodeMS-672f" x="100"/>
      <use xlink:href="#ArialUnicodeMS-54c1" x="200"/>
      <use xlink:href="#ArialUnicodeMS-20" x="300"/>
      <use xlink:href="#ArialUnicodeMS-28" x="327.783203"/>
      <use xlink:href="#ArialUnicodeMS-62" x="361.083984"/>
      <use xlink:href="#ArialUnicodeMS-3d" x="416.699219"/>
      <use xlink:href="#ArialUnicodeMS-31" x="475.097656"/>
      <use xlink:href="#ArialUnicodeMS-35" x="530.712891"/>
      <use xlink:href="#ArialUnicodeMS-25" x="586.328125"/>
      <use xlink:href="#ArialUnicodeMS-29" x="675.244141"/>
     </g>
    </g>
   </g>
  </g>
 </g>
 <defs>
  <clipPath id="p7f298bba52">
   <rect x="57.123125" y="37.044375" width="508.076875" height="273.42625"/>
  </clipPath>
 </defs>
</svg>
