<?xml version="1.0" encoding="utf-8" standalone="no"?>
<!DOCTYPE svg PUBLIC "-//W3C//DTD SVG 1.1//EN"
  "http://www.w3.org/Graphics/SVG/1.1/DTD/svg11.dtd">
<svg xmlns:xlink="http://www.w3.org/1999/xlink" width="576pt" height="360pt" viewBox="0 0 576 360" xmlns="http://www.w3.org/2000/svg" version="1.1">
 <metadata>
  <rdf:RDF xmlns:dc="http://purl.org/dc/elements/1.1/" xmlns:cc="http://creativecommons.org/ns#" xmlns:rdf="http://www.w3.org/1999/02/22-rdf-syntax-ns#">
   <cc:Work>
    <dc:type rdf:resource="http://purl.org/dc/dcmitype/StillImage"/>
    <dc:date>2026-04-28T12:02:13.674574</dc:date>
    <dc:format>image/svg+xml</dc:format>
    <dc:creator>
     <cc:Agent>
      <dc:title>Matplotlib v3.9.4, https://matplotlib.org/</dc:title>
     </cc:Agent>
    </dc:creator>
   </cc:Work>
  </rdf:RDF>
 </metadata>
 <defs>
  <style type="text/css">*{stroke-linejoin: round; stroke-linecap: butt}</style>
 </defs>
 <g id="figure_1">
  <g id="patch_1">
   <path d="M 0 360 
L 576 360 
L 576 0 
L 0 0 
L 0 360 
z
" style="fill: none"/>
  </g>
  <g id="axes_1">
   <g id="patch_2">
    <path d="M 33.45625 309.435625 
L 565.2 309.435625 
L 565.2 36.99375 
L 33.45625 36.99375 
L 33.45625 309.435625 
z
" style="fill: none"/>
   </g>
   <g id="matplotlib.axis_1">
    <g id="xtick_1">
     <g id="line2d_1">
      <path d="M 185.383036 309.435625 
L 185.383036 36.99375 
" clip-path="url(#p9a8ab96bff)" style="fill: none; stroke-dasharray: 2.96,1.28; stroke-dashoffset: 0; stroke: #eeeeee; stroke-opacity: 0.5; stroke-width: 0.8"/>
     </g>
     <g id="line2d_2">
      <defs>
       <path id="mcc8deb8e24" d="M 0 0 
L 0 3.5 
" style="stroke: #666666; stroke-width: 0.8"/>
      </defs>
      <g>
       <use xlink:href="#mcc8deb8e24" x="185.383036" y="309.435625" style="fill: #666666; stroke: #666666; stroke-width: 0.8"/>
      </g>
     </g>
     <g id="text_1">
      <!-- Q̄ (严格固定) -->
      <g style="fill: #666666" transform="translate(156.775223 324.785625) scale(0.1 -0.1)">
       <defs>
        <path id="ArialUnicodeMS-51" d="M 4769 63 
L 4588 -359 
Q 4056 -156 3609 206 
Q 3091 -78 2484 -78 
Q 1525 -78 912 586 
Q 300 1250 300 2291 
Q 300 3322 894 3990 
Q 1488 4659 2497 4659 
Q 3456 4659 4070 4006 
Q 4684 3353 4684 2297 
Q 4684 1166 3994 494 
Q 4381 216 4769 63 
z
M 3519 825 
Q 4056 1322 4056 2291 
Q 4056 3156 3623 3648 
Q 3191 4141 2497 4141 
Q 1803 4141 1365 3669 
Q 928 3197 928 2291 
Q 928 1403 1365 922 
Q 1803 441 2497 441 
Q 2838 441 3109 563 
Q 2806 756 2509 825 
L 2656 1269 
Q 3216 1109 3519 825 
z
" transform="scale(0.015625)"/>
        <path id="ArialUnicodeMS-304" d="M -799 3994 
L -2749 3994 
L -2749 4459 
L -799 4459 
L -799 3994 
z
" transform="scale(0.015625)"/>
        <path id="ArialUnicodeMS-20" transform="scale(0.015625)"/>
        <path id="ArialUnicodeMS-28" d="M 1900 -1344 
L 1497 -1344 
Q 978 -681 681 103 
Q 384 888 384 1656 
Q 384 2528 700 3275 
Q 1016 4022 1497 4659 
L 1900 4659 
Q 1344 3747 1155 3059 
Q 966 2372 966 1663 
Q 966 153 1900 -1344 
z
" transform="scale(0.015625)"/>
        <path id="ArialUnicodeMS-4e25" d="M 5850 2784 
L 1478 2784 
L 1478 1388 
Q 1478 994 1217 453 
Q 956 -88 588 -391 
L 244 -44 
Q 600 225 795 673 
Q 991 1122 991 1947 
L 991 3250 
L 2338 3250 
L 2338 4538 
L 756 4538 
L 756 5006 
L 5484 5006 
L 5484 4538 
L 4078 4538 
L 4078 3250 
L 5850 3250 
L 5850 2784 
z
M 3591 3250 
L 3591 4538 
L 2822 4538 
L 2822 3250 
L 3591 3250 
z
M 5484 4147 
Q 5134 3609 4666 3341 
L 4281 3700 
Q 4809 3959 5153 4428 
L 5484 4147 
z
M 2088 3609 
L 1650 3353 
Q 1488 3856 1019 4172 
L 1403 4428 
Q 1866 4109 2088 3609 
z
" transform="scale(0.015625)"/>
        <path id="ArialUnicodeMS-683c" d="M 6194 2175 
L 5906 1772 
Q 4913 2122 4178 2719 
Q 3678 2294 2472 1747 
L 2169 2150 
Q 3034 2441 3847 3066 
Q 3747 3188 3397 3756 
Q 3081 3256 2822 2988 
L 2406 3263 
Q 3166 4016 3475 5344 
L 3944 5203 
Q 3931 5103 3803 4684 
L 5484 4684 
Q 5234 3734 4525 3034 
Q 5213 2463 6194 2175 
z
M 4819 4219 
L 3694 4219 
Q 3897 3769 4213 3378 
Q 4550 3747 4819 4219 
z
M 2784 2547 
L 2388 2266 
Q 2122 2697 1900 2834 
L 1900 -416 
L 1416 -416 
L 1416 2047 
Q 1069 1388 678 941 
L 281 1247 
Q 1191 2294 1363 3572 
L 513 3572 
L 513 4038 
L 1394 4038 
L 1394 5288 
L 1900 5288 
L 1900 4038 
L 2547 4038 
L 2547 3572 
L 1900 3572 
L 1900 3238 
L 1966 3316 
Q 2469 3016 2784 2547 
z
M 5350 -397 
L 4863 -397 
L 4863 -38 
L 3488 -38 
L 3488 -416 
L 3003 -416 
L 3003 1978 
L 5350 1978 
L 5350 -397 
z
M 4863 428 
L 4863 1509 
L 3488 1509 
L 3488 428 
L 4863 428 
z
" transform="scale(0.015625)"/>
        <path id="ArialUnicodeMS-56fa" d="M 5663 -447 
L 5178 -447 
L 5178 19 
L 1222 19 
L 1222 -447 
L 738 -447 
L 738 5025 
L 5663 5025 
L 5663 -447 
z
M 5178 459 
L 5178 4581 
L 1222 4581 
L 1222 459 
L 5178 459 
z
M 5019 3238 
L 3450 3238 
L 3450 2613 
L 4513 2613 
L 4513 928 
L 1894 928 
L 1894 2613 
L 2963 2613 
L 2963 3238 
L 1434 3238 
L 1434 3706 
L 2963 3706 
L 2963 4441 
L 3450 4441 
L 3450 3706 
L 5019 3706 
L 5019 3238 
z
M 4025 1369 
L 4025 2144 
L 2381 2144 
L 2381 1369 
L 4025 1369 
z
" transform="scale(0.015625)"/>
        <path id="ArialUnicodeMS-5b9a" d="M 5747 3353 
L 5247 3353 
L 5247 4153 
L 1141 4153 
L 1141 3391 
L 653 3391 
L 653 4622 
L 2956 4622 
L 2956 5288 
L 3444 5288 
L 3444 4622 
L 5747 4622 
L 5747 3353 
z
M 6100 416 
L 5863 -97 
Q 5559 -109 5147 -109 
Q 3516 -109 2859 30 
Q 2203 169 1638 781 
Q 1378 175 659 -428 
L 263 -25 
Q 1481 681 1434 2528 
L 1913 2419 
Q 1903 1834 1806 1288 
Q 2259 666 3009 500 
L 3009 2925 
L 1325 2925 
L 1325 3391 
L 5106 3391 
L 5106 2925 
L 3494 2925 
L 3494 1978 
L 5422 1978 
L 5422 1509 
L 3494 1509 
L 3494 428 
L 4263 403 
L 6100 416 
z
" transform="scale(0.015625)"/>
        <path id="ArialUnicodeMS-29" d="M 634 4659 
Q 1153 3997 1450 3212 
Q 1747 2428 1747 1656 
Q 1747 788 1431 41 
Q 1116 -706 634 -1344 
L 231 -1344 
Q 788 -431 977 255 
Q 1166 941 1166 1650 
Q 1166 3163 231 4659 
L 634 4659 
z
" transform="scale(0.015625)"/>
       </defs>
       <use xlink:href="#ArialUnicodeMS-51"/>
       <use xlink:href="#ArialUnicodeMS-304" x="77.783203"/>
       <use xlink:href="#ArialUnicodeMS-20" x="77.783203"/>
       <use xlink:href="#ArialUnicodeMS-28" x="105.566406"/>
       <use xlink:href="#ArialUnicodeMS-4e25" x="138.867188"/>
       <use xlink:href="#ArialUnicodeMS-683c" x="238.867188"/>
       <use xlink:href="#ArialUnicodeMS-56fa" x="338.867188"/>
       <use xlink:href="#ArialUnicodeMS-5b9a" x="438.867188"/>
       <use xlink:href="#ArialUnicodeMS-29" x="538.867188"/>
      </g>
     </g>
    </g>
    <g id="text_2">
     <!-- 数量 (Q) -->
     <g style="fill: #666666" transform="translate(276.99875 346.735) scale(0.12 -0.12)">
      <defs>
       <path id="ArialUnicodeMS-6570" d="M 6138 19 
L 5806 -378 
Q 5031 194 4697 716 
Q 4344 144 3328 -441 
L 2981 -50 
Q 3966 434 4403 1153 
Q 4038 1834 3866 2753 
Q 3678 2356 3353 1919 
L 2950 2203 
Q 3838 3172 3963 5253 
L 4409 5125 
Q 4341 4384 4269 4006 
L 5984 4006 
L 5984 3547 
L 5619 3541 
L 5594 3341 
Q 5441 2113 4978 1191 
Q 5281 672 6138 19 
z
M 5166 3541 
L 4172 3541 
Q 4297 2419 4691 1650 
Q 5038 2513 5166 3541 
z
M 3438 3653 
L 2209 3653 
L 2209 2338 
L 1919 2338 
Q 1900 2269 1753 1931 
L 3225 1931 
L 3225 1472 
L 2913 1472 
Q 2763 991 2503 666 
Q 2947 353 3103 184 
L 2747 -172 
Q 2463 138 2150 313 
Q 1322 -225 563 -428 
L 269 6 
Q 1106 163 1684 563 
Q 1291 756 703 884 
L 1038 1472 
L 403 1472 
L 403 1931 
L 1259 1931 
Q 1328 2056 1466 2553 
L 1747 2484 
L 1747 3653 
L 1716 3653 
Q 1413 2881 678 2456 
L 378 2803 
Q 938 3091 1241 3653 
L 403 3653 
L 403 4122 
L 1747 4122 
L 1747 5228 
L 2209 5228 
L 2209 4122 
L 3438 4122 
L 3438 3653 
z
M 2406 1472 
L 1538 1472 
Q 1422 1241 1369 1153 
Q 1388 1159 2069 884 
Q 2219 1031 2406 1472 
z
M 1625 4441 
L 1288 4159 
Q 1022 4547 575 4813 
L 878 5075 
Q 1394 4844 1625 4441 
z
M 3384 4844 
Q 3097 4409 2669 4172 
L 2322 4481 
Q 2806 4759 3047 5069 
L 3384 4844 
z
M 3303 2888 
L 2944 2578 
Q 2706 3025 2291 3297 
L 2584 3566 
Q 2988 3359 3303 2888 
z
" transform="scale(0.015625)"/>
       <path id="ArialUnicodeMS-91cf" d="M 5056 3378 
L 1313 3378 
L 1313 5050 
L 5056 5050 
L 5056 3378 
z
M 4569 4403 
L 4569 4609 
L 1797 4609 
L 1797 4403 
L 4569 4403 
z
M 4569 3794 
L 4569 4031 
L 1797 4031 
L 1797 3794 
L 4569 3794 
z
M 5797 2816 
L 581 2816 
L 581 3231 
L 5797 3231 
L 5797 2816 
z
M 6059 -191 
L 341 -191 
L 341 275 
L 2950 275 
L 2950 459 
L 897 459 
L 897 878 
L 2950 878 
L 2950 1044 
L 1125 1044 
L 1125 2669 
L 5269 2669 
L 5269 1044 
L 3438 1044 
L 3438 878 
L 5509 878 
L 5509 459 
L 3438 459 
L 3438 275 
L 6059 275 
L 6059 -191 
z
M 4781 2053 
L 4781 2253 
L 3438 2253 
L 3438 2053 
L 4781 2053 
z
M 2950 2053 
L 2950 2253 
L 1613 2253 
L 1613 2053 
L 2950 2053 
z
M 4781 1459 
L 4781 1697 
L 3438 1697 
L 3438 1459 
L 4781 1459 
z
M 2950 1459 
L 2950 1697 
L 1613 1697 
L 1613 1459 
L 2950 1459 
z
" transform="scale(0.015625)"/>
      </defs>
      <use xlink:href="#ArialUnicodeMS-6570"/>
      <use xlink:href="#ArialUnicodeMS-91cf" x="100"/>
      <use xlink:href="#ArialUnicodeMS-20" x="200"/>
      <use xlink:href="#ArialUnicodeMS-28" x="227.783203"/>
      <use xlink:href="#ArialUnicodeMS-51" x="261.083984"/>
      <use xlink:href="#ArialUnicodeMS-29" x="338.867188"/>
     </g>
    </g>
   </g>
   <g id="matplotlib.axis_2">
    <g id="text_3">
     <!-- 价格 (P) -->
     <g style="fill: #666666" transform="translate(20.93625 194.879375) rotate(-90) scale(0.12 -0.12)">
      <defs>
       <path id="ArialUnicodeMS-4ef7" d="M 6284 2975 
L 5900 2572 
Q 4847 3084 3928 4519 
Q 3178 3188 2041 2584 
L 1697 2981 
Q 3113 3628 3859 5422 
L 4281 5184 
L 4206 4997 
Q 5038 3547 6284 2975 
z
M 2241 5172 
Q 2156 4775 1913 4147 
L 1672 3531 
L 1672 -428 
L 1184 -428 
L 1184 2663 
Q 1113 2534 659 2041 
L 213 2322 
Q 1372 3522 1784 5344 
L 2241 5172 
z
M 4984 -409 
L 4500 -409 
L 4500 3116 
L 4984 3116 
L 4984 -409 
z
M 3397 1791 
Q 3397 1034 3097 531 
Q 2797 28 2059 -475 
L 1697 -72 
Q 2209 191 2561 647 
Q 2913 1103 2913 1528 
L 2913 3116 
L 3397 3116 
L 3397 1791 
z
" transform="scale(0.015625)"/>
       <path id="ArialUnicodeMS-50" d="M 494 4581 
L 2222 4581 
Q 2631 4581 2926 4540 
Q 3222 4500 3475 4329 
Q 3728 4159 3858 3867 
Q 3988 3575 3988 3256 
Q 3988 2622 3580 2239 
Q 3172 1856 2272 1856 
L 1100 1856 
L 1100 0 
L 494 0 
L 494 4581 
z
M 1100 2400 
L 2278 2400 
Q 3359 2400 3359 3238 
Q 3359 3513 3218 3723 
Q 3078 3934 2873 3986 
Q 2669 4038 2266 4038 
L 1100 4038 
L 1100 2400 
z
" transform="scale(0.015625)"/>
      </defs>
      <use xlink:href="#ArialUnicodeMS-4ef7"/>
      <use xlink:href="#ArialUnicodeMS-683c" x="100"/>
      <use xlink:href="#ArialUnicodeMS-20" x="200"/>
      <use xlink:href="#ArialUnicodeMS-28" x="227.783203"/>
      <use xlink:href="#ArialUnicodeMS-50" x="261.083984"/>
      <use xlink:href="#ArialUnicodeMS-29" x="327.783203"/>
     </g>
    </g>
   </g>
   <g id="line2d_3">
    <path d="M 185.383036 309.435625 
L 185.383036 36.99375 
" clip-path="url(#p9a8ab96bff)" style="fill: none; stroke: #f59e0b; stroke-width: 3; stroke-linecap: square"/>
   </g>
   <g id="line2d_4">
    <path d="M 527.218304 295.813531 
L 521.01721 293.589516 
L 514.816117 291.365501 
L 508.615024 289.141485 
L 502.41393 286.91747 
L 496.212837 284.693455 
L 490.011744 282.469439 
L 483.810651 280.245424 
L 477.609557 278.021409 
L 471.408464 275.797393 
L 465.207371 273.573378 
L 459.006277 271.349363 
L 452.805184 269.125348 
L 446.604091 266.901332 
L 440.402997 264.677317 
L 434.201904 262.453302 
L 428.000811 260.229286 
L 421.799718 258.005271 
L 415.598624 255.781256 
L 409.397531 253.55724 
L 403.196438 251.333225 
L 396.995344 249.10921 
L 390.794251 246.885195 
L 384.593158 244.661179 
L 378.392065 242.437164 
L 372.190971 240.213149 
L 365.989878 237.989133 
L 359.788785 235.765118 
L 353.587691 233.541103 
L 347.386598 231.317087 
L 341.185505 229.093072 
L 334.984411 226.869057 
L 328.783318 224.645041 
L 322.582225 222.421026 
L 316.381132 220.197011 
L 310.180038 217.972996 
L 303.978945 215.74898 
L 297.777852 213.524965 
L 291.576758 211.30095 
L 285.375665 209.076934 
L 279.174572 206.852919 
L 272.973478 204.628904 
L 266.772385 202.404888 
L 260.571292 200.180873 
L 254.370199 197.956858 
L 248.169105 195.732842 
L 241.968012 193.508827 
L 235.766919 191.284812 
L 229.565825 189.060797 
L 223.364732 186.836781 
" clip-path="url(#p9a8ab96bff)" style="fill: none; stroke: #94a3b8; stroke-width: 2.5; stroke-linecap: square"/>
   </g>
   <g id="line2d_5">
    <path d="M 577 231.93512 
L 575.276777 231.317087 
L 569.075683 229.093072 
L 562.87459 226.869057 
L 556.673497 224.645041 
L 550.472403 222.421026 
L 544.27131 220.197011 
L 538.070217 217.972996 
L 531.869124 215.74898 
L 525.66803 213.524965 
L 519.466937 211.30095 
L 513.265844 209.076934 
L 507.06475 206.852919 
L 500.863657 204.628904 
L 494.662564 202.404888 
L 488.46147 200.180873 
L 482.260377 197.956858 
L 476.059284 195.732842 
L 469.858191 193.508827 
L 463.657097 191.284812 
L 457.456004 189.060797 
L 451.254911 186.836781 
" clip-path="url(#p9a8ab96bff)" style="fill: none; stroke: #3b82f6; stroke-width: 2.5; stroke-linecap: square"/>
   </g>
   <g id="line2d_6">
    <path d="M 185.383036 173.214687 
" clip-path="url(#p9a8ab96bff)" style="fill: none; stroke: #000000; stroke-width: 1.5; stroke-linecap: square"/>
    <defs>
     <path id="ma53cda6bed" d="M 0 4 
C 1.060812 4 2.078319 3.578535 2.828427 2.828427 
C 3.578535 2.078319 4 1.060812 4 0 
C 4 -1.060812 3.578535 -2.078319 2.828427 -2.828427 
C 2.078319 -3.578535 1.060812 -4 0 -4 
C -1.060812 -4 -2.078319 -3.578535 -2.828427 -2.828427 
C -3.578535 -2.078319 -4 -1.060812 -4 0 
C -4 1.060812 -3.578535 2.078319 -2.828427 2.828427 
C -2.078319 3.578535 -1.060812 4 0 4 
z
" style="stroke: #000000"/>
    </defs>
    <g clip-path="url(#p9a8ab96bff)">
     <use xlink:href="#ma53cda6bed" x="185.383036" y="173.214687" style="stroke: #000000"/>
    </g>
   </g>
   <g id="line2d_7">
    <path d="M 185.383036 91.482125 
" clip-path="url(#p9a8ab96bff)" style="fill: none; stroke: #000000; stroke-width: 1.5; stroke-linecap: square"/>
    <g clip-path="url(#p9a8ab96bff)">
     <use xlink:href="#ma53cda6bed" x="185.383036" y="91.482125" style="stroke: #000000"/>
    </g>
   </g>
   <g id="patch_3">
    <path d="M 33.45625 309.435625 
L 33.45625 36.99375 
" style="fill: none; stroke: #dddddd; stroke-width: 0.8; stroke-linejoin: miter; stroke-linecap: square"/>
   </g>
   <g id="patch_4">
    <path d="M 33.45625 309.435625 
L 565.2 309.435625 
" style="fill: none; stroke: #dddddd; stroke-width: 0.8; stroke-linejoin: miter; stroke-linecap: square"/>
   </g>
   <g id="patch_5">
    <path d="M 147.401339 171.214275 
Q 147.401339 132.348258 147.401339 95.71831 
" style="fill: none; stroke: #ef4444; stroke-width: 2; stroke-linecap: round"/>
    <path d="M 145.401339 99.71831 
L 147.401339 95.71831 
L 149.401339 99.71831 
" style="fill: none; stroke: #ef4444; stroke-width: 2; stroke-linecap: round"/>
   </g>
   <g id="text_4">
    <!-- dP/dD → ∞ -->
    <g style="fill: #ef4444" transform="translate(78.645134 129.602) scale(0.1 -0.1)">
     <defs>
      <path id="ArialUnicodeMS-64" d="M 3109 0 
L 2584 0 
L 2584 422 
L 2572 422 
Q 2269 -78 1656 -78 
Q 1047 -78 639 405 
Q 231 888 231 1656 
Q 231 2459 615 2925 
Q 1000 3391 1631 3391 
Q 2225 3391 2534 2938 
L 2547 2938 
L 2547 4581 
L 3109 4581 
L 3109 0 
z
M 1716 384 
Q 2084 384 2340 687 
Q 2597 991 2597 1606 
Q 2597 2213 2362 2572 
Q 2128 2931 1691 2931 
Q 1253 2931 1029 2579 
Q 806 2228 806 1656 
Q 806 1244 926 958 
Q 1047 672 1262 528 
Q 1478 384 1716 384 
z
" transform="scale(0.015625)"/>
      <path id="ArialUnicodeMS-2f" d="M 1778 4581 
L 453 -153 
L 0 -153 
L 1325 4581 
L 1778 4581 
z
" transform="scale(0.015625)"/>
      <path id="ArialUnicodeMS-44" d="M 513 4581 
L 2094 4581 
Q 2509 4581 2809 4539 
Q 3109 4497 3382 4333 
Q 3656 4169 3861 3881 
Q 4066 3594 4183 3220 
Q 4300 2847 4300 2316 
Q 4300 1303 3819 651 
Q 3338 0 2163 0 
L 513 0 
L 513 4581 
z
M 1119 544 
L 2100 544 
Q 2400 544 2636 581 
Q 2872 619 3114 784 
Q 3356 950 3515 1328 
Q 3675 1706 3675 2328 
Q 3675 2672 3614 2970 
Q 3553 3269 3389 3514 
Q 3225 3759 3012 3873 
Q 2800 3988 2598 4013 
Q 2397 4038 2081 4038 
L 1119 4038 
L 1119 544 
z
" transform="scale(0.015625)"/>
      <path id="ArialUnicodeMS-2192" d="M 4306 1563 
Q 3528 1278 3091 641 
L 2869 641 
Q 3019 1088 3372 1484 
L 256 1484 
L 256 1791 
L 3372 1791 
Q 3019 2188 2869 2638 
L 3091 2638 
Q 3528 2000 4306 1716 
L 4306 1563 
z
" transform="scale(0.015625)"/>
      <path id="ArialUnicodeMS-221e" d="M 3384 1644 
Q 3384 1156 3122 881 
Q 2891 634 2541 634 
Q 2059 634 1734 1325 
Q 1450 763 953 763 
Q 594 763 361 1013 
Q 128 1263 128 1650 
Q 128 2053 341 2297 
Q 547 2528 872 2528 
Q 1309 2528 1581 1978 
Q 1716 2341 1917 2495 
Q 2119 2650 2463 2650 
Q 2869 2650 3126 2365 
Q 3384 2081 3384 1644 
z
M 3231 1644 
Q 3231 1981 3039 2212 
Q 2847 2444 2566 2444 
Q 2313 2444 2150 2241 
Q 2094 2169 1984 1916 
Q 1825 1534 1806 1497 
Q 1984 1150 2141 1003 
Q 2319 838 2553 838 
Q 2859 838 3045 1055 
Q 3231 1272 3231 1644 
z
M 1509 1791 
Q 1263 2322 863 2322 
Q 597 2322 439 2134 
Q 281 1947 281 1650 
Q 281 1363 442 1164 
Q 603 966 819 966 
Q 1241 966 1509 1791 
z
" transform="scale(0.015625)"/>
     </defs>
     <use xlink:href="#ArialUnicodeMS-64"/>
     <use xlink:href="#ArialUnicodeMS-50" x="55.615234"/>
     <use xlink:href="#ArialUnicodeMS-2f" x="122.314453"/>
     <use xlink:href="#ArialUnicodeMS-64" x="150.097656"/>
     <use xlink:href="#ArialUnicodeMS-44" x="205.712891"/>
     <use xlink:href="#ArialUnicodeMS-20" x="277.929688"/>
     <use xlink:href="#ArialUnicodeMS-2192" x="305.712891"/>
     <use xlink:href="#ArialUnicodeMS-20" x="377.001953"/>
     <use xlink:href="#ArialUnicodeMS-221e" x="404.785156"/>
    </g>
    <!-- 价格大幅跃升 -->
    <g style="fill: #ef4444" transform="translate(64.612321 140.260437) scale(0.1 -0.1)">
     <defs>
      <path id="ArialUnicodeMS-5927" d="M 5972 109 
L 5625 -275 
Q 4584 341 4046 1159 
Q 3509 1978 3322 3250 
Q 3088 1959 2520 1142 
Q 1953 325 909 -244 
L 544 197 
Q 2403 1081 2809 3256 
L 856 3256 
L 856 3744 
L 2853 3744 
Q 2919 4313 2900 5356 
L 3419 5281 
Q 3434 4266 3384 3744 
L 5684 3744 
L 5684 3256 
L 3803 3256 
Q 4003 2125 4512 1389 
Q 5022 653 5972 109 
z
" transform="scale(0.015625)"/>
      <path id="ArialUnicodeMS-5e45" d="M 2528 1478 
Q 2528 1294 2429 1178 
Q 2331 1063 2187 1048 
Q 2044 1034 1819 1025 
L 1747 1369 
L 1747 -441 
L 1269 -441 
L 1269 3572 
L 1031 3572 
L 1031 891 
L 544 891 
L 544 4038 
L 1269 4038 
L 1269 5306 
L 1753 5306 
L 1753 4038 
L 2528 4038 
L 2528 1478 
z
M 2041 1644 
L 2041 3572 
L 1753 3572 
L 1753 1503 
Q 2041 1484 2041 1644 
z
M 5913 4556 
L 2400 4556 
L 2400 5025 
L 5913 5025 
L 5913 4556 
z
M 5363 2881 
L 3022 2881 
L 3022 4306 
L 5363 4306 
L 5363 2881 
z
M 4878 3347 
L 4878 3841 
L 3506 3841 
L 3506 3347 
L 4878 3347 
z
M 5619 -416 
L 5131 -416 
L 5131 -38 
L 3231 -38 
L 3231 -441 
L 2747 -441 
L 2747 2566 
L 5619 2566 
L 5619 -416 
z
M 5131 1516 
L 5131 2100 
L 4428 2100 
L 4428 1516 
L 5131 1516 
z
M 3944 1516 
L 3944 2100 
L 3231 2100 
L 3231 1516 
L 3944 1516 
z
M 5131 428 
L 5131 1050 
L 4428 1050 
L 4428 428 
L 5131 428 
z
M 3944 428 
L 3944 1050 
L 3231 1050 
L 3231 428 
L 3944 428 
z
" transform="scale(0.015625)"/>
      <path id="ArialUnicodeMS-8dc3" d="M 6163 -72 
L 5797 -397 
Q 5294 -16 4898 771 
Q 4503 1559 4331 2503 
L 4319 2503 
Q 4106 656 2503 -409 
L 2156 -13 
Q 3628 1000 3853 2638 
L 2463 2638 
L 2463 3103 
L 3891 3103 
Q 3909 4216 3909 4366 
Q 3397 4247 2956 4231 
L 2694 4744 
Q 4109 4700 5259 5325 
L 5466 4934 
Q 4913 4625 4397 4488 
L 4378 3103 
L 5844 3103 
L 5844 2638 
L 4756 2638 
Q 5056 997 6163 -72 
z
M 2638 594 
Q 2166 431 531 -50 
L 250 428 
L 575 494 
L 575 2753 
L 1063 2753 
L 1063 603 
L 1478 716 
L 1478 3238 
L 653 3238 
L 653 5031 
L 2572 5031 
L 2572 3238 
L 1966 3238 
L 1966 2169 
L 2572 2169 
L 2572 1703 
L 1966 1703 
L 1966 878 
Q 2175 931 2638 1075 
L 2638 594 
z
M 2088 3706 
L 2088 4563 
L 1106 4563 
L 1106 3706 
L 2088 3706 
z
" transform="scale(0.015625)"/>
      <path id="ArialUnicodeMS-5347" d="M 5953 2356 
L 4603 2356 
L 4603 -453 
L 4116 -453 
L 4116 2356 
L 2578 2356 
Q 2538 1350 2141 706 
Q 1744 63 838 -453 
L 513 -19 
Q 1275 331 1694 964 
Q 2113 1597 2088 2356 
L 684 2356 
L 684 2822 
L 2113 2822 
L 2113 4250 
Q 1597 4116 972 4072 
L 716 4556 
Q 2253 4625 3309 5288 
L 3653 4922 
Q 3219 4644 2597 4391 
L 2597 2822 
L 4116 2822 
L 4116 5294 
L 4603 5294 
L 4603 2822 
L 5953 2822 
L 5953 2356 
z
" transform="scale(0.015625)"/>
     </defs>
     <use xlink:href="#ArialUnicodeMS-4ef7"/>
     <use xlink:href="#ArialUnicodeMS-683c" x="100"/>
     <use xlink:href="#ArialUnicodeMS-5927" x="200"/>
     <use xlink:href="#ArialUnicodeMS-5e45" x="300"/>
     <use xlink:href="#ArialUnicodeMS-8dc3" x="400"/>
     <use xlink:href="#ArialUnicodeMS-5347" x="500"/>
    </g>
   </g>
   <g id="text_5">
    <!-- 艺术品市场的完全刚性供给与价格跃升 -->
    <g style="fill: #333333" transform="translate(171.828125 21.99375) scale(0.15 -0.15)">
     <defs>
      <path id="ArialUnicodeMS-827a" d="M 5881 4172 
L 4256 4172 
L 4256 3494 
L 3775 3494 
L 3775 4172 
L 2497 4172 
L 2497 3494 
L 2016 3494 
L 2016 4172 
L 441 4172 
L 441 4616 
L 2016 4616 
L 2016 5247 
L 2497 5247 
L 2497 4616 
L 3775 4616 
L 3775 5247 
L 4256 5247 
L 4256 4616 
L 5881 4616 
L 5881 4172 
z
M 5663 916 
Q 5522 -184 5006 -184 
L 1709 -184 
Q 1484 -184 1356 -32 
Q 1228 119 1228 338 
Q 1228 650 1828 1256 
Q 2428 1863 3681 2706 
L 3681 2713 
L 1325 2713 
L 1325 3181 
L 4494 3181 
L 4494 2725 
Q 3250 1931 2486 1186 
Q 1722 441 1722 338 
Q 1722 281 1772 281 
L 4825 281 
Q 5103 281 5172 1106 
L 5663 916 
z
" transform="scale(0.015625)"/>
      <path id="ArialUnicodeMS-672f" d="M 6059 494 
L 5716 103 
Q 5100 413 4472 1198 
Q 3844 1984 3513 3291 
L 3372 3291 
L 3372 -441 
L 2888 -441 
L 2888 3291 
L 2747 3291 
Q 2241 1028 563 109 
L 219 481 
Q 1775 1356 2278 3291 
L 391 3291 
L 391 3756 
L 2888 3756 
L 2888 5216 
L 3372 5216 
L 3372 3756 
L 5850 3756 
L 5850 3291 
L 3975 3291 
Q 4609 1278 6059 494 
z
M 5125 4159 
L 4750 3859 
Q 4403 4409 3744 4738 
L 4056 5050 
Q 4722 4747 5125 4159 
z
" transform="scale(0.015625)"/>
      <path id="ArialUnicodeMS-54c1" d="M 4997 2963 
L 1363 2963 
L 1363 5069 
L 4997 5069 
L 4997 2963 
z
M 4575 3378 
L 4575 4653 
L 1806 4653 
L 1806 3378 
L 4575 3378 
z
M 5656 -372 
L 5172 -372 
L 5172 72 
L 3956 72 
L 3956 -372 
L 3469 -372 
L 3469 2491 
L 5656 2491 
L 5656 -372 
z
M 5172 538 
L 5172 2022 
L 3956 2022 
L 3956 538 
L 5172 538 
z
M 2894 -397 
L 2406 -397 
L 2406 38 
L 1228 38 
L 1228 -422 
L 744 -409 
L 744 2472 
L 2894 2472 
L 2894 -397 
z
M 2406 506 
L 2406 2003 
L 1228 2003 
L 1228 506 
L 2406 506 
z
" transform="scale(0.015625)"/>
      <path id="ArialUnicodeMS-5e02" d="M 5941 4013 
L 3431 4013 
L 3431 3156 
L 5228 3156 
L 5228 884 
Q 5228 325 4716 325 
L 4141 325 
L 3975 819 
L 4544 794 
Q 4744 784 4744 953 
L 4744 2688 
L 3438 2688 
L 3438 -434 
L 2950 -434 
L 2950 2688 
L 1697 2688 
L 1697 225 
L 1203 225 
L 1203 3156 
L 2950 3156 
L 2950 4013 
L 459 4013 
L 459 4481 
L 2944 4481 
L 2944 5288 
L 3431 5288 
L 3431 4481 
L 5941 4481 
L 5941 4013 
z
" transform="scale(0.015625)"/>
      <path id="ArialUnicodeMS-573a" d="M 2413 1441 
L 469 738 
L 184 1172 
Q 506 1247 1147 1453 
L 1147 3138 
L 359 3138 
L 359 3603 
L 1147 3603 
L 1147 5172 
L 1600 5172 
L 1600 3603 
L 2413 3603 
L 2413 3138 
L 1600 3138 
L 1600 1619 
L 2413 1900 
L 2413 1441 
z
M 5741 3091 
Q 5709 2600 5642 2001 
Q 5575 1403 5489 862 
Q 5403 322 5350 100 
Q 5297 -122 5175 -215 
Q 5053 -309 4901 -350 
Q 4750 -391 4659 -366 
L 4084 -206 
L 4000 313 
Q 4700 103 4775 103 
Q 4872 103 4939 398 
Q 5006 694 5104 1339 
Q 5203 1984 5253 2650 
L 4844 2650 
Q 4428 791 2797 -403 
L 2456 -44 
Q 4069 1181 4378 2650 
L 3859 2650 
Q 3697 1994 3198 1378 
Q 2700 763 2094 428 
L 1772 788 
Q 3078 1553 3378 2650 
L 2675 2650 
L 2675 3091 
Q 3497 3641 4469 4469 
L 2363 4469 
L 2363 4934 
L 5241 4934 
L 5241 4531 
Q 4103 3544 3450 3097 
L 3450 3091 
L 5741 3091 
z
" transform="scale(0.015625)"/>
      <path id="ArialUnicodeMS-7684" d="M 5644 4281 
Q 5619 1694 5395 673 
Q 5172 -347 4606 -347 
Q 4350 -347 3609 -134 
L 3525 403 
Q 4247 134 4531 134 
Q 4806 134 4976 1142 
Q 5147 2150 5159 3841 
L 3794 3841 
Q 3550 3166 3053 2497 
L 2719 2713 
L 2719 -147 
L 2216 -147 
L 2216 269 
L 1153 269 
L 1153 -250 
L 647 -250 
L 647 4184 
L 1234 4184 
Q 1494 4644 1625 5313 
L 2088 5125 
Q 1903 4444 1741 4184 
L 2719 4184 
L 2719 2881 
Q 3431 3888 3681 5363 
L 4191 5247 
Q 4106 4869 3916 4281 
L 5644 4281 
z
M 2216 2484 
L 2216 3719 
L 1153 3719 
L 1153 2484 
L 2216 2484 
z
M 2216 738 
L 2216 2016 
L 1153 2016 
L 1153 738 
L 2216 738 
z
M 4775 1369 
L 4313 1166 
Q 4034 1925 3444 2669 
L 3841 2931 
Q 4484 2191 4775 1369 
z
" transform="scale(0.015625)"/>
      <path id="ArialUnicodeMS-5b8c" d="M 5722 3469 
L 5247 3469 
L 5247 4166 
L 1159 4166 
L 1159 3469 
L 678 3469 
L 678 4634 
L 2956 4634 
L 2956 5369 
L 3444 5369 
L 3444 4634 
L 5722 4634 
L 5722 3469 
z
M 4831 3053 
L 1550 3053 
L 1550 3519 
L 4831 3519 
L 4831 3053 
z
M 6053 878 
Q 5925 116 5762 -76 
Q 5600 -269 5363 -269 
L 4031 -269 
Q 3566 -269 3566 256 
L 3566 1931 
L 2797 1931 
Q 2659 -34 678 -397 
L 384 72 
Q 2272 297 2284 1931 
L 831 1931 
L 831 2400 
L 5619 2400 
L 5619 1931 
L 4050 1931 
L 4050 422 
Q 4050 197 4244 197 
L 5141 197 
Q 5378 197 5451 369 
Q 5525 541 5575 1131 
L 6053 878 
z
" transform="scale(0.015625)"/>
      <path id="ArialUnicodeMS-5168" d="M 5984 2963 
L 5703 2522 
Q 5419 2628 4872 2869 
L 4872 2613 
L 3366 2613 
L 3366 1728 
L 4691 1728 
L 4691 1259 
L 3366 1259 
L 3366 319 
L 5678 319 
L 5678 -147 
L 603 -147 
L 603 319 
L 2881 319 
L 2881 1259 
L 1556 1259 
L 1556 1728 
L 2881 1728 
L 2881 2613 
L 1344 2613 
L 1344 2841 
Q 1250 2766 544 2491 
L 256 2925 
Q 2109 3556 3066 5141 
L 3531 4928 
L 3419 4738 
Q 4144 3581 5984 2963 
z
M 4603 3072 
Q 3694 3488 3097 4313 
Q 2572 3578 1703 3072 
L 4603 3072 
z
" transform="scale(0.015625)"/>
      <path id="ArialUnicodeMS-521a" d="M 5588 97 
Q 5588 -22 5456 -194 
Q 5325 -366 5131 -366 
L 4481 -366 
Q 4438 -206 4319 122 
Q 4913 81 5013 81 
Q 5100 81 5100 391 
L 5100 5313 
L 5588 5313 
L 5588 97 
z
M 3775 422 
Q 3775 88 3711 -45 
Q 3647 -178 3528 -239 
Q 3409 -300 2791 -300 
L 2619 172 
Q 3141 134 3213 134 
Q 3247 134 3269 173 
Q 3291 213 3291 219 
L 3291 4603 
L 1063 4603 
L 1063 1269 
Q 1553 1747 2009 2463 
Q 1775 2972 1119 3866 
L 1516 4134 
Q 1913 3644 2272 2994 
Q 2566 3466 2847 4263 
L 3231 4019 
Q 3119 3781 2912 3264 
Q 2706 2747 2553 2503 
Q 3013 1769 3244 1119 
L 2809 838 
Q 2722 1156 2272 2034 
Q 1775 1263 1253 738 
L 1063 934 
L 1063 -384 
L 575 -384 
L 575 5044 
L 3775 5044 
L 3775 422 
z
M 4709 1094 
L 4225 1094 
L 4225 4206 
L 4709 4206 
L 4709 1094 
z
" transform="scale(0.015625)"/>
      <path id="ArialUnicodeMS-6027" d="M 6088 6 
L 2322 6 
L 2322 475 
L 3928 475 
L 3928 1778 
L 2669 1778 
L 2669 2247 
L 3928 2247 
L 3928 3463 
L 3169 3463 
Q 2978 2881 2606 2375 
L 2113 2597 
Q 2363 2838 2438 3003 
L 2203 2900 
Q 2078 3494 1766 3866 
L 1766 -434 
L 1281 -434 
L 1281 5281 
L 1766 5281 
L 1766 3928 
L 2138 4128 
Q 2413 3813 2597 3347 
Q 2844 3763 2894 4775 
L 3378 4647 
Q 3363 4338 3291 3928 
L 3928 3928 
L 3928 5294 
L 4416 5294 
L 4416 3928 
L 5759 3928 
L 5759 3463 
L 4416 3463 
L 4416 2247 
L 5569 2247 
L 5569 1778 
L 4416 1778 
L 4416 475 
L 6088 475 
L 6088 6 
z
M 1241 3897 
Q 1175 2956 763 2344 
L 347 2528 
Q 819 3406 819 4025 
L 1241 3897 
z
" transform="scale(0.015625)"/>
      <path id="ArialUnicodeMS-4f9b" d="M 2303 5191 
Q 2191 4828 1931 4253 
L 1672 3688 
L 1672 -441 
L 1178 -441 
L 1178 2894 
Q 1028 2644 659 2247 
L 244 2541 
Q 1284 3622 1850 5403 
L 2303 5191 
z
M 5984 1722 
L 1991 1722 
L 1991 2188 
L 2894 2188 
L 2894 3591 
L 2175 3591 
L 2175 4078 
L 2894 4078 
L 2894 5325 
L 3378 5325 
L 3378 4078 
L 4563 4078 
L 4563 5325 
L 5069 5325 
L 5069 4078 
L 5806 4078 
L 5806 3591 
L 5069 3591 
L 5069 2188 
L 5984 2188 
L 5984 1722 
z
M 4563 2188 
L 4563 3591 
L 3378 3591 
L 3378 2188 
L 4563 2188 
z
M 3700 1216 
Q 3172 241 2272 -447 
L 1900 -91 
Q 2688 497 3284 1484 
L 3700 1216 
z
M 6075 -141 
L 5672 -428 
Q 5175 459 4191 1153 
L 4603 1441 
Q 5581 722 6075 -141 
z
" transform="scale(0.015625)"/>
      <path id="ArialUnicodeMS-7ed9" d="M 6075 3144 
L 5759 2731 
Q 4681 3272 4013 4550 
Q 3372 3294 2472 2713 
L 2119 3072 
Q 3375 3884 3872 5453 
L 4306 5222 
L 4238 5063 
Q 4919 3691 6075 3144 
z
M 2516 1791 
Q 1472 1538 622 1275 
L 391 1703 
Q 1038 2350 1306 2766 
Q 934 2675 609 2572 
L 366 3009 
Q 847 3788 1441 5300 
L 1875 5094 
Q 1316 3816 947 3150 
L 1619 3291 
Q 1819 3588 2047 4056 
L 2503 3853 
Q 1716 2366 1153 1900 
L 1166 1888 
L 2516 2228 
L 2516 1791 
z
M 5100 2584 
L 3003 2584 
L 3003 3053 
L 5100 3053 
L 5100 2584 
z
M 5356 -428 
L 4872 -428 
L 4872 72 
L 3278 72 
L 3278 -428 
L 2791 -428 
L 2791 2106 
L 5356 2106 
L 5356 -428 
z
M 4872 538 
L 4872 1638 
L 3278 1638 
L 3278 538 
L 4872 538 
z
M 2584 763 
L 647 72 
L 409 513 
L 2584 1234 
L 2584 763 
z
" transform="scale(0.015625)"/>
      <path id="ArialUnicodeMS-4e0e" d="M 5953 3916 
L 1881 3916 
L 1784 3028 
L 5153 3028 
L 5081 1734 
L 5919 1734 
L 5919 1234 
L 5050 1234 
Q 4984 100 4750 -154 
Q 4516 -409 4159 -409 
Q 3856 -409 3225 -269 
L 3144 300 
Q 3863 103 4091 103 
Q 4253 103 4348 201 
Q 4444 300 4487 711 
Q 4531 1122 4531 1234 
L 434 1234 
L 434 1734 
L 4569 1734 
Q 4597 2088 4609 2509 
L 1728 2509 
L 1672 2069 
L 1172 2113 
L 1528 5281 
L 2041 5228 
L 1947 4428 
L 5953 4428 
L 5953 3916 
z
" transform="scale(0.015625)"/>
     </defs>
     <use xlink:href="#ArialUnicodeMS-827a"/>
     <use xlink:href="#ArialUnicodeMS-672f" x="100"/>
     <use xlink:href="#ArialUnicodeMS-54c1" x="200"/>
     <use xlink:href="#ArialUnicodeMS-5e02" x="300"/>
     <use xlink:href="#ArialUnicodeMS-573a" x="400"/>
     <use xlink:href="#ArialUnicodeMS-7684" x="500"/>
     <use xlink:href="#ArialUnicodeMS-5b8c" x="600"/>
     <use xlink:href="#ArialUnicodeMS-5168" x="700"/>
     <use xlink:href="#ArialUnicodeMS-521a" x="800"/>
     <use xlink:href="#ArialUnicodeMS-6027" x="900"/>
     <use xlink:href="#ArialUnicodeMS-4f9b" x="1000"/>
     <use xlink:href="#ArialUnicodeMS-7ed9" x="1100"/>
     <use xlink:href="#ArialUnicodeMS-4e0e" x="1200"/>
     <use xlink:href="#ArialUnicodeMS-4ef7" x="1300"/>
     <use xlink:href="#ArialUnicodeMS-683c" x="1400"/>
     <use xlink:href="#ArialUnicodeMS-8dc3" x="1500"/>
     <use xlink:href="#ArialUnicodeMS-5347" x="1600"/>
    </g>
   </g>
   <g id="legend_1">
    <g id="line2d_8">
     <path d="M 43.35625 262.245625 
L 54.35625 262.245625 
L 65.35625 262.245625 
" style="fill: none; stroke: #f59e0b; stroke-width: 3; stroke-linecap: square"/>
    </g>
    <g id="text_6">
     <!-- 供给曲线 S (完全刚性) -->
     <g transform="translate(74.15625 266.095625) scale(0.11 -0.11)">
      <defs>
       <path id="ArialUnicodeMS-66f2" d="M 5503 -409 
L 4997 -409 
L 4997 141 
L 1528 141 
L 1528 -434 
L 1044 -434 
L 1044 4044 
L 2344 4044 
L 2344 5319 
L 2828 5319 
L 2828 4044 
L 3675 4044 
L 3675 5319 
L 4159 5319 
L 4159 4044 
L 5503 4044 
L 5503 -409 
z
M 4997 2344 
L 4997 3566 
L 4159 3566 
L 4159 2344 
L 4997 2344 
z
M 3675 2344 
L 3675 3566 
L 2828 3566 
L 2828 2344 
L 3675 2344 
z
M 2344 2344 
L 2344 3566 
L 1528 3566 
L 1528 2344 
L 2344 2344 
z
M 4997 622 
L 4997 1863 
L 4159 1863 
L 4159 622 
L 4997 622 
z
M 3675 622 
L 3675 1863 
L 2828 1863 
L 2828 622 
L 3675 622 
z
M 2344 622 
L 2344 1863 
L 1528 1863 
L 1528 622 
L 2344 622 
z
" transform="scale(0.015625)"/>
       <path id="ArialUnicodeMS-7ebf" d="M 2503 3981 
Q 1903 2625 1141 1947 
L 1153 1931 
L 2444 2144 
L 2456 1709 
Q 1428 1534 575 1313 
L 341 1772 
Q 934 2234 1344 2919 
L 563 2725 
L 347 3206 
Q 1059 4156 1325 5319 
Q 1403 5288 1551 5209 
Q 1700 5131 1791 5100 
Q 1441 3947 959 3316 
Q 1597 3375 1650 3397 
Q 1944 3938 2059 4225 
L 2503 3981 
z
M 5997 481 
Q 5925 44 5808 -170 
Q 5691 -384 5497 -384 
Q 5319 -384 4869 -115 
Q 4419 153 4031 666 
Q 3594 188 2388 -341 
L 2088 72 
Q 3097 466 3763 1088 
Q 3503 1550 3406 2419 
L 2484 2272 
L 2406 2725 
L 3378 2900 
L 3378 3397 
L 2606 3278 
L 2522 3731 
L 3378 3891 
L 3378 5209 
Q 3763 5288 3866 5294 
L 3866 3975 
L 5409 4231 
L 5497 3781 
Q 4550 3622 3866 3481 
L 3866 2994 
L 5772 3341 
Q 5825 3150 5856 2875 
L 3884 2516 
Q 3988 1794 4147 1466 
Q 4731 1991 5075 2484 
L 5453 2222 
Q 4731 1353 4372 1025 
Q 4753 456 5403 153 
Q 5494 378 5509 750 
L 5997 481 
z
M 5166 4544 
L 4831 4225 
Q 4478 4656 4019 4856 
L 4306 5178 
Q 4784 4956 5166 4544 
z
M 2578 872 
L 531 134 
Q 500 197 412 347 
Q 325 497 281 603 
L 2578 1369 
L 2578 872 
z
" transform="scale(0.015625)"/>
       <path id="ArialUnicodeMS-53" d="M 3213 3238 
Q 3175 3675 2897 3895 
Q 2619 4116 2100 4116 
Q 1631 4116 1337 3941 
Q 1044 3766 1044 3431 
Q 1044 3134 1270 2989 
Q 1497 2844 2138 2700 
Q 2706 2575 3065 2444 
Q 3425 2313 3681 2036 
Q 3938 1759 3938 1294 
Q 3938 703 3467 312 
Q 2997 -78 2241 -78 
Q 1275 -78 795 353 
Q 316 784 288 1472 
L 863 1522 
Q 903 972 1287 720 
Q 1672 469 2216 469 
Q 2725 469 3039 678 
Q 3353 888 3353 1247 
Q 3353 1622 3025 1794 
Q 2697 1966 1923 2133 
Q 1150 2300 809 2603 
Q 469 2906 469 3391 
Q 469 3941 900 4300 
Q 1331 4659 2075 4659 
Q 2838 4659 3302 4301 
Q 3766 3944 3794 3284 
L 3213 3238 
z
" transform="scale(0.015625)"/>
      </defs>
      <use xlink:href="#ArialUnicodeMS-4f9b"/>
      <use xlink:href="#ArialUnicodeMS-7ed9" x="100"/>
      <use xlink:href="#ArialUnicodeMS-66f2" x="200"/>
      <use xlink:href="#ArialUnicodeMS-7ebf" x="300"/>
      <use xlink:href="#ArialUnicodeMS-20" x="400"/>
      <use xlink:href="#ArialUnicodeMS-53" x="427.783203"/>
      <use xlink:href="#ArialUnicodeMS-20" x="494.482422"/>
      <use xlink:href="#ArialUnicodeMS-28" x="522.265625"/>
      <use xlink:href="#ArialUnicodeMS-5b8c" x="555.566406"/>
      <use xlink:href="#ArialUnicodeMS-5168" x="655.566406"/>
      <use xlink:href="#ArialUnicodeMS-521a" x="755.566406"/>
      <use xlink:href="#ArialUnicodeMS-6027" x="855.566406"/>
      <use xlink:href="#ArialUnicodeMS-29" x="955.566406"/>
     </g>
    </g>
    <g id="line2d_9">
     <path d="M 43.35625 277.929219 
L 54.35625 277.929219 
L 65.35625 277.929219 
" style="fill: none; stroke: #94a3b8; stroke-width: 2.5; stroke-linecap: square"/>
    </g>
    <g id="text_7">
     <!-- 初始需求 D1 -->
     <g transform="translate(74.15625 281.779219) scale(0.11 -0.11)">
      <defs>
       <path id="ArialUnicodeMS-521d" d="M 3084 2803 
Q 2794 2372 2497 2125 
Q 2678 2009 2994 1672 
L 2688 1275 
Q 2309 1703 1813 1966 
L 1813 -469 
L 1325 -469 
L 1325 2009 
Q 1272 1969 1011 1748 
Q 750 1528 531 1394 
L 206 1838 
Q 797 2153 1342 2670 
Q 1888 3188 2075 3647 
L 422 3647 
L 422 4116 
L 1344 4116 
L 1344 5259 
L 1831 5259 
L 1831 4116 
L 2619 4116 
L 2619 3700 
Q 2422 3122 1850 2484 
L 2113 2356 
Q 2388 2591 2663 3091 
L 3084 2803 
z
M 5753 4844 
L 5759 2381 
Q 5759 1803 5667 923 
Q 5575 44 5400 -122 
Q 5225 -288 4863 -288 
Q 4578 -288 4050 -172 
L 3928 378 
Q 4728 197 4825 197 
Q 4975 197 5048 305 
Q 5122 413 5190 1295 
Q 5259 2178 5259 2619 
L 5259 4353 
L 4206 4353 
Q 4206 2600 4090 1853 
Q 3975 1106 3633 612 
Q 3291 119 2572 -306 
L 2203 91 
Q 2825 431 3137 842 
Q 3450 1253 3551 1717 
Q 3653 2181 3669 2881 
L 3700 4353 
L 2847 4353 
L 2847 4844 
L 5753 4844 
z
" transform="scale(0.015625)"/>
       <path id="ArialUnicodeMS-59cb" d="M 6047 2656 
L 5575 2456 
Q 5481 2788 5388 2975 
L 2719 2713 
L 2619 2981 
Q 2503 2059 2216 1331 
Q 2497 1147 2963 709 
L 2650 288 
Q 2131 825 1984 872 
Q 1525 13 709 -475 
L 347 -134 
Q 1250 472 1581 1106 
Q 1181 1356 588 1528 
Q 891 2266 1172 3591 
L 469 3591 
L 469 4056 
L 1253 4056 
Q 1381 4750 1409 5306 
L 1894 5147 
Q 1825 4497 1741 4056 
L 2731 4056 
L 2663 3244 
Q 2938 3244 3041 3272 
Q 3609 4163 4025 5344 
L 4525 5125 
Q 3866 3672 3566 3272 
L 5191 3391 
Q 4928 3825 4603 4116 
L 4997 4353 
Q 5722 3688 6047 2656 
z
M 2234 3591 
L 1656 3591 
Q 1444 2541 1172 1819 
Q 1459 1719 1784 1556 
Q 2078 2272 2234 3591 
z
M 5563 -416 
L 5075 -416 
L 5075 109 
L 3500 109 
L 3500 -416 
L 3016 -416 
L 3016 2328 
L 5563 2328 
L 5563 -416 
z
M 5075 575 
L 5075 1863 
L 3500 1863 
L 3500 575 
L 5075 575 
z
" transform="scale(0.015625)"/>
       <path id="ArialUnicodeMS-9700" d="M 5819 3347 
L 5350 3347 
L 5350 3853 
L 3469 3853 
L 3469 2400 
L 2981 2400 
L 2981 3853 
L 1106 3853 
L 1106 3309 
L 653 3309 
L 653 4288 
L 2981 4288 
L 2981 4569 
L 966 4569 
L 966 5038 
L 5459 5038 
L 5459 4569 
L 3469 4569 
L 3469 4288 
L 5819 4288 
L 5819 3347 
z
M 5159 3256 
L 3738 3256 
L 3738 3653 
L 5159 3653 
L 5159 3256 
z
M 2694 3231 
L 1269 3231 
L 1269 3622 
L 2694 3622 
L 2694 3231 
z
M 5159 2572 
L 3738 2572 
L 3738 2963 
L 5159 2963 
L 5159 2572 
z
M 2694 2572 
L 1269 2572 
L 1269 2963 
L 2694 2963 
L 2694 2572 
z
M 5953 1888 
L 3438 1888 
Q 3353 1609 3284 1459 
L 5478 1459 
L 5478 109 
Q 5478 -316 4903 -325 
L 4513 -331 
L 4353 134 
L 4763 116 
Q 4991 106 4991 269 
L 4991 1006 
L 4122 1006 
L 4122 -103 
L 3634 -103 
L 3634 1006 
L 2803 1006 
L 2803 -103 
L 2350 -103 
L 2350 1006 
L 1422 1006 
L 1422 -447 
L 966 -447 
L 966 1459 
L 2766 1459 
Q 2847 1575 2963 1888 
L 506 1888 
L 506 2322 
L 5953 2322 
L 5953 1888 
z
" transform="scale(0.015625)"/>
       <path id="ArialUnicodeMS-6c42" d="M 6003 684 
L 5678 319 
Q 4184 966 3463 2100 
L 3463 122 
Q 3431 -88 3350 -213 
Q 3269 -338 3133 -377 
Q 2997 -416 2150 -416 
L 1978 103 
Q 2500 84 2731 126 
Q 2963 169 2963 409 
L 2963 3725 
L 634 3725 
L 634 4206 
L 2963 4206 
L 2963 5344 
L 3469 5344 
L 3469 4206 
L 5722 4206 
L 5722 3725 
L 3469 3725 
L 3469 2925 
Q 4247 1403 6003 684 
z
M 5375 4575 
L 5056 4231 
Q 4481 4719 3756 4884 
L 4103 5241 
Q 4678 5138 5375 4575 
z
M 5606 3244 
Q 5147 2625 4191 2131 
L 3884 2528 
Q 4822 2969 5269 3559 
L 5606 3244 
z
M 2613 2547 
L 2303 2209 
Q 1516 2941 800 3138 
L 1153 3500 
Q 1997 3203 2613 2547 
z
M 2625 1556 
L 806 525 
L 391 872 
Q 1409 1403 2625 2088 
L 2625 1556 
z
" transform="scale(0.015625)"/>
       <path id="ArialUnicodeMS-31" d="M 2400 0 
L 1838 0 
L 1838 3584 
Q 1416 3184 709 2906 
L 709 3450 
Q 1681 3916 2034 4603 
L 2400 4603 
L 2400 0 
z
" transform="scale(0.015625)"/>
      </defs>
      <use xlink:href="#ArialUnicodeMS-521d"/>
      <use xlink:href="#ArialUnicodeMS-59cb" x="100"/>
      <use xlink:href="#ArialUnicodeMS-9700" x="200"/>
      <use xlink:href="#ArialUnicodeMS-6c42" x="300"/>
      <use xlink:href="#ArialUnicodeMS-20" x="400"/>
      <use xlink:href="#ArialUnicodeMS-44" x="427.783203"/>
      <use xlink:href="#ArialUnicodeMS-31" x="500"/>
     </g>
    </g>
    <g id="line2d_10">
     <path d="M 43.35625 293.494219 
L 54.35625 293.494219 
L 65.35625 293.494219 
" style="fill: none; stroke: #3b82f6; stroke-width: 2.5; stroke-linecap: square"/>
    </g>
    <g id="text_8">
     <!-- 需求增长 D2 -->
     <g transform="translate(74.15625 297.344219) scale(0.11 -0.11)">
      <defs>
       <path id="ArialUnicodeMS-589e" d="M 6150 4122 
L 5806 3738 
L 5538 3916 
L 5538 2328 
L 2613 2328 
L 2613 4006 
Q 2384 3853 2234 3763 
L 1875 4141 
Q 2216 4300 2650 4664 
Q 3084 5028 3250 5313 
L 3653 5019 
Q 3500 4719 2994 4294 
L 5063 4294 
Q 4538 4741 4347 5013 
L 4756 5313 
Q 5306 4622 6150 4122 
z
M 5050 2797 
L 5050 3828 
L 4294 3828 
L 4294 2797 
L 5050 2797 
z
M 5044 3494 
Q 4969 3178 4684 2828 
L 4325 3091 
Q 4597 3397 4653 3675 
L 5044 3494 
z
M 3841 2797 
L 3841 3828 
L 3097 3828 
L 3097 2797 
L 3841 2797 
z
M 3816 3053 
L 3431 2869 
Q 3338 3281 3122 3541 
L 3519 3731 
Q 3731 3534 3816 3053 
z
M 2503 1319 
L 672 647 
L 331 1081 
Q 822 1194 1259 1350 
L 1259 3103 
L 544 3103 
L 544 3572 
L 1259 3572 
L 1259 5141 
L 1747 5141 
L 1747 3572 
L 2456 3572 
L 2456 3103 
L 1747 3103 
L 1747 1538 
L 2503 1806 
L 2503 1319 
z
M 5344 -397 
L 4856 -397 
L 4856 -31 
L 3334 -31 
L 3334 -397 
L 2847 -397 
L 2847 2169 
L 5344 2169 
L 5344 -397 
z
M 4856 1325 
L 4856 1703 
L 3334 1703 
L 3334 1325 
L 4856 1325 
z
M 4856 434 
L 4856 856 
L 3334 856 
L 3334 434 
L 4856 434 
z
" transform="scale(0.015625)"/>
       <path id="ArialUnicodeMS-957f" d="M 6125 306 
L 5797 -122 
Q 3488 722 2981 2413 
L 2259 2413 
L 2259 319 
L 3597 844 
L 3597 366 
L 1984 -347 
L 1697 84 
Q 1772 172 1772 331 
L 1772 2413 
L 384 2413 
L 384 2881 
L 1772 2881 
L 1772 5269 
L 2259 5269 
L 2259 3553 
Q 3700 4050 4738 4916 
L 5069 4550 
Q 3859 3588 2259 3084 
L 2259 2881 
L 5978 2881 
L 5978 2413 
L 3469 2413 
Q 3947 959 6125 306 
z
" transform="scale(0.015625)"/>
       <path id="ArialUnicodeMS-32" d="M 3231 0 
L 197 0 
Q 197 388 467 784 
Q 738 1181 1478 1778 
Q 1931 2141 2287 2539 
Q 2644 2938 2644 3341 
Q 2644 3688 2398 3914 
Q 2153 4141 1778 4141 
Q 1400 4141 1144 3908 
Q 888 3675 884 3213 
L 306 3278 
Q 359 3922 764 4262 
Q 1169 4603 1791 4603 
Q 2466 4603 2842 4229 
Q 3219 3856 3219 3328 
Q 3219 2888 2901 2436 
Q 2584 1984 1638 1228 
Q 1141 831 978 544 
L 3231 544 
L 3231 0 
z
" transform="scale(0.015625)"/>
      </defs>
      <use xlink:href="#ArialUnicodeMS-9700"/>
      <use xlink:href="#ArialUnicodeMS-6c42" x="100"/>
      <use xlink:href="#ArialUnicodeMS-589e" x="200"/>
      <use xlink:href="#ArialUnicodeMS-957f" x="300"/>
      <use xlink:href="#ArialUnicodeMS-20" x="400"/>
      <use xlink:href="#ArialUnicodeMS-44" x="427.783203"/>
      <use xlink:href="#ArialUnicodeMS-32" x="500"/>
     </g>
    </g>
   </g>
  </g>
 </g>
 <defs>
  <clipPath id="p9a8ab96bff">
   <rect x="33.45625" y="36.99375" width="531.74375" height="272.441875"/>
  </clipPath>
 </defs>
</svg>
