<?xml version="1.0" encoding="utf-8" standalone="no"?>
<!DOCTYPE svg PUBLIC "-//W3C//DTD SVG 1.1//EN"
  "http://www.w3.org/Graphics/SVG/1.1/DTD/svg11.dtd">
<svg xmlns:xlink="http://www.w3.org/1999/xlink" width="432pt" height="288pt" viewBox="0 0 432 288" xmlns="http://www.w3.org/2000/svg" version="1.1">
 <metadata>
  <rdf:RDF xmlns:dc="http://purl.org/dc/elements/1.1/" xmlns:cc="http://creativecommons.org/ns#" xmlns:rdf="http://www.w3.org/1999/02/22-rdf-syntax-ns#">
   <cc:Work>
    <dc:type rdf:resource="http://purl.org/dc/dcmitype/StillImage"/>
    <dc:date>2026-05-11T09:52:22.403756</dc:date>
    <dc:format>image/svg+xml</dc:format>
    <dc:creator>
     <cc:Agent>
      <dc:title>Matplotlib v3.9.4, https://matplotlib.org/</dc:title>
     </cc:Agent>
    </dc:creator>
   </cc:Work>
  </rdf:RDF>
 </metadata>
 <defs>
  <style type="text/css">*{stroke-linejoin: round; stroke-linecap: butt}</style>
 </defs>
 <g id="figure_1">
  <g id="patch_1">
   <path d="M 0 288 
L 432 288 
L 432 0 
L 0 0 
z
" style="fill: #ffffff"/>
  </g>
  <g id="axes_1">
   <g id="patch_2">
    <path d="M 25.96 261.9725 
L 421.2 261.9725 
L 421.2 10.8 
L 25.96 10.8 
z
" style="fill: #ffffff"/>
   </g>
   <g id="matplotlib.axis_1">
    <g id="text_1">
     <!-- Quantity (Q) -->
     <g transform="translate(190.907188 274.708125) scale(0.12 -0.12)">
      <defs>
       <path id="ArialUnicodeMS-51" d="M 4769 63 
L 4588 -359 
Q 4056 -156 3609 206 
Q 3091 -78 2484 -78 
Q 1525 -78 912 586 
Q 300 1250 300 2291 
Q 300 3322 894 3990 
Q 1488 4659 2497 4659 
Q 3456 4659 4070 4006 
Q 4684 3353 4684 2297 
Q 4684 1166 3994 494 
Q 4381 216 4769 63 
z
M 3519 825 
Q 4056 1322 4056 2291 
Q 4056 3156 3623 3648 
Q 3191 4141 2497 4141 
Q 1803 4141 1365 3669 
Q 928 3197 928 2291 
Q 928 1403 1365 922 
Q 1803 441 2497 441 
Q 2838 441 3109 563 
Q 2806 756 2509 825 
L 2656 1269 
Q 3216 1109 3519 825 
z
" transform="scale(0.015625)"/>
       <path id="ArialUnicodeMS-75" d="M 3116 0 
L 2613 0 
L 2613 488 
L 2597 488 
Q 2216 -78 1556 -78 
Q 1209 -78 914 83 
Q 619 244 520 526 
Q 422 809 422 1259 
L 422 3316 
L 984 3316 
L 984 1478 
Q 984 1038 1026 847 
Q 1069 656 1247 532 
Q 1425 409 1672 409 
Q 1991 409 2272 629 
Q 2553 850 2553 1544 
L 2553 3316 
L 3116 3316 
L 3116 0 
z
" transform="scale(0.015625)"/>
       <path id="ArialUnicodeMS-61" d="M 3303 0 
L 2713 0 
Q 2631 156 2597 409 
Q 2031 -78 1375 -78 
Q 850 -78 547 184 
Q 244 447 244 878 
Q 244 1291 536 1558 
Q 828 1825 1550 1913 
L 2075 1991 
Q 2369 2038 2559 2106 
Q 2559 2359 2543 2464 
Q 2528 2569 2451 2681 
Q 2375 2794 2206 2862 
Q 2038 2931 1753 2931 
Q 1391 2931 1180 2797 
Q 969 2663 891 2297 
L 341 2369 
Q 431 2878 806 3134 
Q 1181 3391 1838 3391 
Q 2434 3391 2714 3214 
Q 2994 3038 3058 2788 
Q 3122 2538 3122 2144 
L 3122 1388 
Q 3122 697 3148 461 
Q 3175 225 3303 0 
z
M 2559 1459 
L 2559 1663 
Q 2119 1516 1481 1430 
Q 844 1344 844 891 
Q 844 663 1016 514 
Q 1188 366 1509 366 
Q 1925 366 2242 614 
Q 2559 863 2559 1459 
z
" transform="scale(0.015625)"/>
       <path id="ArialUnicodeMS-6e" d="M 3138 0 
L 2572 0 
L 2572 2016 
Q 2572 2525 2389 2715 
Q 2206 2906 1881 2906 
Q 1631 2906 1407 2784 
Q 1184 2663 1090 2441 
Q 997 2219 997 1813 
L 997 0 
L 434 0 
L 434 3316 
L 941 3316 
L 941 2847 
L 953 2847 
Q 1131 3119 1392 3255 
Q 1653 3391 1997 3391 
Q 2259 3391 2515 3297 
Q 2772 3203 2917 3015 
Q 3063 2828 3100 2615 
Q 3138 2403 3138 2041 
L 3138 0 
z
" transform="scale(0.015625)"/>
       <path id="ArialUnicodeMS-74" d="M 1722 6 
Q 1472 -44 1300 -44 
Q 931 -44 762 86 
Q 594 216 556 416 
Q 519 616 519 972 
L 519 2881 
L 109 2881 
L 109 3316 
L 519 3316 
L 519 4141 
L 1081 4481 
L 1081 3316 
L 1644 3316 
L 1644 2881 
L 1081 2881 
L 1081 941 
Q 1081 691 1132 586 
Q 1184 481 1394 481 
Q 1516 481 1644 506 
L 1722 6 
z
" transform="scale(0.015625)"/>
       <path id="ArialUnicodeMS-69" d="M 991 0 
L 428 0 
L 428 3316 
L 991 3316 
L 991 0 
z
M 991 3944 
L 428 3944 
L 428 4581 
L 991 4581 
L 991 3944 
z
" transform="scale(0.015625)"/>
       <path id="ArialUnicodeMS-79" d="M 3150 3316 
L 1881 -56 
Q 1878 -63 1875 -78 
Q 1694 -641 1451 -992 
Q 1209 -1344 763 -1344 
Q 613 -1344 397 -1281 
L 341 -750 
Q 503 -800 659 -800 
Q 972 -800 1092 -628 
Q 1213 -456 1363 -6 
L 103 3316 
L 709 3316 
L 1491 1144 
Q 1559 944 1638 628 
L 1650 628 
Q 1728 991 1850 1319 
L 2578 3316 
L 3150 3316 
z
" transform="scale(0.015625)"/>
       <path id="ArialUnicodeMS-20" transform="scale(0.015625)"/>
       <path id="ArialUnicodeMS-28" d="M 1900 -1344 
L 1497 -1344 
Q 978 -681 681 103 
Q 384 888 384 1656 
Q 384 2528 700 3275 
Q 1016 4022 1497 4659 
L 1900 4659 
Q 1344 3747 1155 3059 
Q 966 2372 966 1663 
Q 966 153 1900 -1344 
z
" transform="scale(0.015625)"/>
       <path id="ArialUnicodeMS-29" d="M 634 4659 
Q 1153 3997 1450 3212 
Q 1747 2428 1747 1656 
Q 1747 788 1431 41 
Q 1116 -706 634 -1344 
L 231 -1344 
Q 788 -431 977 255 
Q 1166 941 1166 1650 
Q 1166 3163 231 4659 
L 634 4659 
z
" transform="scale(0.015625)"/>
      </defs>
      <use xlink:href="#ArialUnicodeMS-51"/>
      <use xlink:href="#ArialUnicodeMS-75" x="77.783203"/>
      <use xlink:href="#ArialUnicodeMS-61" x="133.398438"/>
      <use xlink:href="#ArialUnicodeMS-6e" x="189.013672"/>
      <use xlink:href="#ArialUnicodeMS-74" x="244.628906"/>
      <use xlink:href="#ArialUnicodeMS-69" x="272.412109"/>
      <use xlink:href="#ArialUnicodeMS-74" x="294.628906"/>
      <use xlink:href="#ArialUnicodeMS-79" x="322.412109"/>
      <use xlink:href="#ArialUnicodeMS-20" x="372.412109"/>
      <use xlink:href="#ArialUnicodeMS-28" x="400.195312"/>
      <use xlink:href="#ArialUnicodeMS-51" x="433.496094"/>
      <use xlink:href="#ArialUnicodeMS-29" x="511.279297"/>
     </g>
    </g>
   </g>
   <g id="matplotlib.axis_2">
    <g id="text_2">
     <!-- Price (P) -->
     <g transform="translate(19.44 159.720625) rotate(-90) scale(0.12 -0.12)">
      <defs>
       <path id="ArialUnicodeMS-50" d="M 494 4581 
L 2222 4581 
Q 2631 4581 2926 4540 
Q 3222 4500 3475 4329 
Q 3728 4159 3858 3867 
Q 3988 3575 3988 3256 
Q 3988 2622 3580 2239 
Q 3172 1856 2272 1856 
L 1100 1856 
L 1100 0 
L 494 0 
L 494 4581 
z
M 1100 2400 
L 2278 2400 
Q 3359 2400 3359 3238 
Q 3359 3513 3218 3723 
Q 3078 3934 2873 3986 
Q 2669 4038 2266 4038 
L 1100 4038 
L 1100 2400 
z
" transform="scale(0.015625)"/>
       <path id="ArialUnicodeMS-72" d="M 2216 3213 
L 2022 2694 
Q 1813 2816 1613 2816 
Q 1297 2816 1134 2533 
Q 972 2250 972 1741 
L 972 0 
L 409 0 
L 409 3316 
L 922 3316 
L 922 2816 
L 934 2816 
Q 1203 3391 1638 3391 
Q 1925 3391 2216 3213 
z
" transform="scale(0.015625)"/>
       <path id="ArialUnicodeMS-63" d="M 3144 1147 
Q 3034 513 2643 217 
Q 2253 -78 1759 -78 
Q 1038 -78 644 395 
Q 250 869 250 1650 
Q 250 2297 476 2686 
Q 703 3075 1043 3233 
Q 1384 3391 1759 3391 
Q 2272 3391 2636 3125 
Q 3000 2859 3084 2344 
L 2541 2259 
Q 2456 2594 2267 2762 
Q 2078 2931 1784 2931 
Q 1313 2931 1069 2597 
Q 825 2263 825 1663 
Q 825 1050 1064 717 
Q 1303 384 1753 384 
Q 2116 384 2323 592 
Q 2531 800 2584 1216 
L 3144 1147 
z
" transform="scale(0.015625)"/>
       <path id="ArialUnicodeMS-65" d="M 3309 1516 
L 825 1516 
Q 859 966 1139 675 
Q 1419 384 1838 384 
Q 2159 384 2378 554 
Q 2597 725 2713 1069 
L 3291 997 
Q 3150 478 2775 200 
Q 2400 -78 1838 -78 
Q 1091 -78 670 380 
Q 250 838 250 1631 
Q 250 2416 658 2903 
Q 1066 3391 1806 3391 
Q 2169 3391 2505 3231 
Q 2841 3072 3075 2689 
Q 3309 2306 3309 1516 
z
M 2731 1978 
Q 2697 2484 2417 2707 
Q 2138 2931 1806 2931 
Q 1409 2931 1153 2665 
Q 897 2400 856 1978 
L 2731 1978 
z
" transform="scale(0.015625)"/>
      </defs>
      <use xlink:href="#ArialUnicodeMS-50"/>
      <use xlink:href="#ArialUnicodeMS-72" x="66.699219"/>
      <use xlink:href="#ArialUnicodeMS-69" x="100"/>
      <use xlink:href="#ArialUnicodeMS-63" x="122.216797"/>
      <use xlink:href="#ArialUnicodeMS-65" x="172.216797"/>
      <use xlink:href="#ArialUnicodeMS-20" x="227.832031"/>
      <use xlink:href="#ArialUnicodeMS-28" x="255.615234"/>
      <use xlink:href="#ArialUnicodeMS-50" x="288.916016"/>
      <use xlink:href="#ArialUnicodeMS-29" x="355.615234"/>
     </g>
    </g>
   </g>
   <g id="line2d_1">
    <path d="M 182.121259 261.9725 
L 182.121259 10.8 
" clip-path="url(#p18ba3f2e74)" style="fill: none; stroke: #c0392b; stroke-width: 2; stroke-linecap: square"/>
   </g>
   <g id="line2d_2">
    <path d="M 292.677902 250.555568 
L 290.165251 248.249117 
L 287.6526 245.942666 
L 285.139949 243.636216 
L 282.627298 241.329765 
L 280.114647 239.023314 
L 277.601996 236.716863 
L 275.089345 234.410412 
L 272.576694 232.103961 
L 270.064043 229.79751 
L 267.551392 227.491059 
L 265.038741 225.184609 
L 262.52609 222.878158 
L 260.013439 220.571707 
L 257.500788 218.265256 
L 254.988137 215.958805 
L 252.475486 213.652354 
L 249.962835 211.345903 
L 247.450184 209.039452 
L 244.937533 206.733002 
L 242.424882 204.426551 
L 239.912231 202.1201 
L 237.39958 199.813649 
L 234.886929 197.507198 
L 232.374278 195.200747 
L 229.861627 192.894296 
L 227.348976 190.587846 
L 224.836325 188.281395 
L 222.323675 185.974944 
L 219.811024 183.668493 
L 217.298373 181.362042 
L 214.785722 179.055591 
L 212.273071 176.74914 
L 209.76042 174.442689 
L 207.247769 172.136239 
L 204.735118 169.829788 
L 202.222467 167.523337 
L 199.709816 165.216886 
L 197.197165 162.910435 
L 194.684514 160.603984 
L 192.171863 158.297533 
L 189.659212 155.991082 
L 187.146561 153.684632 
L 184.63391 151.378181 
L 182.121259 149.07173 
L 179.608608 146.765279 
L 177.095957 144.458828 
L 174.583306 142.152377 
L 172.070655 139.845926 
L 169.558004 137.539475 
L 167.045353 135.233025 
L 164.532702 132.926574 
L 162.020051 130.620123 
L 159.5074 128.313672 
L 156.994749 126.007221 
L 154.482098 123.70077 
L 151.969447 121.394319 
L 149.456796 119.087868 
L 146.944145 116.781418 
L 144.431494 114.474967 
L 141.918843 112.168516 
L 139.406192 109.862065 
L 136.893541 107.555614 
L 134.38089 105.249163 
L 131.868239 102.942712 
L 129.355588 100.636261 
L 126.842937 98.329811 
L 124.330286 96.02336 
L 121.817635 93.716909 
L 119.304984 91.410458 
L 116.792333 89.104007 
L 114.279682 86.797556 
L 111.767031 84.491105 
L 109.25438 82.184654 
L 106.741729 79.878204 
L 104.229078 77.571753 
L 101.716427 75.265302 
L 99.203776 72.958851 
L 96.691125 70.6524 
L 94.178474 68.345949 
L 91.665823 66.039498 
L 89.153172 63.733048 
L 86.640521 61.426597 
L 84.12787 59.120146 
L 81.615219 56.813695 
L 79.102568 54.507244 
L 76.589917 52.200793 
L 74.077266 49.894342 
L 71.564615 47.587891 
L 69.051964 45.281441 
L 66.539313 42.97499 
L 64.026662 40.668539 
L 61.514011 38.362088 
L 59.00136 36.055637 
L 56.488709 33.749186 
L 53.976058 31.442735 
L 51.463408 29.136284 
L 48.950757 26.829834 
L 46.438106 24.523383 
L 43.925455 22.216932 
" clip-path="url(#p18ba3f2e74)" style="fill: none; stroke-dasharray: 5.55,2.4; stroke-dashoffset: 0; stroke: #7f8c8d; stroke-width: 1.5"/>
   </g>
   <g id="line2d_3">
    <path d="M 403.234545 250.555568 
L 400.721894 248.249117 
L 398.209243 245.942666 
L 395.696592 243.636216 
L 393.183942 241.329765 
L 390.671291 239.023314 
L 388.15864 236.716863 
L 385.645989 234.410412 
L 383.133338 232.103961 
L 380.620687 229.79751 
L 378.108036 227.491059 
L 375.595385 225.184609 
L 373.082734 222.878158 
L 370.570083 220.571707 
L 368.057432 218.265256 
L 365.544781 215.958805 
L 363.03213 213.652354 
L 360.519479 211.345903 
L 358.006828 209.039452 
L 355.494177 206.733002 
L 352.981526 204.426551 
L 350.468875 202.1201 
L 347.956224 199.813649 
L 345.443573 197.507198 
L 342.930922 195.200747 
L 340.418271 192.894296 
L 337.90562 190.587846 
L 335.392969 188.281395 
L 332.880318 185.974944 
L 330.367667 183.668493 
L 327.855016 181.362042 
L 325.342365 179.055591 
L 322.829714 176.74914 
L 320.317063 174.442689 
L 317.804412 172.136239 
L 315.291761 169.829788 
L 312.77911 167.523337 
L 310.266459 165.216886 
L 307.753808 162.910435 
L 305.241157 160.603984 
L 302.728506 158.297533 
L 300.215855 155.991082 
L 297.703204 153.684632 
L 295.190553 151.378181 
L 292.677902 149.07173 
L 290.165251 146.765279 
L 287.6526 144.458828 
L 285.139949 142.152377 
L 282.627298 139.845926 
L 280.114647 137.539475 
L 277.601996 135.233025 
L 275.089345 132.926574 
L 272.576694 130.620123 
L 270.064043 128.313672 
L 267.551392 126.007221 
L 265.038741 123.70077 
L 262.52609 121.394319 
L 260.013439 119.087868 
L 257.500788 116.781418 
L 254.988137 114.474967 
L 252.475486 112.168516 
L 249.962835 109.862065 
L 247.450184 107.555614 
L 244.937533 105.249163 
L 242.424882 102.942712 
L 239.912231 100.636261 
L 237.39958 98.329811 
L 234.886929 96.02336 
L 232.374278 93.716909 
L 229.861627 91.410458 
L 227.348976 89.104007 
L 224.836325 86.797556 
L 222.323675 84.491105 
L 219.811024 82.184654 
L 217.298373 79.878204 
L 214.785722 77.571753 
L 212.273071 75.265302 
L 209.76042 72.958851 
L 207.247769 70.6524 
L 204.735118 68.345949 
L 202.222467 66.039498 
L 199.709816 63.733048 
L 197.197165 61.426597 
L 194.684514 59.120146 
L 192.171863 56.813695 
L 189.659212 54.507244 
L 187.146561 52.200793 
L 184.63391 49.894342 
L 182.121259 47.587891 
L 179.608608 45.281441 
L 177.095957 42.97499 
L 174.583306 40.668539 
L 172.070655 38.362088 
L 169.558004 36.055637 
L 167.045353 33.749186 
L 164.532702 31.442735 
L 162.020051 29.136284 
L 159.5074 26.829834 
L 156.994749 24.523383 
L 154.482098 22.216932 
" clip-path="url(#p18ba3f2e74)" style="fill: none; stroke: #2980b9; stroke-width: 2; stroke-linecap: square"/>
   </g>
   <g id="patch_3">
    <path d="M 25.96 261.9725 
L 25.96 10.8 
" style="fill: none; stroke: #000000; stroke-width: 0.8; stroke-linejoin: miter; stroke-linecap: square"/>
   </g>
   <g id="patch_4">
    <path d="M 25.96 261.9725 
L 421.2 261.9725 
" style="fill: none; stroke: #000000; stroke-width: 0.8; stroke-linejoin: miter; stroke-linecap: square"/>
   </g>
   <g id="patch_5">
    <path d="M 182.121259 141.999017 
Q 182.121259 98.329756 182.121259 56.337547 
" style="fill: none; stroke: #000000; stroke-width: 1.5; stroke-linecap: round"/>
    <path d="M 180.121259 60.337547 
L 182.121259 56.337547 
L 184.121259 60.337547 
" style="fill: none; stroke: #000000; stroke-width: 1.5; stroke-linecap: round"/>
   </g>
   <g id="text_3">
    <!-- Price Leap -->
    <g transform="translate(195.940839 98.329811) scale(0.12 -0.12)">
     <defs>
      <path id="ArialUnicodeMS-4c" d="M 3347 0 
L 481 0 
L 481 4581 
L 1088 4581 
L 1088 544 
L 3347 544 
L 3347 0 
z
" transform="scale(0.015625)"/>
      <path id="ArialUnicodeMS-70" d="M 959 2888 
Q 1275 3391 1906 3391 
Q 2559 3391 2937 2917 
Q 3316 2444 3316 1684 
Q 3316 875 2897 398 
Q 2478 -78 1869 -78 
Q 1334 -78 1013 347 
L 997 347 
L 997 -1275 
L 434 -1275 
L 434 3316 
L 947 3316 
L 947 2888 
L 959 2888 
z
M 1831 384 
Q 2225 384 2483 711 
Q 2741 1038 2741 1684 
Q 2741 2294 2492 2622 
Q 2244 2950 1856 2950 
Q 1456 2950 1198 2584 
Q 941 2219 941 1638 
Q 941 1022 1187 703 
Q 1434 384 1831 384 
z
" transform="scale(0.015625)"/>
     </defs>
     <use xlink:href="#ArialUnicodeMS-50"/>
     <use xlink:href="#ArialUnicodeMS-72" x="66.699219"/>
     <use xlink:href="#ArialUnicodeMS-69" x="100"/>
     <use xlink:href="#ArialUnicodeMS-63" x="122.216797"/>
     <use xlink:href="#ArialUnicodeMS-65" x="172.216797"/>
     <use xlink:href="#ArialUnicodeMS-20" x="227.832031"/>
     <use xlink:href="#ArialUnicodeMS-4c" x="255.615234"/>
     <use xlink:href="#ArialUnicodeMS-65" x="311.230469"/>
     <use xlink:href="#ArialUnicodeMS-61" x="366.845703"/>
     <use xlink:href="#ArialUnicodeMS-70" x="422.460938"/>
    </g>
   </g>
   <g id="PathCollection_1">
    <defs>
     <path id="m19349262c9" d="M 0 3 
C 0.795609 3 1.55874 2.683901 2.12132 2.12132 
C 2.683901 1.55874 3 0.795609 3 0 
C 3 -0.795609 2.683901 -1.55874 2.12132 -2.12132 
C 1.55874 -2.683901 0.795609 -3 0 -3 
C -0.795609 -3 -1.55874 -2.683901 -2.12132 -2.12132 
C -2.683901 -1.55874 -3 -0.795609 -3 0 
C -3 0.795609 -2.683901 1.55874 -2.12132 2.12132 
C -1.55874 2.683901 -0.795609 3 0 3 
z
" style="stroke: #000000"/>
    </defs>
    <g clip-path="url(#p18ba3f2e74)">
     <use xlink:href="#m19349262c9" x="182.121259" y="149.07173" style="stroke: #000000"/>
     <use xlink:href="#m19349262c9" x="182.121259" y="47.587891" style="stroke: #000000"/>
    </g>
   </g>
   <g id="legend_1">
    <g id="line2d_4">
     <path d="M 298.05625 23.579687 
L 308.05625 23.579687 
L 318.05625 23.579687 
" style="fill: none; stroke: #c0392b; stroke-width: 2; stroke-linecap: square"/>
    </g>
    <g id="text_4">
     <!-- Inelastic Supply (S) -->
     <g transform="translate(326.05625 27.079687) scale(0.1 -0.1)">
      <defs>
       <path id="ArialUnicodeMS-49" d="M 1197 0 
L 588 0 
L 588 4581 
L 1197 4581 
L 1197 0 
z
" transform="scale(0.015625)"/>
       <path id="ArialUnicodeMS-6c" d="M 991 0 
L 428 0 
L 428 4581 
L 991 4581 
L 991 0 
z
" transform="scale(0.015625)"/>
       <path id="ArialUnicodeMS-73" d="M 2278 2388 
Q 2241 2659 2058 2795 
Q 1875 2931 1550 2931 
Q 1228 2931 1029 2822 
Q 831 2713 831 2503 
Q 831 2306 989 2222 
Q 1147 2138 1613 2016 
Q 2138 1881 2398 1778 
Q 2659 1675 2804 1489 
Q 2950 1303 2950 972 
Q 2950 528 2587 225 
Q 2225 -78 1619 -78 
Q 988 -78 633 189 
Q 278 456 197 991 
L 756 1075 
Q 800 728 1014 556 
Q 1228 384 1613 384 
Q 1981 384 2178 539 
Q 2375 694 2375 916 
Q 2375 1066 2284 1156 
Q 2194 1247 2058 1292 
Q 1922 1338 1447 1453 
Q 741 1622 514 1862 
Q 288 2103 288 2438 
Q 288 2853 619 3122 
Q 950 3391 1509 3391 
Q 2103 3391 2433 3158 
Q 2763 2925 2828 2463 
L 2278 2388 
z
" transform="scale(0.015625)"/>
       <path id="ArialUnicodeMS-53" d="M 3213 3238 
Q 3175 3675 2897 3895 
Q 2619 4116 2100 4116 
Q 1631 4116 1337 3941 
Q 1044 3766 1044 3431 
Q 1044 3134 1270 2989 
Q 1497 2844 2138 2700 
Q 2706 2575 3065 2444 
Q 3425 2313 3681 2036 
Q 3938 1759 3938 1294 
Q 3938 703 3467 312 
Q 2997 -78 2241 -78 
Q 1275 -78 795 353 
Q 316 784 288 1472 
L 863 1522 
Q 903 972 1287 720 
Q 1672 469 2216 469 
Q 2725 469 3039 678 
Q 3353 888 3353 1247 
Q 3353 1622 3025 1794 
Q 2697 1966 1923 2133 
Q 1150 2300 809 2603 
Q 469 2906 469 3391 
Q 469 3941 900 4300 
Q 1331 4659 2075 4659 
Q 2838 4659 3302 4301 
Q 3766 3944 3794 3284 
L 3213 3238 
z
" transform="scale(0.015625)"/>
      </defs>
      <use xlink:href="#ArialUnicodeMS-49"/>
      <use xlink:href="#ArialUnicodeMS-6e" x="27.783203"/>
      <use xlink:href="#ArialUnicodeMS-65" x="83.398438"/>
      <use xlink:href="#ArialUnicodeMS-6c" x="139.013672"/>
      <use xlink:href="#ArialUnicodeMS-61" x="161.230469"/>
      <use xlink:href="#ArialUnicodeMS-73" x="216.845703"/>
      <use xlink:href="#ArialUnicodeMS-74" x="266.845703"/>
      <use xlink:href="#ArialUnicodeMS-69" x="294.628906"/>
      <use xlink:href="#ArialUnicodeMS-63" x="316.845703"/>
      <use xlink:href="#ArialUnicodeMS-20" x="366.845703"/>
      <use xlink:href="#ArialUnicodeMS-53" x="394.628906"/>
      <use xlink:href="#ArialUnicodeMS-75" x="461.328125"/>
      <use xlink:href="#ArialUnicodeMS-70" x="516.943359"/>
      <use xlink:href="#ArialUnicodeMS-70" x="572.558594"/>
      <use xlink:href="#ArialUnicodeMS-6c" x="628.173828"/>
      <use xlink:href="#ArialUnicodeMS-79" x="650.390625"/>
      <use xlink:href="#ArialUnicodeMS-20" x="700.390625"/>
      <use xlink:href="#ArialUnicodeMS-28" x="728.173828"/>
      <use xlink:href="#ArialUnicodeMS-53" x="761.474609"/>
      <use xlink:href="#ArialUnicodeMS-29" x="828.173828"/>
     </g>
    </g>
    <g id="line2d_5">
     <path d="M 298.05625 37.959375 
L 308.05625 37.959375 
L 318.05625 37.959375 
" style="fill: none; stroke-dasharray: 5.55,2.4; stroke-dashoffset: 0; stroke: #7f8c8d; stroke-width: 1.5"/>
    </g>
    <g id="text_5">
     <!-- Initial Demand (D1) -->
     <g transform="translate(326.05625 41.459375) scale(0.1 -0.1)">
      <defs>
       <path id="ArialUnicodeMS-44" d="M 513 4581 
L 2094 4581 
Q 2509 4581 2809 4539 
Q 3109 4497 3382 4333 
Q 3656 4169 3861 3881 
Q 4066 3594 4183 3220 
Q 4300 2847 4300 2316 
Q 4300 1303 3819 651 
Q 3338 0 2163 0 
L 513 0 
L 513 4581 
z
M 1119 544 
L 2100 544 
Q 2400 544 2636 581 
Q 2872 619 3114 784 
Q 3356 950 3515 1328 
Q 3675 1706 3675 2328 
Q 3675 2672 3614 2970 
Q 3553 3269 3389 3514 
Q 3225 3759 3012 3873 
Q 2800 3988 2598 4013 
Q 2397 4038 2081 4038 
L 1119 4038 
L 1119 544 
z
" transform="scale(0.015625)"/>
       <path id="ArialUnicodeMS-6d" d="M 4922 0 
L 4359 0 
L 4359 2094 
Q 4359 2325 4328 2489 
Q 4297 2653 4167 2779 
Q 4038 2906 3763 2906 
Q 3431 2906 3190 2675 
Q 2950 2444 2950 1925 
L 2950 0 
L 2388 0 
L 2388 2156 
Q 2388 2588 2236 2747 
Q 2084 2906 1806 2906 
Q 1444 2906 1211 2656 
Q 978 2406 978 1722 
L 978 0 
L 416 0 
L 416 3316 
L 922 3316 
L 922 2853 
L 934 2853 
Q 1272 3391 1925 3391 
Q 2291 3391 2527 3245 
Q 2763 3100 2869 2809 
Q 3238 3391 3891 3391 
Q 4406 3391 4664 3112 
Q 4922 2834 4922 2278 
L 4922 0 
z
" transform="scale(0.015625)"/>
       <path id="ArialUnicodeMS-64" d="M 3109 0 
L 2584 0 
L 2584 422 
L 2572 422 
Q 2269 -78 1656 -78 
Q 1047 -78 639 405 
Q 231 888 231 1656 
Q 231 2459 615 2925 
Q 1000 3391 1631 3391 
Q 2225 3391 2534 2938 
L 2547 2938 
L 2547 4581 
L 3109 4581 
L 3109 0 
z
M 1716 384 
Q 2084 384 2340 687 
Q 2597 991 2597 1606 
Q 2597 2213 2362 2572 
Q 2128 2931 1691 2931 
Q 1253 2931 1029 2579 
Q 806 2228 806 1656 
Q 806 1244 926 958 
Q 1047 672 1262 528 
Q 1478 384 1716 384 
z
" transform="scale(0.015625)"/>
       <path id="ArialUnicodeMS-31" d="M 2400 0 
L 1838 0 
L 1838 3584 
Q 1416 3184 709 2906 
L 709 3450 
Q 1681 3916 2034 4603 
L 2400 4603 
L 2400 0 
z
" transform="scale(0.015625)"/>
      </defs>
      <use xlink:href="#ArialUnicodeMS-49"/>
      <use xlink:href="#ArialUnicodeMS-6e" x="27.783203"/>
      <use xlink:href="#ArialUnicodeMS-69" x="83.398438"/>
      <use xlink:href="#ArialUnicodeMS-74" x="105.615234"/>
      <use xlink:href="#ArialUnicodeMS-69" x="133.398438"/>
      <use xlink:href="#ArialUnicodeMS-61" x="155.615234"/>
      <use xlink:href="#ArialUnicodeMS-6c" x="211.230469"/>
      <use xlink:href="#ArialUnicodeMS-20" x="233.447266"/>
      <use xlink:href="#ArialUnicodeMS-44" x="261.230469"/>
      <use xlink:href="#ArialUnicodeMS-65" x="333.447266"/>
      <use xlink:href="#ArialUnicodeMS-6d" x="389.0625"/>
      <use xlink:href="#ArialUnicodeMS-61" x="472.363281"/>
      <use xlink:href="#ArialUnicodeMS-6e" x="527.978516"/>
      <use xlink:href="#ArialUnicodeMS-64" x="583.59375"/>
      <use xlink:href="#ArialUnicodeMS-20" x="639.208984"/>
      <use xlink:href="#ArialUnicodeMS-28" x="666.992188"/>
      <use xlink:href="#ArialUnicodeMS-44" x="700.292969"/>
      <use xlink:href="#ArialUnicodeMS-31" x="772.509766"/>
      <use xlink:href="#ArialUnicodeMS-29" x="828.125"/>
     </g>
    </g>
    <g id="line2d_6">
     <path d="M 298.05625 52.339062 
L 308.05625 52.339062 
L 318.05625 52.339062 
" style="fill: none; stroke: #2980b9; stroke-width: 2; stroke-linecap: square"/>
    </g>
    <g id="text_6">
     <!-- New Demand (D2) -->
     <g transform="translate(326.05625 55.839062) scale(0.1 -0.1)">
      <defs>
       <path id="ArialUnicodeMS-4e" d="M 4109 0 
L 3488 0 
L 1094 3597 
L 1081 3597 
L 1081 0 
L 506 0 
L 506 4581 
L 1125 4581 
L 3519 984 
L 3531 984 
L 3531 4581 
L 4109 4581 
L 4109 0 
z
" transform="scale(0.015625)"/>
       <path id="ArialUnicodeMS-77" d="M 4588 3316 
L 3547 0 
L 2963 0 
L 2438 1991 
Q 2434 1991 2371 2259 
Q 2309 2528 2309 2553 
L 2297 2553 
L 1638 0 
L 1050 0 
L 31 3316 
L 616 3316 
L 1338 691 
L 1450 1138 
L 2041 3316 
L 2619 3316 
L 3066 1578 
Q 3253 859 3272 763 
L 3284 763 
L 4038 3316 
L 4588 3316 
z
" transform="scale(0.015625)"/>
       <path id="ArialUnicodeMS-32" d="M 3231 0 
L 197 0 
Q 197 388 467 784 
Q 738 1181 1478 1778 
Q 1931 2141 2287 2539 
Q 2644 2938 2644 3341 
Q 2644 3688 2398 3914 
Q 2153 4141 1778 4141 
Q 1400 4141 1144 3908 
Q 888 3675 884 3213 
L 306 3278 
Q 359 3922 764 4262 
Q 1169 4603 1791 4603 
Q 2466 4603 2842 4229 
Q 3219 3856 3219 3328 
Q 3219 2888 2901 2436 
Q 2584 1984 1638 1228 
Q 1141 831 978 544 
L 3231 544 
L 3231 0 
z
" transform="scale(0.015625)"/>
      </defs>
      <use xlink:href="#ArialUnicodeMS-4e"/>
      <use xlink:href="#ArialUnicodeMS-65" x="72.216797"/>
      <use xlink:href="#ArialUnicodeMS-77" x="127.832031"/>
      <use xlink:href="#ArialUnicodeMS-20" x="200.048828"/>
      <use xlink:href="#ArialUnicodeMS-44" x="227.832031"/>
      <use xlink:href="#ArialUnicodeMS-65" x="300.048828"/>
      <use xlink:href="#ArialUnicodeMS-6d" x="355.664062"/>
      <use xlink:href="#ArialUnicodeMS-61" x="438.964844"/>
      <use xlink:href="#ArialUnicodeMS-6e" x="494.580078"/>
      <use xlink:href="#ArialUnicodeMS-64" x="550.195312"/>
      <use xlink:href="#ArialUnicodeMS-20" x="605.810547"/>
      <use xlink:href="#ArialUnicodeMS-28" x="633.59375"/>
      <use xlink:href="#ArialUnicodeMS-44" x="666.894531"/>
      <use xlink:href="#ArialUnicodeMS-32" x="739.111328"/>
      <use xlink:href="#ArialUnicodeMS-29" x="794.726562"/>
     </g>
    </g>
   </g>
  </g>
 </g>
 <defs>
  <clipPath id="p18ba3f2e74">
   <rect x="25.96" y="10.8" width="395.24" height="251.1725"/>
  </clipPath>
 </defs>
</svg>
