<?xml version="1.0" encoding="utf-8" standalone="no"?>
<!DOCTYPE svg PUBLIC "-//W3C//DTD SVG 1.1//EN"
  "http://www.w3.org/Graphics/SVG/1.1/DTD/svg11.dtd">
<svg xmlns:xlink="http://www.w3.org/1999/xlink" width="432pt" height="288pt" viewBox="0 0 432 288" xmlns="http://www.w3.org/2000/svg" version="1.1">
 <metadata>
  <rdf:RDF xmlns:dc="http://purl.org/dc/elements/1.1/" xmlns:cc="http://creativecommons.org/ns#" xmlns:rdf="http://www.w3.org/1999/02/22-rdf-syntax-ns#">
   <cc:Work>
    <dc:type rdf:resource="http://purl.org/dc/dcmitype/StillImage"/>
    <dc:date>2026-05-11T09:52:22.372051</dc:date>
    <dc:format>image/svg+xml</dc:format>
    <dc:creator>
     <cc:Agent>
      <dc:title>Matplotlib v3.9.4, https://matplotlib.org/</dc:title>
     </cc:Agent>
    </dc:creator>
   </cc:Work>
  </rdf:RDF>
 </metadata>
 <defs>
  <style type="text/css">*{stroke-linejoin: round; stroke-linecap: butt}</style>
 </defs>
 <g id="figure_1">
  <g id="patch_1">
   <path d="M 0 288 
L 432 288 
L 432 0 
L 0 0 
z
" style="fill: #ffffff"/>
  </g>
  <g id="axes_1">
   <g id="patch_2">
    <path d="M 27.45625 260.943125 
L 421.2 260.943125 
L 421.2 10.8 
L 27.45625 10.8 
z
" style="fill: #ffffff"/>
   </g>
   <g id="matplotlib.axis_1">
    <g id="text_1">
     <!-- 数量 (Q) -->
     <g transform="translate(201.99875 274.7925) scale(0.12 -0.12)">
      <defs>
       <path id="ArialUnicodeMS-6570" d="M 6138 19 
L 5806 -378 
Q 5031 194 4697 716 
Q 4344 144 3328 -441 
L 2981 -50 
Q 3966 434 4403 1153 
Q 4038 1834 3866 2753 
Q 3678 2356 3353 1919 
L 2950 2203 
Q 3838 3172 3963 5253 
L 4409 5125 
Q 4341 4384 4269 4006 
L 5984 4006 
L 5984 3547 
L 5619 3541 
L 5594 3341 
Q 5441 2113 4978 1191 
Q 5281 672 6138 19 
z
M 5166 3541 
L 4172 3541 
Q 4297 2419 4691 1650 
Q 5038 2513 5166 3541 
z
M 3438 3653 
L 2209 3653 
L 2209 2338 
L 1919 2338 
Q 1900 2269 1753 1931 
L 3225 1931 
L 3225 1472 
L 2913 1472 
Q 2763 991 2503 666 
Q 2947 353 3103 184 
L 2747 -172 
Q 2463 138 2150 313 
Q 1322 -225 563 -428 
L 269 6 
Q 1106 163 1684 563 
Q 1291 756 703 884 
L 1038 1472 
L 403 1472 
L 403 1931 
L 1259 1931 
Q 1328 2056 1466 2553 
L 1747 2484 
L 1747 3653 
L 1716 3653 
Q 1413 2881 678 2456 
L 378 2803 
Q 938 3091 1241 3653 
L 403 3653 
L 403 4122 
L 1747 4122 
L 1747 5228 
L 2209 5228 
L 2209 4122 
L 3438 4122 
L 3438 3653 
z
M 2406 1472 
L 1538 1472 
Q 1422 1241 1369 1153 
Q 1388 1159 2069 884 
Q 2219 1031 2406 1472 
z
M 1625 4441 
L 1288 4159 
Q 1022 4547 575 4813 
L 878 5075 
Q 1394 4844 1625 4441 
z
M 3384 4844 
Q 3097 4409 2669 4172 
L 2322 4481 
Q 2806 4759 3047 5069 
L 3384 4844 
z
M 3303 2888 
L 2944 2578 
Q 2706 3025 2291 3297 
L 2584 3566 
Q 2988 3359 3303 2888 
z
" transform="scale(0.015625)"/>
       <path id="ArialUnicodeMS-91cf" d="M 5056 3378 
L 1313 3378 
L 1313 5050 
L 5056 5050 
L 5056 3378 
z
M 4569 4403 
L 4569 4609 
L 1797 4609 
L 1797 4403 
L 4569 4403 
z
M 4569 3794 
L 4569 4031 
L 1797 4031 
L 1797 3794 
L 4569 3794 
z
M 5797 2816 
L 581 2816 
L 581 3231 
L 5797 3231 
L 5797 2816 
z
M 6059 -191 
L 341 -191 
L 341 275 
L 2950 275 
L 2950 459 
L 897 459 
L 897 878 
L 2950 878 
L 2950 1044 
L 1125 1044 
L 1125 2669 
L 5269 2669 
L 5269 1044 
L 3438 1044 
L 3438 878 
L 5509 878 
L 5509 459 
L 3438 459 
L 3438 275 
L 6059 275 
L 6059 -191 
z
M 4781 2053 
L 4781 2253 
L 3438 2253 
L 3438 2053 
L 4781 2053 
z
M 2950 2053 
L 2950 2253 
L 1613 2253 
L 1613 2053 
L 2950 2053 
z
M 4781 1459 
L 4781 1697 
L 3438 1697 
L 3438 1459 
L 4781 1459 
z
M 2950 1459 
L 2950 1697 
L 1613 1697 
L 1613 1459 
L 2950 1459 
z
" transform="scale(0.015625)"/>
       <path id="ArialUnicodeMS-20" transform="scale(0.015625)"/>
       <path id="ArialUnicodeMS-28" d="M 1900 -1344 
L 1497 -1344 
Q 978 -681 681 103 
Q 384 888 384 1656 
Q 384 2528 700 3275 
Q 1016 4022 1497 4659 
L 1900 4659 
Q 1344 3747 1155 3059 
Q 966 2372 966 1663 
Q 966 153 1900 -1344 
z
" transform="scale(0.015625)"/>
       <path id="ArialUnicodeMS-51" d="M 4769 63 
L 4588 -359 
Q 4056 -156 3609 206 
Q 3091 -78 2484 -78 
Q 1525 -78 912 586 
Q 300 1250 300 2291 
Q 300 3322 894 3990 
Q 1488 4659 2497 4659 
Q 3456 4659 4070 4006 
Q 4684 3353 4684 2297 
Q 4684 1166 3994 494 
Q 4381 216 4769 63 
z
M 3519 825 
Q 4056 1322 4056 2291 
Q 4056 3156 3623 3648 
Q 3191 4141 2497 4141 
Q 1803 4141 1365 3669 
Q 928 3197 928 2291 
Q 928 1403 1365 922 
Q 1803 441 2497 441 
Q 2838 441 3109 563 
Q 2806 756 2509 825 
L 2656 1269 
Q 3216 1109 3519 825 
z
" transform="scale(0.015625)"/>
       <path id="ArialUnicodeMS-29" d="M 634 4659 
Q 1153 3997 1450 3212 
Q 1747 2428 1747 1656 
Q 1747 788 1431 41 
Q 1116 -706 634 -1344 
L 231 -1344 
Q 788 -431 977 255 
Q 1166 941 1166 1650 
Q 1166 3163 231 4659 
L 634 4659 
z
" transform="scale(0.015625)"/>
      </defs>
      <use xlink:href="#ArialUnicodeMS-6570"/>
      <use xlink:href="#ArialUnicodeMS-91cf" x="100"/>
      <use xlink:href="#ArialUnicodeMS-20" x="200"/>
      <use xlink:href="#ArialUnicodeMS-28" x="227.783203"/>
      <use xlink:href="#ArialUnicodeMS-51" x="261.083984"/>
      <use xlink:href="#ArialUnicodeMS-29" x="338.867188"/>
     </g>
    </g>
   </g>
   <g id="matplotlib.axis_2">
    <g id="text_2">
     <!-- 价格 (P) -->
     <g transform="translate(20.93625 157.53625) rotate(-90) scale(0.12 -0.12)">
      <defs>
       <path id="ArialUnicodeMS-4ef7" d="M 6284 2975 
L 5900 2572 
Q 4847 3084 3928 4519 
Q 3178 3188 2041 2584 
L 1697 2981 
Q 3113 3628 3859 5422 
L 4281 5184 
L 4206 4997 
Q 5038 3547 6284 2975 
z
M 2241 5172 
Q 2156 4775 1913 4147 
L 1672 3531 
L 1672 -428 
L 1184 -428 
L 1184 2663 
Q 1113 2534 659 2041 
L 213 2322 
Q 1372 3522 1784 5344 
L 2241 5172 
z
M 4984 -409 
L 4500 -409 
L 4500 3116 
L 4984 3116 
L 4984 -409 
z
M 3397 1791 
Q 3397 1034 3097 531 
Q 2797 28 2059 -475 
L 1697 -72 
Q 2209 191 2561 647 
Q 2913 1103 2913 1528 
L 2913 3116 
L 3397 3116 
L 3397 1791 
z
" transform="scale(0.015625)"/>
       <path id="ArialUnicodeMS-683c" d="M 6194 2175 
L 5906 1772 
Q 4913 2122 4178 2719 
Q 3678 2294 2472 1747 
L 2169 2150 
Q 3034 2441 3847 3066 
Q 3747 3188 3397 3756 
Q 3081 3256 2822 2988 
L 2406 3263 
Q 3166 4016 3475 5344 
L 3944 5203 
Q 3931 5103 3803 4684 
L 5484 4684 
Q 5234 3734 4525 3034 
Q 5213 2463 6194 2175 
z
M 4819 4219 
L 3694 4219 
Q 3897 3769 4213 3378 
Q 4550 3747 4819 4219 
z
M 2784 2547 
L 2388 2266 
Q 2122 2697 1900 2834 
L 1900 -416 
L 1416 -416 
L 1416 2047 
Q 1069 1388 678 941 
L 281 1247 
Q 1191 2294 1363 3572 
L 513 3572 
L 513 4038 
L 1394 4038 
L 1394 5288 
L 1900 5288 
L 1900 4038 
L 2547 4038 
L 2547 3572 
L 1900 3572 
L 1900 3238 
L 1966 3316 
Q 2469 3016 2784 2547 
z
M 5350 -397 
L 4863 -397 
L 4863 -38 
L 3488 -38 
L 3488 -416 
L 3003 -416 
L 3003 1978 
L 5350 1978 
L 5350 -397 
z
M 4863 428 
L 4863 1509 
L 3488 1509 
L 3488 428 
L 4863 428 
z
" transform="scale(0.015625)"/>
       <path id="ArialUnicodeMS-50" d="M 494 4581 
L 2222 4581 
Q 2631 4581 2926 4540 
Q 3222 4500 3475 4329 
Q 3728 4159 3858 3867 
Q 3988 3575 3988 3256 
Q 3988 2622 3580 2239 
Q 3172 1856 2272 1856 
L 1100 1856 
L 1100 0 
L 494 0 
L 494 4581 
z
M 1100 2400 
L 2278 2400 
Q 3359 2400 3359 3238 
Q 3359 3513 3218 3723 
Q 3078 3934 2873 3986 
Q 2669 4038 2266 4038 
L 1100 4038 
L 1100 2400 
z
" transform="scale(0.015625)"/>
      </defs>
      <use xlink:href="#ArialUnicodeMS-4ef7"/>
      <use xlink:href="#ArialUnicodeMS-683c" x="100"/>
      <use xlink:href="#ArialUnicodeMS-20" x="200"/>
      <use xlink:href="#ArialUnicodeMS-28" x="227.783203"/>
      <use xlink:href="#ArialUnicodeMS-50" x="261.083984"/>
      <use xlink:href="#ArialUnicodeMS-29" x="327.783203"/>
     </g>
    </g>
   </g>
   <g id="line2d_1">
    <path d="M 183.026333 260.943125 
L 183.026333 10.8 
" clip-path="url(#p5ac8983017)" style="fill: none; stroke: #c0392b; stroke-width: 2; stroke-linecap: square"/>
   </g>
   <g id="line2d_2">
    <path d="M 293.164445 249.572983 
L 290.661306 247.275985 
L 288.158167 244.978986 
L 285.655028 242.681988 
L 283.151889 240.384989 
L 280.64875 238.087991 
L 278.145611 235.790993 
L 275.642473 233.493994 
L 273.139334 231.196996 
L 270.636195 228.899997 
L 268.133056 226.602999 
L 265.629917 224.306001 
L 263.126778 222.009002 
L 260.623639 219.712004 
L 258.1205 217.415005 
L 255.617361 215.118007 
L 253.114222 212.821009 
L 250.611084 210.52401 
L 248.107945 208.227012 
L 245.604806 205.930013 
L 243.101667 203.633015 
L 240.598528 201.336017 
L 238.095389 199.039018 
L 235.59225 196.74202 
L 233.089111 194.445022 
L 230.585972 192.148023 
L 228.082833 189.851025 
L 225.579694 187.554026 
L 223.076556 185.257028 
L 220.573417 182.96003 
L 218.070278 180.663031 
L 215.567139 178.366033 
L 213.064 176.069034 
L 210.560861 173.772036 
L 208.057722 171.475038 
L 205.554583 169.178039 
L 203.051444 166.881041 
L 200.548305 164.584042 
L 198.045166 162.287044 
L 195.542028 159.990046 
L 193.038889 157.693047 
L 190.53575 155.396049 
L 188.032611 153.09905 
L 185.529472 150.802052 
L 183.026333 148.505054 
L 180.523194 146.208055 
L 178.020055 143.911057 
L 175.516916 141.614058 
L 173.013777 139.31706 
L 170.510639 137.020062 
L 168.0075 134.723063 
L 165.504361 132.426065 
L 163.001222 130.129067 
L 160.498083 127.832068 
L 157.994944 125.53507 
L 155.491805 123.238071 
L 152.988666 120.941073 
L 150.485527 118.644075 
L 147.982388 116.347076 
L 145.479249 114.050078 
L 142.976111 111.753079 
L 140.472972 109.456081 
L 137.969833 107.159083 
L 135.466694 104.862084 
L 132.963555 102.565086 
L 130.460416 100.268087 
L 127.957277 97.971089 
L 125.454138 95.674091 
L 122.950999 93.377092 
L 120.44786 91.080094 
L 117.944721 88.783095 
L 115.441583 86.486097 
L 112.938444 84.189099 
L 110.435305 81.8921 
L 107.932166 79.595102 
L 105.429027 77.298103 
L 102.925888 75.001105 
L 100.422749 72.704107 
L 97.91961 70.407108 
L 95.416471 68.11011 
L 92.913332 65.813112 
L 90.410193 63.516113 
L 87.907055 61.219115 
L 85.403916 58.922116 
L 82.900777 56.625118 
L 80.397638 54.32812 
L 77.894499 52.031121 
L 75.39136 49.734123 
L 72.888221 47.437124 
L 70.385082 45.140126 
L 67.881943 42.843128 
L 65.378804 40.546129 
L 62.875666 38.249131 
L 60.372527 35.952132 
L 57.869388 33.655134 
L 55.366249 31.358136 
L 52.86311 29.061137 
L 50.359971 26.764139 
L 47.856832 24.46714 
L 45.353693 22.170142 
" clip-path="url(#p5ac8983017)" style="fill: none; stroke-dasharray: 5.55,2.4; stroke-dashoffset: 0; stroke: #7f8c8d; stroke-width: 1.5"/>
   </g>
   <g id="line2d_3">
    <path d="M 403.302557 249.572983 
L 400.799418 247.275985 
L 398.296279 244.978986 
L 395.79314 242.681988 
L 393.290001 240.384989 
L 390.786862 238.087991 
L 388.283723 235.790993 
L 385.780584 233.493994 
L 383.277446 231.196996 
L 380.774307 228.899997 
L 378.271168 226.602999 
L 375.768029 224.306001 
L 373.26489 222.009002 
L 370.761751 219.712004 
L 368.258612 217.415005 
L 365.755473 215.118007 
L 363.252334 212.821009 
L 360.749195 210.52401 
L 358.246057 208.227012 
L 355.742918 205.930013 
L 353.239779 203.633015 
L 350.73664 201.336017 
L 348.233501 199.039018 
L 345.730362 196.74202 
L 343.227223 194.445022 
L 340.724084 192.148023 
L 338.220945 189.851025 
L 335.717806 187.554026 
L 333.214667 185.257028 
L 330.711529 182.96003 
L 328.20839 180.663031 
L 325.705251 178.366033 
L 323.202112 176.069034 
L 320.698973 173.772036 
L 318.195834 171.475038 
L 315.692695 169.178039 
L 313.189556 166.881041 
L 310.686417 164.584042 
L 308.183278 162.287044 
L 305.680139 159.990046 
L 303.177001 157.693047 
L 300.673862 155.396049 
L 298.170723 153.09905 
L 295.667584 150.802052 
L 293.164445 148.505054 
L 290.661306 146.208055 
L 288.158167 143.911057 
L 285.655028 141.614058 
L 283.151889 139.31706 
L 280.64875 137.020062 
L 278.145611 134.723063 
L 275.642473 132.426065 
L 273.139334 130.129067 
L 270.636195 127.832068 
L 268.133056 125.53507 
L 265.629917 123.238071 
L 263.126778 120.941073 
L 260.623639 118.644075 
L 258.1205 116.347076 
L 255.617361 114.050078 
L 253.114222 111.753079 
L 250.611084 109.456081 
L 248.107945 107.159083 
L 245.604806 104.862084 
L 243.101667 102.565086 
L 240.598528 100.268087 
L 238.095389 97.971089 
L 235.59225 95.674091 
L 233.089111 93.377092 
L 230.585972 91.080094 
L 228.082833 88.783095 
L 225.579694 86.486097 
L 223.076556 84.189099 
L 220.573417 81.8921 
L 218.070278 79.595102 
L 215.567139 77.298103 
L 213.064 75.001105 
L 210.560861 72.704107 
L 208.057722 70.407108 
L 205.554583 68.11011 
L 203.051444 65.813112 
L 200.548305 63.516113 
L 198.045166 61.219115 
L 195.542028 58.922116 
L 193.038889 56.625118 
L 190.53575 54.32812 
L 188.032611 52.031121 
L 185.529472 49.734123 
L 183.026333 47.437124 
L 180.523194 45.140126 
L 178.020055 42.843128 
L 175.516916 40.546129 
L 173.013777 38.249131 
L 170.510639 35.952132 
L 168.0075 33.655134 
L 165.504361 31.358136 
L 163.001222 29.061137 
L 160.498083 26.764139 
L 157.994944 24.46714 
L 155.491805 22.170142 
" clip-path="url(#p5ac8983017)" style="fill: none; stroke: #2980b9; stroke-width: 2; stroke-linecap: square"/>
   </g>
   <g id="patch_3">
    <path d="M 27.45625 260.943125 
L 27.45625 10.8 
" style="fill: none; stroke: #000000; stroke-width: 0.8; stroke-linejoin: miter; stroke-linecap: square"/>
   </g>
   <g id="patch_4">
    <path d="M 27.45625 260.943125 
L 421.2 260.943125 
" style="fill: none; stroke: #000000; stroke-width: 0.8; stroke-linejoin: miter; stroke-linecap: square"/>
   </g>
   <g id="patch_5">
    <path d="M 183.026333 141.450224 
Q 183.026333 97.970789 183.026333 56.168405 
" style="fill: none; stroke: #000000; stroke-width: 1.5; stroke-linecap: round"/>
    <path d="M 181.026333 60.168405 
L 183.026333 56.168405 
L 185.026333 60.168405 
" style="fill: none; stroke: #000000; stroke-width: 1.5; stroke-linecap: round"/>
   </g>
   <g id="text_3">
    <!-- 价格跃升 -->
    <g transform="translate(196.793597 97.971089) scale(0.12 -0.12)">
     <defs>
      <path id="ArialUnicodeMS-8dc3" d="M 6163 -72 
L 5797 -397 
Q 5294 -16 4898 771 
Q 4503 1559 4331 2503 
L 4319 2503 
Q 4106 656 2503 -409 
L 2156 -13 
Q 3628 1000 3853 2638 
L 2463 2638 
L 2463 3103 
L 3891 3103 
Q 3909 4216 3909 4366 
Q 3397 4247 2956 4231 
L 2694 4744 
Q 4109 4700 5259 5325 
L 5466 4934 
Q 4913 4625 4397 4488 
L 4378 3103 
L 5844 3103 
L 5844 2638 
L 4756 2638 
Q 5056 997 6163 -72 
z
M 2638 594 
Q 2166 431 531 -50 
L 250 428 
L 575 494 
L 575 2753 
L 1063 2753 
L 1063 603 
L 1478 716 
L 1478 3238 
L 653 3238 
L 653 5031 
L 2572 5031 
L 2572 3238 
L 1966 3238 
L 1966 2169 
L 2572 2169 
L 2572 1703 
L 1966 1703 
L 1966 878 
Q 2175 931 2638 1075 
L 2638 594 
z
M 2088 3706 
L 2088 4563 
L 1106 4563 
L 1106 3706 
L 2088 3706 
z
" transform="scale(0.015625)"/>
      <path id="ArialUnicodeMS-5347" d="M 5953 2356 
L 4603 2356 
L 4603 -453 
L 4116 -453 
L 4116 2356 
L 2578 2356 
Q 2538 1350 2141 706 
Q 1744 63 838 -453 
L 513 -19 
Q 1275 331 1694 964 
Q 2113 1597 2088 2356 
L 684 2356 
L 684 2822 
L 2113 2822 
L 2113 4250 
Q 1597 4116 972 4072 
L 716 4556 
Q 2253 4625 3309 5288 
L 3653 4922 
Q 3219 4644 2597 4391 
L 2597 2822 
L 4116 2822 
L 4116 5294 
L 4603 5294 
L 4603 2822 
L 5953 2822 
L 5953 2356 
z
" transform="scale(0.015625)"/>
     </defs>
     <use xlink:href="#ArialUnicodeMS-4ef7"/>
     <use xlink:href="#ArialUnicodeMS-683c" x="100"/>
     <use xlink:href="#ArialUnicodeMS-8dc3" x="200"/>
     <use xlink:href="#ArialUnicodeMS-5347" x="300"/>
    </g>
   </g>
   <g id="PathCollection_1">
    <defs>
     <path id="m20d5b8e856" d="M 0 3 
C 0.795609 3 1.55874 2.683901 2.12132 2.12132 
C 2.683901 1.55874 3 0.795609 3 0 
C 3 -0.795609 2.683901 -1.55874 2.12132 -2.12132 
C 1.55874 -2.683901 0.795609 -3 0 -3 
C -0.795609 -3 -1.55874 -2.683901 -2.12132 -2.12132 
C -2.683901 -1.55874 -3 -0.795609 -3 0 
C -3 0.795609 -2.683901 1.55874 -2.12132 2.12132 
C -1.55874 2.683901 -0.795609 3 0 3 
z
" style="stroke: #000000"/>
    </defs>
    <g clip-path="url(#p5ac8983017)">
     <use xlink:href="#m20d5b8e856" x="183.026333" y="148.505054" style="stroke: #000000"/>
     <use xlink:href="#m20d5b8e856" x="183.026333" y="47.437124" style="stroke: #000000"/>
    </g>
   </g>
   <g id="legend_1">
    <g id="line2d_4">
     <path d="M 321.979687 24.820312 
L 331.979687 24.820312 
L 341.979687 24.820312 
" style="fill: none; stroke: #c0392b; stroke-width: 2; stroke-linecap: square"/>
    </g>
    <g id="text_4">
     <!-- 刚性供给 (S) -->
     <g transform="translate(349.979687 28.320312) scale(0.1 -0.1)">
      <defs>
       <path id="ArialUnicodeMS-521a" d="M 5588 97 
Q 5588 -22 5456 -194 
Q 5325 -366 5131 -366 
L 4481 -366 
Q 4438 -206 4319 122 
Q 4913 81 5013 81 
Q 5100 81 5100 391 
L 5100 5313 
L 5588 5313 
L 5588 97 
z
M 3775 422 
Q 3775 88 3711 -45 
Q 3647 -178 3528 -239 
Q 3409 -300 2791 -300 
L 2619 172 
Q 3141 134 3213 134 
Q 3247 134 3269 173 
Q 3291 213 3291 219 
L 3291 4603 
L 1063 4603 
L 1063 1269 
Q 1553 1747 2009 2463 
Q 1775 2972 1119 3866 
L 1516 4134 
Q 1913 3644 2272 2994 
Q 2566 3466 2847 4263 
L 3231 4019 
Q 3119 3781 2912 3264 
Q 2706 2747 2553 2503 
Q 3013 1769 3244 1119 
L 2809 838 
Q 2722 1156 2272 2034 
Q 1775 1263 1253 738 
L 1063 934 
L 1063 -384 
L 575 -384 
L 575 5044 
L 3775 5044 
L 3775 422 
z
M 4709 1094 
L 4225 1094 
L 4225 4206 
L 4709 4206 
L 4709 1094 
z
" transform="scale(0.015625)"/>
       <path id="ArialUnicodeMS-6027" d="M 6088 6 
L 2322 6 
L 2322 475 
L 3928 475 
L 3928 1778 
L 2669 1778 
L 2669 2247 
L 3928 2247 
L 3928 3463 
L 3169 3463 
Q 2978 2881 2606 2375 
L 2113 2597 
Q 2363 2838 2438 3003 
L 2203 2900 
Q 2078 3494 1766 3866 
L 1766 -434 
L 1281 -434 
L 1281 5281 
L 1766 5281 
L 1766 3928 
L 2138 4128 
Q 2413 3813 2597 3347 
Q 2844 3763 2894 4775 
L 3378 4647 
Q 3363 4338 3291 3928 
L 3928 3928 
L 3928 5294 
L 4416 5294 
L 4416 3928 
L 5759 3928 
L 5759 3463 
L 4416 3463 
L 4416 2247 
L 5569 2247 
L 5569 1778 
L 4416 1778 
L 4416 475 
L 6088 475 
L 6088 6 
z
M 1241 3897 
Q 1175 2956 763 2344 
L 347 2528 
Q 819 3406 819 4025 
L 1241 3897 
z
" transform="scale(0.015625)"/>
       <path id="ArialUnicodeMS-4f9b" d="M 2303 5191 
Q 2191 4828 1931 4253 
L 1672 3688 
L 1672 -441 
L 1178 -441 
L 1178 2894 
Q 1028 2644 659 2247 
L 244 2541 
Q 1284 3622 1850 5403 
L 2303 5191 
z
M 5984 1722 
L 1991 1722 
L 1991 2188 
L 2894 2188 
L 2894 3591 
L 2175 3591 
L 2175 4078 
L 2894 4078 
L 2894 5325 
L 3378 5325 
L 3378 4078 
L 4563 4078 
L 4563 5325 
L 5069 5325 
L 5069 4078 
L 5806 4078 
L 5806 3591 
L 5069 3591 
L 5069 2188 
L 5984 2188 
L 5984 1722 
z
M 4563 2188 
L 4563 3591 
L 3378 3591 
L 3378 2188 
L 4563 2188 
z
M 3700 1216 
Q 3172 241 2272 -447 
L 1900 -91 
Q 2688 497 3284 1484 
L 3700 1216 
z
M 6075 -141 
L 5672 -428 
Q 5175 459 4191 1153 
L 4603 1441 
Q 5581 722 6075 -141 
z
" transform="scale(0.015625)"/>
       <path id="ArialUnicodeMS-7ed9" d="M 6075 3144 
L 5759 2731 
Q 4681 3272 4013 4550 
Q 3372 3294 2472 2713 
L 2119 3072 
Q 3375 3884 3872 5453 
L 4306 5222 
L 4238 5063 
Q 4919 3691 6075 3144 
z
M 2516 1791 
Q 1472 1538 622 1275 
L 391 1703 
Q 1038 2350 1306 2766 
Q 934 2675 609 2572 
L 366 3009 
Q 847 3788 1441 5300 
L 1875 5094 
Q 1316 3816 947 3150 
L 1619 3291 
Q 1819 3588 2047 4056 
L 2503 3853 
Q 1716 2366 1153 1900 
L 1166 1888 
L 2516 2228 
L 2516 1791 
z
M 5100 2584 
L 3003 2584 
L 3003 3053 
L 5100 3053 
L 5100 2584 
z
M 5356 -428 
L 4872 -428 
L 4872 72 
L 3278 72 
L 3278 -428 
L 2791 -428 
L 2791 2106 
L 5356 2106 
L 5356 -428 
z
M 4872 538 
L 4872 1638 
L 3278 1638 
L 3278 538 
L 4872 538 
z
M 2584 763 
L 647 72 
L 409 513 
L 2584 1234 
L 2584 763 
z
" transform="scale(0.015625)"/>
       <path id="ArialUnicodeMS-53" d="M 3213 3238 
Q 3175 3675 2897 3895 
Q 2619 4116 2100 4116 
Q 1631 4116 1337 3941 
Q 1044 3766 1044 3431 
Q 1044 3134 1270 2989 
Q 1497 2844 2138 2700 
Q 2706 2575 3065 2444 
Q 3425 2313 3681 2036 
Q 3938 1759 3938 1294 
Q 3938 703 3467 312 
Q 2997 -78 2241 -78 
Q 1275 -78 795 353 
Q 316 784 288 1472 
L 863 1522 
Q 903 972 1287 720 
Q 1672 469 2216 469 
Q 2725 469 3039 678 
Q 3353 888 3353 1247 
Q 3353 1622 3025 1794 
Q 2697 1966 1923 2133 
Q 1150 2300 809 2603 
Q 469 2906 469 3391 
Q 469 3941 900 4300 
Q 1331 4659 2075 4659 
Q 2838 4659 3302 4301 
Q 3766 3944 3794 3284 
L 3213 3238 
z
" transform="scale(0.015625)"/>
      </defs>
      <use xlink:href="#ArialUnicodeMS-521a"/>
      <use xlink:href="#ArialUnicodeMS-6027" x="100"/>
      <use xlink:href="#ArialUnicodeMS-4f9b" x="200"/>
      <use xlink:href="#ArialUnicodeMS-7ed9" x="300"/>
      <use xlink:href="#ArialUnicodeMS-20" x="400"/>
      <use xlink:href="#ArialUnicodeMS-28" x="427.783203"/>
      <use xlink:href="#ArialUnicodeMS-53" x="461.083984"/>
      <use xlink:href="#ArialUnicodeMS-29" x="527.783203"/>
     </g>
    </g>
    <g id="line2d_5">
     <path d="M 321.979687 40.270312 
L 331.979687 40.270312 
L 341.979687 40.270312 
" style="fill: none; stroke-dasharray: 5.55,2.4; stroke-dashoffset: 0; stroke: #7f8c8d; stroke-width: 1.5"/>
    </g>
    <g id="text_5">
     <!-- 初始需求 (D1) -->
     <g transform="translate(349.979687 43.770312) scale(0.1 -0.1)">
      <defs>
       <path id="ArialUnicodeMS-521d" d="M 3084 2803 
Q 2794 2372 2497 2125 
Q 2678 2009 2994 1672 
L 2688 1275 
Q 2309 1703 1813 1966 
L 1813 -469 
L 1325 -469 
L 1325 2009 
Q 1272 1969 1011 1748 
Q 750 1528 531 1394 
L 206 1838 
Q 797 2153 1342 2670 
Q 1888 3188 2075 3647 
L 422 3647 
L 422 4116 
L 1344 4116 
L 1344 5259 
L 1831 5259 
L 1831 4116 
L 2619 4116 
L 2619 3700 
Q 2422 3122 1850 2484 
L 2113 2356 
Q 2388 2591 2663 3091 
L 3084 2803 
z
M 5753 4844 
L 5759 2381 
Q 5759 1803 5667 923 
Q 5575 44 5400 -122 
Q 5225 -288 4863 -288 
Q 4578 -288 4050 -172 
L 3928 378 
Q 4728 197 4825 197 
Q 4975 197 5048 305 
Q 5122 413 5190 1295 
Q 5259 2178 5259 2619 
L 5259 4353 
L 4206 4353 
Q 4206 2600 4090 1853 
Q 3975 1106 3633 612 
Q 3291 119 2572 -306 
L 2203 91 
Q 2825 431 3137 842 
Q 3450 1253 3551 1717 
Q 3653 2181 3669 2881 
L 3700 4353 
L 2847 4353 
L 2847 4844 
L 5753 4844 
z
" transform="scale(0.015625)"/>
       <path id="ArialUnicodeMS-59cb" d="M 6047 2656 
L 5575 2456 
Q 5481 2788 5388 2975 
L 2719 2713 
L 2619 2981 
Q 2503 2059 2216 1331 
Q 2497 1147 2963 709 
L 2650 288 
Q 2131 825 1984 872 
Q 1525 13 709 -475 
L 347 -134 
Q 1250 472 1581 1106 
Q 1181 1356 588 1528 
Q 891 2266 1172 3591 
L 469 3591 
L 469 4056 
L 1253 4056 
Q 1381 4750 1409 5306 
L 1894 5147 
Q 1825 4497 1741 4056 
L 2731 4056 
L 2663 3244 
Q 2938 3244 3041 3272 
Q 3609 4163 4025 5344 
L 4525 5125 
Q 3866 3672 3566 3272 
L 5191 3391 
Q 4928 3825 4603 4116 
L 4997 4353 
Q 5722 3688 6047 2656 
z
M 2234 3591 
L 1656 3591 
Q 1444 2541 1172 1819 
Q 1459 1719 1784 1556 
Q 2078 2272 2234 3591 
z
M 5563 -416 
L 5075 -416 
L 5075 109 
L 3500 109 
L 3500 -416 
L 3016 -416 
L 3016 2328 
L 5563 2328 
L 5563 -416 
z
M 5075 575 
L 5075 1863 
L 3500 1863 
L 3500 575 
L 5075 575 
z
" transform="scale(0.015625)"/>
       <path id="ArialUnicodeMS-9700" d="M 5819 3347 
L 5350 3347 
L 5350 3853 
L 3469 3853 
L 3469 2400 
L 2981 2400 
L 2981 3853 
L 1106 3853 
L 1106 3309 
L 653 3309 
L 653 4288 
L 2981 4288 
L 2981 4569 
L 966 4569 
L 966 5038 
L 5459 5038 
L 5459 4569 
L 3469 4569 
L 3469 4288 
L 5819 4288 
L 5819 3347 
z
M 5159 3256 
L 3738 3256 
L 3738 3653 
L 5159 3653 
L 5159 3256 
z
M 2694 3231 
L 1269 3231 
L 1269 3622 
L 2694 3622 
L 2694 3231 
z
M 5159 2572 
L 3738 2572 
L 3738 2963 
L 5159 2963 
L 5159 2572 
z
M 2694 2572 
L 1269 2572 
L 1269 2963 
L 2694 2963 
L 2694 2572 
z
M 5953 1888 
L 3438 1888 
Q 3353 1609 3284 1459 
L 5478 1459 
L 5478 109 
Q 5478 -316 4903 -325 
L 4513 -331 
L 4353 134 
L 4763 116 
Q 4991 106 4991 269 
L 4991 1006 
L 4122 1006 
L 4122 -103 
L 3634 -103 
L 3634 1006 
L 2803 1006 
L 2803 -103 
L 2350 -103 
L 2350 1006 
L 1422 1006 
L 1422 -447 
L 966 -447 
L 966 1459 
L 2766 1459 
Q 2847 1575 2963 1888 
L 506 1888 
L 506 2322 
L 5953 2322 
L 5953 1888 
z
" transform="scale(0.015625)"/>
       <path id="ArialUnicodeMS-6c42" d="M 6003 684 
L 5678 319 
Q 4184 966 3463 2100 
L 3463 122 
Q 3431 -88 3350 -213 
Q 3269 -338 3133 -377 
Q 2997 -416 2150 -416 
L 1978 103 
Q 2500 84 2731 126 
Q 2963 169 2963 409 
L 2963 3725 
L 634 3725 
L 634 4206 
L 2963 4206 
L 2963 5344 
L 3469 5344 
L 3469 4206 
L 5722 4206 
L 5722 3725 
L 3469 3725 
L 3469 2925 
Q 4247 1403 6003 684 
z
M 5375 4575 
L 5056 4231 
Q 4481 4719 3756 4884 
L 4103 5241 
Q 4678 5138 5375 4575 
z
M 5606 3244 
Q 5147 2625 4191 2131 
L 3884 2528 
Q 4822 2969 5269 3559 
L 5606 3244 
z
M 2613 2547 
L 2303 2209 
Q 1516 2941 800 3138 
L 1153 3500 
Q 1997 3203 2613 2547 
z
M 2625 1556 
L 806 525 
L 391 872 
Q 1409 1403 2625 2088 
L 2625 1556 
z
" transform="scale(0.015625)"/>
       <path id="ArialUnicodeMS-44" d="M 513 4581 
L 2094 4581 
Q 2509 4581 2809 4539 
Q 3109 4497 3382 4333 
Q 3656 4169 3861 3881 
Q 4066 3594 4183 3220 
Q 4300 2847 4300 2316 
Q 4300 1303 3819 651 
Q 3338 0 2163 0 
L 513 0 
L 513 4581 
z
M 1119 544 
L 2100 544 
Q 2400 544 2636 581 
Q 2872 619 3114 784 
Q 3356 950 3515 1328 
Q 3675 1706 3675 2328 
Q 3675 2672 3614 2970 
Q 3553 3269 3389 3514 
Q 3225 3759 3012 3873 
Q 2800 3988 2598 4013 
Q 2397 4038 2081 4038 
L 1119 4038 
L 1119 544 
z
" transform="scale(0.015625)"/>
       <path id="ArialUnicodeMS-31" d="M 2400 0 
L 1838 0 
L 1838 3584 
Q 1416 3184 709 2906 
L 709 3450 
Q 1681 3916 2034 4603 
L 2400 4603 
L 2400 0 
z
" transform="scale(0.015625)"/>
      </defs>
      <use xlink:href="#ArialUnicodeMS-521d"/>
      <use xlink:href="#ArialUnicodeMS-59cb" x="100"/>
      <use xlink:href="#ArialUnicodeMS-9700" x="200"/>
      <use xlink:href="#ArialUnicodeMS-6c42" x="300"/>
      <use xlink:href="#ArialUnicodeMS-20" x="400"/>
      <use xlink:href="#ArialUnicodeMS-28" x="427.783203"/>
      <use xlink:href="#ArialUnicodeMS-44" x="461.083984"/>
      <use xlink:href="#ArialUnicodeMS-31" x="533.300781"/>
      <use xlink:href="#ArialUnicodeMS-29" x="588.916016"/>
     </g>
    </g>
    <g id="line2d_6">
     <path d="M 321.979687 55.720313 
L 331.979687 55.720313 
L 341.979687 55.720313 
" style="fill: none; stroke: #2980b9; stroke-width: 2; stroke-linecap: square"/>
    </g>
    <g id="text_6">
     <!-- 新增需求 (D2) -->
     <g transform="translate(349.979687 59.220313) scale(0.1 -0.1)">
      <defs>
       <path id="ArialUnicodeMS-65b0" d="M 6041 2938 
L 5300 2938 
L 5300 -397 
L 4813 -397 
L 4813 2938 
L 4109 2938 
L 4109 2216 
Q 4109 700 3334 -359 
L 2906 -72 
Q 3622 853 3622 2456 
L 3622 4709 
Q 4644 4825 5544 5313 
L 5850 4916 
Q 5141 4503 4109 4319 
L 4109 3406 
L 6041 3406 
L 6041 2938 
z
M 3353 4184 
L 525 4184 
L 525 4653 
L 1716 4653 
L 1716 5281 
L 2222 5281 
L 2222 4653 
L 3353 4653 
L 3353 4184 
z
M 3406 2719 
L 2203 2719 
L 2203 2144 
L 3250 2144 
L 3250 1678 
L 2203 1678 
L 2203 1428 
L 2456 1619 
Q 2981 1281 3309 744 
L 2950 416 
Q 2672 931 2203 1281 
L 2203 -397 
L 1716 -397 
L 1716 1253 
Q 1316 625 703 178 
L 347 550 
Q 1003 959 1409 1678 
L 628 1678 
L 628 2144 
L 1716 2144 
L 1716 2719 
L 453 2719 
L 453 3188 
L 1325 3188 
Q 1147 3659 884 3975 
L 1306 4147 
Q 1631 3813 1806 3188 
L 2228 3188 
Q 2422 3559 2584 4147 
L 3047 3969 
Q 2906 3544 2719 3188 
L 3406 3188 
L 3406 2719 
z
" transform="scale(0.015625)"/>
       <path id="ArialUnicodeMS-589e" d="M 6150 4122 
L 5806 3738 
L 5538 3916 
L 5538 2328 
L 2613 2328 
L 2613 4006 
Q 2384 3853 2234 3763 
L 1875 4141 
Q 2216 4300 2650 4664 
Q 3084 5028 3250 5313 
L 3653 5019 
Q 3500 4719 2994 4294 
L 5063 4294 
Q 4538 4741 4347 5013 
L 4756 5313 
Q 5306 4622 6150 4122 
z
M 5050 2797 
L 5050 3828 
L 4294 3828 
L 4294 2797 
L 5050 2797 
z
M 5044 3494 
Q 4969 3178 4684 2828 
L 4325 3091 
Q 4597 3397 4653 3675 
L 5044 3494 
z
M 3841 2797 
L 3841 3828 
L 3097 3828 
L 3097 2797 
L 3841 2797 
z
M 3816 3053 
L 3431 2869 
Q 3338 3281 3122 3541 
L 3519 3731 
Q 3731 3534 3816 3053 
z
M 2503 1319 
L 672 647 
L 331 1081 
Q 822 1194 1259 1350 
L 1259 3103 
L 544 3103 
L 544 3572 
L 1259 3572 
L 1259 5141 
L 1747 5141 
L 1747 3572 
L 2456 3572 
L 2456 3103 
L 1747 3103 
L 1747 1538 
L 2503 1806 
L 2503 1319 
z
M 5344 -397 
L 4856 -397 
L 4856 -31 
L 3334 -31 
L 3334 -397 
L 2847 -397 
L 2847 2169 
L 5344 2169 
L 5344 -397 
z
M 4856 1325 
L 4856 1703 
L 3334 1703 
L 3334 1325 
L 4856 1325 
z
M 4856 434 
L 4856 856 
L 3334 856 
L 3334 434 
L 4856 434 
z
" transform="scale(0.015625)"/>
       <path id="ArialUnicodeMS-32" d="M 3231 0 
L 197 0 
Q 197 388 467 784 
Q 738 1181 1478 1778 
Q 1931 2141 2287 2539 
Q 2644 2938 2644 3341 
Q 2644 3688 2398 3914 
Q 2153 4141 1778 4141 
Q 1400 4141 1144 3908 
Q 888 3675 884 3213 
L 306 3278 
Q 359 3922 764 4262 
Q 1169 4603 1791 4603 
Q 2466 4603 2842 4229 
Q 3219 3856 3219 3328 
Q 3219 2888 2901 2436 
Q 2584 1984 1638 1228 
Q 1141 831 978 544 
L 3231 544 
L 3231 0 
z
" transform="scale(0.015625)"/>
      </defs>
      <use xlink:href="#ArialUnicodeMS-65b0"/>
      <use xlink:href="#ArialUnicodeMS-589e" x="100"/>
      <use xlink:href="#ArialUnicodeMS-9700" x="200"/>
      <use xlink:href="#ArialUnicodeMS-6c42" x="300"/>
      <use xlink:href="#ArialUnicodeMS-20" x="400"/>
      <use xlink:href="#ArialUnicodeMS-28" x="427.783203"/>
      <use xlink:href="#ArialUnicodeMS-44" x="461.083984"/>
      <use xlink:href="#ArialUnicodeMS-32" x="533.300781"/>
      <use xlink:href="#ArialUnicodeMS-29" x="588.916016"/>
     </g>
    </g>
   </g>
  </g>
 </g>
 <defs>
  <clipPath id="p5ac8983017">
   <rect x="27.45625" y="10.8" width="393.74375" height="250.143125"/>
  </clipPath>
 </defs>
</svg>
