<?xml version="1.0" encoding="utf-8" standalone="no"?>
<!DOCTYPE svg PUBLIC "-//W3C//DTD SVG 1.1//EN"
  "http://www.w3.org/Graphics/SVG/1.1/DTD/svg11.dtd">
<svg xmlns:xlink="http://www.w3.org/1999/xlink" width="432pt" height="288pt" viewBox="0 0 432 288" xmlns="http://www.w3.org/2000/svg" version="1.1">
 <metadata>
  <rdf:RDF xmlns:dc="http://purl.org/dc/elements/1.1/" xmlns:cc="http://creativecommons.org/ns#" xmlns:rdf="http://www.w3.org/1999/02/22-rdf-syntax-ns#">
   <cc:Work>
    <dc:type rdf:resource="http://purl.org/dc/dcmitype/StillImage"/>
    <dc:date>2026-05-11T09:52:22.229955</dc:date>
    <dc:format>image/svg+xml</dc:format>
    <dc:creator>
     <cc:Agent>
      <dc:title>Matplotlib v3.9.4, https://matplotlib.org/</dc:title>
     </cc:Agent>
    </dc:creator>
   </cc:Work>
  </rdf:RDF>
 </metadata>
 <defs>
  <style type="text/css">*{stroke-linejoin: round; stroke-linecap: butt}</style>
 </defs>
 <g id="figure_1">
  <g id="patch_1">
   <path d="M 0 288 
L 432 288 
L 432 0 
L 0 0 
z
" style="fill: #ffffff"/>
  </g>
  <g id="axes_1">
   <g id="patch_2">
    <path d="M 52.5575 243.88 
L 421.2 243.88 
L 421.2 10.8 
L 52.5575 10.8 
z
" style="fill: #ffffff"/>
   </g>
   <g id="matplotlib.axis_1">
    <g id="xtick_1">
     <g id="line2d_1">
      <path d="M 69.313977 243.88 
L 69.313977 10.8 
" clip-path="url(#pdf6f29ad67)" style="fill: none; stroke-dasharray: 2.96,1.28; stroke-dashoffset: 0; stroke: #b0b0b0; stroke-opacity: 0.3; stroke-width: 0.8"/>
     </g>
     <g id="line2d_2">
      <defs>
       <path id="me2855614bd" d="M 0 0 
L 0 3.5 
" style="stroke: #000000; stroke-width: 0.8"/>
      </defs>
      <g>
       <use xlink:href="#me2855614bd" x="69.313977" y="243.88" style="stroke: #000000; stroke-width: 0.8"/>
      </g>
     </g>
     <g id="text_1">
      <!-- 0 -->
      <g transform="translate(66.533509 258.037812) scale(0.1 -0.1)">
       <defs>
        <path id="ArialUnicodeMS-30" d="M 1778 4603 
Q 3272 4603 3272 2259 
Q 3272 1075 2886 498 
Q 2500 -78 1778 -78 
Q 288 -78 288 2259 
Q 288 3444 673 4023 
Q 1059 4603 1778 4603 
z
M 1778 384 
Q 2231 384 2462 823 
Q 2694 1263 2694 2259 
Q 2694 2953 2592 3351 
Q 2491 3750 2286 3945 
Q 2081 4141 1772 4141 
Q 1319 4141 1091 3694 
Q 863 3247 863 2259 
Q 863 1575 966 1175 
Q 1069 775 1272 579 
Q 1475 384 1778 384 
z
" transform="scale(0.015625)"/>
       </defs>
       <use xlink:href="#ArialUnicodeMS-30"/>
      </g>
     </g>
    </g>
    <g id="xtick_2">
     <g id="line2d_3">
      <path d="M 136.339886 243.88 
L 136.339886 10.8 
" clip-path="url(#pdf6f29ad67)" style="fill: none; stroke-dasharray: 2.96,1.28; stroke-dashoffset: 0; stroke: #b0b0b0; stroke-opacity: 0.3; stroke-width: 0.8"/>
     </g>
     <g id="line2d_4">
      <g>
       <use xlink:href="#me2855614bd" x="136.339886" y="243.88" style="stroke: #000000; stroke-width: 0.8"/>
      </g>
     </g>
     <g id="text_2">
      <!-- 2 -->
      <g transform="translate(133.559418 258.037812) scale(0.1 -0.1)">
       <defs>
        <path id="ArialUnicodeMS-32" d="M 3231 0 
L 197 0 
Q 197 388 467 784 
Q 738 1181 1478 1778 
Q 1931 2141 2287 2539 
Q 2644 2938 2644 3341 
Q 2644 3688 2398 3914 
Q 2153 4141 1778 4141 
Q 1400 4141 1144 3908 
Q 888 3675 884 3213 
L 306 3278 
Q 359 3922 764 4262 
Q 1169 4603 1791 4603 
Q 2466 4603 2842 4229 
Q 3219 3856 3219 3328 
Q 3219 2888 2901 2436 
Q 2584 1984 1638 1228 
Q 1141 831 978 544 
L 3231 544 
L 3231 0 
z
" transform="scale(0.015625)"/>
       </defs>
       <use xlink:href="#ArialUnicodeMS-32"/>
      </g>
     </g>
    </g>
    <g id="xtick_3">
     <g id="line2d_5">
      <path d="M 203.365795 243.88 
L 203.365795 10.8 
" clip-path="url(#pdf6f29ad67)" style="fill: none; stroke-dasharray: 2.96,1.28; stroke-dashoffset: 0; stroke: #b0b0b0; stroke-opacity: 0.3; stroke-width: 0.8"/>
     </g>
     <g id="line2d_6">
      <g>
       <use xlink:href="#me2855614bd" x="203.365795" y="243.88" style="stroke: #000000; stroke-width: 0.8"/>
      </g>
     </g>
     <g id="text_3">
      <!-- 4 -->
      <g transform="translate(200.585327 258.037812) scale(0.1 -0.1)">
       <defs>
        <path id="ArialUnicodeMS-34" d="M 3263 1094 
L 2644 1094 
L 2644 0 
L 2081 0 
L 2081 1094 
L 97 1094 
L 97 1613 
L 2181 4581 
L 2644 4581 
L 2644 1613 
L 3263 1613 
L 3263 1094 
z
M 2081 1613 
L 2081 3681 
L 2069 3681 
L 647 1613 
L 2081 1613 
z
" transform="scale(0.015625)"/>
       </defs>
       <use xlink:href="#ArialUnicodeMS-34"/>
      </g>
     </g>
    </g>
    <g id="xtick_4">
     <g id="line2d_7">
      <path d="M 270.391705 243.88 
L 270.391705 10.8 
" clip-path="url(#pdf6f29ad67)" style="fill: none; stroke-dasharray: 2.96,1.28; stroke-dashoffset: 0; stroke: #b0b0b0; stroke-opacity: 0.3; stroke-width: 0.8"/>
     </g>
     <g id="line2d_8">
      <g>
       <use xlink:href="#me2855614bd" x="270.391705" y="243.88" style="stroke: #000000; stroke-width: 0.8"/>
      </g>
     </g>
     <g id="text_4">
      <!-- 6 -->
      <g transform="translate(267.611236 258.037812) scale(0.1 -0.1)">
       <defs>
        <path id="ArialUnicodeMS-36" d="M 838 2363 
Q 1225 2969 1941 2969 
Q 2503 2969 2897 2553 
Q 3291 2138 3291 1491 
Q 3291 838 2898 380 
Q 2506 -78 1856 -78 
Q 1197 -78 733 409 
Q 269 897 269 2144 
Q 269 3369 689 3986 
Q 1109 4603 1906 4603 
Q 2422 4603 2778 4315 
Q 3134 4028 3213 3463 
L 2650 3413 
Q 2497 4141 1875 4141 
Q 1444 4141 1134 3712 
Q 825 3284 825 2363 
L 838 2363 
z
M 1844 384 
Q 2231 384 2472 696 
Q 2713 1009 2713 1453 
Q 2713 1897 2472 2187 
Q 2231 2478 1825 2478 
Q 1453 2478 1184 2204 
Q 916 1931 916 1484 
Q 916 1028 1180 706 
Q 1444 384 1844 384 
z
" transform="scale(0.015625)"/>
       </defs>
       <use xlink:href="#ArialUnicodeMS-36"/>
      </g>
     </g>
    </g>
    <g id="xtick_5">
     <g id="line2d_9">
      <path d="M 337.417614 243.88 
L 337.417614 10.8 
" clip-path="url(#pdf6f29ad67)" style="fill: none; stroke-dasharray: 2.96,1.28; stroke-dashoffset: 0; stroke: #b0b0b0; stroke-opacity: 0.3; stroke-width: 0.8"/>
     </g>
     <g id="line2d_10">
      <g>
       <use xlink:href="#me2855614bd" x="337.417614" y="243.88" style="stroke: #000000; stroke-width: 0.8"/>
      </g>
     </g>
     <g id="text_5">
      <!-- 8 -->
      <g transform="translate(334.637145 258.037812) scale(0.1 -0.1)">
       <defs>
        <path id="ArialUnicodeMS-38" d="M 2425 2478 
Q 3284 2203 3284 1306 
Q 3284 716 2862 319 
Q 2441 -78 1778 -78 
Q 1109 -78 689 322 
Q 269 722 269 1325 
Q 269 1759 505 2084 
Q 741 2409 1141 2478 
L 1141 2491 
Q 453 2703 453 3419 
Q 453 3925 815 4264 
Q 1178 4603 1766 4603 
Q 2363 4603 2730 4253 
Q 3097 3903 3097 3406 
Q 3097 2731 2425 2491 
L 2425 2478 
z
M 1778 2700 
Q 2094 2700 2308 2901 
Q 2522 3103 2522 3406 
Q 2522 3716 2305 3928 
Q 2088 4141 1772 4141 
Q 1450 4141 1240 3931 
Q 1031 3722 1031 3438 
Q 1031 3097 1247 2898 
Q 1463 2700 1778 2700 
z
M 1778 384 
Q 2175 384 2440 640 
Q 2706 897 2706 1306 
Q 2706 1716 2432 1978 
Q 2159 2241 1766 2241 
Q 1356 2241 1100 1970 
Q 844 1700 844 1319 
Q 844 922 1108 653 
Q 1372 384 1778 384 
z
" transform="scale(0.015625)"/>
       </defs>
       <use xlink:href="#ArialUnicodeMS-38"/>
      </g>
     </g>
    </g>
    <g id="xtick_6">
     <g id="line2d_11">
      <path d="M 404.443523 243.88 
L 404.443523 10.8 
" clip-path="url(#pdf6f29ad67)" style="fill: none; stroke-dasharray: 2.96,1.28; stroke-dashoffset: 0; stroke: #b0b0b0; stroke-opacity: 0.3; stroke-width: 0.8"/>
     </g>
     <g id="line2d_12">
      <g>
       <use xlink:href="#me2855614bd" x="404.443523" y="243.88" style="stroke: #000000; stroke-width: 0.8"/>
      </g>
     </g>
     <g id="text_6">
      <!-- 10 -->
      <g transform="translate(398.882585 258.037812) scale(0.1 -0.1)">
       <defs>
        <path id="ArialUnicodeMS-31" d="M 2400 0 
L 1838 0 
L 1838 3584 
Q 1416 3184 709 2906 
L 709 3450 
Q 1681 3916 2034 4603 
L 2400 4603 
L 2400 0 
z
" transform="scale(0.015625)"/>
       </defs>
       <use xlink:href="#ArialUnicodeMS-31"/>
       <use xlink:href="#ArialUnicodeMS-30" x="55.615234"/>
      </g>
     </g>
    </g>
    <g id="text_7">
     <!-- Inflation Rate $\pi$ (%) -->
     <g transform="translate(185.21875 272.79) scale(0.12 -0.12)">
      <defs>
       <path id="ArialUnicodeMS-49" d="M 1197 0 
L 588 0 
L 588 4581 
L 1197 4581 
L 1197 0 
z
" transform="scale(0.015625)"/>
       <path id="ArialUnicodeMS-6e" d="M 3138 0 
L 2572 0 
L 2572 2016 
Q 2572 2525 2389 2715 
Q 2206 2906 1881 2906 
Q 1631 2906 1407 2784 
Q 1184 2663 1090 2441 
Q 997 2219 997 1813 
L 997 0 
L 434 0 
L 434 3316 
L 941 3316 
L 941 2847 
L 953 2847 
Q 1131 3119 1392 3255 
Q 1653 3391 1997 3391 
Q 2259 3391 2515 3297 
Q 2772 3203 2917 3015 
Q 3063 2828 3100 2615 
Q 3138 2403 3138 2041 
L 3138 0 
z
" transform="scale(0.015625)"/>
       <path id="ArialUnicodeMS-66" d="M 1991 4603 
L 1906 4109 
Q 1738 4141 1575 4141 
Q 1372 4141 1242 4055 
Q 1113 3969 1113 3628 
L 1113 3316 
L 1753 3316 
L 1753 2881 
L 1113 2881 
L 1113 0 
L 550 0 
L 550 2881 
L 50 2881 
L 50 3316 
L 550 3316 
L 550 3675 
Q 550 3925 597 4128 
Q 644 4331 845 4495 
Q 1047 4659 1466 4659 
Q 1716 4659 1991 4603 
z
" transform="scale(0.015625)"/>
       <path id="ArialUnicodeMS-6c" d="M 991 0 
L 428 0 
L 428 4581 
L 991 4581 
L 991 0 
z
" transform="scale(0.015625)"/>
       <path id="ArialUnicodeMS-61" d="M 3303 0 
L 2713 0 
Q 2631 156 2597 409 
Q 2031 -78 1375 -78 
Q 850 -78 547 184 
Q 244 447 244 878 
Q 244 1291 536 1558 
Q 828 1825 1550 1913 
L 2075 1991 
Q 2369 2038 2559 2106 
Q 2559 2359 2543 2464 
Q 2528 2569 2451 2681 
Q 2375 2794 2206 2862 
Q 2038 2931 1753 2931 
Q 1391 2931 1180 2797 
Q 969 2663 891 2297 
L 341 2369 
Q 431 2878 806 3134 
Q 1181 3391 1838 3391 
Q 2434 3391 2714 3214 
Q 2994 3038 3058 2788 
Q 3122 2538 3122 2144 
L 3122 1388 
Q 3122 697 3148 461 
Q 3175 225 3303 0 
z
M 2559 1459 
L 2559 1663 
Q 2119 1516 1481 1430 
Q 844 1344 844 891 
Q 844 663 1016 514 
Q 1188 366 1509 366 
Q 1925 366 2242 614 
Q 2559 863 2559 1459 
z
" transform="scale(0.015625)"/>
       <path id="ArialUnicodeMS-74" d="M 1722 6 
Q 1472 -44 1300 -44 
Q 931 -44 762 86 
Q 594 216 556 416 
Q 519 616 519 972 
L 519 2881 
L 109 2881 
L 109 3316 
L 519 3316 
L 519 4141 
L 1081 4481 
L 1081 3316 
L 1644 3316 
L 1644 2881 
L 1081 2881 
L 1081 941 
Q 1081 691 1132 586 
Q 1184 481 1394 481 
Q 1516 481 1644 506 
L 1722 6 
z
" transform="scale(0.015625)"/>
       <path id="ArialUnicodeMS-69" d="M 991 0 
L 428 0 
L 428 3316 
L 991 3316 
L 991 0 
z
M 991 3944 
L 428 3944 
L 428 4581 
L 991 4581 
L 991 3944 
z
" transform="scale(0.015625)"/>
       <path id="ArialUnicodeMS-6f" d="M 1778 3391 
Q 2450 3391 2892 2953 
Q 3334 2516 3334 1709 
Q 3334 731 2856 326 
Q 2378 -78 1778 -78 
Q 1150 -78 687 337 
Q 225 753 225 1656 
Q 225 2531 672 2961 
Q 1119 3391 1778 3391 
z
M 1778 384 
Q 2259 384 2509 740 
Q 2759 1097 2759 1678 
Q 2759 2300 2476 2615 
Q 2194 2931 1778 2931 
Q 1350 2931 1075 2611 
Q 800 2291 800 1656 
Q 800 1025 1079 704 
Q 1359 384 1778 384 
z
" transform="scale(0.015625)"/>
       <path id="ArialUnicodeMS-20" transform="scale(0.015625)"/>
       <path id="ArialUnicodeMS-52" d="M 4550 0 
L 3788 0 
Q 3103 1081 2937 1328 
Q 2772 1575 2589 1751 
Q 2406 1928 2245 1975 
Q 2084 2022 1819 2022 
L 1119 2022 
L 1119 0 
L 513 0 
L 513 4581 
L 2541 4581 
Q 2956 4581 3237 4528 
Q 3519 4475 3731 4304 
Q 3944 4134 4058 3875 
Q 4172 3616 4172 3328 
Q 4172 2809 3844 2493 
Q 3516 2178 2888 2094 
L 2888 2081 
Q 3347 1878 3750 1247 
L 4550 0 
z
M 1119 2566 
L 2419 2566 
Q 2813 2566 3042 2633 
Q 3272 2700 3409 2894 
Q 3547 3088 3547 3328 
Q 3547 3641 3319 3859 
Q 3091 4078 2566 4078 
L 1119 4078 
L 1119 2566 
z
" transform="scale(0.015625)"/>
       <path id="ArialUnicodeMS-65" d="M 3309 1516 
L 825 1516 
Q 859 966 1139 675 
Q 1419 384 1838 384 
Q 2159 384 2378 554 
Q 2597 725 2713 1069 
L 3291 997 
Q 3150 478 2775 200 
Q 2400 -78 1838 -78 
Q 1091 -78 670 380 
Q 250 838 250 1631 
Q 250 2416 658 2903 
Q 1066 3391 1806 3391 
Q 2169 3391 2505 3231 
Q 2841 3072 3075 2689 
Q 3309 2306 3309 1516 
z
M 2731 1978 
Q 2697 2484 2417 2707 
Q 2138 2931 1806 2931 
Q 1409 2931 1153 2665 
Q 897 2400 856 1978 
L 2731 1978 
z
" transform="scale(0.015625)"/>
       <path id="DejaVuSans-Oblique-3c0" d="M 584 3500 
L 3938 3500 
L 3825 2925 
L 3384 2925 
L 2966 775 
Q 2922 550 2981 450 
Q 3038 353 3209 353 
Q 3256 353 3325 363 
Q 3397 369 3419 372 
L 3338 -44 
Q 3222 -84 3103 -103 
Q 2981 -122 2866 -122 
Q 2491 -122 2388 81 
Q 2284 288 2391 838 
L 2797 2925 
L 1506 2925 
L 938 0 
L 350 0 
L 919 2925 
L 472 2925 
L 584 3500 
z
" transform="scale(0.015625)"/>
       <path id="ArialUnicodeMS-28" d="M 1900 -1344 
L 1497 -1344 
Q 978 -681 681 103 
Q 384 888 384 1656 
Q 384 2528 700 3275 
Q 1016 4022 1497 4659 
L 1900 4659 
Q 1344 3747 1155 3059 
Q 966 2372 966 1663 
Q 966 153 1900 -1344 
z
" transform="scale(0.015625)"/>
       <path id="ArialUnicodeMS-25" d="M 4325 4659 
L 1838 -159 
L 1369 -159 
L 3872 4659 
L 4325 4659 
z
M 1428 4653 
Q 1856 4653 2137 4343 
Q 2419 4034 2419 3438 
Q 2419 2850 2131 2539 
Q 1844 2228 1434 2228 
Q 1009 2228 739 2540 
Q 469 2853 469 3475 
Q 469 3984 722 4318 
Q 975 4653 1428 4653 
z
M 1441 2619 
Q 1931 2619 1931 3463 
Q 1931 4269 1441 4269 
Q 953 4269 953 3419 
Q 953 2619 1441 2619 
z
M 4250 2253 
Q 4681 2253 4961 1943 
Q 5241 1634 5241 1038 
Q 5241 600 5087 328 
Q 4934 56 4709 -58 
Q 4484 -172 4256 -172 
Q 3831 -172 3561 140 
Q 3291 453 3291 1075 
Q 3291 1584 3544 1918 
Q 3797 2253 4250 2253 
z
M 4263 219 
Q 4756 219 4756 1063 
Q 4756 1869 4263 1869 
Q 3775 1869 3775 1019 
Q 3775 219 4263 219 
z
" transform="scale(0.015625)"/>
       <path id="ArialUnicodeMS-29" d="M 634 4659 
Q 1153 3997 1450 3212 
Q 1747 2428 1747 1656 
Q 1747 788 1431 41 
Q 1116 -706 634 -1344 
L 231 -1344 
Q 788 -431 977 255 
Q 1166 941 1166 1650 
Q 1166 3163 231 4659 
L 634 4659 
z
" transform="scale(0.015625)"/>
      </defs>
      <use xlink:href="#ArialUnicodeMS-49" transform="translate(0 0.203125)"/>
      <use xlink:href="#ArialUnicodeMS-6e" transform="translate(27.783203 0.203125)"/>
      <use xlink:href="#ArialUnicodeMS-66" transform="translate(83.398438 0.203125)"/>
      <use xlink:href="#ArialUnicodeMS-6c" transform="translate(111.181641 0.203125)"/>
      <use xlink:href="#ArialUnicodeMS-61" transform="translate(133.398438 0.203125)"/>
      <use xlink:href="#ArialUnicodeMS-74" transform="translate(189.013672 0.203125)"/>
      <use xlink:href="#ArialUnicodeMS-69" transform="translate(216.796875 0.203125)"/>
      <use xlink:href="#ArialUnicodeMS-6f" transform="translate(239.013672 0.203125)"/>
      <use xlink:href="#ArialUnicodeMS-6e" transform="translate(294.628906 0.203125)"/>
      <use xlink:href="#ArialUnicodeMS-20" transform="translate(350.244141 0.203125)"/>
      <use xlink:href="#ArialUnicodeMS-52" transform="translate(378.027344 0.203125)"/>
      <use xlink:href="#ArialUnicodeMS-61" transform="translate(450.244141 0.203125)"/>
      <use xlink:href="#ArialUnicodeMS-74" transform="translate(505.859375 0.203125)"/>
      <use xlink:href="#ArialUnicodeMS-65" transform="translate(533.642578 0.203125)"/>
      <use xlink:href="#ArialUnicodeMS-20" transform="translate(589.257812 0.203125)"/>
      <use xlink:href="#DejaVuSans-Oblique-3c0" transform="translate(617.041016 0.203125)"/>
      <use xlink:href="#ArialUnicodeMS-20" transform="translate(677.246094 0.203125)"/>
      <use xlink:href="#ArialUnicodeMS-28" transform="translate(705.029297 0.203125)"/>
      <use xlink:href="#ArialUnicodeMS-25" transform="translate(738.330078 0.203125)"/>
      <use xlink:href="#ArialUnicodeMS-29" transform="translate(827.246094 0.203125)"/>
     </g>
    </g>
   </g>
   <g id="matplotlib.axis_2">
    <g id="ytick_1">
     <g id="line2d_13">
      <path d="M 52.5575 233.285455 
L 421.2 233.285455 
" clip-path="url(#pdf6f29ad67)" style="fill: none; stroke-dasharray: 2.96,1.28; stroke-dashoffset: 0; stroke: #b0b0b0; stroke-opacity: 0.3; stroke-width: 0.8"/>
     </g>
     <g id="line2d_14">
      <defs>
       <path id="m7eb29ab7cc" d="M 0 0 
L -3.5 0 
" style="stroke: #000000; stroke-width: 0.8"/>
      </defs>
      <g>
       <use xlink:href="#m7eb29ab7cc" x="52.5575" y="233.285455" style="stroke: #000000; stroke-width: 0.8"/>
      </g>
     </g>
     <g id="text_8">
      <!-- 0.0 -->
      <g transform="translate(31.6575 236.864361) scale(0.1 -0.1)">
       <defs>
        <path id="ArialUnicodeMS-2e" d="M 1209 0 
L 569 0 
L 569 641 
L 1209 641 
L 1209 0 
z
" transform="scale(0.015625)"/>
       </defs>
       <use xlink:href="#ArialUnicodeMS-30"/>
       <use xlink:href="#ArialUnicodeMS-2e" x="55.615234"/>
       <use xlink:href="#ArialUnicodeMS-30" x="83.398438"/>
      </g>
     </g>
    </g>
    <g id="ytick_2">
     <g id="line2d_15">
      <path d="M 52.5575 202.125027 
L 421.2 202.125027 
" clip-path="url(#pdf6f29ad67)" style="fill: none; stroke-dasharray: 2.96,1.28; stroke-dashoffset: 0; stroke: #b0b0b0; stroke-opacity: 0.3; stroke-width: 0.8"/>
     </g>
     <g id="line2d_16">
      <g>
       <use xlink:href="#m7eb29ab7cc" x="52.5575" y="202.125027" style="stroke: #000000; stroke-width: 0.8"/>
      </g>
     </g>
     <g id="text_9">
      <!-- 2.5 -->
      <g transform="translate(31.6575 205.703933) scale(0.1 -0.1)">
       <defs>
        <path id="ArialUnicodeMS-35" d="M 1013 2753 
Q 1431 3041 1881 3041 
Q 2453 3041 2878 2636 
Q 3303 2231 3303 1556 
Q 3303 875 2872 398 
Q 2441 -78 1741 -78 
Q 1169 -78 750 245 
Q 331 569 269 1203 
L 856 1247 
Q 928 813 1162 598 
Q 1397 384 1741 384 
Q 2169 384 2434 707 
Q 2700 1031 2700 1503 
Q 2700 1984 2428 2262 
Q 2156 2541 1728 2541 
Q 1188 2541 897 2100 
L 366 2163 
L 813 4519 
L 3084 4519 
L 3084 3975 
L 1259 3975 
L 1013 2753 
z
" transform="scale(0.015625)"/>
       </defs>
       <use xlink:href="#ArialUnicodeMS-32"/>
       <use xlink:href="#ArialUnicodeMS-2e" x="55.615234"/>
       <use xlink:href="#ArialUnicodeMS-35" x="83.398438"/>
      </g>
     </g>
    </g>
    <g id="ytick_3">
     <g id="line2d_17">
      <path d="M 52.5575 170.964599 
L 421.2 170.964599 
" clip-path="url(#pdf6f29ad67)" style="fill: none; stroke-dasharray: 2.96,1.28; stroke-dashoffset: 0; stroke: #b0b0b0; stroke-opacity: 0.3; stroke-width: 0.8"/>
     </g>
     <g id="line2d_18">
      <g>
       <use xlink:href="#m7eb29ab7cc" x="52.5575" y="170.964599" style="stroke: #000000; stroke-width: 0.8"/>
      </g>
     </g>
     <g id="text_10">
      <!-- 5.0 -->
      <g transform="translate(31.6575 174.543505) scale(0.1 -0.1)">
       <use xlink:href="#ArialUnicodeMS-35"/>
       <use xlink:href="#ArialUnicodeMS-2e" x="55.615234"/>
       <use xlink:href="#ArialUnicodeMS-30" x="83.398438"/>
      </g>
     </g>
    </g>
    <g id="ytick_4">
     <g id="line2d_19">
      <path d="M 52.5575 139.804171 
L 421.2 139.804171 
" clip-path="url(#pdf6f29ad67)" style="fill: none; stroke-dasharray: 2.96,1.28; stroke-dashoffset: 0; stroke: #b0b0b0; stroke-opacity: 0.3; stroke-width: 0.8"/>
     </g>
     <g id="line2d_20">
      <g>
       <use xlink:href="#m7eb29ab7cc" x="52.5575" y="139.804171" style="stroke: #000000; stroke-width: 0.8"/>
      </g>
     </g>
     <g id="text_11">
      <!-- 7.5 -->
      <g transform="translate(31.6575 143.383077) scale(0.1 -0.1)">
       <defs>
        <path id="ArialUnicodeMS-37" d="M 3272 4084 
Q 2597 3344 2103 2253 
Q 1609 1163 1522 0 
L 947 0 
Q 969 934 1408 2051 
Q 1847 3169 2547 3975 
L 306 3975 
L 306 4519 
L 3272 4519 
L 3272 4084 
z
" transform="scale(0.015625)"/>
       </defs>
       <use xlink:href="#ArialUnicodeMS-37"/>
       <use xlink:href="#ArialUnicodeMS-2e" x="55.615234"/>
       <use xlink:href="#ArialUnicodeMS-35" x="83.398438"/>
      </g>
     </g>
    </g>
    <g id="ytick_5">
     <g id="line2d_21">
      <path d="M 52.5575 108.643743 
L 421.2 108.643743 
" clip-path="url(#pdf6f29ad67)" style="fill: none; stroke-dasharray: 2.96,1.28; stroke-dashoffset: 0; stroke: #b0b0b0; stroke-opacity: 0.3; stroke-width: 0.8"/>
     </g>
     <g id="line2d_22">
      <g>
       <use xlink:href="#m7eb29ab7cc" x="52.5575" y="108.643743" style="stroke: #000000; stroke-width: 0.8"/>
      </g>
     </g>
     <g id="text_12">
      <!-- 10.0 -->
      <g transform="translate(26.096563 112.22265) scale(0.1 -0.1)">
       <use xlink:href="#ArialUnicodeMS-31"/>
       <use xlink:href="#ArialUnicodeMS-30" x="55.615234"/>
       <use xlink:href="#ArialUnicodeMS-2e" x="111.230469"/>
       <use xlink:href="#ArialUnicodeMS-30" x="139.013672"/>
      </g>
     </g>
    </g>
    <g id="ytick_6">
     <g id="line2d_23">
      <path d="M 52.5575 77.483316 
L 421.2 77.483316 
" clip-path="url(#pdf6f29ad67)" style="fill: none; stroke-dasharray: 2.96,1.28; stroke-dashoffset: 0; stroke: #b0b0b0; stroke-opacity: 0.3; stroke-width: 0.8"/>
     </g>
     <g id="line2d_24">
      <g>
       <use xlink:href="#m7eb29ab7cc" x="52.5575" y="77.483316" style="stroke: #000000; stroke-width: 0.8"/>
      </g>
     </g>
     <g id="text_13">
      <!-- 12.5 -->
      <g transform="translate(26.096563 81.062222) scale(0.1 -0.1)">
       <use xlink:href="#ArialUnicodeMS-31"/>
       <use xlink:href="#ArialUnicodeMS-32" x="55.615234"/>
       <use xlink:href="#ArialUnicodeMS-2e" x="111.230469"/>
       <use xlink:href="#ArialUnicodeMS-35" x="139.013672"/>
      </g>
     </g>
    </g>
    <g id="ytick_7">
     <g id="line2d_25">
      <path d="M 52.5575 46.322888 
L 421.2 46.322888 
" clip-path="url(#pdf6f29ad67)" style="fill: none; stroke-dasharray: 2.96,1.28; stroke-dashoffset: 0; stroke: #b0b0b0; stroke-opacity: 0.3; stroke-width: 0.8"/>
     </g>
     <g id="line2d_26">
      <g>
       <use xlink:href="#m7eb29ab7cc" x="52.5575" y="46.322888" style="stroke: #000000; stroke-width: 0.8"/>
      </g>
     </g>
     <g id="text_14">
      <!-- 15.0 -->
      <g transform="translate(26.096563 49.901794) scale(0.1 -0.1)">
       <use xlink:href="#ArialUnicodeMS-31"/>
       <use xlink:href="#ArialUnicodeMS-35" x="55.615234"/>
       <use xlink:href="#ArialUnicodeMS-2e" x="111.230469"/>
       <use xlink:href="#ArialUnicodeMS-30" x="139.013672"/>
      </g>
     </g>
    </g>
    <g id="ytick_8">
     <g id="line2d_27">
      <path d="M 52.5575 15.16246 
L 421.2 15.16246 
" clip-path="url(#pdf6f29ad67)" style="fill: none; stroke-dasharray: 2.96,1.28; stroke-dashoffset: 0; stroke: #b0b0b0; stroke-opacity: 0.3; stroke-width: 0.8"/>
     </g>
     <g id="line2d_28">
      <g>
       <use xlink:href="#m7eb29ab7cc" x="52.5575" y="15.16246" style="stroke: #000000; stroke-width: 0.8"/>
      </g>
     </g>
     <g id="text_15">
      <!-- 17.5 -->
      <g transform="translate(26.096563 18.741366) scale(0.1 -0.1)">
       <use xlink:href="#ArialUnicodeMS-31"/>
       <use xlink:href="#ArialUnicodeMS-37" x="55.615234"/>
       <use xlink:href="#ArialUnicodeMS-2e" x="111.230469"/>
       <use xlink:href="#ArialUnicodeMS-35" x="139.013672"/>
      </g>
     </g>
    </g>
    <g id="text_16">
     <!-- Nominal Asset Return (%) -->
     <g transform="translate(19.576563 196.691562) rotate(-90) scale(0.12 -0.12)">
      <defs>
       <path id="ArialUnicodeMS-4e" d="M 4109 0 
L 3488 0 
L 1094 3597 
L 1081 3597 
L 1081 0 
L 506 0 
L 506 4581 
L 1125 4581 
L 3519 984 
L 3531 984 
L 3531 4581 
L 4109 4581 
L 4109 0 
z
" transform="scale(0.015625)"/>
       <path id="ArialUnicodeMS-6d" d="M 4922 0 
L 4359 0 
L 4359 2094 
Q 4359 2325 4328 2489 
Q 4297 2653 4167 2779 
Q 4038 2906 3763 2906 
Q 3431 2906 3190 2675 
Q 2950 2444 2950 1925 
L 2950 0 
L 2388 0 
L 2388 2156 
Q 2388 2588 2236 2747 
Q 2084 2906 1806 2906 
Q 1444 2906 1211 2656 
Q 978 2406 978 1722 
L 978 0 
L 416 0 
L 416 3316 
L 922 3316 
L 922 2853 
L 934 2853 
Q 1272 3391 1925 3391 
Q 2291 3391 2527 3245 
Q 2763 3100 2869 2809 
Q 3238 3391 3891 3391 
Q 4406 3391 4664 3112 
Q 4922 2834 4922 2278 
L 4922 0 
z
" transform="scale(0.015625)"/>
       <path id="ArialUnicodeMS-41" d="M 4275 0 
L 3591 0 
L 3053 1394 
L 1141 1394 
L 634 0 
L -6 0 
L 1753 4581 
L 2406 4581 
L 4275 0 
z
M 2869 1875 
Q 2306 3363 2234 3564 
Q 2163 3766 2075 4103 
L 2059 4103 
Q 1972 3641 1825 3247 
L 1313 1875 
L 2869 1875 
z
" transform="scale(0.015625)"/>
       <path id="ArialUnicodeMS-73" d="M 2278 2388 
Q 2241 2659 2058 2795 
Q 1875 2931 1550 2931 
Q 1228 2931 1029 2822 
Q 831 2713 831 2503 
Q 831 2306 989 2222 
Q 1147 2138 1613 2016 
Q 2138 1881 2398 1778 
Q 2659 1675 2804 1489 
Q 2950 1303 2950 972 
Q 2950 528 2587 225 
Q 2225 -78 1619 -78 
Q 988 -78 633 189 
Q 278 456 197 991 
L 756 1075 
Q 800 728 1014 556 
Q 1228 384 1613 384 
Q 1981 384 2178 539 
Q 2375 694 2375 916 
Q 2375 1066 2284 1156 
Q 2194 1247 2058 1292 
Q 1922 1338 1447 1453 
Q 741 1622 514 1862 
Q 288 2103 288 2438 
Q 288 2853 619 3122 
Q 950 3391 1509 3391 
Q 2103 3391 2433 3158 
Q 2763 2925 2828 2463 
L 2278 2388 
z
" transform="scale(0.015625)"/>
       <path id="ArialUnicodeMS-75" d="M 3116 0 
L 2613 0 
L 2613 488 
L 2597 488 
Q 2216 -78 1556 -78 
Q 1209 -78 914 83 
Q 619 244 520 526 
Q 422 809 422 1259 
L 422 3316 
L 984 3316 
L 984 1478 
Q 984 1038 1026 847 
Q 1069 656 1247 532 
Q 1425 409 1672 409 
Q 1991 409 2272 629 
Q 2553 850 2553 1544 
L 2553 3316 
L 3116 3316 
L 3116 0 
z
" transform="scale(0.015625)"/>
       <path id="ArialUnicodeMS-72" d="M 2216 3213 
L 2022 2694 
Q 1813 2816 1613 2816 
Q 1297 2816 1134 2533 
Q 972 2250 972 1741 
L 972 0 
L 409 0 
L 409 3316 
L 922 3316 
L 922 2816 
L 934 2816 
Q 1203 3391 1638 3391 
Q 1925 3391 2216 3213 
z
" transform="scale(0.015625)"/>
      </defs>
      <use xlink:href="#ArialUnicodeMS-4e"/>
      <use xlink:href="#ArialUnicodeMS-6f" x="72.216797"/>
      <use xlink:href="#ArialUnicodeMS-6d" x="127.832031"/>
      <use xlink:href="#ArialUnicodeMS-69" x="211.132812"/>
      <use xlink:href="#ArialUnicodeMS-6e" x="233.349609"/>
      <use xlink:href="#ArialUnicodeMS-61" x="288.964844"/>
      <use xlink:href="#ArialUnicodeMS-6c" x="344.580078"/>
      <use xlink:href="#ArialUnicodeMS-20" x="366.796875"/>
      <use xlink:href="#ArialUnicodeMS-41" x="394.580078"/>
      <use xlink:href="#ArialUnicodeMS-73" x="461.279297"/>
      <use xlink:href="#ArialUnicodeMS-73" x="511.279297"/>
      <use xlink:href="#ArialUnicodeMS-65" x="561.279297"/>
      <use xlink:href="#ArialUnicodeMS-74" x="616.894531"/>
      <use xlink:href="#ArialUnicodeMS-20" x="644.677734"/>
      <use xlink:href="#ArialUnicodeMS-52" x="672.460938"/>
      <use xlink:href="#ArialUnicodeMS-65" x="744.677734"/>
      <use xlink:href="#ArialUnicodeMS-74" x="800.292969"/>
      <use xlink:href="#ArialUnicodeMS-75" x="828.076172"/>
      <use xlink:href="#ArialUnicodeMS-72" x="883.691406"/>
      <use xlink:href="#ArialUnicodeMS-6e" x="916.992188"/>
      <use xlink:href="#ArialUnicodeMS-20" x="972.607422"/>
      <use xlink:href="#ArialUnicodeMS-28" x="1000.390625"/>
      <use xlink:href="#ArialUnicodeMS-25" x="1033.691406"/>
      <use xlink:href="#ArialUnicodeMS-29" x="1122.607422"/>
     </g>
    </g>
   </g>
   <g id="line2d_29">
    <path d="M 69.313977 233.285455 
L 72.699124 232.026447 
L 76.084271 230.76744 
L 79.469418 229.508433 
L 82.854565 228.249426 
L 86.239712 226.990419 
L 89.624859 225.731411 
L 93.010006 224.472404 
L 96.395153 223.213397 
L 99.7803 221.95439 
L 103.165447 220.695383 
L 106.550593 219.436376 
L 109.93574 218.177368 
L 113.320887 216.918361 
L 116.706034 215.659354 
L 120.091181 214.400347 
L 123.476328 213.14134 
L 126.861475 211.882332 
L 130.246622 210.623325 
L 133.631769 209.364318 
L 137.016916 208.105311 
L 140.402063 206.846304 
L 143.78721 205.587296 
L 147.172357 204.328289 
L 150.557503 203.069282 
L 153.94265 201.810275 
L 157.327797 200.551268 
L 160.712944 199.292261 
L 164.098091 198.033253 
L 167.483238 196.774246 
L 170.868385 195.515239 
L 174.253532 194.256232 
L 177.638679 192.997225 
L 181.023826 191.738217 
L 184.408973 190.47921 
L 187.79412 189.220203 
L 191.179267 187.961196 
L 194.564413 186.702189 
L 197.94956 185.443182 
L 201.334707 184.184174 
L 204.719854 182.925167 
L 208.105001 181.66616 
L 211.490148 180.407153 
L 214.875295 179.148146 
L 218.260442 177.889138 
L 221.645589 176.630131 
L 225.030736 175.371124 
L 228.415883 174.112117 
L 231.80103 172.85311 
L 235.186177 171.594103 
L 238.571323 170.335095 
L 241.95647 169.076088 
L 245.341617 167.817081 
L 248.726764 166.558074 
L 252.111911 165.299067 
L 255.497058 164.040059 
L 258.882205 162.781052 
L 262.267352 161.522045 
L 265.652499 160.263038 
L 269.037646 159.004031 
L 272.422793 157.745023 
L 275.80794 156.486016 
L 279.193087 155.227009 
L 282.578233 153.968002 
L 285.96338 152.708995 
L 289.348527 151.449988 
L 292.733674 150.19098 
L 296.118821 148.931973 
L 299.503968 147.672966 
L 302.889115 146.413959 
L 306.274262 145.154952 
L 309.659409 143.895944 
L 313.044556 142.636937 
L 316.429703 141.37793 
L 319.81485 140.118923 
L 323.199997 138.859916 
L 326.585143 137.600909 
L 329.97029 136.341901 
L 333.355437 135.082894 
L 336.740584 133.823887 
L 340.125731 132.56488 
L 343.510878 131.305873 
L 346.896025 130.046865 
L 350.281172 128.787858 
L 353.666319 127.528851 
L 357.051466 126.269844 
L 360.436613 125.010837 
L 363.82176 123.75183 
L 367.206907 122.492822 
L 370.592053 121.233815 
L 373.9772 119.974808 
L 377.362347 118.715801 
L 380.747494 117.456794 
L 384.132641 116.197786 
L 387.517788 114.938779 
L 390.902935 113.679772 
L 394.288082 112.420765 
L 397.673229 111.161758 
L 401.058376 109.90275 
L 404.443523 108.643743 
" clip-path="url(#pdf6f29ad67)" style="fill: none; stroke-dasharray: 5.55,2.4; stroke-dashoffset: 0; stroke: #7f8c8d; stroke-width: 1.5"/>
   </g>
   <g id="line2d_30">
    <path d="M 69.313977 208.357112 
L 72.699124 206.468602 
L 76.084271 204.580091 
L 79.469418 202.69158 
L 82.854565 200.803069 
L 86.239712 198.914558 
L 89.624859 197.026048 
L 93.010006 195.137537 
L 96.395153 193.249026 
L 99.7803 191.360515 
L 103.165447 189.472005 
L 106.550593 187.583494 
L 109.93574 185.694983 
L 113.320887 183.806472 
L 116.706034 181.917961 
L 120.091181 180.029451 
L 123.476328 178.14094 
L 126.861475 176.252429 
L 130.246622 174.363918 
L 133.631769 172.475408 
L 137.016916 170.586897 
L 140.402063 168.698386 
L 143.78721 166.809875 
L 147.172357 164.921364 
L 150.557503 163.032854 
L 153.94265 161.144343 
L 157.327797 159.255832 
L 160.712944 157.367321 
L 164.098091 155.478811 
L 167.483238 153.5903 
L 170.868385 151.701789 
L 174.253532 149.813278 
L 177.638679 147.924767 
L 181.023826 146.036257 
L 184.408973 144.147746 
L 187.79412 142.259235 
L 191.179267 140.370724 
L 194.564413 138.482214 
L 197.94956 136.593703 
L 201.334707 134.705192 
L 204.719854 132.816681 
L 208.105001 130.92817 
L 211.490148 129.03966 
L 214.875295 127.151149 
L 218.260442 125.262638 
L 221.645589 123.374127 
L 225.030736 121.485617 
L 228.415883 119.597106 
L 231.80103 117.708595 
L 235.186177 115.820084 
L 238.571323 113.931573 
L 241.95647 112.043063 
L 245.341617 110.154552 
L 248.726764 108.266041 
L 252.111911 106.37753 
L 255.497058 104.48902 
L 258.882205 102.600509 
L 262.267352 100.711998 
L 265.652499 98.823487 
L 269.037646 96.934977 
L 272.422793 95.046466 
L 275.80794 93.157955 
L 279.193087 91.269444 
L 282.578233 89.380933 
L 285.96338 87.492423 
L 289.348527 85.603912 
L 292.733674 83.715401 
L 296.118821 81.82689 
L 299.503968 79.93838 
L 302.889115 78.049869 
L 306.274262 76.161358 
L 309.659409 74.272847 
L 313.044556 72.384336 
L 316.429703 70.495826 
L 319.81485 68.607315 
L 323.199997 66.718804 
L 326.585143 64.830293 
L 329.97029 62.941783 
L 333.355437 61.053272 
L 336.740584 59.164761 
L 340.125731 57.27625 
L 343.510878 55.387739 
L 346.896025 53.499229 
L 350.281172 51.610718 
L 353.666319 49.722207 
L 357.051466 47.833696 
L 360.436613 45.945186 
L 363.82176 44.056675 
L 367.206907 42.168164 
L 370.592053 40.279653 
L 373.9772 38.391142 
L 377.362347 36.502632 
L 380.747494 34.614121 
L 384.132641 32.72561 
L 387.517788 30.837099 
L 390.902935 28.948589 
L 394.288082 27.060078 
L 397.673229 25.171567 
L 401.058376 23.283056 
L 404.443523 21.394545 
" clip-path="url(#pdf6f29ad67)" style="fill: none; stroke: #d35400; stroke-width: 2; stroke-linecap: square"/>
   </g>
   <g id="patch_3">
    <path d="M 52.5575 243.88 
L 52.5575 10.8 
" style="fill: none; stroke: #000000; stroke-width: 0.8; stroke-linejoin: miter; stroke-linecap: square"/>
   </g>
   <g id="patch_4">
    <path d="M 52.5575 243.88 
L 421.2 243.88 
" style="fill: none; stroke: #000000; stroke-width: 0.8; stroke-linejoin: miter; stroke-linecap: square"/>
   </g>
   <g id="legend_1">
    <g id="line2d_31">
     <path d="M 61.5575 24 
L 71.5575 24 
L 81.5575 24 
" style="fill: none; stroke-dasharray: 5.55,2.4; stroke-dashoffset: 0; stroke: #7f8c8d; stroke-width: 1.5"/>
    </g>
    <g id="text_17">
     <!-- Perfect Hedge ($\beta=1$) -->
     <g transform="translate(89.5575 27.5) scale(0.1 -0.1)">
      <defs>
       <path id="ArialUnicodeMS-50" d="M 494 4581 
L 2222 4581 
Q 2631 4581 2926 4540 
Q 3222 4500 3475 4329 
Q 3728 4159 3858 3867 
Q 3988 3575 3988 3256 
Q 3988 2622 3580 2239 
Q 3172 1856 2272 1856 
L 1100 1856 
L 1100 0 
L 494 0 
L 494 4581 
z
M 1100 2400 
L 2278 2400 
Q 3359 2400 3359 3238 
Q 3359 3513 3218 3723 
Q 3078 3934 2873 3986 
Q 2669 4038 2266 4038 
L 1100 4038 
L 1100 2400 
z
" transform="scale(0.015625)"/>
       <path id="ArialUnicodeMS-63" d="M 3144 1147 
Q 3034 513 2643 217 
Q 2253 -78 1759 -78 
Q 1038 -78 644 395 
Q 250 869 250 1650 
Q 250 2297 476 2686 
Q 703 3075 1043 3233 
Q 1384 3391 1759 3391 
Q 2272 3391 2636 3125 
Q 3000 2859 3084 2344 
L 2541 2259 
Q 2456 2594 2267 2762 
Q 2078 2931 1784 2931 
Q 1313 2931 1069 2597 
Q 825 2263 825 1663 
Q 825 1050 1064 717 
Q 1303 384 1753 384 
Q 2116 384 2323 592 
Q 2531 800 2584 1216 
L 3144 1147 
z
" transform="scale(0.015625)"/>
       <path id="ArialUnicodeMS-48" d="M 4109 0 
L 3500 0 
L 3500 2156 
L 1119 2156 
L 1119 0 
L 513 0 
L 513 4581 
L 1119 4581 
L 1119 2700 
L 3500 2700 
L 3500 4581 
L 4109 4581 
L 4109 0 
z
" transform="scale(0.015625)"/>
       <path id="ArialUnicodeMS-64" d="M 3109 0 
L 2584 0 
L 2584 422 
L 2572 422 
Q 2269 -78 1656 -78 
Q 1047 -78 639 405 
Q 231 888 231 1656 
Q 231 2459 615 2925 
Q 1000 3391 1631 3391 
Q 2225 3391 2534 2938 
L 2547 2938 
L 2547 4581 
L 3109 4581 
L 3109 0 
z
M 1716 384 
Q 2084 384 2340 687 
Q 2597 991 2597 1606 
Q 2597 2213 2362 2572 
Q 2128 2931 1691 2931 
Q 1253 2931 1029 2579 
Q 806 2228 806 1656 
Q 806 1244 926 958 
Q 1047 672 1262 528 
Q 1478 384 1716 384 
z
" transform="scale(0.015625)"/>
       <path id="ArialUnicodeMS-67" d="M 3144 447 
Q 3144 -259 3003 -607 
Q 2863 -956 2503 -1150 
Q 2144 -1344 1644 -1344 
Q 1081 -1344 706 -1094 
Q 331 -844 331 -275 
L 878 -359 
Q 909 -622 1098 -753 
Q 1288 -884 1638 -884 
Q 2075 -884 2278 -706 
Q 2481 -528 2526 -272 
Q 2572 -16 2572 434 
Q 2206 0 1650 0 
Q 1003 0 611 478 
Q 219 956 219 1684 
Q 219 2416 600 2903 
Q 981 3391 1656 3391 
Q 2244 3391 2613 2919 
L 2625 2919 
L 2625 3316 
L 3144 3316 
L 3144 447 
z
M 1703 459 
Q 2063 459 2341 745 
Q 2619 1031 2619 1703 
Q 2619 2297 2353 2614 
Q 2088 2931 1697 2931 
Q 1297 2931 1045 2606 
Q 794 2281 794 1716 
Q 794 1063 1058 761 
Q 1322 459 1703 459 
z
" transform="scale(0.015625)"/>
       <path id="DejaVuSans-Oblique-3b2" d="M 872 216 
L 572 -1331 
L -6 -1331 
L 928 3478 
Q 1206 4903 2538 4903 
Q 3888 4903 3659 3700 
Q 3503 2844 2894 2531 
Q 3713 2250 3553 1416 
Q 3272 -69 1759 -66 
Q 1097 -63 872 216 
z
M 1019 966 
Q 1259 422 1875 425 
Q 2775 425 2966 1406 
Q 3138 2288 1675 2219 
L 1778 2750 
Q 2909 2731 3106 3750 
Q 3241 4438 2509 4434 
Q 1691 4434 1503 3459 
L 1019 966 
z
" transform="scale(0.015625)"/>
       <path id="DejaVuSans-3d" d="M 678 2906 
L 4684 2906 
L 4684 2381 
L 678 2381 
L 678 2906 
z
M 678 1631 
L 4684 1631 
L 4684 1100 
L 678 1100 
L 678 1631 
z
" transform="scale(0.015625)"/>
       <path id="DejaVuSans-31" d="M 794 531 
L 1825 531 
L 1825 4091 
L 703 3866 
L 703 4441 
L 1819 4666 
L 2450 4666 
L 2450 531 
L 3481 531 
L 3481 0 
L 794 0 
L 794 531 
z
" transform="scale(0.015625)"/>
      </defs>
      <use xlink:href="#ArialUnicodeMS-50" transform="translate(0 0.390625)"/>
      <use xlink:href="#ArialUnicodeMS-65" transform="translate(66.699219 0.390625)"/>
      <use xlink:href="#ArialUnicodeMS-72" transform="translate(122.314453 0.390625)"/>
      <use xlink:href="#ArialUnicodeMS-66" transform="translate(155.615234 0.390625)"/>
      <use xlink:href="#ArialUnicodeMS-65" transform="translate(183.398438 0.390625)"/>
      <use xlink:href="#ArialUnicodeMS-63" transform="translate(239.013672 0.390625)"/>
      <use xlink:href="#ArialUnicodeMS-74" transform="translate(289.013672 0.390625)"/>
      <use xlink:href="#ArialUnicodeMS-20" transform="translate(316.796875 0.390625)"/>
      <use xlink:href="#ArialUnicodeMS-48" transform="translate(344.580078 0.390625)"/>
      <use xlink:href="#ArialUnicodeMS-65" transform="translate(416.796875 0.390625)"/>
      <use xlink:href="#ArialUnicodeMS-64" transform="translate(472.412109 0.390625)"/>
      <use xlink:href="#ArialUnicodeMS-67" transform="translate(528.027344 0.390625)"/>
      <use xlink:href="#ArialUnicodeMS-65" transform="translate(583.642578 0.390625)"/>
      <use xlink:href="#ArialUnicodeMS-20" transform="translate(639.257812 0.390625)"/>
      <use xlink:href="#ArialUnicodeMS-28" transform="translate(667.041016 0.390625)"/>
      <use xlink:href="#DejaVuSans-Oblique-3b2" transform="translate(700.341797 0.390625)"/>
      <use xlink:href="#DejaVuSans-3d" transform="translate(783.642578 0.390625)"/>
      <use xlink:href="#DejaVuSans-31" transform="translate(886.914062 0.390625)"/>
      <use xlink:href="#ArialUnicodeMS-29" transform="translate(950.537109 0.390625)"/>
     </g>
    </g>
    <g id="line2d_32">
     <path d="M 61.5575 38.4 
L 71.5575 38.4 
L 81.5575 38.4 
" style="fill: none; stroke: #d35400; stroke-width: 2; stroke-linecap: square"/>
    </g>
    <g id="text_18">
     <!-- Art ($&gt;1$ Inflation Beta) -->
     <g transform="translate(89.5575 41.9) scale(0.1 -0.1)">
      <defs>
       <path id="DejaVuSans-3e" d="M 678 3150 
L 678 3719 
L 4684 2266 
L 4684 1747 
L 678 294 
L 678 863 
L 3897 2003 
L 678 3150 
z
" transform="scale(0.015625)"/>
       <path id="ArialUnicodeMS-42" d="M 3078 2438 
Q 3509 2306 3723 2011 
Q 3938 1716 3938 1331 
Q 3938 947 3744 625 
Q 3550 303 3194 151 
Q 2838 0 2228 0 
L 475 0 
L 475 4581 
L 2194 4581 
Q 3028 4581 3370 4218 
Q 3713 3856 3713 3413 
Q 3713 3113 3555 2858 
Q 3397 2603 3078 2438 
z
M 1081 2663 
L 2075 2663 
Q 2381 2663 2589 2697 
Q 2797 2731 2956 2878 
Q 3116 3025 3116 3334 
Q 3116 3659 2955 3814 
Q 2794 3969 2570 4003 
Q 2347 4038 1997 4038 
L 1081 4038 
L 1081 2663 
z
M 1081 544 
L 2222 544 
Q 2834 544 3071 753 
Q 3309 963 3309 1331 
Q 3309 1703 3056 1911 
Q 2803 2119 2144 2119 
L 1081 2119 
L 1081 544 
z
" transform="scale(0.015625)"/>
      </defs>
      <use xlink:href="#ArialUnicodeMS-41" transform="translate(0 0.09375)"/>
      <use xlink:href="#ArialUnicodeMS-72" transform="translate(66.699219 0.09375)"/>
      <use xlink:href="#ArialUnicodeMS-74" transform="translate(100 0.09375)"/>
      <use xlink:href="#ArialUnicodeMS-20" transform="translate(127.783203 0.09375)"/>
      <use xlink:href="#ArialUnicodeMS-28" transform="translate(155.566406 0.09375)"/>
      <use xlink:href="#DejaVuSans-3e" transform="translate(208.349609 0.09375)"/>
      <use xlink:href="#DejaVuSans-31" transform="translate(311.621094 0.09375)"/>
      <use xlink:href="#ArialUnicodeMS-20" transform="translate(375.244141 0.09375)"/>
      <use xlink:href="#ArialUnicodeMS-49" transform="translate(403.027344 0.09375)"/>
      <use xlink:href="#ArialUnicodeMS-6e" transform="translate(430.810547 0.09375)"/>
      <use xlink:href="#ArialUnicodeMS-66" transform="translate(486.425781 0.09375)"/>
      <use xlink:href="#ArialUnicodeMS-6c" transform="translate(514.208984 0.09375)"/>
      <use xlink:href="#ArialUnicodeMS-61" transform="translate(536.425781 0.09375)"/>
      <use xlink:href="#ArialUnicodeMS-74" transform="translate(592.041016 0.09375)"/>
      <use xlink:href="#ArialUnicodeMS-69" transform="translate(619.824219 0.09375)"/>
      <use xlink:href="#ArialUnicodeMS-6f" transform="translate(642.041016 0.09375)"/>
      <use xlink:href="#ArialUnicodeMS-6e" transform="translate(697.65625 0.09375)"/>
      <use xlink:href="#ArialUnicodeMS-20" transform="translate(753.271484 0.09375)"/>
      <use xlink:href="#ArialUnicodeMS-42" transform="translate(781.054688 0.09375)"/>
      <use xlink:href="#ArialUnicodeMS-65" transform="translate(847.753906 0.09375)"/>
      <use xlink:href="#ArialUnicodeMS-74" transform="translate(903.369141 0.09375)"/>
      <use xlink:href="#ArialUnicodeMS-61" transform="translate(931.152344 0.09375)"/>
      <use xlink:href="#ArialUnicodeMS-29" transform="translate(986.767578 0.09375)"/>
     </g>
    </g>
   </g>
  </g>
 </g>
 <defs>
  <clipPath id="pdf6f29ad67">
   <rect x="52.5575" y="10.8" width="368.6425" height="233.08"/>
  </clipPath>
 </defs>
</svg>
