<?xml version="1.0" encoding="utf-8" standalone="no"?>
<!DOCTYPE svg PUBLIC "-//W3C//DTD SVG 1.1//EN"
  "http://www.w3.org/Graphics/SVG/1.1/DTD/svg11.dtd">
<svg xmlns:xlink="http://www.w3.org/1999/xlink" width="576pt" height="360pt" viewBox="0 0 576 360" xmlns="http://www.w3.org/2000/svg" version="1.1">
 <metadata>
  <rdf:RDF xmlns:dc="http://purl.org/dc/elements/1.1/" xmlns:cc="http://creativecommons.org/ns#" xmlns:rdf="http://www.w3.org/1999/02/22-rdf-syntax-ns#">
   <cc:Work>
    <dc:type rdf:resource="http://purl.org/dc/dcmitype/StillImage"/>
    <dc:date>2026-04-28T12:02:13.504554</dc:date>
    <dc:format>image/svg+xml</dc:format>
    <dc:creator>
     <cc:Agent>
      <dc:title>Matplotlib v3.9.4, https://matplotlib.org/</dc:title>
     </cc:Agent>
    </dc:creator>
   </cc:Work>
  </rdf:RDF>
 </metadata>
 <defs>
  <style type="text/css">*{stroke-linejoin: round; stroke-linecap: butt}</style>
 </defs>
 <g id="figure_1">
  <g id="patch_1">
   <path d="M 0 360 
L 576 360 
L 576 0 
L 0 0 
L 0 360 
z
" style="fill: none"/>
  </g>
  <g id="axes_1">
   <g id="patch_2">
    <path d="M 58.49 310.245625 
L 565.2 310.245625 
L 565.2 38.461875 
L 58.49 38.461875 
L 58.49 310.245625 
z
" style="fill: none"/>
   </g>
   <g id="PolyCollection_1">
    <defs>
     <path id="m7de8fecee3" d="M 81.522273 -70.93233 
L 81.522273 -62.108182 
L 90.9232 -65.349705 
L 100.324128 -68.591229 
L 109.725056 -71.832753 
L 119.125983 -75.074276 
L 128.526911 -78.3158 
L 137.927839 -81.557324 
L 147.328766 -84.798847 
L 156.729694 -88.040371 
L 166.130622 -91.281895 
L 175.531549 -94.523418 
L 184.932477 -97.764942 
L 194.333404 -101.006466 
L 203.734332 -104.247989 
L 213.13526 -107.489513 
L 222.536187 -110.731037 
L 231.937115 -113.97256 
L 241.338043 -117.214084 
L 250.73897 -120.455608 
L 260.139898 -123.697131 
L 269.540826 -126.938655 
L 278.941753 -130.180179 
L 288.342681 -133.421702 
L 297.743609 -136.663226 
L 307.144536 -139.90475 
L 316.545464 -143.146273 
L 325.946391 -146.387797 
L 335.347319 -149.629321 
L 344.748247 -152.870844 
L 354.149174 -156.112368 
L 363.550102 -159.353891 
L 372.95103 -162.595415 
L 382.351957 -165.836939 
L 391.752885 -169.078462 
L 401.153813 -172.319986 
L 410.55474 -175.56151 
L 419.955668 -178.803033 
L 429.356596 -182.044557 
L 438.757523 -185.286081 
L 448.158451 -188.527604 
L 457.559378 -191.769128 
L 466.960306 -195.010652 
L 476.361234 -198.252175 
L 485.762161 -201.493699 
L 495.163089 -204.735223 
L 504.564017 -207.976746 
L 513.964944 -211.21827 
L 523.365872 -214.459794 
L 532.7668 -217.701317 
L 542.167727 -220.942841 
L 542.167727 -309.184318 
L 542.167727 -309.184318 
L 532.7668 -304.322033 
L 523.365872 -299.459747 
L 513.964944 -294.597462 
L 504.564017 -289.735176 
L 495.163089 -284.872891 
L 485.762161 -280.010605 
L 476.361234 -275.14832 
L 466.960306 -270.286034 
L 457.559378 -265.423749 
L 448.158451 -260.561463 
L 438.757523 -255.699178 
L 429.356596 -250.836892 
L 419.955668 -245.974607 
L 410.55474 -241.112321 
L 401.153813 -236.250036 
L 391.752885 -231.38775 
L 382.351957 -226.525465 
L 372.95103 -221.663179 
L 363.550102 -216.800894 
L 354.149174 -211.938609 
L 344.748247 -207.076323 
L 335.347319 -202.214038 
L 325.946391 -197.351752 
L 316.545464 -192.489467 
L 307.144536 -187.627181 
L 297.743609 -182.764896 
L 288.342681 -177.90261 
L 278.941753 -173.040325 
L 269.540826 -168.178039 
L 260.139898 -163.315754 
L 250.73897 -158.453468 
L 241.338043 -153.591183 
L 231.937115 -148.728897 
L 222.536187 -143.866612 
L 213.13526 -139.004326 
L 203.734332 -134.142041 
L 194.333404 -129.279755 
L 184.932477 -124.41747 
L 175.531549 -119.555184 
L 166.130622 -114.692899 
L 156.729694 -109.830613 
L 147.328766 -104.968328 
L 137.927839 -100.106042 
L 128.526911 -95.243757 
L 119.125983 -90.381471 
L 109.725056 -85.519186 
L 100.324128 -80.656901 
L 90.9232 -75.794615 
L 81.522273 -70.93233 
z
" style="stroke: #ef4444; stroke-opacity: 0.1"/>
    </defs>
    <g clip-path="url(#p8510c32f6c)">
     <use xlink:href="#m7de8fecee3" x="0" y="360" style="fill: #ef4444; fill-opacity: 0.1; stroke: #ef4444; stroke-opacity: 0.1"/>
    </g>
   </g>
   <g id="matplotlib.axis_1">
    <g id="xtick_1">
     <g id="line2d_1">
      <path d="M 132.705101 310.245625 
L 132.705101 38.461875 
" clip-path="url(#p8510c32f6c)" style="fill: none; stroke-dasharray: 2.96,1.28; stroke-dashoffset: 0; stroke: #eeeeee; stroke-opacity: 0.5; stroke-width: 0.8"/>
     </g>
     <g id="line2d_2">
      <defs>
       <path id="m524a1edbe9" d="M 0 0 
L 0 3.5 
" style="stroke: #666666; stroke-width: 0.8"/>
      </defs>
      <g>
       <use xlink:href="#m524a1edbe9" x="132.705101" y="310.245625" style="fill: #666666; stroke: #666666; stroke-width: 0.8"/>
      </g>
     </g>
     <g id="text_1">
      <!-- 0.02 -->
      <g style="fill: #666666" transform="translate(122.974632 324.403437) scale(0.1 -0.1)">
       <defs>
        <path id="ArialUnicodeMS-30" d="M 1778 4603 
Q 3272 4603 3272 2259 
Q 3272 1075 2886 498 
Q 2500 -78 1778 -78 
Q 288 -78 288 2259 
Q 288 3444 673 4023 
Q 1059 4603 1778 4603 
z
M 1778 384 
Q 2231 384 2462 823 
Q 2694 1263 2694 2259 
Q 2694 2953 2592 3351 
Q 2491 3750 2286 3945 
Q 2081 4141 1772 4141 
Q 1319 4141 1091 3694 
Q 863 3247 863 2259 
Q 863 1575 966 1175 
Q 1069 775 1272 579 
Q 1475 384 1778 384 
z
" transform="scale(0.015625)"/>
        <path id="ArialUnicodeMS-2e" d="M 1209 0 
L 569 0 
L 569 641 
L 1209 641 
L 1209 0 
z
" transform="scale(0.015625)"/>
        <path id="ArialUnicodeMS-32" d="M 3231 0 
L 197 0 
Q 197 388 467 784 
Q 738 1181 1478 1778 
Q 1931 2141 2287 2539 
Q 2644 2938 2644 3341 
Q 2644 3688 2398 3914 
Q 2153 4141 1778 4141 
Q 1400 4141 1144 3908 
Q 888 3675 884 3213 
L 306 3278 
Q 359 3922 764 4262 
Q 1169 4603 1791 4603 
Q 2466 4603 2842 4229 
Q 3219 3856 3219 3328 
Q 3219 2888 2901 2436 
Q 2584 1984 1638 1228 
Q 1141 831 978 544 
L 3231 544 
L 3231 0 
z
" transform="scale(0.015625)"/>
       </defs>
       <use xlink:href="#ArialUnicodeMS-30"/>
       <use xlink:href="#ArialUnicodeMS-2e" x="55.615234"/>
       <use xlink:href="#ArialUnicodeMS-30" x="83.398438"/>
       <use xlink:href="#ArialUnicodeMS-32" x="139.013672"/>
      </g>
     </g>
    </g>
    <g id="xtick_2">
     <g id="line2d_3">
      <path d="M 235.070758 310.245625 
L 235.070758 38.461875 
" clip-path="url(#p8510c32f6c)" style="fill: none; stroke-dasharray: 2.96,1.28; stroke-dashoffset: 0; stroke: #eeeeee; stroke-opacity: 0.5; stroke-width: 0.8"/>
     </g>
     <g id="line2d_4">
      <g>
       <use xlink:href="#m524a1edbe9" x="235.070758" y="310.245625" style="fill: #666666; stroke: #666666; stroke-width: 0.8"/>
      </g>
     </g>
     <g id="text_2">
      <!-- 0.04 -->
      <g style="fill: #666666" transform="translate(225.340289 324.403437) scale(0.1 -0.1)">
       <defs>
        <path id="ArialUnicodeMS-34" d="M 3263 1094 
L 2644 1094 
L 2644 0 
L 2081 0 
L 2081 1094 
L 97 1094 
L 97 1613 
L 2181 4581 
L 2644 4581 
L 2644 1613 
L 3263 1613 
L 3263 1094 
z
M 2081 1613 
L 2081 3681 
L 2069 3681 
L 647 1613 
L 2081 1613 
z
" transform="scale(0.015625)"/>
       </defs>
       <use xlink:href="#ArialUnicodeMS-30"/>
       <use xlink:href="#ArialUnicodeMS-2e" x="55.615234"/>
       <use xlink:href="#ArialUnicodeMS-30" x="83.398438"/>
       <use xlink:href="#ArialUnicodeMS-34" x="139.013672"/>
      </g>
     </g>
    </g>
    <g id="xtick_3">
     <g id="line2d_5">
      <path d="M 337.436414 310.245625 
L 337.436414 38.461875 
" clip-path="url(#p8510c32f6c)" style="fill: none; stroke-dasharray: 2.96,1.28; stroke-dashoffset: 0; stroke: #eeeeee; stroke-opacity: 0.5; stroke-width: 0.8"/>
     </g>
     <g id="line2d_6">
      <g>
       <use xlink:href="#m524a1edbe9" x="337.436414" y="310.245625" style="fill: #666666; stroke: #666666; stroke-width: 0.8"/>
      </g>
     </g>
     <g id="text_3">
      <!-- 0.06 -->
      <g style="fill: #666666" transform="translate(327.705945 324.403437) scale(0.1 -0.1)">
       <defs>
        <path id="ArialUnicodeMS-36" d="M 838 2363 
Q 1225 2969 1941 2969 
Q 2503 2969 2897 2553 
Q 3291 2138 3291 1491 
Q 3291 838 2898 380 
Q 2506 -78 1856 -78 
Q 1197 -78 733 409 
Q 269 897 269 2144 
Q 269 3369 689 3986 
Q 1109 4603 1906 4603 
Q 2422 4603 2778 4315 
Q 3134 4028 3213 3463 
L 2650 3413 
Q 2497 4141 1875 4141 
Q 1444 4141 1134 3712 
Q 825 3284 825 2363 
L 838 2363 
z
M 1844 384 
Q 2231 384 2472 696 
Q 2713 1009 2713 1453 
Q 2713 1897 2472 2187 
Q 2231 2478 1825 2478 
Q 1453 2478 1184 2204 
Q 916 1931 916 1484 
Q 916 1028 1180 706 
Q 1444 384 1844 384 
z
" transform="scale(0.015625)"/>
       </defs>
       <use xlink:href="#ArialUnicodeMS-30"/>
       <use xlink:href="#ArialUnicodeMS-2e" x="55.615234"/>
       <use xlink:href="#ArialUnicodeMS-30" x="83.398438"/>
       <use xlink:href="#ArialUnicodeMS-36" x="139.013672"/>
      </g>
     </g>
    </g>
    <g id="xtick_4">
     <g id="line2d_7">
      <path d="M 439.802071 310.245625 
L 439.802071 38.461875 
" clip-path="url(#p8510c32f6c)" style="fill: none; stroke-dasharray: 2.96,1.28; stroke-dashoffset: 0; stroke: #eeeeee; stroke-opacity: 0.5; stroke-width: 0.8"/>
     </g>
     <g id="line2d_8">
      <g>
       <use xlink:href="#m524a1edbe9" x="439.802071" y="310.245625" style="fill: #666666; stroke: #666666; stroke-width: 0.8"/>
      </g>
     </g>
     <g id="text_4">
      <!-- 0.08 -->
      <g style="fill: #666666" transform="translate(430.071602 324.403437) scale(0.1 -0.1)">
       <defs>
        <path id="ArialUnicodeMS-38" d="M 2425 2478 
Q 3284 2203 3284 1306 
Q 3284 716 2862 319 
Q 2441 -78 1778 -78 
Q 1109 -78 689 322 
Q 269 722 269 1325 
Q 269 1759 505 2084 
Q 741 2409 1141 2478 
L 1141 2491 
Q 453 2703 453 3419 
Q 453 3925 815 4264 
Q 1178 4603 1766 4603 
Q 2363 4603 2730 4253 
Q 3097 3903 3097 3406 
Q 3097 2731 2425 2491 
L 2425 2478 
z
M 1778 2700 
Q 2094 2700 2308 2901 
Q 2522 3103 2522 3406 
Q 2522 3716 2305 3928 
Q 2088 4141 1772 4141 
Q 1450 4141 1240 3931 
Q 1031 3722 1031 3438 
Q 1031 3097 1247 2898 
Q 1463 2700 1778 2700 
z
M 1778 384 
Q 2175 384 2440 640 
Q 2706 897 2706 1306 
Q 2706 1716 2432 1978 
Q 2159 2241 1766 2241 
Q 1356 2241 1100 1970 
Q 844 1700 844 1319 
Q 844 922 1108 653 
Q 1372 384 1778 384 
z
" transform="scale(0.015625)"/>
       </defs>
       <use xlink:href="#ArialUnicodeMS-30"/>
       <use xlink:href="#ArialUnicodeMS-2e" x="55.615234"/>
       <use xlink:href="#ArialUnicodeMS-30" x="83.398438"/>
       <use xlink:href="#ArialUnicodeMS-38" x="139.013672"/>
      </g>
     </g>
    </g>
    <g id="xtick_5">
     <g id="line2d_9">
      <path d="M 542.167727 310.245625 
L 542.167727 38.461875 
" clip-path="url(#p8510c32f6c)" style="fill: none; stroke-dasharray: 2.96,1.28; stroke-dashoffset: 0; stroke: #eeeeee; stroke-opacity: 0.5; stroke-width: 0.8"/>
     </g>
     <g id="line2d_10">
      <g>
       <use xlink:href="#m524a1edbe9" x="542.167727" y="310.245625" style="fill: #666666; stroke: #666666; stroke-width: 0.8"/>
      </g>
     </g>
     <g id="text_5">
      <!-- 0.10 -->
      <g style="fill: #666666" transform="translate(532.437259 324.403437) scale(0.1 -0.1)">
       <defs>
        <path id="ArialUnicodeMS-31" d="M 2400 0 
L 1838 0 
L 1838 3584 
Q 1416 3184 709 2906 
L 709 3450 
Q 1681 3916 2034 4603 
L 2400 4603 
L 2400 0 
z
" transform="scale(0.015625)"/>
       </defs>
       <use xlink:href="#ArialUnicodeMS-30"/>
       <use xlink:href="#ArialUnicodeMS-2e" x="55.615234"/>
       <use xlink:href="#ArialUnicodeMS-31" x="83.398438"/>
       <use xlink:href="#ArialUnicodeMS-30" x="139.013672"/>
      </g>
     </g>
    </g>
    <g id="text_6">
     <!-- 通胀率 (π) -->
     <g style="fill: #666666" transform="translate(284.112812 346.47375) scale(0.12 -0.12)">
      <defs>
       <path id="ArialUnicodeMS-901a" d="M 1759 4097 
L 1344 3822 
Q 1000 4541 500 4966 
L 856 5228 
Q 1384 4797 1759 4097 
z
M 5703 959 
Q 5703 791 5561 666 
Q 5419 541 5167 528 
Q 4916 516 4647 513 
L 4488 966 
Q 4753 953 4831 953 
Q 5216 953 5216 1119 
L 5216 1644 
L 4178 1644 
L 4178 750 
L 3719 750 
L 3719 1644 
L 2675 1644 
L 2675 609 
L 2216 609 
L 2216 3878 
L 3603 3878 
Q 2941 4109 2778 4153 
L 3144 4531 
Q 3422 4463 3834 4244 
Q 4041 4284 4716 4616 
L 2041 4616 
L 2041 5056 
L 5588 5056 
L 5588 4653 
Q 5019 4213 4294 3950 
L 4428 3878 
L 5703 3878 
L 5703 959 
z
M 5216 2994 
L 5216 3438 
L 4178 3438 
L 4178 2994 
L 5216 2994 
z
M 3719 2994 
L 3719 3438 
L 2675 3438 
L 2675 2994 
L 3719 2994 
z
M 5216 2088 
L 5216 2528 
L 4178 2528 
L 4178 2088 
L 5216 2088 
z
M 3719 2088 
L 3719 2528 
L 2675 2528 
L 2675 2088 
L 3719 2088 
z
M 6094 347 
L 5900 -178 
L 3297 -178 
Q 2531 -178 2154 5 
Q 1778 188 1528 488 
Q 1309 325 563 -341 
L 197 44 
Q 559 313 1275 903 
L 1275 2888 
L 422 2888 
L 422 3328 
L 1759 3328 
L 1759 909 
Q 2050 594 2409 445 
Q 2769 297 3103 294 
L 3713 294 
Q 5228 294 6094 347 
z
" transform="scale(0.015625)"/>
       <path id="ArialUnicodeMS-80c0" d="M 6053 -84 
L 5697 -469 
Q 4422 503 4072 2509 
L 3584 2509 
L 3584 319 
L 4488 769 
L 4488 263 
L 3175 -391 
L 2938 0 
Q 3122 91 3122 263 
L 3122 2509 
L 2619 2509 
L 2619 2975 
L 3122 2975 
L 3122 5216 
L 3584 5216 
L 3584 3578 
Q 4516 4050 5159 5006 
L 5556 4691 
Q 4675 3522 3584 3144 
L 3584 2975 
L 5919 2975 
L 5919 2509 
L 4556 2509 
Q 4716 866 6053 -84 
z
M 2438 97 
Q 2438 -84 2309 -215 
Q 2181 -347 2028 -347 
L 1466 -347 
L 1306 153 
L 1856 122 
Q 1953 184 1953 250 
L 1953 1797 
L 1222 1797 
Q 1206 400 634 -422 
L 225 -147 
Q 738 581 738 1434 
L 738 5025 
L 2438 5025 
L 2438 97 
z
M 1953 3688 
L 1953 4556 
L 1222 4556 
L 1222 3688 
L 1953 3688 
z
M 1953 2266 
L 1953 3219 
L 1222 3219 
L 1222 2266 
L 1953 2266 
z
" transform="scale(0.015625)"/>
       <path id="ArialUnicodeMS-7387" d="M 5663 4313 
L 3469 4313 
Q 3113 3806 2828 3488 
L 3244 3309 
Q 3453 3538 3822 4078 
L 4263 3872 
Q 3531 2878 3022 2356 
L 3809 2406 
Q 3738 2594 3591 2822 
L 4019 2969 
Q 4375 2419 4459 1813 
L 3988 1678 
Q 3988 1806 3938 1966 
L 2150 1819 
L 1997 2316 
L 2431 2328 
Q 2616 2500 2931 2906 
Q 2372 3163 1978 3278 
L 2203 3731 
L 2419 3647 
Q 2634 3900 2888 4313 
L 709 4313 
L 709 4781 
L 2956 4781 
L 2956 5375 
L 3444 5375 
L 3444 4781 
L 5663 4781 
L 5663 4313 
z
M 5734 3922 
Q 5091 3316 4581 3128 
L 4294 3553 
Q 4947 3791 5447 4281 
L 5734 3922 
z
M 1984 3397 
L 1619 3059 
Q 1263 3534 653 3853 
L 947 4184 
Q 1531 3975 1984 3397 
z
M 2131 2597 
Q 1419 2031 763 1813 
L 459 2209 
Q 1238 2447 1863 2994 
L 2131 2597 
z
M 5906 2216 
L 5619 1831 
Q 5109 2341 4306 2553 
L 4550 2938 
Q 5391 2722 5906 2216 
z
M 5941 1038 
L 3456 1038 
L 3456 -441 
L 2963 -441 
L 2963 1038 
L 459 1038 
L 459 1503 
L 2963 1503 
L 2963 1831 
L 3456 1831 
L 3456 1503 
L 5941 1503 
L 5941 1038 
z
" transform="scale(0.015625)"/>
       <path id="ArialUnicodeMS-20" transform="scale(0.015625)"/>
       <path id="ArialUnicodeMS-28" d="M 1900 -1344 
L 1497 -1344 
Q 978 -681 681 103 
Q 384 888 384 1656 
Q 384 2528 700 3275 
Q 1016 4022 1497 4659 
L 1900 4659 
Q 1344 3747 1155 3059 
Q 966 2372 966 1663 
Q 966 153 1900 -1344 
z
" transform="scale(0.015625)"/>
       <path id="ArialUnicodeMS-3c0" d="M 4238 2853 
L 3422 2853 
L 3422 0 
L 2856 0 
L 2856 2853 
L 1481 2853 
L 1481 0 
L 919 0 
L 919 2853 
L 103 2853 
L 103 3316 
L 4238 3316 
L 4238 2853 
z
" transform="scale(0.015625)"/>
       <path id="ArialUnicodeMS-29" d="M 634 4659 
Q 1153 3997 1450 3212 
Q 1747 2428 1747 1656 
Q 1747 788 1431 41 
Q 1116 -706 634 -1344 
L 231 -1344 
Q 788 -431 977 255 
Q 1166 941 1166 1650 
Q 1166 3163 231 4659 
L 634 4659 
z
" transform="scale(0.015625)"/>
      </defs>
      <use xlink:href="#ArialUnicodeMS-901a"/>
      <use xlink:href="#ArialUnicodeMS-80c0" x="100"/>
      <use xlink:href="#ArialUnicodeMS-7387" x="200"/>
      <use xlink:href="#ArialUnicodeMS-20" x="300"/>
      <use xlink:href="#ArialUnicodeMS-28" x="327.783203"/>
      <use xlink:href="#ArialUnicodeMS-3c0" x="361.083984"/>
      <use xlink:href="#ArialUnicodeMS-29" x="428.90625"/>
     </g>
    </g>
   </g>
   <g id="matplotlib.axis_2">
    <g id="ytick_1">
     <g id="line2d_11">
      <path d="M 58.49 280.243523 
L 565.2 280.243523 
" clip-path="url(#p8510c32f6c)" style="fill: none; stroke-dasharray: 2.96,1.28; stroke-dashoffset: 0; stroke: #eeeeee; stroke-opacity: 0.5; stroke-width: 0.8"/>
     </g>
     <g id="line2d_12">
      <defs>
       <path id="m013fb71a58" d="M 0 0 
L -3.5 0 
" style="stroke: #666666; stroke-width: 0.8"/>
      </defs>
      <g>
       <use xlink:href="#m013fb71a58" x="58.49" y="280.243523" style="fill: #666666; stroke: #666666; stroke-width: 0.8"/>
      </g>
     </g>
     <g id="text_7">
      <!-- 0.04 -->
      <g style="fill: #666666" transform="translate(32.029063 283.822429) scale(0.1 -0.1)">
       <use xlink:href="#ArialUnicodeMS-30"/>
       <use xlink:href="#ArialUnicodeMS-2e" x="55.615234"/>
       <use xlink:href="#ArialUnicodeMS-30" x="83.398438"/>
       <use xlink:href="#ArialUnicodeMS-34" x="139.013672"/>
      </g>
     </g>
    </g>
    <g id="ytick_2">
     <g id="line2d_13">
      <path d="M 58.49 244.946932 
L 565.2 244.946932 
" clip-path="url(#p8510c32f6c)" style="fill: none; stroke-dasharray: 2.96,1.28; stroke-dashoffset: 0; stroke: #eeeeee; stroke-opacity: 0.5; stroke-width: 0.8"/>
     </g>
     <g id="line2d_14">
      <g>
       <use xlink:href="#m013fb71a58" x="58.49" y="244.946932" style="fill: #666666; stroke: #666666; stroke-width: 0.8"/>
      </g>
     </g>
     <g id="text_8">
      <!-- 0.06 -->
      <g style="fill: #666666" transform="translate(32.029063 248.525838) scale(0.1 -0.1)">
       <use xlink:href="#ArialUnicodeMS-30"/>
       <use xlink:href="#ArialUnicodeMS-2e" x="55.615234"/>
       <use xlink:href="#ArialUnicodeMS-30" x="83.398438"/>
       <use xlink:href="#ArialUnicodeMS-36" x="139.013672"/>
      </g>
     </g>
    </g>
    <g id="ytick_3">
     <g id="line2d_15">
      <path d="M 58.49 209.650341 
L 565.2 209.650341 
" clip-path="url(#p8510c32f6c)" style="fill: none; stroke-dasharray: 2.96,1.28; stroke-dashoffset: 0; stroke: #eeeeee; stroke-opacity: 0.5; stroke-width: 0.8"/>
     </g>
     <g id="line2d_16">
      <g>
       <use xlink:href="#m013fb71a58" x="58.49" y="209.650341" style="fill: #666666; stroke: #666666; stroke-width: 0.8"/>
      </g>
     </g>
     <g id="text_9">
      <!-- 0.08 -->
      <g style="fill: #666666" transform="translate(32.029063 213.229247) scale(0.1 -0.1)">
       <use xlink:href="#ArialUnicodeMS-30"/>
       <use xlink:href="#ArialUnicodeMS-2e" x="55.615234"/>
       <use xlink:href="#ArialUnicodeMS-30" x="83.398438"/>
       <use xlink:href="#ArialUnicodeMS-38" x="139.013672"/>
      </g>
     </g>
    </g>
    <g id="ytick_4">
     <g id="line2d_17">
      <path d="M 58.49 174.35375 
L 565.2 174.35375 
" clip-path="url(#p8510c32f6c)" style="fill: none; stroke-dasharray: 2.96,1.28; stroke-dashoffset: 0; stroke: #eeeeee; stroke-opacity: 0.5; stroke-width: 0.8"/>
     </g>
     <g id="line2d_18">
      <g>
       <use xlink:href="#m013fb71a58" x="58.49" y="174.35375" style="fill: #666666; stroke: #666666; stroke-width: 0.8"/>
      </g>
     </g>
     <g id="text_10">
      <!-- 0.10 -->
      <g style="fill: #666666" transform="translate(32.029063 177.932656) scale(0.1 -0.1)">
       <use xlink:href="#ArialUnicodeMS-30"/>
       <use xlink:href="#ArialUnicodeMS-2e" x="55.615234"/>
       <use xlink:href="#ArialUnicodeMS-31" x="83.398438"/>
       <use xlink:href="#ArialUnicodeMS-30" x="139.013672"/>
      </g>
     </g>
    </g>
    <g id="ytick_5">
     <g id="line2d_19">
      <path d="M 58.49 139.057159 
L 565.2 139.057159 
" clip-path="url(#p8510c32f6c)" style="fill: none; stroke-dasharray: 2.96,1.28; stroke-dashoffset: 0; stroke: #eeeeee; stroke-opacity: 0.5; stroke-width: 0.8"/>
     </g>
     <g id="line2d_20">
      <g>
       <use xlink:href="#m013fb71a58" x="58.49" y="139.057159" style="fill: #666666; stroke: #666666; stroke-width: 0.8"/>
      </g>
     </g>
     <g id="text_11">
      <!-- 0.12 -->
      <g style="fill: #666666" transform="translate(32.029063 142.636065) scale(0.1 -0.1)">
       <use xlink:href="#ArialUnicodeMS-30"/>
       <use xlink:href="#ArialUnicodeMS-2e" x="55.615234"/>
       <use xlink:href="#ArialUnicodeMS-31" x="83.398438"/>
       <use xlink:href="#ArialUnicodeMS-32" x="139.013672"/>
      </g>
     </g>
    </g>
    <g id="ytick_6">
     <g id="line2d_21">
      <path d="M 58.49 103.760568 
L 565.2 103.760568 
" clip-path="url(#p8510c32f6c)" style="fill: none; stroke-dasharray: 2.96,1.28; stroke-dashoffset: 0; stroke: #eeeeee; stroke-opacity: 0.5; stroke-width: 0.8"/>
     </g>
     <g id="line2d_22">
      <g>
       <use xlink:href="#m013fb71a58" x="58.49" y="103.760568" style="fill: #666666; stroke: #666666; stroke-width: 0.8"/>
      </g>
     </g>
     <g id="text_12">
      <!-- 0.14 -->
      <g style="fill: #666666" transform="translate(32.029063 107.339474) scale(0.1 -0.1)">
       <use xlink:href="#ArialUnicodeMS-30"/>
       <use xlink:href="#ArialUnicodeMS-2e" x="55.615234"/>
       <use xlink:href="#ArialUnicodeMS-31" x="83.398438"/>
       <use xlink:href="#ArialUnicodeMS-34" x="139.013672"/>
      </g>
     </g>
    </g>
    <g id="ytick_7">
     <g id="line2d_23">
      <path d="M 58.49 68.463977 
L 565.2 68.463977 
" clip-path="url(#p8510c32f6c)" style="fill: none; stroke-dasharray: 2.96,1.28; stroke-dashoffset: 0; stroke: #eeeeee; stroke-opacity: 0.5; stroke-width: 0.8"/>
     </g>
     <g id="line2d_24">
      <g>
       <use xlink:href="#m013fb71a58" x="58.49" y="68.463977" style="fill: #666666; stroke: #666666; stroke-width: 0.8"/>
      </g>
     </g>
     <g id="text_13">
      <!-- 0.16 -->
      <g style="fill: #666666" transform="translate(32.029063 72.042884) scale(0.1 -0.1)">
       <use xlink:href="#ArialUnicodeMS-30"/>
       <use xlink:href="#ArialUnicodeMS-2e" x="55.615234"/>
       <use xlink:href="#ArialUnicodeMS-31" x="83.398438"/>
       <use xlink:href="#ArialUnicodeMS-36" x="139.013672"/>
      </g>
     </g>
    </g>
    <g id="text_14">
     <!-- 名义回报率 -->
     <g style="fill: #666666" transform="translate(19.638438 204.35375) rotate(-90) scale(0.12 -0.12)">
      <defs>
       <path id="ArialUnicodeMS-540d" d="M 5306 4166 
Q 5306 4113 5057 3789 
Q 4809 3466 4426 3156 
Q 4044 2847 3556 2590 
Q 3069 2334 2478 2144 
L 5269 2144 
L 5269 -428 
L 4781 -428 
L 4781 -72 
L 2381 -72 
L 2381 -428 
L 1894 -428 
L 1894 1966 
Q 1044 1734 775 1697 
L 359 2131 
Q 1944 2425 2875 2822 
Q 2666 3097 2144 3291 
L 2597 3641 
Q 3072 3388 3309 3041 
Q 4119 3422 4678 4116 
L 2772 4116 
Q 2069 3506 1075 3097 
L 569 3481 
Q 2369 4106 3200 5350 
L 3641 5119 
Q 3503 4881 3244 4581 
L 5306 4581 
L 5306 4166 
z
M 4781 397 
L 4781 1678 
L 2381 1678 
L 2381 397 
L 4781 397 
z
" transform="scale(0.015625)"/>
       <path id="ArialUnicodeMS-4e49" d="M 3744 3816 
L 3303 3547 
Q 3100 4331 2484 5019 
L 2906 5234 
Q 3559 4513 3744 3816 
z
M 6113 -50 
L 5759 -453 
Q 4381 -16 3297 838 
Q 2244 -109 603 -447 
L 347 31 
Q 2003 328 2938 1184 
Q 1816 2369 1528 4588 
L 1991 4794 
Q 2206 3350 2512 2667 
Q 2819 1984 3284 1569 
Q 4269 2709 4525 4728 
L 4991 4550 
Q 4628 2284 3659 1216 
Q 4400 444 6113 -50 
z
" transform="scale(0.015625)"/>
       <path id="ArialUnicodeMS-56de" d="M 5575 -134 
L 5088 -147 
L 5088 313 
L 1313 313 
L 1313 -191 
L 825 -191 
L 825 4825 
L 5575 4825 
L 5575 -134 
z
M 5088 794 
L 5088 4366 
L 1313 4366 
L 1313 794 
L 5088 794 
z
M 4378 1509 
L 1997 1509 
L 1997 3653 
L 4378 3653 
L 4378 1509 
z
M 3891 1972 
L 3891 3194 
L 2484 3194 
L 2484 1972 
L 3891 1972 
z
" transform="scale(0.015625)"/>
       <path id="ArialUnicodeMS-62a5" d="M 2828 3603 
L 1959 3603 
L 1959 2425 
L 2784 2713 
L 2784 2228 
L 1959 1931 
L 1959 219 
Q 1959 -106 1829 -232 
Q 1700 -359 1416 -359 
Q 1181 -359 775 -288 
L 616 213 
Q 1197 109 1334 109 
Q 1453 109 1453 288 
L 1453 1753 
L 550 1428 
L 313 1919 
L 1453 2284 
L 1453 3603 
L 453 3603 
L 453 4072 
L 1453 4072 
L 1453 5247 
L 1959 5247 
L 1959 4072 
L 2828 4072 
L 2828 3603 
z
M 6053 -31 
L 5716 -403 
Q 5125 -69 4716 416 
Q 4522 78 3872 -422 
L 3609 -159 
L 3609 -441 
L 3103 -441 
L 3103 5019 
L 5491 5019 
Q 5463 4247 5355 3901 
Q 5247 3556 5087 3437 
Q 4928 3319 4609 3319 
Q 4359 3319 4078 3391 
L 3956 3884 
Q 4338 3788 4641 3788 
Q 4744 3788 4794 3839 
Q 4844 3891 4900 4087 
Q 4956 4284 4966 4550 
L 3609 4550 
L 3609 3041 
L 5544 3041 
Q 5519 1894 4978 863 
Q 5256 463 6053 -31 
z
M 5038 2572 
L 4353 2572 
Q 4441 1913 4709 1319 
Q 4997 1922 5038 2572 
z
M 4422 856 
Q 4019 1619 3878 2572 
L 3609 2572 
L 3609 31 
Q 4144 369 4422 856 
z
" transform="scale(0.015625)"/>
      </defs>
      <use xlink:href="#ArialUnicodeMS-540d"/>
      <use xlink:href="#ArialUnicodeMS-4e49" x="100"/>
      <use xlink:href="#ArialUnicodeMS-56de" x="200"/>
      <use xlink:href="#ArialUnicodeMS-62a5" x="300"/>
      <use xlink:href="#ArialUnicodeMS-7387" x="400"/>
     </g>
    </g>
   </g>
   <g id="line2d_25">
    <path d="M 81.522273 289.06767 
L 90.9232 287.446909 
L 100.324128 285.826147 
L 109.725056 284.205385 
L 119.125983 282.584623 
L 128.526911 280.963861 
L 137.927839 279.343099 
L 147.328766 277.722338 
L 156.729694 276.101576 
L 166.130622 274.480814 
L 175.531549 272.860052 
L 184.932477 271.23929 
L 194.333404 269.618529 
L 203.734332 267.997767 
L 213.13526 266.377005 
L 222.536187 264.756243 
L 231.937115 263.135481 
L 241.338043 261.514719 
L 250.73897 259.893958 
L 260.139898 258.273196 
L 269.540826 256.652434 
L 278.941753 255.031672 
L 288.342681 253.41091 
L 297.743609 251.790148 
L 307.144536 250.169387 
L 316.545464 248.548625 
L 325.946391 246.927863 
L 335.347319 245.307101 
L 344.748247 243.686339 
L 354.149174 242.065577 
L 363.550102 240.444816 
L 372.95103 238.824054 
L 382.351957 237.203292 
L 391.752885 235.58253 
L 401.153813 233.961768 
L 410.55474 232.341006 
L 419.955668 230.720245 
L 429.356596 229.099483 
L 438.757523 227.478721 
L 448.158451 225.857959 
L 457.559378 224.237197 
L 466.960306 222.616436 
L 476.361234 220.995674 
L 485.762161 219.374912 
L 495.163089 217.75415 
L 504.564017 216.133388 
L 513.964944 214.512626 
L 523.365872 212.891865 
L 532.7668 211.271103 
L 542.167727 209.650341 
" clip-path="url(#p8510c32f6c)" style="fill: none; stroke: #94a3b8; stroke-width: 2.5; stroke-linecap: square"/>
   </g>
   <g id="line2d_26">
    <path d="M 81.522273 297.891818 
L 90.9232 294.650295 
L 100.324128 291.408771 
L 109.725056 288.167247 
L 119.125983 284.925724 
L 128.526911 281.6842 
L 137.927839 278.442676 
L 147.328766 275.201153 
L 156.729694 271.959629 
L 166.130622 268.718105 
L 175.531549 265.476582 
L 184.932477 262.235058 
L 194.333404 258.993534 
L 203.734332 255.752011 
L 213.13526 252.510487 
L 222.536187 249.268963 
L 231.937115 246.02744 
L 241.338043 242.785916 
L 250.73897 239.544392 
L 260.139898 236.302869 
L 269.540826 233.061345 
L 278.941753 229.819821 
L 288.342681 226.578298 
L 297.743609 223.336774 
L 307.144536 220.09525 
L 316.545464 216.853727 
L 325.946391 213.612203 
L 335.347319 210.370679 
L 344.748247 207.129156 
L 354.149174 203.887632 
L 363.550102 200.646109 
L 372.95103 197.404585 
L 382.351957 194.163061 
L 391.752885 190.921538 
L 401.153813 187.680014 
L 410.55474 184.43849 
L 419.955668 181.196967 
L 429.356596 177.955443 
L 438.757523 174.713919 
L 448.158451 171.472396 
L 457.559378 168.230872 
L 466.960306 164.989348 
L 476.361234 161.747825 
L 485.762161 158.506301 
L 495.163089 155.264777 
L 504.564017 152.023254 
L 513.964944 148.78173 
L 523.365872 145.540206 
L 532.7668 142.298683 
L 542.167727 139.057159 
" clip-path="url(#p8510c32f6c)" style="fill: none; stroke-dasharray: 1.5,2.475; stroke-dashoffset: 0; stroke: #cbd5e1; stroke-width: 1.5"/>
   </g>
   <g id="line2d_27">
    <path d="M 81.522273 289.06767 
L 90.9232 284.205385 
L 100.324128 279.343099 
L 109.725056 274.480814 
L 119.125983 269.618529 
L 128.526911 264.756243 
L 137.927839 259.893958 
L 147.328766 255.031672 
L 156.729694 250.169387 
L 166.130622 245.307101 
L 175.531549 240.444816 
L 184.932477 235.58253 
L 194.333404 230.720245 
L 203.734332 225.857959 
L 213.13526 220.995674 
L 222.536187 216.133388 
L 231.937115 211.271103 
L 241.338043 206.408817 
L 250.73897 201.546532 
L 260.139898 196.684246 
L 269.540826 191.821961 
L 278.941753 186.959675 
L 288.342681 182.09739 
L 297.743609 177.235104 
L 307.144536 172.372819 
L 316.545464 167.510533 
L 325.946391 162.648248 
L 335.347319 157.785962 
L 344.748247 152.923677 
L 354.149174 148.061391 
L 363.550102 143.199106 
L 372.95103 138.336821 
L 382.351957 133.474535 
L 391.752885 128.61225 
L 401.153813 123.749964 
L 410.55474 118.887679 
L 419.955668 114.025393 
L 429.356596 109.163108 
L 438.757523 104.300822 
L 448.158451 99.438537 
L 457.559378 94.576251 
L 466.960306 89.713966 
L 476.361234 84.85168 
L 485.762161 79.989395 
L 495.163089 75.127109 
L 504.564017 70.264824 
L 513.964944 65.402538 
L 523.365872 60.540253 
L 532.7668 55.677967 
L 542.167727 50.815682 
" clip-path="url(#p8510c32f6c)" style="fill: none; stroke: #ef4444; stroke-width: 2.5; stroke-linecap: square"/>
   </g>
   <g id="patch_3">
    <path d="M 58.49 310.245625 
L 58.49 38.461875 
" style="fill: none; stroke: #dddddd; stroke-width: 0.8; stroke-linejoin: miter; stroke-linecap: square"/>
   </g>
   <g id="patch_4">
    <path d="M 58.49 310.245625 
L 565.2 310.245625 
" style="fill: none; stroke: #dddddd; stroke-width: 0.8; stroke-linejoin: miter; stroke-linecap: square"/>
   </g>
   <g id="text_15">
    <!-- 艺术品回报率与通胀率的关系 (β &gt; 1) -->
    <g style="fill: #333333" transform="translate(190.32625 23.461875) scale(0.15 -0.15)">
     <defs>
      <path id="ArialUnicodeMS-827a" d="M 5881 4172 
L 4256 4172 
L 4256 3494 
L 3775 3494 
L 3775 4172 
L 2497 4172 
L 2497 3494 
L 2016 3494 
L 2016 4172 
L 441 4172 
L 441 4616 
L 2016 4616 
L 2016 5247 
L 2497 5247 
L 2497 4616 
L 3775 4616 
L 3775 5247 
L 4256 5247 
L 4256 4616 
L 5881 4616 
L 5881 4172 
z
M 5663 916 
Q 5522 -184 5006 -184 
L 1709 -184 
Q 1484 -184 1356 -32 
Q 1228 119 1228 338 
Q 1228 650 1828 1256 
Q 2428 1863 3681 2706 
L 3681 2713 
L 1325 2713 
L 1325 3181 
L 4494 3181 
L 4494 2725 
Q 3250 1931 2486 1186 
Q 1722 441 1722 338 
Q 1722 281 1772 281 
L 4825 281 
Q 5103 281 5172 1106 
L 5663 916 
z
" transform="scale(0.015625)"/>
      <path id="ArialUnicodeMS-672f" d="M 6059 494 
L 5716 103 
Q 5100 413 4472 1198 
Q 3844 1984 3513 3291 
L 3372 3291 
L 3372 -441 
L 2888 -441 
L 2888 3291 
L 2747 3291 
Q 2241 1028 563 109 
L 219 481 
Q 1775 1356 2278 3291 
L 391 3291 
L 391 3756 
L 2888 3756 
L 2888 5216 
L 3372 5216 
L 3372 3756 
L 5850 3756 
L 5850 3291 
L 3975 3291 
Q 4609 1278 6059 494 
z
M 5125 4159 
L 4750 3859 
Q 4403 4409 3744 4738 
L 4056 5050 
Q 4722 4747 5125 4159 
z
" transform="scale(0.015625)"/>
      <path id="ArialUnicodeMS-54c1" d="M 4997 2963 
L 1363 2963 
L 1363 5069 
L 4997 5069 
L 4997 2963 
z
M 4575 3378 
L 4575 4653 
L 1806 4653 
L 1806 3378 
L 4575 3378 
z
M 5656 -372 
L 5172 -372 
L 5172 72 
L 3956 72 
L 3956 -372 
L 3469 -372 
L 3469 2491 
L 5656 2491 
L 5656 -372 
z
M 5172 538 
L 5172 2022 
L 3956 2022 
L 3956 538 
L 5172 538 
z
M 2894 -397 
L 2406 -397 
L 2406 38 
L 1228 38 
L 1228 -422 
L 744 -409 
L 744 2472 
L 2894 2472 
L 2894 -397 
z
M 2406 506 
L 2406 2003 
L 1228 2003 
L 1228 506 
L 2406 506 
z
" transform="scale(0.015625)"/>
      <path id="ArialUnicodeMS-4e0e" d="M 5953 3916 
L 1881 3916 
L 1784 3028 
L 5153 3028 
L 5081 1734 
L 5919 1734 
L 5919 1234 
L 5050 1234 
Q 4984 100 4750 -154 
Q 4516 -409 4159 -409 
Q 3856 -409 3225 -269 
L 3144 300 
Q 3863 103 4091 103 
Q 4253 103 4348 201 
Q 4444 300 4487 711 
Q 4531 1122 4531 1234 
L 434 1234 
L 434 1734 
L 4569 1734 
Q 4597 2088 4609 2509 
L 1728 2509 
L 1672 2069 
L 1172 2113 
L 1528 5281 
L 2041 5228 
L 1947 4428 
L 5953 4428 
L 5953 3916 
z
" transform="scale(0.015625)"/>
      <path id="ArialUnicodeMS-7684" d="M 5644 4281 
Q 5619 1694 5395 673 
Q 5172 -347 4606 -347 
Q 4350 -347 3609 -134 
L 3525 403 
Q 4247 134 4531 134 
Q 4806 134 4976 1142 
Q 5147 2150 5159 3841 
L 3794 3841 
Q 3550 3166 3053 2497 
L 2719 2713 
L 2719 -147 
L 2216 -147 
L 2216 269 
L 1153 269 
L 1153 -250 
L 647 -250 
L 647 4184 
L 1234 4184 
Q 1494 4644 1625 5313 
L 2088 5125 
Q 1903 4444 1741 4184 
L 2719 4184 
L 2719 2881 
Q 3431 3888 3681 5363 
L 4191 5247 
Q 4106 4869 3916 4281 
L 5644 4281 
z
M 2216 2484 
L 2216 3719 
L 1153 3719 
L 1153 2484 
L 2216 2484 
z
M 2216 738 
L 2216 2016 
L 1153 2016 
L 1153 738 
L 2216 738 
z
M 4775 1369 
L 4313 1166 
Q 4034 1925 3444 2669 
L 3841 2931 
Q 4484 2191 4775 1369 
z
" transform="scale(0.015625)"/>
      <path id="ArialUnicodeMS-5173" d="M 5881 -38 
L 5516 -397 
Q 4691 -63 4152 460 
Q 3613 984 3244 1941 
L 3156 1941 
Q 2881 1134 2139 467 
Q 1397 -200 575 -397 
L 244 -13 
Q 1122 272 1767 803 
Q 2413 1334 2644 1941 
L 366 1941 
L 366 2406 
L 2759 2406 
Q 2784 2628 2784 3525 
L 738 3525 
L 738 3969 
L 2222 3969 
Q 1884 4613 1441 5106 
L 1838 5306 
Q 2359 4784 2747 3969 
L 3378 3969 
Q 3725 4450 4072 5319 
L 4519 5119 
Q 4209 4425 3903 3969 
L 5441 3969 
L 5441 3525 
L 3272 3525 
Q 3253 2594 3231 2406 
L 5819 2406 
L 5819 1941 
L 3781 1941 
Q 4272 669 5881 -38 
z
" transform="scale(0.015625)"/>
      <path id="ArialUnicodeMS-7cfb" d="M 5819 1625 
L 5422 1313 
Q 5166 1669 5094 1741 
L 3475 1741 
L 3475 -409 
L 2969 -409 
L 2969 1741 
L 972 1741 
L 872 2209 
L 1778 2209 
Q 2222 2434 2613 2753 
L 1159 3406 
L 1422 3822 
L 1875 3616 
Q 2391 3944 2797 4378 
Q 1788 4269 850 4256 
L 647 4744 
Q 3603 4766 5234 5331 
L 5575 4922 
Q 4509 4569 3231 4428 
L 3431 4300 
Q 2878 3759 2316 3406 
L 3047 3059 
Q 3881 3666 4469 4263 
L 4897 3956 
Q 3697 2856 2572 2209 
L 4703 2209 
Q 4344 2522 4050 2700 
L 4441 2950 
Q 5266 2481 5819 1625 
z
M 2444 1228 
Q 1816 372 716 -84 
L 397 313 
Q 1453 709 2053 1538 
L 2444 1228 
z
M 6028 300 
L 5697 -97 
Q 4938 747 4025 1119 
L 4319 1472 
Q 5294 1069 6028 300 
z
" transform="scale(0.015625)"/>
      <path id="ArialUnicodeMS-3b2" d="M 2241 2516 
Q 2819 2453 3098 2100 
Q 3378 1747 3378 1300 
Q 3378 713 3015 317 
Q 2653 -78 2022 -78 
Q 1672 -78 1450 37 
Q 1228 153 1175 220 
Q 1122 288 984 422 
L 984 -1275 
L 422 -1275 
L 422 3272 
Q 422 3944 837 4301 
Q 1253 4659 1844 4659 
Q 2394 4659 2748 4321 
Q 3103 3984 3103 3506 
Q 3103 3147 2879 2872 
Q 2656 2597 2241 2516 
z
M 1478 2700 
Q 2578 2700 2578 3475 
Q 2578 3778 2354 3987 
Q 2131 4197 1797 4197 
Q 984 4197 984 3256 
L 984 1516 
Q 984 969 1268 655 
Q 1553 341 1953 341 
Q 2322 341 2562 597 
Q 2803 853 2803 1269 
Q 2803 1716 2498 2003 
Q 2194 2291 1619 2291 
L 1478 2291 
L 1478 2700 
z
" transform="scale(0.015625)"/>
      <path id="ArialUnicodeMS-3e" d="M 3384 1991 
L 353 709 
L 353 1269 
L 2759 2253 
L 353 3250 
L 353 3809 
L 3384 2516 
L 3384 1991 
z
" transform="scale(0.015625)"/>
     </defs>
     <use xlink:href="#ArialUnicodeMS-827a"/>
     <use xlink:href="#ArialUnicodeMS-672f" x="100"/>
     <use xlink:href="#ArialUnicodeMS-54c1" x="200"/>
     <use xlink:href="#ArialUnicodeMS-56de" x="300"/>
     <use xlink:href="#ArialUnicodeMS-62a5" x="400"/>
     <use xlink:href="#ArialUnicodeMS-7387" x="500"/>
     <use xlink:href="#ArialUnicodeMS-4e0e" x="600"/>
     <use xlink:href="#ArialUnicodeMS-901a" x="700"/>
     <use xlink:href="#ArialUnicodeMS-80c0" x="800"/>
     <use xlink:href="#ArialUnicodeMS-7387" x="900"/>
     <use xlink:href="#ArialUnicodeMS-7684" x="1000"/>
     <use xlink:href="#ArialUnicodeMS-5173" x="1100"/>
     <use xlink:href="#ArialUnicodeMS-7cfb" x="1200"/>
     <use xlink:href="#ArialUnicodeMS-20" x="1300"/>
     <use xlink:href="#ArialUnicodeMS-28" x="1327.783203"/>
     <use xlink:href="#ArialUnicodeMS-3b2" x="1361.083984"/>
     <use xlink:href="#ArialUnicodeMS-20" x="1417.382812"/>
     <use xlink:href="#ArialUnicodeMS-3e" x="1445.166016"/>
     <use xlink:href="#ArialUnicodeMS-20" x="1503.564453"/>
     <use xlink:href="#ArialUnicodeMS-31" x="1531.347656"/>
     <use xlink:href="#ArialUnicodeMS-29" x="1586.962891"/>
    </g>
   </g>
   <g id="legend_1">
    <g id="line2d_28">
     <path d="M 68.39 53.7175 
L 79.39 53.7175 
L 90.39 53.7175 
" style="fill: none; stroke: #94a3b8; stroke-width: 2.5; stroke-linecap: square"/>
    </g>
    <g id="text_16">
     <!-- 债券 (β=0.5) -->
     <g transform="translate(99.19 57.5675) scale(0.11 -0.11)">
      <defs>
       <path id="ArialUnicodeMS-503a" d="M 2059 5100 
Q 1981 4678 1788 4091 
L 1594 3519 
L 1594 -428 
L 1106 -428 
L 1106 2606 
L 1094 2619 
Q 934 2272 616 1919 
L 225 2234 
Q 1322 3544 1631 5294 
L 2059 5100 
z
M 5844 2853 
L 1825 2853 
L 1825 3322 
L 3541 3322 
L 3541 3566 
L 2309 3566 
L 2309 4006 
L 3541 4006 
L 3541 4238 
L 2125 4238 
L 2125 4703 
L 3541 4703 
L 3541 5275 
L 4025 5275 
L 4025 4703 
L 5600 4703 
L 5600 4238 
L 4019 4238 
L 4025 4006 
L 5350 4006 
L 5350 3566 
L 4025 3566 
L 4025 3322 
L 5844 3322 
L 5844 2853 
z
M 5350 594 
L 4863 594 
L 4863 2175 
L 2700 2175 
L 2700 550 
L 2216 550 
L 2216 2644 
L 5350 2644 
L 5350 594 
z
M 4019 1913 
Q 4019 1034 3819 629 
Q 3619 225 3125 -54 
Q 2631 -334 2009 -434 
L 1753 56 
Q 2222 81 2603 240 
Q 2984 400 3209 665 
Q 3434 931 3486 1203 
Q 3538 1475 3547 1966 
L 4019 1913 
z
M 5753 -122 
L 5453 -550 
Q 4847 13 3809 378 
L 4091 775 
Q 5041 488 5753 -122 
z
" transform="scale(0.015625)"/>
       <path id="ArialUnicodeMS-5238" d="M 6094 1588 
L 5778 1159 
Q 5256 1328 4788 1663 
Q 4681 578 4565 148 
Q 4450 -281 3878 -281 
Q 3669 -281 3122 -172 
L 3009 313 
Q 3553 178 3866 178 
Q 4009 178 4071 268 
Q 4134 359 4189 617 
Q 4244 875 4306 1538 
L 3297 1538 
Q 3038 -175 813 -353 
L 603 134 
Q 2613 163 2822 1538 
L 2016 1538 
L 2016 1959 
Q 1447 1488 722 1178 
L 441 1600 
Q 1334 1994 1991 2591 
L 756 2591 
L 756 3059 
L 2375 3059 
Q 2603 3338 2675 3547 
L 1119 3547 
L 1119 4013 
L 2834 4013 
Q 3013 4563 3022 5356 
L 3500 5325 
Q 3500 4622 3353 4013 
L 5369 4013 
L 5369 3547 
L 3956 3547 
Q 4047 3278 4153 3059 
L 5722 3059 
L 5722 2591 
L 4453 2591 
Q 5059 1903 6094 1588 
z
M 3634 3059 
Q 3516 3328 3456 3547 
L 3213 3547 
Q 3041 3166 2975 3059 
L 3634 3059 
z
M 4359 2003 
Q 4113 2225 3866 2591 
L 2644 2591 
Q 2347 2234 2081 2003 
L 4359 2003 
z
M 5159 4878 
Q 4716 4272 4238 4031 
L 3884 4391 
Q 4434 4613 4813 5184 
L 5159 4878 
z
M 2509 4397 
L 2119 4097 
Q 1716 4613 1106 4844 
L 1472 5153 
Q 1966 5028 2509 4397 
z
" transform="scale(0.015625)"/>
       <path id="ArialUnicodeMS-3d" d="M 3384 2694 
L 353 2694 
L 353 3219 
L 3384 3219 
L 3384 2694 
z
M 3384 1300 
L 353 1300 
L 353 1825 
L 3384 1825 
L 3384 1300 
z
" transform="scale(0.015625)"/>
       <path id="ArialUnicodeMS-35" d="M 1013 2753 
Q 1431 3041 1881 3041 
Q 2453 3041 2878 2636 
Q 3303 2231 3303 1556 
Q 3303 875 2872 398 
Q 2441 -78 1741 -78 
Q 1169 -78 750 245 
Q 331 569 269 1203 
L 856 1247 
Q 928 813 1162 598 
Q 1397 384 1741 384 
Q 2169 384 2434 707 
Q 2700 1031 2700 1503 
Q 2700 1984 2428 2262 
Q 2156 2541 1728 2541 
Q 1188 2541 897 2100 
L 366 2163 
L 813 4519 
L 3084 4519 
L 3084 3975 
L 1259 3975 
L 1013 2753 
z
" transform="scale(0.015625)"/>
      </defs>
      <use xlink:href="#ArialUnicodeMS-503a"/>
      <use xlink:href="#ArialUnicodeMS-5238" x="100"/>
      <use xlink:href="#ArialUnicodeMS-20" x="200"/>
      <use xlink:href="#ArialUnicodeMS-28" x="227.783203"/>
      <use xlink:href="#ArialUnicodeMS-3b2" x="261.083984"/>
      <use xlink:href="#ArialUnicodeMS-3d" x="317.382812"/>
      <use xlink:href="#ArialUnicodeMS-30" x="375.78125"/>
      <use xlink:href="#ArialUnicodeMS-2e" x="431.396484"/>
      <use xlink:href="#ArialUnicodeMS-35" x="459.179688"/>
      <use xlink:href="#ArialUnicodeMS-29" x="514.794922"/>
     </g>
    </g>
    <g id="line2d_29">
     <path d="M 68.39 70.755469 
L 79.39 70.755469 
L 90.39 70.755469 
" style="fill: none; stroke-dasharray: 1.5,2.475; stroke-dashoffset: 0; stroke: #cbd5e1; stroke-width: 1.5"/>
    </g>
    <g id="text_17">
     <!-- 完全对冲线 (β=1) -->
     <g transform="translate(99.19 74.605469) scale(0.11 -0.11)">
      <defs>
       <path id="ArialUnicodeMS-5b8c" d="M 5722 3469 
L 5247 3469 
L 5247 4166 
L 1159 4166 
L 1159 3469 
L 678 3469 
L 678 4634 
L 2956 4634 
L 2956 5369 
L 3444 5369 
L 3444 4634 
L 5722 4634 
L 5722 3469 
z
M 4831 3053 
L 1550 3053 
L 1550 3519 
L 4831 3519 
L 4831 3053 
z
M 6053 878 
Q 5925 116 5762 -76 
Q 5600 -269 5363 -269 
L 4031 -269 
Q 3566 -269 3566 256 
L 3566 1931 
L 2797 1931 
Q 2659 -34 678 -397 
L 384 72 
Q 2272 297 2284 1931 
L 831 1931 
L 831 2400 
L 5619 2400 
L 5619 1931 
L 4050 1931 
L 4050 422 
Q 4050 197 4244 197 
L 5141 197 
Q 5378 197 5451 369 
Q 5525 541 5575 1131 
L 6053 878 
z
" transform="scale(0.015625)"/>
       <path id="ArialUnicodeMS-5168" d="M 5984 2963 
L 5703 2522 
Q 5419 2628 4872 2869 
L 4872 2613 
L 3366 2613 
L 3366 1728 
L 4691 1728 
L 4691 1259 
L 3366 1259 
L 3366 319 
L 5678 319 
L 5678 -147 
L 603 -147 
L 603 319 
L 2881 319 
L 2881 1259 
L 1556 1259 
L 1556 1728 
L 2881 1728 
L 2881 2613 
L 1344 2613 
L 1344 2841 
Q 1250 2766 544 2491 
L 256 2925 
Q 2109 3556 3066 5141 
L 3531 4928 
L 3419 4738 
Q 4144 3581 5984 2963 
z
M 4603 3072 
Q 3694 3488 3097 4313 
Q 2572 3578 1703 3072 
L 4603 3072 
z
" transform="scale(0.015625)"/>
       <path id="ArialUnicodeMS-5bf9" d="M 5856 3616 
L 5247 3616 
L 5247 38 
Q 5206 -163 5042 -273 
Q 4878 -384 4806 -384 
L 4103 -384 
L 3944 103 
Q 4438 63 4678 63 
Q 4716 63 4763 134 
L 4763 3616 
L 2988 3616 
L 2988 4084 
L 4763 4084 
L 4763 5306 
L 5247 5306 
L 5247 4084 
L 5856 4084 
L 5856 3616 
z
M 3175 366 
L 2694 153 
Q 2422 1059 2100 1538 
Q 1609 353 525 -384 
L 153 -13 
Q 1288 719 1813 1984 
Q 1306 2706 628 3256 
L 984 3541 
Q 1794 2828 2009 2497 
Q 2341 3403 2381 4116 
L 359 4116 
L 359 4556 
L 2869 4556 
Q 2844 3303 2328 2028 
Q 2866 1222 3175 366 
z
M 4441 1453 
L 3988 1178 
Q 3663 2072 3091 2700 
L 3444 2950 
Q 4084 2334 4441 1453 
z
" transform="scale(0.015625)"/>
       <path id="ArialUnicodeMS-51b2" d="M 5741 1434 
L 5253 1434 
L 5253 1806 
L 4134 1806 
L 4134 -391 
L 3647 -391 
L 3647 1806 
L 2553 1806 
L 2553 1434 
L 2069 1434 
L 2069 4097 
L 3647 4097 
L 3647 5331 
L 4134 5331 
L 4134 4097 
L 5741 4097 
L 5741 1434 
z
M 5253 2272 
L 5253 3628 
L 4134 3628 
L 4134 2272 
L 5253 2272 
z
M 3647 2272 
L 3647 3628 
L 2553 3628 
L 2553 2272 
L 3647 2272 
z
M 1913 3475 
L 1503 3163 
Q 1294 3975 416 4603 
L 794 4884 
Q 1609 4300 1913 3475 
z
M 1819 2559 
Q 1597 919 653 -128 
L 281 197 
Q 1172 1128 1381 2772 
L 1819 2559 
z
" transform="scale(0.015625)"/>
       <path id="ArialUnicodeMS-7ebf" d="M 2503 3981 
Q 1903 2625 1141 1947 
L 1153 1931 
L 2444 2144 
L 2456 1709 
Q 1428 1534 575 1313 
L 341 1772 
Q 934 2234 1344 2919 
L 563 2725 
L 347 3206 
Q 1059 4156 1325 5319 
Q 1403 5288 1551 5209 
Q 1700 5131 1791 5100 
Q 1441 3947 959 3316 
Q 1597 3375 1650 3397 
Q 1944 3938 2059 4225 
L 2503 3981 
z
M 5997 481 
Q 5925 44 5808 -170 
Q 5691 -384 5497 -384 
Q 5319 -384 4869 -115 
Q 4419 153 4031 666 
Q 3594 188 2388 -341 
L 2088 72 
Q 3097 466 3763 1088 
Q 3503 1550 3406 2419 
L 2484 2272 
L 2406 2725 
L 3378 2900 
L 3378 3397 
L 2606 3278 
L 2522 3731 
L 3378 3891 
L 3378 5209 
Q 3763 5288 3866 5294 
L 3866 3975 
L 5409 4231 
L 5497 3781 
Q 4550 3622 3866 3481 
L 3866 2994 
L 5772 3341 
Q 5825 3150 5856 2875 
L 3884 2516 
Q 3988 1794 4147 1466 
Q 4731 1991 5075 2484 
L 5453 2222 
Q 4731 1353 4372 1025 
Q 4753 456 5403 153 
Q 5494 378 5509 750 
L 5997 481 
z
M 5166 4544 
L 4831 4225 
Q 4478 4656 4019 4856 
L 4306 5178 
Q 4784 4956 5166 4544 
z
M 2578 872 
L 531 134 
Q 500 197 412 347 
Q 325 497 281 603 
L 2578 1369 
L 2578 872 
z
" transform="scale(0.015625)"/>
      </defs>
      <use xlink:href="#ArialUnicodeMS-5b8c"/>
      <use xlink:href="#ArialUnicodeMS-5168" x="100"/>
      <use xlink:href="#ArialUnicodeMS-5bf9" x="200"/>
      <use xlink:href="#ArialUnicodeMS-51b2" x="300"/>
      <use xlink:href="#ArialUnicodeMS-7ebf" x="400"/>
      <use xlink:href="#ArialUnicodeMS-20" x="500"/>
      <use xlink:href="#ArialUnicodeMS-28" x="527.783203"/>
      <use xlink:href="#ArialUnicodeMS-3b2" x="561.083984"/>
      <use xlink:href="#ArialUnicodeMS-3d" x="617.382812"/>
      <use xlink:href="#ArialUnicodeMS-31" x="675.78125"/>
      <use xlink:href="#ArialUnicodeMS-29" x="731.396484"/>
     </g>
    </g>
    <g id="line2d_30">
     <path d="M 68.39 87.58375 
L 79.39 87.58375 
L 90.39 87.58375 
" style="fill: none; stroke: #ef4444; stroke-width: 2.5; stroke-linecap: square"/>
    </g>
    <g id="text_18">
     <!-- 艺术品 (β=1.5) -->
     <g transform="translate(99.19 91.43375) scale(0.11 -0.11)">
      <use xlink:href="#ArialUnicodeMS-827a"/>
      <use xlink:href="#ArialUnicodeMS-672f" x="100"/>
      <use xlink:href="#ArialUnicodeMS-54c1" x="200"/>
      <use xlink:href="#ArialUnicodeMS-20" x="300"/>
      <use xlink:href="#ArialUnicodeMS-28" x="327.783203"/>
      <use xlink:href="#ArialUnicodeMS-3b2" x="361.083984"/>
      <use xlink:href="#ArialUnicodeMS-3d" x="417.382812"/>
      <use xlink:href="#ArialUnicodeMS-31" x="475.78125"/>
      <use xlink:href="#ArialUnicodeMS-2e" x="531.396484"/>
      <use xlink:href="#ArialUnicodeMS-35" x="559.179688"/>
      <use xlink:href="#ArialUnicodeMS-29" x="614.794922"/>
     </g>
    </g>
   </g>
  </g>
 </g>
 <defs>
  <clipPath id="p8510c32f6c">
   <rect x="58.49" y="38.461875" width="506.71" height="271.78375"/>
  </clipPath>
 </defs>
</svg>
