<?xml version="1.0" encoding="utf-8" standalone="no"?>
<!DOCTYPE svg PUBLIC "-//W3C//DTD SVG 1.1//EN"
  "http://www.w3.org/Graphics/SVG/1.1/DTD/svg11.dtd">
<svg xmlns:xlink="http://www.w3.org/1999/xlink" width="432pt" height="288pt" viewBox="0 0 432 288" xmlns="http://www.w3.org/2000/svg" version="1.1">
 <metadata>
  <rdf:RDF xmlns:dc="http://purl.org/dc/elements/1.1/" xmlns:cc="http://creativecommons.org/ns#" xmlns:rdf="http://www.w3.org/1999/02/22-rdf-syntax-ns#">
   <cc:Work>
    <dc:type rdf:resource="http://purl.org/dc/dcmitype/StillImage"/>
    <dc:date>2026-05-11T09:52:22.181147</dc:date>
    <dc:format>image/svg+xml</dc:format>
    <dc:creator>
     <cc:Agent>
      <dc:title>Matplotlib v3.9.4, https://matplotlib.org/</dc:title>
     </cc:Agent>
    </dc:creator>
   </cc:Work>
  </rdf:RDF>
 </metadata>
 <defs>
  <style type="text/css">*{stroke-linejoin: round; stroke-linecap: butt}</style>
 </defs>
 <g id="figure_1">
  <g id="patch_1">
   <path d="M 0 288 
L 432 288 
L 432 0 
L 0 0 
z
" style="fill: #ffffff"/>
  </g>
  <g id="axes_1">
   <g id="patch_2">
    <path d="M 53.924375 242.8 
L 421.2 242.8 
L 421.2 10.8 
L 53.924375 10.8 
z
" style="fill: #ffffff"/>
   </g>
   <g id="matplotlib.axis_1">
    <g id="xtick_1">
     <g id="line2d_1">
      <path d="M 70.618722 242.8 
L 70.618722 10.8 
" clip-path="url(#pafd2e6bf19)" style="fill: none; stroke-dasharray: 2.96,1.28; stroke-dashoffset: 0; stroke: #b0b0b0; stroke-opacity: 0.3; stroke-width: 0.8"/>
     </g>
     <g id="line2d_2">
      <defs>
       <path id="m94cadb2ae1" d="M 0 0 
L 0 3.5 
" style="stroke: #000000; stroke-width: 0.8"/>
      </defs>
      <g>
       <use xlink:href="#m94cadb2ae1" x="70.618722" y="242.8" style="stroke: #000000; stroke-width: 0.8"/>
      </g>
     </g>
     <g id="text_1">
      <!-- 0 -->
      <g transform="translate(67.838253 256.957812) scale(0.1 -0.1)">
       <defs>
        <path id="ArialUnicodeMS-30" d="M 1778 4603 
Q 3272 4603 3272 2259 
Q 3272 1075 2886 498 
Q 2500 -78 1778 -78 
Q 288 -78 288 2259 
Q 288 3444 673 4023 
Q 1059 4603 1778 4603 
z
M 1778 384 
Q 2231 384 2462 823 
Q 2694 1263 2694 2259 
Q 2694 2953 2592 3351 
Q 2491 3750 2286 3945 
Q 2081 4141 1772 4141 
Q 1319 4141 1091 3694 
Q 863 3247 863 2259 
Q 863 1575 966 1175 
Q 1069 775 1272 579 
Q 1475 384 1778 384 
z
" transform="scale(0.015625)"/>
       </defs>
       <use xlink:href="#ArialUnicodeMS-30"/>
      </g>
     </g>
    </g>
    <g id="xtick_2">
     <g id="line2d_3">
      <path d="M 137.396108 242.8 
L 137.396108 10.8 
" clip-path="url(#pafd2e6bf19)" style="fill: none; stroke-dasharray: 2.96,1.28; stroke-dashoffset: 0; stroke: #b0b0b0; stroke-opacity: 0.3; stroke-width: 0.8"/>
     </g>
     <g id="line2d_4">
      <g>
       <use xlink:href="#m94cadb2ae1" x="137.396108" y="242.8" style="stroke: #000000; stroke-width: 0.8"/>
      </g>
     </g>
     <g id="text_2">
      <!-- 2 -->
      <g transform="translate(134.615639 256.957812) scale(0.1 -0.1)">
       <defs>
        <path id="ArialUnicodeMS-32" d="M 3231 0 
L 197 0 
Q 197 388 467 784 
Q 738 1181 1478 1778 
Q 1931 2141 2287 2539 
Q 2644 2938 2644 3341 
Q 2644 3688 2398 3914 
Q 2153 4141 1778 4141 
Q 1400 4141 1144 3908 
Q 888 3675 884 3213 
L 306 3278 
Q 359 3922 764 4262 
Q 1169 4603 1791 4603 
Q 2466 4603 2842 4229 
Q 3219 3856 3219 3328 
Q 3219 2888 2901 2436 
Q 2584 1984 1638 1228 
Q 1141 831 978 544 
L 3231 544 
L 3231 0 
z
" transform="scale(0.015625)"/>
       </defs>
       <use xlink:href="#ArialUnicodeMS-32"/>
      </g>
     </g>
    </g>
    <g id="xtick_3">
     <g id="line2d_5">
      <path d="M 204.173494 242.8 
L 204.173494 10.8 
" clip-path="url(#pafd2e6bf19)" style="fill: none; stroke-dasharray: 2.96,1.28; stroke-dashoffset: 0; stroke: #b0b0b0; stroke-opacity: 0.3; stroke-width: 0.8"/>
     </g>
     <g id="line2d_6">
      <g>
       <use xlink:href="#m94cadb2ae1" x="204.173494" y="242.8" style="stroke: #000000; stroke-width: 0.8"/>
      </g>
     </g>
     <g id="text_3">
      <!-- 4 -->
      <g transform="translate(201.393026 256.957812) scale(0.1 -0.1)">
       <defs>
        <path id="ArialUnicodeMS-34" d="M 3263 1094 
L 2644 1094 
L 2644 0 
L 2081 0 
L 2081 1094 
L 97 1094 
L 97 1613 
L 2181 4581 
L 2644 4581 
L 2644 1613 
L 3263 1613 
L 3263 1094 
z
M 2081 1613 
L 2081 3681 
L 2069 3681 
L 647 1613 
L 2081 1613 
z
" transform="scale(0.015625)"/>
       </defs>
       <use xlink:href="#ArialUnicodeMS-34"/>
      </g>
     </g>
    </g>
    <g id="xtick_4">
     <g id="line2d_7">
      <path d="M 270.950881 242.8 
L 270.950881 10.8 
" clip-path="url(#pafd2e6bf19)" style="fill: none; stroke-dasharray: 2.96,1.28; stroke-dashoffset: 0; stroke: #b0b0b0; stroke-opacity: 0.3; stroke-width: 0.8"/>
     </g>
     <g id="line2d_8">
      <g>
       <use xlink:href="#m94cadb2ae1" x="270.950881" y="242.8" style="stroke: #000000; stroke-width: 0.8"/>
      </g>
     </g>
     <g id="text_4">
      <!-- 6 -->
      <g transform="translate(268.170412 256.957812) scale(0.1 -0.1)">
       <defs>
        <path id="ArialUnicodeMS-36" d="M 838 2363 
Q 1225 2969 1941 2969 
Q 2503 2969 2897 2553 
Q 3291 2138 3291 1491 
Q 3291 838 2898 380 
Q 2506 -78 1856 -78 
Q 1197 -78 733 409 
Q 269 897 269 2144 
Q 269 3369 689 3986 
Q 1109 4603 1906 4603 
Q 2422 4603 2778 4315 
Q 3134 4028 3213 3463 
L 2650 3413 
Q 2497 4141 1875 4141 
Q 1444 4141 1134 3712 
Q 825 3284 825 2363 
L 838 2363 
z
M 1844 384 
Q 2231 384 2472 696 
Q 2713 1009 2713 1453 
Q 2713 1897 2472 2187 
Q 2231 2478 1825 2478 
Q 1453 2478 1184 2204 
Q 916 1931 916 1484 
Q 916 1028 1180 706 
Q 1444 384 1844 384 
z
" transform="scale(0.015625)"/>
       </defs>
       <use xlink:href="#ArialUnicodeMS-36"/>
      </g>
     </g>
    </g>
    <g id="xtick_5">
     <g id="line2d_9">
      <path d="M 337.728267 242.8 
L 337.728267 10.8 
" clip-path="url(#pafd2e6bf19)" style="fill: none; stroke-dasharray: 2.96,1.28; stroke-dashoffset: 0; stroke: #b0b0b0; stroke-opacity: 0.3; stroke-width: 0.8"/>
     </g>
     <g id="line2d_10">
      <g>
       <use xlink:href="#m94cadb2ae1" x="337.728267" y="242.8" style="stroke: #000000; stroke-width: 0.8"/>
      </g>
     </g>
     <g id="text_5">
      <!-- 8 -->
      <g transform="translate(334.947798 256.957812) scale(0.1 -0.1)">
       <defs>
        <path id="ArialUnicodeMS-38" d="M 2425 2478 
Q 3284 2203 3284 1306 
Q 3284 716 2862 319 
Q 2441 -78 1778 -78 
Q 1109 -78 689 322 
Q 269 722 269 1325 
Q 269 1759 505 2084 
Q 741 2409 1141 2478 
L 1141 2491 
Q 453 2703 453 3419 
Q 453 3925 815 4264 
Q 1178 4603 1766 4603 
Q 2363 4603 2730 4253 
Q 3097 3903 3097 3406 
Q 3097 2731 2425 2491 
L 2425 2478 
z
M 1778 2700 
Q 2094 2700 2308 2901 
Q 2522 3103 2522 3406 
Q 2522 3716 2305 3928 
Q 2088 4141 1772 4141 
Q 1450 4141 1240 3931 
Q 1031 3722 1031 3438 
Q 1031 3097 1247 2898 
Q 1463 2700 1778 2700 
z
M 1778 384 
Q 2175 384 2440 640 
Q 2706 897 2706 1306 
Q 2706 1716 2432 1978 
Q 2159 2241 1766 2241 
Q 1356 2241 1100 1970 
Q 844 1700 844 1319 
Q 844 922 1108 653 
Q 1372 384 1778 384 
z
" transform="scale(0.015625)"/>
       </defs>
       <use xlink:href="#ArialUnicodeMS-38"/>
      </g>
     </g>
    </g>
    <g id="xtick_6">
     <g id="line2d_11">
      <path d="M 404.505653 242.8 
L 404.505653 10.8 
" clip-path="url(#pafd2e6bf19)" style="fill: none; stroke-dasharray: 2.96,1.28; stroke-dashoffset: 0; stroke: #b0b0b0; stroke-opacity: 0.3; stroke-width: 0.8"/>
     </g>
     <g id="line2d_12">
      <g>
       <use xlink:href="#m94cadb2ae1" x="404.505653" y="242.8" style="stroke: #000000; stroke-width: 0.8"/>
      </g>
     </g>
     <g id="text_6">
      <!-- 10 -->
      <g transform="translate(398.944716 256.957812) scale(0.1 -0.1)">
       <defs>
        <path id="ArialUnicodeMS-31" d="M 2400 0 
L 1838 0 
L 1838 3584 
Q 1416 3184 709 2906 
L 709 3450 
Q 1681 3916 2034 4603 
L 2400 4603 
L 2400 0 
z
" transform="scale(0.015625)"/>
       </defs>
       <use xlink:href="#ArialUnicodeMS-31"/>
       <use xlink:href="#ArialUnicodeMS-30" x="55.615234"/>
      </g>
     </g>
    </g>
    <g id="text_7">
     <!-- 通胀率 $\pi$ (%) -->
     <g transform="translate(203.242188 273.03) scale(0.12 -0.12)">
      <defs>
       <path id="ArialUnicodeMS-901a" d="M 1759 4097 
L 1344 3822 
Q 1000 4541 500 4966 
L 856 5228 
Q 1384 4797 1759 4097 
z
M 5703 959 
Q 5703 791 5561 666 
Q 5419 541 5167 528 
Q 4916 516 4647 513 
L 4488 966 
Q 4753 953 4831 953 
Q 5216 953 5216 1119 
L 5216 1644 
L 4178 1644 
L 4178 750 
L 3719 750 
L 3719 1644 
L 2675 1644 
L 2675 609 
L 2216 609 
L 2216 3878 
L 3603 3878 
Q 2941 4109 2778 4153 
L 3144 4531 
Q 3422 4463 3834 4244 
Q 4041 4284 4716 4616 
L 2041 4616 
L 2041 5056 
L 5588 5056 
L 5588 4653 
Q 5019 4213 4294 3950 
L 4428 3878 
L 5703 3878 
L 5703 959 
z
M 5216 2994 
L 5216 3438 
L 4178 3438 
L 4178 2994 
L 5216 2994 
z
M 3719 2994 
L 3719 3438 
L 2675 3438 
L 2675 2994 
L 3719 2994 
z
M 5216 2088 
L 5216 2528 
L 4178 2528 
L 4178 2088 
L 5216 2088 
z
M 3719 2088 
L 3719 2528 
L 2675 2528 
L 2675 2088 
L 3719 2088 
z
M 6094 347 
L 5900 -178 
L 3297 -178 
Q 2531 -178 2154 5 
Q 1778 188 1528 488 
Q 1309 325 563 -341 
L 197 44 
Q 559 313 1275 903 
L 1275 2888 
L 422 2888 
L 422 3328 
L 1759 3328 
L 1759 909 
Q 2050 594 2409 445 
Q 2769 297 3103 294 
L 3713 294 
Q 5228 294 6094 347 
z
" transform="scale(0.015625)"/>
       <path id="ArialUnicodeMS-80c0" d="M 6053 -84 
L 5697 -469 
Q 4422 503 4072 2509 
L 3584 2509 
L 3584 319 
L 4488 769 
L 4488 263 
L 3175 -391 
L 2938 0 
Q 3122 91 3122 263 
L 3122 2509 
L 2619 2509 
L 2619 2975 
L 3122 2975 
L 3122 5216 
L 3584 5216 
L 3584 3578 
Q 4516 4050 5159 5006 
L 5556 4691 
Q 4675 3522 3584 3144 
L 3584 2975 
L 5919 2975 
L 5919 2509 
L 4556 2509 
Q 4716 866 6053 -84 
z
M 2438 97 
Q 2438 -84 2309 -215 
Q 2181 -347 2028 -347 
L 1466 -347 
L 1306 153 
L 1856 122 
Q 1953 184 1953 250 
L 1953 1797 
L 1222 1797 
Q 1206 400 634 -422 
L 225 -147 
Q 738 581 738 1434 
L 738 5025 
L 2438 5025 
L 2438 97 
z
M 1953 3688 
L 1953 4556 
L 1222 4556 
L 1222 3688 
L 1953 3688 
z
M 1953 2266 
L 1953 3219 
L 1222 3219 
L 1222 2266 
L 1953 2266 
z
" transform="scale(0.015625)"/>
       <path id="ArialUnicodeMS-7387" d="M 5663 4313 
L 3469 4313 
Q 3113 3806 2828 3488 
L 3244 3309 
Q 3453 3538 3822 4078 
L 4263 3872 
Q 3531 2878 3022 2356 
L 3809 2406 
Q 3738 2594 3591 2822 
L 4019 2969 
Q 4375 2419 4459 1813 
L 3988 1678 
Q 3988 1806 3938 1966 
L 2150 1819 
L 1997 2316 
L 2431 2328 
Q 2616 2500 2931 2906 
Q 2372 3163 1978 3278 
L 2203 3731 
L 2419 3647 
Q 2634 3900 2888 4313 
L 709 4313 
L 709 4781 
L 2956 4781 
L 2956 5375 
L 3444 5375 
L 3444 4781 
L 5663 4781 
L 5663 4313 
z
M 5734 3922 
Q 5091 3316 4581 3128 
L 4294 3553 
Q 4947 3791 5447 4281 
L 5734 3922 
z
M 1984 3397 
L 1619 3059 
Q 1263 3534 653 3853 
L 947 4184 
Q 1531 3975 1984 3397 
z
M 2131 2597 
Q 1419 2031 763 1813 
L 459 2209 
Q 1238 2447 1863 2994 
L 2131 2597 
z
M 5906 2216 
L 5619 1831 
Q 5109 2341 4306 2553 
L 4550 2938 
Q 5391 2722 5906 2216 
z
M 5941 1038 
L 3456 1038 
L 3456 -441 
L 2963 -441 
L 2963 1038 
L 459 1038 
L 459 1503 
L 2963 1503 
L 2963 1831 
L 3456 1831 
L 3456 1503 
L 5941 1503 
L 5941 1038 
z
" transform="scale(0.015625)"/>
       <path id="ArialUnicodeMS-20" transform="scale(0.015625)"/>
       <path id="DejaVuSans-Oblique-3c0" d="M 584 3500 
L 3938 3500 
L 3825 2925 
L 3384 2925 
L 2966 775 
Q 2922 550 2981 450 
Q 3038 353 3209 353 
Q 3256 353 3325 363 
Q 3397 369 3419 372 
L 3338 -44 
Q 3222 -84 3103 -103 
Q 2981 -122 2866 -122 
Q 2491 -122 2388 81 
Q 2284 288 2391 838 
L 2797 2925 
L 1506 2925 
L 938 0 
L 350 0 
L 919 2925 
L 472 2925 
L 584 3500 
z
" transform="scale(0.015625)"/>
       <path id="ArialUnicodeMS-28" d="M 1900 -1344 
L 1497 -1344 
Q 978 -681 681 103 
Q 384 888 384 1656 
Q 384 2528 700 3275 
Q 1016 4022 1497 4659 
L 1900 4659 
Q 1344 3747 1155 3059 
Q 966 2372 966 1663 
Q 966 153 1900 -1344 
z
" transform="scale(0.015625)"/>
       <path id="ArialUnicodeMS-25" d="M 4325 4659 
L 1838 -159 
L 1369 -159 
L 3872 4659 
L 4325 4659 
z
M 1428 4653 
Q 1856 4653 2137 4343 
Q 2419 4034 2419 3438 
Q 2419 2850 2131 2539 
Q 1844 2228 1434 2228 
Q 1009 2228 739 2540 
Q 469 2853 469 3475 
Q 469 3984 722 4318 
Q 975 4653 1428 4653 
z
M 1441 2619 
Q 1931 2619 1931 3463 
Q 1931 4269 1441 4269 
Q 953 4269 953 3419 
Q 953 2619 1441 2619 
z
M 4250 2253 
Q 4681 2253 4961 1943 
Q 5241 1634 5241 1038 
Q 5241 600 5087 328 
Q 4934 56 4709 -58 
Q 4484 -172 4256 -172 
Q 3831 -172 3561 140 
Q 3291 453 3291 1075 
Q 3291 1584 3544 1918 
Q 3797 2253 4250 2253 
z
M 4263 219 
Q 4756 219 4756 1063 
Q 4756 1869 4263 1869 
Q 3775 1869 3775 1019 
Q 3775 219 4263 219 
z
" transform="scale(0.015625)"/>
       <path id="ArialUnicodeMS-29" d="M 634 4659 
Q 1153 3997 1450 3212 
Q 1747 2428 1747 1656 
Q 1747 788 1431 41 
Q 1116 -706 634 -1344 
L 231 -1344 
Q 788 -431 977 255 
Q 1166 941 1166 1650 
Q 1166 3163 231 4659 
L 634 4659 
z
" transform="scale(0.015625)"/>
      </defs>
      <use xlink:href="#ArialUnicodeMS-901a" transform="translate(0 0.015625)"/>
      <use xlink:href="#ArialUnicodeMS-80c0" transform="translate(100 0.015625)"/>
      <use xlink:href="#ArialUnicodeMS-7387" transform="translate(200 0.015625)"/>
      <use xlink:href="#ArialUnicodeMS-20" transform="translate(300 0.015625)"/>
      <use xlink:href="#DejaVuSans-Oblique-3c0" transform="translate(327.783203 0.015625)"/>
      <use xlink:href="#ArialUnicodeMS-20" transform="translate(387.988281 0.015625)"/>
      <use xlink:href="#ArialUnicodeMS-28" transform="translate(415.771484 0.015625)"/>
      <use xlink:href="#ArialUnicodeMS-25" transform="translate(449.072266 0.015625)"/>
      <use xlink:href="#ArialUnicodeMS-29" transform="translate(537.988281 0.015625)"/>
     </g>
    </g>
   </g>
   <g id="matplotlib.axis_2">
    <g id="ytick_1">
     <g id="line2d_13">
      <path d="M 53.924375 232.254545 
L 421.2 232.254545 
" clip-path="url(#pafd2e6bf19)" style="fill: none; stroke-dasharray: 2.96,1.28; stroke-dashoffset: 0; stroke: #b0b0b0; stroke-opacity: 0.3; stroke-width: 0.8"/>
     </g>
     <g id="line2d_14">
      <defs>
       <path id="ma95c99b6ab" d="M 0 0 
L -3.5 0 
" style="stroke: #000000; stroke-width: 0.8"/>
      </defs>
      <g>
       <use xlink:href="#ma95c99b6ab" x="53.924375" y="232.254545" style="stroke: #000000; stroke-width: 0.8"/>
      </g>
     </g>
     <g id="text_8">
      <!-- 0.0 -->
      <g transform="translate(33.024375 235.833452) scale(0.1 -0.1)">
       <defs>
        <path id="ArialUnicodeMS-2e" d="M 1209 0 
L 569 0 
L 569 641 
L 1209 641 
L 1209 0 
z
" transform="scale(0.015625)"/>
       </defs>
       <use xlink:href="#ArialUnicodeMS-30"/>
       <use xlink:href="#ArialUnicodeMS-2e" x="55.615234"/>
       <use xlink:href="#ArialUnicodeMS-30" x="83.398438"/>
      </g>
     </g>
    </g>
    <g id="ytick_2">
     <g id="line2d_15">
      <path d="M 53.924375 201.238503 
L 421.2 201.238503 
" clip-path="url(#pafd2e6bf19)" style="fill: none; stroke-dasharray: 2.96,1.28; stroke-dashoffset: 0; stroke: #b0b0b0; stroke-opacity: 0.3; stroke-width: 0.8"/>
     </g>
     <g id="line2d_16">
      <g>
       <use xlink:href="#ma95c99b6ab" x="53.924375" y="201.238503" style="stroke: #000000; stroke-width: 0.8"/>
      </g>
     </g>
     <g id="text_9">
      <!-- 2.5 -->
      <g transform="translate(33.024375 204.817409) scale(0.1 -0.1)">
       <defs>
        <path id="ArialUnicodeMS-35" d="M 1013 2753 
Q 1431 3041 1881 3041 
Q 2453 3041 2878 2636 
Q 3303 2231 3303 1556 
Q 3303 875 2872 398 
Q 2441 -78 1741 -78 
Q 1169 -78 750 245 
Q 331 569 269 1203 
L 856 1247 
Q 928 813 1162 598 
Q 1397 384 1741 384 
Q 2169 384 2434 707 
Q 2700 1031 2700 1503 
Q 2700 1984 2428 2262 
Q 2156 2541 1728 2541 
Q 1188 2541 897 2100 
L 366 2163 
L 813 4519 
L 3084 4519 
L 3084 3975 
L 1259 3975 
L 1013 2753 
z
" transform="scale(0.015625)"/>
       </defs>
       <use xlink:href="#ArialUnicodeMS-32"/>
       <use xlink:href="#ArialUnicodeMS-2e" x="55.615234"/>
       <use xlink:href="#ArialUnicodeMS-35" x="83.398438"/>
      </g>
     </g>
    </g>
    <g id="ytick_3">
     <g id="line2d_17">
      <path d="M 53.924375 170.22246 
L 421.2 170.22246 
" clip-path="url(#pafd2e6bf19)" style="fill: none; stroke-dasharray: 2.96,1.28; stroke-dashoffset: 0; stroke: #b0b0b0; stroke-opacity: 0.3; stroke-width: 0.8"/>
     </g>
     <g id="line2d_18">
      <g>
       <use xlink:href="#ma95c99b6ab" x="53.924375" y="170.22246" style="stroke: #000000; stroke-width: 0.8"/>
      </g>
     </g>
     <g id="text_10">
      <!-- 5.0 -->
      <g transform="translate(33.024375 173.801366) scale(0.1 -0.1)">
       <use xlink:href="#ArialUnicodeMS-35"/>
       <use xlink:href="#ArialUnicodeMS-2e" x="55.615234"/>
       <use xlink:href="#ArialUnicodeMS-30" x="83.398438"/>
      </g>
     </g>
    </g>
    <g id="ytick_4">
     <g id="line2d_19">
      <path d="M 53.924375 139.206417 
L 421.2 139.206417 
" clip-path="url(#pafd2e6bf19)" style="fill: none; stroke-dasharray: 2.96,1.28; stroke-dashoffset: 0; stroke: #b0b0b0; stroke-opacity: 0.3; stroke-width: 0.8"/>
     </g>
     <g id="line2d_20">
      <g>
       <use xlink:href="#ma95c99b6ab" x="53.924375" y="139.206417" style="stroke: #000000; stroke-width: 0.8"/>
      </g>
     </g>
     <g id="text_11">
      <!-- 7.5 -->
      <g transform="translate(33.024375 142.785323) scale(0.1 -0.1)">
       <defs>
        <path id="ArialUnicodeMS-37" d="M 3272 4084 
Q 2597 3344 2103 2253 
Q 1609 1163 1522 0 
L 947 0 
Q 969 934 1408 2051 
Q 1847 3169 2547 3975 
L 306 3975 
L 306 4519 
L 3272 4519 
L 3272 4084 
z
" transform="scale(0.015625)"/>
       </defs>
       <use xlink:href="#ArialUnicodeMS-37"/>
       <use xlink:href="#ArialUnicodeMS-2e" x="55.615234"/>
       <use xlink:href="#ArialUnicodeMS-35" x="83.398438"/>
      </g>
     </g>
    </g>
    <g id="ytick_5">
     <g id="line2d_21">
      <path d="M 53.924375 108.190374 
L 421.2 108.190374 
" clip-path="url(#pafd2e6bf19)" style="fill: none; stroke-dasharray: 2.96,1.28; stroke-dashoffset: 0; stroke: #b0b0b0; stroke-opacity: 0.3; stroke-width: 0.8"/>
     </g>
     <g id="line2d_22">
      <g>
       <use xlink:href="#ma95c99b6ab" x="53.924375" y="108.190374" style="stroke: #000000; stroke-width: 0.8"/>
      </g>
     </g>
     <g id="text_12">
      <!-- 10.0 -->
      <g transform="translate(27.463438 111.769281) scale(0.1 -0.1)">
       <use xlink:href="#ArialUnicodeMS-31"/>
       <use xlink:href="#ArialUnicodeMS-30" x="55.615234"/>
       <use xlink:href="#ArialUnicodeMS-2e" x="111.230469"/>
       <use xlink:href="#ArialUnicodeMS-30" x="139.013672"/>
      </g>
     </g>
    </g>
    <g id="ytick_6">
     <g id="line2d_23">
      <path d="M 53.924375 77.174332 
L 421.2 77.174332 
" clip-path="url(#pafd2e6bf19)" style="fill: none; stroke-dasharray: 2.96,1.28; stroke-dashoffset: 0; stroke: #b0b0b0; stroke-opacity: 0.3; stroke-width: 0.8"/>
     </g>
     <g id="line2d_24">
      <g>
       <use xlink:href="#ma95c99b6ab" x="53.924375" y="77.174332" style="stroke: #000000; stroke-width: 0.8"/>
      </g>
     </g>
     <g id="text_13">
      <!-- 12.5 -->
      <g transform="translate(27.463438 80.753238) scale(0.1 -0.1)">
       <use xlink:href="#ArialUnicodeMS-31"/>
       <use xlink:href="#ArialUnicodeMS-32" x="55.615234"/>
       <use xlink:href="#ArialUnicodeMS-2e" x="111.230469"/>
       <use xlink:href="#ArialUnicodeMS-35" x="139.013672"/>
      </g>
     </g>
    </g>
    <g id="ytick_7">
     <g id="line2d_25">
      <path d="M 53.924375 46.158289 
L 421.2 46.158289 
" clip-path="url(#pafd2e6bf19)" style="fill: none; stroke-dasharray: 2.96,1.28; stroke-dashoffset: 0; stroke: #b0b0b0; stroke-opacity: 0.3; stroke-width: 0.8"/>
     </g>
     <g id="line2d_26">
      <g>
       <use xlink:href="#ma95c99b6ab" x="53.924375" y="46.158289" style="stroke: #000000; stroke-width: 0.8"/>
      </g>
     </g>
     <g id="text_14">
      <!-- 15.0 -->
      <g transform="translate(27.463438 49.737195) scale(0.1 -0.1)">
       <use xlink:href="#ArialUnicodeMS-31"/>
       <use xlink:href="#ArialUnicodeMS-35" x="55.615234"/>
       <use xlink:href="#ArialUnicodeMS-2e" x="111.230469"/>
       <use xlink:href="#ArialUnicodeMS-30" x="139.013672"/>
      </g>
     </g>
    </g>
    <g id="ytick_8">
     <g id="line2d_27">
      <path d="M 53.924375 15.142246 
L 421.2 15.142246 
" clip-path="url(#pafd2e6bf19)" style="fill: none; stroke-dasharray: 2.96,1.28; stroke-dashoffset: 0; stroke: #b0b0b0; stroke-opacity: 0.3; stroke-width: 0.8"/>
     </g>
     <g id="line2d_28">
      <g>
       <use xlink:href="#ma95c99b6ab" x="53.924375" y="15.142246" style="stroke: #000000; stroke-width: 0.8"/>
      </g>
     </g>
     <g id="text_15">
      <!-- 17.5 -->
      <g transform="translate(27.463438 18.721152) scale(0.1 -0.1)">
       <use xlink:href="#ArialUnicodeMS-31"/>
       <use xlink:href="#ArialUnicodeMS-37" x="55.615234"/>
       <use xlink:href="#ArialUnicodeMS-2e" x="111.230469"/>
       <use xlink:href="#ArialUnicodeMS-35" x="139.013672"/>
      </g>
     </g>
    </g>
    <g id="text_16">
     <!-- 资产名义回报率 (%) -->
     <g transform="translate(20.943438 179.797813) rotate(-90) scale(0.12 -0.12)">
      <defs>
       <path id="ArialUnicodeMS-8d44" d="M 5522 4863 
Q 5541 4597 5477 4328 
Q 5413 4059 5131 3622 
L 4697 3859 
Q 4913 4106 5013 4397 
L 3144 4397 
Q 2878 3913 2203 3444 
L 1875 3822 
Q 2672 4297 3003 5306 
L 3431 5153 
Q 3403 5059 3322 4863 
L 5522 4863 
z
M 1766 4550 
L 1409 4172 
Q 1103 4628 594 4941 
L 891 5234 
Q 1459 4978 1766 4550 
z
M 6009 2778 
L 5678 2369 
Q 4472 2688 3788 3481 
Q 3591 3172 3142 2912 
Q 2694 2653 2222 2578 
L 2222 2572 
L 4813 2572 
L 4813 575 
L 4325 575 
L 4325 2106 
L 2119 2106 
L 2119 575 
L 1631 575 
L 1631 2572 
L 1913 2572 
L 1716 2847 
Q 2591 3081 3020 3382 
Q 3450 3684 3641 4250 
L 4091 4147 
L 4006 3897 
Q 4269 3525 4686 3267 
Q 5103 3009 6009 2778 
z
M 1806 3688 
Q 1628 3134 831 2369 
L 453 2713 
Q 1106 3253 1453 3922 
L 1806 3688 
z
M 3450 1906 
Q 3453 572 2761 120 
Q 2069 -331 819 -384 
L 594 84 
Q 1419 134 1742 186 
Q 2066 238 2409 461 
Q 2753 684 2848 979 
Q 2944 1275 2988 1906 
L 3450 1906 
z
M 5503 0 
L 5259 -447 
Q 4506 47 3272 306 
L 3494 722 
Q 4728 478 5503 0 
z
" transform="scale(0.015625)"/>
       <path id="ArialUnicodeMS-4ea7" d="M 5691 3994 
L 481 3994 
L 481 4434 
L 3053 4434 
Q 2816 4841 2431 5125 
L 2766 5394 
Q 3319 4947 3578 4550 
L 3413 4447 
L 3413 4434 
L 5691 4434 
L 5691 3994 
z
M 5691 2547 
L 1509 2547 
L 1509 1375 
Q 1509 219 519 -403 
L 159 -38 
Q 1025 456 1025 1516 
L 1025 2988 
L 2278 2988 
Q 2122 3325 1691 3681 
L 1997 3938 
Q 2450 3641 2803 3138 
L 2584 2988 
L 3413 2988 
Q 3856 3441 4056 3928 
L 4481 3700 
Q 4278 3306 4000 2988 
L 5691 2988 
L 5691 2547 
z
" transform="scale(0.015625)"/>
       <path id="ArialUnicodeMS-540d" d="M 5306 4166 
Q 5306 4113 5057 3789 
Q 4809 3466 4426 3156 
Q 4044 2847 3556 2590 
Q 3069 2334 2478 2144 
L 5269 2144 
L 5269 -428 
L 4781 -428 
L 4781 -72 
L 2381 -72 
L 2381 -428 
L 1894 -428 
L 1894 1966 
Q 1044 1734 775 1697 
L 359 2131 
Q 1944 2425 2875 2822 
Q 2666 3097 2144 3291 
L 2597 3641 
Q 3072 3388 3309 3041 
Q 4119 3422 4678 4116 
L 2772 4116 
Q 2069 3506 1075 3097 
L 569 3481 
Q 2369 4106 3200 5350 
L 3641 5119 
Q 3503 4881 3244 4581 
L 5306 4581 
L 5306 4166 
z
M 4781 397 
L 4781 1678 
L 2381 1678 
L 2381 397 
L 4781 397 
z
" transform="scale(0.015625)"/>
       <path id="ArialUnicodeMS-4e49" d="M 3744 3816 
L 3303 3547 
Q 3100 4331 2484 5019 
L 2906 5234 
Q 3559 4513 3744 3816 
z
M 6113 -50 
L 5759 -453 
Q 4381 -16 3297 838 
Q 2244 -109 603 -447 
L 347 31 
Q 2003 328 2938 1184 
Q 1816 2369 1528 4588 
L 1991 4794 
Q 2206 3350 2512 2667 
Q 2819 1984 3284 1569 
Q 4269 2709 4525 4728 
L 4991 4550 
Q 4628 2284 3659 1216 
Q 4400 444 6113 -50 
z
" transform="scale(0.015625)"/>
       <path id="ArialUnicodeMS-56de" d="M 5575 -134 
L 5088 -147 
L 5088 313 
L 1313 313 
L 1313 -191 
L 825 -191 
L 825 4825 
L 5575 4825 
L 5575 -134 
z
M 5088 794 
L 5088 4366 
L 1313 4366 
L 1313 794 
L 5088 794 
z
M 4378 1509 
L 1997 1509 
L 1997 3653 
L 4378 3653 
L 4378 1509 
z
M 3891 1972 
L 3891 3194 
L 2484 3194 
L 2484 1972 
L 3891 1972 
z
" transform="scale(0.015625)"/>
       <path id="ArialUnicodeMS-62a5" d="M 2828 3603 
L 1959 3603 
L 1959 2425 
L 2784 2713 
L 2784 2228 
L 1959 1931 
L 1959 219 
Q 1959 -106 1829 -232 
Q 1700 -359 1416 -359 
Q 1181 -359 775 -288 
L 616 213 
Q 1197 109 1334 109 
Q 1453 109 1453 288 
L 1453 1753 
L 550 1428 
L 313 1919 
L 1453 2284 
L 1453 3603 
L 453 3603 
L 453 4072 
L 1453 4072 
L 1453 5247 
L 1959 5247 
L 1959 4072 
L 2828 4072 
L 2828 3603 
z
M 6053 -31 
L 5716 -403 
Q 5125 -69 4716 416 
Q 4522 78 3872 -422 
L 3609 -159 
L 3609 -441 
L 3103 -441 
L 3103 5019 
L 5491 5019 
Q 5463 4247 5355 3901 
Q 5247 3556 5087 3437 
Q 4928 3319 4609 3319 
Q 4359 3319 4078 3391 
L 3956 3884 
Q 4338 3788 4641 3788 
Q 4744 3788 4794 3839 
Q 4844 3891 4900 4087 
Q 4956 4284 4966 4550 
L 3609 4550 
L 3609 3041 
L 5544 3041 
Q 5519 1894 4978 863 
Q 5256 463 6053 -31 
z
M 5038 2572 
L 4353 2572 
Q 4441 1913 4709 1319 
Q 4997 1922 5038 2572 
z
M 4422 856 
Q 4019 1619 3878 2572 
L 3609 2572 
L 3609 31 
Q 4144 369 4422 856 
z
" transform="scale(0.015625)"/>
      </defs>
      <use xlink:href="#ArialUnicodeMS-8d44"/>
      <use xlink:href="#ArialUnicodeMS-4ea7" x="100"/>
      <use xlink:href="#ArialUnicodeMS-540d" x="200"/>
      <use xlink:href="#ArialUnicodeMS-4e49" x="300"/>
      <use xlink:href="#ArialUnicodeMS-56de" x="400"/>
      <use xlink:href="#ArialUnicodeMS-62a5" x="500"/>
      <use xlink:href="#ArialUnicodeMS-7387" x="600"/>
      <use xlink:href="#ArialUnicodeMS-20" x="700"/>
      <use xlink:href="#ArialUnicodeMS-28" x="727.783203"/>
      <use xlink:href="#ArialUnicodeMS-25" x="761.083984"/>
      <use xlink:href="#ArialUnicodeMS-29" x="850"/>
     </g>
    </g>
   </g>
   <g id="line2d_29">
    <path d="M 70.618722 232.254545 
L 73.991317 231.001372 
L 77.363912 229.748199 
L 80.736507 228.495025 
L 84.109103 227.241852 
L 87.481698 225.988678 
L 90.854293 224.735505 
L 94.226888 223.482331 
L 97.599484 222.229158 
L 100.972079 220.975984 
L 104.344674 219.722811 
L 107.71727 218.469638 
L 111.089865 217.216464 
L 114.46246 215.963291 
L 117.835055 214.710117 
L 121.207651 213.456944 
L 124.580246 212.20377 
L 127.952841 210.950597 
L 131.325436 209.697423 
L 134.698032 208.44425 
L 138.070627 207.191077 
L 141.443222 205.937903 
L 144.815818 204.68473 
L 148.188413 203.431556 
L 151.561008 202.178383 
L 154.933603 200.925209 
L 158.306199 199.672036 
L 161.678794 198.418862 
L 165.051389 197.165689 
L 168.423984 195.912516 
L 171.79658 194.659342 
L 175.169175 193.406169 
L 178.54177 192.152995 
L 181.914366 190.899822 
L 185.286961 189.646648 
L 188.659556 188.393475 
L 192.032151 187.140301 
L 195.404747 185.887128 
L 198.777342 184.633955 
L 202.149937 183.380781 
L 205.522532 182.127608 
L 208.895128 180.874434 
L 212.267723 179.621261 
L 215.640318 178.368087 
L 219.012914 177.114914 
L 222.385509 175.86174 
L 225.758104 174.608567 
L 229.130699 173.355394 
L 232.503295 172.10222 
L 235.87589 170.849047 
L 239.248485 169.595873 
L 242.62108 168.3427 
L 245.993676 167.089526 
L 249.366271 165.836353 
L 252.738866 164.583179 
L 256.111461 163.330006 
L 259.484057 162.076832 
L 262.856652 160.823659 
L 266.229247 159.570486 
L 269.601843 158.317312 
L 272.974438 157.064139 
L 276.347033 155.810965 
L 279.719628 154.557792 
L 283.092224 153.304618 
L 286.464819 152.051445 
L 289.837414 150.798271 
L 293.210009 149.545098 
L 296.582605 148.291925 
L 299.9552 147.038751 
L 303.327795 145.785578 
L 306.700391 144.532404 
L 310.072986 143.279231 
L 313.445581 142.026057 
L 316.818176 140.772884 
L 320.190772 139.51971 
L 323.563367 138.266537 
L 326.935962 137.013364 
L 330.308557 135.76019 
L 333.681153 134.507017 
L 337.053748 133.253843 
L 340.426343 132.00067 
L 343.798939 130.747496 
L 347.171534 129.494323 
L 350.544129 128.241149 
L 353.916724 126.987976 
L 357.28932 125.734803 
L 360.661915 124.481629 
L 364.03451 123.228456 
L 367.407105 121.975282 
L 370.779701 120.722109 
L 374.152296 119.468935 
L 377.524891 118.215762 
L 380.897487 116.962588 
L 384.270082 115.709415 
L 387.642677 114.456242 
L 391.015272 113.203068 
L 394.387868 111.949895 
L 397.760463 110.696721 
L 401.133058 109.443548 
L 404.505653 108.190374 
" clip-path="url(#pafd2e6bf19)" style="fill: none; stroke-dasharray: 5.55,2.4; stroke-dashoffset: 0; stroke: #7f8c8d; stroke-width: 1.5"/>
   </g>
   <g id="line2d_30">
    <path d="M 70.618722 207.441711 
L 73.991317 205.561951 
L 77.363912 203.682191 
L 80.736507 201.802431 
L 84.109103 199.922671 
L 87.481698 198.04291 
L 90.854293 196.16315 
L 94.226888 194.28339 
L 97.599484 192.40363 
L 100.972079 190.52387 
L 104.344674 188.64411 
L 107.71727 186.764349 
L 111.089865 184.884589 
L 114.46246 183.004829 
L 117.835055 181.125069 
L 121.207651 179.245309 
L 124.580246 177.365549 
L 127.952841 175.485788 
L 131.325436 173.606028 
L 134.698032 171.726268 
L 138.070627 169.846508 
L 141.443222 167.966748 
L 144.815818 166.086988 
L 148.188413 164.207227 
L 151.561008 162.327467 
L 154.933603 160.447707 
L 158.306199 158.567947 
L 161.678794 156.688187 
L 165.051389 154.808427 
L 168.423984 152.928666 
L 171.79658 151.048906 
L 175.169175 149.169146 
L 178.54177 147.289386 
L 181.914366 145.409626 
L 185.286961 143.529865 
L 188.659556 141.650105 
L 192.032151 139.770345 
L 195.404747 137.890585 
L 198.777342 136.010825 
L 202.149937 134.131065 
L 205.522532 132.251304 
L 208.895128 130.371544 
L 212.267723 128.491784 
L 215.640318 126.612024 
L 219.012914 124.732264 
L 222.385509 122.852504 
L 225.758104 120.972743 
L 229.130699 119.092983 
L 232.503295 117.213223 
L 235.87589 115.333463 
L 239.248485 113.453703 
L 242.62108 111.573943 
L 245.993676 109.694182 
L 249.366271 107.814422 
L 252.738866 105.934662 
L 256.111461 104.054902 
L 259.484057 102.175142 
L 262.856652 100.295382 
L 266.229247 98.415621 
L 269.601843 96.535861 
L 272.974438 94.656101 
L 276.347033 92.776341 
L 279.719628 90.896581 
L 283.092224 89.016821 
L 286.464819 87.13706 
L 289.837414 85.2573 
L 293.210009 83.37754 
L 296.582605 81.49778 
L 299.9552 79.61802 
L 303.327795 77.73826 
L 306.700391 75.858499 
L 310.072986 73.978739 
L 313.445581 72.098979 
L 316.818176 70.219219 
L 320.190772 68.339459 
L 323.563367 66.459699 
L 326.935962 64.579938 
L 330.308557 62.700178 
L 333.681153 60.820418 
L 337.053748 58.940658 
L 340.426343 57.060898 
L 343.798939 55.181138 
L 347.171534 53.301377 
L 350.544129 51.421617 
L 353.916724 49.541857 
L 357.28932 47.662097 
L 360.661915 45.782337 
L 364.03451 43.902577 
L 367.407105 42.022816 
L 370.779701 40.143056 
L 374.152296 38.263296 
L 377.524891 36.383536 
L 380.897487 34.503776 
L 384.270082 32.624016 
L 387.642677 30.744255 
L 391.015272 28.864495 
L 394.387868 26.984735 
L 397.760463 25.104975 
L 401.133058 23.225215 
L 404.505653 21.345455 
" clip-path="url(#pafd2e6bf19)" style="fill: none; stroke: #d35400; stroke-width: 2; stroke-linecap: square"/>
   </g>
   <g id="patch_3">
    <path d="M 53.924375 242.8 
L 53.924375 10.8 
" style="fill: none; stroke: #000000; stroke-width: 0.8; stroke-linejoin: miter; stroke-linecap: square"/>
   </g>
   <g id="patch_4">
    <path d="M 53.924375 242.8 
L 421.2 242.8 
" style="fill: none; stroke: #000000; stroke-width: 0.8; stroke-linejoin: miter; stroke-linecap: square"/>
   </g>
   <g id="legend_1">
    <g id="line2d_31">
     <path d="M 62.924375 24.8 
L 72.924375 24.8 
L 82.924375 24.8 
" style="fill: none; stroke-dasharray: 5.55,2.4; stroke-dashoffset: 0; stroke: #7f8c8d; stroke-width: 1.5"/>
    </g>
    <g id="text_17">
     <!-- 完美对冲 ($\beta=1$) -->
     <g transform="translate(90.924375 28.3) scale(0.1 -0.1)">
      <defs>
       <path id="ArialUnicodeMS-5b8c" d="M 5722 3469 
L 5247 3469 
L 5247 4166 
L 1159 4166 
L 1159 3469 
L 678 3469 
L 678 4634 
L 2956 4634 
L 2956 5369 
L 3444 5369 
L 3444 4634 
L 5722 4634 
L 5722 3469 
z
M 4831 3053 
L 1550 3053 
L 1550 3519 
L 4831 3519 
L 4831 3053 
z
M 6053 878 
Q 5925 116 5762 -76 
Q 5600 -269 5363 -269 
L 4031 -269 
Q 3566 -269 3566 256 
L 3566 1931 
L 2797 1931 
Q 2659 -34 678 -397 
L 384 72 
Q 2272 297 2284 1931 
L 831 1931 
L 831 2400 
L 5619 2400 
L 5619 1931 
L 4050 1931 
L 4050 422 
Q 4050 197 4244 197 
L 5141 197 
Q 5378 197 5451 369 
Q 5525 541 5575 1131 
L 6053 878 
z
" transform="scale(0.015625)"/>
       <path id="ArialUnicodeMS-7f8e" d="M 5972 2209 
L 475 2209 
L 475 2675 
L 2950 2675 
L 2950 3219 
L 1281 3219 
L 1281 3688 
L 2950 3688 
L 2950 4153 
L 844 4153 
L 844 4622 
L 2188 4622 
Q 1956 4941 1619 5141 
L 2053 5381 
Q 2441 5166 2784 4622 
L 3616 4622 
Q 4103 5041 4347 5409 
L 4769 5094 
Q 4534 4769 4306 4634 
L 4306 4622 
L 5581 4622 
L 5581 4153 
L 3475 4153 
L 3475 3688 
L 5159 3688 
L 5159 3219 
L 3475 3219 
L 3475 2675 
L 5972 2675 
L 5972 2209 
z
M 6113 56 
L 5813 -391 
Q 3891 -44 3244 1222 
L 3219 1222 
Q 3034 638 2270 191 
Q 1506 -256 550 -372 
L 288 84 
Q 1106 166 1786 481 
Q 2466 797 2688 1234 
L 769 1234 
L 769 1703 
L 2853 1703 
Q 2906 1909 2906 2175 
L 3406 2088 
Q 3394 1859 3353 1703 
L 5650 1703 
L 5650 1234 
L 3763 1234 
Q 4378 356 6113 56 
z
" transform="scale(0.015625)"/>
       <path id="ArialUnicodeMS-5bf9" d="M 5856 3616 
L 5247 3616 
L 5247 38 
Q 5206 -163 5042 -273 
Q 4878 -384 4806 -384 
L 4103 -384 
L 3944 103 
Q 4438 63 4678 63 
Q 4716 63 4763 134 
L 4763 3616 
L 2988 3616 
L 2988 4084 
L 4763 4084 
L 4763 5306 
L 5247 5306 
L 5247 4084 
L 5856 4084 
L 5856 3616 
z
M 3175 366 
L 2694 153 
Q 2422 1059 2100 1538 
Q 1609 353 525 -384 
L 153 -13 
Q 1288 719 1813 1984 
Q 1306 2706 628 3256 
L 984 3541 
Q 1794 2828 2009 2497 
Q 2341 3403 2381 4116 
L 359 4116 
L 359 4556 
L 2869 4556 
Q 2844 3303 2328 2028 
Q 2866 1222 3175 366 
z
M 4441 1453 
L 3988 1178 
Q 3663 2072 3091 2700 
L 3444 2950 
Q 4084 2334 4441 1453 
z
" transform="scale(0.015625)"/>
       <path id="ArialUnicodeMS-51b2" d="M 5741 1434 
L 5253 1434 
L 5253 1806 
L 4134 1806 
L 4134 -391 
L 3647 -391 
L 3647 1806 
L 2553 1806 
L 2553 1434 
L 2069 1434 
L 2069 4097 
L 3647 4097 
L 3647 5331 
L 4134 5331 
L 4134 4097 
L 5741 4097 
L 5741 1434 
z
M 5253 2272 
L 5253 3628 
L 4134 3628 
L 4134 2272 
L 5253 2272 
z
M 3647 2272 
L 3647 3628 
L 2553 3628 
L 2553 2272 
L 3647 2272 
z
M 1913 3475 
L 1503 3163 
Q 1294 3975 416 4603 
L 794 4884 
Q 1609 4300 1913 3475 
z
M 1819 2559 
Q 1597 919 653 -128 
L 281 197 
Q 1172 1128 1381 2772 
L 1819 2559 
z
" transform="scale(0.015625)"/>
       <path id="DejaVuSans-Oblique-3b2" d="M 872 216 
L 572 -1331 
L -6 -1331 
L 928 3478 
Q 1206 4903 2538 4903 
Q 3888 4903 3659 3700 
Q 3503 2844 2894 2531 
Q 3713 2250 3553 1416 
Q 3272 -69 1759 -66 
Q 1097 -63 872 216 
z
M 1019 966 
Q 1259 422 1875 425 
Q 2775 425 2966 1406 
Q 3138 2288 1675 2219 
L 1778 2750 
Q 2909 2731 3106 3750 
Q 3241 4438 2509 4434 
Q 1691 4434 1503 3459 
L 1019 966 
z
" transform="scale(0.015625)"/>
       <path id="DejaVuSans-3d" d="M 678 2906 
L 4684 2906 
L 4684 2381 
L 678 2381 
L 678 2906 
z
M 678 1631 
L 4684 1631 
L 4684 1100 
L 678 1100 
L 678 1631 
z
" transform="scale(0.015625)"/>
       <path id="DejaVuSans-31" d="M 794 531 
L 1825 531 
L 1825 4091 
L 703 3866 
L 703 4441 
L 1819 4666 
L 2450 4666 
L 2450 531 
L 3481 531 
L 3481 0 
L 794 0 
L 794 531 
z
" transform="scale(0.015625)"/>
      </defs>
      <use xlink:href="#ArialUnicodeMS-5b8c" transform="translate(0 0.484375)"/>
      <use xlink:href="#ArialUnicodeMS-7f8e" transform="translate(100 0.484375)"/>
      <use xlink:href="#ArialUnicodeMS-5bf9" transform="translate(200 0.484375)"/>
      <use xlink:href="#ArialUnicodeMS-51b2" transform="translate(300 0.484375)"/>
      <use xlink:href="#ArialUnicodeMS-20" transform="translate(400 0.484375)"/>
      <use xlink:href="#ArialUnicodeMS-28" transform="translate(427.783203 0.484375)"/>
      <use xlink:href="#DejaVuSans-Oblique-3b2" transform="translate(461.083984 0.484375)"/>
      <use xlink:href="#DejaVuSans-3d" transform="translate(544.384766 0.484375)"/>
      <use xlink:href="#DejaVuSans-31" transform="translate(647.65625 0.484375)"/>
      <use xlink:href="#ArialUnicodeMS-29" transform="translate(711.279297 0.484375)"/>
     </g>
    </g>
    <g id="line2d_32">
     <path d="M 62.924375 40.2 
L 72.924375 40.2 
L 82.924375 40.2 
" style="fill: none; stroke: #d35400; stroke-width: 2; stroke-linecap: square"/>
    </g>
    <g id="text_18">
     <!-- 艺术品 ($&gt;1$ 通胀贝塔) -->
     <g transform="translate(90.924375 43.7) scale(0.1 -0.1)">
      <defs>
       <path id="ArialUnicodeMS-827a" d="M 5881 4172 
L 4256 4172 
L 4256 3494 
L 3775 3494 
L 3775 4172 
L 2497 4172 
L 2497 3494 
L 2016 3494 
L 2016 4172 
L 441 4172 
L 441 4616 
L 2016 4616 
L 2016 5247 
L 2497 5247 
L 2497 4616 
L 3775 4616 
L 3775 5247 
L 4256 5247 
L 4256 4616 
L 5881 4616 
L 5881 4172 
z
M 5663 916 
Q 5522 -184 5006 -184 
L 1709 -184 
Q 1484 -184 1356 -32 
Q 1228 119 1228 338 
Q 1228 650 1828 1256 
Q 2428 1863 3681 2706 
L 3681 2713 
L 1325 2713 
L 1325 3181 
L 4494 3181 
L 4494 2725 
Q 3250 1931 2486 1186 
Q 1722 441 1722 338 
Q 1722 281 1772 281 
L 4825 281 
Q 5103 281 5172 1106 
L 5663 916 
z
" transform="scale(0.015625)"/>
       <path id="ArialUnicodeMS-672f" d="M 6059 494 
L 5716 103 
Q 5100 413 4472 1198 
Q 3844 1984 3513 3291 
L 3372 3291 
L 3372 -441 
L 2888 -441 
L 2888 3291 
L 2747 3291 
Q 2241 1028 563 109 
L 219 481 
Q 1775 1356 2278 3291 
L 391 3291 
L 391 3756 
L 2888 3756 
L 2888 5216 
L 3372 5216 
L 3372 3756 
L 5850 3756 
L 5850 3291 
L 3975 3291 
Q 4609 1278 6059 494 
z
M 5125 4159 
L 4750 3859 
Q 4403 4409 3744 4738 
L 4056 5050 
Q 4722 4747 5125 4159 
z
" transform="scale(0.015625)"/>
       <path id="ArialUnicodeMS-54c1" d="M 4997 2963 
L 1363 2963 
L 1363 5069 
L 4997 5069 
L 4997 2963 
z
M 4575 3378 
L 4575 4653 
L 1806 4653 
L 1806 3378 
L 4575 3378 
z
M 5656 -372 
L 5172 -372 
L 5172 72 
L 3956 72 
L 3956 -372 
L 3469 -372 
L 3469 2491 
L 5656 2491 
L 5656 -372 
z
M 5172 538 
L 5172 2022 
L 3956 2022 
L 3956 538 
L 5172 538 
z
M 2894 -397 
L 2406 -397 
L 2406 38 
L 1228 38 
L 1228 -422 
L 744 -409 
L 744 2472 
L 2894 2472 
L 2894 -397 
z
M 2406 506 
L 2406 2003 
L 1228 2003 
L 1228 506 
L 2406 506 
z
" transform="scale(0.015625)"/>
       <path id="DejaVuSans-3e" d="M 678 3150 
L 678 3719 
L 4684 2266 
L 4684 1747 
L 678 294 
L 678 863 
L 3897 2003 
L 678 3150 
z
" transform="scale(0.015625)"/>
       <path id="ArialUnicodeMS-8d1d" d="M 4813 1141 
L 4359 1141 
L 4359 4628 
L 1784 4628 
L 1784 1253 
L 1300 1253 
L 1300 5094 
L 4813 5094 
L 4813 1141 
z
M 3353 2847 
Q 3353 1438 2729 697 
Q 2106 -44 794 -372 
L 494 78 
Q 1834 378 2351 1043 
Q 2869 1709 2869 2969 
L 2869 4250 
L 3353 4250 
L 3353 2847 
z
M 5663 0 
L 5294 -366 
Q 4528 538 3309 1125 
L 3616 1472 
Q 4925 828 5663 0 
z
" transform="scale(0.015625)"/>
       <path id="ArialUnicodeMS-5854" d="M 5881 4128 
L 5069 4128 
L 5069 3456 
L 4581 3456 
L 4581 4128 
L 3263 4128 
L 3263 3456 
L 2778 3456 
L 2778 4128 
L 1984 4128 
L 1984 4594 
L 2778 4594 
L 2778 5288 
L 3263 5288 
L 3263 4594 
L 4581 4594 
L 4581 5306 
L 5069 5306 
L 5069 4594 
L 5881 4594 
L 5881 4128 
z
M 2419 1381 
L 575 594 
L 269 984 
L 1159 1344 
L 1159 3028 
L 378 3028 
L 378 3494 
L 1159 3494 
L 1159 5075 
L 1644 5075 
L 1644 3494 
L 2328 3494 
L 2328 3028 
L 1644 3028 
L 1644 1556 
Q 2134 1769 2419 1881 
L 2419 1381 
z
M 6163 2322 
L 5881 1894 
Q 5459 2019 4922 2394 
L 4916 2131 
L 2988 2131 
L 2988 2394 
Q 2609 2094 2181 1869 
L 1759 2234 
Q 3263 2878 3847 4097 
L 4300 3922 
L 4213 3731 
Q 5044 2684 6163 2322 
z
M 4653 2591 
Q 4209 2984 3981 3303 
Q 3663 2897 3278 2591 
L 4653 2591 
z
M 5269 -441 
L 4781 -441 
L 4781 -50 
L 3109 -50 
L 3109 -441 
L 2625 -441 
L 2625 1644 
L 5269 1644 
L 5269 -441 
z
M 4781 416 
L 4781 1178 
L 3109 1178 
L 3109 416 
L 4781 416 
z
" transform="scale(0.015625)"/>
      </defs>
      <use xlink:href="#ArialUnicodeMS-827a" transform="translate(0 0.09375)"/>
      <use xlink:href="#ArialUnicodeMS-672f" transform="translate(100 0.09375)"/>
      <use xlink:href="#ArialUnicodeMS-54c1" transform="translate(200 0.09375)"/>
      <use xlink:href="#ArialUnicodeMS-20" transform="translate(300 0.09375)"/>
      <use xlink:href="#ArialUnicodeMS-28" transform="translate(327.783203 0.09375)"/>
      <use xlink:href="#DejaVuSans-3e" transform="translate(380.566406 0.09375)"/>
      <use xlink:href="#DejaVuSans-31" transform="translate(483.837891 0.09375)"/>
      <use xlink:href="#ArialUnicodeMS-20" transform="translate(547.460938 0.09375)"/>
      <use xlink:href="#ArialUnicodeMS-901a" transform="translate(575.244141 0.09375)"/>
      <use xlink:href="#ArialUnicodeMS-80c0" transform="translate(675.244141 0.09375)"/>
      <use xlink:href="#ArialUnicodeMS-8d1d" transform="translate(775.244141 0.09375)"/>
      <use xlink:href="#ArialUnicodeMS-5854" transform="translate(875.244141 0.09375)"/>
      <use xlink:href="#ArialUnicodeMS-29" transform="translate(975.244141 0.09375)"/>
     </g>
    </g>
   </g>
  </g>
 </g>
 <defs>
  <clipPath id="pafd2e6bf19">
   <rect x="53.924375" y="10.8" width="367.275625" height="232"/>
  </clipPath>
 </defs>
</svg>
