<?xml version="1.0" encoding="utf-8" standalone="no"?>
<!DOCTYPE svg PUBLIC "-//W3C//DTD SVG 1.1//EN"
  "http://www.w3.org/Graphics/SVG/1.1/DTD/svg11.dtd">
<svg xmlns:xlink="http://www.w3.org/1999/xlink" width="432pt" height="288pt" viewBox="0 0 432 288" xmlns="http://www.w3.org/2000/svg" version="1.1">
 <metadata>
  <rdf:RDF xmlns:dc="http://purl.org/dc/elements/1.1/" xmlns:cc="http://creativecommons.org/ns#" xmlns:rdf="http://www.w3.org/1999/02/22-rdf-syntax-ns#">
   <cc:Work>
    <dc:type rdf:resource="http://purl.org/dc/dcmitype/StillImage"/>
    <dc:date>2026-05-11T09:52:21.743946</dc:date>
    <dc:format>image/svg+xml</dc:format>
    <dc:creator>
     <cc:Agent>
      <dc:title>Matplotlib v3.9.4, https://matplotlib.org/</dc:title>
     </cc:Agent>
    </dc:creator>
   </cc:Work>
  </rdf:RDF>
 </metadata>
 <defs>
  <style type="text/css">*{stroke-linejoin: round; stroke-linecap: butt}</style>
 </defs>
 <g id="figure_1">
  <g id="patch_1">
   <path d="M 0 288 
L 432 288 
L 432 0 
L 0 0 
z
" style="fill: #ffffff"/>
  </g>
  <g id="axes_1">
   <g id="patch_2">
    <path d="M 51.19625 244.33 
L 421.2 244.33 
L 421.2 14.4 
L 51.19625 14.4 
z
" style="fill: #ffffff"/>
   </g>
   <g id="matplotlib.axis_1">
    <g id="xtick_1">
     <g id="line2d_1">
      <path d="M 68.014602 244.33 
L 68.014602 14.4 
" clip-path="url(#p671f070714)" style="fill: none; stroke-dasharray: 2.96,1.28; stroke-dashoffset: 0; stroke: #b0b0b0; stroke-opacity: 0.3; stroke-width: 0.8"/>
     </g>
     <g id="line2d_2">
      <defs>
       <path id="m2c5f78e80a" d="M 0 0 
L 0 3.5 
" style="stroke: #000000; stroke-width: 0.8"/>
      </defs>
      <g>
       <use xlink:href="#m2c5f78e80a" x="68.014602" y="244.33" style="stroke: #000000; stroke-width: 0.8"/>
      </g>
     </g>
     <g id="text_1">
      <!-- 0 -->
      <g transform="translate(65.234134 258.487812) scale(0.1 -0.1)">
       <defs>
        <path id="ArialUnicodeMS-30" d="M 1778 4603 
Q 3272 4603 3272 2259 
Q 3272 1075 2886 498 
Q 2500 -78 1778 -78 
Q 288 -78 288 2259 
Q 288 3444 673 4023 
Q 1059 4603 1778 4603 
z
M 1778 384 
Q 2231 384 2462 823 
Q 2694 1263 2694 2259 
Q 2694 2953 2592 3351 
Q 2491 3750 2286 3945 
Q 2081 4141 1772 4141 
Q 1319 4141 1091 3694 
Q 863 3247 863 2259 
Q 863 1575 966 1175 
Q 1069 775 1272 579 
Q 1475 384 1778 384 
z
" transform="scale(0.015625)"/>
       </defs>
       <use xlink:href="#ArialUnicodeMS-30"/>
      </g>
     </g>
    </g>
    <g id="xtick_2">
     <g id="line2d_3">
      <path d="M 135.288011 244.33 
L 135.288011 14.4 
" clip-path="url(#p671f070714)" style="fill: none; stroke-dasharray: 2.96,1.28; stroke-dashoffset: 0; stroke: #b0b0b0; stroke-opacity: 0.3; stroke-width: 0.8"/>
     </g>
     <g id="line2d_4">
      <g>
       <use xlink:href="#m2c5f78e80a" x="135.288011" y="244.33" style="stroke: #000000; stroke-width: 0.8"/>
      </g>
     </g>
     <g id="text_2">
      <!-- 2 -->
      <g transform="translate(132.507543 258.487812) scale(0.1 -0.1)">
       <defs>
        <path id="ArialUnicodeMS-32" d="M 3231 0 
L 197 0 
Q 197 388 467 784 
Q 738 1181 1478 1778 
Q 1931 2141 2287 2539 
Q 2644 2938 2644 3341 
Q 2644 3688 2398 3914 
Q 2153 4141 1778 4141 
Q 1400 4141 1144 3908 
Q 888 3675 884 3213 
L 306 3278 
Q 359 3922 764 4262 
Q 1169 4603 1791 4603 
Q 2466 4603 2842 4229 
Q 3219 3856 3219 3328 
Q 3219 2888 2901 2436 
Q 2584 1984 1638 1228 
Q 1141 831 978 544 
L 3231 544 
L 3231 0 
z
" transform="scale(0.015625)"/>
       </defs>
       <use xlink:href="#ArialUnicodeMS-32"/>
      </g>
     </g>
    </g>
    <g id="xtick_3">
     <g id="line2d_5">
      <path d="M 202.56142 244.33 
L 202.56142 14.4 
" clip-path="url(#p671f070714)" style="fill: none; stroke-dasharray: 2.96,1.28; stroke-dashoffset: 0; stroke: #b0b0b0; stroke-opacity: 0.3; stroke-width: 0.8"/>
     </g>
     <g id="line2d_6">
      <g>
       <use xlink:href="#m2c5f78e80a" x="202.56142" y="244.33" style="stroke: #000000; stroke-width: 0.8"/>
      </g>
     </g>
     <g id="text_3">
      <!-- 4 -->
      <g transform="translate(199.780952 258.487812) scale(0.1 -0.1)">
       <defs>
        <path id="ArialUnicodeMS-34" d="M 3263 1094 
L 2644 1094 
L 2644 0 
L 2081 0 
L 2081 1094 
L 97 1094 
L 97 1613 
L 2181 4581 
L 2644 4581 
L 2644 1613 
L 3263 1613 
L 3263 1094 
z
M 2081 1613 
L 2081 3681 
L 2069 3681 
L 647 1613 
L 2081 1613 
z
" transform="scale(0.015625)"/>
       </defs>
       <use xlink:href="#ArialUnicodeMS-34"/>
      </g>
     </g>
    </g>
    <g id="xtick_4">
     <g id="line2d_7">
      <path d="M 269.83483 244.33 
L 269.83483 14.4 
" clip-path="url(#p671f070714)" style="fill: none; stroke-dasharray: 2.96,1.28; stroke-dashoffset: 0; stroke: #b0b0b0; stroke-opacity: 0.3; stroke-width: 0.8"/>
     </g>
     <g id="line2d_8">
      <g>
       <use xlink:href="#m2c5f78e80a" x="269.83483" y="244.33" style="stroke: #000000; stroke-width: 0.8"/>
      </g>
     </g>
     <g id="text_4">
      <!-- 6 -->
      <g transform="translate(267.054361 258.487812) scale(0.1 -0.1)">
       <defs>
        <path id="ArialUnicodeMS-36" d="M 838 2363 
Q 1225 2969 1941 2969 
Q 2503 2969 2897 2553 
Q 3291 2138 3291 1491 
Q 3291 838 2898 380 
Q 2506 -78 1856 -78 
Q 1197 -78 733 409 
Q 269 897 269 2144 
Q 269 3369 689 3986 
Q 1109 4603 1906 4603 
Q 2422 4603 2778 4315 
Q 3134 4028 3213 3463 
L 2650 3413 
Q 2497 4141 1875 4141 
Q 1444 4141 1134 3712 
Q 825 3284 825 2363 
L 838 2363 
z
M 1844 384 
Q 2231 384 2472 696 
Q 2713 1009 2713 1453 
Q 2713 1897 2472 2187 
Q 2231 2478 1825 2478 
Q 1453 2478 1184 2204 
Q 916 1931 916 1484 
Q 916 1028 1180 706 
Q 1444 384 1844 384 
z
" transform="scale(0.015625)"/>
       </defs>
       <use xlink:href="#ArialUnicodeMS-36"/>
      </g>
     </g>
    </g>
    <g id="xtick_5">
     <g id="line2d_9">
      <path d="M 337.108239 244.33 
L 337.108239 14.4 
" clip-path="url(#p671f070714)" style="fill: none; stroke-dasharray: 2.96,1.28; stroke-dashoffset: 0; stroke: #b0b0b0; stroke-opacity: 0.3; stroke-width: 0.8"/>
     </g>
     <g id="line2d_10">
      <g>
       <use xlink:href="#m2c5f78e80a" x="337.108239" y="244.33" style="stroke: #000000; stroke-width: 0.8"/>
      </g>
     </g>
     <g id="text_5">
      <!-- 8 -->
      <g transform="translate(334.32777 258.487812) scale(0.1 -0.1)">
       <defs>
        <path id="ArialUnicodeMS-38" d="M 2425 2478 
Q 3284 2203 3284 1306 
Q 3284 716 2862 319 
Q 2441 -78 1778 -78 
Q 1109 -78 689 322 
Q 269 722 269 1325 
Q 269 1759 505 2084 
Q 741 2409 1141 2478 
L 1141 2491 
Q 453 2703 453 3419 
Q 453 3925 815 4264 
Q 1178 4603 1766 4603 
Q 2363 4603 2730 4253 
Q 3097 3903 3097 3406 
Q 3097 2731 2425 2491 
L 2425 2478 
z
M 1778 2700 
Q 2094 2700 2308 2901 
Q 2522 3103 2522 3406 
Q 2522 3716 2305 3928 
Q 2088 4141 1772 4141 
Q 1450 4141 1240 3931 
Q 1031 3722 1031 3438 
Q 1031 3097 1247 2898 
Q 1463 2700 1778 2700 
z
M 1778 384 
Q 2175 384 2440 640 
Q 2706 897 2706 1306 
Q 2706 1716 2432 1978 
Q 2159 2241 1766 2241 
Q 1356 2241 1100 1970 
Q 844 1700 844 1319 
Q 844 922 1108 653 
Q 1372 384 1778 384 
z
" transform="scale(0.015625)"/>
       </defs>
       <use xlink:href="#ArialUnicodeMS-38"/>
      </g>
     </g>
    </g>
    <g id="xtick_6">
     <g id="line2d_11">
      <path d="M 404.381648 244.33 
L 404.381648 14.4 
" clip-path="url(#p671f070714)" style="fill: none; stroke-dasharray: 2.96,1.28; stroke-dashoffset: 0; stroke: #b0b0b0; stroke-opacity: 0.3; stroke-width: 0.8"/>
     </g>
     <g id="line2d_12">
      <g>
       <use xlink:href="#m2c5f78e80a" x="404.381648" y="244.33" style="stroke: #000000; stroke-width: 0.8"/>
      </g>
     </g>
     <g id="text_6">
      <!-- 10 -->
      <g transform="translate(398.82071 258.487812) scale(0.1 -0.1)">
       <defs>
        <path id="ArialUnicodeMS-31" d="M 2400 0 
L 1838 0 
L 1838 3584 
Q 1416 3184 709 2906 
L 709 3450 
Q 1681 3916 2034 4603 
L 2400 4603 
L 2400 0 
z
" transform="scale(0.015625)"/>
       </defs>
       <use xlink:href="#ArialUnicodeMS-31"/>
       <use xlink:href="#ArialUnicodeMS-30" x="55.615234"/>
      </g>
     </g>
    </g>
    <g id="text_7">
     <!-- 锁定期 T (年) -->
     <g transform="translate(201.204063 274.569375) scale(0.12 -0.12)">
      <defs>
       <path id="ArialUnicodeMS-9501" d="M 2759 4063 
L 1497 4063 
Q 1366 3700 1247 3488 
L 2675 3488 
L 2675 3022 
L 1894 3022 
L 1894 2363 
L 2753 2363 
L 2753 1894 
L 1894 1894 
L 1894 525 
L 2753 953 
L 2753 428 
L 1575 -178 
L 1313 244 
Q 1409 341 1409 447 
L 1409 1894 
L 481 1894 
L 481 2363 
L 1409 2363 
L 1409 3022 
L 984 3022 
Q 816 2753 622 2559 
L 238 2859 
Q 1072 3788 1325 5313 
L 1778 5166 
Q 1722 4822 1631 4531 
L 2759 4531 
L 2759 4063 
z
M 5663 903 
L 5178 903 
L 5178 3188 
L 3384 3188 
L 3384 903 
L 2900 903 
L 2900 3675 
L 4031 3675 
L 4031 5281 
L 4519 5281 
L 4519 3675 
L 5663 3675 
L 5663 903 
z
M 5819 4844 
Q 5600 4306 4991 3775 
L 4628 4116 
Q 5188 4569 5416 5113 
L 5819 4844 
z
M 3878 4025 
L 3456 3738 
Q 3275 4347 2644 4838 
L 3034 5088 
Q 3641 4669 3878 4025 
z
M 4500 1863 
Q 4500 294 2766 -447 
L 2438 -38 
Q 2959 150 3337 467 
Q 3716 784 3867 1123 
Q 4019 1463 4019 1997 
L 4019 2938 
L 4500 2919 
L 4500 1863 
z
M 6113 -25 
L 5778 -409 
Q 5263 197 4331 603 
L 4641 959 
Q 5438 653 6113 -25 
z
" transform="scale(0.015625)"/>
       <path id="ArialUnicodeMS-5b9a" d="M 5747 3353 
L 5247 3353 
L 5247 4153 
L 1141 4153 
L 1141 3391 
L 653 3391 
L 653 4622 
L 2956 4622 
L 2956 5288 
L 3444 5288 
L 3444 4622 
L 5747 4622 
L 5747 3353 
z
M 6100 416 
L 5863 -97 
Q 5559 -109 5147 -109 
Q 3516 -109 2859 30 
Q 2203 169 1638 781 
Q 1378 175 659 -428 
L 263 -25 
Q 1481 681 1434 2528 
L 1913 2419 
Q 1903 1834 1806 1288 
Q 2259 666 3009 500 
L 3009 2925 
L 1325 2925 
L 1325 3391 
L 5106 3391 
L 5106 2925 
L 3494 2925 
L 3494 1978 
L 5422 1978 
L 5422 1509 
L 3494 1509 
L 3494 428 
L 4263 403 
L 6100 416 
z
" transform="scale(0.015625)"/>
       <path id="ArialUnicodeMS-671f" d="M 3738 1281 
L 506 1281 
L 506 1747 
L 1075 1747 
L 1075 4134 
L 531 4134 
L 531 4603 
L 1075 4603 
L 1075 5281 
L 1563 5281 
L 1563 4603 
L 2741 4603 
L 2741 5306 
L 3225 5306 
L 3225 4603 
L 3738 4603 
L 3738 4134 
L 3225 4134 
L 3225 1747 
L 3738 1747 
L 3738 1281 
z
M 2741 3688 
L 2741 4134 
L 1563 4134 
L 1563 3688 
L 2741 3688 
z
M 2741 2766 
L 2741 3219 
L 1563 3219 
L 1563 2766 
L 2741 2766 
z
M 2741 1747 
L 2741 2297 
L 1563 2297 
L 1563 1747 
L 2741 1747 
z
M 5753 366 
Q 5753 38 5672 -57 
Q 5591 -153 5489 -233 
Q 5388 -313 4697 -313 
L 4538 178 
L 5147 159 
Q 5269 159 5269 300 
L 5269 1753 
L 4331 1753 
Q 4275 494 3719 -447 
L 3284 -153 
Q 3853 716 3853 1984 
L 3853 4997 
L 5753 4997 
L 5753 366 
z
M 5269 3688 
L 5269 4531 
L 4341 4531 
L 4341 3688 
L 5269 3688 
z
M 5269 2222 
L 5269 3219 
L 4341 3219 
L 4341 2222 
L 5269 2222 
z
M 1931 934 
Q 1556 213 750 -422 
L 384 -84 
Q 1203 488 1588 1247 
L 1931 934 
z
M 3494 366 
L 3150 0 
Q 2775 566 2222 850 
L 2547 1178 
Q 3075 947 3494 366 
z
" transform="scale(0.015625)"/>
       <path id="ArialUnicodeMS-20" transform="scale(0.015625)"/>
       <path id="ArialUnicodeMS-54" d="M 3769 4038 
L 2253 4038 
L 2253 0 
L 1644 0 
L 1644 4038 
L 141 4038 
L 141 4581 
L 3769 4581 
L 3769 4038 
z
" transform="scale(0.015625)"/>
       <path id="ArialUnicodeMS-28" d="M 1900 -1344 
L 1497 -1344 
Q 978 -681 681 103 
Q 384 888 384 1656 
Q 384 2528 700 3275 
Q 1016 4022 1497 4659 
L 1900 4659 
Q 1344 3747 1155 3059 
Q 966 2372 966 1663 
Q 966 153 1900 -1344 
z
" transform="scale(0.015625)"/>
       <path id="ArialUnicodeMS-5e74" d="M 5869 1409 
L 3659 1409 
L 3659 -434 
L 3156 -434 
L 3156 1409 
L 659 1409 
L 659 1875 
L 1459 1875 
L 1459 3384 
L 3156 3384 
L 3156 4219 
L 1838 4219 
Q 1425 3363 953 2931 
L 550 3256 
Q 1381 3994 1734 5381 
L 2144 5184 
Q 2122 4997 2022 4684 
L 5606 4684 
L 5606 4219 
L 3659 4219 
L 3659 3384 
L 5294 3384 
L 5294 2919 
L 3659 2919 
L 3659 1875 
L 5869 1875 
L 5869 1409 
z
M 3156 1875 
L 3156 2919 
L 1947 2919 
L 1947 1875 
L 3156 1875 
z
" transform="scale(0.015625)"/>
       <path id="ArialUnicodeMS-29" d="M 634 4659 
Q 1153 3997 1450 3212 
Q 1747 2428 1747 1656 
Q 1747 788 1431 41 
Q 1116 -706 634 -1344 
L 231 -1344 
Q 788 -431 977 255 
Q 1166 941 1166 1650 
Q 1166 3163 231 4659 
L 634 4659 
z
" transform="scale(0.015625)"/>
      </defs>
      <use xlink:href="#ArialUnicodeMS-9501"/>
      <use xlink:href="#ArialUnicodeMS-5b9a" x="100"/>
      <use xlink:href="#ArialUnicodeMS-671f" x="200"/>
      <use xlink:href="#ArialUnicodeMS-20" x="300"/>
      <use xlink:href="#ArialUnicodeMS-54" x="327.783203"/>
      <use xlink:href="#ArialUnicodeMS-20" x="388.867188"/>
      <use xlink:href="#ArialUnicodeMS-28" x="416.650391"/>
      <use xlink:href="#ArialUnicodeMS-5e74" x="449.951172"/>
      <use xlink:href="#ArialUnicodeMS-29" x="549.951172"/>
     </g>
    </g>
   </g>
   <g id="matplotlib.axis_2">
    <g id="ytick_1">
     <g id="line2d_13">
      <path d="M 51.19625 244.33 
L 421.2 244.33 
" clip-path="url(#p671f070714)" style="fill: none; stroke-dasharray: 2.96,1.28; stroke-dashoffset: 0; stroke: #b0b0b0; stroke-opacity: 0.3; stroke-width: 0.8"/>
     </g>
     <g id="line2d_14">
      <defs>
       <path id="m9d254dfb84" d="M 0 0 
L -3.5 0 
" style="stroke: #000000; stroke-width: 0.8"/>
      </defs>
      <g>
       <use xlink:href="#m9d254dfb84" x="51.19625" y="244.33" style="stroke: #000000; stroke-width: 0.8"/>
      </g>
     </g>
     <g id="text_8">
      <!-- 0 -->
      <g transform="translate(38.635313 247.908906) scale(0.1 -0.1)">
       <use xlink:href="#ArialUnicodeMS-30"/>
      </g>
     </g>
    </g>
    <g id="ytick_2">
     <g id="line2d_15">
      <path d="M 51.19625 198.344 
L 421.2 198.344 
" clip-path="url(#p671f070714)" style="fill: none; stroke-dasharray: 2.96,1.28; stroke-dashoffset: 0; stroke: #b0b0b0; stroke-opacity: 0.3; stroke-width: 0.8"/>
     </g>
     <g id="line2d_16">
      <g>
       <use xlink:href="#m9d254dfb84" x="51.19625" y="198.344" style="stroke: #000000; stroke-width: 0.8"/>
      </g>
     </g>
     <g id="text_9">
      <!-- 20 -->
      <g transform="translate(33.074375 201.922906) scale(0.1 -0.1)">
       <use xlink:href="#ArialUnicodeMS-32"/>
       <use xlink:href="#ArialUnicodeMS-30" x="55.615234"/>
      </g>
     </g>
    </g>
    <g id="ytick_3">
     <g id="line2d_17">
      <path d="M 51.19625 152.358 
L 421.2 152.358 
" clip-path="url(#p671f070714)" style="fill: none; stroke-dasharray: 2.96,1.28; stroke-dashoffset: 0; stroke: #b0b0b0; stroke-opacity: 0.3; stroke-width: 0.8"/>
     </g>
     <g id="line2d_18">
      <g>
       <use xlink:href="#m9d254dfb84" x="51.19625" y="152.358" style="stroke: #000000; stroke-width: 0.8"/>
      </g>
     </g>
     <g id="text_10">
      <!-- 40 -->
      <g transform="translate(33.074375 155.936906) scale(0.1 -0.1)">
       <use xlink:href="#ArialUnicodeMS-34"/>
       <use xlink:href="#ArialUnicodeMS-30" x="55.615234"/>
      </g>
     </g>
    </g>
    <g id="ytick_4">
     <g id="line2d_19">
      <path d="M 51.19625 106.372 
L 421.2 106.372 
" clip-path="url(#p671f070714)" style="fill: none; stroke-dasharray: 2.96,1.28; stroke-dashoffset: 0; stroke: #b0b0b0; stroke-opacity: 0.3; stroke-width: 0.8"/>
     </g>
     <g id="line2d_20">
      <g>
       <use xlink:href="#m9d254dfb84" x="51.19625" y="106.372" style="stroke: #000000; stroke-width: 0.8"/>
      </g>
     </g>
     <g id="text_11">
      <!-- 60 -->
      <g transform="translate(33.074375 109.950906) scale(0.1 -0.1)">
       <use xlink:href="#ArialUnicodeMS-36"/>
       <use xlink:href="#ArialUnicodeMS-30" x="55.615234"/>
      </g>
     </g>
    </g>
    <g id="ytick_5">
     <g id="line2d_21">
      <path d="M 51.19625 60.386 
L 421.2 60.386 
" clip-path="url(#p671f070714)" style="fill: none; stroke-dasharray: 2.96,1.28; stroke-dashoffset: 0; stroke: #b0b0b0; stroke-opacity: 0.3; stroke-width: 0.8"/>
     </g>
     <g id="line2d_22">
      <g>
       <use xlink:href="#m9d254dfb84" x="51.19625" y="60.386" style="stroke: #000000; stroke-width: 0.8"/>
      </g>
     </g>
     <g id="text_12">
      <!-- 80 -->
      <g transform="translate(33.074375 63.964906) scale(0.1 -0.1)">
       <use xlink:href="#ArialUnicodeMS-38"/>
       <use xlink:href="#ArialUnicodeMS-30" x="55.615234"/>
      </g>
     </g>
    </g>
    <g id="ytick_6">
     <g id="line2d_23">
      <path d="M 51.19625 14.4 
L 421.2 14.4 
" clip-path="url(#p671f070714)" style="fill: none; stroke-dasharray: 2.96,1.28; stroke-dashoffset: 0; stroke: #b0b0b0; stroke-opacity: 0.3; stroke-width: 0.8"/>
     </g>
     <g id="line2d_24">
      <g>
       <use xlink:href="#m9d254dfb84" x="51.19625" y="14.4" style="stroke: #000000; stroke-width: 0.8"/>
      </g>
     </g>
     <g id="text_13">
      <!-- 100 -->
      <g transform="translate(27.513438 17.978906) scale(0.1 -0.1)">
       <use xlink:href="#ArialUnicodeMS-31"/>
       <use xlink:href="#ArialUnicodeMS-30" x="55.615234"/>
       <use xlink:href="#ArialUnicodeMS-30" x="111.230469"/>
      </g>
     </g>
    </g>
    <g id="text_14">
     <!-- 流动性折价 (%) -->
     <g transform="translate(20.993438 170.362813) rotate(-90) scale(0.12 -0.12)">
      <defs>
       <path id="ArialUnicodeMS-6d41" d="M 5838 4141 
L 3841 4141 
Q 3503 3456 3181 3041 
L 4878 3128 
Q 4556 3431 4275 3531 
L 4672 3841 
Q 5428 3406 5797 2669 
L 5381 2356 
Q 5325 2484 5153 2731 
L 2216 2534 
L 2016 3022 
L 2619 3041 
Q 2903 3391 3278 4141 
L 1984 4141 
L 1984 4609 
L 3634 4609 
L 3634 5313 
L 4122 5313 
L 4122 4609 
L 5838 4609 
L 5838 4141 
z
M 1959 4244 
L 1581 3891 
Q 1284 4469 581 4678 
L 941 5025 
Q 1475 4881 1959 4244 
z
M 1722 2719 
L 1325 2419 
Q 1003 3097 256 3347 
L 628 3700 
Q 1281 3478 1722 2719 
z
M 6169 838 
Q 6131 344 6022 58 
Q 5913 -228 5745 -273 
Q 5578 -319 5147 -319 
Q 4925 -319 4779 -178 
Q 4634 -38 4634 206 
L 4634 2356 
L 5119 2356 
L 5119 281 
Q 5119 97 5300 97 
Q 5491 97 5542 134 
Q 5594 172 5641 465 
Q 5688 759 5703 984 
L 6169 838 
z
M 4050 -319 
L 3566 -319 
L 3566 2356 
L 4050 2356 
L 4050 -319 
z
M 3016 1069 
Q 3016 84 1772 -447 
L 1422 -31 
Q 2528 363 2528 1294 
L 2528 2338 
L 3016 2338 
L 3016 1069 
z
M 1900 2022 
Q 1613 447 794 -331 
L 372 -19 
Q 1247 744 1459 2209 
L 1900 2022 
z
" transform="scale(0.015625)"/>
       <path id="ArialUnicodeMS-52a8" d="M 5678 3834 
Q 5613 2631 5508 1595 
Q 5403 559 5328 262 
Q 5253 -34 5048 -161 
Q 4844 -288 4591 -288 
Q 4416 -288 4097 -256 
Q 4016 25 3944 238 
Q 4550 172 4644 172 
Q 4703 172 4812 456 
Q 4922 741 5023 1741 
Q 5125 2741 5159 3391 
L 4359 3391 
Q 4366 1738 3883 889 
Q 3400 41 2528 -384 
L 2156 25 
Q 2716 300 3009 634 
Q 2913 850 2719 1075 
Q 1478 731 763 475 
L 428 959 
Q 678 1172 1014 1786 
Q 1350 2400 1503 2906 
L 353 2906 
L 353 3372 
L 3144 3372 
L 3144 2906 
L 2041 2906 
Q 1500 1597 1125 1125 
L 1141 1113 
L 2444 1484 
Q 2397 1556 2125 1797 
L 2478 2047 
Q 3131 1475 3359 997 
Q 3528 1178 3697 1742 
Q 3866 2306 3866 2888 
L 3866 3391 
L 3194 3391 
L 3194 3834 
L 3866 3834 
L 3866 5319 
L 4353 5325 
L 4353 3834 
L 5678 3834 
z
M 2881 4219 
L 603 4219 
L 603 4659 
L 2881 4659 
L 2881 4219 
z
" transform="scale(0.015625)"/>
       <path id="ArialUnicodeMS-6027" d="M 6088 6 
L 2322 6 
L 2322 475 
L 3928 475 
L 3928 1778 
L 2669 1778 
L 2669 2247 
L 3928 2247 
L 3928 3463 
L 3169 3463 
Q 2978 2881 2606 2375 
L 2113 2597 
Q 2363 2838 2438 3003 
L 2203 2900 
Q 2078 3494 1766 3866 
L 1766 -434 
L 1281 -434 
L 1281 5281 
L 1766 5281 
L 1766 3928 
L 2138 4128 
Q 2413 3813 2597 3347 
Q 2844 3763 2894 4775 
L 3378 4647 
Q 3363 4338 3291 3928 
L 3928 3928 
L 3928 5294 
L 4416 5294 
L 4416 3928 
L 5759 3928 
L 5759 3463 
L 4416 3463 
L 4416 2247 
L 5569 2247 
L 5569 1778 
L 4416 1778 
L 4416 475 
L 6088 475 
L 6088 6 
z
M 1241 3897 
Q 1175 2956 763 2344 
L 347 2528 
Q 819 3406 819 4025 
L 1241 3897 
z
" transform="scale(0.015625)"/>
       <path id="ArialUnicodeMS-6298" d="M 6003 2900 
L 4959 2900 
L 4959 -378 
L 4475 -378 
L 4475 2900 
L 3397 2900 
L 3372 1844 
Q 3347 647 2419 -434 
L 2022 -63 
Q 2859 800 2894 2156 
L 2913 2938 
L 2913 4709 
Q 4684 4825 5538 5338 
L 5875 4953 
Q 4713 4328 3413 4263 
L 3391 3366 
L 6003 3366 
L 6003 2900 
z
M 2706 2369 
Q 2206 2178 1869 2028 
L 1869 256 
Q 1869 -78 1692 -247 
Q 1516 -416 897 -391 
L 728 84 
L 1166 78 
Q 1381 78 1381 238 
L 1381 1819 
L 666 1516 
L 391 1913 
Q 1138 2200 1381 2316 
L 1381 3609 
L 544 3609 
L 544 4078 
L 1381 4078 
L 1381 5319 
L 1888 5319 
L 1888 4078 
L 2656 4078 
L 2656 3609 
L 1869 3609 
L 1869 2541 
Q 2022 2591 2706 2875 
L 2706 2369 
z
" transform="scale(0.015625)"/>
       <path id="ArialUnicodeMS-4ef7" d="M 6284 2975 
L 5900 2572 
Q 4847 3084 3928 4519 
Q 3178 3188 2041 2584 
L 1697 2981 
Q 3113 3628 3859 5422 
L 4281 5184 
L 4206 4997 
Q 5038 3547 6284 2975 
z
M 2241 5172 
Q 2156 4775 1913 4147 
L 1672 3531 
L 1672 -428 
L 1184 -428 
L 1184 2663 
Q 1113 2534 659 2041 
L 213 2322 
Q 1372 3522 1784 5344 
L 2241 5172 
z
M 4984 -409 
L 4500 -409 
L 4500 3116 
L 4984 3116 
L 4984 -409 
z
M 3397 1791 
Q 3397 1034 3097 531 
Q 2797 28 2059 -475 
L 1697 -72 
Q 2209 191 2561 647 
Q 2913 1103 2913 1528 
L 2913 3116 
L 3397 3116 
L 3397 1791 
z
" transform="scale(0.015625)"/>
       <path id="ArialUnicodeMS-25" d="M 4325 4659 
L 1838 -159 
L 1369 -159 
L 3872 4659 
L 4325 4659 
z
M 1428 4653 
Q 1856 4653 2137 4343 
Q 2419 4034 2419 3438 
Q 2419 2850 2131 2539 
Q 1844 2228 1434 2228 
Q 1009 2228 739 2540 
Q 469 2853 469 3475 
Q 469 3984 722 4318 
Q 975 4653 1428 4653 
z
M 1441 2619 
Q 1931 2619 1931 3463 
Q 1931 4269 1441 4269 
Q 953 4269 953 3419 
Q 953 2619 1441 2619 
z
M 4250 2253 
Q 4681 2253 4961 1943 
Q 5241 1634 5241 1038 
Q 5241 600 5087 328 
Q 4934 56 4709 -58 
Q 4484 -172 4256 -172 
Q 3831 -172 3561 140 
Q 3291 453 3291 1075 
Q 3291 1584 3544 1918 
Q 3797 2253 4250 2253 
z
M 4263 219 
Q 4756 219 4756 1063 
Q 4756 1869 4263 1869 
Q 3775 1869 3775 1019 
Q 3775 219 4263 219 
z
" transform="scale(0.015625)"/>
      </defs>
      <use xlink:href="#ArialUnicodeMS-6d41"/>
      <use xlink:href="#ArialUnicodeMS-52a8" x="100"/>
      <use xlink:href="#ArialUnicodeMS-6027" x="200"/>
      <use xlink:href="#ArialUnicodeMS-6298" x="300"/>
      <use xlink:href="#ArialUnicodeMS-4ef7" x="400"/>
      <use xlink:href="#ArialUnicodeMS-20" x="500"/>
      <use xlink:href="#ArialUnicodeMS-28" x="527.783203"/>
      <use xlink:href="#ArialUnicodeMS-25" x="561.083984"/>
      <use xlink:href="#ArialUnicodeMS-29" x="650"/>
     </g>
    </g>
   </g>
   <g id="line2d_25">
    <path d="M 68.014602 244.33 
L 71.412249 237.466935 
L 74.809896 230.808723 
L 78.207543 224.349248 
L 81.60519 218.082578 
L 85.002837 212.00296 
L 88.400484 206.104808 
L 91.798131 200.382708 
L 95.195778 194.831404 
L 98.593425 189.445798 
L 101.991072 184.220944 
L 105.388718 179.152044 
L 108.786365 174.234443 
L 112.184012 169.463626 
L 115.581659 164.83521 
L 118.979306 160.344945 
L 122.376953 155.988708 
L 125.7746 151.762498 
L 129.172247 147.662434 
L 132.569894 143.68475 
L 135.967541 139.825795 
L 139.365188 136.082024 
L 142.762835 132.449998 
L 146.160482 128.926383 
L 149.558128 125.507943 
L 152.955775 122.191538 
L 156.353422 118.974123 
L 159.751069 115.852742 
L 163.148716 112.82453 
L 166.546363 109.886706 
L 169.94401 107.036572 
L 173.341657 104.271509 
L 176.739304 101.58898 
L 180.136951 98.98652 
L 183.534598 96.461739 
L 186.932245 94.01232 
L 190.329892 91.636012 
L 193.727538 89.330633 
L 197.125185 87.094066 
L 200.522832 84.924258 
L 203.920479 82.819215 
L 207.318126 80.777004 
L 210.715773 78.79575 
L 214.11342 76.873634 
L 217.511067 75.00889 
L 220.908714 73.199806 
L 224.306361 71.44472 
L 227.704008 69.742021 
L 231.101655 68.090145 
L 234.499302 66.487575 
L 237.896948 64.932839 
L 241.294595 63.42451 
L 244.692242 61.961202 
L 248.089889 60.541571 
L 251.487536 59.164315 
L 254.885183 57.828167 
L 258.28283 56.531902 
L 261.680477 55.274328 
L 265.078124 54.054291 
L 268.475771 52.87067 
L 271.873418 51.722378 
L 275.271065 50.608361 
L 278.668712 49.527596 
L 282.066358 48.47909 
L 285.464005 47.461881 
L 288.861652 46.475033 
L 292.259299 45.517642 
L 295.656946 44.588827 
L 299.054593 43.687736 
L 302.45224 42.813541 
L 305.849887 41.965439 
L 309.247534 41.142653 
L 312.645181 40.344425 
L 316.042828 39.570022 
L 319.440475 38.818735 
L 322.838122 38.089873 
L 326.235768 37.382766 
L 329.633415 36.696765 
L 333.031062 36.03124 
L 336.428709 35.38558 
L 339.826356 34.759192 
L 343.224003 34.1515 
L 346.62165 33.561948 
L 350.019297 32.989993 
L 353.416944 32.435109 
L 356.814591 31.896788 
L 360.212238 31.374535 
L 363.609885 30.867871 
L 367.007532 30.37633 
L 370.405178 29.899461 
L 373.802825 29.436825 
L 377.200472 28.987998 
L 380.598119 28.552568 
L 383.995766 28.130136 
L 387.393413 27.720312 
L 390.79106 27.32272 
L 394.188707 26.936997 
L 397.586354 26.562786 
L 400.984001 26.199745 
L 404.381648 25.847541 
" clip-path="url(#p671f070714)" style="fill: none; stroke: #2c3e50; stroke-width: 2; stroke-linecap: square"/>
   </g>
   <g id="patch_3">
    <path d="M 51.19625 244.33 
L 51.19625 14.4 
" style="fill: none; stroke: #000000; stroke-width: 0.8; stroke-linejoin: miter; stroke-linecap: square"/>
   </g>
   <g id="patch_4">
    <path d="M 51.19625 244.33 
L 421.2 244.33 
" style="fill: none; stroke: #000000; stroke-width: 0.8; stroke-linejoin: miter; stroke-linecap: square"/>
   </g>
  </g>
 </g>
 <defs>
  <clipPath id="p671f070714">
   <rect x="51.19625" y="14.4" width="370.00375" height="229.93"/>
  </clipPath>
 </defs>
</svg>
