<?xml version="1.0" encoding="utf-8" standalone="no"?>
<!DOCTYPE svg PUBLIC "-//W3C//DTD SVG 1.1//EN"
  "http://www.w3.org/Graphics/SVG/1.1/DTD/svg11.dtd">
<svg xmlns:xlink="http://www.w3.org/1999/xlink" width="576pt" height="360pt" viewBox="0 0 576 360" xmlns="http://www.w3.org/2000/svg" version="1.1">
 <metadata>
  <rdf:RDF xmlns:dc="http://purl.org/dc/elements/1.1/" xmlns:cc="http://creativecommons.org/ns#" xmlns:rdf="http://www.w3.org/1999/02/22-rdf-syntax-ns#">
   <cc:Work>
    <dc:type rdf:resource="http://purl.org/dc/dcmitype/StillImage"/>
    <dc:date>2026-04-28T11:47:11.295804</dc:date>
    <dc:format>image/svg+xml</dc:format>
    <dc:creator>
     <cc:Agent>
      <dc:title>Matplotlib v3.9.4, https://matplotlib.org/</dc:title>
     </cc:Agent>
    </dc:creator>
   </cc:Work>
  </rdf:RDF>
 </metadata>
 <defs>
  <style type="text/css">*{stroke-linejoin: round; stroke-linecap: butt}</style>
 </defs>
 <g id="figure_1">
  <g id="patch_1">
   <path d="M 0 360 
L 576 360 
L 576 0 
L 0 0 
L 0 360 
z
" style="fill: none"/>
  </g>
  <g id="axes_1">
   <g id="patch_2">
    <path d="M 65.380625 310.448125 
L 565.2 310.448125 
L 565.2 37.055625 
L 65.380625 37.055625 
L 65.380625 310.448125 
z
" style="fill: none"/>
   </g>
   <g id="matplotlib.axis_1">
    <g id="xtick_1">
     <g id="line2d_1">
      <path d="M 88.099688 310.448125 
L 88.099688 37.055625 
" clip-path="url(#paa24d3f9ec)" style="fill: none; stroke-dasharray: 2.96,1.28; stroke-dashoffset: 0; stroke: #eeeeee; stroke-opacity: 0.5; stroke-width: 0.8"/>
     </g>
     <g id="line2d_2">
      <defs>
       <path id="mb5d919c66f" d="M 0 0 
L 0 3.5 
" style="stroke: #666666; stroke-width: 0.8"/>
      </defs>
      <g>
       <use xlink:href="#mb5d919c66f" x="88.099688" y="310.448125" style="fill: #666666; stroke: #666666; stroke-width: 0.8"/>
      </g>
     </g>
     <g id="text_1">
      <!-- 0.10 -->
      <g style="fill: #666666" transform="translate(78.369219 324.605937) scale(0.1 -0.1)">
       <defs>
        <path id="ArialUnicodeMS-30" d="M 1778 4603 
Q 3272 4603 3272 2259 
Q 3272 1075 2886 498 
Q 2500 -78 1778 -78 
Q 288 -78 288 2259 
Q 288 3444 673 4023 
Q 1059 4603 1778 4603 
z
M 1778 384 
Q 2231 384 2462 823 
Q 2694 1263 2694 2259 
Q 2694 2953 2592 3351 
Q 2491 3750 2286 3945 
Q 2081 4141 1772 4141 
Q 1319 4141 1091 3694 
Q 863 3247 863 2259 
Q 863 1575 966 1175 
Q 1069 775 1272 579 
Q 1475 384 1778 384 
z
" transform="scale(0.015625)"/>
        <path id="ArialUnicodeMS-2e" d="M 1209 0 
L 569 0 
L 569 641 
L 1209 641 
L 1209 0 
z
" transform="scale(0.015625)"/>
        <path id="ArialUnicodeMS-31" d="M 2400 0 
L 1838 0 
L 1838 3584 
Q 1416 3184 709 2906 
L 709 3450 
Q 1681 3916 2034 4603 
L 2400 4603 
L 2400 0 
z
" transform="scale(0.015625)"/>
       </defs>
       <use xlink:href="#ArialUnicodeMS-30"/>
       <use xlink:href="#ArialUnicodeMS-2e" x="55.615234"/>
       <use xlink:href="#ArialUnicodeMS-31" x="83.398438"/>
       <use xlink:href="#ArialUnicodeMS-30" x="139.013672"/>
      </g>
     </g>
    </g>
    <g id="xtick_2">
     <g id="line2d_3">
      <path d="M 163.829896 310.448125 
L 163.829896 37.055625 
" clip-path="url(#paa24d3f9ec)" style="fill: none; stroke-dasharray: 2.96,1.28; stroke-dashoffset: 0; stroke: #eeeeee; stroke-opacity: 0.5; stroke-width: 0.8"/>
     </g>
     <g id="line2d_4">
      <g>
       <use xlink:href="#mb5d919c66f" x="163.829896" y="310.448125" style="fill: #666666; stroke: #666666; stroke-width: 0.8"/>
      </g>
     </g>
     <g id="text_2">
      <!-- 0.15 -->
      <g style="fill: #666666" transform="translate(154.099427 324.605937) scale(0.1 -0.1)">
       <defs>
        <path id="ArialUnicodeMS-35" d="M 1013 2753 
Q 1431 3041 1881 3041 
Q 2453 3041 2878 2636 
Q 3303 2231 3303 1556 
Q 3303 875 2872 398 
Q 2441 -78 1741 -78 
Q 1169 -78 750 245 
Q 331 569 269 1203 
L 856 1247 
Q 928 813 1162 598 
Q 1397 384 1741 384 
Q 2169 384 2434 707 
Q 2700 1031 2700 1503 
Q 2700 1984 2428 2262 
Q 2156 2541 1728 2541 
Q 1188 2541 897 2100 
L 366 2163 
L 813 4519 
L 3084 4519 
L 3084 3975 
L 1259 3975 
L 1013 2753 
z
" transform="scale(0.015625)"/>
       </defs>
       <use xlink:href="#ArialUnicodeMS-30"/>
       <use xlink:href="#ArialUnicodeMS-2e" x="55.615234"/>
       <use xlink:href="#ArialUnicodeMS-31" x="83.398438"/>
       <use xlink:href="#ArialUnicodeMS-35" x="139.013672"/>
      </g>
     </g>
    </g>
    <g id="xtick_3">
     <g id="line2d_5">
      <path d="M 239.560104 310.448125 
L 239.560104 37.055625 
" clip-path="url(#paa24d3f9ec)" style="fill: none; stroke-dasharray: 2.96,1.28; stroke-dashoffset: 0; stroke: #eeeeee; stroke-opacity: 0.5; stroke-width: 0.8"/>
     </g>
     <g id="line2d_6">
      <g>
       <use xlink:href="#mb5d919c66f" x="239.560104" y="310.448125" style="fill: #666666; stroke: #666666; stroke-width: 0.8"/>
      </g>
     </g>
     <g id="text_3">
      <!-- 0.20 -->
      <g style="fill: #666666" transform="translate(229.829635 324.605937) scale(0.1 -0.1)">
       <defs>
        <path id="ArialUnicodeMS-32" d="M 3231 0 
L 197 0 
Q 197 388 467 784 
Q 738 1181 1478 1778 
Q 1931 2141 2287 2539 
Q 2644 2938 2644 3341 
Q 2644 3688 2398 3914 
Q 2153 4141 1778 4141 
Q 1400 4141 1144 3908 
Q 888 3675 884 3213 
L 306 3278 
Q 359 3922 764 4262 
Q 1169 4603 1791 4603 
Q 2466 4603 2842 4229 
Q 3219 3856 3219 3328 
Q 3219 2888 2901 2436 
Q 2584 1984 1638 1228 
Q 1141 831 978 544 
L 3231 544 
L 3231 0 
z
" transform="scale(0.015625)"/>
       </defs>
       <use xlink:href="#ArialUnicodeMS-30"/>
       <use xlink:href="#ArialUnicodeMS-2e" x="55.615234"/>
       <use xlink:href="#ArialUnicodeMS-32" x="83.398438"/>
       <use xlink:href="#ArialUnicodeMS-30" x="139.013672"/>
      </g>
     </g>
    </g>
    <g id="xtick_4">
     <g id="line2d_7">
      <path d="M 315.290313 310.448125 
L 315.290313 37.055625 
" clip-path="url(#paa24d3f9ec)" style="fill: none; stroke-dasharray: 2.96,1.28; stroke-dashoffset: 0; stroke: #eeeeee; stroke-opacity: 0.5; stroke-width: 0.8"/>
     </g>
     <g id="line2d_8">
      <g>
       <use xlink:href="#mb5d919c66f" x="315.290313" y="310.448125" style="fill: #666666; stroke: #666666; stroke-width: 0.8"/>
      </g>
     </g>
     <g id="text_4">
      <!-- 0.25 -->
      <g style="fill: #666666" transform="translate(305.559844 324.605937) scale(0.1 -0.1)">
       <use xlink:href="#ArialUnicodeMS-30"/>
       <use xlink:href="#ArialUnicodeMS-2e" x="55.615234"/>
       <use xlink:href="#ArialUnicodeMS-32" x="83.398438"/>
       <use xlink:href="#ArialUnicodeMS-35" x="139.013672"/>
      </g>
     </g>
    </g>
    <g id="xtick_5">
     <g id="line2d_9">
      <path d="M 391.020521 310.448125 
L 391.020521 37.055625 
" clip-path="url(#paa24d3f9ec)" style="fill: none; stroke-dasharray: 2.96,1.28; stroke-dashoffset: 0; stroke: #eeeeee; stroke-opacity: 0.5; stroke-width: 0.8"/>
     </g>
     <g id="line2d_10">
      <g>
       <use xlink:href="#mb5d919c66f" x="391.020521" y="310.448125" style="fill: #666666; stroke: #666666; stroke-width: 0.8"/>
      </g>
     </g>
     <g id="text_5">
      <!-- 0.30 -->
      <g style="fill: #666666" transform="translate(381.290052 324.605937) scale(0.1 -0.1)">
       <defs>
        <path id="ArialUnicodeMS-33" d="M 2425 2478 
Q 2850 2397 3067 2067 
Q 3284 1738 3284 1350 
Q 3284 725 2829 323 
Q 2375 -78 1741 -78 
Q 1134 -78 740 275 
Q 347 628 281 1209 
L 844 1288 
Q 928 834 1151 609 
Q 1375 384 1741 384 
Q 2134 384 2407 661 
Q 2681 938 2681 1338 
Q 2681 1722 2432 1975 
Q 2184 2228 1784 2228 
Q 1622 2228 1388 2169 
L 1453 2663 
Q 1678 2663 1809 2684 
Q 1941 2706 2103 2790 
Q 2266 2875 2372 3033 
Q 2478 3191 2478 3425 
Q 2478 3766 2251 3953 
Q 2025 4141 1728 4141 
Q 1388 4141 1173 3925 
Q 959 3709 903 3309 
L 341 3413 
Q 450 4009 823 4306 
Q 1197 4603 1716 4603 
Q 2288 4603 2670 4258 
Q 3053 3913 3053 3413 
Q 3053 2772 2425 2491 
L 2425 2478 
z
" transform="scale(0.015625)"/>
       </defs>
       <use xlink:href="#ArialUnicodeMS-30"/>
       <use xlink:href="#ArialUnicodeMS-2e" x="55.615234"/>
       <use xlink:href="#ArialUnicodeMS-33" x="83.398438"/>
       <use xlink:href="#ArialUnicodeMS-30" x="139.013672"/>
      </g>
     </g>
    </g>
    <g id="xtick_6">
     <g id="line2d_11">
      <path d="M 466.750729 310.448125 
L 466.750729 37.055625 
" clip-path="url(#paa24d3f9ec)" style="fill: none; stroke-dasharray: 2.96,1.28; stroke-dashoffset: 0; stroke: #eeeeee; stroke-opacity: 0.5; stroke-width: 0.8"/>
     </g>
     <g id="line2d_12">
      <g>
       <use xlink:href="#mb5d919c66f" x="466.750729" y="310.448125" style="fill: #666666; stroke: #666666; stroke-width: 0.8"/>
      </g>
     </g>
     <g id="text_6">
      <!-- 0.35 -->
      <g style="fill: #666666" transform="translate(457.02026 324.605937) scale(0.1 -0.1)">
       <use xlink:href="#ArialUnicodeMS-30"/>
       <use xlink:href="#ArialUnicodeMS-2e" x="55.615234"/>
       <use xlink:href="#ArialUnicodeMS-33" x="83.398438"/>
       <use xlink:href="#ArialUnicodeMS-35" x="139.013672"/>
      </g>
     </g>
    </g>
    <g id="xtick_7">
     <g id="line2d_13">
      <path d="M 542.480937 310.448125 
L 542.480937 37.055625 
" clip-path="url(#paa24d3f9ec)" style="fill: none; stroke-dasharray: 2.96,1.28; stroke-dashoffset: 0; stroke: #eeeeee; stroke-opacity: 0.5; stroke-width: 0.8"/>
     </g>
     <g id="line2d_14">
      <g>
       <use xlink:href="#mb5d919c66f" x="542.480937" y="310.448125" style="fill: #666666; stroke: #666666; stroke-width: 0.8"/>
      </g>
     </g>
     <g id="text_7">
      <!-- 0.40 -->
      <g style="fill: #666666" transform="translate(532.750469 324.605937) scale(0.1 -0.1)">
       <defs>
        <path id="ArialUnicodeMS-34" d="M 3263 1094 
L 2644 1094 
L 2644 0 
L 2081 0 
L 2081 1094 
L 97 1094 
L 97 1613 
L 2181 4581 
L 2644 4581 
L 2644 1613 
L 3263 1613 
L 3263 1094 
z
M 2081 1613 
L 2081 3681 
L 2069 3681 
L 647 1613 
L 2081 1613 
z
" transform="scale(0.015625)"/>
       </defs>
       <use xlink:href="#ArialUnicodeMS-30"/>
       <use xlink:href="#ArialUnicodeMS-2e" x="55.615234"/>
       <use xlink:href="#ArialUnicodeMS-34" x="83.398438"/>
       <use xlink:href="#ArialUnicodeMS-30" x="139.013672"/>
      </g>
     </g>
    </g>
    <g id="text_8">
     <!-- 风险（标准差 σ） -->
     <g style="fill: #666666" transform="translate(267.908125 346.67625) scale(0.12 -0.12)">
      <defs>
       <path id="ArialUnicodeMS-98ce" d="M 6028 481 
L 5947 116 
Q 5788 -359 5534 -359 
Q 5416 -359 5278 -273 
Q 5141 -188 4917 176 
Q 4694 541 4576 1092 
Q 4459 1644 4428 2134 
Q 4397 2625 4394 3269 
L 4384 4588 
L 1575 4588 
L 1575 2356 
Q 1575 1563 1311 800 
Q 1047 38 575 -403 
L 166 -63 
Q 1088 834 1088 2478 
L 1088 5056 
L 4872 5056 
L 4872 2847 
Q 4872 1138 5497 206 
L 5588 738 
L 6028 481 
z
M 4378 603 
L 3944 353 
Q 3653 1191 3150 1894 
Q 2497 978 1838 347 
L 1447 697 
Q 2000 1109 2875 2278 
Q 2481 2828 1684 3591 
L 2009 3884 
Q 2681 3294 3138 2719 
Q 3481 3228 3822 4044 
L 4225 3816 
Q 3822 2838 3438 2316 
Q 4153 1334 4378 603 
z
" transform="scale(0.015625)"/>
       <path id="ArialUnicodeMS-9669" d="M 6041 3109 
L 5753 2688 
L 5375 2913 
L 5375 2613 
L 2809 2613 
L 2809 2906 
Q 2800 2900 2703 2834 
Q 2606 2769 2484 2719 
Q 2353 2866 2131 3169 
Q 2706 3375 3234 4004 
Q 3763 4634 3944 5294 
L 4422 5088 
L 4294 4763 
Q 4916 3678 6041 3109 
z
M 5166 3078 
Q 4406 3603 4056 4294 
Q 3659 3519 3041 3091 
L 3041 3078 
L 5166 3078 
z
M 2584 4575 
Q 2584 4516 1881 3256 
Q 2559 2400 2559 1734 
Q 2559 1403 2301 1133 
Q 2044 863 1666 863 
Q 1559 863 1416 884 
L 1253 1416 
Q 1522 1369 1659 1369 
Q 1909 1369 1995 1509 
Q 2081 1650 2081 1759 
Q 2081 2300 1300 3244 
Q 1725 3975 2016 4550 
L 1125 4550 
L 1125 -428 
L 641 -428 
L 641 5019 
L 2584 5019 
L 2584 4575 
z
M 4506 1088 
L 4056 863 
Q 3956 1488 3322 2297 
L 3769 2497 
Q 4356 1744 4506 1088 
z
M 5863 -172 
L 2216 -172 
L 2216 294 
L 4391 294 
Q 4878 1100 5125 2444 
L 5588 2259 
Q 5384 1181 4878 294 
L 5863 294 
L 5863 -172 
z
M 3700 756 
L 3213 525 
Q 3163 1300 2606 2113 
L 3028 2309 
Q 3600 1447 3700 756 
z
" transform="scale(0.015625)"/>
       <path id="ArialUnicodeMS-ff08" d="M 3964 -1344 
L 3561 -1344 
Q 3042 -681 2745 103 
Q 2448 888 2448 1656 
Q 2448 2528 2764 3275 
Q 3080 4022 3561 4659 
L 3964 4659 
Q 3408 3747 3219 3059 
Q 3030 2372 3030 1663 
Q 3030 153 3964 -1344 
z
" transform="scale(0.015625)"/>
       <path id="ArialUnicodeMS-6807" d="M 2597 2169 
L 2175 1931 
Q 2006 2331 1703 2772 
L 1691 2772 
L 1691 -353 
L 1203 -353 
L 1203 2253 
L 1191 2253 
Q 1022 1659 494 1106 
L 134 1453 
Q 966 2294 1172 3653 
L 372 3653 
L 372 4122 
L 1203 4122 
L 1203 5331 
L 1691 5331 
L 1691 4122 
L 2419 4122 
L 2419 3653 
L 1691 3653 
L 1691 3091 
L 1875 3206 
Q 2334 2725 2597 2169 
z
M 5569 4384 
L 2669 4384 
L 2669 4825 
L 5569 4825 
L 5569 4384 
z
M 5863 2931 
L 4353 2931 
L 4353 422 
Q 4353 78 4300 -64 
Q 4247 -206 4150 -261 
Q 4053 -316 3397 -378 
L 3219 116 
L 3756 91 
Q 3866 91 3866 281 
L 3866 2931 
L 2388 2931 
L 2388 3372 
L 5863 3372 
L 5863 2931 
z
M 6016 728 
L 5556 481 
Q 5247 1438 4531 2309 
L 4909 2547 
Q 5678 1606 6016 728 
z
M 3494 2316 
Q 3028 1181 2222 459 
L 1825 781 
Q 2694 1544 3097 2528 
L 3494 2316 
z
" transform="scale(0.015625)"/>
       <path id="ArialUnicodeMS-51c6" d="M 6081 56 
L 2944 56 
L 2944 -416 
L 2450 -416 
L 2450 3181 
Q 2297 2922 2028 2638 
L 1538 2859 
Q 2488 3813 2900 5344 
L 3353 5172 
Q 3178 4503 3028 4197 
L 4072 4197 
Q 4394 4750 4500 5338 
L 4972 5172 
Q 4900 4766 4641 4197 
L 5869 4197 
L 5869 3731 
L 4563 3731 
L 4563 3034 
L 5672 3034 
L 5672 2566 
L 4563 2566 
L 4563 1813 
L 5672 1813 
L 5672 1344 
L 4563 1344 
L 4563 525 
L 6081 525 
L 6081 56 
z
M 4078 3034 
L 4078 3731 
L 2944 3731 
L 2944 3034 
L 4078 3034 
z
M 4078 1813 
L 4078 2566 
L 2944 2566 
L 2944 1813 
L 4078 1813 
z
M 4078 525 
L 4078 1344 
L 2944 1344 
L 2944 525 
L 4078 525 
z
M 1931 3878 
L 1503 3603 
Q 1103 4347 581 4684 
L 1025 4947 
Q 1456 4669 1931 3878 
z
M 1825 2413 
Q 1728 1144 825 -97 
L 366 172 
Q 1266 1400 1331 2572 
L 1825 2413 
z
" transform="scale(0.015625)"/>
       <path id="ArialUnicodeMS-5dee" d="M 5991 -122 
L 1209 -122 
L 1209 347 
L 3284 347 
L 3284 1178 
L 1863 1178 
Q 1419 619 588 159 
L 300 581 
Q 1531 1266 1888 2169 
L 697 2169 
L 697 2631 
L 2981 2631 
L 2981 3188 
L 1319 3188 
L 1319 3634 
L 2981 3634 
L 2981 4122 
L 947 4122 
L 947 4581 
L 2291 4581 
Q 2069 4831 1563 5088 
L 2069 5350 
Q 2581 5003 2822 4588 
L 3647 4588 
Q 4069 4869 4313 5375 
L 4781 5147 
Q 4534 4741 4347 4603 
L 4347 4588 
L 5581 4588 
L 5575 4122 
L 3463 4122 
L 3463 3634 
L 5209 3634 
L 5209 3188 
L 3463 3188 
L 3463 2631 
L 5838 2631 
L 5838 2169 
L 2413 2169 
Q 2375 2000 2150 1644 
L 5497 1644 
L 5497 1178 
L 3763 1178 
L 3763 347 
L 5991 347 
L 5991 -122 
z
" transform="scale(0.015625)"/>
       <path id="ArialUnicodeMS-20" transform="scale(0.015625)"/>
       <path id="ArialUnicodeMS-3c3" d="M 3822 2950 
Q 3378 2906 3116 2906 
Q 3334 2397 3334 1656 
Q 3334 813 2895 367 
Q 2456 -78 1772 -78 
Q 1088 -78 656 372 
Q 225 822 225 1656 
Q 225 2500 662 2945 
Q 1100 3391 1772 3391 
L 2834 3366 
Q 3359 3366 3822 3419 
L 3822 2950 
z
M 2759 1656 
Q 2759 2441 2516 2906 
L 1778 2931 
Q 1350 2931 1075 2590 
Q 800 2250 800 1656 
Q 800 1066 1075 725 
Q 1350 384 1778 384 
Q 2206 384 2482 726 
Q 2759 1069 2759 1656 
z
" transform="scale(0.015625)"/>
       <path id="ArialUnicodeMS-ff09" d="M 2850 4659 
Q 3369 3997 3666 3212 
Q 3963 2428 3963 1656 
Q 3963 788 3647 41 
Q 3332 -706 2850 -1344 
L 2447 -1344 
Q 3004 -431 3193 255 
Q 3382 941 3382 1650 
Q 3382 3163 2447 4659 
L 2850 4659 
z
" transform="scale(0.015625)"/>
      </defs>
      <use xlink:href="#ArialUnicodeMS-98ce"/>
      <use xlink:href="#ArialUnicodeMS-9669" x="100"/>
      <use xlink:href="#ArialUnicodeMS-ff08" x="200"/>
      <use xlink:href="#ArialUnicodeMS-6807" x="300"/>
      <use xlink:href="#ArialUnicodeMS-51c6" x="400"/>
      <use xlink:href="#ArialUnicodeMS-5dee" x="500"/>
      <use xlink:href="#ArialUnicodeMS-20" x="600"/>
      <use xlink:href="#ArialUnicodeMS-3c3" x="627.783203"/>
      <use xlink:href="#ArialUnicodeMS-ff09" x="689.697266"/>
     </g>
    </g>
   </g>
   <g id="matplotlib.axis_2">
    <g id="ytick_1">
     <g id="line2d_15">
      <path d="M 65.380625 310.448125 
L 565.2 310.448125 
" clip-path="url(#paa24d3f9ec)" style="fill: none; stroke-dasharray: 2.96,1.28; stroke-dashoffset: 0; stroke: #eeeeee; stroke-opacity: 0.5; stroke-width: 0.8"/>
     </g>
     <g id="line2d_16">
      <defs>
       <path id="m78d597e48a" d="M 0 0 
L -3.5 0 
" style="stroke: #666666; stroke-width: 0.8"/>
      </defs>
      <g>
       <use xlink:href="#m78d597e48a" x="65.380625" y="310.448125" style="fill: #666666; stroke: #666666; stroke-width: 0.8"/>
      </g>
     </g>
     <g id="text_9">
      <!-- 0.000 -->
      <g style="fill: #666666" transform="translate(33.35875 314.027031) scale(0.1 -0.1)">
       <use xlink:href="#ArialUnicodeMS-30"/>
       <use xlink:href="#ArialUnicodeMS-2e" x="55.615234"/>
       <use xlink:href="#ArialUnicodeMS-30" x="83.398438"/>
       <use xlink:href="#ArialUnicodeMS-30" x="139.013672"/>
       <use xlink:href="#ArialUnicodeMS-30" x="194.628906"/>
      </g>
     </g>
    </g>
    <g id="ytick_2">
     <g id="line2d_17">
      <path d="M 65.380625 276.274063 
L 565.2 276.274063 
" clip-path="url(#paa24d3f9ec)" style="fill: none; stroke-dasharray: 2.96,1.28; stroke-dashoffset: 0; stroke: #eeeeee; stroke-opacity: 0.5; stroke-width: 0.8"/>
     </g>
     <g id="line2d_18">
      <g>
       <use xlink:href="#m78d597e48a" x="65.380625" y="276.274063" style="fill: #666666; stroke: #666666; stroke-width: 0.8"/>
      </g>
     </g>
     <g id="text_10">
      <!-- 0.025 -->
      <g style="fill: #666666" transform="translate(33.35875 279.852969) scale(0.1 -0.1)">
       <use xlink:href="#ArialUnicodeMS-30"/>
       <use xlink:href="#ArialUnicodeMS-2e" x="55.615234"/>
       <use xlink:href="#ArialUnicodeMS-30" x="83.398438"/>
       <use xlink:href="#ArialUnicodeMS-32" x="139.013672"/>
       <use xlink:href="#ArialUnicodeMS-35" x="194.628906"/>
      </g>
     </g>
    </g>
    <g id="ytick_3">
     <g id="line2d_19">
      <path d="M 65.380625 242.1 
L 565.2 242.1 
" clip-path="url(#paa24d3f9ec)" style="fill: none; stroke-dasharray: 2.96,1.28; stroke-dashoffset: 0; stroke: #eeeeee; stroke-opacity: 0.5; stroke-width: 0.8"/>
     </g>
     <g id="line2d_20">
      <g>
       <use xlink:href="#m78d597e48a" x="65.380625" y="242.1" style="fill: #666666; stroke: #666666; stroke-width: 0.8"/>
      </g>
     </g>
     <g id="text_11">
      <!-- 0.050 -->
      <g style="fill: #666666" transform="translate(33.35875 245.678906) scale(0.1 -0.1)">
       <use xlink:href="#ArialUnicodeMS-30"/>
       <use xlink:href="#ArialUnicodeMS-2e" x="55.615234"/>
       <use xlink:href="#ArialUnicodeMS-30" x="83.398438"/>
       <use xlink:href="#ArialUnicodeMS-35" x="139.013672"/>
       <use xlink:href="#ArialUnicodeMS-30" x="194.628906"/>
      </g>
     </g>
    </g>
    <g id="ytick_4">
     <g id="line2d_21">
      <path d="M 65.380625 207.925937 
L 565.2 207.925937 
" clip-path="url(#paa24d3f9ec)" style="fill: none; stroke-dasharray: 2.96,1.28; stroke-dashoffset: 0; stroke: #eeeeee; stroke-opacity: 0.5; stroke-width: 0.8"/>
     </g>
     <g id="line2d_22">
      <g>
       <use xlink:href="#m78d597e48a" x="65.380625" y="207.925937" style="fill: #666666; stroke: #666666; stroke-width: 0.8"/>
      </g>
     </g>
     <g id="text_12">
      <!-- 0.075 -->
      <g style="fill: #666666" transform="translate(33.35875 211.504844) scale(0.1 -0.1)">
       <defs>
        <path id="ArialUnicodeMS-37" d="M 3272 4084 
Q 2597 3344 2103 2253 
Q 1609 1163 1522 0 
L 947 0 
Q 969 934 1408 2051 
Q 1847 3169 2547 3975 
L 306 3975 
L 306 4519 
L 3272 4519 
L 3272 4084 
z
" transform="scale(0.015625)"/>
       </defs>
       <use xlink:href="#ArialUnicodeMS-30"/>
       <use xlink:href="#ArialUnicodeMS-2e" x="55.615234"/>
       <use xlink:href="#ArialUnicodeMS-30" x="83.398438"/>
       <use xlink:href="#ArialUnicodeMS-37" x="139.013672"/>
       <use xlink:href="#ArialUnicodeMS-35" x="194.628906"/>
      </g>
     </g>
    </g>
    <g id="ytick_5">
     <g id="line2d_23">
      <path d="M 65.380625 173.751875 
L 565.2 173.751875 
" clip-path="url(#paa24d3f9ec)" style="fill: none; stroke-dasharray: 2.96,1.28; stroke-dashoffset: 0; stroke: #eeeeee; stroke-opacity: 0.5; stroke-width: 0.8"/>
     </g>
     <g id="line2d_24">
      <g>
       <use xlink:href="#m78d597e48a" x="65.380625" y="173.751875" style="fill: #666666; stroke: #666666; stroke-width: 0.8"/>
      </g>
     </g>
     <g id="text_13">
      <!-- 0.100 -->
      <g style="fill: #666666" transform="translate(33.35875 177.330781) scale(0.1 -0.1)">
       <use xlink:href="#ArialUnicodeMS-30"/>
       <use xlink:href="#ArialUnicodeMS-2e" x="55.615234"/>
       <use xlink:href="#ArialUnicodeMS-31" x="83.398438"/>
       <use xlink:href="#ArialUnicodeMS-30" x="139.013672"/>
       <use xlink:href="#ArialUnicodeMS-30" x="194.628906"/>
      </g>
     </g>
    </g>
    <g id="ytick_6">
     <g id="line2d_25">
      <path d="M 65.380625 139.577812 
L 565.2 139.577812 
" clip-path="url(#paa24d3f9ec)" style="fill: none; stroke-dasharray: 2.96,1.28; stroke-dashoffset: 0; stroke: #eeeeee; stroke-opacity: 0.5; stroke-width: 0.8"/>
     </g>
     <g id="line2d_26">
      <g>
       <use xlink:href="#m78d597e48a" x="65.380625" y="139.577812" style="fill: #666666; stroke: #666666; stroke-width: 0.8"/>
      </g>
     </g>
     <g id="text_14">
      <!-- 0.125 -->
      <g style="fill: #666666" transform="translate(33.35875 143.156719) scale(0.1 -0.1)">
       <use xlink:href="#ArialUnicodeMS-30"/>
       <use xlink:href="#ArialUnicodeMS-2e" x="55.615234"/>
       <use xlink:href="#ArialUnicodeMS-31" x="83.398438"/>
       <use xlink:href="#ArialUnicodeMS-32" x="139.013672"/>
       <use xlink:href="#ArialUnicodeMS-35" x="194.628906"/>
      </g>
     </g>
    </g>
    <g id="ytick_7">
     <g id="line2d_27">
      <path d="M 65.380625 105.40375 
L 565.2 105.40375 
" clip-path="url(#paa24d3f9ec)" style="fill: none; stroke-dasharray: 2.96,1.28; stroke-dashoffset: 0; stroke: #eeeeee; stroke-opacity: 0.5; stroke-width: 0.8"/>
     </g>
     <g id="line2d_28">
      <g>
       <use xlink:href="#m78d597e48a" x="65.380625" y="105.40375" style="fill: #666666; stroke: #666666; stroke-width: 0.8"/>
      </g>
     </g>
     <g id="text_15">
      <!-- 0.150 -->
      <g style="fill: #666666" transform="translate(33.35875 108.982656) scale(0.1 -0.1)">
       <use xlink:href="#ArialUnicodeMS-30"/>
       <use xlink:href="#ArialUnicodeMS-2e" x="55.615234"/>
       <use xlink:href="#ArialUnicodeMS-31" x="83.398438"/>
       <use xlink:href="#ArialUnicodeMS-35" x="139.013672"/>
       <use xlink:href="#ArialUnicodeMS-30" x="194.628906"/>
      </g>
     </g>
    </g>
    <g id="ytick_8">
     <g id="line2d_29">
      <path d="M 65.380625 71.229687 
L 565.2 71.229687 
" clip-path="url(#paa24d3f9ec)" style="fill: none; stroke-dasharray: 2.96,1.28; stroke-dashoffset: 0; stroke: #eeeeee; stroke-opacity: 0.5; stroke-width: 0.8"/>
     </g>
     <g id="line2d_30">
      <g>
       <use xlink:href="#m78d597e48a" x="65.380625" y="71.229687" style="fill: #666666; stroke: #666666; stroke-width: 0.8"/>
      </g>
     </g>
     <g id="text_16">
      <!-- 0.175 -->
      <g style="fill: #666666" transform="translate(33.35875 74.808594) scale(0.1 -0.1)">
       <use xlink:href="#ArialUnicodeMS-30"/>
       <use xlink:href="#ArialUnicodeMS-2e" x="55.615234"/>
       <use xlink:href="#ArialUnicodeMS-31" x="83.398438"/>
       <use xlink:href="#ArialUnicodeMS-37" x="139.013672"/>
       <use xlink:href="#ArialUnicodeMS-35" x="194.628906"/>
      </g>
     </g>
    </g>
    <g id="ytick_9">
     <g id="line2d_31">
      <path d="M 65.380625 37.055625 
L 565.2 37.055625 
" clip-path="url(#paa24d3f9ec)" style="fill: none; stroke-dasharray: 2.96,1.28; stroke-dashoffset: 0; stroke: #eeeeee; stroke-opacity: 0.5; stroke-width: 0.8"/>
     </g>
     <g id="line2d_32">
      <g>
       <use xlink:href="#m78d597e48a" x="65.380625" y="37.055625" style="fill: #666666; stroke: #666666; stroke-width: 0.8"/>
      </g>
     </g>
     <g id="text_17">
      <!-- 0.200 -->
      <g style="fill: #666666" transform="translate(33.35875 40.634531) scale(0.1 -0.1)">
       <use xlink:href="#ArialUnicodeMS-30"/>
       <use xlink:href="#ArialUnicodeMS-2e" x="55.615234"/>
       <use xlink:href="#ArialUnicodeMS-32" x="83.398438"/>
       <use xlink:href="#ArialUnicodeMS-30" x="139.013672"/>
       <use xlink:href="#ArialUnicodeMS-30" x="194.628906"/>
      </g>
     </g>
    </g>
    <g id="text_18">
     <!-- 预期收益（μ） -->
     <g style="fill: #666666" transform="translate(20.83875 213.071562) rotate(-90) scale(0.12 -0.12)">
      <defs>
       <path id="ArialUnicodeMS-9884" d="M 5888 4519 
L 4538 4519 
Q 4450 4066 4306 3828 
L 5594 3828 
L 5594 872 
L 5106 872 
L 5106 3359 
L 3431 3359 
L 3431 825 
L 2944 825 
L 2944 3828 
L 3725 3828 
Q 3906 4113 4031 4519 
L 2700 4519 
L 2700 4984 
L 5888 4984 
L 5888 4519 
z
M 2747 2822 
Q 2747 2788 2650 2513 
Q 2553 2238 2406 1953 
Q 2288 1997 1947 2175 
Q 2159 2513 2241 2759 
L 1728 2759 
L 1728 63 
Q 1728 -141 1609 -275 
Q 1491 -409 1306 -409 
L 703 -409 
L 519 109 
L 1106 84 
Q 1156 84 1198 134 
Q 1241 184 1241 238 
L 1241 2759 
L 319 2759 
L 319 3225 
L 1619 3225 
Q 1413 3463 594 3794 
L 916 4153 
Q 1138 4094 1281 4006 
L 1747 4447 
L 391 4447 
L 391 4916 
L 2484 4916 
L 2484 4494 
Q 2016 3963 1741 3750 
Q 1981 3588 2181 3391 
L 2053 3225 
L 2747 3225 
L 2747 2822 
z
M 4494 1747 
Q 4494 1088 4069 481 
Q 3644 -125 2688 -409 
L 2369 38 
Q 4003 384 4019 1931 
L 4031 3122 
L 4494 3053 
L 4494 1747 
z
M 5991 -13 
L 5663 -416 
Q 5234 169 4325 594 
L 4609 966 
Q 5506 559 5991 -13 
z
" transform="scale(0.015625)"/>
       <path id="ArialUnicodeMS-671f" d="M 3738 1281 
L 506 1281 
L 506 1747 
L 1075 1747 
L 1075 4134 
L 531 4134 
L 531 4603 
L 1075 4603 
L 1075 5281 
L 1563 5281 
L 1563 4603 
L 2741 4603 
L 2741 5306 
L 3225 5306 
L 3225 4603 
L 3738 4603 
L 3738 4134 
L 3225 4134 
L 3225 1747 
L 3738 1747 
L 3738 1281 
z
M 2741 3688 
L 2741 4134 
L 1563 4134 
L 1563 3688 
L 2741 3688 
z
M 2741 2766 
L 2741 3219 
L 1563 3219 
L 1563 2766 
L 2741 2766 
z
M 2741 1747 
L 2741 2297 
L 1563 2297 
L 1563 1747 
L 2741 1747 
z
M 5753 366 
Q 5753 38 5672 -57 
Q 5591 -153 5489 -233 
Q 5388 -313 4697 -313 
L 4538 178 
L 5147 159 
Q 5269 159 5269 300 
L 5269 1753 
L 4331 1753 
Q 4275 494 3719 -447 
L 3284 -153 
Q 3853 716 3853 1984 
L 3853 4997 
L 5753 4997 
L 5753 366 
z
M 5269 3688 
L 5269 4531 
L 4341 4531 
L 4341 3688 
L 5269 3688 
z
M 5269 2222 
L 5269 3219 
L 4341 3219 
L 4341 2222 
L 5269 2222 
z
M 1931 934 
Q 1556 213 750 -422 
L 384 -84 
Q 1203 488 1588 1247 
L 1931 934 
z
M 3494 366 
L 3150 0 
Q 2775 566 2222 850 
L 2547 1178 
Q 3075 947 3494 366 
z
" transform="scale(0.015625)"/>
       <path id="ArialUnicodeMS-6536" d="M 6088 -13 
L 5728 -391 
Q 5000 -66 4391 716 
Q 3878 91 2938 -447 
L 2584 -116 
L 2584 -434 
L 2100 -434 
L 2100 1313 
L 647 825 
L 428 1247 
Q 509 1284 621 1318 
Q 734 1353 763 1369 
L 763 4641 
L 1247 4641 
L 1247 1528 
L 2100 1838 
L 2100 5247 
L 2584 5247 
L 2584 -56 
Q 3647 494 4147 1147 
Q 3669 1850 3463 2719 
Q 3253 2297 2975 1925 
L 2613 2272 
Q 3469 3409 3525 5313 
L 4006 5159 
Q 4006 4703 3916 4166 
L 5813 4166 
L 5813 3700 
L 5422 3700 
Q 5363 2247 4697 1147 
Q 5272 319 6088 -13 
z
M 4947 3700 
L 3816 3700 
L 3763 3500 
Q 3975 2297 4416 1588 
Q 4878 2472 4947 3700 
z
" transform="scale(0.015625)"/>
       <path id="ArialUnicodeMS-76ca" d="M 5191 5063 
Q 4775 4500 4072 4000 
L 3706 4341 
Q 4428 4822 4788 5375 
L 5191 5063 
z
M 2675 4306 
L 2259 3994 
Q 1838 4713 1197 5075 
L 1631 5350 
Q 2178 5041 2675 4306 
z
M 5869 3506 
L 531 3506 
L 531 3975 
L 5869 3975 
L 5869 3506 
z
M 6144 2150 
L 5831 1753 
Q 5544 1859 5209 2034 
L 5209 353 
L 5984 353 
L 5984 -116 
L 403 -116 
L 403 353 
L 1203 353 
L 1203 2113 
Q 906 1969 609 1875 
L 288 2284 
Q 1559 2691 2322 3463 
L 2688 3116 
Q 2044 2509 1313 2150 
L 5006 2150 
Q 4272 2588 3738 3169 
L 4128 3481 
Q 4856 2681 6144 2150 
z
M 4691 366 
L 4691 1709 
L 4044 1709 
L 4044 366 
L 4691 366 
z
M 3547 366 
L 3547 1709 
L 2847 1709 
L 2847 366 
L 3547 366 
z
M 2350 353 
L 2350 1684 
L 1703 1684 
L 1703 353 
L 2350 353 
z
" transform="scale(0.015625)"/>
       <path id="ArialUnicodeMS-3bc" d="M 3116 0 
L 2613 0 
L 2613 488 
L 2597 488 
Q 2394 206 2186 64 
Q 1978 -78 1716 -78 
Q 1503 -78 1300 33 
Q 1097 144 984 319 
L 984 -1275 
L 422 -1275 
L 422 3316 
L 984 3316 
L 984 1338 
Q 984 878 1136 643 
Q 1288 409 1672 409 
Q 2050 409 2301 668 
Q 2553 928 2553 1428 
L 2553 3316 
L 3116 3316 
L 3116 0 
z
" transform="scale(0.015625)"/>
      </defs>
      <use xlink:href="#ArialUnicodeMS-9884"/>
      <use xlink:href="#ArialUnicodeMS-671f" x="100"/>
      <use xlink:href="#ArialUnicodeMS-6536" x="200"/>
      <use xlink:href="#ArialUnicodeMS-76ca" x="300"/>
      <use xlink:href="#ArialUnicodeMS-ff08" x="400"/>
      <use xlink:href="#ArialUnicodeMS-3bc" x="500"/>
      <use xlink:href="#ArialUnicodeMS-ff09" x="555.322266"/>
     </g>
    </g>
   </g>
   <g id="line2d_33">
    <path d="M 88.099688 269.43925 
L 163.829896 242.1 
L 239.560104 201.091125 
L 315.290313 173.751875 
L 391.020521 160.08225 
L 466.750729 153.247437 
L 542.480937 146.412625 
" clip-path="url(#paa24d3f9ec)" style="fill: none; stroke: #94a3b8; stroke-width: 2.5; stroke-linecap: square"/>
    <defs>
     <path id="m58fa4b0eab" d="M -4 4 
L 4 4 
L 4 -4 
L -4 -4 
z
" style="stroke: #94a3b8; stroke-width: 2; stroke-linejoin: miter"/>
    </defs>
    <g clip-path="url(#paa24d3f9ec)">
     <use xlink:href="#m58fa4b0eab" x="88.099688" y="269.43925" style="fill: #ffffff; stroke: #94a3b8; stroke-width: 2; stroke-linejoin: miter"/>
     <use xlink:href="#m58fa4b0eab" x="163.829896" y="242.1" style="fill: #ffffff; stroke: #94a3b8; stroke-width: 2; stroke-linejoin: miter"/>
     <use xlink:href="#m58fa4b0eab" x="239.560104" y="201.091125" style="fill: #ffffff; stroke: #94a3b8; stroke-width: 2; stroke-linejoin: miter"/>
     <use xlink:href="#m58fa4b0eab" x="315.290313" y="173.751875" style="fill: #ffffff; stroke: #94a3b8; stroke-width: 2; stroke-linejoin: miter"/>
     <use xlink:href="#m58fa4b0eab" x="391.020521" y="160.08225" style="fill: #ffffff; stroke: #94a3b8; stroke-width: 2; stroke-linejoin: miter"/>
     <use xlink:href="#m58fa4b0eab" x="466.750729" y="153.247437" style="fill: #ffffff; stroke: #94a3b8; stroke-width: 2; stroke-linejoin: miter"/>
     <use xlink:href="#m58fa4b0eab" x="542.480937" y="146.412625" style="fill: #ffffff; stroke: #94a3b8; stroke-width: 2; stroke-linejoin: miter"/>
    </g>
   </g>
   <g id="line2d_34">
    <path d="M 88.099688 255.769625 
L 163.829896 214.76075 
L 239.560104 160.08225 
L 315.290313 119.073375 
L 391.020521 91.734125 
L 466.750729 78.0645 
L 542.480937 64.394875 
" clip-path="url(#paa24d3f9ec)" style="fill: none; stroke: #10b981; stroke-width: 2.5; stroke-linecap: square"/>
    <defs>
     <path id="m959d518cc0" d="M 0 -4 
L -4 4 
L 4 4 
z
" style="stroke: #10b981; stroke-width: 2; stroke-linejoin: miter"/>
    </defs>
    <g clip-path="url(#paa24d3f9ec)">
     <use xlink:href="#m959d518cc0" x="88.099688" y="255.769625" style="fill: #ffffff; stroke: #10b981; stroke-width: 2; stroke-linejoin: miter"/>
     <use xlink:href="#m959d518cc0" x="163.829896" y="214.76075" style="fill: #ffffff; stroke: #10b981; stroke-width: 2; stroke-linejoin: miter"/>
     <use xlink:href="#m959d518cc0" x="239.560104" y="160.08225" style="fill: #ffffff; stroke: #10b981; stroke-width: 2; stroke-linejoin: miter"/>
     <use xlink:href="#m959d518cc0" x="315.290313" y="119.073375" style="fill: #ffffff; stroke: #10b981; stroke-width: 2; stroke-linejoin: miter"/>
     <use xlink:href="#m959d518cc0" x="391.020521" y="91.734125" style="fill: #ffffff; stroke: #10b981; stroke-width: 2; stroke-linejoin: miter"/>
     <use xlink:href="#m959d518cc0" x="466.750729" y="78.0645" style="fill: #ffffff; stroke: #10b981; stroke-width: 2; stroke-linejoin: miter"/>
     <use xlink:href="#m959d518cc0" x="542.480937" y="64.394875" style="fill: #ffffff; stroke: #10b981; stroke-width: 2; stroke-linejoin: miter"/>
    </g>
   </g>
   <g id="patch_3">
    <path d="M 65.380625 310.448125 
L 65.380625 37.055625 
" style="fill: none; stroke: #dddddd; stroke-width: 0.8; stroke-linejoin: miter; stroke-linecap: square"/>
   </g>
   <g id="patch_4">
    <path d="M 65.380625 310.448125 
L 565.2 310.448125 
" style="fill: none; stroke: #dddddd; stroke-width: 0.8; stroke-linejoin: miter; stroke-linecap: square"/>
   </g>
   <g id="text_19">
    <!-- 马科维茨有效前沿：传统组合 vs 引入艺术品 RWA -->
    <g style="fill: #333333" transform="translate(149.041094 22.055625) scale(0.15 -0.15)">
     <defs>
      <path id="ArialUnicodeMS-9a6c" d="M 5709 2284 
Q 5709 1584 5542 804 
Q 5375 25 5219 -170 
Q 5063 -366 4688 -366 
Q 4419 -366 4103 -306 
L 3969 219 
Q 4581 103 4641 103 
Q 4797 103 4865 217 
Q 4934 331 5056 984 
Q 5178 1638 5203 2163 
L 1369 2163 
L 1369 2584 
Q 1616 3697 1678 4422 
L 2169 4313 
Q 2091 3638 1881 2631 
L 3853 2631 
Q 3944 3109 4084 4588 
L 897 4588 
L 897 5056 
L 4634 5056 
Q 4503 3431 4366 2631 
L 5709 2631 
L 5709 2284 
z
M 4513 959 
L 531 959 
L 531 1428 
L 4513 1428 
L 4513 959 
z
" transform="scale(0.015625)"/>
      <path id="ArialUnicodeMS-79d1" d="M 3138 1863 
L 2747 1569 
Q 2444 2141 2022 2431 
L 2022 -441 
L 1528 -441 
L 1528 2088 
Q 1253 1506 684 928 
L 263 1222 
Q 1125 2000 1528 3200 
L 581 3200 
L 581 3669 
L 1538 3669 
L 1538 4391 
Q 944 4284 697 4275 
L 447 4756 
Q 1528 4756 2597 5306 
L 2881 4934 
Q 2463 4694 2022 4538 
L 2022 3669 
L 2981 3669 
L 2981 3200 
L 2022 3200 
L 2022 2759 
L 2188 2869 
Q 2800 2503 3138 1863 
z
M 6113 1678 
L 5259 1472 
L 5259 -416 
L 4775 -416 
L 4775 1344 
L 2791 878 
L 2663 1344 
L 4775 1856 
L 4775 5241 
L 5259 5241 
L 5259 1972 
L 6009 2144 
L 6113 1678 
z
M 4494 3816 
L 4153 3469 
Q 3756 4050 2906 4481 
L 3206 4819 
Q 4044 4444 4494 3816 
z
M 4353 2297 
L 4000 1919 
Q 3572 2638 2816 3003 
L 3163 3341 
Q 3934 2925 4353 2297 
z
" transform="scale(0.015625)"/>
      <path id="ArialUnicodeMS-7ef4" d="M 4953 4519 
L 4525 4244 
Q 4275 4800 3884 5100 
L 4288 5350 
Q 4647 5066 4953 4519 
z
M 2591 1791 
Q 1328 1481 659 1275 
L 428 1703 
Q 1075 2350 1344 2766 
Q 972 2675 647 2572 
L 403 3009 
Q 903 3831 1478 5300 
L 1913 5094 
Q 1356 3816 984 3150 
L 1656 3291 
Q 1856 3588 2088 4056 
L 2534 3853 
Q 1878 2513 1191 1900 
L 1203 1888 
L 2591 2228 
L 2591 1791 
z
M 5888 -44 
L 3213 -44 
L 3213 -409 
L 2725 -409 
L 2725 2956 
L 2706 2956 
Q 2666 2809 2413 2553 
L 1984 2803 
Q 2828 3734 3175 5294 
L 3622 5119 
L 3347 4172 
L 5709 4172 
L 5709 3706 
L 4556 3706 
L 4556 2988 
L 5650 2988 
L 5650 2522 
L 4556 2522 
L 4556 1759 
L 5650 1759 
L 5650 1294 
L 4556 1294 
L 4556 422 
L 5888 422 
L 5888 -44 
z
M 4072 2988 
L 4072 3706 
L 3213 3706 
L 3213 2988 
L 4072 2988 
z
M 4072 1759 
L 4072 2522 
L 3213 2522 
L 3213 1759 
L 4072 1759 
z
M 4072 422 
L 4072 1294 
L 3213 1294 
L 3213 422 
L 4072 422 
z
M 2591 756 
L 672 72 
L 428 513 
Q 1097 706 2591 1234 
L 2591 756 
z
" transform="scale(0.015625)"/>
      <path id="ArialUnicodeMS-8328" d="M 5856 4172 
L 4538 4172 
L 4538 3603 
L 4050 3603 
L 4050 4172 
L 2234 4172 
L 2234 3603 
L 1747 3603 
L 1747 4172 
L 416 4172 
L 416 4659 
L 1747 4659 
L 1747 5338 
L 2234 5338 
L 2234 4659 
L 4050 4659 
L 4050 5338 
L 4538 5338 
L 4538 4659 
L 5856 4659 
L 5856 4172 
z
M 5663 3194 
Q 5616 2356 5338 1772 
L 4831 1881 
Q 4988 2166 5100 2706 
L 3238 2706 
Q 2950 2125 2528 1691 
L 2119 1947 
Q 3050 3034 3103 4050 
L 3559 3938 
Q 3544 3556 3419 3194 
L 5663 3194 
z
M 2181 2706 
L 1806 2350 
Q 1300 3159 588 3431 
L 903 3781 
Q 1628 3553 2181 2706 
z
M 6059 25 
L 5728 -416 
Q 4309 53 3828 1025 
Q 3272 34 1931 -403 
L 1569 31 
Q 2447 306 2997 779 
Q 3547 1253 3628 2444 
L 4103 2369 
Q 4097 2222 4063 1950 
L 4025 1691 
Q 4025 1584 4217 1262 
Q 4409 941 4721 686 
Q 5034 431 5414 262 
Q 5794 94 6059 25 
z
M 2100 1806 
Q 1838 772 813 -184 
L 347 91 
Q 1328 938 1663 1997 
L 2100 1806 
z
" transform="scale(0.015625)"/>
      <path id="ArialUnicodeMS-6709" d="M 5991 4031 
L 2547 4031 
Q 2403 3600 2316 3438 
L 5216 3438 
L 5216 166 
Q 5178 -269 4550 -269 
L 4031 -269 
L 3809 225 
Q 4103 184 4447 184 
Q 4728 184 4728 300 
L 4728 934 
L 2322 934 
L 2322 -416 
L 1813 -416 
L 1813 2656 
Q 1644 2369 738 1434 
L 288 1728 
Q 1619 2903 2022 4031 
L 678 4031 
L 678 4500 
L 2203 4500 
Q 2288 4700 2450 5403 
L 2944 5294 
Q 2884 5041 2731 4500 
L 5991 4500 
L 5991 4031 
z
M 4728 2450 
L 4728 2969 
L 2322 2969 
L 2322 2450 
L 4728 2450 
z
M 4728 1403 
L 4728 1984 
L 2322 1984 
L 2322 1403 
L 4728 1403 
z
" transform="scale(0.015625)"/>
      <path id="ArialUnicodeMS-6548" d="M 6119 -38 
L 5747 -409 
Q 5044 116 4609 756 
Q 4109 116 3384 -403 
L 3009 -63 
Q 3956 584 4341 1197 
Q 4041 1756 3866 2534 
Q 3672 2144 3450 1850 
L 3022 2081 
Q 3528 2766 3722 3500 
Q 3916 4234 3916 5338 
L 4366 5259 
Q 4384 4781 4306 4072 
L 5953 4072 
L 5953 3603 
L 5569 3603 
Q 5491 2219 4884 1184 
Q 5456 391 6119 -38 
z
M 5063 3603 
L 4231 3603 
L 4166 3322 
Q 4375 2238 4628 1716 
Q 5025 2469 5063 3603 
z
M 3359 3878 
L 569 3878 
L 569 4347 
L 1753 4347 
L 1753 5184 
L 2253 5184 
L 2253 4347 
L 3359 4347 
L 3359 3878 
z
M 1656 3641 
Q 1409 2850 775 2419 
L 384 2719 
Q 953 3006 1234 3803 
L 1656 3641 
z
M 3366 2803 
L 2969 2553 
Q 2688 3184 2150 3547 
L 2559 3794 
Q 3134 3359 3366 2803 
z
M 3278 628 
L 2888 281 
Q 2581 716 2234 1063 
Q 1747 269 769 -306 
L 469 103 
Q 1353 613 1869 1416 
Q 1272 2016 984 2163 
L 1344 2456 
Q 1422 2409 2113 1838 
Q 2219 2069 2375 2650 
L 2797 2456 
Q 2691 1897 2491 1503 
Q 2981 1028 3278 628 
z
" transform="scale(0.015625)"/>
      <path id="ArialUnicodeMS-524d" d="M 5913 3975 
L 488 3975 
L 488 4434 
L 2047 4434 
Q 1791 4891 1394 5131 
L 1869 5403 
Q 2231 5181 2663 4434 
L 3669 4434 
Q 4044 4813 4281 5441 
L 4744 5191 
Q 4538 4744 4269 4434 
L 5913 4434 
L 5913 3975 
z
M 5369 128 
Q 5369 -369 4709 -378 
L 4231 -384 
L 4078 91 
Q 4647 91 4755 127 
Q 4863 163 4863 281 
L 4863 3700 
L 5369 3700 
L 5369 128 
z
M 3206 244 
Q 3206 -19 3014 -153 
Q 2822 -288 2528 -281 
L 2100 -275 
L 1941 191 
L 2591 172 
Q 2719 194 2719 294 
L 2719 1038 
L 1544 1038 
L 1544 -231 
L 1056 -231 
L 1056 3469 
L 3206 3469 
L 3206 244 
z
M 2719 2491 
L 2719 3009 
L 1544 3009 
L 1544 2491 
L 2719 2491 
z
M 2719 1497 
L 2719 2059 
L 1544 2059 
L 1544 1497 
L 2719 1497 
z
M 4281 763 
L 3794 763 
L 3794 3278 
L 4281 3278 
L 4281 763 
z
" transform="scale(0.015625)"/>
      <path id="ArialUnicodeMS-6cbf" d="M 2222 4359 
L 1875 3975 
Q 1500 4534 738 4838 
L 1019 5209 
Q 1859 4875 2222 4359 
z
M 3425 5056 
Q 3194 3188 2022 2344 
L 1678 2719 
Q 2763 3516 2913 5178 
L 3425 5056 
z
M 5991 2741 
L 5625 2350 
Q 4475 3175 4238 5069 
L 4728 5172 
Q 4872 3556 5991 2741 
z
M 1784 3047 
L 1453 2694 
Q 1044 3200 275 3488 
L 556 3866 
Q 1322 3616 1784 3047 
z
M 5172 -306 
L 4684 -306 
L 4684 141 
L 2938 141 
L 2938 -306 
L 2450 -306 
L 2450 2463 
L 5172 2463 
L 5172 -306 
z
M 4684 609 
L 4684 1997 
L 2938 1997 
L 2938 609 
L 4684 609 
z
M 1863 2069 
Q 1575 691 775 -256 
L 341 31 
Q 1200 997 1428 2266 
L 1863 2069 
z
" transform="scale(0.015625)"/>
      <path id="ArialUnicodeMS-ff1a" d="M 3520 2675 
L 2879 2675 
L 2879 3316 
L 3520 3316 
L 3520 2675 
z
M 3520 0 
L 2879 0 
L 2879 641 
L 3520 641 
L 3520 0 
z
" transform="scale(0.015625)"/>
      <path id="ArialUnicodeMS-4f20" d="M 5778 2791 
L 3506 2791 
L 3291 2150 
L 5409 2150 
L 5409 1766 
Q 4894 1028 4422 563 
Q 4847 391 5344 -19 
L 4991 -422 
Q 4031 394 2753 659 
L 3034 1063 
Q 3878 806 3988 763 
Q 4309 1063 4775 1684 
L 3128 1684 
L 3003 1331 
L 2547 1503 
L 3034 2791 
L 1894 2791 
L 1894 3225 
L 3163 3225 
L 3378 3950 
L 2272 3950 
L 2272 4384 
L 3506 4384 
L 3763 5319 
L 4206 5141 
L 3988 4384 
L 5466 4384 
L 5466 3950 
L 3853 3950 
L 3653 3225 
L 5778 3225 
L 5778 2791 
z
M 2169 5094 
Q 2103 4713 1938 4109 
L 1772 3559 
L 1772 -384 
L 1313 -384 
L 1313 2644 
L 1300 2644 
Q 1016 2081 538 1606 
L 178 1966 
Q 1334 3053 1766 5319 
L 2169 5094 
z
" transform="scale(0.015625)"/>
      <path id="ArialUnicodeMS-7edf" d="M 5913 2478 
L 5503 2228 
Q 5319 2544 5259 2606 
Q 4153 2541 2547 2363 
L 2272 2875 
Q 3269 3503 3559 4084 
L 2356 4084 
L 2356 4550 
L 3878 4550 
Q 3725 4731 3128 5044 
L 3475 5363 
Q 4016 5141 4428 4697 
L 4256 4550 
L 5747 4550 
L 5747 4084 
L 4153 4084 
Q 3747 3338 3053 2919 
L 3066 2906 
L 4903 3053 
Q 4684 3288 4403 3506 
L 4850 3744 
Q 5534 3147 5913 2478 
z
M 2553 1663 
Q 1341 1369 622 1147 
L 391 1575 
Q 1022 2209 1306 2625 
L 1294 2638 
Q 1284 2631 1023 2561 
Q 763 2491 609 2438 
L 366 2881 
Q 853 3669 1441 5166 
L 1875 4966 
Q 1300 3650 947 3022 
L 1619 3163 
Q 1797 3416 2047 3922 
L 2503 3719 
Q 1888 2469 1153 1784 
L 1166 1772 
L 2553 2100 
L 2553 1663 
z
M 6028 947 
Q 5978 609 5822 225 
Q 5666 -159 5288 -159 
L 4788 -159 
Q 4547 -159 4395 -31 
Q 4244 97 4244 325 
L 4244 2194 
L 4728 2194 
L 4728 447 
Q 4728 306 4891 306 
L 5259 306 
Q 5356 306 5418 448 
Q 5481 591 5581 1088 
L 6028 947 
z
M 3659 2194 
Q 3659 1441 3579 1006 
Q 3500 572 3165 206 
Q 2831 -159 2216 -453 
L 1869 0 
Q 2388 150 2713 439 
Q 3038 728 3103 1103 
Q 3169 1478 3169 2194 
L 3659 2194 
z
M 2688 666 
L 647 -50 
L 409 397 
L 2688 1141 
L 2688 666 
z
" transform="scale(0.015625)"/>
      <path id="ArialUnicodeMS-7ec4" d="M 2509 1619 
Q 853 1231 622 1147 
L 391 1575 
Q 1022 2209 1306 2625 
L 1294 2638 
Q 1284 2631 1023 2561 
Q 763 2491 609 2438 
L 366 2881 
Q 853 3669 1441 5166 
L 1875 4966 
Q 1300 3650 947 3022 
L 1619 3163 
Q 1797 3416 2047 3922 
L 2503 3719 
Q 1863 2416 1153 1772 
L 1166 1759 
L 2509 2053 
L 2509 1619 
z
M 5919 -91 
L 2150 -91 
L 2150 378 
L 2881 378 
L 2881 4941 
L 5184 4941 
L 5184 378 
L 5919 378 
L 5919 -91 
z
M 4697 3469 
L 4697 4475 
L 3366 4475 
L 3366 3469 
L 4697 3469 
z
M 4697 1972 
L 4697 3028 
L 3366 3028 
L 3366 1972 
L 4697 1972 
z
M 4697 378 
L 4697 1528 
L 3366 1528 
L 3366 378 
L 4697 378 
z
M 2650 691 
L 647 19 
L 409 459 
Q 2306 1044 2650 1172 
L 2650 691 
z
" transform="scale(0.015625)"/>
      <path id="ArialUnicodeMS-5408" d="M 6119 2925 
L 5797 2497 
Q 5525 2603 5015 2934 
Q 4506 3266 4200 3555 
Q 3894 3844 3200 4659 
Q 2319 3578 603 2419 
L 256 2803 
Q 2228 4103 3175 5497 
L 3647 5178 
L 3450 4978 
Q 3994 4306 4803 3698 
Q 5613 3091 6119 2925 
z
M 4691 2597 
L 1638 2597 
L 1638 3084 
L 4691 3084 
L 4691 2597 
z
M 5063 -434 
L 4556 -434 
L 4556 -38 
L 1838 -38 
L 1838 -469 
L 1331 -469 
L 1331 1906 
L 5063 1906 
L 5063 -434 
z
M 4556 447 
L 4556 1441 
L 1838 1441 
L 1838 447 
L 4556 447 
z
" transform="scale(0.015625)"/>
      <path id="ArialUnicodeMS-76" d="M 3122 3316 
L 1869 0 
L 1344 0 
L 84 3316 
L 678 3316 
L 1363 1397 
Q 1556 853 1594 659 
L 1606 659 
Q 1656 859 1778 1197 
L 2547 3316 
L 3122 3316 
z
" transform="scale(0.015625)"/>
      <path id="ArialUnicodeMS-73" d="M 2278 2388 
Q 2241 2659 2058 2795 
Q 1875 2931 1550 2931 
Q 1228 2931 1029 2822 
Q 831 2713 831 2503 
Q 831 2306 989 2222 
Q 1147 2138 1613 2016 
Q 2138 1881 2398 1778 
Q 2659 1675 2804 1489 
Q 2950 1303 2950 972 
Q 2950 528 2587 225 
Q 2225 -78 1619 -78 
Q 988 -78 633 189 
Q 278 456 197 991 
L 756 1075 
Q 800 728 1014 556 
Q 1228 384 1613 384 
Q 1981 384 2178 539 
Q 2375 694 2375 916 
Q 2375 1066 2284 1156 
Q 2194 1247 2058 1292 
Q 1922 1338 1447 1453 
Q 741 1622 514 1862 
Q 288 2103 288 2438 
Q 288 2853 619 3122 
Q 950 3391 1509 3391 
Q 2103 3391 2433 3158 
Q 2763 2925 2828 2463 
L 2278 2388 
z
" transform="scale(0.015625)"/>
      <path id="ArialUnicodeMS-5f15" d="M 5403 -391 
L 4884 -391 
L 4884 5288 
L 5403 5288 
L 5403 -391 
z
M 3803 2113 
Q 3803 1803 3731 1090 
Q 3659 378 3454 15 
Q 3250 -347 2794 -347 
Q 2397 -347 1691 -172 
L 1600 372 
Q 2456 128 2791 128 
Q 2969 128 3078 400 
Q 3188 672 3263 1644 
L 1447 1644 
L 1388 1288 
L 884 1344 
L 1178 3578 
L 3175 3578 
L 3175 4519 
L 891 4519 
L 891 4984 
L 3675 4984 
L 3675 3109 
L 1625 3109 
L 1484 2113 
L 3803 2113 
z
" transform="scale(0.015625)"/>
      <path id="ArialUnicodeMS-5165" d="M 5972 184 
L 5663 -238 
Q 3931 872 3406 2478 
Q 2675 722 844 -244 
L 544 178 
Q 1822 844 2483 1855 
Q 3144 2866 3144 3194 
L 3128 4453 
L 1991 4453 
L 1991 4922 
L 3609 4922 
L 3603 4575 
Q 3575 3106 4158 2050 
Q 4741 994 5972 184 
z
" transform="scale(0.015625)"/>
      <path id="ArialUnicodeMS-827a" d="M 5881 4172 
L 4256 4172 
L 4256 3494 
L 3775 3494 
L 3775 4172 
L 2497 4172 
L 2497 3494 
L 2016 3494 
L 2016 4172 
L 441 4172 
L 441 4616 
L 2016 4616 
L 2016 5247 
L 2497 5247 
L 2497 4616 
L 3775 4616 
L 3775 5247 
L 4256 5247 
L 4256 4616 
L 5881 4616 
L 5881 4172 
z
M 5663 916 
Q 5522 -184 5006 -184 
L 1709 -184 
Q 1484 -184 1356 -32 
Q 1228 119 1228 338 
Q 1228 650 1828 1256 
Q 2428 1863 3681 2706 
L 3681 2713 
L 1325 2713 
L 1325 3181 
L 4494 3181 
L 4494 2725 
Q 3250 1931 2486 1186 
Q 1722 441 1722 338 
Q 1722 281 1772 281 
L 4825 281 
Q 5103 281 5172 1106 
L 5663 916 
z
" transform="scale(0.015625)"/>
      <path id="ArialUnicodeMS-672f" d="M 6059 494 
L 5716 103 
Q 5100 413 4472 1198 
Q 3844 1984 3513 3291 
L 3372 3291 
L 3372 -441 
L 2888 -441 
L 2888 3291 
L 2747 3291 
Q 2241 1028 563 109 
L 219 481 
Q 1775 1356 2278 3291 
L 391 3291 
L 391 3756 
L 2888 3756 
L 2888 5216 
L 3372 5216 
L 3372 3756 
L 5850 3756 
L 5850 3291 
L 3975 3291 
Q 4609 1278 6059 494 
z
M 5125 4159 
L 4750 3859 
Q 4403 4409 3744 4738 
L 4056 5050 
Q 4722 4747 5125 4159 
z
" transform="scale(0.015625)"/>
      <path id="ArialUnicodeMS-54c1" d="M 4997 2963 
L 1363 2963 
L 1363 5069 
L 4997 5069 
L 4997 2963 
z
M 4575 3378 
L 4575 4653 
L 1806 4653 
L 1806 3378 
L 4575 3378 
z
M 5656 -372 
L 5172 -372 
L 5172 72 
L 3956 72 
L 3956 -372 
L 3469 -372 
L 3469 2491 
L 5656 2491 
L 5656 -372 
z
M 5172 538 
L 5172 2022 
L 3956 2022 
L 3956 538 
L 5172 538 
z
M 2894 -397 
L 2406 -397 
L 2406 38 
L 1228 38 
L 1228 -422 
L 744 -409 
L 744 2472 
L 2894 2472 
L 2894 -397 
z
M 2406 506 
L 2406 2003 
L 1228 2003 
L 1228 506 
L 2406 506 
z
" transform="scale(0.015625)"/>
      <path id="ArialUnicodeMS-52" d="M 4550 0 
L 3788 0 
Q 3103 1081 2937 1328 
Q 2772 1575 2589 1751 
Q 2406 1928 2245 1975 
Q 2084 2022 1819 2022 
L 1119 2022 
L 1119 0 
L 513 0 
L 513 4581 
L 2541 4581 
Q 2956 4581 3237 4528 
Q 3519 4475 3731 4304 
Q 3944 4134 4058 3875 
Q 4172 3616 4172 3328 
Q 4172 2809 3844 2493 
Q 3516 2178 2888 2094 
L 2888 2081 
Q 3347 1878 3750 1247 
L 4550 0 
z
M 1119 2566 
L 2419 2566 
Q 2813 2566 3042 2633 
Q 3272 2700 3409 2894 
Q 3547 3088 3547 3328 
Q 3547 3641 3319 3859 
Q 3091 4078 2566 4078 
L 1119 4078 
L 1119 2566 
z
" transform="scale(0.015625)"/>
      <path id="ArialUnicodeMS-57" d="M 5972 4581 
L 4709 0 
L 4128 0 
L 3128 3609 
Q 3050 3888 3028 4031 
L 3016 4031 
L 2888 3488 
L 1913 0 
L 1300 0 
L 78 4581 
L 697 4581 
L 1403 1575 
Q 1544 984 1581 706 
Q 1588 650 1588 641 
L 1600 641 
Q 1725 1234 1797 1491 
L 2669 4581 
L 3406 4581 
L 4056 2266 
Q 4300 1403 4409 641 
L 4422 641 
Q 4488 1013 4641 1638 
L 5363 4581 
L 5972 4581 
z
" transform="scale(0.015625)"/>
      <path id="ArialUnicodeMS-41" d="M 4275 0 
L 3591 0 
L 3053 1394 
L 1141 1394 
L 634 0 
L -6 0 
L 1753 4581 
L 2406 4581 
L 4275 0 
z
M 2869 1875 
Q 2306 3363 2234 3564 
Q 2163 3766 2075 4103 
L 2059 4103 
Q 1972 3641 1825 3247 
L 1313 1875 
L 2869 1875 
z
" transform="scale(0.015625)"/>
     </defs>
     <use xlink:href="#ArialUnicodeMS-9a6c"/>
     <use xlink:href="#ArialUnicodeMS-79d1" x="100"/>
     <use xlink:href="#ArialUnicodeMS-7ef4" x="200"/>
     <use xlink:href="#ArialUnicodeMS-8328" x="300"/>
     <use xlink:href="#ArialUnicodeMS-6709" x="400"/>
     <use xlink:href="#ArialUnicodeMS-6548" x="500"/>
     <use xlink:href="#ArialUnicodeMS-524d" x="600"/>
     <use xlink:href="#ArialUnicodeMS-6cbf" x="700"/>
     <use xlink:href="#ArialUnicodeMS-ff1a" x="800"/>
     <use xlink:href="#ArialUnicodeMS-4f20" x="900"/>
     <use xlink:href="#ArialUnicodeMS-7edf" x="1000"/>
     <use xlink:href="#ArialUnicodeMS-7ec4" x="1100"/>
     <use xlink:href="#ArialUnicodeMS-5408" x="1200"/>
     <use xlink:href="#ArialUnicodeMS-20" x="1300"/>
     <use xlink:href="#ArialUnicodeMS-76" x="1327.783203"/>
     <use xlink:href="#ArialUnicodeMS-73" x="1377.783203"/>
     <use xlink:href="#ArialUnicodeMS-20" x="1427.783203"/>
     <use xlink:href="#ArialUnicodeMS-5f15" x="1455.566406"/>
     <use xlink:href="#ArialUnicodeMS-5165" x="1555.566406"/>
     <use xlink:href="#ArialUnicodeMS-827a" x="1655.566406"/>
     <use xlink:href="#ArialUnicodeMS-672f" x="1755.566406"/>
     <use xlink:href="#ArialUnicodeMS-54c1" x="1855.566406"/>
     <use xlink:href="#ArialUnicodeMS-20" x="1955.566406"/>
     <use xlink:href="#ArialUnicodeMS-52" x="1983.349609"/>
     <use xlink:href="#ArialUnicodeMS-57" x="2055.566406"/>
     <use xlink:href="#ArialUnicodeMS-41" x="2149.951172"/>
    </g>
   </g>
   <g id="legend_1">
    <g id="line2d_35">
     <path d="M 429.46875 276.0775 
L 441.46875 276.0775 
L 453.46875 276.0775 
" style="fill: none; stroke: #94a3b8; stroke-width: 2.5; stroke-linecap: square"/>
     <g>
      <use xlink:href="#m58fa4b0eab" x="441.46875" y="276.0775" style="fill: #ffffff; stroke: #94a3b8; stroke-width: 2; stroke-linejoin: miter"/>
     </g>
    </g>
    <g id="text_20">
     <!-- 传统组合 -->
     <g transform="translate(463.06875 280.2775) scale(0.12 -0.12)">
      <use xlink:href="#ArialUnicodeMS-4f20"/>
      <use xlink:href="#ArialUnicodeMS-7edf" x="100"/>
      <use xlink:href="#ArialUnicodeMS-7ec4" x="200"/>
      <use xlink:href="#ArialUnicodeMS-5408" x="300"/>
     </g>
    </g>
    <g id="line2d_36">
     <path d="M 429.46875 293.0575 
L 441.46875 293.0575 
L 453.46875 293.0575 
" style="fill: none; stroke: #10b981; stroke-width: 2.5; stroke-linecap: square"/>
     <g>
      <use xlink:href="#m959d518cc0" x="441.46875" y="293.0575" style="fill: #ffffff; stroke: #10b981; stroke-width: 2; stroke-linejoin: miter"/>
     </g>
    </g>
    <g id="text_21">
     <!-- 引入艺术品 RWA -->
     <g transform="translate(463.06875 297.2575) scale(0.12 -0.12)">
      <use xlink:href="#ArialUnicodeMS-5f15"/>
      <use xlink:href="#ArialUnicodeMS-5165" x="100"/>
      <use xlink:href="#ArialUnicodeMS-827a" x="200"/>
      <use xlink:href="#ArialUnicodeMS-672f" x="300"/>
      <use xlink:href="#ArialUnicodeMS-54c1" x="400"/>
      <use xlink:href="#ArialUnicodeMS-20" x="500"/>
      <use xlink:href="#ArialUnicodeMS-52" x="527.783203"/>
      <use xlink:href="#ArialUnicodeMS-57" x="600"/>
      <use xlink:href="#ArialUnicodeMS-41" x="694.384766"/>
     </g>
    </g>
   </g>
  </g>
 </g>
 <defs>
  <clipPath id="paa24d3f9ec">
   <rect x="65.380625" y="37.055625" width="499.819375" height="273.3925"/>
  </clipPath>
 </defs>
</svg>
