<?xml version="1.0" encoding="utf-8" standalone="no"?>
<!DOCTYPE svg PUBLIC "-//W3C//DTD SVG 1.1//EN"
  "http://www.w3.org/Graphics/SVG/1.1/DTD/svg11.dtd">
<svg xmlns:xlink="http://www.w3.org/1999/xlink" width="432pt" height="288pt" viewBox="0 0 432 288" xmlns="http://www.w3.org/2000/svg" version="1.1">
 <metadata>
  <rdf:RDF xmlns:dc="http://purl.org/dc/elements/1.1/" xmlns:cc="http://creativecommons.org/ns#" xmlns:rdf="http://www.w3.org/1999/02/22-rdf-syntax-ns#">
   <cc:Work>
    <dc:type rdf:resource="http://purl.org/dc/dcmitype/StillImage"/>
    <dc:date>2026-05-11T09:52:21.864660</dc:date>
    <dc:format>image/svg+xml</dc:format>
    <dc:creator>
     <cc:Agent>
      <dc:title>Matplotlib v3.9.4, https://matplotlib.org/</dc:title>
     </cc:Agent>
    </dc:creator>
   </cc:Work>
  </rdf:RDF>
 </metadata>
 <defs>
  <style type="text/css">*{stroke-linejoin: round; stroke-linecap: butt}</style>
 </defs>
 <g id="figure_1">
  <g id="patch_1">
   <path d="M 0 288 
L 432 288 
L 432 0 
L 0 0 
z
" style="fill: #ffffff"/>
  </g>
  <g id="axes_1">
   <g id="patch_2">
    <path d="M 55.37 242.8 
L 421.2 242.8 
L 421.2 11.155468 
L 55.37 11.155468 
z
" style="fill: #ffffff"/>
   </g>
   <g id="matplotlib.axis_1">
    <g id="xtick_1">
     <g id="line2d_1">
      <path d="M 71.998636 242.8 
L 71.998636 11.155468 
" clip-path="url(#pd94860e800)" style="fill: none; stroke-dasharray: 2.96,1.28; stroke-dashoffset: 0; stroke: #b0b0b0; stroke-opacity: 0.3; stroke-width: 0.8"/>
     </g>
     <g id="line2d_2">
      <defs>
       <path id="m4e8a9b5afd" d="M 0 0 
L 0 3.5 
" style="stroke: #000000; stroke-width: 0.8"/>
      </defs>
      <g>
       <use xlink:href="#m4e8a9b5afd" x="71.998636" y="242.8" style="stroke: #000000; stroke-width: 0.8"/>
      </g>
     </g>
     <g id="text_1">
      <!-- 0.10 -->
      <g transform="translate(62.268168 256.957812) scale(0.1 -0.1)">
       <defs>
        <path id="ArialUnicodeMS-30" d="M 1778 4603 
Q 3272 4603 3272 2259 
Q 3272 1075 2886 498 
Q 2500 -78 1778 -78 
Q 288 -78 288 2259 
Q 288 3444 673 4023 
Q 1059 4603 1778 4603 
z
M 1778 384 
Q 2231 384 2462 823 
Q 2694 1263 2694 2259 
Q 2694 2953 2592 3351 
Q 2491 3750 2286 3945 
Q 2081 4141 1772 4141 
Q 1319 4141 1091 3694 
Q 863 3247 863 2259 
Q 863 1575 966 1175 
Q 1069 775 1272 579 
Q 1475 384 1778 384 
z
" transform="scale(0.015625)"/>
        <path id="ArialUnicodeMS-2e" d="M 1209 0 
L 569 0 
L 569 641 
L 1209 641 
L 1209 0 
z
" transform="scale(0.015625)"/>
        <path id="ArialUnicodeMS-31" d="M 2400 0 
L 1838 0 
L 1838 3584 
Q 1416 3184 709 2906 
L 709 3450 
Q 1681 3916 2034 4603 
L 2400 4603 
L 2400 0 
z
" transform="scale(0.015625)"/>
       </defs>
       <use xlink:href="#ArialUnicodeMS-30"/>
       <use xlink:href="#ArialUnicodeMS-2e" x="55.615234"/>
       <use xlink:href="#ArialUnicodeMS-31" x="83.398438"/>
       <use xlink:href="#ArialUnicodeMS-30" x="139.013672"/>
      </g>
     </g>
    </g>
    <g id="xtick_2">
     <g id="line2d_3">
      <path d="M 127.427424 242.8 
L 127.427424 11.155468 
" clip-path="url(#pd94860e800)" style="fill: none; stroke-dasharray: 2.96,1.28; stroke-dashoffset: 0; stroke: #b0b0b0; stroke-opacity: 0.3; stroke-width: 0.8"/>
     </g>
     <g id="line2d_4">
      <g>
       <use xlink:href="#m4e8a9b5afd" x="127.427424" y="242.8" style="stroke: #000000; stroke-width: 0.8"/>
      </g>
     </g>
     <g id="text_2">
      <!-- 0.15 -->
      <g transform="translate(117.696955 256.957812) scale(0.1 -0.1)">
       <defs>
        <path id="ArialUnicodeMS-35" d="M 1013 2753 
Q 1431 3041 1881 3041 
Q 2453 3041 2878 2636 
Q 3303 2231 3303 1556 
Q 3303 875 2872 398 
Q 2441 -78 1741 -78 
Q 1169 -78 750 245 
Q 331 569 269 1203 
L 856 1247 
Q 928 813 1162 598 
Q 1397 384 1741 384 
Q 2169 384 2434 707 
Q 2700 1031 2700 1503 
Q 2700 1984 2428 2262 
Q 2156 2541 1728 2541 
Q 1188 2541 897 2100 
L 366 2163 
L 813 4519 
L 3084 4519 
L 3084 3975 
L 1259 3975 
L 1013 2753 
z
" transform="scale(0.015625)"/>
       </defs>
       <use xlink:href="#ArialUnicodeMS-30"/>
       <use xlink:href="#ArialUnicodeMS-2e" x="55.615234"/>
       <use xlink:href="#ArialUnicodeMS-31" x="83.398438"/>
       <use xlink:href="#ArialUnicodeMS-35" x="139.013672"/>
      </g>
     </g>
    </g>
    <g id="xtick_3">
     <g id="line2d_5">
      <path d="M 182.856212 242.8 
L 182.856212 11.155468 
" clip-path="url(#pd94860e800)" style="fill: none; stroke-dasharray: 2.96,1.28; stroke-dashoffset: 0; stroke: #b0b0b0; stroke-opacity: 0.3; stroke-width: 0.8"/>
     </g>
     <g id="line2d_6">
      <g>
       <use xlink:href="#m4e8a9b5afd" x="182.856212" y="242.8" style="stroke: #000000; stroke-width: 0.8"/>
      </g>
     </g>
     <g id="text_3">
      <!-- 0.20 -->
      <g transform="translate(173.125743 256.957812) scale(0.1 -0.1)">
       <defs>
        <path id="ArialUnicodeMS-32" d="M 3231 0 
L 197 0 
Q 197 388 467 784 
Q 738 1181 1478 1778 
Q 1931 2141 2287 2539 
Q 2644 2938 2644 3341 
Q 2644 3688 2398 3914 
Q 2153 4141 1778 4141 
Q 1400 4141 1144 3908 
Q 888 3675 884 3213 
L 306 3278 
Q 359 3922 764 4262 
Q 1169 4603 1791 4603 
Q 2466 4603 2842 4229 
Q 3219 3856 3219 3328 
Q 3219 2888 2901 2436 
Q 2584 1984 1638 1228 
Q 1141 831 978 544 
L 3231 544 
L 3231 0 
z
" transform="scale(0.015625)"/>
       </defs>
       <use xlink:href="#ArialUnicodeMS-30"/>
       <use xlink:href="#ArialUnicodeMS-2e" x="55.615234"/>
       <use xlink:href="#ArialUnicodeMS-32" x="83.398438"/>
       <use xlink:href="#ArialUnicodeMS-30" x="139.013672"/>
      </g>
     </g>
    </g>
    <g id="xtick_4">
     <g id="line2d_7">
      <path d="M 238.285 242.8 
L 238.285 11.155468 
" clip-path="url(#pd94860e800)" style="fill: none; stroke-dasharray: 2.96,1.28; stroke-dashoffset: 0; stroke: #b0b0b0; stroke-opacity: 0.3; stroke-width: 0.8"/>
     </g>
     <g id="line2d_8">
      <g>
       <use xlink:href="#m4e8a9b5afd" x="238.285" y="242.8" style="stroke: #000000; stroke-width: 0.8"/>
      </g>
     </g>
     <g id="text_4">
      <!-- 0.25 -->
      <g transform="translate(228.554531 256.957812) scale(0.1 -0.1)">
       <use xlink:href="#ArialUnicodeMS-30"/>
       <use xlink:href="#ArialUnicodeMS-2e" x="55.615234"/>
       <use xlink:href="#ArialUnicodeMS-32" x="83.398438"/>
       <use xlink:href="#ArialUnicodeMS-35" x="139.013672"/>
      </g>
     </g>
    </g>
    <g id="xtick_5">
     <g id="line2d_9">
      <path d="M 293.713788 242.8 
L 293.713788 11.155468 
" clip-path="url(#pd94860e800)" style="fill: none; stroke-dasharray: 2.96,1.28; stroke-dashoffset: 0; stroke: #b0b0b0; stroke-opacity: 0.3; stroke-width: 0.8"/>
     </g>
     <g id="line2d_10">
      <g>
       <use xlink:href="#m4e8a9b5afd" x="293.713788" y="242.8" style="stroke: #000000; stroke-width: 0.8"/>
      </g>
     </g>
     <g id="text_5">
      <!-- 0.30 -->
      <g transform="translate(283.983319 256.957812) scale(0.1 -0.1)">
       <defs>
        <path id="ArialUnicodeMS-33" d="M 2425 2478 
Q 2850 2397 3067 2067 
Q 3284 1738 3284 1350 
Q 3284 725 2829 323 
Q 2375 -78 1741 -78 
Q 1134 -78 740 275 
Q 347 628 281 1209 
L 844 1288 
Q 928 834 1151 609 
Q 1375 384 1741 384 
Q 2134 384 2407 661 
Q 2681 938 2681 1338 
Q 2681 1722 2432 1975 
Q 2184 2228 1784 2228 
Q 1622 2228 1388 2169 
L 1453 2663 
Q 1678 2663 1809 2684 
Q 1941 2706 2103 2790 
Q 2266 2875 2372 3033 
Q 2478 3191 2478 3425 
Q 2478 3766 2251 3953 
Q 2025 4141 1728 4141 
Q 1388 4141 1173 3925 
Q 959 3709 903 3309 
L 341 3413 
Q 450 4009 823 4306 
Q 1197 4603 1716 4603 
Q 2288 4603 2670 4258 
Q 3053 3913 3053 3413 
Q 3053 2772 2425 2491 
L 2425 2478 
z
" transform="scale(0.015625)"/>
       </defs>
       <use xlink:href="#ArialUnicodeMS-30"/>
       <use xlink:href="#ArialUnicodeMS-2e" x="55.615234"/>
       <use xlink:href="#ArialUnicodeMS-33" x="83.398438"/>
       <use xlink:href="#ArialUnicodeMS-30" x="139.013672"/>
      </g>
     </g>
    </g>
    <g id="xtick_6">
     <g id="line2d_11">
      <path d="M 349.142576 242.8 
L 349.142576 11.155468 
" clip-path="url(#pd94860e800)" style="fill: none; stroke-dasharray: 2.96,1.28; stroke-dashoffset: 0; stroke: #b0b0b0; stroke-opacity: 0.3; stroke-width: 0.8"/>
     </g>
     <g id="line2d_12">
      <g>
       <use xlink:href="#m4e8a9b5afd" x="349.142576" y="242.8" style="stroke: #000000; stroke-width: 0.8"/>
      </g>
     </g>
     <g id="text_6">
      <!-- 0.35 -->
      <g transform="translate(339.412107 256.957812) scale(0.1 -0.1)">
       <use xlink:href="#ArialUnicodeMS-30"/>
       <use xlink:href="#ArialUnicodeMS-2e" x="55.615234"/>
       <use xlink:href="#ArialUnicodeMS-33" x="83.398438"/>
       <use xlink:href="#ArialUnicodeMS-35" x="139.013672"/>
      </g>
     </g>
    </g>
    <g id="xtick_7">
     <g id="line2d_13">
      <path d="M 404.571364 242.8 
L 404.571364 11.155468 
" clip-path="url(#pd94860e800)" style="fill: none; stroke-dasharray: 2.96,1.28; stroke-dashoffset: 0; stroke: #b0b0b0; stroke-opacity: 0.3; stroke-width: 0.8"/>
     </g>
     <g id="line2d_14">
      <g>
       <use xlink:href="#m4e8a9b5afd" x="404.571364" y="242.8" style="stroke: #000000; stroke-width: 0.8"/>
      </g>
     </g>
     <g id="text_7">
      <!-- 0.40 -->
      <g transform="translate(394.840895 256.957812) scale(0.1 -0.1)">
       <defs>
        <path id="ArialUnicodeMS-34" d="M 3263 1094 
L 2644 1094 
L 2644 0 
L 2081 0 
L 2081 1094 
L 97 1094 
L 97 1613 
L 2181 4581 
L 2644 4581 
L 2644 1613 
L 3263 1613 
L 3263 1094 
z
M 2081 1613 
L 2081 3681 
L 2069 3681 
L 647 1613 
L 2081 1613 
z
" transform="scale(0.015625)"/>
       </defs>
       <use xlink:href="#ArialUnicodeMS-30"/>
       <use xlink:href="#ArialUnicodeMS-2e" x="55.615234"/>
       <use xlink:href="#ArialUnicodeMS-34" x="83.398438"/>
       <use xlink:href="#ArialUnicodeMS-30" x="139.013672"/>
      </g>
     </g>
    </g>
    <g id="text_8">
     <!-- 风险 (波动率 $\sigma$) -->
     <g transform="translate(197.125 273.03) scale(0.12 -0.12)">
      <defs>
       <path id="ArialUnicodeMS-98ce" d="M 6028 481 
L 5947 116 
Q 5788 -359 5534 -359 
Q 5416 -359 5278 -273 
Q 5141 -188 4917 176 
Q 4694 541 4576 1092 
Q 4459 1644 4428 2134 
Q 4397 2625 4394 3269 
L 4384 4588 
L 1575 4588 
L 1575 2356 
Q 1575 1563 1311 800 
Q 1047 38 575 -403 
L 166 -63 
Q 1088 834 1088 2478 
L 1088 5056 
L 4872 5056 
L 4872 2847 
Q 4872 1138 5497 206 
L 5588 738 
L 6028 481 
z
M 4378 603 
L 3944 353 
Q 3653 1191 3150 1894 
Q 2497 978 1838 347 
L 1447 697 
Q 2000 1109 2875 2278 
Q 2481 2828 1684 3591 
L 2009 3884 
Q 2681 3294 3138 2719 
Q 3481 3228 3822 4044 
L 4225 3816 
Q 3822 2838 3438 2316 
Q 4153 1334 4378 603 
z
" transform="scale(0.015625)"/>
       <path id="ArialUnicodeMS-9669" d="M 6041 3109 
L 5753 2688 
L 5375 2913 
L 5375 2613 
L 2809 2613 
L 2809 2906 
Q 2800 2900 2703 2834 
Q 2606 2769 2484 2719 
Q 2353 2866 2131 3169 
Q 2706 3375 3234 4004 
Q 3763 4634 3944 5294 
L 4422 5088 
L 4294 4763 
Q 4916 3678 6041 3109 
z
M 5166 3078 
Q 4406 3603 4056 4294 
Q 3659 3519 3041 3091 
L 3041 3078 
L 5166 3078 
z
M 2584 4575 
Q 2584 4516 1881 3256 
Q 2559 2400 2559 1734 
Q 2559 1403 2301 1133 
Q 2044 863 1666 863 
Q 1559 863 1416 884 
L 1253 1416 
Q 1522 1369 1659 1369 
Q 1909 1369 1995 1509 
Q 2081 1650 2081 1759 
Q 2081 2300 1300 3244 
Q 1725 3975 2016 4550 
L 1125 4550 
L 1125 -428 
L 641 -428 
L 641 5019 
L 2584 5019 
L 2584 4575 
z
M 4506 1088 
L 4056 863 
Q 3956 1488 3322 2297 
L 3769 2497 
Q 4356 1744 4506 1088 
z
M 5863 -172 
L 2216 -172 
L 2216 294 
L 4391 294 
Q 4878 1100 5125 2444 
L 5588 2259 
Q 5384 1181 4878 294 
L 5863 294 
L 5863 -172 
z
M 3700 756 
L 3213 525 
Q 3163 1300 2606 2113 
L 3028 2309 
Q 3600 1447 3700 756 
z
" transform="scale(0.015625)"/>
       <path id="ArialUnicodeMS-20" transform="scale(0.015625)"/>
       <path id="ArialUnicodeMS-28" d="M 1900 -1344 
L 1497 -1344 
Q 978 -681 681 103 
Q 384 888 384 1656 
Q 384 2528 700 3275 
Q 1016 4022 1497 4659 
L 1900 4659 
Q 1344 3747 1155 3059 
Q 966 2372 966 1663 
Q 966 153 1900 -1344 
z
" transform="scale(0.015625)"/>
       <path id="ArialUnicodeMS-6ce2" d="M 6150 -6 
L 5797 -403 
Q 4797 -47 4178 513 
Q 3497 -116 2591 -453 
L 2216 -84 
Q 3253 316 3828 831 
Q 3250 1438 2888 2425 
L 2681 2431 
L 2681 1484 
Q 2681 403 1759 -481 
L 1331 -159 
Q 2194 578 2194 1684 
L 2194 4475 
L 3763 4475 
L 3763 5319 
L 4250 5319 
L 4250 4475 
L 5875 4475 
Q 5903 3953 5538 3128 
L 5081 3272 
Q 5313 3813 5350 4006 
L 4250 4006 
L 4250 2894 
L 5538 2894 
Q 5428 1900 4525 844 
Q 5197 316 6150 -6 
z
M 3763 2894 
L 3763 4006 
L 2681 4006 
L 2681 2894 
L 3763 2894 
z
M 4953 2425 
L 3397 2425 
Q 3772 1509 4159 1159 
Q 4809 1844 4953 2425 
z
M 2100 4178 
L 1766 3794 
Q 1403 4438 738 4722 
L 1056 5044 
Q 1613 4850 2100 4178 
z
M 1766 2859 
L 1394 2534 
Q 1041 3159 319 3438 
L 647 3763 
Q 1256 3581 1766 2859 
z
M 1863 2075 
Q 1506 509 800 -397 
L 384 -116 
Q 1156 813 1422 2291 
L 1863 2075 
z
" transform="scale(0.015625)"/>
       <path id="ArialUnicodeMS-52a8" d="M 5678 3834 
Q 5613 2631 5508 1595 
Q 5403 559 5328 262 
Q 5253 -34 5048 -161 
Q 4844 -288 4591 -288 
Q 4416 -288 4097 -256 
Q 4016 25 3944 238 
Q 4550 172 4644 172 
Q 4703 172 4812 456 
Q 4922 741 5023 1741 
Q 5125 2741 5159 3391 
L 4359 3391 
Q 4366 1738 3883 889 
Q 3400 41 2528 -384 
L 2156 25 
Q 2716 300 3009 634 
Q 2913 850 2719 1075 
Q 1478 731 763 475 
L 428 959 
Q 678 1172 1014 1786 
Q 1350 2400 1503 2906 
L 353 2906 
L 353 3372 
L 3144 3372 
L 3144 2906 
L 2041 2906 
Q 1500 1597 1125 1125 
L 1141 1113 
L 2444 1484 
Q 2397 1556 2125 1797 
L 2478 2047 
Q 3131 1475 3359 997 
Q 3528 1178 3697 1742 
Q 3866 2306 3866 2888 
L 3866 3391 
L 3194 3391 
L 3194 3834 
L 3866 3834 
L 3866 5319 
L 4353 5325 
L 4353 3834 
L 5678 3834 
z
M 2881 4219 
L 603 4219 
L 603 4659 
L 2881 4659 
L 2881 4219 
z
" transform="scale(0.015625)"/>
       <path id="ArialUnicodeMS-7387" d="M 5663 4313 
L 3469 4313 
Q 3113 3806 2828 3488 
L 3244 3309 
Q 3453 3538 3822 4078 
L 4263 3872 
Q 3531 2878 3022 2356 
L 3809 2406 
Q 3738 2594 3591 2822 
L 4019 2969 
Q 4375 2419 4459 1813 
L 3988 1678 
Q 3988 1806 3938 1966 
L 2150 1819 
L 1997 2316 
L 2431 2328 
Q 2616 2500 2931 2906 
Q 2372 3163 1978 3278 
L 2203 3731 
L 2419 3647 
Q 2634 3900 2888 4313 
L 709 4313 
L 709 4781 
L 2956 4781 
L 2956 5375 
L 3444 5375 
L 3444 4781 
L 5663 4781 
L 5663 4313 
z
M 5734 3922 
Q 5091 3316 4581 3128 
L 4294 3553 
Q 4947 3791 5447 4281 
L 5734 3922 
z
M 1984 3397 
L 1619 3059 
Q 1263 3534 653 3853 
L 947 4184 
Q 1531 3975 1984 3397 
z
M 2131 2597 
Q 1419 2031 763 1813 
L 459 2209 
Q 1238 2447 1863 2994 
L 2131 2597 
z
M 5906 2216 
L 5619 1831 
Q 5109 2341 4306 2553 
L 4550 2938 
Q 5391 2722 5906 2216 
z
M 5941 1038 
L 3456 1038 
L 3456 -441 
L 2963 -441 
L 2963 1038 
L 459 1038 
L 459 1503 
L 2963 1503 
L 2963 1831 
L 3456 1831 
L 3456 1503 
L 5941 1503 
L 5941 1038 
z
" transform="scale(0.015625)"/>
       <path id="DejaVuSans-Oblique-3c3" d="M 2219 3044 
Q 1744 3044 1422 2700 
Q 1081 2341 969 1747 
Q 844 1119 1044 756 
Q 1241 397 1706 397 
Q 2166 397 2503 759 
Q 2844 1122 2966 1747 
Q 3075 2319 2881 2700 
Q 2700 3044 2219 3044 
z
M 2309 3503 
L 4219 3500 
L 4106 2925 
L 3463 2925 
Q 3706 2438 3575 1747 
Q 3406 888 2884 400 
Q 2359 -91 1609 -91 
Q 856 -91 525 400 
Q 194 888 363 1747 
Q 528 2609 1050 3097 
Q 1484 3503 2309 3503 
z
" transform="scale(0.015625)"/>
       <path id="ArialUnicodeMS-29" d="M 634 4659 
Q 1153 3997 1450 3212 
Q 1747 2428 1747 1656 
Q 1747 788 1431 41 
Q 1116 -706 634 -1344 
L 231 -1344 
Q 788 -431 977 255 
Q 1166 941 1166 1650 
Q 1166 3163 231 4659 
L 634 4659 
z
" transform="scale(0.015625)"/>
      </defs>
      <use xlink:href="#ArialUnicodeMS-98ce" transform="translate(0 0.015625)"/>
      <use xlink:href="#ArialUnicodeMS-9669" transform="translate(100 0.015625)"/>
      <use xlink:href="#ArialUnicodeMS-20" transform="translate(200 0.015625)"/>
      <use xlink:href="#ArialUnicodeMS-28" transform="translate(227.783203 0.015625)"/>
      <use xlink:href="#ArialUnicodeMS-6ce2" transform="translate(261.083984 0.015625)"/>
      <use xlink:href="#ArialUnicodeMS-52a8" transform="translate(361.083984 0.015625)"/>
      <use xlink:href="#ArialUnicodeMS-7387" transform="translate(461.083984 0.015625)"/>
      <use xlink:href="#ArialUnicodeMS-20" transform="translate(561.083984 0.015625)"/>
      <use xlink:href="#DejaVuSans-Oblique-3c3" transform="translate(588.867188 0.015625)"/>
      <use xlink:href="#ArialUnicodeMS-29" transform="translate(652.246094 0.015625)"/>
     </g>
    </g>
   </g>
   <g id="matplotlib.axis_2">
    <g id="ytick_1">
     <g id="line2d_15">
      <path d="M 55.37 225.731429 
L 421.2 225.731429 
" clip-path="url(#pd94860e800)" style="fill: none; stroke-dasharray: 2.96,1.28; stroke-dashoffset: 0; stroke: #b0b0b0; stroke-opacity: 0.3; stroke-width: 0.8"/>
     </g>
     <g id="line2d_16">
      <defs>
       <path id="mc64749128b" d="M 0 0 
L -3.5 0 
" style="stroke: #000000; stroke-width: 0.8"/>
      </defs>
      <g>
       <use xlink:href="#mc64749128b" x="55.37" y="225.731429" style="stroke: #000000; stroke-width: 0.8"/>
      </g>
     </g>
     <g id="text_9">
      <!-- 0.10 -->
      <g transform="translate(28.909063 229.310335) scale(0.1 -0.1)">
       <use xlink:href="#ArialUnicodeMS-30"/>
       <use xlink:href="#ArialUnicodeMS-2e" x="55.615234"/>
       <use xlink:href="#ArialUnicodeMS-31" x="83.398438"/>
       <use xlink:href="#ArialUnicodeMS-30" x="139.013672"/>
      </g>
     </g>
    </g>
    <g id="ytick_2">
     <g id="line2d_17">
      <path d="M 55.37 190.533627 
L 421.2 190.533627 
" clip-path="url(#pd94860e800)" style="fill: none; stroke-dasharray: 2.96,1.28; stroke-dashoffset: 0; stroke: #b0b0b0; stroke-opacity: 0.3; stroke-width: 0.8"/>
     </g>
     <g id="line2d_18">
      <g>
       <use xlink:href="#mc64749128b" x="55.37" y="190.533627" style="stroke: #000000; stroke-width: 0.8"/>
      </g>
     </g>
     <g id="text_10">
      <!-- 0.15 -->
      <g transform="translate(28.909063 194.112533) scale(0.1 -0.1)">
       <use xlink:href="#ArialUnicodeMS-30"/>
       <use xlink:href="#ArialUnicodeMS-2e" x="55.615234"/>
       <use xlink:href="#ArialUnicodeMS-31" x="83.398438"/>
       <use xlink:href="#ArialUnicodeMS-35" x="139.013672"/>
      </g>
     </g>
    </g>
    <g id="ytick_3">
     <g id="line2d_19">
      <path d="M 55.37 155.335826 
L 421.2 155.335826 
" clip-path="url(#pd94860e800)" style="fill: none; stroke-dasharray: 2.96,1.28; stroke-dashoffset: 0; stroke: #b0b0b0; stroke-opacity: 0.3; stroke-width: 0.8"/>
     </g>
     <g id="line2d_20">
      <g>
       <use xlink:href="#mc64749128b" x="55.37" y="155.335826" style="stroke: #000000; stroke-width: 0.8"/>
      </g>
     </g>
     <g id="text_11">
      <!-- 0.20 -->
      <g transform="translate(28.909063 158.914732) scale(0.1 -0.1)">
       <use xlink:href="#ArialUnicodeMS-30"/>
       <use xlink:href="#ArialUnicodeMS-2e" x="55.615234"/>
       <use xlink:href="#ArialUnicodeMS-32" x="83.398438"/>
       <use xlink:href="#ArialUnicodeMS-30" x="139.013672"/>
      </g>
     </g>
    </g>
    <g id="ytick_4">
     <g id="line2d_21">
      <path d="M 55.37 120.138024 
L 421.2 120.138024 
" clip-path="url(#pd94860e800)" style="fill: none; stroke-dasharray: 2.96,1.28; stroke-dashoffset: 0; stroke: #b0b0b0; stroke-opacity: 0.3; stroke-width: 0.8"/>
     </g>
     <g id="line2d_22">
      <g>
       <use xlink:href="#mc64749128b" x="55.37" y="120.138024" style="stroke: #000000; stroke-width: 0.8"/>
      </g>
     </g>
     <g id="text_12">
      <!-- 0.25 -->
      <g transform="translate(28.909063 123.71693) scale(0.1 -0.1)">
       <use xlink:href="#ArialUnicodeMS-30"/>
       <use xlink:href="#ArialUnicodeMS-2e" x="55.615234"/>
       <use xlink:href="#ArialUnicodeMS-32" x="83.398438"/>
       <use xlink:href="#ArialUnicodeMS-35" x="139.013672"/>
      </g>
     </g>
    </g>
    <g id="ytick_5">
     <g id="line2d_23">
      <path d="M 55.37 84.940222 
L 421.2 84.940222 
" clip-path="url(#pd94860e800)" style="fill: none; stroke-dasharray: 2.96,1.28; stroke-dashoffset: 0; stroke: #b0b0b0; stroke-opacity: 0.3; stroke-width: 0.8"/>
     </g>
     <g id="line2d_24">
      <g>
       <use xlink:href="#mc64749128b" x="55.37" y="84.940222" style="stroke: #000000; stroke-width: 0.8"/>
      </g>
     </g>
     <g id="text_13">
      <!-- 0.30 -->
      <g transform="translate(28.909063 88.519128) scale(0.1 -0.1)">
       <use xlink:href="#ArialUnicodeMS-30"/>
       <use xlink:href="#ArialUnicodeMS-2e" x="55.615234"/>
       <use xlink:href="#ArialUnicodeMS-33" x="83.398438"/>
       <use xlink:href="#ArialUnicodeMS-30" x="139.013672"/>
      </g>
     </g>
    </g>
    <g id="ytick_6">
     <g id="line2d_25">
      <path d="M 55.37 49.742421 
L 421.2 49.742421 
" clip-path="url(#pd94860e800)" style="fill: none; stroke-dasharray: 2.96,1.28; stroke-dashoffset: 0; stroke: #b0b0b0; stroke-opacity: 0.3; stroke-width: 0.8"/>
     </g>
     <g id="line2d_26">
      <g>
       <use xlink:href="#mc64749128b" x="55.37" y="49.742421" style="stroke: #000000; stroke-width: 0.8"/>
      </g>
     </g>
     <g id="text_14">
      <!-- 0.35 -->
      <g transform="translate(28.909063 53.321327) scale(0.1 -0.1)">
       <use xlink:href="#ArialUnicodeMS-30"/>
       <use xlink:href="#ArialUnicodeMS-2e" x="55.615234"/>
       <use xlink:href="#ArialUnicodeMS-33" x="83.398438"/>
       <use xlink:href="#ArialUnicodeMS-35" x="139.013672"/>
      </g>
     </g>
    </g>
    <g id="ytick_7">
     <g id="line2d_27">
      <path d="M 55.37 14.544619 
L 421.2 14.544619 
" clip-path="url(#pd94860e800)" style="fill: none; stroke-dasharray: 2.96,1.28; stroke-dashoffset: 0; stroke: #b0b0b0; stroke-opacity: 0.3; stroke-width: 0.8"/>
     </g>
     <g id="line2d_28">
      <g>
       <use xlink:href="#mc64749128b" x="55.37" y="14.544619" style="stroke: #000000; stroke-width: 0.8"/>
      </g>
     </g>
     <g id="text_15">
      <!-- 0.40 -->
      <g transform="translate(28.909063 18.123525) scale(0.1 -0.1)">
       <use xlink:href="#ArialUnicodeMS-30"/>
       <use xlink:href="#ArialUnicodeMS-2e" x="55.615234"/>
       <use xlink:href="#ArialUnicodeMS-34" x="83.398438"/>
       <use xlink:href="#ArialUnicodeMS-30" x="139.013672"/>
      </g>
     </g>
    </g>
    <g id="text_16">
     <!-- 预期收益率 ($E[R]$) -->
     <g transform="translate(22.389063 175.097734) rotate(-90) scale(0.12 -0.12)">
      <defs>
       <path id="ArialUnicodeMS-9884" d="M 5888 4519 
L 4538 4519 
Q 4450 4066 4306 3828 
L 5594 3828 
L 5594 872 
L 5106 872 
L 5106 3359 
L 3431 3359 
L 3431 825 
L 2944 825 
L 2944 3828 
L 3725 3828 
Q 3906 4113 4031 4519 
L 2700 4519 
L 2700 4984 
L 5888 4984 
L 5888 4519 
z
M 2747 2822 
Q 2747 2788 2650 2513 
Q 2553 2238 2406 1953 
Q 2288 1997 1947 2175 
Q 2159 2513 2241 2759 
L 1728 2759 
L 1728 63 
Q 1728 -141 1609 -275 
Q 1491 -409 1306 -409 
L 703 -409 
L 519 109 
L 1106 84 
Q 1156 84 1198 134 
Q 1241 184 1241 238 
L 1241 2759 
L 319 2759 
L 319 3225 
L 1619 3225 
Q 1413 3463 594 3794 
L 916 4153 
Q 1138 4094 1281 4006 
L 1747 4447 
L 391 4447 
L 391 4916 
L 2484 4916 
L 2484 4494 
Q 2016 3963 1741 3750 
Q 1981 3588 2181 3391 
L 2053 3225 
L 2747 3225 
L 2747 2822 
z
M 4494 1747 
Q 4494 1088 4069 481 
Q 3644 -125 2688 -409 
L 2369 38 
Q 4003 384 4019 1931 
L 4031 3122 
L 4494 3053 
L 4494 1747 
z
M 5991 -13 
L 5663 -416 
Q 5234 169 4325 594 
L 4609 966 
Q 5506 559 5991 -13 
z
" transform="scale(0.015625)"/>
       <path id="ArialUnicodeMS-671f" d="M 3738 1281 
L 506 1281 
L 506 1747 
L 1075 1747 
L 1075 4134 
L 531 4134 
L 531 4603 
L 1075 4603 
L 1075 5281 
L 1563 5281 
L 1563 4603 
L 2741 4603 
L 2741 5306 
L 3225 5306 
L 3225 4603 
L 3738 4603 
L 3738 4134 
L 3225 4134 
L 3225 1747 
L 3738 1747 
L 3738 1281 
z
M 2741 3688 
L 2741 4134 
L 1563 4134 
L 1563 3688 
L 2741 3688 
z
M 2741 2766 
L 2741 3219 
L 1563 3219 
L 1563 2766 
L 2741 2766 
z
M 2741 1747 
L 2741 2297 
L 1563 2297 
L 1563 1747 
L 2741 1747 
z
M 5753 366 
Q 5753 38 5672 -57 
Q 5591 -153 5489 -233 
Q 5388 -313 4697 -313 
L 4538 178 
L 5147 159 
Q 5269 159 5269 300 
L 5269 1753 
L 4331 1753 
Q 4275 494 3719 -447 
L 3284 -153 
Q 3853 716 3853 1984 
L 3853 4997 
L 5753 4997 
L 5753 366 
z
M 5269 3688 
L 5269 4531 
L 4341 4531 
L 4341 3688 
L 5269 3688 
z
M 5269 2222 
L 5269 3219 
L 4341 3219 
L 4341 2222 
L 5269 2222 
z
M 1931 934 
Q 1556 213 750 -422 
L 384 -84 
Q 1203 488 1588 1247 
L 1931 934 
z
M 3494 366 
L 3150 0 
Q 2775 566 2222 850 
L 2547 1178 
Q 3075 947 3494 366 
z
" transform="scale(0.015625)"/>
       <path id="ArialUnicodeMS-6536" d="M 6088 -13 
L 5728 -391 
Q 5000 -66 4391 716 
Q 3878 91 2938 -447 
L 2584 -116 
L 2584 -434 
L 2100 -434 
L 2100 1313 
L 647 825 
L 428 1247 
Q 509 1284 621 1318 
Q 734 1353 763 1369 
L 763 4641 
L 1247 4641 
L 1247 1528 
L 2100 1838 
L 2100 5247 
L 2584 5247 
L 2584 -56 
Q 3647 494 4147 1147 
Q 3669 1850 3463 2719 
Q 3253 2297 2975 1925 
L 2613 2272 
Q 3469 3409 3525 5313 
L 4006 5159 
Q 4006 4703 3916 4166 
L 5813 4166 
L 5813 3700 
L 5422 3700 
Q 5363 2247 4697 1147 
Q 5272 319 6088 -13 
z
M 4947 3700 
L 3816 3700 
L 3763 3500 
Q 3975 2297 4416 1588 
Q 4878 2472 4947 3700 
z
" transform="scale(0.015625)"/>
       <path id="ArialUnicodeMS-76ca" d="M 5191 5063 
Q 4775 4500 4072 4000 
L 3706 4341 
Q 4428 4822 4788 5375 
L 5191 5063 
z
M 2675 4306 
L 2259 3994 
Q 1838 4713 1197 5075 
L 1631 5350 
Q 2178 5041 2675 4306 
z
M 5869 3506 
L 531 3506 
L 531 3975 
L 5869 3975 
L 5869 3506 
z
M 6144 2150 
L 5831 1753 
Q 5544 1859 5209 2034 
L 5209 353 
L 5984 353 
L 5984 -116 
L 403 -116 
L 403 353 
L 1203 353 
L 1203 2113 
Q 906 1969 609 1875 
L 288 2284 
Q 1559 2691 2322 3463 
L 2688 3116 
Q 2044 2509 1313 2150 
L 5006 2150 
Q 4272 2588 3738 3169 
L 4128 3481 
Q 4856 2681 6144 2150 
z
M 4691 366 
L 4691 1709 
L 4044 1709 
L 4044 366 
L 4691 366 
z
M 3547 366 
L 3547 1709 
L 2847 1709 
L 2847 366 
L 3547 366 
z
M 2350 353 
L 2350 1684 
L 1703 1684 
L 1703 353 
L 2350 353 
z
" transform="scale(0.015625)"/>
       <path id="DejaVuSans-Oblique-45" d="M 1081 4666 
L 4031 4666 
L 3928 4134 
L 1606 4134 
L 1338 2753 
L 3566 2753 
L 3463 2222 
L 1234 2222 
L 909 531 
L 3284 531 
L 3181 0 
L 172 0 
L 1081 4666 
z
" transform="scale(0.015625)"/>
       <path id="DejaVuSans-5b" d="M 550 4863 
L 1875 4863 
L 1875 4416 
L 1125 4416 
L 1125 -397 
L 1875 -397 
L 1875 -844 
L 550 -844 
L 550 4863 
z
" transform="scale(0.015625)"/>
       <path id="DejaVuSans-Oblique-52" d="M 1613 4147 
L 1294 2491 
L 2106 2491 
Q 2584 2491 2879 2755 
Q 3175 3019 3175 3444 
Q 3175 3784 2976 3965 
Q 2778 4147 2406 4147 
L 1613 4147 
z
M 2772 2241 
Q 2972 2194 3105 2009 
Q 3238 1825 3413 1275 
L 3809 0 
L 3144 0 
L 2778 1197 
Q 2638 1659 2453 1815 
Q 2269 1972 1888 1972 
L 1191 1972 
L 806 0 
L 172 0 
L 1081 4666 
L 2503 4666 
Q 3150 4666 3495 4373 
Q 3841 4081 3841 3531 
Q 3841 3044 3547 2687 
Q 3253 2331 2772 2241 
z
" transform="scale(0.015625)"/>
       <path id="DejaVuSans-5d" d="M 1947 4863 
L 1947 -844 
L 622 -844 
L 622 -397 
L 1369 -397 
L 1369 4416 
L 622 4416 
L 622 4863 
L 1947 4863 
z
" transform="scale(0.015625)"/>
      </defs>
      <use xlink:href="#ArialUnicodeMS-9884" transform="translate(0 0.015625)"/>
      <use xlink:href="#ArialUnicodeMS-671f" transform="translate(100 0.015625)"/>
      <use xlink:href="#ArialUnicodeMS-6536" transform="translate(200 0.015625)"/>
      <use xlink:href="#ArialUnicodeMS-76ca" transform="translate(300 0.015625)"/>
      <use xlink:href="#ArialUnicodeMS-7387" transform="translate(400 0.015625)"/>
      <use xlink:href="#ArialUnicodeMS-20" transform="translate(500 0.015625)"/>
      <use xlink:href="#ArialUnicodeMS-28" transform="translate(527.783203 0.015625)"/>
      <use xlink:href="#DejaVuSans-Oblique-45" transform="translate(561.083984 0.015625)"/>
      <use xlink:href="#DejaVuSans-5b" transform="translate(624.267578 0.015625)"/>
      <use xlink:href="#DejaVuSans-Oblique-52" transform="translate(660.15625 0.015625)"/>
      <use xlink:href="#DejaVuSans-5d" transform="translate(729.638672 0.015625)"/>
      <use xlink:href="#ArialUnicodeMS-29" transform="translate(768.652344 0.015625)"/>
     </g>
    </g>
   </g>
   <g id="line2d_29">
    <path d="M 71.998636 232.270703 
L 75.357957 228.632649 
L 78.717277 225.227053 
L 82.076598 222.014339 
L 85.435918 218.965033 
L 88.795239 216.056478 
L 92.154559 213.270814 
L 95.51388 210.593668 
L 98.8732 208.013267 
L 102.232521 205.519822 
L 105.591841 203.105096 
L 108.951162 200.76207 
L 112.310482 198.484716 
L 115.669803 196.2678 
L 119.029123 194.106754 
L 122.388444 191.997553 
L 125.747764 189.936638 
L 129.107084 187.920835 
L 132.466405 185.947306 
L 135.825725 184.013499 
L 139.185046 182.117106 
L 142.544366 180.256037 
L 145.903687 178.428389 
L 149.263007 176.632423 
L 152.622328 174.866547 
L 155.981648 173.129296 
L 159.340969 171.419323 
L 162.700289 169.735382 
L 166.05961 168.076318 
L 169.41893 166.441061 
L 172.778251 164.828615 
L 176.137571 163.238049 
L 179.496892 161.668498 
L 182.856212 160.11915 
L 186.215533 158.589244 
L 189.574853 157.078065 
L 192.934174 155.584944 
L 196.293494 154.109247 
L 199.652815 152.650378 
L 203.012135 151.207774 
L 206.371455 149.780904 
L 209.730776 148.369263 
L 213.090096 146.972374 
L 216.449417 145.589784 
L 219.808737 144.221062 
L 223.168058 142.8658 
L 226.527378 141.523608 
L 229.886699 140.194115 
L 233.246019 138.876967 
L 236.60534 137.571826 
L 239.96466 136.278371 
L 243.323981 134.996292 
L 246.683301 133.725295 
L 250.042622 132.465097 
L 253.401942 131.215428 
L 256.761263 129.976028 
L 260.120583 128.746647 
L 263.479904 127.527048 
L 266.839224 126.316999 
L 270.198545 125.11628 
L 273.557865 123.924679 
L 276.917185 122.741991 
L 280.276506 121.568018 
L 283.635826 120.402571 
L 286.995147 119.245468 
L 290.354467 118.09653 
L 293.713788 116.955588 
L 297.073108 115.822477 
L 300.432429 114.697038 
L 303.791749 113.579117 
L 307.15107 112.468566 
L 310.51039 111.365241 
L 313.869711 110.269001 
L 317.229031 109.179714 
L 320.588352 108.097248 
L 323.947672 107.021476 
L 327.306993 105.952276 
L 330.666313 104.889528 
L 334.025634 103.833118 
L 337.384954 102.782934 
L 340.744275 101.738865 
L 344.103595 100.700808 
L 347.462916 99.668659 
L 350.822236 98.642319 
L 354.181556 97.62169 
L 357.540877 96.606678 
L 360.900197 95.597192 
L 364.259518 94.593142 
L 367.618838 93.594442 
L 370.978159 92.601006 
L 374.337479 91.612752 
L 377.6968 90.629601 
L 381.05612 89.651474 
L 384.415441 88.678294 
L 387.774761 87.709987 
L 391.134082 86.746481 
L 394.493402 85.787706 
L 397.852723 84.833591 
L 401.212043 83.88407 
L 404.571364 82.939078 
" clip-path="url(#pd94860e800)" style="fill: none; stroke-dasharray: 5.55,2.4; stroke-dashoffset: 0; stroke: #7f8c8d; stroke-width: 1.5"/>
   </g>
   <g id="line2d_30">
    <path d="M 71.998636 183.494067 
L 75.357957 180.352677 
L 78.717277 177.320085 
L 82.076598 174.385713 
L 85.435918 171.540595 
L 88.795239 168.777051 
L 92.154559 166.08844 
L 95.51388 163.468981 
L 98.8732 160.913596 
L 102.232521 158.417802 
L 105.591841 155.977614 
L 108.951162 153.589474 
L 112.310482 151.250186 
L 115.669803 148.956871 
L 119.029123 146.706919 
L 122.388444 144.49796 
L 125.747764 142.327832 
L 129.107084 140.194557 
L 132.466405 138.096317 
L 135.825725 136.031442 
L 139.185046 133.99839 
L 142.544366 131.995732 
L 145.903687 130.022144 
L 149.263007 128.076397 
L 152.622328 126.157345 
L 155.981648 124.263917 
L 159.340969 122.395115 
L 162.700289 120.550001 
L 166.05961 118.727697 
L 169.41893 116.927377 
L 172.778251 115.148265 
L 176.137571 113.389628 
L 179.496892 111.650775 
L 182.856212 109.931053 
L 186.215533 108.229845 
L 189.574853 106.546564 
L 192.934174 104.880656 
L 196.293494 103.231593 
L 199.652815 101.598875 
L 203.012135 99.982026 
L 206.371455 98.38059 
L 209.730776 96.794137 
L 213.090096 95.222252 
L 216.449417 93.664542 
L 219.808737 92.12063 
L 223.168058 90.590156 
L 226.527378 89.072775 
L 229.886699 87.568156 
L 233.246019 86.075983 
L 236.60534 84.595952 
L 239.96466 83.127771 
L 243.323981 81.671161 
L 246.683301 80.225851 
L 250.042622 78.791583 
L 253.401942 77.368108 
L 256.761263 75.955185 
L 260.120583 74.552584 
L 263.479904 73.16008 
L 266.839224 71.77746 
L 270.198545 70.404516 
L 273.557865 69.041047 
L 276.917185 67.686861 
L 280.276506 66.341769 
L 283.635826 65.005591 
L 286.995147 63.678152 
L 290.354467 62.359284 
L 293.713788 61.048821 
L 297.073108 59.746606 
L 300.432429 58.452484 
L 303.791749 57.166307 
L 307.15107 55.887929 
L 310.51039 54.617212 
L 313.869711 53.354018 
L 317.229031 52.098216 
L 320.588352 50.849677 
L 323.947672 49.608277 
L 327.306993 48.373894 
L 330.666313 47.146412 
L 334.025634 45.925715 
L 337.384954 44.711692 
L 340.744275 43.504236 
L 344.103595 42.30324 
L 347.462916 41.108602 
L 350.822236 39.920222 
L 354.181556 38.738002 
L 357.540877 37.561849 
L 360.900197 36.391669 
L 364.259518 35.227373 
L 367.618838 34.068871 
L 370.978159 32.91608 
L 374.337479 31.768915 
L 377.6968 30.627295 
L 381.05612 29.49114 
L 384.415441 28.360371 
L 387.774761 27.234915 
L 391.134082 26.114695 
L 394.493402 24.99964 
L 397.852723 23.88968 
L 401.212043 22.784744 
L 404.571364 21.684765 
" clip-path="url(#pd94860e800)" style="fill: none; stroke: #e74c3c; stroke-width: 2; stroke-linecap: square"/>
   </g>
   <g id="patch_3">
    <path d="M 55.37 242.8 
L 55.37 11.155468 
" style="fill: none; stroke: #000000; stroke-width: 0.8; stroke-linejoin: miter; stroke-linecap: square"/>
   </g>
   <g id="patch_4">
    <path d="M 55.37 242.8 
L 421.2 242.8 
" style="fill: none; stroke: #000000; stroke-width: 0.8; stroke-linejoin: miter; stroke-linecap: square"/>
   </g>
   <g id="legend_1">
    <g id="line2d_31">
     <path d="M 64.37 23.985155 
L 74.37 23.985155 
L 84.37 23.985155 
" style="fill: none; stroke-dasharray: 5.55,2.4; stroke-dashoffset: 0; stroke: #7f8c8d; stroke-width: 1.5"/>
    </g>
    <g id="text_17">
     <!-- 传统投资组合 -->
     <g transform="translate(92.37 27.485155) scale(0.1 -0.1)">
      <defs>
       <path id="ArialUnicodeMS-4f20" d="M 5778 2791 
L 3506 2791 
L 3291 2150 
L 5409 2150 
L 5409 1766 
Q 4894 1028 4422 563 
Q 4847 391 5344 -19 
L 4991 -422 
Q 4031 394 2753 659 
L 3034 1063 
Q 3878 806 3988 763 
Q 4309 1063 4775 1684 
L 3128 1684 
L 3003 1331 
L 2547 1503 
L 3034 2791 
L 1894 2791 
L 1894 3225 
L 3163 3225 
L 3378 3950 
L 2272 3950 
L 2272 4384 
L 3506 4384 
L 3763 5319 
L 4206 5141 
L 3988 4384 
L 5466 4384 
L 5466 3950 
L 3853 3950 
L 3653 3225 
L 5778 3225 
L 5778 2791 
z
M 2169 5094 
Q 2103 4713 1938 4109 
L 1772 3559 
L 1772 -384 
L 1313 -384 
L 1313 2644 
L 1300 2644 
Q 1016 2081 538 1606 
L 178 1966 
Q 1334 3053 1766 5319 
L 2169 5094 
z
" transform="scale(0.015625)"/>
       <path id="ArialUnicodeMS-7edf" d="M 5913 2478 
L 5503 2228 
Q 5319 2544 5259 2606 
Q 4153 2541 2547 2363 
L 2272 2875 
Q 3269 3503 3559 4084 
L 2356 4084 
L 2356 4550 
L 3878 4550 
Q 3725 4731 3128 5044 
L 3475 5363 
Q 4016 5141 4428 4697 
L 4256 4550 
L 5747 4550 
L 5747 4084 
L 4153 4084 
Q 3747 3338 3053 2919 
L 3066 2906 
L 4903 3053 
Q 4684 3288 4403 3506 
L 4850 3744 
Q 5534 3147 5913 2478 
z
M 2553 1663 
Q 1341 1369 622 1147 
L 391 1575 
Q 1022 2209 1306 2625 
L 1294 2638 
Q 1284 2631 1023 2561 
Q 763 2491 609 2438 
L 366 2881 
Q 853 3669 1441 5166 
L 1875 4966 
Q 1300 3650 947 3022 
L 1619 3163 
Q 1797 3416 2047 3922 
L 2503 3719 
Q 1888 2469 1153 1784 
L 1166 1772 
L 2553 2100 
L 2553 1663 
z
M 6028 947 
Q 5978 609 5822 225 
Q 5666 -159 5288 -159 
L 4788 -159 
Q 4547 -159 4395 -31 
Q 4244 97 4244 325 
L 4244 2194 
L 4728 2194 
L 4728 447 
Q 4728 306 4891 306 
L 5259 306 
Q 5356 306 5418 448 
Q 5481 591 5581 1088 
L 6028 947 
z
M 3659 2194 
Q 3659 1441 3579 1006 
Q 3500 572 3165 206 
Q 2831 -159 2216 -453 
L 1869 0 
Q 2388 150 2713 439 
Q 3038 728 3103 1103 
Q 3169 1478 3169 2194 
L 3659 2194 
z
M 2688 666 
L 647 -50 
L 409 397 
L 2688 1141 
L 2688 666 
z
" transform="scale(0.015625)"/>
       <path id="ArialUnicodeMS-6295" d="M 2625 3603 
L 1888 3603 
L 1888 2322 
L 2606 2559 
L 2606 2094 
Q 2516 2047 1888 1838 
L 1888 122 
Q 1888 -91 1739 -242 
Q 1591 -394 1331 -397 
L 744 -403 
L 581 78 
Q 694 50 1259 50 
Q 1403 50 1403 197 
L 1403 1684 
Q 938 1513 659 1441 
L 359 1863 
Q 959 2000 1403 2156 
L 1403 3603 
L 569 3603 
L 569 4072 
L 1403 4072 
L 1403 5253 
L 1888 5253 
L 1888 4072 
L 2625 4072 
L 2625 3603 
z
M 6041 3775 
Q 5925 3003 5522 3003 
L 5069 3003 
Q 4844 3003 4709 3133 
Q 4575 3263 4575 3488 
L 4575 4628 
L 3628 4628 
Q 3628 3994 3586 3712 
Q 3544 3431 3342 3167 
Q 3141 2903 2841 2719 
L 2450 3066 
Q 3144 3475 3144 4072 
L 3144 5094 
L 5069 5094 
L 5069 3603 
Q 5069 3469 5197 3469 
L 5375 3469 
Q 5531 3469 5569 4013 
L 6041 3775 
z
M 6163 25 
L 5850 -422 
Q 5116 -222 4159 531 
Q 3409 -91 2456 -397 
L 2131 31 
Q 3250 384 3816 884 
Q 3328 1450 3053 2216 
L 2719 2216 
L 2719 2681 
L 5422 2681 
Q 5341 1663 4544 863 
Q 5231 284 6163 25 
z
M 4831 2216 
L 3572 2216 
Q 3850 1494 4184 1216 
Q 4666 1688 4831 2216 
z
" transform="scale(0.015625)"/>
       <path id="ArialUnicodeMS-8d44" d="M 5522 4863 
Q 5541 4597 5477 4328 
Q 5413 4059 5131 3622 
L 4697 3859 
Q 4913 4106 5013 4397 
L 3144 4397 
Q 2878 3913 2203 3444 
L 1875 3822 
Q 2672 4297 3003 5306 
L 3431 5153 
Q 3403 5059 3322 4863 
L 5522 4863 
z
M 1766 4550 
L 1409 4172 
Q 1103 4628 594 4941 
L 891 5234 
Q 1459 4978 1766 4550 
z
M 6009 2778 
L 5678 2369 
Q 4472 2688 3788 3481 
Q 3591 3172 3142 2912 
Q 2694 2653 2222 2578 
L 2222 2572 
L 4813 2572 
L 4813 575 
L 4325 575 
L 4325 2106 
L 2119 2106 
L 2119 575 
L 1631 575 
L 1631 2572 
L 1913 2572 
L 1716 2847 
Q 2591 3081 3020 3382 
Q 3450 3684 3641 4250 
L 4091 4147 
L 4006 3897 
Q 4269 3525 4686 3267 
Q 5103 3009 6009 2778 
z
M 1806 3688 
Q 1628 3134 831 2369 
L 453 2713 
Q 1106 3253 1453 3922 
L 1806 3688 
z
M 3450 1906 
Q 3453 572 2761 120 
Q 2069 -331 819 -384 
L 594 84 
Q 1419 134 1742 186 
Q 2066 238 2409 461 
Q 2753 684 2848 979 
Q 2944 1275 2988 1906 
L 3450 1906 
z
M 5503 0 
L 5259 -447 
Q 4506 47 3272 306 
L 3494 722 
Q 4728 478 5503 0 
z
" transform="scale(0.015625)"/>
       <path id="ArialUnicodeMS-7ec4" d="M 2509 1619 
Q 853 1231 622 1147 
L 391 1575 
Q 1022 2209 1306 2625 
L 1294 2638 
Q 1284 2631 1023 2561 
Q 763 2491 609 2438 
L 366 2881 
Q 853 3669 1441 5166 
L 1875 4966 
Q 1300 3650 947 3022 
L 1619 3163 
Q 1797 3416 2047 3922 
L 2503 3719 
Q 1863 2416 1153 1772 
L 1166 1759 
L 2509 2053 
L 2509 1619 
z
M 5919 -91 
L 2150 -91 
L 2150 378 
L 2881 378 
L 2881 4941 
L 5184 4941 
L 5184 378 
L 5919 378 
L 5919 -91 
z
M 4697 3469 
L 4697 4475 
L 3366 4475 
L 3366 3469 
L 4697 3469 
z
M 4697 1972 
L 4697 3028 
L 3366 3028 
L 3366 1972 
L 4697 1972 
z
M 4697 378 
L 4697 1528 
L 3366 1528 
L 3366 378 
L 4697 378 
z
M 2650 691 
L 647 19 
L 409 459 
Q 2306 1044 2650 1172 
L 2650 691 
z
" transform="scale(0.015625)"/>
       <path id="ArialUnicodeMS-5408" d="M 6119 2925 
L 5797 2497 
Q 5525 2603 5015 2934 
Q 4506 3266 4200 3555 
Q 3894 3844 3200 4659 
Q 2319 3578 603 2419 
L 256 2803 
Q 2228 4103 3175 5497 
L 3647 5178 
L 3450 4978 
Q 3994 4306 4803 3698 
Q 5613 3091 6119 2925 
z
M 4691 2597 
L 1638 2597 
L 1638 3084 
L 4691 3084 
L 4691 2597 
z
M 5063 -434 
L 4556 -434 
L 4556 -38 
L 1838 -38 
L 1838 -469 
L 1331 -469 
L 1331 1906 
L 5063 1906 
L 5063 -434 
z
M 4556 447 
L 4556 1441 
L 1838 1441 
L 1838 447 
L 4556 447 
z
" transform="scale(0.015625)"/>
      </defs>
      <use xlink:href="#ArialUnicodeMS-4f20"/>
      <use xlink:href="#ArialUnicodeMS-7edf" x="100"/>
      <use xlink:href="#ArialUnicodeMS-6295" x="200"/>
      <use xlink:href="#ArialUnicodeMS-8d44" x="300"/>
      <use xlink:href="#ArialUnicodeMS-7ec4" x="400"/>
      <use xlink:href="#ArialUnicodeMS-5408" x="500"/>
     </g>
    </g>
    <g id="line2d_32">
     <path d="M 64.37 38.135155 
L 74.37 38.135155 
L 84.37 38.135155 
" style="fill: none; stroke: #e74c3c; stroke-width: 2; stroke-linecap: square"/>
    </g>
    <g id="text_18">
     <!-- 引入艺术品 RWA -->
     <g transform="translate(92.37 41.635155) scale(0.1 -0.1)">
      <defs>
       <path id="ArialUnicodeMS-5f15" d="M 5403 -391 
L 4884 -391 
L 4884 5288 
L 5403 5288 
L 5403 -391 
z
M 3803 2113 
Q 3803 1803 3731 1090 
Q 3659 378 3454 15 
Q 3250 -347 2794 -347 
Q 2397 -347 1691 -172 
L 1600 372 
Q 2456 128 2791 128 
Q 2969 128 3078 400 
Q 3188 672 3263 1644 
L 1447 1644 
L 1388 1288 
L 884 1344 
L 1178 3578 
L 3175 3578 
L 3175 4519 
L 891 4519 
L 891 4984 
L 3675 4984 
L 3675 3109 
L 1625 3109 
L 1484 2113 
L 3803 2113 
z
" transform="scale(0.015625)"/>
       <path id="ArialUnicodeMS-5165" d="M 5972 184 
L 5663 -238 
Q 3931 872 3406 2478 
Q 2675 722 844 -244 
L 544 178 
Q 1822 844 2483 1855 
Q 3144 2866 3144 3194 
L 3128 4453 
L 1991 4453 
L 1991 4922 
L 3609 4922 
L 3603 4575 
Q 3575 3106 4158 2050 
Q 4741 994 5972 184 
z
" transform="scale(0.015625)"/>
       <path id="ArialUnicodeMS-827a" d="M 5881 4172 
L 4256 4172 
L 4256 3494 
L 3775 3494 
L 3775 4172 
L 2497 4172 
L 2497 3494 
L 2016 3494 
L 2016 4172 
L 441 4172 
L 441 4616 
L 2016 4616 
L 2016 5247 
L 2497 5247 
L 2497 4616 
L 3775 4616 
L 3775 5247 
L 4256 5247 
L 4256 4616 
L 5881 4616 
L 5881 4172 
z
M 5663 916 
Q 5522 -184 5006 -184 
L 1709 -184 
Q 1484 -184 1356 -32 
Q 1228 119 1228 338 
Q 1228 650 1828 1256 
Q 2428 1863 3681 2706 
L 3681 2713 
L 1325 2713 
L 1325 3181 
L 4494 3181 
L 4494 2725 
Q 3250 1931 2486 1186 
Q 1722 441 1722 338 
Q 1722 281 1772 281 
L 4825 281 
Q 5103 281 5172 1106 
L 5663 916 
z
" transform="scale(0.015625)"/>
       <path id="ArialUnicodeMS-672f" d="M 6059 494 
L 5716 103 
Q 5100 413 4472 1198 
Q 3844 1984 3513 3291 
L 3372 3291 
L 3372 -441 
L 2888 -441 
L 2888 3291 
L 2747 3291 
Q 2241 1028 563 109 
L 219 481 
Q 1775 1356 2278 3291 
L 391 3291 
L 391 3756 
L 2888 3756 
L 2888 5216 
L 3372 5216 
L 3372 3756 
L 5850 3756 
L 5850 3291 
L 3975 3291 
Q 4609 1278 6059 494 
z
M 5125 4159 
L 4750 3859 
Q 4403 4409 3744 4738 
L 4056 5050 
Q 4722 4747 5125 4159 
z
" transform="scale(0.015625)"/>
       <path id="ArialUnicodeMS-54c1" d="M 4997 2963 
L 1363 2963 
L 1363 5069 
L 4997 5069 
L 4997 2963 
z
M 4575 3378 
L 4575 4653 
L 1806 4653 
L 1806 3378 
L 4575 3378 
z
M 5656 -372 
L 5172 -372 
L 5172 72 
L 3956 72 
L 3956 -372 
L 3469 -372 
L 3469 2491 
L 5656 2491 
L 5656 -372 
z
M 5172 538 
L 5172 2022 
L 3956 2022 
L 3956 538 
L 5172 538 
z
M 2894 -397 
L 2406 -397 
L 2406 38 
L 1228 38 
L 1228 -422 
L 744 -409 
L 744 2472 
L 2894 2472 
L 2894 -397 
z
M 2406 506 
L 2406 2003 
L 1228 2003 
L 1228 506 
L 2406 506 
z
" transform="scale(0.015625)"/>
       <path id="ArialUnicodeMS-52" d="M 4550 0 
L 3788 0 
Q 3103 1081 2937 1328 
Q 2772 1575 2589 1751 
Q 2406 1928 2245 1975 
Q 2084 2022 1819 2022 
L 1119 2022 
L 1119 0 
L 513 0 
L 513 4581 
L 2541 4581 
Q 2956 4581 3237 4528 
Q 3519 4475 3731 4304 
Q 3944 4134 4058 3875 
Q 4172 3616 4172 3328 
Q 4172 2809 3844 2493 
Q 3516 2178 2888 2094 
L 2888 2081 
Q 3347 1878 3750 1247 
L 4550 0 
z
M 1119 2566 
L 2419 2566 
Q 2813 2566 3042 2633 
Q 3272 2700 3409 2894 
Q 3547 3088 3547 3328 
Q 3547 3641 3319 3859 
Q 3091 4078 2566 4078 
L 1119 4078 
L 1119 2566 
z
" transform="scale(0.015625)"/>
       <path id="ArialUnicodeMS-57" d="M 5972 4581 
L 4709 0 
L 4128 0 
L 3128 3609 
Q 3050 3888 3028 4031 
L 3016 4031 
L 2888 3488 
L 1913 0 
L 1300 0 
L 78 4581 
L 697 4581 
L 1403 1575 
Q 1544 984 1581 706 
Q 1588 650 1588 641 
L 1600 641 
Q 1725 1234 1797 1491 
L 2669 4581 
L 3406 4581 
L 4056 2266 
Q 4300 1403 4409 641 
L 4422 641 
Q 4488 1013 4641 1638 
L 5363 4581 
L 5972 4581 
z
" transform="scale(0.015625)"/>
       <path id="ArialUnicodeMS-41" d="M 4275 0 
L 3591 0 
L 3053 1394 
L 1141 1394 
L 634 0 
L -6 0 
L 1753 4581 
L 2406 4581 
L 4275 0 
z
M 2869 1875 
Q 2306 3363 2234 3564 
Q 2163 3766 2075 4103 
L 2059 4103 
Q 1972 3641 1825 3247 
L 1313 1875 
L 2869 1875 
z
" transform="scale(0.015625)"/>
      </defs>
      <use xlink:href="#ArialUnicodeMS-5f15"/>
      <use xlink:href="#ArialUnicodeMS-5165" x="100"/>
      <use xlink:href="#ArialUnicodeMS-827a" x="200"/>
      <use xlink:href="#ArialUnicodeMS-672f" x="300"/>
      <use xlink:href="#ArialUnicodeMS-54c1" x="400"/>
      <use xlink:href="#ArialUnicodeMS-20" x="500"/>
      <use xlink:href="#ArialUnicodeMS-52" x="527.783203"/>
      <use xlink:href="#ArialUnicodeMS-57" x="600"/>
      <use xlink:href="#ArialUnicodeMS-41" x="694.384766"/>
     </g>
    </g>
   </g>
  </g>
 </g>
 <defs>
  <clipPath id="pd94860e800">
   <rect x="55.37" y="11.155468" width="365.83" height="231.644532"/>
  </clipPath>
 </defs>
</svg>
