<?xml version="1.0" encoding="utf-8" standalone="no"?>
<!DOCTYPE svg PUBLIC "-//W3C//DTD SVG 1.1//EN"
  "http://www.w3.org/Graphics/SVG/1.1/DTD/svg11.dtd">
<svg xmlns:xlink="http://www.w3.org/1999/xlink" width="432pt" height="288pt" viewBox="0 0 432 288" xmlns="http://www.w3.org/2000/svg" version="1.1">
 <metadata>
  <rdf:RDF xmlns:dc="http://purl.org/dc/elements/1.1/" xmlns:cc="http://creativecommons.org/ns#" xmlns:rdf="http://www.w3.org/1999/02/22-rdf-syntax-ns#">
   <cc:Work>
    <dc:type rdf:resource="http://purl.org/dc/dcmitype/StillImage"/>
    <dc:date>2026-05-11T09:52:21.910232</dc:date>
    <dc:format>image/svg+xml</dc:format>
    <dc:creator>
     <cc:Agent>
      <dc:title>Matplotlib v3.9.4, https://matplotlib.org/</dc:title>
     </cc:Agent>
    </dc:creator>
   </cc:Work>
  </rdf:RDF>
 </metadata>
 <defs>
  <style type="text/css">*{stroke-linejoin: round; stroke-linecap: butt}</style>
 </defs>
 <g id="figure_1">
  <g id="patch_1">
   <path d="M 0 288 
L 432 288 
L 432 0 
L 0 0 
z
" style="fill: #ffffff"/>
  </g>
  <g id="axes_1">
   <g id="patch_2">
    <path d="M 54.65 243.88 
L 421.2 243.88 
L 421.2 11.155468 
L 54.65 11.155468 
z
" style="fill: #ffffff"/>
   </g>
   <g id="matplotlib.axis_1">
    <g id="xtick_1">
     <g id="line2d_1">
      <path d="M 71.311364 243.88 
L 71.311364 11.155468 
" clip-path="url(#p14c20c6bce)" style="fill: none; stroke-dasharray: 2.96,1.28; stroke-dashoffset: 0; stroke: #b0b0b0; stroke-opacity: 0.3; stroke-width: 0.8"/>
     </g>
     <g id="line2d_2">
      <defs>
       <path id="mf1bdb1fbcc" d="M 0 0 
L 0 3.5 
" style="stroke: #000000; stroke-width: 0.8"/>
      </defs>
      <g>
       <use xlink:href="#mf1bdb1fbcc" x="71.311364" y="243.88" style="stroke: #000000; stroke-width: 0.8"/>
      </g>
     </g>
     <g id="text_1">
      <!-- 0.10 -->
      <g transform="translate(61.580895 258.037813) scale(0.1 -0.1)">
       <defs>
        <path id="ArialUnicodeMS-30" d="M 1778 4603 
Q 3272 4603 3272 2259 
Q 3272 1075 2886 498 
Q 2500 -78 1778 -78 
Q 288 -78 288 2259 
Q 288 3444 673 4023 
Q 1059 4603 1778 4603 
z
M 1778 384 
Q 2231 384 2462 823 
Q 2694 1263 2694 2259 
Q 2694 2953 2592 3351 
Q 2491 3750 2286 3945 
Q 2081 4141 1772 4141 
Q 1319 4141 1091 3694 
Q 863 3247 863 2259 
Q 863 1575 966 1175 
Q 1069 775 1272 579 
Q 1475 384 1778 384 
z
" transform="scale(0.015625)"/>
        <path id="ArialUnicodeMS-2e" d="M 1209 0 
L 569 0 
L 569 641 
L 1209 641 
L 1209 0 
z
" transform="scale(0.015625)"/>
        <path id="ArialUnicodeMS-31" d="M 2400 0 
L 1838 0 
L 1838 3584 
Q 1416 3184 709 2906 
L 709 3450 
Q 1681 3916 2034 4603 
L 2400 4603 
L 2400 0 
z
" transform="scale(0.015625)"/>
       </defs>
       <use xlink:href="#ArialUnicodeMS-30"/>
       <use xlink:href="#ArialUnicodeMS-2e" x="55.615234"/>
       <use xlink:href="#ArialUnicodeMS-31" x="83.398438"/>
       <use xlink:href="#ArialUnicodeMS-30" x="139.013672"/>
      </g>
     </g>
    </g>
    <g id="xtick_2">
     <g id="line2d_3">
      <path d="M 126.849242 243.88 
L 126.849242 11.155468 
" clip-path="url(#p14c20c6bce)" style="fill: none; stroke-dasharray: 2.96,1.28; stroke-dashoffset: 0; stroke: #b0b0b0; stroke-opacity: 0.3; stroke-width: 0.8"/>
     </g>
     <g id="line2d_4">
      <g>
       <use xlink:href="#mf1bdb1fbcc" x="126.849242" y="243.88" style="stroke: #000000; stroke-width: 0.8"/>
      </g>
     </g>
     <g id="text_2">
      <!-- 0.15 -->
      <g transform="translate(117.118774 258.037813) scale(0.1 -0.1)">
       <defs>
        <path id="ArialUnicodeMS-35" d="M 1013 2753 
Q 1431 3041 1881 3041 
Q 2453 3041 2878 2636 
Q 3303 2231 3303 1556 
Q 3303 875 2872 398 
Q 2441 -78 1741 -78 
Q 1169 -78 750 245 
Q 331 569 269 1203 
L 856 1247 
Q 928 813 1162 598 
Q 1397 384 1741 384 
Q 2169 384 2434 707 
Q 2700 1031 2700 1503 
Q 2700 1984 2428 2262 
Q 2156 2541 1728 2541 
Q 1188 2541 897 2100 
L 366 2163 
L 813 4519 
L 3084 4519 
L 3084 3975 
L 1259 3975 
L 1013 2753 
z
" transform="scale(0.015625)"/>
       </defs>
       <use xlink:href="#ArialUnicodeMS-30"/>
       <use xlink:href="#ArialUnicodeMS-2e" x="55.615234"/>
       <use xlink:href="#ArialUnicodeMS-31" x="83.398438"/>
       <use xlink:href="#ArialUnicodeMS-35" x="139.013672"/>
      </g>
     </g>
    </g>
    <g id="xtick_3">
     <g id="line2d_5">
      <path d="M 182.387121 243.88 
L 182.387121 11.155468 
" clip-path="url(#p14c20c6bce)" style="fill: none; stroke-dasharray: 2.96,1.28; stroke-dashoffset: 0; stroke: #b0b0b0; stroke-opacity: 0.3; stroke-width: 0.8"/>
     </g>
     <g id="line2d_6">
      <g>
       <use xlink:href="#mf1bdb1fbcc" x="182.387121" y="243.88" style="stroke: #000000; stroke-width: 0.8"/>
      </g>
     </g>
     <g id="text_3">
      <!-- 0.20 -->
      <g transform="translate(172.656652 258.037813) scale(0.1 -0.1)">
       <defs>
        <path id="ArialUnicodeMS-32" d="M 3231 0 
L 197 0 
Q 197 388 467 784 
Q 738 1181 1478 1778 
Q 1931 2141 2287 2539 
Q 2644 2938 2644 3341 
Q 2644 3688 2398 3914 
Q 2153 4141 1778 4141 
Q 1400 4141 1144 3908 
Q 888 3675 884 3213 
L 306 3278 
Q 359 3922 764 4262 
Q 1169 4603 1791 4603 
Q 2466 4603 2842 4229 
Q 3219 3856 3219 3328 
Q 3219 2888 2901 2436 
Q 2584 1984 1638 1228 
Q 1141 831 978 544 
L 3231 544 
L 3231 0 
z
" transform="scale(0.015625)"/>
       </defs>
       <use xlink:href="#ArialUnicodeMS-30"/>
       <use xlink:href="#ArialUnicodeMS-2e" x="55.615234"/>
       <use xlink:href="#ArialUnicodeMS-32" x="83.398438"/>
       <use xlink:href="#ArialUnicodeMS-30" x="139.013672"/>
      </g>
     </g>
    </g>
    <g id="xtick_4">
     <g id="line2d_7">
      <path d="M 237.925 243.88 
L 237.925 11.155468 
" clip-path="url(#p14c20c6bce)" style="fill: none; stroke-dasharray: 2.96,1.28; stroke-dashoffset: 0; stroke: #b0b0b0; stroke-opacity: 0.3; stroke-width: 0.8"/>
     </g>
     <g id="line2d_8">
      <g>
       <use xlink:href="#mf1bdb1fbcc" x="237.925" y="243.88" style="stroke: #000000; stroke-width: 0.8"/>
      </g>
     </g>
     <g id="text_4">
      <!-- 0.25 -->
      <g transform="translate(228.194531 258.037813) scale(0.1 -0.1)">
       <use xlink:href="#ArialUnicodeMS-30"/>
       <use xlink:href="#ArialUnicodeMS-2e" x="55.615234"/>
       <use xlink:href="#ArialUnicodeMS-32" x="83.398438"/>
       <use xlink:href="#ArialUnicodeMS-35" x="139.013672"/>
      </g>
     </g>
    </g>
    <g id="xtick_5">
     <g id="line2d_9">
      <path d="M 293.462879 243.88 
L 293.462879 11.155468 
" clip-path="url(#p14c20c6bce)" style="fill: none; stroke-dasharray: 2.96,1.28; stroke-dashoffset: 0; stroke: #b0b0b0; stroke-opacity: 0.3; stroke-width: 0.8"/>
     </g>
     <g id="line2d_10">
      <g>
       <use xlink:href="#mf1bdb1fbcc" x="293.462879" y="243.88" style="stroke: #000000; stroke-width: 0.8"/>
      </g>
     </g>
     <g id="text_5">
      <!-- 0.30 -->
      <g transform="translate(283.73241 258.037813) scale(0.1 -0.1)">
       <defs>
        <path id="ArialUnicodeMS-33" d="M 2425 2478 
Q 2850 2397 3067 2067 
Q 3284 1738 3284 1350 
Q 3284 725 2829 323 
Q 2375 -78 1741 -78 
Q 1134 -78 740 275 
Q 347 628 281 1209 
L 844 1288 
Q 928 834 1151 609 
Q 1375 384 1741 384 
Q 2134 384 2407 661 
Q 2681 938 2681 1338 
Q 2681 1722 2432 1975 
Q 2184 2228 1784 2228 
Q 1622 2228 1388 2169 
L 1453 2663 
Q 1678 2663 1809 2684 
Q 1941 2706 2103 2790 
Q 2266 2875 2372 3033 
Q 2478 3191 2478 3425 
Q 2478 3766 2251 3953 
Q 2025 4141 1728 4141 
Q 1388 4141 1173 3925 
Q 959 3709 903 3309 
L 341 3413 
Q 450 4009 823 4306 
Q 1197 4603 1716 4603 
Q 2288 4603 2670 4258 
Q 3053 3913 3053 3413 
Q 3053 2772 2425 2491 
L 2425 2478 
z
" transform="scale(0.015625)"/>
       </defs>
       <use xlink:href="#ArialUnicodeMS-30"/>
       <use xlink:href="#ArialUnicodeMS-2e" x="55.615234"/>
       <use xlink:href="#ArialUnicodeMS-33" x="83.398438"/>
       <use xlink:href="#ArialUnicodeMS-30" x="139.013672"/>
      </g>
     </g>
    </g>
    <g id="xtick_6">
     <g id="line2d_11">
      <path d="M 349.000758 243.88 
L 349.000758 11.155468 
" clip-path="url(#p14c20c6bce)" style="fill: none; stroke-dasharray: 2.96,1.28; stroke-dashoffset: 0; stroke: #b0b0b0; stroke-opacity: 0.3; stroke-width: 0.8"/>
     </g>
     <g id="line2d_12">
      <g>
       <use xlink:href="#mf1bdb1fbcc" x="349.000758" y="243.88" style="stroke: #000000; stroke-width: 0.8"/>
      </g>
     </g>
     <g id="text_6">
      <!-- 0.35 -->
      <g transform="translate(339.270289 258.037813) scale(0.1 -0.1)">
       <use xlink:href="#ArialUnicodeMS-30"/>
       <use xlink:href="#ArialUnicodeMS-2e" x="55.615234"/>
       <use xlink:href="#ArialUnicodeMS-33" x="83.398438"/>
       <use xlink:href="#ArialUnicodeMS-35" x="139.013672"/>
      </g>
     </g>
    </g>
    <g id="xtick_7">
     <g id="line2d_13">
      <path d="M 404.538636 243.88 
L 404.538636 11.155468 
" clip-path="url(#p14c20c6bce)" style="fill: none; stroke-dasharray: 2.96,1.28; stroke-dashoffset: 0; stroke: #b0b0b0; stroke-opacity: 0.3; stroke-width: 0.8"/>
     </g>
     <g id="line2d_14">
      <g>
       <use xlink:href="#mf1bdb1fbcc" x="404.538636" y="243.88" style="stroke: #000000; stroke-width: 0.8"/>
      </g>
     </g>
     <g id="text_7">
      <!-- 0.40 -->
      <g transform="translate(394.808168 258.037813) scale(0.1 -0.1)">
       <defs>
        <path id="ArialUnicodeMS-34" d="M 3263 1094 
L 2644 1094 
L 2644 0 
L 2081 0 
L 2081 1094 
L 97 1094 
L 97 1613 
L 2181 4581 
L 2644 4581 
L 2644 1613 
L 3263 1613 
L 3263 1094 
z
M 2081 1613 
L 2081 3681 
L 2069 3681 
L 647 1613 
L 2081 1613 
z
" transform="scale(0.015625)"/>
       </defs>
       <use xlink:href="#ArialUnicodeMS-30"/>
       <use xlink:href="#ArialUnicodeMS-2e" x="55.615234"/>
       <use xlink:href="#ArialUnicodeMS-34" x="83.398438"/>
       <use xlink:href="#ArialUnicodeMS-30" x="139.013672"/>
      </g>
     </g>
    </g>
    <g id="text_8">
     <!-- Risk (Volatility $\sigma$) -->
     <g transform="translate(192.745 272.79) scale(0.12 -0.12)">
      <defs>
       <path id="ArialUnicodeMS-52" d="M 4550 0 
L 3788 0 
Q 3103 1081 2937 1328 
Q 2772 1575 2589 1751 
Q 2406 1928 2245 1975 
Q 2084 2022 1819 2022 
L 1119 2022 
L 1119 0 
L 513 0 
L 513 4581 
L 2541 4581 
Q 2956 4581 3237 4528 
Q 3519 4475 3731 4304 
Q 3944 4134 4058 3875 
Q 4172 3616 4172 3328 
Q 4172 2809 3844 2493 
Q 3516 2178 2888 2094 
L 2888 2081 
Q 3347 1878 3750 1247 
L 4550 0 
z
M 1119 2566 
L 2419 2566 
Q 2813 2566 3042 2633 
Q 3272 2700 3409 2894 
Q 3547 3088 3547 3328 
Q 3547 3641 3319 3859 
Q 3091 4078 2566 4078 
L 1119 4078 
L 1119 2566 
z
" transform="scale(0.015625)"/>
       <path id="ArialUnicodeMS-69" d="M 991 0 
L 428 0 
L 428 3316 
L 991 3316 
L 991 0 
z
M 991 3944 
L 428 3944 
L 428 4581 
L 991 4581 
L 991 3944 
z
" transform="scale(0.015625)"/>
       <path id="ArialUnicodeMS-73" d="M 2278 2388 
Q 2241 2659 2058 2795 
Q 1875 2931 1550 2931 
Q 1228 2931 1029 2822 
Q 831 2713 831 2503 
Q 831 2306 989 2222 
Q 1147 2138 1613 2016 
Q 2138 1881 2398 1778 
Q 2659 1675 2804 1489 
Q 2950 1303 2950 972 
Q 2950 528 2587 225 
Q 2225 -78 1619 -78 
Q 988 -78 633 189 
Q 278 456 197 991 
L 756 1075 
Q 800 728 1014 556 
Q 1228 384 1613 384 
Q 1981 384 2178 539 
Q 2375 694 2375 916 
Q 2375 1066 2284 1156 
Q 2194 1247 2058 1292 
Q 1922 1338 1447 1453 
Q 741 1622 514 1862 
Q 288 2103 288 2438 
Q 288 2853 619 3122 
Q 950 3391 1509 3391 
Q 2103 3391 2433 3158 
Q 2763 2925 2828 2463 
L 2278 2388 
z
" transform="scale(0.015625)"/>
       <path id="ArialUnicodeMS-6b" d="M 3175 0 
L 2484 0 
L 1381 1697 
L 984 1319 
L 984 0 
L 422 0 
L 422 4581 
L 984 4581 
L 984 1972 
L 2316 3316 
L 3047 3316 
L 1778 2088 
L 3175 0 
z
" transform="scale(0.015625)"/>
       <path id="ArialUnicodeMS-20" transform="scale(0.015625)"/>
       <path id="ArialUnicodeMS-28" d="M 1900 -1344 
L 1497 -1344 
Q 978 -681 681 103 
Q 384 888 384 1656 
Q 384 2528 700 3275 
Q 1016 4022 1497 4659 
L 1900 4659 
Q 1344 3747 1155 3059 
Q 966 2372 966 1663 
Q 966 153 1900 -1344 
z
" transform="scale(0.015625)"/>
       <path id="ArialUnicodeMS-56" d="M 4225 4581 
L 2431 0 
L 1813 0 
L 38 4581 
L 691 4581 
L 1881 1253 
Q 2016 934 2119 506 
L 2131 506 
Q 2225 872 2369 1253 
L 3609 4581 
L 4225 4581 
z
" transform="scale(0.015625)"/>
       <path id="ArialUnicodeMS-6f" d="M 1778 3391 
Q 2450 3391 2892 2953 
Q 3334 2516 3334 1709 
Q 3334 731 2856 326 
Q 2378 -78 1778 -78 
Q 1150 -78 687 337 
Q 225 753 225 1656 
Q 225 2531 672 2961 
Q 1119 3391 1778 3391 
z
M 1778 384 
Q 2259 384 2509 740 
Q 2759 1097 2759 1678 
Q 2759 2300 2476 2615 
Q 2194 2931 1778 2931 
Q 1350 2931 1075 2611 
Q 800 2291 800 1656 
Q 800 1025 1079 704 
Q 1359 384 1778 384 
z
" transform="scale(0.015625)"/>
       <path id="ArialUnicodeMS-6c" d="M 991 0 
L 428 0 
L 428 4581 
L 991 4581 
L 991 0 
z
" transform="scale(0.015625)"/>
       <path id="ArialUnicodeMS-61" d="M 3303 0 
L 2713 0 
Q 2631 156 2597 409 
Q 2031 -78 1375 -78 
Q 850 -78 547 184 
Q 244 447 244 878 
Q 244 1291 536 1558 
Q 828 1825 1550 1913 
L 2075 1991 
Q 2369 2038 2559 2106 
Q 2559 2359 2543 2464 
Q 2528 2569 2451 2681 
Q 2375 2794 2206 2862 
Q 2038 2931 1753 2931 
Q 1391 2931 1180 2797 
Q 969 2663 891 2297 
L 341 2369 
Q 431 2878 806 3134 
Q 1181 3391 1838 3391 
Q 2434 3391 2714 3214 
Q 2994 3038 3058 2788 
Q 3122 2538 3122 2144 
L 3122 1388 
Q 3122 697 3148 461 
Q 3175 225 3303 0 
z
M 2559 1459 
L 2559 1663 
Q 2119 1516 1481 1430 
Q 844 1344 844 891 
Q 844 663 1016 514 
Q 1188 366 1509 366 
Q 1925 366 2242 614 
Q 2559 863 2559 1459 
z
" transform="scale(0.015625)"/>
       <path id="ArialUnicodeMS-74" d="M 1722 6 
Q 1472 -44 1300 -44 
Q 931 -44 762 86 
Q 594 216 556 416 
Q 519 616 519 972 
L 519 2881 
L 109 2881 
L 109 3316 
L 519 3316 
L 519 4141 
L 1081 4481 
L 1081 3316 
L 1644 3316 
L 1644 2881 
L 1081 2881 
L 1081 941 
Q 1081 691 1132 586 
Q 1184 481 1394 481 
Q 1516 481 1644 506 
L 1722 6 
z
" transform="scale(0.015625)"/>
       <path id="ArialUnicodeMS-79" d="M 3150 3316 
L 1881 -56 
Q 1878 -63 1875 -78 
Q 1694 -641 1451 -992 
Q 1209 -1344 763 -1344 
Q 613 -1344 397 -1281 
L 341 -750 
Q 503 -800 659 -800 
Q 972 -800 1092 -628 
Q 1213 -456 1363 -6 
L 103 3316 
L 709 3316 
L 1491 1144 
Q 1559 944 1638 628 
L 1650 628 
Q 1728 991 1850 1319 
L 2578 3316 
L 3150 3316 
z
" transform="scale(0.015625)"/>
       <path id="DejaVuSans-Oblique-3c3" d="M 2219 3044 
Q 1744 3044 1422 2700 
Q 1081 2341 969 1747 
Q 844 1119 1044 756 
Q 1241 397 1706 397 
Q 2166 397 2503 759 
Q 2844 1122 2966 1747 
Q 3075 2319 2881 2700 
Q 2700 3044 2219 3044 
z
M 2309 3503 
L 4219 3500 
L 4106 2925 
L 3463 2925 
Q 3706 2438 3575 1747 
Q 3406 888 2884 400 
Q 2359 -91 1609 -91 
Q 856 -91 525 400 
Q 194 888 363 1747 
Q 528 2609 1050 3097 
Q 1484 3503 2309 3503 
z
" transform="scale(0.015625)"/>
       <path id="ArialUnicodeMS-29" d="M 634 4659 
Q 1153 3997 1450 3212 
Q 1747 2428 1747 1656 
Q 1747 788 1431 41 
Q 1116 -706 634 -1344 
L 231 -1344 
Q 788 -431 977 255 
Q 1166 941 1166 1650 
Q 1166 3163 231 4659 
L 634 4659 
z
" transform="scale(0.015625)"/>
      </defs>
      <use xlink:href="#ArialUnicodeMS-52" transform="translate(0 0.203125)"/>
      <use xlink:href="#ArialUnicodeMS-69" transform="translate(72.216797 0.203125)"/>
      <use xlink:href="#ArialUnicodeMS-73" transform="translate(94.433594 0.203125)"/>
      <use xlink:href="#ArialUnicodeMS-6b" transform="translate(144.433594 0.203125)"/>
      <use xlink:href="#ArialUnicodeMS-20" transform="translate(194.433594 0.203125)"/>
      <use xlink:href="#ArialUnicodeMS-28" transform="translate(222.216797 0.203125)"/>
      <use xlink:href="#ArialUnicodeMS-56" transform="translate(255.517578 0.203125)"/>
      <use xlink:href="#ArialUnicodeMS-6f" transform="translate(322.216797 0.203125)"/>
      <use xlink:href="#ArialUnicodeMS-6c" transform="translate(377.832031 0.203125)"/>
      <use xlink:href="#ArialUnicodeMS-61" transform="translate(400.048828 0.203125)"/>
      <use xlink:href="#ArialUnicodeMS-74" transform="translate(455.664062 0.203125)"/>
      <use xlink:href="#ArialUnicodeMS-69" transform="translate(483.447266 0.203125)"/>
      <use xlink:href="#ArialUnicodeMS-6c" transform="translate(505.664062 0.203125)"/>
      <use xlink:href="#ArialUnicodeMS-69" transform="translate(527.880859 0.203125)"/>
      <use xlink:href="#ArialUnicodeMS-74" transform="translate(550.097656 0.203125)"/>
      <use xlink:href="#ArialUnicodeMS-79" transform="translate(577.880859 0.203125)"/>
      <use xlink:href="#ArialUnicodeMS-20" transform="translate(627.880859 0.203125)"/>
      <use xlink:href="#DejaVuSans-Oblique-3c3" transform="translate(655.664062 0.203125)"/>
      <use xlink:href="#ArialUnicodeMS-29" transform="translate(719.042969 0.203125)"/>
     </g>
    </g>
   </g>
   <g id="matplotlib.axis_2">
    <g id="ytick_1">
     <g id="line2d_15">
      <path d="M 54.65 226.73185 
L 421.2 226.73185 
" clip-path="url(#p14c20c6bce)" style="fill: none; stroke-dasharray: 2.96,1.28; stroke-dashoffset: 0; stroke: #b0b0b0; stroke-opacity: 0.3; stroke-width: 0.8"/>
     </g>
     <g id="line2d_16">
      <defs>
       <path id="m99db67490d" d="M 0 0 
L -3.5 0 
" style="stroke: #000000; stroke-width: 0.8"/>
      </defs>
      <g>
       <use xlink:href="#m99db67490d" x="54.65" y="226.73185" style="stroke: #000000; stroke-width: 0.8"/>
      </g>
     </g>
     <g id="text_9">
      <!-- 0.10 -->
      <g transform="translate(28.189063 230.310756) scale(0.1 -0.1)">
       <use xlink:href="#ArialUnicodeMS-30"/>
       <use xlink:href="#ArialUnicodeMS-2e" x="55.615234"/>
       <use xlink:href="#ArialUnicodeMS-31" x="83.398438"/>
       <use xlink:href="#ArialUnicodeMS-30" x="139.013672"/>
      </g>
     </g>
    </g>
    <g id="ytick_2">
     <g id="line2d_17">
      <path d="M 54.65 191.369945 
L 421.2 191.369945 
" clip-path="url(#p14c20c6bce)" style="fill: none; stroke-dasharray: 2.96,1.28; stroke-dashoffset: 0; stroke: #b0b0b0; stroke-opacity: 0.3; stroke-width: 0.8"/>
     </g>
     <g id="line2d_18">
      <g>
       <use xlink:href="#m99db67490d" x="54.65" y="191.369945" style="stroke: #000000; stroke-width: 0.8"/>
      </g>
     </g>
     <g id="text_10">
      <!-- 0.15 -->
      <g transform="translate(28.189063 194.948851) scale(0.1 -0.1)">
       <use xlink:href="#ArialUnicodeMS-30"/>
       <use xlink:href="#ArialUnicodeMS-2e" x="55.615234"/>
       <use xlink:href="#ArialUnicodeMS-31" x="83.398438"/>
       <use xlink:href="#ArialUnicodeMS-35" x="139.013672"/>
      </g>
     </g>
    </g>
    <g id="ytick_3">
     <g id="line2d_19">
      <path d="M 54.65 156.00804 
L 421.2 156.00804 
" clip-path="url(#p14c20c6bce)" style="fill: none; stroke-dasharray: 2.96,1.28; stroke-dashoffset: 0; stroke: #b0b0b0; stroke-opacity: 0.3; stroke-width: 0.8"/>
     </g>
     <g id="line2d_20">
      <g>
       <use xlink:href="#m99db67490d" x="54.65" y="156.00804" style="stroke: #000000; stroke-width: 0.8"/>
      </g>
     </g>
     <g id="text_11">
      <!-- 0.20 -->
      <g transform="translate(28.189063 159.586946) scale(0.1 -0.1)">
       <use xlink:href="#ArialUnicodeMS-30"/>
       <use xlink:href="#ArialUnicodeMS-2e" x="55.615234"/>
       <use xlink:href="#ArialUnicodeMS-32" x="83.398438"/>
       <use xlink:href="#ArialUnicodeMS-30" x="139.013672"/>
      </g>
     </g>
    </g>
    <g id="ytick_4">
     <g id="line2d_21">
      <path d="M 54.65 120.646135 
L 421.2 120.646135 
" clip-path="url(#p14c20c6bce)" style="fill: none; stroke-dasharray: 2.96,1.28; stroke-dashoffset: 0; stroke: #b0b0b0; stroke-opacity: 0.3; stroke-width: 0.8"/>
     </g>
     <g id="line2d_22">
      <g>
       <use xlink:href="#m99db67490d" x="54.65" y="120.646135" style="stroke: #000000; stroke-width: 0.8"/>
      </g>
     </g>
     <g id="text_12">
      <!-- 0.25 -->
      <g transform="translate(28.189063 124.225041) scale(0.1 -0.1)">
       <use xlink:href="#ArialUnicodeMS-30"/>
       <use xlink:href="#ArialUnicodeMS-2e" x="55.615234"/>
       <use xlink:href="#ArialUnicodeMS-32" x="83.398438"/>
       <use xlink:href="#ArialUnicodeMS-35" x="139.013672"/>
      </g>
     </g>
    </g>
    <g id="ytick_5">
     <g id="line2d_23">
      <path d="M 54.65 85.28423 
L 421.2 85.28423 
" clip-path="url(#p14c20c6bce)" style="fill: none; stroke-dasharray: 2.96,1.28; stroke-dashoffset: 0; stroke: #b0b0b0; stroke-opacity: 0.3; stroke-width: 0.8"/>
     </g>
     <g id="line2d_24">
      <g>
       <use xlink:href="#m99db67490d" x="54.65" y="85.28423" style="stroke: #000000; stroke-width: 0.8"/>
      </g>
     </g>
     <g id="text_13">
      <!-- 0.30 -->
      <g transform="translate(28.189063 88.863136) scale(0.1 -0.1)">
       <use xlink:href="#ArialUnicodeMS-30"/>
       <use xlink:href="#ArialUnicodeMS-2e" x="55.615234"/>
       <use xlink:href="#ArialUnicodeMS-33" x="83.398438"/>
       <use xlink:href="#ArialUnicodeMS-30" x="139.013672"/>
      </g>
     </g>
    </g>
    <g id="ytick_6">
     <g id="line2d_25">
      <path d="M 54.65 49.922325 
L 421.2 49.922325 
" clip-path="url(#p14c20c6bce)" style="fill: none; stroke-dasharray: 2.96,1.28; stroke-dashoffset: 0; stroke: #b0b0b0; stroke-opacity: 0.3; stroke-width: 0.8"/>
     </g>
     <g id="line2d_26">
      <g>
       <use xlink:href="#m99db67490d" x="54.65" y="49.922325" style="stroke: #000000; stroke-width: 0.8"/>
      </g>
     </g>
     <g id="text_14">
      <!-- 0.35 -->
      <g transform="translate(28.189063 53.501231) scale(0.1 -0.1)">
       <use xlink:href="#ArialUnicodeMS-30"/>
       <use xlink:href="#ArialUnicodeMS-2e" x="55.615234"/>
       <use xlink:href="#ArialUnicodeMS-33" x="83.398438"/>
       <use xlink:href="#ArialUnicodeMS-35" x="139.013672"/>
      </g>
     </g>
    </g>
    <g id="ytick_7">
     <g id="line2d_27">
      <path d="M 54.65 14.56042 
L 421.2 14.56042 
" clip-path="url(#p14c20c6bce)" style="fill: none; stroke-dasharray: 2.96,1.28; stroke-dashoffset: 0; stroke: #b0b0b0; stroke-opacity: 0.3; stroke-width: 0.8"/>
     </g>
     <g id="line2d_28">
      <g>
       <use xlink:href="#m99db67490d" x="54.65" y="14.56042" style="stroke: #000000; stroke-width: 0.8"/>
      </g>
     </g>
     <g id="text_15">
      <!-- 0.40 -->
      <g transform="translate(28.189063 18.139326) scale(0.1 -0.1)">
       <use xlink:href="#ArialUnicodeMS-30"/>
       <use xlink:href="#ArialUnicodeMS-2e" x="55.615234"/>
       <use xlink:href="#ArialUnicodeMS-34" x="83.398438"/>
       <use xlink:href="#ArialUnicodeMS-30" x="139.013672"/>
      </g>
     </g>
    </g>
    <g id="text_16">
     <!-- Expected Return ($E[R]$) -->
     <g transform="translate(21.669063 190.337734) rotate(-90) scale(0.12 -0.12)">
      <defs>
       <path id="ArialUnicodeMS-45" d="M 3928 0 
L 506 0 
L 506 4581 
L 3822 4581 
L 3822 4038 
L 1113 4038 
L 1113 2638 
L 3647 2638 
L 3647 2094 
L 1113 2094 
L 1113 544 
L 3928 544 
L 3928 0 
z
" transform="scale(0.015625)"/>
       <path id="ArialUnicodeMS-78" d="M 3156 0 
L 2463 0 
L 1600 1313 
L 728 0 
L 44 0 
L 1259 1728 
L 141 3316 
L 838 3316 
Q 1519 2288 1581 2169 
L 2394 3316 
L 3066 3316 
L 1919 1759 
L 3156 0 
z
" transform="scale(0.015625)"/>
       <path id="ArialUnicodeMS-70" d="M 959 2888 
Q 1275 3391 1906 3391 
Q 2559 3391 2937 2917 
Q 3316 2444 3316 1684 
Q 3316 875 2897 398 
Q 2478 -78 1869 -78 
Q 1334 -78 1013 347 
L 997 347 
L 997 -1275 
L 434 -1275 
L 434 3316 
L 947 3316 
L 947 2888 
L 959 2888 
z
M 1831 384 
Q 2225 384 2483 711 
Q 2741 1038 2741 1684 
Q 2741 2294 2492 2622 
Q 2244 2950 1856 2950 
Q 1456 2950 1198 2584 
Q 941 2219 941 1638 
Q 941 1022 1187 703 
Q 1434 384 1831 384 
z
" transform="scale(0.015625)"/>
       <path id="ArialUnicodeMS-65" d="M 3309 1516 
L 825 1516 
Q 859 966 1139 675 
Q 1419 384 1838 384 
Q 2159 384 2378 554 
Q 2597 725 2713 1069 
L 3291 997 
Q 3150 478 2775 200 
Q 2400 -78 1838 -78 
Q 1091 -78 670 380 
Q 250 838 250 1631 
Q 250 2416 658 2903 
Q 1066 3391 1806 3391 
Q 2169 3391 2505 3231 
Q 2841 3072 3075 2689 
Q 3309 2306 3309 1516 
z
M 2731 1978 
Q 2697 2484 2417 2707 
Q 2138 2931 1806 2931 
Q 1409 2931 1153 2665 
Q 897 2400 856 1978 
L 2731 1978 
z
" transform="scale(0.015625)"/>
       <path id="ArialUnicodeMS-63" d="M 3144 1147 
Q 3034 513 2643 217 
Q 2253 -78 1759 -78 
Q 1038 -78 644 395 
Q 250 869 250 1650 
Q 250 2297 476 2686 
Q 703 3075 1043 3233 
Q 1384 3391 1759 3391 
Q 2272 3391 2636 3125 
Q 3000 2859 3084 2344 
L 2541 2259 
Q 2456 2594 2267 2762 
Q 2078 2931 1784 2931 
Q 1313 2931 1069 2597 
Q 825 2263 825 1663 
Q 825 1050 1064 717 
Q 1303 384 1753 384 
Q 2116 384 2323 592 
Q 2531 800 2584 1216 
L 3144 1147 
z
" transform="scale(0.015625)"/>
       <path id="ArialUnicodeMS-64" d="M 3109 0 
L 2584 0 
L 2584 422 
L 2572 422 
Q 2269 -78 1656 -78 
Q 1047 -78 639 405 
Q 231 888 231 1656 
Q 231 2459 615 2925 
Q 1000 3391 1631 3391 
Q 2225 3391 2534 2938 
L 2547 2938 
L 2547 4581 
L 3109 4581 
L 3109 0 
z
M 1716 384 
Q 2084 384 2340 687 
Q 2597 991 2597 1606 
Q 2597 2213 2362 2572 
Q 2128 2931 1691 2931 
Q 1253 2931 1029 2579 
Q 806 2228 806 1656 
Q 806 1244 926 958 
Q 1047 672 1262 528 
Q 1478 384 1716 384 
z
" transform="scale(0.015625)"/>
       <path id="ArialUnicodeMS-75" d="M 3116 0 
L 2613 0 
L 2613 488 
L 2597 488 
Q 2216 -78 1556 -78 
Q 1209 -78 914 83 
Q 619 244 520 526 
Q 422 809 422 1259 
L 422 3316 
L 984 3316 
L 984 1478 
Q 984 1038 1026 847 
Q 1069 656 1247 532 
Q 1425 409 1672 409 
Q 1991 409 2272 629 
Q 2553 850 2553 1544 
L 2553 3316 
L 3116 3316 
L 3116 0 
z
" transform="scale(0.015625)"/>
       <path id="ArialUnicodeMS-72" d="M 2216 3213 
L 2022 2694 
Q 1813 2816 1613 2816 
Q 1297 2816 1134 2533 
Q 972 2250 972 1741 
L 972 0 
L 409 0 
L 409 3316 
L 922 3316 
L 922 2816 
L 934 2816 
Q 1203 3391 1638 3391 
Q 1925 3391 2216 3213 
z
" transform="scale(0.015625)"/>
       <path id="ArialUnicodeMS-6e" d="M 3138 0 
L 2572 0 
L 2572 2016 
Q 2572 2525 2389 2715 
Q 2206 2906 1881 2906 
Q 1631 2906 1407 2784 
Q 1184 2663 1090 2441 
Q 997 2219 997 1813 
L 997 0 
L 434 0 
L 434 3316 
L 941 3316 
L 941 2847 
L 953 2847 
Q 1131 3119 1392 3255 
Q 1653 3391 1997 3391 
Q 2259 3391 2515 3297 
Q 2772 3203 2917 3015 
Q 3063 2828 3100 2615 
Q 3138 2403 3138 2041 
L 3138 0 
z
" transform="scale(0.015625)"/>
       <path id="DejaVuSans-Oblique-45" d="M 1081 4666 
L 4031 4666 
L 3928 4134 
L 1606 4134 
L 1338 2753 
L 3566 2753 
L 3463 2222 
L 1234 2222 
L 909 531 
L 3284 531 
L 3181 0 
L 172 0 
L 1081 4666 
z
" transform="scale(0.015625)"/>
       <path id="DejaVuSans-5b" d="M 550 4863 
L 1875 4863 
L 1875 4416 
L 1125 4416 
L 1125 -397 
L 1875 -397 
L 1875 -844 
L 550 -844 
L 550 4863 
z
" transform="scale(0.015625)"/>
       <path id="DejaVuSans-Oblique-52" d="M 1613 4147 
L 1294 2491 
L 2106 2491 
Q 2584 2491 2879 2755 
Q 3175 3019 3175 3444 
Q 3175 3784 2976 3965 
Q 2778 4147 2406 4147 
L 1613 4147 
z
M 2772 2241 
Q 2972 2194 3105 2009 
Q 3238 1825 3413 1275 
L 3809 0 
L 3144 0 
L 2778 1197 
Q 2638 1659 2453 1815 
Q 2269 1972 1888 1972 
L 1191 1972 
L 806 0 
L 172 0 
L 1081 4666 
L 2503 4666 
Q 3150 4666 3495 4373 
Q 3841 4081 3841 3531 
Q 3841 3044 3547 2687 
Q 3253 2331 2772 2241 
z
" transform="scale(0.015625)"/>
       <path id="DejaVuSans-5d" d="M 1947 4863 
L 1947 -844 
L 622 -844 
L 622 -397 
L 1369 -397 
L 1369 4416 
L 622 4416 
L 622 4863 
L 1947 4863 
z
" transform="scale(0.015625)"/>
      </defs>
      <use xlink:href="#ArialUnicodeMS-45" transform="translate(0 0.015625)"/>
      <use xlink:href="#ArialUnicodeMS-78" transform="translate(66.699219 0.015625)"/>
      <use xlink:href="#ArialUnicodeMS-70" transform="translate(116.699219 0.015625)"/>
      <use xlink:href="#ArialUnicodeMS-65" transform="translate(172.314453 0.015625)"/>
      <use xlink:href="#ArialUnicodeMS-63" transform="translate(227.929688 0.015625)"/>
      <use xlink:href="#ArialUnicodeMS-74" transform="translate(277.929688 0.015625)"/>
      <use xlink:href="#ArialUnicodeMS-65" transform="translate(305.712891 0.015625)"/>
      <use xlink:href="#ArialUnicodeMS-64" transform="translate(361.328125 0.015625)"/>
      <use xlink:href="#ArialUnicodeMS-20" transform="translate(416.943359 0.015625)"/>
      <use xlink:href="#ArialUnicodeMS-52" transform="translate(444.726562 0.015625)"/>
      <use xlink:href="#ArialUnicodeMS-65" transform="translate(516.943359 0.015625)"/>
      <use xlink:href="#ArialUnicodeMS-74" transform="translate(572.558594 0.015625)"/>
      <use xlink:href="#ArialUnicodeMS-75" transform="translate(600.341797 0.015625)"/>
      <use xlink:href="#ArialUnicodeMS-72" transform="translate(655.957031 0.015625)"/>
      <use xlink:href="#ArialUnicodeMS-6e" transform="translate(689.257812 0.015625)"/>
      <use xlink:href="#ArialUnicodeMS-20" transform="translate(744.873047 0.015625)"/>
      <use xlink:href="#ArialUnicodeMS-28" transform="translate(772.65625 0.015625)"/>
      <use xlink:href="#DejaVuSans-Oblique-45" transform="translate(805.957031 0.015625)"/>
      <use xlink:href="#DejaVuSans-5b" transform="translate(869.140625 0.015625)"/>
      <use xlink:href="#DejaVuSans-Oblique-52" transform="translate(905.029297 0.015625)"/>
      <use xlink:href="#DejaVuSans-5d" transform="translate(974.511719 0.015625)"/>
      <use xlink:href="#ArialUnicodeMS-29" transform="translate(1013.525391 0.015625)"/>
     </g>
    </g>
   </g>
   <g id="line2d_29">
    <path d="M 71.311364 233.301612 
L 74.677296 229.646597 
L 78.043228 226.225122 
L 81.40916 222.99743 
L 84.775092 219.933907 
L 88.141024 217.011791 
L 91.506956 214.21314 
L 94.872888 211.523512 
L 98.23882 208.93108 
L 101.604752 206.426011 
L 104.970684 204.000025 
L 108.336616 201.646076 
L 111.702548 199.358104 
L 115.06848 197.130852 
L 118.434412 194.95973 
L 121.800344 192.840696 
L 125.166276 190.770172 
L 128.532208 188.744971 
L 131.89814 186.762241 
L 135.264073 184.819417 
L 138.630005 182.914183 
L 141.995937 181.044438 
L 145.361869 179.208268 
L 148.727801 177.403929 
L 152.093733 175.629819 
L 155.459665 173.88447 
L 158.825597 172.166524 
L 162.191529 170.474732 
L 165.557461 168.807933 
L 168.923393 167.165052 
L 172.289325 165.545087 
L 175.655257 163.947106 
L 179.021189 162.370238 
L 182.387121 160.813666 
L 185.753053 159.276627 
L 189.118985 157.758403 
L 192.484917 156.25832 
L 195.850849 154.775742 
L 199.216781 153.310072 
L 202.582713 151.860742 
L 205.948646 150.42722 
L 209.314578 149.008997 
L 212.68051 147.605595 
L 216.046442 146.216559 
L 219.412374 144.841456 
L 222.778306 143.479875 
L 226.144238 142.131425 
L 229.51017 140.795734 
L 232.876102 139.472445 
L 236.242034 138.161219 
L 239.607966 136.861733 
L 242.973898 135.573677 
L 246.33983 134.296754 
L 249.705762 133.030681 
L 253.071694 131.775186 
L 256.437626 130.530007 
L 259.803558 129.294895 
L 263.16949 128.069609 
L 266.535422 126.853918 
L 269.901354 125.647601 
L 273.267287 124.450445 
L 276.633219 123.262242 
L 279.999151 122.082796 
L 283.365083 120.911916 
L 286.731015 119.749417 
L 290.096947 118.595123 
L 293.462879 117.448861 
L 296.828811 116.310468 
L 300.194743 115.179782 
L 303.560675 114.056649 
L 306.926607 112.94092 
L 310.292539 111.83245 
L 313.658471 110.7311 
L 317.024403 109.636734 
L 320.390335 108.549221 
L 323.756267 107.468433 
L 327.122199 106.394248 
L 330.488131 105.326546 
L 333.854063 104.265211 
L 337.219995 103.21013 
L 340.585927 102.161194 
L 343.95186 101.118297 
L 347.317792 100.081336 
L 350.683724 99.05021 
L 354.049656 98.024823 
L 357.415588 97.005079 
L 360.78152 95.990886 
L 364.147452 94.982155 
L 367.513384 93.978798 
L 370.879316 92.980731 
L 374.245248 91.98787 
L 377.61118 91.000135 
L 380.977112 90.017447 
L 384.343044 89.03973 
L 387.708976 88.066908 
L 391.074908 87.09891 
L 394.44084 86.135665 
L 397.806772 85.177102 
L 401.172704 84.223154 
L 404.538636 83.273755 
" clip-path="url(#p14c20c6bce)" style="fill: none; stroke-dasharray: 5.55,2.4; stroke-dashoffset: 0; stroke: #7f8c8d; stroke-width: 1.5"/>
   </g>
   <g id="line2d_30">
    <path d="M 71.311364 184.297564 
L 74.677296 181.141528 
L 78.043228 178.094797 
L 81.40916 175.146744 
L 84.775092 172.288362 
L 88.141024 169.511932 
L 91.506956 166.810787 
L 94.872888 164.179115 
L 98.23882 161.611816 
L 101.604752 159.104385 
L 104.970684 156.652821 
L 108.336616 154.253546 
L 111.702548 151.903352 
L 115.06848 149.599345 
L 118.434412 147.338903 
L 121.800344 145.119645 
L 125.166276 142.939399 
L 128.532208 140.796178 
L 131.89814 138.688155 
L 135.264073 136.613654 
L 138.630005 134.571122 
L 141.995937 132.559127 
L 145.361869 130.576338 
L 148.727801 128.62152 
L 152.093733 126.69352 
L 155.459665 124.791265 
L 158.825597 122.913749 
L 162.191529 121.060033 
L 165.557461 119.229233 
L 168.923393 117.420519 
L 172.289325 115.633112 
L 175.655257 113.866276 
L 179.021189 112.119316 
L 182.387121 110.391576 
L 185.753053 108.682436 
L 189.118985 106.991307 
L 192.484917 105.317632 
L 195.850849 103.660881 
L 199.216781 102.020551 
L 202.582713 100.396163 
L 205.948646 98.787261 
L 209.314578 97.193411 
L 212.68051 95.614198 
L 216.046442 94.049225 
L 219.412374 92.498115 
L 222.778306 90.960506 
L 226.144238 89.43605 
L 229.51017 87.924416 
L 232.876102 86.425286 
L 236.242034 84.938355 
L 239.607966 83.463329 
L 242.973898 81.999927 
L 246.33983 80.547879 
L 249.705762 79.106924 
L 253.071694 77.676812 
L 256.437626 76.257302 
L 259.803558 74.848161 
L 263.16949 73.449165 
L 266.535422 72.060099 
L 269.901354 70.680754 
L 273.267287 69.310928 
L 276.633219 67.950428 
L 279.999151 66.599065 
L 283.365083 65.256657 
L 286.731015 63.92303 
L 290.096947 62.598012 
L 293.462879 61.281439 
L 296.828811 59.973153 
L 300.194743 58.672997 
L 303.560675 57.380824 
L 306.926607 56.096486 
L 310.292539 54.819844 
L 313.658471 53.550761 
L 317.024403 52.289104 
L 320.390335 51.034744 
L 323.756267 49.787556 
L 327.122199 48.547418 
L 330.488131 47.314213 
L 333.854063 46.087825 
L 337.219995 44.868142 
L 340.585927 43.655056 
L 343.95186 42.44846 
L 347.317792 41.248253 
L 350.683724 40.054332 
L 354.049656 38.866601 
L 357.415588 37.684964 
L 360.78152 36.509328 
L 364.147452 35.339603 
L 367.513384 34.175701 
L 370.879316 33.017535 
L 374.245248 31.865022 
L 377.61118 30.718079 
L 380.977112 29.576626 
L 384.343044 28.440586 
L 387.708976 27.309882 
L 391.074908 26.18444 
L 394.44084 25.064186 
L 397.806772 23.949051 
L 401.172704 22.838963 
L 404.538636 21.733856 
" clip-path="url(#p14c20c6bce)" style="fill: none; stroke: #e74c3c; stroke-width: 2; stroke-linecap: square"/>
   </g>
   <g id="patch_3">
    <path d="M 54.65 243.88 
L 54.65 11.155468 
" style="fill: none; stroke: #000000; stroke-width: 0.8; stroke-linejoin: miter; stroke-linecap: square"/>
   </g>
   <g id="patch_4">
    <path d="M 54.65 243.88 
L 421.2 243.88 
" style="fill: none; stroke: #000000; stroke-width: 0.8; stroke-linejoin: miter; stroke-linecap: square"/>
   </g>
   <g id="legend_1">
    <g id="line2d_31">
     <path d="M 63.65 23.81328 
L 73.65 23.81328 
L 83.65 23.81328 
" style="fill: none; stroke-dasharray: 5.55,2.4; stroke-dashoffset: 0; stroke: #7f8c8d; stroke-width: 1.5"/>
    </g>
    <g id="text_17">
     <!-- Traditional Portfolio -->
     <g transform="translate(91.65 27.31328) scale(0.1 -0.1)">
      <defs>
       <path id="ArialUnicodeMS-54" d="M 3769 4038 
L 2253 4038 
L 2253 0 
L 1644 0 
L 1644 4038 
L 141 4038 
L 141 4581 
L 3769 4581 
L 3769 4038 
z
" transform="scale(0.015625)"/>
       <path id="ArialUnicodeMS-50" d="M 494 4581 
L 2222 4581 
Q 2631 4581 2926 4540 
Q 3222 4500 3475 4329 
Q 3728 4159 3858 3867 
Q 3988 3575 3988 3256 
Q 3988 2622 3580 2239 
Q 3172 1856 2272 1856 
L 1100 1856 
L 1100 0 
L 494 0 
L 494 4581 
z
M 1100 2400 
L 2278 2400 
Q 3359 2400 3359 3238 
Q 3359 3513 3218 3723 
Q 3078 3934 2873 3986 
Q 2669 4038 2266 4038 
L 1100 4038 
L 1100 2400 
z
" transform="scale(0.015625)"/>
       <path id="ArialUnicodeMS-66" d="M 1991 4603 
L 1906 4109 
Q 1738 4141 1575 4141 
Q 1372 4141 1242 4055 
Q 1113 3969 1113 3628 
L 1113 3316 
L 1753 3316 
L 1753 2881 
L 1113 2881 
L 1113 0 
L 550 0 
L 550 2881 
L 50 2881 
L 50 3316 
L 550 3316 
L 550 3675 
Q 550 3925 597 4128 
Q 644 4331 845 4495 
Q 1047 4659 1466 4659 
Q 1716 4659 1991 4603 
z
" transform="scale(0.015625)"/>
      </defs>
      <use xlink:href="#ArialUnicodeMS-54"/>
      <use xlink:href="#ArialUnicodeMS-72" x="61.083984"/>
      <use xlink:href="#ArialUnicodeMS-61" x="94.384766"/>
      <use xlink:href="#ArialUnicodeMS-64" x="150"/>
      <use xlink:href="#ArialUnicodeMS-69" x="205.615234"/>
      <use xlink:href="#ArialUnicodeMS-74" x="227.832031"/>
      <use xlink:href="#ArialUnicodeMS-69" x="255.615234"/>
      <use xlink:href="#ArialUnicodeMS-6f" x="277.832031"/>
      <use xlink:href="#ArialUnicodeMS-6e" x="333.447266"/>
      <use xlink:href="#ArialUnicodeMS-61" x="389.0625"/>
      <use xlink:href="#ArialUnicodeMS-6c" x="444.677734"/>
      <use xlink:href="#ArialUnicodeMS-20" x="466.894531"/>
      <use xlink:href="#ArialUnicodeMS-50" x="494.677734"/>
      <use xlink:href="#ArialUnicodeMS-6f" x="561.376953"/>
      <use xlink:href="#ArialUnicodeMS-72" x="616.992188"/>
      <use xlink:href="#ArialUnicodeMS-74" x="650.292969"/>
      <use xlink:href="#ArialUnicodeMS-66" x="678.076172"/>
      <use xlink:href="#ArialUnicodeMS-6f" x="705.859375"/>
      <use xlink:href="#ArialUnicodeMS-6c" x="761.474609"/>
      <use xlink:href="#ArialUnicodeMS-69" x="783.691406"/>
      <use xlink:href="#ArialUnicodeMS-6f" x="805.908203"/>
     </g>
    </g>
    <g id="line2d_32">
     <path d="M 63.65 37.96328 
L 73.65 37.96328 
L 83.65 37.96328 
" style="fill: none; stroke: #e74c3c; stroke-width: 2; stroke-linecap: square"/>
    </g>
    <g id="text_18">
     <!-- Portfolio with Art RWA -->
     <g transform="translate(91.65 41.46328) scale(0.1 -0.1)">
      <defs>
       <path id="ArialUnicodeMS-77" d="M 4588 3316 
L 3547 0 
L 2963 0 
L 2438 1991 
Q 2434 1991 2371 2259 
Q 2309 2528 2309 2553 
L 2297 2553 
L 1638 0 
L 1050 0 
L 31 3316 
L 616 3316 
L 1338 691 
L 1450 1138 
L 2041 3316 
L 2619 3316 
L 3066 1578 
Q 3253 859 3272 763 
L 3284 763 
L 4038 3316 
L 4588 3316 
z
" transform="scale(0.015625)"/>
       <path id="ArialUnicodeMS-68" d="M 3138 0 
L 2572 0 
L 2572 2094 
Q 2572 2500 2397 2703 
Q 2222 2906 1875 2906 
Q 1531 2906 1261 2667 
Q 991 2428 991 1813 
L 991 0 
L 428 0 
L 428 4581 
L 991 4581 
L 991 2938 
Q 1391 3391 1991 3391 
Q 2313 3391 2606 3259 
Q 2900 3128 3019 2856 
Q 3138 2584 3138 2100 
L 3138 0 
z
" transform="scale(0.015625)"/>
       <path id="ArialUnicodeMS-41" d="M 4275 0 
L 3591 0 
L 3053 1394 
L 1141 1394 
L 634 0 
L -6 0 
L 1753 4581 
L 2406 4581 
L 4275 0 
z
M 2869 1875 
Q 2306 3363 2234 3564 
Q 2163 3766 2075 4103 
L 2059 4103 
Q 1972 3641 1825 3247 
L 1313 1875 
L 2869 1875 
z
" transform="scale(0.015625)"/>
       <path id="ArialUnicodeMS-57" d="M 5972 4581 
L 4709 0 
L 4128 0 
L 3128 3609 
Q 3050 3888 3028 4031 
L 3016 4031 
L 2888 3488 
L 1913 0 
L 1300 0 
L 78 4581 
L 697 4581 
L 1403 1575 
Q 1544 984 1581 706 
Q 1588 650 1588 641 
L 1600 641 
Q 1725 1234 1797 1491 
L 2669 4581 
L 3406 4581 
L 4056 2266 
Q 4300 1403 4409 641 
L 4422 641 
Q 4488 1013 4641 1638 
L 5363 4581 
L 5972 4581 
z
" transform="scale(0.015625)"/>
      </defs>
      <use xlink:href="#ArialUnicodeMS-50"/>
      <use xlink:href="#ArialUnicodeMS-6f" x="66.699219"/>
      <use xlink:href="#ArialUnicodeMS-72" x="122.314453"/>
      <use xlink:href="#ArialUnicodeMS-74" x="155.615234"/>
      <use xlink:href="#ArialUnicodeMS-66" x="183.398438"/>
      <use xlink:href="#ArialUnicodeMS-6f" x="211.181641"/>
      <use xlink:href="#ArialUnicodeMS-6c" x="266.796875"/>
      <use xlink:href="#ArialUnicodeMS-69" x="289.013672"/>
      <use xlink:href="#ArialUnicodeMS-6f" x="311.230469"/>
      <use xlink:href="#ArialUnicodeMS-20" x="366.845703"/>
      <use xlink:href="#ArialUnicodeMS-77" x="394.628906"/>
      <use xlink:href="#ArialUnicodeMS-69" x="466.845703"/>
      <use xlink:href="#ArialUnicodeMS-74" x="489.0625"/>
      <use xlink:href="#ArialUnicodeMS-68" x="516.845703"/>
      <use xlink:href="#ArialUnicodeMS-20" x="572.460938"/>
      <use xlink:href="#ArialUnicodeMS-41" x="600.244141"/>
      <use xlink:href="#ArialUnicodeMS-72" x="666.943359"/>
      <use xlink:href="#ArialUnicodeMS-74" x="700.244141"/>
      <use xlink:href="#ArialUnicodeMS-20" x="728.027344"/>
      <use xlink:href="#ArialUnicodeMS-52" x="755.810547"/>
      <use xlink:href="#ArialUnicodeMS-57" x="828.027344"/>
      <use xlink:href="#ArialUnicodeMS-41" x="922.412109"/>
     </g>
    </g>
   </g>
  </g>
 </g>
 <defs>
  <clipPath id="p14c20c6bce">
   <rect x="54.65" y="11.155468" width="366.55" height="232.724532"/>
  </clipPath>
 </defs>
</svg>
