<?xml version="1.0" encoding="utf-8" standalone="no"?>
<!DOCTYPE svg PUBLIC "-//W3C//DTD SVG 1.1//EN"
  "http://www.w3.org/Graphics/SVG/1.1/DTD/svg11.dtd">
<svg xmlns:xlink="http://www.w3.org/1999/xlink" width="576pt" height="360pt" viewBox="0 0 576 360" xmlns="http://www.w3.org/2000/svg" version="1.1">
 <metadata>
  <rdf:RDF xmlns:dc="http://purl.org/dc/elements/1.1/" xmlns:cc="http://creativecommons.org/ns#" xmlns:rdf="http://www.w3.org/1999/02/22-rdf-syntax-ns#">
   <cc:Work>
    <dc:type rdf:resource="http://purl.org/dc/dcmitype/StillImage"/>
    <dc:date>2026-04-28T11:47:11.377193</dc:date>
    <dc:format>image/svg+xml</dc:format>
    <dc:creator>
     <cc:Agent>
      <dc:title>Matplotlib v3.9.4, https://matplotlib.org/</dc:title>
     </cc:Agent>
    </dc:creator>
   </cc:Work>
  </rdf:RDF>
 </metadata>
 <defs>
  <style type="text/css">*{stroke-linejoin: round; stroke-linecap: butt}</style>
 </defs>
 <g id="figure_1">
  <g id="patch_1">
   <path d="M 0 360 
L 576 360 
L 576 0 
L 0 0 
L 0 360 
z
" style="fill: none"/>
  </g>
  <g id="axes_1">
   <g id="patch_2">
    <path d="M 51.644375 310.3075 
L 565.2 310.3075 
L 565.2 36.886875 
L 51.644375 36.886875 
L 51.644375 310.3075 
z
" style="fill: none"/>
   </g>
   <g id="PolyCollection_1">
    <defs>
     <path id="mf2bc9b6f8a" d="M 74.987813 -49.6925 
L 74.987813 -49.6925 
L 126.862118 -62.452129 
L 178.736424 -79.768769 
L 230.610729 -99.819615 
L 282.485035 -122.604667 
L 334.35934 -147.212523 
L 386.233646 -173.643183 
L 438.107951 -200.985246 
L 489.982257 -230.150113 
L 541.856562 -259.314979 
L 541.856562 -49.6925 
L 541.856562 -49.6925 
L 489.982257 -49.6925 
L 438.107951 -49.6925 
L 386.233646 -49.6925 
L 334.35934 -49.6925 
L 282.485035 -49.6925 
L 230.610729 -49.6925 
L 178.736424 -49.6925 
L 126.862118 -49.6925 
L 74.987813 -49.6925 
z
" style="stroke: #f59e0b; stroke-opacity: 0.1"/>
    </defs>
    <g clip-path="url(#p2f11040cda)">
     <use xlink:href="#mf2bc9b6f8a" x="0" y="360" style="fill: #f59e0b; fill-opacity: 0.1; stroke: #f59e0b; stroke-opacity: 0.1"/>
    </g>
   </g>
   <g id="matplotlib.axis_1">
    <g id="xtick_1">
     <g id="line2d_1">
      <path d="M 126.862118 310.3075 
L 126.862118 36.886875 
" clip-path="url(#p2f11040cda)" style="fill: none; stroke-dasharray: 2.96,1.28; stroke-dashoffset: 0; stroke: #eeeeee; stroke-opacity: 0.5; stroke-width: 0.8"/>
     </g>
     <g id="line2d_2">
      <defs>
       <path id="m3bb955f9ce" d="M 0 0 
L 0 3.5 
" style="stroke: #666666; stroke-width: 0.8"/>
      </defs>
      <g>
       <use xlink:href="#m3bb955f9ce" x="126.862118" y="310.3075" style="fill: #666666; stroke: #666666; stroke-width: 0.8"/>
      </g>
     </g>
     <g id="text_1">
      <!-- 2 -->
      <g style="fill: #666666" transform="translate(124.081649 324.465312) scale(0.1 -0.1)">
       <defs>
        <path id="ArialUnicodeMS-32" d="M 3231 0 
L 197 0 
Q 197 388 467 784 
Q 738 1181 1478 1778 
Q 1931 2141 2287 2539 
Q 2644 2938 2644 3341 
Q 2644 3688 2398 3914 
Q 2153 4141 1778 4141 
Q 1400 4141 1144 3908 
Q 888 3675 884 3213 
L 306 3278 
Q 359 3922 764 4262 
Q 1169 4603 1791 4603 
Q 2466 4603 2842 4229 
Q 3219 3856 3219 3328 
Q 3219 2888 2901 2436 
Q 2584 1984 1638 1228 
Q 1141 831 978 544 
L 3231 544 
L 3231 0 
z
" transform="scale(0.015625)"/>
       </defs>
       <use xlink:href="#ArialUnicodeMS-32"/>
      </g>
     </g>
    </g>
    <g id="xtick_2">
     <g id="line2d_3">
      <path d="M 230.610729 310.3075 
L 230.610729 36.886875 
" clip-path="url(#p2f11040cda)" style="fill: none; stroke-dasharray: 2.96,1.28; stroke-dashoffset: 0; stroke: #eeeeee; stroke-opacity: 0.5; stroke-width: 0.8"/>
     </g>
     <g id="line2d_4">
      <g>
       <use xlink:href="#m3bb955f9ce" x="230.610729" y="310.3075" style="fill: #666666; stroke: #666666; stroke-width: 0.8"/>
      </g>
     </g>
     <g id="text_2">
      <!-- 4 -->
      <g style="fill: #666666" transform="translate(227.83026 324.465312) scale(0.1 -0.1)">
       <defs>
        <path id="ArialUnicodeMS-34" d="M 3263 1094 
L 2644 1094 
L 2644 0 
L 2081 0 
L 2081 1094 
L 97 1094 
L 97 1613 
L 2181 4581 
L 2644 4581 
L 2644 1613 
L 3263 1613 
L 3263 1094 
z
M 2081 1613 
L 2081 3681 
L 2069 3681 
L 647 1613 
L 2081 1613 
z
" transform="scale(0.015625)"/>
       </defs>
       <use xlink:href="#ArialUnicodeMS-34"/>
      </g>
     </g>
    </g>
    <g id="xtick_3">
     <g id="line2d_5">
      <path d="M 334.35934 310.3075 
L 334.35934 36.886875 
" clip-path="url(#p2f11040cda)" style="fill: none; stroke-dasharray: 2.96,1.28; stroke-dashoffset: 0; stroke: #eeeeee; stroke-opacity: 0.5; stroke-width: 0.8"/>
     </g>
     <g id="line2d_6">
      <g>
       <use xlink:href="#m3bb955f9ce" x="334.35934" y="310.3075" style="fill: #666666; stroke: #666666; stroke-width: 0.8"/>
      </g>
     </g>
     <g id="text_3">
      <!-- 6 -->
      <g style="fill: #666666" transform="translate(331.578872 324.465312) scale(0.1 -0.1)">
       <defs>
        <path id="ArialUnicodeMS-36" d="M 838 2363 
Q 1225 2969 1941 2969 
Q 2503 2969 2897 2553 
Q 3291 2138 3291 1491 
Q 3291 838 2898 380 
Q 2506 -78 1856 -78 
Q 1197 -78 733 409 
Q 269 897 269 2144 
Q 269 3369 689 3986 
Q 1109 4603 1906 4603 
Q 2422 4603 2778 4315 
Q 3134 4028 3213 3463 
L 2650 3413 
Q 2497 4141 1875 4141 
Q 1444 4141 1134 3712 
Q 825 3284 825 2363 
L 838 2363 
z
M 1844 384 
Q 2231 384 2472 696 
Q 2713 1009 2713 1453 
Q 2713 1897 2472 2187 
Q 2231 2478 1825 2478 
Q 1453 2478 1184 2204 
Q 916 1931 916 1484 
Q 916 1028 1180 706 
Q 1444 384 1844 384 
z
" transform="scale(0.015625)"/>
       </defs>
       <use xlink:href="#ArialUnicodeMS-36"/>
      </g>
     </g>
    </g>
    <g id="xtick_4">
     <g id="line2d_7">
      <path d="M 438.107951 310.3075 
L 438.107951 36.886875 
" clip-path="url(#p2f11040cda)" style="fill: none; stroke-dasharray: 2.96,1.28; stroke-dashoffset: 0; stroke: #eeeeee; stroke-opacity: 0.5; stroke-width: 0.8"/>
     </g>
     <g id="line2d_8">
      <g>
       <use xlink:href="#m3bb955f9ce" x="438.107951" y="310.3075" style="fill: #666666; stroke: #666666; stroke-width: 0.8"/>
      </g>
     </g>
     <g id="text_4">
      <!-- 8 -->
      <g style="fill: #666666" transform="translate(435.327483 324.465312) scale(0.1 -0.1)">
       <defs>
        <path id="ArialUnicodeMS-38" d="M 2425 2478 
Q 3284 2203 3284 1306 
Q 3284 716 2862 319 
Q 2441 -78 1778 -78 
Q 1109 -78 689 322 
Q 269 722 269 1325 
Q 269 1759 505 2084 
Q 741 2409 1141 2478 
L 1141 2491 
Q 453 2703 453 3419 
Q 453 3925 815 4264 
Q 1178 4603 1766 4603 
Q 2363 4603 2730 4253 
Q 3097 3903 3097 3406 
Q 3097 2731 2425 2491 
L 2425 2478 
z
M 1778 2700 
Q 2094 2700 2308 2901 
Q 2522 3103 2522 3406 
Q 2522 3716 2305 3928 
Q 2088 4141 1772 4141 
Q 1450 4141 1240 3931 
Q 1031 3722 1031 3438 
Q 1031 3097 1247 2898 
Q 1463 2700 1778 2700 
z
M 1778 384 
Q 2175 384 2440 640 
Q 2706 897 2706 1306 
Q 2706 1716 2432 1978 
Q 2159 2241 1766 2241 
Q 1356 2241 1100 1970 
Q 844 1700 844 1319 
Q 844 922 1108 653 
Q 1372 384 1778 384 
z
" transform="scale(0.015625)"/>
       </defs>
       <use xlink:href="#ArialUnicodeMS-38"/>
      </g>
     </g>
    </g>
    <g id="xtick_5">
     <g id="line2d_9">
      <path d="M 541.856562 310.3075 
L 541.856562 36.886875 
" clip-path="url(#p2f11040cda)" style="fill: none; stroke-dasharray: 2.96,1.28; stroke-dashoffset: 0; stroke: #eeeeee; stroke-opacity: 0.5; stroke-width: 0.8"/>
     </g>
     <g id="line2d_10">
      <g>
       <use xlink:href="#m3bb955f9ce" x="541.856562" y="310.3075" style="fill: #666666; stroke: #666666; stroke-width: 0.8"/>
      </g>
     </g>
     <g id="text_5">
      <!-- 10 -->
      <g style="fill: #666666" transform="translate(536.295625 324.465312) scale(0.1 -0.1)">
       <defs>
        <path id="ArialUnicodeMS-31" d="M 2400 0 
L 1838 0 
L 1838 3584 
Q 1416 3184 709 2906 
L 709 3450 
Q 1681 3916 2034 4603 
L 2400 4603 
L 2400 0 
z
" transform="scale(0.015625)"/>
        <path id="ArialUnicodeMS-30" d="M 1778 4603 
Q 3272 4603 3272 2259 
Q 3272 1075 2886 498 
Q 2500 -78 1778 -78 
Q 288 -78 288 2259 
Q 288 3444 673 4023 
Q 1059 4603 1778 4603 
z
M 1778 384 
Q 2231 384 2462 823 
Q 2694 1263 2694 2259 
Q 2694 2953 2592 3351 
Q 2491 3750 2286 3945 
Q 2081 4141 1772 4141 
Q 1319 4141 1091 3694 
Q 863 3247 863 2259 
Q 863 1575 966 1175 
Q 1069 775 1272 579 
Q 1475 384 1778 384 
z
" transform="scale(0.015625)"/>
       </defs>
       <use xlink:href="#ArialUnicodeMS-31"/>
       <use xlink:href="#ArialUnicodeMS-30" x="55.615234"/>
      </g>
     </g>
    </g>
    <g id="text_6">
     <!-- 持有者/节点数（n） -->
     <g style="fill: #666666" transform="translate(255.41875 346.588125) scale(0.12 -0.12)">
      <defs>
       <path id="ArialUnicodeMS-6301" d="M 6003 2725 
L 2478 2725 
L 2478 3194 
L 3956 3194 
L 3956 3975 
L 2713 3975 
L 2713 4441 
L 3956 4441 
L 3956 5338 
L 4441 5338 
L 4441 4441 
L 5650 4441 
L 5650 3975 
L 4441 3975 
L 4441 3194 
L 6003 3194 
L 6003 2725 
z
M 2547 3597 
L 1772 3597 
L 1772 2413 
L 2509 2713 
L 2509 2194 
L 1772 1919 
L 1772 78 
Q 1772 -409 1247 -409 
L 653 -409 
L 500 63 
L 959 38 
Q 1288 25 1288 225 
L 1288 1766 
Q 909 1594 569 1503 
L 250 1906 
Q 966 2119 1288 2247 
L 1288 3597 
L 409 3597 
L 409 4063 
L 1288 4063 
L 1288 5338 
L 1772 5338 
L 1772 4063 
L 2547 4063 
L 2547 3597 
z
M 6041 1613 
L 5094 1613 
L 5094 63 
Q 5069 -138 4923 -273 
Q 4778 -409 4581 -409 
L 3938 -409 
L 3750 91 
Q 4009 56 4481 56 
Q 4503 56 4556 87 
Q 4609 119 4609 166 
L 4609 1613 
L 2363 1613 
L 2363 2081 
L 4609 2081 
L 4609 2566 
L 5094 2566 
L 5094 2081 
L 6041 2081 
L 6041 1613 
z
M 4050 666 
L 3725 306 
Q 3069 884 2572 1081 
L 2894 1434 
Q 3453 1206 4050 666 
z
" transform="scale(0.015625)"/>
       <path id="ArialUnicodeMS-6709" d="M 5991 4031 
L 2547 4031 
Q 2403 3600 2316 3438 
L 5216 3438 
L 5216 166 
Q 5178 -269 4550 -269 
L 4031 -269 
L 3809 225 
Q 4103 184 4447 184 
Q 4728 184 4728 300 
L 4728 934 
L 2322 934 
L 2322 -416 
L 1813 -416 
L 1813 2656 
Q 1644 2369 738 1434 
L 288 1728 
Q 1619 2903 2022 4031 
L 678 4031 
L 678 4500 
L 2203 4500 
Q 2288 4700 2450 5403 
L 2944 5294 
Q 2884 5041 2731 4500 
L 5991 4500 
L 5991 4031 
z
M 4728 2450 
L 4728 2969 
L 2322 2969 
L 2322 2450 
L 4728 2450 
z
M 4728 1403 
L 4728 1984 
L 2322 1984 
L 2322 1403 
L 4728 1403 
z
" transform="scale(0.015625)"/>
       <path id="ArialUnicodeMS-8005" d="M 5947 2931 
L 3706 2931 
Q 3225 2606 2822 2413 
L 5106 2413 
L 5106 -409 
L 4622 -409 
L 4622 -31 
L 2450 -31 
L 2450 -409 
L 1966 -409 
L 1966 1947 
L 709 1416 
L 397 1838 
Q 1816 2338 2803 2925 
L 744 2925 
L 744 3397 
L 2741 3397 
L 2741 4091 
L 1356 4091 
L 1356 4556 
L 2741 4556 
L 2741 5350 
L 3244 5350 
L 3244 4556 
L 4441 4556 
L 4441 4178 
Q 4838 4628 5131 4991 
L 5556 4722 
Q 4878 3850 4341 3397 
L 5947 3397 
L 5947 2931 
z
M 4347 4091 
L 3244 4091 
L 3238 3397 
L 3566 3397 
Q 3872 3625 4347 4091 
z
M 4622 1447 
L 4622 1953 
L 2450 1953 
L 2450 1447 
L 4622 1447 
z
M 4622 434 
L 4622 978 
L 2450 978 
L 2450 434 
L 4622 434 
z
" transform="scale(0.015625)"/>
       <path id="ArialUnicodeMS-2f" d="M 1778 4581 
L 453 -153 
L 0 -153 
L 1325 4581 
L 1778 4581 
z
" transform="scale(0.015625)"/>
       <path id="ArialUnicodeMS-8282" d="M 5831 4128 
L 4256 4128 
L 4256 3384 
L 3769 3384 
L 3769 4128 
L 2431 4128 
L 2431 3384 
L 1947 3384 
L 1947 4128 
L 391 4128 
L 403 4588 
L 1947 4588 
L 1947 5319 
L 2431 5319 
L 2431 4588 
L 3769 4588 
L 3769 5319 
L 4256 5319 
L 4256 4588 
L 5831 4588 
L 5831 4128 
z
M 5113 3272 
Q 5050 1375 4948 1004 
Q 4847 634 4456 634 
Q 4238 634 3781 703 
L 3647 1234 
Q 4203 1056 4341 1056 
Q 4466 1056 4511 1322 
Q 4556 1588 4622 2809 
L 2834 2809 
L 2834 -366 
L 2350 -366 
L 2350 2809 
L 756 2809 
L 756 3272 
L 5113 3272 
z
" transform="scale(0.015625)"/>
       <path id="ArialUnicodeMS-70b9" d="M 5522 4225 
L 3213 4225 
L 3213 3597 
L 4972 3597 
L 4972 1459 
L 1338 1459 
L 1338 3597 
L 2725 3597 
L 2725 5313 
L 3213 5313 
L 3213 4666 
L 5522 4666 
L 5522 4225 
z
M 4513 1900 
L 4513 3156 
L 1825 3156 
L 1825 1900 
L 4513 1900 
z
M 6081 -56 
L 5619 -325 
Q 5188 509 4544 1031 
L 4922 1288 
Q 5672 631 6081 -56 
z
M 1856 1044 
Q 1550 141 763 -453 
L 319 -91 
Q 1059 356 1447 1247 
L 1850 1044 
L 1856 1044 
z
M 4538 -109 
L 4072 -288 
Q 3759 481 3272 997 
L 3681 1197 
Q 4216 653 4538 -109 
z
M 3200 -134 
L 2700 -275 
Q 2519 444 2047 1013 
L 2463 1184 
Q 2925 600 3200 -134 
z
" transform="scale(0.015625)"/>
       <path id="ArialUnicodeMS-6570" d="M 6138 19 
L 5806 -378 
Q 5031 194 4697 716 
Q 4344 144 3328 -441 
L 2981 -50 
Q 3966 434 4403 1153 
Q 4038 1834 3866 2753 
Q 3678 2356 3353 1919 
L 2950 2203 
Q 3838 3172 3963 5253 
L 4409 5125 
Q 4341 4384 4269 4006 
L 5984 4006 
L 5984 3547 
L 5619 3541 
L 5594 3341 
Q 5441 2113 4978 1191 
Q 5281 672 6138 19 
z
M 5166 3541 
L 4172 3541 
Q 4297 2419 4691 1650 
Q 5038 2513 5166 3541 
z
M 3438 3653 
L 2209 3653 
L 2209 2338 
L 1919 2338 
Q 1900 2269 1753 1931 
L 3225 1931 
L 3225 1472 
L 2913 1472 
Q 2763 991 2503 666 
Q 2947 353 3103 184 
L 2747 -172 
Q 2463 138 2150 313 
Q 1322 -225 563 -428 
L 269 6 
Q 1106 163 1684 563 
Q 1291 756 703 884 
L 1038 1472 
L 403 1472 
L 403 1931 
L 1259 1931 
Q 1328 2056 1466 2553 
L 1747 2484 
L 1747 3653 
L 1716 3653 
Q 1413 2881 678 2456 
L 378 2803 
Q 938 3091 1241 3653 
L 403 3653 
L 403 4122 
L 1747 4122 
L 1747 5228 
L 2209 5228 
L 2209 4122 
L 3438 4122 
L 3438 3653 
z
M 2406 1472 
L 1538 1472 
Q 1422 1241 1369 1153 
Q 1388 1159 2069 884 
Q 2219 1031 2406 1472 
z
M 1625 4441 
L 1288 4159 
Q 1022 4547 575 4813 
L 878 5075 
Q 1394 4844 1625 4441 
z
M 3384 4844 
Q 3097 4409 2669 4172 
L 2322 4481 
Q 2806 4759 3047 5069 
L 3384 4844 
z
M 3303 2888 
L 2944 2578 
Q 2706 3025 2291 3297 
L 2584 3566 
Q 2988 3359 3303 2888 
z
" transform="scale(0.015625)"/>
       <path id="ArialUnicodeMS-ff08" d="M 3964 -1344 
L 3561 -1344 
Q 3042 -681 2745 103 
Q 2448 888 2448 1656 
Q 2448 2528 2764 3275 
Q 3080 4022 3561 4659 
L 3964 4659 
Q 3408 3747 3219 3059 
Q 3030 2372 3030 1663 
Q 3030 153 3964 -1344 
z
" transform="scale(0.015625)"/>
       <path id="ArialUnicodeMS-6e" d="M 3138 0 
L 2572 0 
L 2572 2016 
Q 2572 2525 2389 2715 
Q 2206 2906 1881 2906 
Q 1631 2906 1407 2784 
Q 1184 2663 1090 2441 
Q 997 2219 997 1813 
L 997 0 
L 434 0 
L 434 3316 
L 941 3316 
L 941 2847 
L 953 2847 
Q 1131 3119 1392 3255 
Q 1653 3391 1997 3391 
Q 2259 3391 2515 3297 
Q 2772 3203 2917 3015 
Q 3063 2828 3100 2615 
Q 3138 2403 3138 2041 
L 3138 0 
z
" transform="scale(0.015625)"/>
       <path id="ArialUnicodeMS-ff09" d="M 2850 4659 
Q 3369 3997 3666 3212 
Q 3963 2428 3963 1656 
Q 3963 788 3647 41 
Q 3332 -706 2850 -1344 
L 2447 -1344 
Q 3004 -431 3193 255 
Q 3382 941 3382 1650 
Q 3382 3163 2447 4659 
L 2850 4659 
z
" transform="scale(0.015625)"/>
      </defs>
      <use xlink:href="#ArialUnicodeMS-6301"/>
      <use xlink:href="#ArialUnicodeMS-6709" x="100"/>
      <use xlink:href="#ArialUnicodeMS-8005" x="200"/>
      <use xlink:href="#ArialUnicodeMS-2f" x="300"/>
      <use xlink:href="#ArialUnicodeMS-8282" x="327.783203"/>
      <use xlink:href="#ArialUnicodeMS-70b9" x="427.783203"/>
      <use xlink:href="#ArialUnicodeMS-6570" x="527.783203"/>
      <use xlink:href="#ArialUnicodeMS-ff08" x="627.783203"/>
      <use xlink:href="#ArialUnicodeMS-6e" x="727.783203"/>
      <use xlink:href="#ArialUnicodeMS-ff09" x="783.398438"/>
     </g>
    </g>
   </g>
   <g id="matplotlib.axis_2">
    <g id="ytick_1">
     <g id="line2d_11">
      <path d="M 51.644375 310.3075 
L 565.2 310.3075 
" clip-path="url(#p2f11040cda)" style="fill: none; stroke-dasharray: 2.96,1.28; stroke-dashoffset: 0; stroke: #eeeeee; stroke-opacity: 0.5; stroke-width: 0.8"/>
     </g>
     <g id="line2d_12">
      <defs>
       <path id="m8fcbbc105c" d="M 0 0 
L -3.5 0 
" style="stroke: #666666; stroke-width: 0.8"/>
      </defs>
      <g>
       <use xlink:href="#m8fcbbc105c" x="51.644375" y="310.3075" style="fill: #666666; stroke: #666666; stroke-width: 0.8"/>
      </g>
     </g>
     <g id="text_7">
      <!-- 0 -->
      <g style="fill: #666666" transform="translate(39.083438 313.886406) scale(0.1 -0.1)">
       <use xlink:href="#ArialUnicodeMS-30"/>
      </g>
     </g>
    </g>
    <g id="ytick_2">
     <g id="line2d_13">
      <path d="M 51.644375 264.737396 
L 565.2 264.737396 
" clip-path="url(#p2f11040cda)" style="fill: none; stroke-dasharray: 2.96,1.28; stroke-dashoffset: 0; stroke: #eeeeee; stroke-opacity: 0.5; stroke-width: 0.8"/>
     </g>
     <g id="line2d_14">
      <g>
       <use xlink:href="#m8fcbbc105c" x="51.644375" y="264.737396" style="fill: #666666; stroke: #666666; stroke-width: 0.8"/>
      </g>
     </g>
     <g id="text_8">
      <!-- 5 -->
      <g style="fill: #666666" transform="translate(39.083438 268.316302) scale(0.1 -0.1)">
       <defs>
        <path id="ArialUnicodeMS-35" d="M 1013 2753 
Q 1431 3041 1881 3041 
Q 2453 3041 2878 2636 
Q 3303 2231 3303 1556 
Q 3303 875 2872 398 
Q 2441 -78 1741 -78 
Q 1169 -78 750 245 
Q 331 569 269 1203 
L 856 1247 
Q 928 813 1162 598 
Q 1397 384 1741 384 
Q 2169 384 2434 707 
Q 2700 1031 2700 1503 
Q 2700 1984 2428 2262 
Q 2156 2541 1728 2541 
Q 1188 2541 897 2100 
L 366 2163 
L 813 4519 
L 3084 4519 
L 3084 3975 
L 1259 3975 
L 1013 2753 
z
" transform="scale(0.015625)"/>
       </defs>
       <use xlink:href="#ArialUnicodeMS-35"/>
      </g>
     </g>
    </g>
    <g id="ytick_3">
     <g id="line2d_15">
      <path d="M 51.644375 219.167292 
L 565.2 219.167292 
" clip-path="url(#p2f11040cda)" style="fill: none; stroke-dasharray: 2.96,1.28; stroke-dashoffset: 0; stroke: #eeeeee; stroke-opacity: 0.5; stroke-width: 0.8"/>
     </g>
     <g id="line2d_16">
      <g>
       <use xlink:href="#m8fcbbc105c" x="51.644375" y="219.167292" style="fill: #666666; stroke: #666666; stroke-width: 0.8"/>
      </g>
     </g>
     <g id="text_9">
      <!-- 10 -->
      <g style="fill: #666666" transform="translate(33.5225 222.746198) scale(0.1 -0.1)">
       <use xlink:href="#ArialUnicodeMS-31"/>
       <use xlink:href="#ArialUnicodeMS-30" x="55.615234"/>
      </g>
     </g>
    </g>
    <g id="ytick_4">
     <g id="line2d_17">
      <path d="M 51.644375 173.597188 
L 565.2 173.597188 
" clip-path="url(#p2f11040cda)" style="fill: none; stroke-dasharray: 2.96,1.28; stroke-dashoffset: 0; stroke: #eeeeee; stroke-opacity: 0.5; stroke-width: 0.8"/>
     </g>
     <g id="line2d_18">
      <g>
       <use xlink:href="#m8fcbbc105c" x="51.644375" y="173.597188" style="fill: #666666; stroke: #666666; stroke-width: 0.8"/>
      </g>
     </g>
     <g id="text_10">
      <!-- 15 -->
      <g style="fill: #666666" transform="translate(33.5225 177.176094) scale(0.1 -0.1)">
       <use xlink:href="#ArialUnicodeMS-31"/>
       <use xlink:href="#ArialUnicodeMS-35" x="55.615234"/>
      </g>
     </g>
    </g>
    <g id="ytick_5">
     <g id="line2d_19">
      <path d="M 51.644375 128.027083 
L 565.2 128.027083 
" clip-path="url(#p2f11040cda)" style="fill: none; stroke-dasharray: 2.96,1.28; stroke-dashoffset: 0; stroke: #eeeeee; stroke-opacity: 0.5; stroke-width: 0.8"/>
     </g>
     <g id="line2d_20">
      <g>
       <use xlink:href="#m8fcbbc105c" x="51.644375" y="128.027083" style="fill: #666666; stroke: #666666; stroke-width: 0.8"/>
      </g>
     </g>
     <g id="text_11">
      <!-- 20 -->
      <g style="fill: #666666" transform="translate(33.5225 131.60599) scale(0.1 -0.1)">
       <use xlink:href="#ArialUnicodeMS-32"/>
       <use xlink:href="#ArialUnicodeMS-30" x="55.615234"/>
      </g>
     </g>
    </g>
    <g id="ytick_6">
     <g id="line2d_21">
      <path d="M 51.644375 82.456979 
L 565.2 82.456979 
" clip-path="url(#p2f11040cda)" style="fill: none; stroke-dasharray: 2.96,1.28; stroke-dashoffset: 0; stroke: #eeeeee; stroke-opacity: 0.5; stroke-width: 0.8"/>
     </g>
     <g id="line2d_22">
      <g>
       <use xlink:href="#m8fcbbc105c" x="51.644375" y="82.456979" style="fill: #666666; stroke: #666666; stroke-width: 0.8"/>
      </g>
     </g>
     <g id="text_12">
      <!-- 25 -->
      <g style="fill: #666666" transform="translate(33.5225 86.035885) scale(0.1 -0.1)">
       <use xlink:href="#ArialUnicodeMS-32"/>
       <use xlink:href="#ArialUnicodeMS-35" x="55.615234"/>
      </g>
     </g>
    </g>
    <g id="ytick_7">
     <g id="line2d_23">
      <path d="M 51.644375 36.886875 
L 565.2 36.886875 
" clip-path="url(#p2f11040cda)" style="fill: none; stroke-dasharray: 2.96,1.28; stroke-dashoffset: 0; stroke: #eeeeee; stroke-opacity: 0.5; stroke-width: 0.8"/>
     </g>
     <g id="line2d_24">
      <g>
       <use xlink:href="#m8fcbbc105c" x="51.644375" y="36.886875" style="fill: #666666; stroke: #666666; stroke-width: 0.8"/>
      </g>
     </g>
     <g id="text_13">
      <!-- 30 -->
      <g style="fill: #666666" transform="translate(33.5225 40.465781) scale(0.1 -0.1)">
       <defs>
        <path id="ArialUnicodeMS-33" d="M 2425 2478 
Q 2850 2397 3067 2067 
Q 3284 1738 3284 1350 
Q 3284 725 2829 323 
Q 2375 -78 1741 -78 
Q 1134 -78 740 275 
Q 347 628 281 1209 
L 844 1288 
Q 928 834 1151 609 
Q 1375 384 1741 384 
Q 2134 384 2407 661 
Q 2681 938 2681 1338 
Q 2681 1722 2432 1975 
Q 2184 2228 1784 2228 
Q 1622 2228 1388 2169 
L 1453 2663 
Q 1678 2663 1809 2684 
Q 1941 2706 2103 2790 
Q 2266 2875 2372 3033 
Q 2478 3191 2478 3425 
Q 2478 3766 2251 3953 
Q 2025 4141 1728 4141 
Q 1388 4141 1173 3925 
Q 959 3709 903 3309 
L 341 3413 
Q 450 4009 823 4306 
Q 1197 4603 1716 4603 
Q 2288 4603 2670 4258 
Q 3053 3913 3053 3413 
Q 3053 2772 2425 2491 
L 2425 2478 
z
" transform="scale(0.015625)"/>
       </defs>
       <use xlink:href="#ArialUnicodeMS-33"/>
       <use xlink:href="#ArialUnicodeMS-30" x="55.615234"/>
      </g>
     </g>
    </g>
    <g id="text_14">
     <!-- 网络价值（V ∝ n log n） -->
     <g style="fill: #666666" transform="translate(21.0025 238.239688) rotate(-90) scale(0.12 -0.12)">
      <defs>
       <path id="ArialUnicodeMS-7f51" d="M 5650 72 
Q 5650 -122 5526 -247 
Q 5403 -372 5222 -372 
L 4581 -372 
L 4397 109 
L 5075 84 
Q 5116 91 5166 141 
L 5166 4525 
L 1241 4525 
L 1241 -384 
L 750 -384 
L 750 4991 
L 5650 4991 
L 5650 72 
z
M 5056 1269 
L 4616 984 
Q 4497 1444 4091 2175 
Q 3647 1288 3200 794 
L 2772 1088 
Q 3350 1638 3781 2606 
Q 3378 3181 2994 3609 
L 3378 3872 
Q 3947 3200 3975 3144 
Q 4253 4088 4294 4359 
L 4744 4231 
Q 4534 3309 4300 2681 
Q 4781 2000 5056 1269 
z
M 3263 1863 
L 2881 1556 
Q 2731 1978 2509 2284 
Q 2241 1591 1709 959 
L 1300 1259 
Q 1859 1841 2181 2759 
Q 1866 3238 1338 3719 
L 1728 3988 
Q 1800 3934 2363 3291 
Q 2531 3775 2606 4341 
L 3059 4197 
Q 2959 3647 2706 2853 
Q 3097 2319 3263 1863 
z
" transform="scale(0.015625)"/>
       <path id="ArialUnicodeMS-7edc" d="M 6188 2400 
L 5906 1931 
Q 4847 2222 4250 2797 
Q 3456 2172 2669 1931 
L 2375 2375 
Q 3369 2694 3916 3175 
Q 3706 3413 3413 3944 
Q 3113 3506 2766 3250 
L 2406 3591 
Q 2800 3900 3109 4426 
Q 3419 4953 3469 5422 
L 3938 5253 
Q 3897 5056 3803 4794 
L 5453 4794 
L 5453 4353 
Q 5231 3763 4616 3138 
Q 5163 2563 6188 2400 
z
M 4909 4325 
L 3769 4325 
Q 3872 4091 4306 3513 
Q 4681 3866 4909 4325 
z
M 2438 3891 
Q 1738 2478 1209 1869 
L 1222 1856 
L 2425 2106 
L 2425 1644 
Q 906 1300 769 1241 
L 500 1697 
Q 859 2056 1447 2975 
Q 1266 2975 716 2834 
L 513 3219 
Q 1163 4259 1503 5294 
L 1919 5063 
Q 1641 4163 1106 3353 
Q 1297 3369 1678 3438 
Q 1772 3597 2034 4116 
L 2438 3891 
z
M 5388 -403 
L 4909 -403 
L 4909 13 
L 3603 13 
L 3603 -403 
L 3122 -403 
L 3122 2053 
L 5388 2053 
L 5388 -403 
z
M 4909 481 
L 4909 1588 
L 3603 1588 
L 3603 481 
L 4909 481 
z
M 2528 709 
L 709 78 
L 475 481 
Q 1294 734 2528 1191 
L 2528 709 
z
" transform="scale(0.015625)"/>
       <path id="ArialUnicodeMS-4ef7" d="M 6284 2975 
L 5900 2572 
Q 4847 3084 3928 4519 
Q 3178 3188 2041 2584 
L 1697 2981 
Q 3113 3628 3859 5422 
L 4281 5184 
L 4206 4997 
Q 5038 3547 6284 2975 
z
M 2241 5172 
Q 2156 4775 1913 4147 
L 1672 3531 
L 1672 -428 
L 1184 -428 
L 1184 2663 
Q 1113 2534 659 2041 
L 213 2322 
Q 1372 3522 1784 5344 
L 2241 5172 
z
M 4984 -409 
L 4500 -409 
L 4500 3116 
L 4984 3116 
L 4984 -409 
z
M 3397 1791 
Q 3397 1034 3097 531 
Q 2797 28 2059 -475 
L 1697 -72 
Q 2209 191 2561 647 
Q 2913 1103 2913 1528 
L 2913 3116 
L 3397 3116 
L 3397 1791 
z
" transform="scale(0.015625)"/>
       <path id="ArialUnicodeMS-503c" d="M 6034 -172 
L 1791 -172 
L 1791 294 
L 2344 294 
L 2344 3853 
L 3425 3853 
Q 3544 4109 3609 4341 
L 1925 4341 
L 1919 4672 
Q 1841 4369 1691 3981 
L 1544 3622 
L 1544 -434 
L 1056 -434 
L 1056 2753 
Q 859 2466 634 2241 
L 238 2516 
Q 1222 3619 1588 5325 
L 2028 5172 
Q 2009 5038 1953 4806 
L 3731 4806 
Q 3772 4997 3781 5338 
L 4275 5253 
Q 4275 5013 4225 4806 
L 5813 4806 
L 5813 4341 
L 4134 4341 
Q 4091 4188 3956 3853 
L 5409 3853 
L 5409 294 
L 6034 294 
L 6034 -172 
z
M 4922 2994 
L 4922 3384 
L 2828 3384 
L 2828 2994 
L 4922 2994 
z
M 4922 2138 
L 4922 2584 
L 2828 2584 
L 2828 2138 
L 4922 2138 
z
M 4922 1241 
L 4922 1716 
L 2828 1716 
L 2828 1241 
L 4922 1241 
z
M 4922 294 
L 4922 825 
L 2828 825 
L 2828 294 
L 4922 294 
z
" transform="scale(0.015625)"/>
       <path id="ArialUnicodeMS-56" d="M 4225 4581 
L 2431 0 
L 1813 0 
L 38 4581 
L 691 4581 
L 1881 1253 
Q 2016 934 2119 506 
L 2131 506 
Q 2225 872 2369 1253 
L 3609 4581 
L 4225 4581 
z
" transform="scale(0.015625)"/>
       <path id="ArialUnicodeMS-20" transform="scale(0.015625)"/>
       <path id="ArialUnicodeMS-221d" d="M 1906 1638 
Q 1584 2150 1300 2150 
Q 1088 2150 938 2000 
Q 788 1850 788 1638 
Q 788 1425 938 1275 
Q 1088 1125 1300 1125 
Q 1484 1125 1641 1278 
Q 1744 1378 1906 1638 
z
M 2081 1919 
Q 2428 2456 2859 2456 
L 2859 2150 
Q 2575 2150 2253 1638 
Q 2416 1378 2519 1278 
Q 2675 1125 2859 1125 
L 2859 819 
Q 2428 819 2081 1356 
Q 1734 819 1300 819 
Q 959 819 720 1058 
Q 481 1297 481 1638 
Q 481 1978 720 2217 
Q 959 2456 1300 2456 
Q 1734 2456 2081 1919 
z
" transform="scale(0.015625)"/>
       <path id="ArialUnicodeMS-6c" d="M 991 0 
L 428 0 
L 428 4581 
L 991 4581 
L 991 0 
z
" transform="scale(0.015625)"/>
       <path id="ArialUnicodeMS-6f" d="M 1778 3391 
Q 2450 3391 2892 2953 
Q 3334 2516 3334 1709 
Q 3334 731 2856 326 
Q 2378 -78 1778 -78 
Q 1150 -78 687 337 
Q 225 753 225 1656 
Q 225 2531 672 2961 
Q 1119 3391 1778 3391 
z
M 1778 384 
Q 2259 384 2509 740 
Q 2759 1097 2759 1678 
Q 2759 2300 2476 2615 
Q 2194 2931 1778 2931 
Q 1350 2931 1075 2611 
Q 800 2291 800 1656 
Q 800 1025 1079 704 
Q 1359 384 1778 384 
z
" transform="scale(0.015625)"/>
       <path id="ArialUnicodeMS-67" d="M 3144 447 
Q 3144 -259 3003 -607 
Q 2863 -956 2503 -1150 
Q 2144 -1344 1644 -1344 
Q 1081 -1344 706 -1094 
Q 331 -844 331 -275 
L 878 -359 
Q 909 -622 1098 -753 
Q 1288 -884 1638 -884 
Q 2075 -884 2278 -706 
Q 2481 -528 2526 -272 
Q 2572 -16 2572 434 
Q 2206 0 1650 0 
Q 1003 0 611 478 
Q 219 956 219 1684 
Q 219 2416 600 2903 
Q 981 3391 1656 3391 
Q 2244 3391 2613 2919 
L 2625 2919 
L 2625 3316 
L 3144 3316 
L 3144 447 
z
M 1703 459 
Q 2063 459 2341 745 
Q 2619 1031 2619 1703 
Q 2619 2297 2353 2614 
Q 2088 2931 1697 2931 
Q 1297 2931 1045 2606 
Q 794 2281 794 1716 
Q 794 1063 1058 761 
Q 1322 459 1703 459 
z
" transform="scale(0.015625)"/>
      </defs>
      <use xlink:href="#ArialUnicodeMS-7f51"/>
      <use xlink:href="#ArialUnicodeMS-7edc" x="100"/>
      <use xlink:href="#ArialUnicodeMS-4ef7" x="200"/>
      <use xlink:href="#ArialUnicodeMS-503c" x="300"/>
      <use xlink:href="#ArialUnicodeMS-ff08" x="400"/>
      <use xlink:href="#ArialUnicodeMS-56" x="500"/>
      <use xlink:href="#ArialUnicodeMS-20" x="566.699219"/>
      <use xlink:href="#ArialUnicodeMS-221d" x="594.482422"/>
      <use xlink:href="#ArialUnicodeMS-20" x="649.365234"/>
      <use xlink:href="#ArialUnicodeMS-6e" x="677.148438"/>
      <use xlink:href="#ArialUnicodeMS-20" x="732.763672"/>
      <use xlink:href="#ArialUnicodeMS-6c" x="760.546875"/>
      <use xlink:href="#ArialUnicodeMS-6f" x="782.763672"/>
      <use xlink:href="#ArialUnicodeMS-67" x="838.378906"/>
      <use xlink:href="#ArialUnicodeMS-20" x="893.994141"/>
      <use xlink:href="#ArialUnicodeMS-6e" x="921.777344"/>
      <use xlink:href="#ArialUnicodeMS-ff09" x="977.392578"/>
     </g>
    </g>
   </g>
   <g id="line2d_25">
    <path d="M 74.987813 310.3075 
L 126.862118 297.547871 
L 178.736424 280.231231 
L 230.610729 260.180385 
L 282.485035 237.395333 
L 334.35934 212.787477 
L 386.233646 186.356817 
L 438.107951 159.014754 
L 489.982257 129.849887 
L 541.856562 100.685021 
" clip-path="url(#p2f11040cda)" style="fill: none; stroke: #f59e0b; stroke-width: 2.5; stroke-linecap: square"/>
    <defs>
     <path id="m10708e6f5d" d="M 0 4 
C 1.060812 4 2.078319 3.578535 2.828427 2.828427 
C 3.578535 2.078319 4 1.060812 4 0 
C 4 -1.060812 3.578535 -2.078319 2.828427 -2.828427 
C 2.078319 -3.578535 1.060812 -4 0 -4 
C -1.060812 -4 -2.078319 -3.578535 -2.828427 -2.828427 
C -3.578535 -2.078319 -4 -1.060812 -4 0 
C -4 1.060812 -3.578535 2.078319 -2.828427 2.828427 
C -2.078319 3.578535 -1.060812 4 0 4 
z
" style="stroke: #f59e0b; stroke-width: 2"/>
    </defs>
    <g clip-path="url(#p2f11040cda)">
     <use xlink:href="#m10708e6f5d" x="74.987813" y="310.3075" style="fill: #ffffff; stroke: #f59e0b; stroke-width: 2"/>
     <use xlink:href="#m10708e6f5d" x="126.862118" y="297.547871" style="fill: #ffffff; stroke: #f59e0b; stroke-width: 2"/>
     <use xlink:href="#m10708e6f5d" x="178.736424" y="280.231231" style="fill: #ffffff; stroke: #f59e0b; stroke-width: 2"/>
     <use xlink:href="#m10708e6f5d" x="230.610729" y="260.180385" style="fill: #ffffff; stroke: #f59e0b; stroke-width: 2"/>
     <use xlink:href="#m10708e6f5d" x="282.485035" y="237.395333" style="fill: #ffffff; stroke: #f59e0b; stroke-width: 2"/>
     <use xlink:href="#m10708e6f5d" x="334.35934" y="212.787477" style="fill: #ffffff; stroke: #f59e0b; stroke-width: 2"/>
     <use xlink:href="#m10708e6f5d" x="386.233646" y="186.356817" style="fill: #ffffff; stroke: #f59e0b; stroke-width: 2"/>
     <use xlink:href="#m10708e6f5d" x="438.107951" y="159.014754" style="fill: #ffffff; stroke: #f59e0b; stroke-width: 2"/>
     <use xlink:href="#m10708e6f5d" x="489.982257" y="129.849887" style="fill: #ffffff; stroke: #f59e0b; stroke-width: 2"/>
     <use xlink:href="#m10708e6f5d" x="541.856562" y="100.685021" style="fill: #ffffff; stroke: #f59e0b; stroke-width: 2"/>
    </g>
   </g>
   <g id="patch_3">
    <path d="M 51.644375 310.3075 
L 51.644375 36.886875 
" style="fill: none; stroke: #dddddd; stroke-width: 0.8; stroke-linejoin: miter; stroke-linecap: square"/>
   </g>
   <g id="patch_4">
    <path d="M 51.644375 310.3075 
L 565.2 310.3075 
" style="fill: none; stroke: #dddddd; stroke-width: 0.8; stroke-linejoin: miter; stroke-linecap: square"/>
   </g>
   <g id="text_15">
    <!-- Metcalfe 定律下的网络价值增长模型 -->
    <g style="fill: #333333" transform="translate(187.995625 21.886875) scale(0.15 -0.15)">
     <defs>
      <path id="ArialUnicodeMS-4d" d="M 4844 0 
L 4269 0 
L 4269 3834 
L 4256 3834 
L 2938 0 
L 2394 0 
L 1081 3897 
L 1063 3897 
L 1063 0 
L 488 0 
L 488 4581 
L 1394 4581 
L 2478 1338 
Q 2659 797 2688 659 
L 2700 659 
Q 2784 925 2944 1394 
L 4038 4581 
L 4844 4581 
L 4844 0 
z
" transform="scale(0.015625)"/>
      <path id="ArialUnicodeMS-65" d="M 3309 1516 
L 825 1516 
Q 859 966 1139 675 
Q 1419 384 1838 384 
Q 2159 384 2378 554 
Q 2597 725 2713 1069 
L 3291 997 
Q 3150 478 2775 200 
Q 2400 -78 1838 -78 
Q 1091 -78 670 380 
Q 250 838 250 1631 
Q 250 2416 658 2903 
Q 1066 3391 1806 3391 
Q 2169 3391 2505 3231 
Q 2841 3072 3075 2689 
Q 3309 2306 3309 1516 
z
M 2731 1978 
Q 2697 2484 2417 2707 
Q 2138 2931 1806 2931 
Q 1409 2931 1153 2665 
Q 897 2400 856 1978 
L 2731 1978 
z
" transform="scale(0.015625)"/>
      <path id="ArialUnicodeMS-74" d="M 1722 6 
Q 1472 -44 1300 -44 
Q 931 -44 762 86 
Q 594 216 556 416 
Q 519 616 519 972 
L 519 2881 
L 109 2881 
L 109 3316 
L 519 3316 
L 519 4141 
L 1081 4481 
L 1081 3316 
L 1644 3316 
L 1644 2881 
L 1081 2881 
L 1081 941 
Q 1081 691 1132 586 
Q 1184 481 1394 481 
Q 1516 481 1644 506 
L 1722 6 
z
" transform="scale(0.015625)"/>
      <path id="ArialUnicodeMS-63" d="M 3144 1147 
Q 3034 513 2643 217 
Q 2253 -78 1759 -78 
Q 1038 -78 644 395 
Q 250 869 250 1650 
Q 250 2297 476 2686 
Q 703 3075 1043 3233 
Q 1384 3391 1759 3391 
Q 2272 3391 2636 3125 
Q 3000 2859 3084 2344 
L 2541 2259 
Q 2456 2594 2267 2762 
Q 2078 2931 1784 2931 
Q 1313 2931 1069 2597 
Q 825 2263 825 1663 
Q 825 1050 1064 717 
Q 1303 384 1753 384 
Q 2116 384 2323 592 
Q 2531 800 2584 1216 
L 3144 1147 
z
" transform="scale(0.015625)"/>
      <path id="ArialUnicodeMS-61" d="M 3303 0 
L 2713 0 
Q 2631 156 2597 409 
Q 2031 -78 1375 -78 
Q 850 -78 547 184 
Q 244 447 244 878 
Q 244 1291 536 1558 
Q 828 1825 1550 1913 
L 2075 1991 
Q 2369 2038 2559 2106 
Q 2559 2359 2543 2464 
Q 2528 2569 2451 2681 
Q 2375 2794 2206 2862 
Q 2038 2931 1753 2931 
Q 1391 2931 1180 2797 
Q 969 2663 891 2297 
L 341 2369 
Q 431 2878 806 3134 
Q 1181 3391 1838 3391 
Q 2434 3391 2714 3214 
Q 2994 3038 3058 2788 
Q 3122 2538 3122 2144 
L 3122 1388 
Q 3122 697 3148 461 
Q 3175 225 3303 0 
z
M 2559 1459 
L 2559 1663 
Q 2119 1516 1481 1430 
Q 844 1344 844 891 
Q 844 663 1016 514 
Q 1188 366 1509 366 
Q 1925 366 2242 614 
Q 2559 863 2559 1459 
z
" transform="scale(0.015625)"/>
      <path id="ArialUnicodeMS-66" d="M 1991 4603 
L 1906 4109 
Q 1738 4141 1575 4141 
Q 1372 4141 1242 4055 
Q 1113 3969 1113 3628 
L 1113 3316 
L 1753 3316 
L 1753 2881 
L 1113 2881 
L 1113 0 
L 550 0 
L 550 2881 
L 50 2881 
L 50 3316 
L 550 3316 
L 550 3675 
Q 550 3925 597 4128 
Q 644 4331 845 4495 
Q 1047 4659 1466 4659 
Q 1716 4659 1991 4603 
z
" transform="scale(0.015625)"/>
      <path id="ArialUnicodeMS-5b9a" d="M 5747 3353 
L 5247 3353 
L 5247 4153 
L 1141 4153 
L 1141 3391 
L 653 3391 
L 653 4622 
L 2956 4622 
L 2956 5288 
L 3444 5288 
L 3444 4622 
L 5747 4622 
L 5747 3353 
z
M 6100 416 
L 5863 -97 
Q 5559 -109 5147 -109 
Q 3516 -109 2859 30 
Q 2203 169 1638 781 
Q 1378 175 659 -428 
L 263 -25 
Q 1481 681 1434 2528 
L 1913 2419 
Q 1903 1834 1806 1288 
Q 2259 666 3009 500 
L 3009 2925 
L 1325 2925 
L 1325 3391 
L 5106 3391 
L 5106 2925 
L 3494 2925 
L 3494 1978 
L 5422 1978 
L 5422 1509 
L 3494 1509 
L 3494 428 
L 4263 403 
L 6100 416 
z
" transform="scale(0.015625)"/>
      <path id="ArialUnicodeMS-5f8b" d="M 2175 5100 
Q 1741 4166 775 3284 
L 416 3591 
Q 1275 4344 1759 5313 
L 2175 5100 
z
M 6106 3391 
L 5472 3391 
L 5472 2478 
L 4097 2478 
L 4097 2041 
L 5691 2041 
L 5691 1600 
L 4097 1600 
L 4097 1100 
L 6022 1100 
L 6022 659 
L 4097 659 
L 4097 -409 
L 3597 -409 
L 3597 659 
L 1875 659 
L 1875 1100 
L 3591 1100 
L 3603 1588 
L 2181 1588 
L 2181 2041 
L 3597 2041 
L 3597 2478 
L 2350 2478 
L 2350 2944 
L 3597 2944 
L 3597 3391 
L 2169 3391 
Q 1988 3044 1556 2534 
L 1556 -428 
L 1075 -428 
L 1075 2075 
Q 794 1825 594 1678 
L 231 1997 
Q 1269 2756 1784 3688 
L 2075 3488 
L 2075 3859 
L 3597 3859 
L 3597 4269 
L 2350 4269 
L 2350 4738 
L 3597 4738 
L 3597 5294 
L 4097 5294 
L 4097 4738 
L 5472 4738 
L 5472 3859 
L 6106 3859 
L 6106 3391 
z
M 4991 3859 
L 4991 4269 
L 4097 4269 
L 4097 3859 
L 4991 3859 
z
M 4991 2944 
L 4991 3391 
L 4097 3391 
L 4097 2944 
L 4991 2944 
z
" transform="scale(0.015625)"/>
      <path id="ArialUnicodeMS-4e0b" d="M 5863 4453 
L 3200 4453 
L 3200 -378 
L 2694 -378 
L 2694 4453 
L 538 4453 
L 538 4941 
L 5863 4941 
L 5863 4453 
z
M 5403 1709 
L 5044 1331 
Q 4494 2084 3384 2700 
L 3681 3028 
Q 4625 2644 5403 1709 
z
" transform="scale(0.015625)"/>
      <path id="ArialUnicodeMS-7684" d="M 5644 4281 
Q 5619 1694 5395 673 
Q 5172 -347 4606 -347 
Q 4350 -347 3609 -134 
L 3525 403 
Q 4247 134 4531 134 
Q 4806 134 4976 1142 
Q 5147 2150 5159 3841 
L 3794 3841 
Q 3550 3166 3053 2497 
L 2719 2713 
L 2719 -147 
L 2216 -147 
L 2216 269 
L 1153 269 
L 1153 -250 
L 647 -250 
L 647 4184 
L 1234 4184 
Q 1494 4644 1625 5313 
L 2088 5125 
Q 1903 4444 1741 4184 
L 2719 4184 
L 2719 2881 
Q 3431 3888 3681 5363 
L 4191 5247 
Q 4106 4869 3916 4281 
L 5644 4281 
z
M 2216 2484 
L 2216 3719 
L 1153 3719 
L 1153 2484 
L 2216 2484 
z
M 2216 738 
L 2216 2016 
L 1153 2016 
L 1153 738 
L 2216 738 
z
M 4775 1369 
L 4313 1166 
Q 4034 1925 3444 2669 
L 3841 2931 
Q 4484 2191 4775 1369 
z
" transform="scale(0.015625)"/>
      <path id="ArialUnicodeMS-589e" d="M 6150 4122 
L 5806 3738 
L 5538 3916 
L 5538 2328 
L 2613 2328 
L 2613 4006 
Q 2384 3853 2234 3763 
L 1875 4141 
Q 2216 4300 2650 4664 
Q 3084 5028 3250 5313 
L 3653 5019 
Q 3500 4719 2994 4294 
L 5063 4294 
Q 4538 4741 4347 5013 
L 4756 5313 
Q 5306 4622 6150 4122 
z
M 5050 2797 
L 5050 3828 
L 4294 3828 
L 4294 2797 
L 5050 2797 
z
M 5044 3494 
Q 4969 3178 4684 2828 
L 4325 3091 
Q 4597 3397 4653 3675 
L 5044 3494 
z
M 3841 2797 
L 3841 3828 
L 3097 3828 
L 3097 2797 
L 3841 2797 
z
M 3816 3053 
L 3431 2869 
Q 3338 3281 3122 3541 
L 3519 3731 
Q 3731 3534 3816 3053 
z
M 2503 1319 
L 672 647 
L 331 1081 
Q 822 1194 1259 1350 
L 1259 3103 
L 544 3103 
L 544 3572 
L 1259 3572 
L 1259 5141 
L 1747 5141 
L 1747 3572 
L 2456 3572 
L 2456 3103 
L 1747 3103 
L 1747 1538 
L 2503 1806 
L 2503 1319 
z
M 5344 -397 
L 4856 -397 
L 4856 -31 
L 3334 -31 
L 3334 -397 
L 2847 -397 
L 2847 2169 
L 5344 2169 
L 5344 -397 
z
M 4856 1325 
L 4856 1703 
L 3334 1703 
L 3334 1325 
L 4856 1325 
z
M 4856 434 
L 4856 856 
L 3334 856 
L 3334 434 
L 4856 434 
z
" transform="scale(0.015625)"/>
      <path id="ArialUnicodeMS-957f" d="M 6125 306 
L 5797 -122 
Q 3488 722 2981 2413 
L 2259 2413 
L 2259 319 
L 3597 844 
L 3597 366 
L 1984 -347 
L 1697 84 
Q 1772 172 1772 331 
L 1772 2413 
L 384 2413 
L 384 2881 
L 1772 2881 
L 1772 5269 
L 2259 5269 
L 2259 3553 
Q 3700 4050 4738 4916 
L 5069 4550 
Q 3859 3588 2259 3084 
L 2259 2881 
L 5978 2881 
L 5978 2413 
L 3469 2413 
Q 3947 959 6125 306 
z
" transform="scale(0.015625)"/>
      <path id="ArialUnicodeMS-6a21" d="M 5906 4213 
L 5063 4213 
L 5063 3809 
L 4575 3809 
L 4575 4213 
L 3469 4213 
L 3469 3809 
L 2981 3809 
L 2981 4213 
L 2131 4213 
L 2131 4678 
L 2981 4678 
L 2981 5300 
L 3469 5300 
L 3469 4678 
L 4575 4678 
L 4575 5300 
L 5063 5300 
L 5063 4678 
L 5906 4678 
L 5906 4213 
z
M 2503 1947 
L 2088 1684 
Q 1891 2191 1716 2394 
L 1716 -441 
L 1222 -441 
L 1222 2088 
Q 1066 1534 588 941 
L 197 1281 
Q 1044 2356 1216 3572 
L 397 3572 
L 397 4038 
L 1209 4038 
L 1209 5281 
L 1716 5281 
L 1716 4038 
L 2406 4038 
L 2406 3572 
L 1716 3572 
L 1716 2900 
L 1856 2969 
Q 2316 2422 2503 1947 
z
M 6094 -25 
L 5838 -422 
Q 4453 -172 4025 838 
Q 3584 -53 2241 -428 
L 1972 -6 
Q 3103 253 3506 856 
L 2247 856 
L 2247 1325 
L 3706 1325 
L 3788 1684 
L 2553 1684 
L 2553 3675 
L 5491 3675 
L 5491 1684 
L 4250 1684 
Q 4222 1453 4178 1325 
L 5791 1325 
L 5791 856 
L 4519 856 
Q 4981 197 6094 -25 
z
M 4984 2925 
L 4984 3206 
L 3059 3206 
L 3059 2925 
L 4984 2925 
z
M 4984 2150 
L 4984 2456 
L 3059 2456 
L 3059 2150 
L 4984 2150 
z
" transform="scale(0.015625)"/>
      <path id="ArialUnicodeMS-578b" d="M 5606 2303 
Q 5606 1791 5172 1791 
L 4409 1791 
L 4206 2278 
Q 4641 2253 4716 2259 
L 5019 2278 
Q 5119 2288 5119 2456 
L 5119 5294 
L 5606 5294 
L 5606 2303 
z
M 4019 3188 
L 3284 3188 
L 3284 1906 
L 2797 1906 
L 2797 3188 
L 1925 3188 
Q 1897 2078 744 1550 
L 378 1894 
Q 922 2128 1201 2484 
Q 1481 2841 1453 3188 
L 609 3188 
L 609 3653 
L 1447 3653 
L 1447 4525 
L 756 4525 
L 756 4991 
L 3828 4991 
L 3828 4525 
L 3284 4525 
L 3284 3653 
L 4019 3653 
L 4019 3188 
z
M 2797 3653 
L 2797 4525 
L 1931 4525 
L 1931 3653 
L 2797 3653 
z
M 4603 2606 
L 4116 2606 
L 4116 4891 
L 4603 4891 
L 4603 2606 
z
M 6100 -159 
L 378 -159 
L 378 313 
L 2969 313 
L 2969 878 
L 984 878 
L 984 1344 
L 2969 1344 
L 2969 1778 
L 3456 1778 
L 3456 1344 
L 5472 1344 
L 5472 878 
L 3456 878 
L 3456 313 
L 6100 313 
L 6100 -159 
z
" transform="scale(0.015625)"/>
     </defs>
     <use xlink:href="#ArialUnicodeMS-4d"/>
     <use xlink:href="#ArialUnicodeMS-65" x="83.300781"/>
     <use xlink:href="#ArialUnicodeMS-74" x="138.916016"/>
     <use xlink:href="#ArialUnicodeMS-63" x="166.699219"/>
     <use xlink:href="#ArialUnicodeMS-61" x="216.699219"/>
     <use xlink:href="#ArialUnicodeMS-6c" x="272.314453"/>
     <use xlink:href="#ArialUnicodeMS-66" x="294.53125"/>
     <use xlink:href="#ArialUnicodeMS-65" x="322.314453"/>
     <use xlink:href="#ArialUnicodeMS-20" x="377.929688"/>
     <use xlink:href="#ArialUnicodeMS-5b9a" x="405.712891"/>
     <use xlink:href="#ArialUnicodeMS-5f8b" x="505.712891"/>
     <use xlink:href="#ArialUnicodeMS-4e0b" x="605.712891"/>
     <use xlink:href="#ArialUnicodeMS-7684" x="705.712891"/>
     <use xlink:href="#ArialUnicodeMS-7f51" x="805.712891"/>
     <use xlink:href="#ArialUnicodeMS-7edc" x="905.712891"/>
     <use xlink:href="#ArialUnicodeMS-4ef7" x="1005.712891"/>
     <use xlink:href="#ArialUnicodeMS-503c" x="1105.712891"/>
     <use xlink:href="#ArialUnicodeMS-589e" x="1205.712891"/>
     <use xlink:href="#ArialUnicodeMS-957f" x="1305.712891"/>
     <use xlink:href="#ArialUnicodeMS-6a21" x="1405.712891"/>
     <use xlink:href="#ArialUnicodeMS-578b" x="1505.712891"/>
    </g>
   </g>
  </g>
 </g>
 <defs>
  <clipPath id="p2f11040cda">
   <rect x="51.644375" y="36.886875" width="513.555625" height="273.420625"/>
  </clipPath>
 </defs>
</svg>
