<?xml version="1.0" encoding="utf-8" standalone="no"?>
<!DOCTYPE svg PUBLIC "-//W3C//DTD SVG 1.1//EN"
  "http://www.w3.org/Graphics/SVG/1.1/DTD/svg11.dtd">
<svg xmlns:xlink="http://www.w3.org/1999/xlink" width="432pt" height="288pt" viewBox="0 0 432 288" xmlns="http://www.w3.org/2000/svg" version="1.1">
 <metadata>
  <rdf:RDF xmlns:dc="http://purl.org/dc/elements/1.1/" xmlns:cc="http://creativecommons.org/ns#" xmlns:rdf="http://www.w3.org/1999/02/22-rdf-syntax-ns#">
   <cc:Work>
    <dc:type rdf:resource="http://purl.org/dc/dcmitype/StillImage"/>
    <dc:date>2026-05-11T09:52:22.001673</dc:date>
    <dc:format>image/svg+xml</dc:format>
    <dc:creator>
     <cc:Agent>
      <dc:title>Matplotlib v3.9.4, https://matplotlib.org/</dc:title>
     </cc:Agent>
    </dc:creator>
   </cc:Work>
  </rdf:RDF>
 </metadata>
 <defs>
  <style type="text/css">*{stroke-linejoin: round; stroke-linecap: butt}</style>
 </defs>
 <g id="figure_1">
  <g id="patch_1">
   <path d="M 0 288 
L 432 288 
L 432 0 
L 0 0 
z
" style="fill: #ffffff"/>
  </g>
  <g id="axes_1">
   <g id="patch_2">
    <path d="M 27.484375 260.515625 
L 421.2 260.515625 
L 421.2 10.8 
L 27.484375 10.8 
z
" style="fill: #ffffff"/>
   </g>
   <g id="matplotlib.axis_1">
    <g id="text_1">
     <!-- 网络节点数 (n) -->
     <g transform="translate(185.343125 274.681875) scale(0.12 -0.12)">
      <defs>
       <path id="ArialUnicodeMS-7f51" d="M 5650 72 
Q 5650 -122 5526 -247 
Q 5403 -372 5222 -372 
L 4581 -372 
L 4397 109 
L 5075 84 
Q 5116 91 5166 141 
L 5166 4525 
L 1241 4525 
L 1241 -384 
L 750 -384 
L 750 4991 
L 5650 4991 
L 5650 72 
z
M 5056 1269 
L 4616 984 
Q 4497 1444 4091 2175 
Q 3647 1288 3200 794 
L 2772 1088 
Q 3350 1638 3781 2606 
Q 3378 3181 2994 3609 
L 3378 3872 
Q 3947 3200 3975 3144 
Q 4253 4088 4294 4359 
L 4744 4231 
Q 4534 3309 4300 2681 
Q 4781 2000 5056 1269 
z
M 3263 1863 
L 2881 1556 
Q 2731 1978 2509 2284 
Q 2241 1591 1709 959 
L 1300 1259 
Q 1859 1841 2181 2759 
Q 1866 3238 1338 3719 
L 1728 3988 
Q 1800 3934 2363 3291 
Q 2531 3775 2606 4341 
L 3059 4197 
Q 2959 3647 2706 2853 
Q 3097 2319 3263 1863 
z
" transform="scale(0.015625)"/>
       <path id="ArialUnicodeMS-7edc" d="M 6188 2400 
L 5906 1931 
Q 4847 2222 4250 2797 
Q 3456 2172 2669 1931 
L 2375 2375 
Q 3369 2694 3916 3175 
Q 3706 3413 3413 3944 
Q 3113 3506 2766 3250 
L 2406 3591 
Q 2800 3900 3109 4426 
Q 3419 4953 3469 5422 
L 3938 5253 
Q 3897 5056 3803 4794 
L 5453 4794 
L 5453 4353 
Q 5231 3763 4616 3138 
Q 5163 2563 6188 2400 
z
M 4909 4325 
L 3769 4325 
Q 3872 4091 4306 3513 
Q 4681 3866 4909 4325 
z
M 2438 3891 
Q 1738 2478 1209 1869 
L 1222 1856 
L 2425 2106 
L 2425 1644 
Q 906 1300 769 1241 
L 500 1697 
Q 859 2056 1447 2975 
Q 1266 2975 716 2834 
L 513 3219 
Q 1163 4259 1503 5294 
L 1919 5063 
Q 1641 4163 1106 3353 
Q 1297 3369 1678 3438 
Q 1772 3597 2034 4116 
L 2438 3891 
z
M 5388 -403 
L 4909 -403 
L 4909 13 
L 3603 13 
L 3603 -403 
L 3122 -403 
L 3122 2053 
L 5388 2053 
L 5388 -403 
z
M 4909 481 
L 4909 1588 
L 3603 1588 
L 3603 481 
L 4909 481 
z
M 2528 709 
L 709 78 
L 475 481 
Q 1294 734 2528 1191 
L 2528 709 
z
" transform="scale(0.015625)"/>
       <path id="ArialUnicodeMS-8282" d="M 5831 4128 
L 4256 4128 
L 4256 3384 
L 3769 3384 
L 3769 4128 
L 2431 4128 
L 2431 3384 
L 1947 3384 
L 1947 4128 
L 391 4128 
L 403 4588 
L 1947 4588 
L 1947 5319 
L 2431 5319 
L 2431 4588 
L 3769 4588 
L 3769 5319 
L 4256 5319 
L 4256 4588 
L 5831 4588 
L 5831 4128 
z
M 5113 3272 
Q 5050 1375 4948 1004 
Q 4847 634 4456 634 
Q 4238 634 3781 703 
L 3647 1234 
Q 4203 1056 4341 1056 
Q 4466 1056 4511 1322 
Q 4556 1588 4622 2809 
L 2834 2809 
L 2834 -366 
L 2350 -366 
L 2350 2809 
L 756 2809 
L 756 3272 
L 5113 3272 
z
" transform="scale(0.015625)"/>
       <path id="ArialUnicodeMS-70b9" d="M 5522 4225 
L 3213 4225 
L 3213 3597 
L 4972 3597 
L 4972 1459 
L 1338 1459 
L 1338 3597 
L 2725 3597 
L 2725 5313 
L 3213 5313 
L 3213 4666 
L 5522 4666 
L 5522 4225 
z
M 4513 1900 
L 4513 3156 
L 1825 3156 
L 1825 1900 
L 4513 1900 
z
M 6081 -56 
L 5619 -325 
Q 5188 509 4544 1031 
L 4922 1288 
Q 5672 631 6081 -56 
z
M 1856 1044 
Q 1550 141 763 -453 
L 319 -91 
Q 1059 356 1447 1247 
L 1850 1044 
L 1856 1044 
z
M 4538 -109 
L 4072 -288 
Q 3759 481 3272 997 
L 3681 1197 
Q 4216 653 4538 -109 
z
M 3200 -134 
L 2700 -275 
Q 2519 444 2047 1013 
L 2463 1184 
Q 2925 600 3200 -134 
z
" transform="scale(0.015625)"/>
       <path id="ArialUnicodeMS-6570" d="M 6138 19 
L 5806 -378 
Q 5031 194 4697 716 
Q 4344 144 3328 -441 
L 2981 -50 
Q 3966 434 4403 1153 
Q 4038 1834 3866 2753 
Q 3678 2356 3353 1919 
L 2950 2203 
Q 3838 3172 3963 5253 
L 4409 5125 
Q 4341 4384 4269 4006 
L 5984 4006 
L 5984 3547 
L 5619 3541 
L 5594 3341 
Q 5441 2113 4978 1191 
Q 5281 672 6138 19 
z
M 5166 3541 
L 4172 3541 
Q 4297 2419 4691 1650 
Q 5038 2513 5166 3541 
z
M 3438 3653 
L 2209 3653 
L 2209 2338 
L 1919 2338 
Q 1900 2269 1753 1931 
L 3225 1931 
L 3225 1472 
L 2913 1472 
Q 2763 991 2503 666 
Q 2947 353 3103 184 
L 2747 -172 
Q 2463 138 2150 313 
Q 1322 -225 563 -428 
L 269 6 
Q 1106 163 1684 563 
Q 1291 756 703 884 
L 1038 1472 
L 403 1472 
L 403 1931 
L 1259 1931 
Q 1328 2056 1466 2553 
L 1747 2484 
L 1747 3653 
L 1716 3653 
Q 1413 2881 678 2456 
L 378 2803 
Q 938 3091 1241 3653 
L 403 3653 
L 403 4122 
L 1747 4122 
L 1747 5228 
L 2209 5228 
L 2209 4122 
L 3438 4122 
L 3438 3653 
z
M 2406 1472 
L 1538 1472 
Q 1422 1241 1369 1153 
Q 1388 1159 2069 884 
Q 2219 1031 2406 1472 
z
M 1625 4441 
L 1288 4159 
Q 1022 4547 575 4813 
L 878 5075 
Q 1394 4844 1625 4441 
z
M 3384 4844 
Q 3097 4409 2669 4172 
L 2322 4481 
Q 2806 4759 3047 5069 
L 3384 4844 
z
M 3303 2888 
L 2944 2578 
Q 2706 3025 2291 3297 
L 2584 3566 
Q 2988 3359 3303 2888 
z
" transform="scale(0.015625)"/>
       <path id="ArialUnicodeMS-20" transform="scale(0.015625)"/>
       <path id="ArialUnicodeMS-28" d="M 1900 -1344 
L 1497 -1344 
Q 978 -681 681 103 
Q 384 888 384 1656 
Q 384 2528 700 3275 
Q 1016 4022 1497 4659 
L 1900 4659 
Q 1344 3747 1155 3059 
Q 966 2372 966 1663 
Q 966 153 1900 -1344 
z
" transform="scale(0.015625)"/>
       <path id="ArialUnicodeMS-6e" d="M 3138 0 
L 2572 0 
L 2572 2016 
Q 2572 2525 2389 2715 
Q 2206 2906 1881 2906 
Q 1631 2906 1407 2784 
Q 1184 2663 1090 2441 
Q 997 2219 997 1813 
L 997 0 
L 434 0 
L 434 3316 
L 941 3316 
L 941 2847 
L 953 2847 
Q 1131 3119 1392 3255 
Q 1653 3391 1997 3391 
Q 2259 3391 2515 3297 
Q 2772 3203 2917 3015 
Q 3063 2828 3100 2615 
Q 3138 2403 3138 2041 
L 3138 0 
z
" transform="scale(0.015625)"/>
       <path id="ArialUnicodeMS-29" d="M 634 4659 
Q 1153 3997 1450 3212 
Q 1747 2428 1747 1656 
Q 1747 788 1431 41 
Q 1116 -706 634 -1344 
L 231 -1344 
Q 788 -431 977 255 
Q 1166 941 1166 1650 
Q 1166 3163 231 4659 
L 634 4659 
z
" transform="scale(0.015625)"/>
      </defs>
      <use xlink:href="#ArialUnicodeMS-7f51"/>
      <use xlink:href="#ArialUnicodeMS-7edc" x="100"/>
      <use xlink:href="#ArialUnicodeMS-8282" x="200"/>
      <use xlink:href="#ArialUnicodeMS-70b9" x="300"/>
      <use xlink:href="#ArialUnicodeMS-6570" x="400"/>
      <use xlink:href="#ArialUnicodeMS-20" x="500"/>
      <use xlink:href="#ArialUnicodeMS-28" x="527.783203"/>
      <use xlink:href="#ArialUnicodeMS-6e" x="561.083984"/>
      <use xlink:href="#ArialUnicodeMS-29" x="616.699219"/>
     </g>
    </g>
   </g>
   <g id="matplotlib.axis_2">
    <g id="text_2">
     <!-- 网络总价值 (V) -->
     <g transform="translate(20.964375 175.3225) rotate(-90) scale(0.12 -0.12)">
      <defs>
       <path id="ArialUnicodeMS-603b" d="M 4769 1806 
L 1478 1806 
L 1478 4078 
L 2419 4078 
Q 2128 4613 1550 5044 
L 1931 5306 
Q 2534 4856 2841 4281 
L 2547 4084 
L 2547 4078 
L 3738 4078 
L 3738 4084 
L 3406 4281 
Q 3853 4584 4219 5306 
L 4581 5056 
Q 4338 4425 3897 4084 
L 3909 4078 
L 4769 4078 
L 4769 1806 
z
M 4281 2272 
L 4281 3609 
L 1966 3609 
L 1966 2272 
L 4281 2272 
z
M 3950 825 
L 3541 538 
Q 3347 1056 2859 1459 
L 3213 1716 
Q 3631 1331 3950 825 
z
M 4903 709 
Q 4700 -9 4409 -91 
L 4225 -141 
L 2431 -141 
Q 2250 -141 2108 -1 
Q 1966 138 1966 306 
L 1966 1556 
L 2450 1556 
L 2450 422 
Q 2475 325 2584 325 
L 4178 325 
Q 4259 325 4340 517 
Q 4422 709 4447 966 
L 4903 709 
z
M 6003 409 
L 5619 103 
Q 5209 828 4653 1222 
L 5019 1497 
Q 5606 1100 6003 409 
z
M 1778 1216 
Q 1475 497 744 -25 
L 403 306 
Q 972 709 1459 1472 
L 1778 1216 
z
" transform="scale(0.015625)"/>
       <path id="ArialUnicodeMS-4ef7" d="M 6284 2975 
L 5900 2572 
Q 4847 3084 3928 4519 
Q 3178 3188 2041 2584 
L 1697 2981 
Q 3113 3628 3859 5422 
L 4281 5184 
L 4206 4997 
Q 5038 3547 6284 2975 
z
M 2241 5172 
Q 2156 4775 1913 4147 
L 1672 3531 
L 1672 -428 
L 1184 -428 
L 1184 2663 
Q 1113 2534 659 2041 
L 213 2322 
Q 1372 3522 1784 5344 
L 2241 5172 
z
M 4984 -409 
L 4500 -409 
L 4500 3116 
L 4984 3116 
L 4984 -409 
z
M 3397 1791 
Q 3397 1034 3097 531 
Q 2797 28 2059 -475 
L 1697 -72 
Q 2209 191 2561 647 
Q 2913 1103 2913 1528 
L 2913 3116 
L 3397 3116 
L 3397 1791 
z
" transform="scale(0.015625)"/>
       <path id="ArialUnicodeMS-503c" d="M 6034 -172 
L 1791 -172 
L 1791 294 
L 2344 294 
L 2344 3853 
L 3425 3853 
Q 3544 4109 3609 4341 
L 1925 4341 
L 1919 4672 
Q 1841 4369 1691 3981 
L 1544 3622 
L 1544 -434 
L 1056 -434 
L 1056 2753 
Q 859 2466 634 2241 
L 238 2516 
Q 1222 3619 1588 5325 
L 2028 5172 
Q 2009 5038 1953 4806 
L 3731 4806 
Q 3772 4997 3781 5338 
L 4275 5253 
Q 4275 5013 4225 4806 
L 5813 4806 
L 5813 4341 
L 4134 4341 
Q 4091 4188 3956 3853 
L 5409 3853 
L 5409 294 
L 6034 294 
L 6034 -172 
z
M 4922 2994 
L 4922 3384 
L 2828 3384 
L 2828 2994 
L 4922 2994 
z
M 4922 2138 
L 4922 2584 
L 2828 2584 
L 2828 2138 
L 4922 2138 
z
M 4922 1241 
L 4922 1716 
L 2828 1716 
L 2828 1241 
L 4922 1241 
z
M 4922 294 
L 4922 825 
L 2828 825 
L 2828 294 
L 4922 294 
z
" transform="scale(0.015625)"/>
       <path id="ArialUnicodeMS-56" d="M 4225 4581 
L 2431 0 
L 1813 0 
L 38 4581 
L 691 4581 
L 1881 1253 
Q 2016 934 2119 506 
L 2131 506 
Q 2225 872 2369 1253 
L 3609 4581 
L 4225 4581 
z
" transform="scale(0.015625)"/>
      </defs>
      <use xlink:href="#ArialUnicodeMS-7f51"/>
      <use xlink:href="#ArialUnicodeMS-7edc" x="100"/>
      <use xlink:href="#ArialUnicodeMS-603b" x="200"/>
      <use xlink:href="#ArialUnicodeMS-4ef7" x="300"/>
      <use xlink:href="#ArialUnicodeMS-503c" x="400"/>
      <use xlink:href="#ArialUnicodeMS-20" x="500"/>
      <use xlink:href="#ArialUnicodeMS-28" x="527.783203"/>
      <use xlink:href="#ArialUnicodeMS-56" x="561.083984"/>
      <use xlink:href="#ArialUnicodeMS-29" x="627.783203"/>
     </g>
    </g>
   </g>
   <g id="line2d_1">
    <path d="M 45.38054 249.013749 
L 48.995927 248.521117 
L 52.611313 248.028485 
L 56.2267 247.535853 
L 59.842087 247.043221 
L 63.457474 246.550588 
L 67.072861 246.057956 
L 70.688248 245.565324 
L 74.303634 245.072692 
L 77.919021 244.58006 
L 81.534408 244.087428 
L 85.149795 243.594796 
L 88.765182 243.102163 
L 92.380568 242.609531 
L 95.995955 242.116899 
L 99.611342 241.624267 
L 103.226729 241.131635 
L 106.842116 240.639003 
L 110.457503 240.146371 
L 114.072889 239.653738 
L 117.688276 239.161106 
L 121.303663 238.668474 
L 124.91905 238.175842 
L 128.534437 237.68321 
L 132.149824 237.190578 
L 135.76521 236.697946 
L 139.380597 236.205313 
L 142.995984 235.712681 
L 146.611371 235.220049 
L 150.226758 234.727417 
L 153.842144 234.234785 
L 157.457531 233.742153 
L 161.072918 233.249521 
L 164.688305 232.756888 
L 168.303692 232.264256 
L 171.919079 231.771624 
L 175.534465 231.278992 
L 179.149852 230.78636 
L 182.765239 230.293728 
L 186.380626 229.801096 
L 189.996013 229.308463 
L 193.6114 228.815831 
L 197.226786 228.323199 
L 200.842173 227.830567 
L 204.45756 227.337935 
L 208.072947 226.845303 
L 211.688334 226.352671 
L 215.30372 225.860038 
L 218.919107 225.367406 
L 222.534494 224.874774 
L 226.149881 224.382142 
L 229.765268 223.88951 
L 233.380655 223.396878 
L 236.996041 222.904246 
L 240.611428 222.411613 
L 244.226815 221.918981 
L 247.842202 221.426349 
L 251.457589 220.933717 
L 255.072975 220.441085 
L 258.688362 219.948453 
L 262.303749 219.455821 
L 265.919136 218.963188 
L 269.534523 218.470556 
L 273.14991 217.977924 
L 276.765296 217.485292 
L 280.380683 216.99266 
L 283.99607 216.500028 
L 287.611457 216.007396 
L 291.226844 215.514763 
L 294.842231 215.022131 
L 298.457617 214.529499 
L 302.073004 214.036867 
L 305.688391 213.544235 
L 309.303778 213.051603 
L 312.919165 212.558971 
L 316.534551 212.066338 
L 320.149938 211.573706 
L 323.765325 211.081074 
L 327.380712 210.588442 
L 330.996099 210.09581 
L 334.611486 209.603178 
L 338.226872 209.110546 
L 341.842259 208.617913 
L 345.457646 208.125281 
L 349.073033 207.632649 
L 352.68842 207.140017 
L 356.303807 206.647385 
L 359.919193 206.154753 
L 363.53458 205.662121 
L 367.149967 205.169488 
L 370.765354 204.676856 
L 374.380741 204.184224 
L 377.996127 203.691592 
L 381.611514 203.19896 
L 385.226901 202.706328 
L 388.842288 202.213696 
L 392.457675 201.721063 
L 396.073062 201.228431 
L 399.688448 200.735799 
L 403.303835 200.243167 
" clip-path="url(#p2d439fadf2)" style="fill: none; stroke-dasharray: 5.55,2.4; stroke-dashoffset: 0; stroke: #95a5a6; stroke-width: 1.5"/>
   </g>
   <g id="line2d_2">
    <path d="M 45.38054 249.164915 
L 48.995927 248.423958 
L 52.611313 247.457582 
L 56.2267 246.334938 
L 59.842087 245.09299 
L 63.457474 243.754674 
L 67.072861 242.335583 
L 70.688248 240.846994 
L 74.303634 239.297434 
L 77.919021 237.693578 
L 81.534408 236.040788 
L 85.149795 234.343463 
L 88.765182 232.605283 
L 92.380568 230.829365 
L 95.995955 229.018386 
L 99.611342 227.17467 
L 103.226729 225.300251 
L 106.842116 223.396926 
L 110.457503 221.466295 
L 114.072889 219.509789 
L 117.688276 217.528697 
L 121.303663 215.524186 
L 124.91905 213.497318 
L 128.534437 211.449061 
L 132.149824 209.380304 
L 135.76521 207.291867 
L 139.380597 205.184503 
L 142.995984 203.058913 
L 146.611371 200.915746 
L 150.226758 198.755607 
L 153.842144 196.579061 
L 157.457531 194.386637 
L 161.072918 192.178829 
L 164.688305 189.956104 
L 168.303692 187.7189 
L 171.919079 185.467629 
L 175.534465 183.202682 
L 179.149852 180.924429 
L 182.765239 178.633218 
L 186.380626 176.329383 
L 189.996013 174.013237 
L 193.6114 171.685082 
L 197.226786 169.345203 
L 200.842173 166.993872 
L 204.45756 164.63135 
L 208.072947 162.257884 
L 211.688334 159.873713 
L 215.30372 157.479064 
L 218.919107 155.074156 
L 222.534494 152.659197 
L 226.149881 150.234389 
L 229.765268 147.799924 
L 233.380655 145.355988 
L 236.996041 142.90276 
L 240.611428 140.440412 
L 244.226815 137.969109 
L 247.842202 135.489011 
L 251.457589 133.000273 
L 255.072975 130.503043 
L 258.688362 127.997465 
L 262.303749 125.483679 
L 265.919136 122.961818 
L 269.534523 120.432014 
L 273.14991 117.894391 
L 276.765296 115.349073 
L 280.380683 112.796177 
L 283.99607 110.235818 
L 287.611457 107.668108 
L 291.226844 105.093155 
L 294.842231 102.511063 
L 298.457617 99.921934 
L 302.073004 97.325869 
L 305.688391 94.722962 
L 309.303778 92.113308 
L 312.919165 89.496998 
L 316.534551 86.87412 
L 320.149938 84.244761 
L 323.765325 81.609005 
L 327.380712 78.966935 
L 330.996099 76.318629 
L 334.611486 73.664166 
L 338.226872 71.003622 
L 341.842259 68.337071 
L 345.457646 65.664585 
L 349.073033 62.986236 
L 352.68842 60.302091 
L 356.303807 57.612219 
L 359.919193 54.916685 
L 363.53458 52.215553 
L 367.149967 49.508887 
L 370.765354 46.796747 
L 374.380741 44.079195 
L 377.996127 41.356288 
L 381.611514 38.628085 
L 385.226901 35.894641 
L 388.842288 33.156013 
L 392.457675 30.412253 
L 396.073062 27.663415 
L 399.688448 24.90955 
L 403.303835 22.15071 
" clip-path="url(#p2d439fadf2)" style="fill: none; stroke: #8e44ad; stroke-width: 2; stroke-linecap: square"/>
   </g>
   <g id="patch_3">
    <path d="M 27.484375 260.515625 
L 27.484375 10.8 
" style="fill: none; stroke: #000000; stroke-width: 0.8; stroke-linejoin: miter; stroke-linecap: square"/>
   </g>
   <g id="patch_4">
    <path d="M 27.484375 260.515625 
L 421.2 260.515625 
" style="fill: none; stroke: #000000; stroke-width: 0.8; stroke-linejoin: miter; stroke-linecap: square"/>
   </g>
   <g id="legend_1">
    <g id="line2d_3">
     <path d="M 36.484375 24.7 
L 46.484375 24.7 
L 56.484375 24.7 
" style="fill: none; stroke-dasharray: 5.55,2.4; stroke-dashoffset: 0; stroke: #95a5a6; stroke-width: 1.5"/>
    </g>
    <g id="text_3">
     <!-- 线性增长 ($V \propto n$) -->
     <g transform="translate(64.484375 28.2) scale(0.1 -0.1)">
      <defs>
       <path id="ArialUnicodeMS-7ebf" d="M 2503 3981 
Q 1903 2625 1141 1947 
L 1153 1931 
L 2444 2144 
L 2456 1709 
Q 1428 1534 575 1313 
L 341 1772 
Q 934 2234 1344 2919 
L 563 2725 
L 347 3206 
Q 1059 4156 1325 5319 
Q 1403 5288 1551 5209 
Q 1700 5131 1791 5100 
Q 1441 3947 959 3316 
Q 1597 3375 1650 3397 
Q 1944 3938 2059 4225 
L 2503 3981 
z
M 5997 481 
Q 5925 44 5808 -170 
Q 5691 -384 5497 -384 
Q 5319 -384 4869 -115 
Q 4419 153 4031 666 
Q 3594 188 2388 -341 
L 2088 72 
Q 3097 466 3763 1088 
Q 3503 1550 3406 2419 
L 2484 2272 
L 2406 2725 
L 3378 2900 
L 3378 3397 
L 2606 3278 
L 2522 3731 
L 3378 3891 
L 3378 5209 
Q 3763 5288 3866 5294 
L 3866 3975 
L 5409 4231 
L 5497 3781 
Q 4550 3622 3866 3481 
L 3866 2994 
L 5772 3341 
Q 5825 3150 5856 2875 
L 3884 2516 
Q 3988 1794 4147 1466 
Q 4731 1991 5075 2484 
L 5453 2222 
Q 4731 1353 4372 1025 
Q 4753 456 5403 153 
Q 5494 378 5509 750 
L 5997 481 
z
M 5166 4544 
L 4831 4225 
Q 4478 4656 4019 4856 
L 4306 5178 
Q 4784 4956 5166 4544 
z
M 2578 872 
L 531 134 
Q 500 197 412 347 
Q 325 497 281 603 
L 2578 1369 
L 2578 872 
z
" transform="scale(0.015625)"/>
       <path id="ArialUnicodeMS-6027" d="M 6088 6 
L 2322 6 
L 2322 475 
L 3928 475 
L 3928 1778 
L 2669 1778 
L 2669 2247 
L 3928 2247 
L 3928 3463 
L 3169 3463 
Q 2978 2881 2606 2375 
L 2113 2597 
Q 2363 2838 2438 3003 
L 2203 2900 
Q 2078 3494 1766 3866 
L 1766 -434 
L 1281 -434 
L 1281 5281 
L 1766 5281 
L 1766 3928 
L 2138 4128 
Q 2413 3813 2597 3347 
Q 2844 3763 2894 4775 
L 3378 4647 
Q 3363 4338 3291 3928 
L 3928 3928 
L 3928 5294 
L 4416 5294 
L 4416 3928 
L 5759 3928 
L 5759 3463 
L 4416 3463 
L 4416 2247 
L 5569 2247 
L 5569 1778 
L 4416 1778 
L 4416 475 
L 6088 475 
L 6088 6 
z
M 1241 3897 
Q 1175 2956 763 2344 
L 347 2528 
Q 819 3406 819 4025 
L 1241 3897 
z
" transform="scale(0.015625)"/>
       <path id="ArialUnicodeMS-589e" d="M 6150 4122 
L 5806 3738 
L 5538 3916 
L 5538 2328 
L 2613 2328 
L 2613 4006 
Q 2384 3853 2234 3763 
L 1875 4141 
Q 2216 4300 2650 4664 
Q 3084 5028 3250 5313 
L 3653 5019 
Q 3500 4719 2994 4294 
L 5063 4294 
Q 4538 4741 4347 5013 
L 4756 5313 
Q 5306 4622 6150 4122 
z
M 5050 2797 
L 5050 3828 
L 4294 3828 
L 4294 2797 
L 5050 2797 
z
M 5044 3494 
Q 4969 3178 4684 2828 
L 4325 3091 
Q 4597 3397 4653 3675 
L 5044 3494 
z
M 3841 2797 
L 3841 3828 
L 3097 3828 
L 3097 2797 
L 3841 2797 
z
M 3816 3053 
L 3431 2869 
Q 3338 3281 3122 3541 
L 3519 3731 
Q 3731 3534 3816 3053 
z
M 2503 1319 
L 672 647 
L 331 1081 
Q 822 1194 1259 1350 
L 1259 3103 
L 544 3103 
L 544 3572 
L 1259 3572 
L 1259 5141 
L 1747 5141 
L 1747 3572 
L 2456 3572 
L 2456 3103 
L 1747 3103 
L 1747 1538 
L 2503 1806 
L 2503 1319 
z
M 5344 -397 
L 4856 -397 
L 4856 -31 
L 3334 -31 
L 3334 -397 
L 2847 -397 
L 2847 2169 
L 5344 2169 
L 5344 -397 
z
M 4856 1325 
L 4856 1703 
L 3334 1703 
L 3334 1325 
L 4856 1325 
z
M 4856 434 
L 4856 856 
L 3334 856 
L 3334 434 
L 4856 434 
z
" transform="scale(0.015625)"/>
       <path id="ArialUnicodeMS-957f" d="M 6125 306 
L 5797 -122 
Q 3488 722 2981 2413 
L 2259 2413 
L 2259 319 
L 3597 844 
L 3597 366 
L 1984 -347 
L 1697 84 
Q 1772 172 1772 331 
L 1772 2413 
L 384 2413 
L 384 2881 
L 1772 2881 
L 1772 5269 
L 2259 5269 
L 2259 3553 
Q 3700 4050 4738 4916 
L 5069 4550 
Q 3859 3588 2259 3084 
L 2259 2881 
L 5978 2881 
L 5978 2413 
L 3469 2413 
Q 3947 959 6125 306 
z
" transform="scale(0.015625)"/>
       <path id="DejaVuSans-Oblique-56" d="M 1319 0 
L 500 4666 
L 1119 4666 
L 1797 653 
L 4063 4666 
L 4750 4666 
L 2053 0 
L 1319 0 
z
" transform="scale(0.015625)"/>
       <path id="DejaVuSans-221d" d="M 1647 1134 
Q 2163 1134 2472 1884 
Q 2075 2703 1647 2703 
Q 1334 2703 1175 2478 
Q 1006 2238 1006 1919 
Q 1006 1569 1175 1353 
Q 1350 1134 1647 1134 
z
M 3884 1128 
L 3884 716 
L 3644 716 
Q 3416 716 3247 809 
Q 3078 894 2916 1091 
Q 2819 1203 2666 1466 
Q 2456 1091 2272 925 
Q 2044 725 1681 725 
Q 1259 725 981 1041 
Q 688 1372 688 1919 
Q 688 2444 981 2800 
Q 1241 3116 1688 3116 
Q 1916 3116 2084 3022 
Q 2281 2919 2416 2741 
Q 2541 2581 2666 2366 
Q 2875 2741 3059 2906 
Q 3288 3106 3650 3106 
L 3884 3106 
L 3884 2697 
L 3684 2697 
Q 3222 2697 2859 1947 
Q 3256 1128 3684 1128 
L 3884 1128 
z
" transform="scale(0.015625)"/>
       <path id="DejaVuSans-Oblique-6e" d="M 3566 2113 
L 3156 0 
L 2578 0 
L 2988 2091 
Q 3016 2238 3031 2350 
Q 3047 2463 3047 2528 
Q 3047 2791 2881 2937 
Q 2716 3084 2419 3084 
Q 1956 3084 1622 2776 
Q 1288 2469 1184 1941 
L 800 0 
L 225 0 
L 903 3500 
L 1478 3500 
L 1363 2950 
Q 1603 3253 1940 3418 
Q 2278 3584 2650 3584 
Q 3113 3584 3367 3334 
Q 3622 3084 3622 2631 
Q 3622 2519 3608 2391 
Q 3594 2263 3566 2113 
z
" transform="scale(0.015625)"/>
      </defs>
      <use xlink:href="#ArialUnicodeMS-7ebf" transform="translate(0 0.890625)"/>
      <use xlink:href="#ArialUnicodeMS-6027" transform="translate(100 0.890625)"/>
      <use xlink:href="#ArialUnicodeMS-589e" transform="translate(200 0.890625)"/>
      <use xlink:href="#ArialUnicodeMS-957f" transform="translate(300 0.890625)"/>
      <use xlink:href="#ArialUnicodeMS-20" transform="translate(400 0.890625)"/>
      <use xlink:href="#ArialUnicodeMS-28" transform="translate(427.783203 0.890625)"/>
      <use xlink:href="#DejaVuSans-Oblique-56" transform="translate(461.083984 0.890625)"/>
      <use xlink:href="#DejaVuSans-221d" transform="translate(548.974609 0.890625)"/>
      <use xlink:href="#DejaVuSans-Oblique-6e" transform="translate(639.892578 0.890625)"/>
      <use xlink:href="#ArialUnicodeMS-29" transform="translate(703.271484 0.890625)"/>
     </g>
    </g>
    <g id="line2d_4">
     <path d="M 36.484375 40.2 
L 46.484375 40.2 
L 56.484375 40.2 
" style="fill: none; stroke: #8e44ad; stroke-width: 2; stroke-linecap: square"/>
    </g>
    <g id="text_4">
     <!-- 超线性增长 ($V \propto n \log n$) -->
     <g transform="translate(64.484375 43.7) scale(0.1 -0.1)">
      <defs>
       <path id="ArialUnicodeMS-8d85" d="M 6138 378 
L 5906 -141 
L 3122 -141 
Q 2075 -141 1191 666 
Q 1025 25 641 -434 
L 213 -166 
Q 534 172 712 720 
Q 891 1269 872 2419 
L 1338 2369 
Q 1350 2209 1350 2038 
Q 1350 1669 1288 1184 
Q 1572 891 1791 756 
L 1791 2834 
L 422 2834 
L 422 3303 
L 1556 3303 
L 1556 4134 
L 678 4134 
L 678 4603 
L 1556 4603 
L 1556 5331 
L 2041 5331 
L 2041 4603 
L 2988 4603 
L 2988 4134 
L 2041 4134 
L 2041 3303 
L 3213 3303 
L 3213 3053 
Q 3572 3281 3755 3697 
Q 3938 4113 3903 4575 
L 3175 4575 
L 3175 5044 
L 5716 5044 
Q 5697 4272 5581 3739 
Q 5466 3206 5347 3100 
Q 5228 2994 4916 2994 
Q 4759 2994 4441 3028 
L 4244 3541 
Q 4691 3456 4909 3456 
Q 4997 3456 5042 3562 
Q 5088 3669 5142 3973 
Q 5197 4278 5216 4575 
L 4403 4575 
Q 4356 3288 3572 2747 
L 3572 2731 
L 5528 2731 
L 5528 550 
L 5044 550 
L 5044 831 
L 3834 831 
L 3834 538 
L 3347 538 
L 3347 2553 
L 3194 2450 
L 2747 2778 
L 2847 2834 
L 2278 2834 
L 2278 2113 
L 3116 2113 
L 3116 1644 
L 2278 1644 
L 2278 494 
Q 2659 325 3094 325 
Q 3191 325 3969 356 
Q 4747 388 6138 378 
z
M 5044 1300 
L 5044 2266 
L 3834 2266 
L 3834 1300 
L 5044 1300 
z
" transform="scale(0.015625)"/>
       <path id="DejaVuSans-6c" d="M 603 4863 
L 1178 4863 
L 1178 0 
L 603 0 
L 603 4863 
z
" transform="scale(0.015625)"/>
       <path id="DejaVuSans-6f" d="M 1959 3097 
Q 1497 3097 1228 2736 
Q 959 2375 959 1747 
Q 959 1119 1226 758 
Q 1494 397 1959 397 
Q 2419 397 2687 759 
Q 2956 1122 2956 1747 
Q 2956 2369 2687 2733 
Q 2419 3097 1959 3097 
z
M 1959 3584 
Q 2709 3584 3137 3096 
Q 3566 2609 3566 1747 
Q 3566 888 3137 398 
Q 2709 -91 1959 -91 
Q 1206 -91 779 398 
Q 353 888 353 1747 
Q 353 2609 779 3096 
Q 1206 3584 1959 3584 
z
" transform="scale(0.015625)"/>
       <path id="DejaVuSans-67" d="M 2906 1791 
Q 2906 2416 2648 2759 
Q 2391 3103 1925 3103 
Q 1463 3103 1205 2759 
Q 947 2416 947 1791 
Q 947 1169 1205 825 
Q 1463 481 1925 481 
Q 2391 481 2648 825 
Q 2906 1169 2906 1791 
z
M 3481 434 
Q 3481 -459 3084 -895 
Q 2688 -1331 1869 -1331 
Q 1566 -1331 1297 -1286 
Q 1028 -1241 775 -1147 
L 775 -588 
Q 1028 -725 1275 -790 
Q 1522 -856 1778 -856 
Q 2344 -856 2625 -561 
Q 2906 -266 2906 331 
L 2906 616 
Q 2728 306 2450 153 
Q 2172 0 1784 0 
Q 1141 0 747 490 
Q 353 981 353 1791 
Q 353 2603 747 3093 
Q 1141 3584 1784 3584 
Q 2172 3584 2450 3431 
Q 2728 3278 2906 2969 
L 2906 3500 
L 3481 3500 
L 3481 434 
z
" transform="scale(0.015625)"/>
      </defs>
      <use xlink:href="#ArialUnicodeMS-8d85" transform="translate(0 0.703125)"/>
      <use xlink:href="#ArialUnicodeMS-7ebf" transform="translate(100 0.703125)"/>
      <use xlink:href="#ArialUnicodeMS-6027" transform="translate(200 0.703125)"/>
      <use xlink:href="#ArialUnicodeMS-589e" transform="translate(300 0.703125)"/>
      <use xlink:href="#ArialUnicodeMS-957f" transform="translate(400 0.703125)"/>
      <use xlink:href="#ArialUnicodeMS-20" transform="translate(500 0.703125)"/>
      <use xlink:href="#ArialUnicodeMS-28" transform="translate(527.783203 0.703125)"/>
      <use xlink:href="#DejaVuSans-Oblique-56" transform="translate(561.083984 0.703125)"/>
      <use xlink:href="#DejaVuSans-221d" transform="translate(648.974609 0.703125)"/>
      <use xlink:href="#DejaVuSans-Oblique-6e" transform="translate(739.892578 0.703125)"/>
      <use xlink:href="#DejaVuSans-6c" transform="translate(803.271484 0.703125)"/>
      <use xlink:href="#DejaVuSans-6f" transform="translate(831.054688 0.703125)"/>
      <use xlink:href="#DejaVuSans-67" transform="translate(892.236328 0.703125)"/>
      <use xlink:href="#DejaVuSans-Oblique-6e" transform="translate(971.948567 0.703125)"/>
      <use xlink:href="#ArialUnicodeMS-29" transform="translate(1035.327473 0.703125)"/>
     </g>
    </g>
   </g>
  </g>
 </g>
 <defs>
  <clipPath id="p2d439fadf2">
   <rect x="27.484375" y="10.8" width="393.715625" height="249.715625"/>
  </clipPath>
 </defs>
</svg>
