<?xml version="1.0" encoding="utf-8" standalone="no"?>
<!DOCTYPE svg PUBLIC "-//W3C//DTD SVG 1.1//EN"
  "http://www.w3.org/Graphics/SVG/1.1/DTD/svg11.dtd">
<svg xmlns:xlink="http://www.w3.org/1999/xlink" width="432pt" height="288pt" viewBox="0 0 432 288" xmlns="http://www.w3.org/2000/svg" version="1.1">
 <metadata>
  <rdf:RDF xmlns:dc="http://purl.org/dc/elements/1.1/" xmlns:cc="http://creativecommons.org/ns#" xmlns:rdf="http://www.w3.org/1999/02/22-rdf-syntax-ns#">
   <cc:Work>
    <dc:type rdf:resource="http://purl.org/dc/dcmitype/StillImage"/>
    <dc:date>2026-05-11T09:52:22.032720</dc:date>
    <dc:format>image/svg+xml</dc:format>
    <dc:creator>
     <cc:Agent>
      <dc:title>Matplotlib v3.9.4, https://matplotlib.org/</dc:title>
     </cc:Agent>
    </dc:creator>
   </cc:Work>
  </rdf:RDF>
 </metadata>
 <defs>
  <style type="text/css">*{stroke-linejoin: round; stroke-linecap: butt}</style>
 </defs>
 <g id="figure_1">
  <g id="patch_1">
   <path d="M 0 288 
L 432 288 
L 432 0 
L 0 0 
z
" style="fill: #ffffff"/>
  </g>
  <g id="axes_1">
   <g id="patch_2">
    <path d="M 26.0275 262.04 
L 421.2 262.04 
L 421.2 10.8 
L 26.0275 10.8 
z
" style="fill: #ffffff"/>
   </g>
   <g id="matplotlib.axis_1">
    <g id="text_1">
     <!-- Number of Nodes (n) -->
     <g transform="translate(167.59625 274.775625) scale(0.12 -0.12)">
      <defs>
       <path id="ArialUnicodeMS-4e" d="M 4109 0 
L 3488 0 
L 1094 3597 
L 1081 3597 
L 1081 0 
L 506 0 
L 506 4581 
L 1125 4581 
L 3519 984 
L 3531 984 
L 3531 4581 
L 4109 4581 
L 4109 0 
z
" transform="scale(0.015625)"/>
       <path id="ArialUnicodeMS-75" d="M 3116 0 
L 2613 0 
L 2613 488 
L 2597 488 
Q 2216 -78 1556 -78 
Q 1209 -78 914 83 
Q 619 244 520 526 
Q 422 809 422 1259 
L 422 3316 
L 984 3316 
L 984 1478 
Q 984 1038 1026 847 
Q 1069 656 1247 532 
Q 1425 409 1672 409 
Q 1991 409 2272 629 
Q 2553 850 2553 1544 
L 2553 3316 
L 3116 3316 
L 3116 0 
z
" transform="scale(0.015625)"/>
       <path id="ArialUnicodeMS-6d" d="M 4922 0 
L 4359 0 
L 4359 2094 
Q 4359 2325 4328 2489 
Q 4297 2653 4167 2779 
Q 4038 2906 3763 2906 
Q 3431 2906 3190 2675 
Q 2950 2444 2950 1925 
L 2950 0 
L 2388 0 
L 2388 2156 
Q 2388 2588 2236 2747 
Q 2084 2906 1806 2906 
Q 1444 2906 1211 2656 
Q 978 2406 978 1722 
L 978 0 
L 416 0 
L 416 3316 
L 922 3316 
L 922 2853 
L 934 2853 
Q 1272 3391 1925 3391 
Q 2291 3391 2527 3245 
Q 2763 3100 2869 2809 
Q 3238 3391 3891 3391 
Q 4406 3391 4664 3112 
Q 4922 2834 4922 2278 
L 4922 0 
z
" transform="scale(0.015625)"/>
       <path id="ArialUnicodeMS-62" d="M 1006 2944 
Q 1319 3391 1900 3391 
Q 2541 3391 2925 2925 
Q 3309 2459 3309 1709 
Q 3309 844 2879 383 
Q 2450 -78 1875 -78 
Q 1291 -78 966 416 
L 953 416 
L 953 0 
L 428 0 
L 428 4581 
L 991 4581 
L 991 2944 
L 1006 2944 
z
M 1831 384 
Q 2222 384 2476 720 
Q 2731 1056 2731 1663 
Q 2731 2247 2497 2589 
Q 2263 2931 1850 2931 
Q 1444 2931 1195 2578 
Q 947 2225 947 1684 
Q 947 1156 1050 932 
Q 1153 709 1361 546 
Q 1569 384 1831 384 
z
" transform="scale(0.015625)"/>
       <path id="ArialUnicodeMS-65" d="M 3309 1516 
L 825 1516 
Q 859 966 1139 675 
Q 1419 384 1838 384 
Q 2159 384 2378 554 
Q 2597 725 2713 1069 
L 3291 997 
Q 3150 478 2775 200 
Q 2400 -78 1838 -78 
Q 1091 -78 670 380 
Q 250 838 250 1631 
Q 250 2416 658 2903 
Q 1066 3391 1806 3391 
Q 2169 3391 2505 3231 
Q 2841 3072 3075 2689 
Q 3309 2306 3309 1516 
z
M 2731 1978 
Q 2697 2484 2417 2707 
Q 2138 2931 1806 2931 
Q 1409 2931 1153 2665 
Q 897 2400 856 1978 
L 2731 1978 
z
" transform="scale(0.015625)"/>
       <path id="ArialUnicodeMS-72" d="M 2216 3213 
L 2022 2694 
Q 1813 2816 1613 2816 
Q 1297 2816 1134 2533 
Q 972 2250 972 1741 
L 972 0 
L 409 0 
L 409 3316 
L 922 3316 
L 922 2816 
L 934 2816 
Q 1203 3391 1638 3391 
Q 1925 3391 2216 3213 
z
" transform="scale(0.015625)"/>
       <path id="ArialUnicodeMS-20" transform="scale(0.015625)"/>
       <path id="ArialUnicodeMS-6f" d="M 1778 3391 
Q 2450 3391 2892 2953 
Q 3334 2516 3334 1709 
Q 3334 731 2856 326 
Q 2378 -78 1778 -78 
Q 1150 -78 687 337 
Q 225 753 225 1656 
Q 225 2531 672 2961 
Q 1119 3391 1778 3391 
z
M 1778 384 
Q 2259 384 2509 740 
Q 2759 1097 2759 1678 
Q 2759 2300 2476 2615 
Q 2194 2931 1778 2931 
Q 1350 2931 1075 2611 
Q 800 2291 800 1656 
Q 800 1025 1079 704 
Q 1359 384 1778 384 
z
" transform="scale(0.015625)"/>
       <path id="ArialUnicodeMS-66" d="M 1991 4603 
L 1906 4109 
Q 1738 4141 1575 4141 
Q 1372 4141 1242 4055 
Q 1113 3969 1113 3628 
L 1113 3316 
L 1753 3316 
L 1753 2881 
L 1113 2881 
L 1113 0 
L 550 0 
L 550 2881 
L 50 2881 
L 50 3316 
L 550 3316 
L 550 3675 
Q 550 3925 597 4128 
Q 644 4331 845 4495 
Q 1047 4659 1466 4659 
Q 1716 4659 1991 4603 
z
" transform="scale(0.015625)"/>
       <path id="ArialUnicodeMS-64" d="M 3109 0 
L 2584 0 
L 2584 422 
L 2572 422 
Q 2269 -78 1656 -78 
Q 1047 -78 639 405 
Q 231 888 231 1656 
Q 231 2459 615 2925 
Q 1000 3391 1631 3391 
Q 2225 3391 2534 2938 
L 2547 2938 
L 2547 4581 
L 3109 4581 
L 3109 0 
z
M 1716 384 
Q 2084 384 2340 687 
Q 2597 991 2597 1606 
Q 2597 2213 2362 2572 
Q 2128 2931 1691 2931 
Q 1253 2931 1029 2579 
Q 806 2228 806 1656 
Q 806 1244 926 958 
Q 1047 672 1262 528 
Q 1478 384 1716 384 
z
" transform="scale(0.015625)"/>
       <path id="ArialUnicodeMS-73" d="M 2278 2388 
Q 2241 2659 2058 2795 
Q 1875 2931 1550 2931 
Q 1228 2931 1029 2822 
Q 831 2713 831 2503 
Q 831 2306 989 2222 
Q 1147 2138 1613 2016 
Q 2138 1881 2398 1778 
Q 2659 1675 2804 1489 
Q 2950 1303 2950 972 
Q 2950 528 2587 225 
Q 2225 -78 1619 -78 
Q 988 -78 633 189 
Q 278 456 197 991 
L 756 1075 
Q 800 728 1014 556 
Q 1228 384 1613 384 
Q 1981 384 2178 539 
Q 2375 694 2375 916 
Q 2375 1066 2284 1156 
Q 2194 1247 2058 1292 
Q 1922 1338 1447 1453 
Q 741 1622 514 1862 
Q 288 2103 288 2438 
Q 288 2853 619 3122 
Q 950 3391 1509 3391 
Q 2103 3391 2433 3158 
Q 2763 2925 2828 2463 
L 2278 2388 
z
" transform="scale(0.015625)"/>
       <path id="ArialUnicodeMS-28" d="M 1900 -1344 
L 1497 -1344 
Q 978 -681 681 103 
Q 384 888 384 1656 
Q 384 2528 700 3275 
Q 1016 4022 1497 4659 
L 1900 4659 
Q 1344 3747 1155 3059 
Q 966 2372 966 1663 
Q 966 153 1900 -1344 
z
" transform="scale(0.015625)"/>
       <path id="ArialUnicodeMS-6e" d="M 3138 0 
L 2572 0 
L 2572 2016 
Q 2572 2525 2389 2715 
Q 2206 2906 1881 2906 
Q 1631 2906 1407 2784 
Q 1184 2663 1090 2441 
Q 997 2219 997 1813 
L 997 0 
L 434 0 
L 434 3316 
L 941 3316 
L 941 2847 
L 953 2847 
Q 1131 3119 1392 3255 
Q 1653 3391 1997 3391 
Q 2259 3391 2515 3297 
Q 2772 3203 2917 3015 
Q 3063 2828 3100 2615 
Q 3138 2403 3138 2041 
L 3138 0 
z
" transform="scale(0.015625)"/>
       <path id="ArialUnicodeMS-29" d="M 634 4659 
Q 1153 3997 1450 3212 
Q 1747 2428 1747 1656 
Q 1747 788 1431 41 
Q 1116 -706 634 -1344 
L 231 -1344 
Q 788 -431 977 255 
Q 1166 941 1166 1650 
Q 1166 3163 231 4659 
L 634 4659 
z
" transform="scale(0.015625)"/>
      </defs>
      <use xlink:href="#ArialUnicodeMS-4e"/>
      <use xlink:href="#ArialUnicodeMS-75" x="72.216797"/>
      <use xlink:href="#ArialUnicodeMS-6d" x="127.832031"/>
      <use xlink:href="#ArialUnicodeMS-62" x="211.132812"/>
      <use xlink:href="#ArialUnicodeMS-65" x="266.748047"/>
      <use xlink:href="#ArialUnicodeMS-72" x="322.363281"/>
      <use xlink:href="#ArialUnicodeMS-20" x="355.664062"/>
      <use xlink:href="#ArialUnicodeMS-6f" x="383.447266"/>
      <use xlink:href="#ArialUnicodeMS-66" x="439.0625"/>
      <use xlink:href="#ArialUnicodeMS-20" x="466.845703"/>
      <use xlink:href="#ArialUnicodeMS-4e" x="494.628906"/>
      <use xlink:href="#ArialUnicodeMS-6f" x="566.845703"/>
      <use xlink:href="#ArialUnicodeMS-64" x="622.460938"/>
      <use xlink:href="#ArialUnicodeMS-65" x="678.076172"/>
      <use xlink:href="#ArialUnicodeMS-73" x="733.691406"/>
      <use xlink:href="#ArialUnicodeMS-20" x="783.691406"/>
      <use xlink:href="#ArialUnicodeMS-28" x="811.474609"/>
      <use xlink:href="#ArialUnicodeMS-6e" x="844.775391"/>
      <use xlink:href="#ArialUnicodeMS-29" x="900.390625"/>
     </g>
    </g>
   </g>
   <g id="matplotlib.axis_2">
    <g id="text_2">
     <!-- Network Value (V) -->
     <g transform="translate(19.5075 185.100625) rotate(-90) scale(0.12 -0.12)">
      <defs>
       <path id="ArialUnicodeMS-74" d="M 1722 6 
Q 1472 -44 1300 -44 
Q 931 -44 762 86 
Q 594 216 556 416 
Q 519 616 519 972 
L 519 2881 
L 109 2881 
L 109 3316 
L 519 3316 
L 519 4141 
L 1081 4481 
L 1081 3316 
L 1644 3316 
L 1644 2881 
L 1081 2881 
L 1081 941 
Q 1081 691 1132 586 
Q 1184 481 1394 481 
Q 1516 481 1644 506 
L 1722 6 
z
" transform="scale(0.015625)"/>
       <path id="ArialUnicodeMS-77" d="M 4588 3316 
L 3547 0 
L 2963 0 
L 2438 1991 
Q 2434 1991 2371 2259 
Q 2309 2528 2309 2553 
L 2297 2553 
L 1638 0 
L 1050 0 
L 31 3316 
L 616 3316 
L 1338 691 
L 1450 1138 
L 2041 3316 
L 2619 3316 
L 3066 1578 
Q 3253 859 3272 763 
L 3284 763 
L 4038 3316 
L 4588 3316 
z
" transform="scale(0.015625)"/>
       <path id="ArialUnicodeMS-6b" d="M 3175 0 
L 2484 0 
L 1381 1697 
L 984 1319 
L 984 0 
L 422 0 
L 422 4581 
L 984 4581 
L 984 1972 
L 2316 3316 
L 3047 3316 
L 1778 2088 
L 3175 0 
z
" transform="scale(0.015625)"/>
       <path id="ArialUnicodeMS-56" d="M 4225 4581 
L 2431 0 
L 1813 0 
L 38 4581 
L 691 4581 
L 1881 1253 
Q 2016 934 2119 506 
L 2131 506 
Q 2225 872 2369 1253 
L 3609 4581 
L 4225 4581 
z
" transform="scale(0.015625)"/>
       <path id="ArialUnicodeMS-61" d="M 3303 0 
L 2713 0 
Q 2631 156 2597 409 
Q 2031 -78 1375 -78 
Q 850 -78 547 184 
Q 244 447 244 878 
Q 244 1291 536 1558 
Q 828 1825 1550 1913 
L 2075 1991 
Q 2369 2038 2559 2106 
Q 2559 2359 2543 2464 
Q 2528 2569 2451 2681 
Q 2375 2794 2206 2862 
Q 2038 2931 1753 2931 
Q 1391 2931 1180 2797 
Q 969 2663 891 2297 
L 341 2369 
Q 431 2878 806 3134 
Q 1181 3391 1838 3391 
Q 2434 3391 2714 3214 
Q 2994 3038 3058 2788 
Q 3122 2538 3122 2144 
L 3122 1388 
Q 3122 697 3148 461 
Q 3175 225 3303 0 
z
M 2559 1459 
L 2559 1663 
Q 2119 1516 1481 1430 
Q 844 1344 844 891 
Q 844 663 1016 514 
Q 1188 366 1509 366 
Q 1925 366 2242 614 
Q 2559 863 2559 1459 
z
" transform="scale(0.015625)"/>
       <path id="ArialUnicodeMS-6c" d="M 991 0 
L 428 0 
L 428 4581 
L 991 4581 
L 991 0 
z
" transform="scale(0.015625)"/>
      </defs>
      <use xlink:href="#ArialUnicodeMS-4e"/>
      <use xlink:href="#ArialUnicodeMS-65" x="72.216797"/>
      <use xlink:href="#ArialUnicodeMS-74" x="127.832031"/>
      <use xlink:href="#ArialUnicodeMS-77" x="155.615234"/>
      <use xlink:href="#ArialUnicodeMS-6f" x="227.832031"/>
      <use xlink:href="#ArialUnicodeMS-72" x="283.447266"/>
      <use xlink:href="#ArialUnicodeMS-6b" x="316.748047"/>
      <use xlink:href="#ArialUnicodeMS-20" x="366.748047"/>
      <use xlink:href="#ArialUnicodeMS-56" x="394.53125"/>
      <use xlink:href="#ArialUnicodeMS-61" x="461.230469"/>
      <use xlink:href="#ArialUnicodeMS-6c" x="516.845703"/>
      <use xlink:href="#ArialUnicodeMS-75" x="539.0625"/>
      <use xlink:href="#ArialUnicodeMS-65" x="594.677734"/>
      <use xlink:href="#ArialUnicodeMS-20" x="650.292969"/>
      <use xlink:href="#ArialUnicodeMS-28" x="678.076172"/>
      <use xlink:href="#ArialUnicodeMS-56" x="711.376953"/>
      <use xlink:href="#ArialUnicodeMS-29" x="778.076172"/>
     </g>
    </g>
   </g>
   <g id="line2d_1">
    <path d="M 43.989886 250.467912 
L 47.618651 249.972272 
L 51.247416 249.476633 
L 54.876181 248.980993 
L 58.504946 248.485354 
L 62.133711 247.989715 
L 65.762476 247.494075 
L 69.391241 246.998436 
L 73.020006 246.502797 
L 76.648771 246.007157 
L 80.277536 245.511518 
L 83.906301 245.015878 
L 87.535065 244.520239 
L 91.16383 244.0246 
L 94.792595 243.52896 
L 98.42136 243.033321 
L 102.050125 242.537681 
L 105.67889 242.042042 
L 109.307655 241.546403 
L 112.93642 241.050763 
L 116.565185 240.555124 
L 120.19395 240.059484 
L 123.822715 239.563845 
L 127.45148 239.068206 
L 131.080244 238.572566 
L 134.709009 238.076927 
L 138.337774 237.581288 
L 141.966539 237.085648 
L 145.595304 236.590009 
L 149.224069 236.094369 
L 152.852834 235.59873 
L 156.481599 235.103091 
L 160.110364 234.607451 
L 163.739129 234.111812 
L 167.367894 233.616172 
L 170.996659 233.120533 
L 174.625424 232.624894 
L 178.254188 232.129254 
L 181.882953 231.633615 
L 185.511718 231.137976 
L 189.140483 230.642336 
L 192.769248 230.146697 
L 196.398013 229.651057 
L 200.026778 229.155418 
L 203.655543 228.659779 
L 207.284308 228.164139 
L 210.913073 227.6685 
L 214.541838 227.17286 
L 218.170603 226.677221 
L 221.799368 226.181582 
L 225.428132 225.685942 
L 229.056897 225.190303 
L 232.685662 224.694663 
L 236.314427 224.199024 
L 239.943192 223.703385 
L 243.571957 223.207745 
L 247.200722 222.712106 
L 250.829487 222.216467 
L 254.458252 221.720827 
L 258.087017 221.225188 
L 261.715782 220.729548 
L 265.344547 220.233909 
L 268.973312 219.73827 
L 272.602076 219.24263 
L 276.230841 218.746991 
L 279.859606 218.251351 
L 283.488371 217.755712 
L 287.117136 217.260073 
L 290.745901 216.764433 
L 294.374666 216.268794 
L 298.003431 215.773154 
L 301.632196 215.277515 
L 305.260961 214.781876 
L 308.889726 214.286236 
L 312.518491 213.790597 
L 316.147256 213.294958 
L 319.77602 212.799318 
L 323.404785 212.303679 
L 327.03355 211.808039 
L 330.662315 211.3124 
L 334.29108 210.816761 
L 337.919845 210.321121 
L 341.54861 209.825482 
L 345.177375 209.329842 
L 348.80614 208.834203 
L 352.434905 208.338564 
L 356.06367 207.842924 
L 359.692435 207.347285 
L 363.321199 206.851645 
L 366.949964 206.356006 
L 370.578729 205.860367 
L 374.207494 205.364727 
L 377.836259 204.869088 
L 381.465024 204.373449 
L 385.093789 203.877809 
L 388.722554 203.38217 
L 392.351319 202.88653 
L 395.980084 202.390891 
L 399.608849 201.895252 
L 403.237614 201.399612 
" clip-path="url(#pc87e2c4b46)" style="fill: none; stroke-dasharray: 5.55,2.4; stroke-dashoffset: 0; stroke: #95a5a6; stroke-width: 1.5"/>
   </g>
   <g id="line2d_2">
    <path d="M 43.989886 250.62 
L 47.618651 249.87452 
L 51.247416 248.902245 
L 54.876181 247.772748 
L 58.504946 246.523218 
L 62.133711 245.176733 
L 65.762476 243.748979 
L 69.391241 242.251303 
L 73.020006 240.692284 
L 76.648771 239.078638 
L 80.277536 237.415757 
L 83.906301 235.708072 
L 87.535065 233.959281 
L 91.16383 232.172522 
L 94.792595 230.350488 
L 98.42136 228.495517 
L 102.050125 226.609656 
L 105.67889 224.694712 
L 109.307655 222.752296 
L 112.93642 220.783846 
L 116.565185 218.790661 
L 120.19395 216.773913 
L 123.822715 214.734672 
L 127.45148 212.673912 
L 131.080244 210.592527 
L 134.709009 208.49134 
L 138.337774 206.371112 
L 141.966539 204.232547 
L 145.595304 202.076297 
L 149.224069 199.902972 
L 152.852834 197.713139 
L 156.481599 195.507331 
L 160.110364 193.286046 
L 163.739129 191.049753 
L 167.367894 188.798891 
L 170.996659 186.533878 
L 174.625424 184.255105 
L 178.254188 181.962944 
L 181.882953 179.657747 
L 185.511718 177.339848 
L 189.140483 175.009563 
L 192.769248 172.667196 
L 196.398013 170.313033 
L 200.026778 167.947349 
L 203.655543 165.570404 
L 207.284308 163.18245 
L 210.913073 160.783725 
L 214.541838 158.374458 
L 218.170603 155.954869 
L 221.799368 153.525168 
L 225.428132 151.085558 
L 229.056897 148.636232 
L 232.685662 146.177378 
L 236.314427 143.709174 
L 239.943192 141.231794 
L 243.571957 138.745405 
L 247.200722 136.250168 
L 250.829487 133.746237 
L 254.458252 131.233763 
L 258.087017 128.712891 
L 261.715782 126.183759 
L 265.344547 123.646504 
L 268.973312 121.101256 
L 272.602076 118.548143 
L 276.230841 115.987287 
L 279.859606 113.418807 
L 283.488371 110.842818 
L 287.117136 108.259434 
L 290.745901 105.668762 
L 294.374666 103.070908 
L 298.003431 100.465974 
L 301.632196 97.854061 
L 305.260961 95.235265 
L 308.889726 92.609681 
L 312.518491 89.977399 
L 316.147256 87.33851 
L 319.77602 84.693101 
L 323.404785 82.041255 
L 327.03355 79.383056 
L 330.662315 76.718584 
L 334.29108 74.047917 
L 337.919845 71.371132 
L 341.54861 68.688303 
L 345.177375 65.999503 
L 348.80614 63.304804 
L 352.434905 60.604274 
L 356.06367 57.897981 
L 359.692435 55.185992 
L 363.321199 52.468372 
L 366.949964 49.745183 
L 370.578729 47.016487 
L 374.207494 44.282346 
L 377.836259 41.542817 
L 381.465024 38.79796 
L 385.093789 36.04783 
L 388.722554 33.292484 
L 392.351319 30.531975 
L 395.980084 27.766357 
L 399.608849 24.995681 
L 403.237614 22.22 
" clip-path="url(#pc87e2c4b46)" style="fill: none; stroke: #8e44ad; stroke-width: 2; stroke-linecap: square"/>
   </g>
   <g id="patch_3">
    <path d="M 26.0275 262.04 
L 26.0275 10.8 
" style="fill: none; stroke: #000000; stroke-width: 0.8; stroke-linejoin: miter; stroke-linecap: square"/>
   </g>
   <g id="patch_4">
    <path d="M 26.0275 262.04 
L 421.2 262.04 
" style="fill: none; stroke: #000000; stroke-width: 0.8; stroke-linejoin: miter; stroke-linecap: square"/>
   </g>
   <g id="legend_1">
    <g id="line2d_3">
     <path d="M 35.0275 23.6 
L 45.0275 23.6 
L 55.0275 23.6 
" style="fill: none; stroke-dasharray: 5.55,2.4; stroke-dashoffset: 0; stroke: #95a5a6; stroke-width: 1.5"/>
    </g>
    <g id="text_3">
     <!-- Linear Growth ($V \propto n$) -->
     <g transform="translate(63.0275 27.1) scale(0.1 -0.1)">
      <defs>
       <path id="ArialUnicodeMS-4c" d="M 3347 0 
L 481 0 
L 481 4581 
L 1088 4581 
L 1088 544 
L 3347 544 
L 3347 0 
z
" transform="scale(0.015625)"/>
       <path id="ArialUnicodeMS-69" d="M 991 0 
L 428 0 
L 428 3316 
L 991 3316 
L 991 0 
z
M 991 3944 
L 428 3944 
L 428 4581 
L 991 4581 
L 991 3944 
z
" transform="scale(0.015625)"/>
       <path id="ArialUnicodeMS-47" d="M 4569 641 
Q 3703 -78 2675 -78 
Q 1622 -78 976 564 
Q 331 1206 331 2272 
Q 331 2922 595 3483 
Q 859 4044 1373 4351 
Q 1888 4659 2631 4659 
Q 3403 4659 3870 4320 
Q 4338 3981 4500 3303 
L 3956 3150 
Q 3828 3644 3497 3892 
Q 3166 4141 2631 4141 
Q 1803 4141 1381 3634 
Q 959 3128 959 2309 
Q 959 1697 1164 1290 
Q 1369 884 1770 676 
Q 2172 469 2644 469 
Q 3363 469 3981 941 
L 3981 1791 
L 2631 1791 
L 2631 2338 
L 4569 2338 
L 4569 641 
z
" transform="scale(0.015625)"/>
       <path id="ArialUnicodeMS-68" d="M 3138 0 
L 2572 0 
L 2572 2094 
Q 2572 2500 2397 2703 
Q 2222 2906 1875 2906 
Q 1531 2906 1261 2667 
Q 991 2428 991 1813 
L 991 0 
L 428 0 
L 428 4581 
L 991 4581 
L 991 2938 
Q 1391 3391 1991 3391 
Q 2313 3391 2606 3259 
Q 2900 3128 3019 2856 
Q 3138 2584 3138 2100 
L 3138 0 
z
" transform="scale(0.015625)"/>
       <path id="DejaVuSans-Oblique-56" d="M 1319 0 
L 500 4666 
L 1119 4666 
L 1797 653 
L 4063 4666 
L 4750 4666 
L 2053 0 
L 1319 0 
z
" transform="scale(0.015625)"/>
       <path id="DejaVuSans-221d" d="M 1647 1134 
Q 2163 1134 2472 1884 
Q 2075 2703 1647 2703 
Q 1334 2703 1175 2478 
Q 1006 2238 1006 1919 
Q 1006 1569 1175 1353 
Q 1350 1134 1647 1134 
z
M 3884 1128 
L 3884 716 
L 3644 716 
Q 3416 716 3247 809 
Q 3078 894 2916 1091 
Q 2819 1203 2666 1466 
Q 2456 1091 2272 925 
Q 2044 725 1681 725 
Q 1259 725 981 1041 
Q 688 1372 688 1919 
Q 688 2444 981 2800 
Q 1241 3116 1688 3116 
Q 1916 3116 2084 3022 
Q 2281 2919 2416 2741 
Q 2541 2581 2666 2366 
Q 2875 2741 3059 2906 
Q 3288 3106 3650 3106 
L 3884 3106 
L 3884 2697 
L 3684 2697 
Q 3222 2697 2859 1947 
Q 3256 1128 3684 1128 
L 3884 1128 
z
" transform="scale(0.015625)"/>
       <path id="DejaVuSans-Oblique-6e" d="M 3566 2113 
L 3156 0 
L 2578 0 
L 2988 2091 
Q 3016 2238 3031 2350 
Q 3047 2463 3047 2528 
Q 3047 2791 2881 2937 
Q 2716 3084 2419 3084 
Q 1956 3084 1622 2776 
Q 1288 2469 1184 1941 
L 800 0 
L 225 0 
L 903 3500 
L 1478 3500 
L 1363 2950 
Q 1603 3253 1940 3418 
Q 2278 3584 2650 3584 
Q 3113 3584 3367 3334 
Q 3622 3084 3622 2631 
Q 3622 2519 3608 2391 
Q 3594 2263 3566 2113 
z
" transform="scale(0.015625)"/>
      </defs>
      <use xlink:href="#ArialUnicodeMS-4c" transform="translate(0 0.09375)"/>
      <use xlink:href="#ArialUnicodeMS-69" transform="translate(55.615234 0.09375)"/>
      <use xlink:href="#ArialUnicodeMS-6e" transform="translate(77.832031 0.09375)"/>
      <use xlink:href="#ArialUnicodeMS-65" transform="translate(133.447266 0.09375)"/>
      <use xlink:href="#ArialUnicodeMS-61" transform="translate(189.0625 0.09375)"/>
      <use xlink:href="#ArialUnicodeMS-72" transform="translate(244.677734 0.09375)"/>
      <use xlink:href="#ArialUnicodeMS-20" transform="translate(277.978516 0.09375)"/>
      <use xlink:href="#ArialUnicodeMS-47" transform="translate(305.761719 0.09375)"/>
      <use xlink:href="#ArialUnicodeMS-72" transform="translate(383.544922 0.09375)"/>
      <use xlink:href="#ArialUnicodeMS-6f" transform="translate(416.845703 0.09375)"/>
      <use xlink:href="#ArialUnicodeMS-77" transform="translate(472.460938 0.09375)"/>
      <use xlink:href="#ArialUnicodeMS-74" transform="translate(544.677734 0.09375)"/>
      <use xlink:href="#ArialUnicodeMS-68" transform="translate(572.460938 0.09375)"/>
      <use xlink:href="#ArialUnicodeMS-20" transform="translate(628.076172 0.09375)"/>
      <use xlink:href="#ArialUnicodeMS-28" transform="translate(655.859375 0.09375)"/>
      <use xlink:href="#DejaVuSans-Oblique-56" transform="translate(689.160156 0.09375)"/>
      <use xlink:href="#DejaVuSans-221d" transform="translate(777.050781 0.09375)"/>
      <use xlink:href="#DejaVuSans-Oblique-6e" transform="translate(867.96875 0.09375)"/>
      <use xlink:href="#ArialUnicodeMS-29" transform="translate(931.347656 0.09375)"/>
     </g>
    </g>
    <g id="line2d_4">
     <path d="M 35.0275 38.3 
L 45.0275 38.3 
L 55.0275 38.3 
" style="fill: none; stroke: #8e44ad; stroke-width: 2; stroke-linecap: square"/>
    </g>
    <g id="text_4">
     <!-- Super-linear Growth ($V \propto n \log n$) -->
     <g transform="translate(63.0275 41.8) scale(0.1 -0.1)">
      <defs>
       <path id="ArialUnicodeMS-53" d="M 3213 3238 
Q 3175 3675 2897 3895 
Q 2619 4116 2100 4116 
Q 1631 4116 1337 3941 
Q 1044 3766 1044 3431 
Q 1044 3134 1270 2989 
Q 1497 2844 2138 2700 
Q 2706 2575 3065 2444 
Q 3425 2313 3681 2036 
Q 3938 1759 3938 1294 
Q 3938 703 3467 312 
Q 2997 -78 2241 -78 
Q 1275 -78 795 353 
Q 316 784 288 1472 
L 863 1522 
Q 903 972 1287 720 
Q 1672 469 2216 469 
Q 2725 469 3039 678 
Q 3353 888 3353 1247 
Q 3353 1622 3025 1794 
Q 2697 1966 1923 2133 
Q 1150 2300 809 2603 
Q 469 2906 469 3391 
Q 469 3941 900 4300 
Q 1331 4659 2075 4659 
Q 2838 4659 3302 4301 
Q 3766 3944 3794 3284 
L 3213 3238 
z
" transform="scale(0.015625)"/>
       <path id="ArialUnicodeMS-70" d="M 959 2888 
Q 1275 3391 1906 3391 
Q 2559 3391 2937 2917 
Q 3316 2444 3316 1684 
Q 3316 875 2897 398 
Q 2478 -78 1869 -78 
Q 1334 -78 1013 347 
L 997 347 
L 997 -1275 
L 434 -1275 
L 434 3316 
L 947 3316 
L 947 2888 
L 959 2888 
z
M 1831 384 
Q 2225 384 2483 711 
Q 2741 1038 2741 1684 
Q 2741 2294 2492 2622 
Q 2244 2950 1856 2950 
Q 1456 2950 1198 2584 
Q 941 2219 941 1638 
Q 941 1022 1187 703 
Q 1434 384 1831 384 
z
" transform="scale(0.015625)"/>
       <path id="ArialUnicodeMS-2d" d="M 1925 1375 
L 206 1375 
L 206 1941 
L 1925 1941 
L 1925 1375 
z
" transform="scale(0.015625)"/>
       <path id="DejaVuSans-6c" d="M 603 4863 
L 1178 4863 
L 1178 0 
L 603 0 
L 603 4863 
z
" transform="scale(0.015625)"/>
       <path id="DejaVuSans-6f" d="M 1959 3097 
Q 1497 3097 1228 2736 
Q 959 2375 959 1747 
Q 959 1119 1226 758 
Q 1494 397 1959 397 
Q 2419 397 2687 759 
Q 2956 1122 2956 1747 
Q 2956 2369 2687 2733 
Q 2419 3097 1959 3097 
z
M 1959 3584 
Q 2709 3584 3137 3096 
Q 3566 2609 3566 1747 
Q 3566 888 3137 398 
Q 2709 -91 1959 -91 
Q 1206 -91 779 398 
Q 353 888 353 1747 
Q 353 2609 779 3096 
Q 1206 3584 1959 3584 
z
" transform="scale(0.015625)"/>
       <path id="DejaVuSans-67" d="M 2906 1791 
Q 2906 2416 2648 2759 
Q 2391 3103 1925 3103 
Q 1463 3103 1205 2759 
Q 947 2416 947 1791 
Q 947 1169 1205 825 
Q 1463 481 1925 481 
Q 2391 481 2648 825 
Q 2906 1169 2906 1791 
z
M 3481 434 
Q 3481 -459 3084 -895 
Q 2688 -1331 1869 -1331 
Q 1566 -1331 1297 -1286 
Q 1028 -1241 775 -1147 
L 775 -588 
Q 1028 -725 1275 -790 
Q 1522 -856 1778 -856 
Q 2344 -856 2625 -561 
Q 2906 -266 2906 331 
L 2906 616 
Q 2728 306 2450 153 
Q 2172 0 1784 0 
Q 1141 0 747 490 
Q 353 981 353 1791 
Q 353 2603 747 3093 
Q 1141 3584 1784 3584 
Q 2172 3584 2450 3431 
Q 2728 3278 2906 2969 
L 2906 3500 
L 3481 3500 
L 3481 434 
z
" transform="scale(0.015625)"/>
      </defs>
      <use xlink:href="#ArialUnicodeMS-53" transform="translate(0 0.015625)"/>
      <use xlink:href="#ArialUnicodeMS-75" transform="translate(66.699219 0.015625)"/>
      <use xlink:href="#ArialUnicodeMS-70" transform="translate(122.314453 0.015625)"/>
      <use xlink:href="#ArialUnicodeMS-65" transform="translate(177.929688 0.015625)"/>
      <use xlink:href="#ArialUnicodeMS-72" transform="translate(233.544922 0.015625)"/>
      <use xlink:href="#ArialUnicodeMS-2d" transform="translate(266.845703 0.015625)"/>
      <use xlink:href="#ArialUnicodeMS-6c" transform="translate(300.146484 0.015625)"/>
      <use xlink:href="#ArialUnicodeMS-69" transform="translate(322.363281 0.015625)"/>
      <use xlink:href="#ArialUnicodeMS-6e" transform="translate(344.580078 0.015625)"/>
      <use xlink:href="#ArialUnicodeMS-65" transform="translate(400.195312 0.015625)"/>
      <use xlink:href="#ArialUnicodeMS-61" transform="translate(455.810547 0.015625)"/>
      <use xlink:href="#ArialUnicodeMS-72" transform="translate(511.425781 0.015625)"/>
      <use xlink:href="#ArialUnicodeMS-20" transform="translate(544.726562 0.015625)"/>
      <use xlink:href="#ArialUnicodeMS-47" transform="translate(572.509766 0.015625)"/>
      <use xlink:href="#ArialUnicodeMS-72" transform="translate(650.292969 0.015625)"/>
      <use xlink:href="#ArialUnicodeMS-6f" transform="translate(683.59375 0.015625)"/>
      <use xlink:href="#ArialUnicodeMS-77" transform="translate(739.208984 0.015625)"/>
      <use xlink:href="#ArialUnicodeMS-74" transform="translate(811.425781 0.015625)"/>
      <use xlink:href="#ArialUnicodeMS-68" transform="translate(839.208984 0.015625)"/>
      <use xlink:href="#ArialUnicodeMS-20" transform="translate(894.824219 0.015625)"/>
      <use xlink:href="#ArialUnicodeMS-28" transform="translate(922.607422 0.015625)"/>
      <use xlink:href="#DejaVuSans-Oblique-56" transform="translate(955.908203 0.015625)"/>
      <use xlink:href="#DejaVuSans-221d" transform="translate(1043.798828 0.015625)"/>
      <use xlink:href="#DejaVuSans-Oblique-6e" transform="translate(1134.716797 0.015625)"/>
      <use xlink:href="#DejaVuSans-6c" transform="translate(1198.095703 0.015625)"/>
      <use xlink:href="#DejaVuSans-6f" transform="translate(1225.878906 0.015625)"/>
      <use xlink:href="#DejaVuSans-67" transform="translate(1287.060547 0.015625)"/>
      <use xlink:href="#DejaVuSans-Oblique-6e" transform="translate(1366.772786 0.015625)"/>
      <use xlink:href="#ArialUnicodeMS-29" transform="translate(1430.151692 0.015625)"/>
     </g>
    </g>
   </g>
  </g>
 </g>
 <defs>
  <clipPath id="pc87e2c4b46">
   <rect x="26.0275" y="10.8" width="395.1725" height="251.24"/>
  </clipPath>
 </defs>
</svg>
