<?xml version="1.0" encoding="utf-8" standalone="no"?>
<!DOCTYPE svg PUBLIC "-//W3C//DTD SVG 1.1//EN"
  "http://www.w3.org/Graphics/SVG/1.1/DTD/svg11.dtd">
<svg xmlns:xlink="http://www.w3.org/1999/xlink" width="576pt" height="360pt" viewBox="0 0 576 360" xmlns="http://www.w3.org/2000/svg" version="1.1">
 <metadata>
  <rdf:RDF xmlns:dc="http://purl.org/dc/elements/1.1/" xmlns:cc="http://creativecommons.org/ns#" xmlns:rdf="http://www.w3.org/1999/02/22-rdf-syntax-ns#">
   <cc:Work>
    <dc:type rdf:resource="http://purl.org/dc/dcmitype/StillImage"/>
    <dc:date>2026-04-28T12:02:13.646219</dc:date>
    <dc:format>image/svg+xml</dc:format>
    <dc:creator>
     <cc:Agent>
      <dc:title>Matplotlib v3.9.4, https://matplotlib.org/</dc:title>
     </cc:Agent>
    </dc:creator>
   </cc:Work>
  </rdf:RDF>
 </metadata>
 <defs>
  <style type="text/css">*{stroke-linejoin: round; stroke-linecap: butt}</style>
 </defs>
 <g id="figure_1">
  <g id="patch_1">
   <path d="M 0 360 
L 576 360 
L 576 0 
L 0 0 
L 0 360 
z
" style="fill: none"/>
  </g>
  <g id="axes_1">
   <g id="patch_2">
    <path d="M 50.12 331.04 
L 481.623896 331.04 
L 481.623896 37.021875 
L 50.12 37.021875 
L 50.12 331.04 
z
" style="fill: none"/>
   </g>
   <g id="patch_3">
    <path d="M 69.733813 331.04 
L 181.812748 331.04 
L 181.812748 117.208636 
L 69.733813 117.208636 
z
" clip-path="url(#pde24a6142c)" style="fill: #94a3b8; opacity: 0.8"/>
   </g>
   <g id="patch_4">
    <path d="M 349.931149 331.04 
L 462.010083 331.04 
L 462.010083 197.395398 
L 349.931149 197.395398 
z
" clip-path="url(#pde24a6142c)" style="fill: #94a3b8; opacity: 0.8"/>
   </g>
   <g id="patch_5">
    <path d="M 69.733813 117.208636 
L 181.812748 117.208636 
L 181.812748 117.208636 
L 69.733813 117.208636 
z
" clip-path="url(#pde24a6142c)" style="fill: #8b5cf6; opacity: 0.8"/>
   </g>
   <g id="patch_6">
    <path d="M 349.931149 197.395398 
L 462.010083 197.395398 
L 462.010083 90.479716 
L 349.931149 90.479716 
z
" clip-path="url(#pde24a6142c)" style="fill: #8b5cf6; opacity: 0.8"/>
   </g>
   <g id="matplotlib.axis_1">
    <g id="xtick_1">
     <g id="line2d_1">
      <path d="M 125.77328 331.04 
L 125.77328 37.021875 
" clip-path="url(#pde24a6142c)" style="fill: none; stroke-dasharray: 2.96,1.28; stroke-dashoffset: 0; stroke: #eeeeee; stroke-opacity: 0.5; stroke-width: 0.8"/>
     </g>
     <g id="line2d_2">
      <defs>
       <path id="m7bed32efde" d="M 0 0 
L 0 3.5 
" style="stroke: #666666; stroke-width: 0.8"/>
      </defs>
      <g>
       <use xlink:href="#m7bed32efde" x="125.77328" y="331.04" style="fill: #666666; stroke: #666666; stroke-width: 0.8"/>
      </g>
     </g>
     <g id="text_1">
      <!-- 标准金融资产 -->
      <g style="fill: #666666" transform="translate(89.77328 346.75875) scale(0.12 -0.12)">
       <defs>
        <path id="ArialUnicodeMS-6807" d="M 2597 2169 
L 2175 1931 
Q 2006 2331 1703 2772 
L 1691 2772 
L 1691 -353 
L 1203 -353 
L 1203 2253 
L 1191 2253 
Q 1022 1659 494 1106 
L 134 1453 
Q 966 2294 1172 3653 
L 372 3653 
L 372 4122 
L 1203 4122 
L 1203 5331 
L 1691 5331 
L 1691 4122 
L 2419 4122 
L 2419 3653 
L 1691 3653 
L 1691 3091 
L 1875 3206 
Q 2334 2725 2597 2169 
z
M 5569 4384 
L 2669 4384 
L 2669 4825 
L 5569 4825 
L 5569 4384 
z
M 5863 2931 
L 4353 2931 
L 4353 422 
Q 4353 78 4300 -64 
Q 4247 -206 4150 -261 
Q 4053 -316 3397 -378 
L 3219 116 
L 3756 91 
Q 3866 91 3866 281 
L 3866 2931 
L 2388 2931 
L 2388 3372 
L 5863 3372 
L 5863 2931 
z
M 6016 728 
L 5556 481 
Q 5247 1438 4531 2309 
L 4909 2547 
Q 5678 1606 6016 728 
z
M 3494 2316 
Q 3028 1181 2222 459 
L 1825 781 
Q 2694 1544 3097 2528 
L 3494 2316 
z
" transform="scale(0.015625)"/>
        <path id="ArialUnicodeMS-51c6" d="M 6081 56 
L 2944 56 
L 2944 -416 
L 2450 -416 
L 2450 3181 
Q 2297 2922 2028 2638 
L 1538 2859 
Q 2488 3813 2900 5344 
L 3353 5172 
Q 3178 4503 3028 4197 
L 4072 4197 
Q 4394 4750 4500 5338 
L 4972 5172 
Q 4900 4766 4641 4197 
L 5869 4197 
L 5869 3731 
L 4563 3731 
L 4563 3034 
L 5672 3034 
L 5672 2566 
L 4563 2566 
L 4563 1813 
L 5672 1813 
L 5672 1344 
L 4563 1344 
L 4563 525 
L 6081 525 
L 6081 56 
z
M 4078 3034 
L 4078 3731 
L 2944 3731 
L 2944 3034 
L 4078 3034 
z
M 4078 1813 
L 4078 2566 
L 2944 2566 
L 2944 1813 
L 4078 1813 
z
M 4078 525 
L 4078 1344 
L 2944 1344 
L 2944 525 
L 4078 525 
z
M 1931 3878 
L 1503 3603 
Q 1103 4347 581 4684 
L 1025 4947 
Q 1456 4669 1931 3878 
z
M 1825 2413 
Q 1728 1144 825 -97 
L 366 172 
Q 1266 1400 1331 2572 
L 1825 2413 
z
" transform="scale(0.015625)"/>
        <path id="ArialUnicodeMS-91d1" d="M 6144 3163 
L 5753 2766 
Q 5238 2934 4647 3328 
L 4647 3072 
L 3488 3072 
L 3488 2328 
L 5228 2328 
L 5228 1869 
L 3488 1869 
L 3488 325 
L 5778 325 
L 5778 -134 
L 709 -134 
L 709 325 
L 3003 325 
L 3003 1869 
L 1234 1869 
L 1234 2328 
L 3003 2328 
L 3003 3072 
L 1838 3072 
L 1838 3341 
Q 1266 2969 672 2700 
L 347 3103 
Q 2378 4019 3225 5478 
L 3622 5209 
L 3531 5044 
Q 4700 3588 6144 3163 
z
M 4378 3525 
Q 3634 4109 3244 4647 
Q 2638 3903 2113 3547 
L 2113 3525 
L 4378 3525 
z
M 5025 1522 
Q 4675 769 4141 359 
L 3706 659 
Q 4281 1072 4634 1806 
L 5025 1522 
z
M 2644 628 
L 2175 428 
Q 1897 1125 1441 1544 
L 1875 1747 
Q 2356 1334 2644 628 
z
" transform="scale(0.015625)"/>
        <path id="ArialUnicodeMS-878d" d="M 6188 -153 
Q 5934 -256 5728 -306 
Q 5663 131 5631 213 
Q 5316 122 3653 -219 
L 3463 166 
L 3450 166 
Q 3425 -9 3290 -151 
Q 3156 -294 2939 -303 
Q 2722 -313 2431 -313 
L 2284 122 
Q 2400 128 2537 109 
Q 2675 91 2722 91 
Q 2894 91 2948 158 
Q 3003 225 3003 459 
L 3003 1403 
Q 2700 1391 2512 1469 
Q 2325 1547 2289 1706 
Q 2253 1866 2203 2369 
L 1906 2375 
Q 1925 2031 1764 1711 
Q 1603 1391 1269 1281 
L 1269 1269 
L 2875 1269 
Q 2884 1125 2881 831 
L 2222 831 
L 2222 -31 
L 1772 -31 
L 1772 831 
L 1203 831 
L 1203 1269 
L 1069 1478 
L 1056 1478 
L 1056 -397 
L 603 -397 
L 603 2847 
L 3456 2847 
L 3456 263 
Q 4519 438 4575 453 
L 4575 1619 
L 3794 1619 
L 3794 4006 
L 4575 4006 
L 4575 5288 
L 5031 5281 
L 5031 4006 
L 5819 4006 
L 5819 1619 
L 5038 1619 
L 5038 513 
Q 5075 525 5265 558 
Q 5456 591 5503 616 
Q 5488 641 5414 817 
Q 5341 994 5241 1106 
L 5644 1253 
Q 6047 741 6188 -153 
z
M 5388 2094 
L 5388 3547 
L 5031 3541 
L 5031 2094 
L 5388 2094 
z
M 4575 2094 
L 4575 3547 
L 4244 3547 
L 4244 2094 
L 4575 2094 
z
M 3009 1844 
L 3009 2375 
L 2638 2375 
L 2638 1931 
Q 2666 1884 2692 1876 
Q 2719 1869 2819 1859 
Q 2919 1850 3009 1844 
z
M 1472 2375 
L 1063 2375 
L 1063 1650 
Q 1513 1853 1472 2375 
z
M 3694 4659 
L 409 4659 
L 409 5119 
L 3694 5119 
L 3694 4659 
z
M 3156 3122 
L 928 3122 
L 928 4372 
L 3156 4372 
L 3156 3122 
z
M 2681 3559 
L 2681 3922 
L 1394 3922 
L 1394 3559 
L 2681 3559 
z
" transform="scale(0.015625)"/>
        <path id="ArialUnicodeMS-8d44" d="M 5522 4863 
Q 5541 4597 5477 4328 
Q 5413 4059 5131 3622 
L 4697 3859 
Q 4913 4106 5013 4397 
L 3144 4397 
Q 2878 3913 2203 3444 
L 1875 3822 
Q 2672 4297 3003 5306 
L 3431 5153 
Q 3403 5059 3322 4863 
L 5522 4863 
z
M 1766 4550 
L 1409 4172 
Q 1103 4628 594 4941 
L 891 5234 
Q 1459 4978 1766 4550 
z
M 6009 2778 
L 5678 2369 
Q 4472 2688 3788 3481 
Q 3591 3172 3142 2912 
Q 2694 2653 2222 2578 
L 2222 2572 
L 4813 2572 
L 4813 575 
L 4325 575 
L 4325 2106 
L 2119 2106 
L 2119 575 
L 1631 575 
L 1631 2572 
L 1913 2572 
L 1716 2847 
Q 2591 3081 3020 3382 
Q 3450 3684 3641 4250 
L 4091 4147 
L 4006 3897 
Q 4269 3525 4686 3267 
Q 5103 3009 6009 2778 
z
M 1806 3688 
Q 1628 3134 831 2369 
L 453 2713 
Q 1106 3253 1453 3922 
L 1806 3688 
z
M 3450 1906 
Q 3453 572 2761 120 
Q 2069 -331 819 -384 
L 594 84 
Q 1419 134 1742 186 
Q 2066 238 2409 461 
Q 2753 684 2848 979 
Q 2944 1275 2988 1906 
L 3450 1906 
z
M 5503 0 
L 5259 -447 
Q 4506 47 3272 306 
L 3494 722 
Q 4728 478 5503 0 
z
" transform="scale(0.015625)"/>
        <path id="ArialUnicodeMS-4ea7" d="M 5691 3994 
L 481 3994 
L 481 4434 
L 3053 4434 
Q 2816 4841 2431 5125 
L 2766 5394 
Q 3319 4947 3578 4550 
L 3413 4447 
L 3413 4434 
L 5691 4434 
L 5691 3994 
z
M 5691 2547 
L 1509 2547 
L 1509 1375 
Q 1509 219 519 -403 
L 159 -38 
Q 1025 456 1025 1516 
L 1025 2988 
L 2278 2988 
Q 2122 3325 1691 3681 
L 1997 3938 
Q 2450 3641 2803 3138 
L 2584 2988 
L 3413 2988 
Q 3856 3441 4056 3928 
L 4481 3700 
Q 4278 3306 4000 2988 
L 5691 2988 
L 5691 2547 
z
" transform="scale(0.015625)"/>
       </defs>
       <use xlink:href="#ArialUnicodeMS-6807"/>
       <use xlink:href="#ArialUnicodeMS-51c6" x="100"/>
       <use xlink:href="#ArialUnicodeMS-91d1" x="200"/>
       <use xlink:href="#ArialUnicodeMS-878d" x="300"/>
       <use xlink:href="#ArialUnicodeMS-8d44" x="400"/>
       <use xlink:href="#ArialUnicodeMS-4ea7" x="500"/>
      </g>
     </g>
    </g>
    <g id="xtick_2">
     <g id="line2d_3">
      <path d="M 405.970616 331.04 
L 405.970616 37.021875 
" clip-path="url(#pde24a6142c)" style="fill: none; stroke-dasharray: 2.96,1.28; stroke-dashoffset: 0; stroke: #eeeeee; stroke-opacity: 0.5; stroke-width: 0.8"/>
     </g>
     <g id="line2d_4">
      <g>
       <use xlink:href="#m7bed32efde" x="405.970616" y="331.04" style="fill: #666666; stroke: #666666; stroke-width: 0.8"/>
      </g>
     </g>
     <g id="text_2">
      <!-- 艺术品 -->
      <g style="fill: #666666" transform="translate(387.970616 346.629375) scale(0.12 -0.12)">
       <defs>
        <path id="ArialUnicodeMS-827a" d="M 5881 4172 
L 4256 4172 
L 4256 3494 
L 3775 3494 
L 3775 4172 
L 2497 4172 
L 2497 3494 
L 2016 3494 
L 2016 4172 
L 441 4172 
L 441 4616 
L 2016 4616 
L 2016 5247 
L 2497 5247 
L 2497 4616 
L 3775 4616 
L 3775 5247 
L 4256 5247 
L 4256 4616 
L 5881 4616 
L 5881 4172 
z
M 5663 916 
Q 5522 -184 5006 -184 
L 1709 -184 
Q 1484 -184 1356 -32 
Q 1228 119 1228 338 
Q 1228 650 1828 1256 
Q 2428 1863 3681 2706 
L 3681 2713 
L 1325 2713 
L 1325 3181 
L 4494 3181 
L 4494 2725 
Q 3250 1931 2486 1186 
Q 1722 441 1722 338 
Q 1722 281 1772 281 
L 4825 281 
Q 5103 281 5172 1106 
L 5663 916 
z
" transform="scale(0.015625)"/>
        <path id="ArialUnicodeMS-672f" d="M 6059 494 
L 5716 103 
Q 5100 413 4472 1198 
Q 3844 1984 3513 3291 
L 3372 3291 
L 3372 -441 
L 2888 -441 
L 2888 3291 
L 2747 3291 
Q 2241 1028 563 109 
L 219 481 
Q 1775 1356 2278 3291 
L 391 3291 
L 391 3756 
L 2888 3756 
L 2888 5216 
L 3372 5216 
L 3372 3756 
L 5850 3756 
L 5850 3291 
L 3975 3291 
Q 4609 1278 6059 494 
z
M 5125 4159 
L 4750 3859 
Q 4403 4409 3744 4738 
L 4056 5050 
Q 4722 4747 5125 4159 
z
" transform="scale(0.015625)"/>
        <path id="ArialUnicodeMS-54c1" d="M 4997 2963 
L 1363 2963 
L 1363 5069 
L 4997 5069 
L 4997 2963 
z
M 4575 3378 
L 4575 4653 
L 1806 4653 
L 1806 3378 
L 4575 3378 
z
M 5656 -372 
L 5172 -372 
L 5172 72 
L 3956 72 
L 3956 -372 
L 3469 -372 
L 3469 2491 
L 5656 2491 
L 5656 -372 
z
M 5172 538 
L 5172 2022 
L 3956 2022 
L 3956 538 
L 5172 538 
z
M 2894 -397 
L 2406 -397 
L 2406 38 
L 1228 38 
L 1228 -422 
L 744 -409 
L 744 2472 
L 2894 2472 
L 2894 -397 
z
M 2406 506 
L 2406 2003 
L 1228 2003 
L 1228 506 
L 2406 506 
z
" transform="scale(0.015625)"/>
       </defs>
       <use xlink:href="#ArialUnicodeMS-827a"/>
       <use xlink:href="#ArialUnicodeMS-672f" x="100"/>
       <use xlink:href="#ArialUnicodeMS-54c1" x="200"/>
      </g>
     </g>
    </g>
   </g>
   <g id="matplotlib.axis_2">
    <g id="ytick_1">
     <g id="line2d_5">
      <path d="M 50.12 331.04 
L 481.623896 331.04 
" clip-path="url(#pde24a6142c)" style="fill: none; stroke-dasharray: 2.96,1.28; stroke-dashoffset: 0; stroke: #eeeeee; stroke-opacity: 0.5; stroke-width: 0.8"/>
     </g>
     <g id="line2d_6">
      <defs>
       <path id="m9f930c5de8" d="M 0 0 
L -3.5 0 
" style="stroke: #666666; stroke-width: 0.8"/>
      </defs>
      <g>
       <use xlink:href="#m9f930c5de8" x="50.12" y="331.04" style="fill: #666666; stroke: #666666; stroke-width: 0.8"/>
      </g>
     </g>
     <g id="text_3">
      <!-- 0 -->
      <g style="fill: #666666" transform="translate(37.559063 334.618906) scale(0.1 -0.1)">
       <defs>
        <path id="ArialUnicodeMS-30" d="M 1778 4603 
Q 3272 4603 3272 2259 
Q 3272 1075 2886 498 
Q 2500 -78 1778 -78 
Q 288 -78 288 2259 
Q 288 3444 673 4023 
Q 1059 4603 1778 4603 
z
M 1778 384 
Q 2231 384 2462 823 
Q 2694 1263 2694 2259 
Q 2694 2953 2592 3351 
Q 2491 3750 2286 3945 
Q 2081 4141 1772 4141 
Q 1319 4141 1091 3694 
Q 863 3247 863 2259 
Q 863 1575 966 1175 
Q 1069 775 1272 579 
Q 1475 384 1778 384 
z
" transform="scale(0.015625)"/>
       </defs>
       <use xlink:href="#ArialUnicodeMS-30"/>
      </g>
     </g>
    </g>
    <g id="ytick_2">
     <g id="line2d_7">
      <path d="M 50.12 277.582159 
L 481.623896 277.582159 
" clip-path="url(#pde24a6142c)" style="fill: none; stroke-dasharray: 2.96,1.28; stroke-dashoffset: 0; stroke: #eeeeee; stroke-opacity: 0.5; stroke-width: 0.8"/>
     </g>
     <g id="line2d_8">
      <g>
       <use xlink:href="#m9f930c5de8" x="50.12" y="277.582159" style="fill: #666666; stroke: #666666; stroke-width: 0.8"/>
      </g>
     </g>
     <g id="text_4">
      <!-- 2 -->
      <g style="fill: #666666" transform="translate(37.559063 281.161065) scale(0.1 -0.1)">
       <defs>
        <path id="ArialUnicodeMS-32" d="M 3231 0 
L 197 0 
Q 197 388 467 784 
Q 738 1181 1478 1778 
Q 1931 2141 2287 2539 
Q 2644 2938 2644 3341 
Q 2644 3688 2398 3914 
Q 2153 4141 1778 4141 
Q 1400 4141 1144 3908 
Q 888 3675 884 3213 
L 306 3278 
Q 359 3922 764 4262 
Q 1169 4603 1791 4603 
Q 2466 4603 2842 4229 
Q 3219 3856 3219 3328 
Q 3219 2888 2901 2436 
Q 2584 1984 1638 1228 
Q 1141 831 978 544 
L 3231 544 
L 3231 0 
z
" transform="scale(0.015625)"/>
       </defs>
       <use xlink:href="#ArialUnicodeMS-32"/>
      </g>
     </g>
    </g>
    <g id="ytick_3">
     <g id="line2d_9">
      <path d="M 50.12 224.124318 
L 481.623896 224.124318 
" clip-path="url(#pde24a6142c)" style="fill: none; stroke-dasharray: 2.96,1.28; stroke-dashoffset: 0; stroke: #eeeeee; stroke-opacity: 0.5; stroke-width: 0.8"/>
     </g>
     <g id="line2d_10">
      <g>
       <use xlink:href="#m9f930c5de8" x="50.12" y="224.124318" style="fill: #666666; stroke: #666666; stroke-width: 0.8"/>
      </g>
     </g>
     <g id="text_5">
      <!-- 4 -->
      <g style="fill: #666666" transform="translate(37.559063 227.703224) scale(0.1 -0.1)">
       <defs>
        <path id="ArialUnicodeMS-34" d="M 3263 1094 
L 2644 1094 
L 2644 0 
L 2081 0 
L 2081 1094 
L 97 1094 
L 97 1613 
L 2181 4581 
L 2644 4581 
L 2644 1613 
L 3263 1613 
L 3263 1094 
z
M 2081 1613 
L 2081 3681 
L 2069 3681 
L 647 1613 
L 2081 1613 
z
" transform="scale(0.015625)"/>
       </defs>
       <use xlink:href="#ArialUnicodeMS-34"/>
      </g>
     </g>
    </g>
    <g id="ytick_4">
     <g id="line2d_11">
      <path d="M 50.12 170.666477 
L 481.623896 170.666477 
" clip-path="url(#pde24a6142c)" style="fill: none; stroke-dasharray: 2.96,1.28; stroke-dashoffset: 0; stroke: #eeeeee; stroke-opacity: 0.5; stroke-width: 0.8"/>
     </g>
     <g id="line2d_12">
      <g>
       <use xlink:href="#m9f930c5de8" x="50.12" y="170.666477" style="fill: #666666; stroke: #666666; stroke-width: 0.8"/>
      </g>
     </g>
     <g id="text_6">
      <!-- 6 -->
      <g style="fill: #666666" transform="translate(37.559063 174.245384) scale(0.1 -0.1)">
       <defs>
        <path id="ArialUnicodeMS-36" d="M 838 2363 
Q 1225 2969 1941 2969 
Q 2503 2969 2897 2553 
Q 3291 2138 3291 1491 
Q 3291 838 2898 380 
Q 2506 -78 1856 -78 
Q 1197 -78 733 409 
Q 269 897 269 2144 
Q 269 3369 689 3986 
Q 1109 4603 1906 4603 
Q 2422 4603 2778 4315 
Q 3134 4028 3213 3463 
L 2650 3413 
Q 2497 4141 1875 4141 
Q 1444 4141 1134 3712 
Q 825 3284 825 2363 
L 838 2363 
z
M 1844 384 
Q 2231 384 2472 696 
Q 2713 1009 2713 1453 
Q 2713 1897 2472 2187 
Q 2231 2478 1825 2478 
Q 1453 2478 1184 2204 
Q 916 1931 916 1484 
Q 916 1028 1180 706 
Q 1444 384 1844 384 
z
" transform="scale(0.015625)"/>
       </defs>
       <use xlink:href="#ArialUnicodeMS-36"/>
      </g>
     </g>
    </g>
    <g id="ytick_5">
     <g id="line2d_13">
      <path d="M 50.12 117.208636 
L 481.623896 117.208636 
" clip-path="url(#pde24a6142c)" style="fill: none; stroke-dasharray: 2.96,1.28; stroke-dashoffset: 0; stroke: #eeeeee; stroke-opacity: 0.5; stroke-width: 0.8"/>
     </g>
     <g id="line2d_14">
      <g>
       <use xlink:href="#m9f930c5de8" x="50.12" y="117.208636" style="fill: #666666; stroke: #666666; stroke-width: 0.8"/>
      </g>
     </g>
     <g id="text_7">
      <!-- 8 -->
      <g style="fill: #666666" transform="translate(37.559063 120.787543) scale(0.1 -0.1)">
       <defs>
        <path id="ArialUnicodeMS-38" d="M 2425 2478 
Q 3284 2203 3284 1306 
Q 3284 716 2862 319 
Q 2441 -78 1778 -78 
Q 1109 -78 689 322 
Q 269 722 269 1325 
Q 269 1759 505 2084 
Q 741 2409 1141 2478 
L 1141 2491 
Q 453 2703 453 3419 
Q 453 3925 815 4264 
Q 1178 4603 1766 4603 
Q 2363 4603 2730 4253 
Q 3097 3903 3097 3406 
Q 3097 2731 2425 2491 
L 2425 2478 
z
M 1778 2700 
Q 2094 2700 2308 2901 
Q 2522 3103 2522 3406 
Q 2522 3716 2305 3928 
Q 2088 4141 1772 4141 
Q 1450 4141 1240 3931 
Q 1031 3722 1031 3438 
Q 1031 3097 1247 2898 
Q 1463 2700 1778 2700 
z
M 1778 384 
Q 2175 384 2440 640 
Q 2706 897 2706 1306 
Q 2706 1716 2432 1978 
Q 2159 2241 1766 2241 
Q 1356 2241 1100 1970 
Q 844 1700 844 1319 
Q 844 922 1108 653 
Q 1372 384 1778 384 
z
" transform="scale(0.015625)"/>
       </defs>
       <use xlink:href="#ArialUnicodeMS-38"/>
      </g>
     </g>
    </g>
    <g id="ytick_6">
     <g id="line2d_15">
      <path d="M 50.12 63.750795 
L 481.623896 63.750795 
" clip-path="url(#pde24a6142c)" style="fill: none; stroke-dasharray: 2.96,1.28; stroke-dashoffset: 0; stroke: #eeeeee; stroke-opacity: 0.5; stroke-width: 0.8"/>
     </g>
     <g id="line2d_16">
      <g>
       <use xlink:href="#m9f930c5de8" x="50.12" y="63.750795" style="fill: #666666; stroke: #666666; stroke-width: 0.8"/>
      </g>
     </g>
     <g id="text_8">
      <!-- 10 -->
      <g style="fill: #666666" transform="translate(31.998125 67.329702) scale(0.1 -0.1)">
       <defs>
        <path id="ArialUnicodeMS-31" d="M 2400 0 
L 1838 0 
L 1838 3584 
Q 1416 3184 709 2906 
L 709 3450 
Q 1681 3916 2034 4603 
L 2400 4603 
L 2400 0 
z
" transform="scale(0.015625)"/>
       </defs>
       <use xlink:href="#ArialUnicodeMS-31"/>
       <use xlink:href="#ArialUnicodeMS-30" x="55.615234"/>
      </g>
     </g>
    </g>
    <g id="text_9">
     <!-- 效用单位 -->
     <g style="fill: #666666" transform="translate(19.6075 208.030937) rotate(-90) scale(0.12 -0.12)">
      <defs>
       <path id="ArialUnicodeMS-6548" d="M 6119 -38 
L 5747 -409 
Q 5044 116 4609 756 
Q 4109 116 3384 -403 
L 3009 -63 
Q 3956 584 4341 1197 
Q 4041 1756 3866 2534 
Q 3672 2144 3450 1850 
L 3022 2081 
Q 3528 2766 3722 3500 
Q 3916 4234 3916 5338 
L 4366 5259 
Q 4384 4781 4306 4072 
L 5953 4072 
L 5953 3603 
L 5569 3603 
Q 5491 2219 4884 1184 
Q 5456 391 6119 -38 
z
M 5063 3603 
L 4231 3603 
L 4166 3322 
Q 4375 2238 4628 1716 
Q 5025 2469 5063 3603 
z
M 3359 3878 
L 569 3878 
L 569 4347 
L 1753 4347 
L 1753 5184 
L 2253 5184 
L 2253 4347 
L 3359 4347 
L 3359 3878 
z
M 1656 3641 
Q 1409 2850 775 2419 
L 384 2719 
Q 953 3006 1234 3803 
L 1656 3641 
z
M 3366 2803 
L 2969 2553 
Q 2688 3184 2150 3547 
L 2559 3794 
Q 3134 3359 3366 2803 
z
M 3278 628 
L 2888 281 
Q 2581 716 2234 1063 
Q 1747 269 769 -306 
L 469 103 
Q 1353 613 1869 1416 
Q 1272 2016 984 2163 
L 1344 2456 
Q 1422 2409 2113 1838 
Q 2219 2069 2375 2650 
L 2797 2456 
Q 2691 1897 2491 1503 
Q 2981 1028 3278 628 
z
" transform="scale(0.015625)"/>
       <path id="ArialUnicodeMS-7528" d="M 5472 159 
Q 5472 -66 5340 -219 
Q 5209 -372 5013 -372 
L 4347 -372 
L 4191 128 
L 4722 113 
Q 4966 113 4966 256 
L 4966 1722 
L 3572 1722 
L 3572 13 
L 3084 13 
L 3084 1722 
L 1678 1722 
Q 1584 466 744 -469 
L 331 -159 
Q 794 394 1001 936 
Q 1209 1478 1209 2194 
L 1209 5044 
L 5472 5044 
L 5472 159 
z
M 4966 3641 
L 4966 4575 
L 3572 4575 
L 3572 3641 
L 4966 3641 
z
M 3084 3641 
L 3084 4575 
L 1697 4575 
L 1697 3641 
L 3084 3641 
z
M 4966 2188 
L 4966 3175 
L 3572 3175 
L 3572 2188 
L 4966 2188 
z
M 3084 2188 
L 3084 3175 
L 1697 3175 
L 1697 2188 
L 3084 2188 
z
" transform="scale(0.015625)"/>
       <path id="ArialUnicodeMS-5355" d="M 5925 947 
L 3353 947 
L 3353 -372 
L 2869 -372 
L 2869 947 
L 347 947 
L 347 1388 
L 2869 1388 
L 2869 1919 
L 1234 1919 
L 1234 4213 
L 2234 4213 
Q 2041 4659 1550 5106 
L 1900 5381 
Q 2347 5050 2747 4359 
L 2547 4219 
L 2547 4213 
L 3328 4213 
Q 3750 4644 4000 5344 
L 4447 5131 
Q 4219 4559 3909 4213 
L 4984 4213 
L 4984 1919 
L 3353 1919 
L 3353 1388 
L 5925 1388 
L 5925 947 
z
M 4500 3316 
L 4500 3744 
L 3353 3744 
L 3353 3316 
L 4500 3316 
z
M 2869 3316 
L 2869 3744 
L 1722 3744 
L 1722 3316 
L 2869 3316 
z
M 4500 2363 
L 4500 2847 
L 3353 2847 
L 3353 2363 
L 4500 2363 
z
M 2869 2363 
L 2869 2847 
L 1722 2847 
L 1722 2363 
L 2869 2363 
z
" transform="scale(0.015625)"/>
       <path id="ArialUnicodeMS-4f4d" d="M 2234 5069 
Q 2181 4844 1950 4253 
L 1722 3681 
L 1722 -453 
L 1234 -453 
L 1234 2841 
Q 1053 2572 697 2188 
L 263 2503 
Q 1219 3441 1772 5294 
L 2234 5069 
z
M 5759 3525 
L 2194 3525 
L 2194 3988 
L 3700 3988 
L 3700 5253 
L 4197 5253 
L 4197 3988 
L 5759 3988 
L 5759 3525 
z
M 6059 -56 
L 2053 -56 
L 2053 409 
L 3781 409 
Q 4728 2066 4794 3425 
L 5306 3291 
Q 5141 1972 4325 409 
L 6059 409 
L 6059 -56 
z
M 3769 856 
L 3250 756 
Q 3222 2009 2559 3103 
L 3072 3213 
Q 3675 2153 3769 856 
z
" transform="scale(0.015625)"/>
      </defs>
      <use xlink:href="#ArialUnicodeMS-6548"/>
      <use xlink:href="#ArialUnicodeMS-7528" x="100"/>
      <use xlink:href="#ArialUnicodeMS-5355" x="200"/>
      <use xlink:href="#ArialUnicodeMS-4f4d" x="300"/>
     </g>
    </g>
   </g>
   <g id="patch_7">
    <path d="M 50.12 331.04 
L 50.12 37.021875 
" style="fill: none; stroke: #dddddd; stroke-width: 0.8; stroke-linejoin: miter; stroke-linecap: square"/>
   </g>
   <g id="patch_8">
    <path d="M 50.12 331.04 
L 481.623896 331.04 
" style="fill: none; stroke: #dddddd; stroke-width: 0.8; stroke-linejoin: miter; stroke-linecap: square"/>
   </g>
   <g id="text_10">
    <!-- U = 8.0 -->
    <g style="fill: #475569" transform="translate(109.513905 111.862852) scale(0.1 -0.1)">
     <defs>
      <path id="ArialUnicodeMS-55" d="M 4109 1931 
Q 4109 1578 4070 1278 
Q 4031 978 3864 661 
Q 3697 344 3320 133 
Q 2944 -78 2316 -78 
Q 1703 -78 1328 109 
Q 953 297 778 594 
Q 603 891 554 1212 
Q 506 1534 506 1931 
L 506 4581 
L 1113 4581 
L 1113 1941 
Q 1113 1528 1172 1229 
Q 1231 931 1484 700 
Q 1738 469 2266 469 
Q 2800 469 3069 653 
Q 3338 838 3419 1145 
Q 3500 1453 3500 1941 
L 3500 4581 
L 4109 4581 
L 4109 1931 
z
" transform="scale(0.015625)"/>
      <path id="ArialUnicodeMS-20" transform="scale(0.015625)"/>
      <path id="ArialUnicodeMS-3d" d="M 3384 2694 
L 353 2694 
L 353 3219 
L 3384 3219 
L 3384 2694 
z
M 3384 1300 
L 353 1300 
L 353 1825 
L 3384 1825 
L 3384 1300 
z
" transform="scale(0.015625)"/>
      <path id="ArialUnicodeMS-2e" d="M 1209 0 
L 569 0 
L 569 641 
L 1209 641 
L 1209 0 
z
" transform="scale(0.015625)"/>
     </defs>
     <use xlink:href="#ArialUnicodeMS-55"/>
     <use xlink:href="#ArialUnicodeMS-20" x="72.216797"/>
     <use xlink:href="#ArialUnicodeMS-3d" x="100"/>
     <use xlink:href="#ArialUnicodeMS-20" x="158.398438"/>
     <use xlink:href="#ArialUnicodeMS-38" x="186.181641"/>
     <use xlink:href="#ArialUnicodeMS-2e" x="241.796875"/>
     <use xlink:href="#ArialUnicodeMS-30" x="269.580078"/>
    </g>
   </g>
   <g id="text_11">
    <!-- U = 9.0 -->
    <g style="fill: #8b5cf6" transform="translate(389.711241 85.133932) scale(0.1 -0.1)">
     <defs>
      <path id="ArialUnicodeMS-39" d="M 2713 2156 
Q 2547 1888 2258 1722 
Q 1969 1556 1631 1556 
Q 1066 1556 670 1970 
Q 275 2384 275 3053 
Q 275 3734 678 4168 
Q 1081 4603 1716 4603 
Q 2353 4603 2818 4106 
Q 3284 3609 3284 2388 
Q 3284 1147 2859 534 
Q 2434 -78 1644 -78 
Q 1128 -78 781 205 
Q 434 488 359 1063 
L 897 1106 
Q 1025 384 1656 384 
Q 2175 384 2450 857 
Q 2725 1331 2725 2156 
L 2713 2156 
z
M 1766 2047 
Q 2178 2047 2420 2339 
Q 2663 2631 2663 3078 
Q 2663 3531 2414 3836 
Q 2166 4141 1778 4141 
Q 1388 4141 1119 3817 
Q 850 3494 850 3034 
Q 850 2600 1114 2323 
Q 1378 2047 1766 2047 
z
" transform="scale(0.015625)"/>
     </defs>
     <use xlink:href="#ArialUnicodeMS-55"/>
     <use xlink:href="#ArialUnicodeMS-20" x="72.216797"/>
     <use xlink:href="#ArialUnicodeMS-3d" x="100"/>
     <use xlink:href="#ArialUnicodeMS-20" x="158.398438"/>
     <use xlink:href="#ArialUnicodeMS-39" x="186.181641"/>
     <use xlink:href="#ArialUnicodeMS-2e" x="241.796875"/>
     <use xlink:href="#ArialUnicodeMS-30" x="269.580078"/>
    </g>
   </g>
   <g id="patch_9">
    <path d="M 462.010083 120.88742 
Q 462.010083 157.303142 462.010083 193.718864 
" style="fill: none; stroke: #ef4444; stroke-width: 1.5; stroke-linecap: round"/>
    <path d="M 460.010083 124.88742 
L 462.010083 120.88742 
L 464.010083 124.88742 
" style="fill: none; stroke: #ef4444; stroke-width: 1.5; stroke-linecap: round"/>
    <path d="M 464.010083 189.718864 
L 462.010083 193.718864 
L 460.010083 189.718864 
" style="fill: none; stroke: #ef4444; stroke-width: 1.5; stroke-linecap: round"/>
   </g>
   <g id="text_12">
    <!-- 名义回报减让 (δ) -->
    <g style="fill: #ef4444" transform="translate(490.029816 160.431705) scale(0.1 -0.1)">
     <defs>
      <path id="ArialUnicodeMS-540d" d="M 5306 4166 
Q 5306 4113 5057 3789 
Q 4809 3466 4426 3156 
Q 4044 2847 3556 2590 
Q 3069 2334 2478 2144 
L 5269 2144 
L 5269 -428 
L 4781 -428 
L 4781 -72 
L 2381 -72 
L 2381 -428 
L 1894 -428 
L 1894 1966 
Q 1044 1734 775 1697 
L 359 2131 
Q 1944 2425 2875 2822 
Q 2666 3097 2144 3291 
L 2597 3641 
Q 3072 3388 3309 3041 
Q 4119 3422 4678 4116 
L 2772 4116 
Q 2069 3506 1075 3097 
L 569 3481 
Q 2369 4106 3200 5350 
L 3641 5119 
Q 3503 4881 3244 4581 
L 5306 4581 
L 5306 4166 
z
M 4781 397 
L 4781 1678 
L 2381 1678 
L 2381 397 
L 4781 397 
z
" transform="scale(0.015625)"/>
      <path id="ArialUnicodeMS-4e49" d="M 3744 3816 
L 3303 3547 
Q 3100 4331 2484 5019 
L 2906 5234 
Q 3559 4513 3744 3816 
z
M 6113 -50 
L 5759 -453 
Q 4381 -16 3297 838 
Q 2244 -109 603 -447 
L 347 31 
Q 2003 328 2938 1184 
Q 1816 2369 1528 4588 
L 1991 4794 
Q 2206 3350 2512 2667 
Q 2819 1984 3284 1569 
Q 4269 2709 4525 4728 
L 4991 4550 
Q 4628 2284 3659 1216 
Q 4400 444 6113 -50 
z
" transform="scale(0.015625)"/>
      <path id="ArialUnicodeMS-56de" d="M 5575 -134 
L 5088 -147 
L 5088 313 
L 1313 313 
L 1313 -191 
L 825 -191 
L 825 4825 
L 5575 4825 
L 5575 -134 
z
M 5088 794 
L 5088 4366 
L 1313 4366 
L 1313 794 
L 5088 794 
z
M 4378 1509 
L 1997 1509 
L 1997 3653 
L 4378 3653 
L 4378 1509 
z
M 3891 1972 
L 3891 3194 
L 2484 3194 
L 2484 1972 
L 3891 1972 
z
" transform="scale(0.015625)"/>
      <path id="ArialUnicodeMS-62a5" d="M 2828 3603 
L 1959 3603 
L 1959 2425 
L 2784 2713 
L 2784 2228 
L 1959 1931 
L 1959 219 
Q 1959 -106 1829 -232 
Q 1700 -359 1416 -359 
Q 1181 -359 775 -288 
L 616 213 
Q 1197 109 1334 109 
Q 1453 109 1453 288 
L 1453 1753 
L 550 1428 
L 313 1919 
L 1453 2284 
L 1453 3603 
L 453 3603 
L 453 4072 
L 1453 4072 
L 1453 5247 
L 1959 5247 
L 1959 4072 
L 2828 4072 
L 2828 3603 
z
M 6053 -31 
L 5716 -403 
Q 5125 -69 4716 416 
Q 4522 78 3872 -422 
L 3609 -159 
L 3609 -441 
L 3103 -441 
L 3103 5019 
L 5491 5019 
Q 5463 4247 5355 3901 
Q 5247 3556 5087 3437 
Q 4928 3319 4609 3319 
Q 4359 3319 4078 3391 
L 3956 3884 
Q 4338 3788 4641 3788 
Q 4744 3788 4794 3839 
Q 4844 3891 4900 4087 
Q 4956 4284 4966 4550 
L 3609 4550 
L 3609 3041 
L 5544 3041 
Q 5519 1894 4978 863 
Q 5256 463 6053 -31 
z
M 5038 2572 
L 4353 2572 
Q 4441 1913 4709 1319 
Q 4997 1922 5038 2572 
z
M 4422 856 
Q 4019 1619 3878 2572 
L 3609 2572 
L 3609 31 
Q 4144 369 4422 856 
z
" transform="scale(0.015625)"/>
      <path id="ArialUnicodeMS-51cf" d="M 6009 763 
Q 5975 284 5829 -64 
Q 5684 -413 5419 -413 
Q 5188 -413 5000 -123 
Q 4813 166 4616 750 
Q 4297 297 3547 -372 
L 3138 -78 
Q 4013 631 4422 1344 
Q 4194 2306 4078 3878 
L 2259 3878 
L 2259 2322 
Q 2259 1106 2103 534 
Q 1947 -38 1491 -513 
L 1125 -153 
Q 1397 119 1553 475 
Q 1709 831 1740 1203 
Q 1772 1575 1772 2303 
L 1772 4347 
L 4050 4347 
Q 4031 4791 4031 5338 
L 4506 5338 
Q 4506 4744 4544 4347 
L 5819 4347 
L 5819 3878 
L 4569 3878 
Q 4647 2694 4769 2034 
L 4781 2034 
L 4850 2278 
Q 5031 2888 5153 3566 
L 5613 3391 
Q 5363 2113 4934 1275 
Q 5022 975 5098 762 
Q 5175 550 5273 362 
Q 5372 175 5395 162 
Q 5419 150 5423 156 
Q 5428 163 5422 172 
L 5422 159 
Q 5441 159 5494 376 
Q 5547 594 5569 947 
L 6009 763 
z
M 5650 4697 
L 5306 4372 
Q 5050 4725 4581 4909 
L 4909 5234 
Q 5394 5006 5650 4697 
z
M 1650 3469 
L 1269 3150 
Q 863 4022 306 4475 
L 653 4756 
Q 1344 4266 1650 3469 
z
M 4000 3022 
L 2381 3022 
L 2381 3488 
L 4000 3488 
L 4000 3022 
z
M 1625 2381 
Q 1356 759 769 -13 
L 647 -172 
L 244 116 
Q 931 900 1216 2591 
L 1625 2381 
z
M 3944 794 
L 2925 794 
L 2925 434 
L 2438 434 
L 2438 2584 
L 3944 2584 
L 3944 794 
z
M 3481 1259 
L 3481 2144 
L 2925 2144 
L 2925 1259 
L 3481 1259 
z
" transform="scale(0.015625)"/>
      <path id="ArialUnicodeMS-8ba9" d="M 5947 -141 
L 1978 -141 
L 1978 294 
L 3519 294 
L 3519 5234 
L 3981 5234 
L 3981 3163 
L 5619 3163 
L 5619 2694 
L 3981 2694 
L 3981 294 
L 5947 294 
L 5947 -141 
z
M 2272 4197 
L 1844 3891 
Q 1534 4528 941 4856 
L 1319 5119 
Q 1969 4738 2272 4197 
z
M 2938 947 
L 1434 141 
L 1184 550 
Q 1281 644 1281 750 
L 1281 3181 
L 422 3181 
L 422 3647 
L 1741 3647 
L 1741 891 
L 2938 1453 
L 2938 947 
z
" transform="scale(0.015625)"/>
      <path id="ArialUnicodeMS-28" d="M 1900 -1344 
L 1497 -1344 
Q 978 -681 681 103 
Q 384 888 384 1656 
Q 384 2528 700 3275 
Q 1016 4022 1497 4659 
L 1900 4659 
Q 1344 3747 1155 3059 
Q 966 2372 966 1663 
Q 966 153 1900 -1344 
z
" transform="scale(0.015625)"/>
      <path id="ArialUnicodeMS-3b4" d="M 1300 4122 
Q 1619 3797 2272 3347 
Q 2644 3091 2861 2884 
Q 3078 2678 3209 2375 
Q 3341 2072 3341 1625 
Q 3341 844 2917 383 
Q 2494 -78 1766 -78 
Q 1034 -78 629 398 
Q 225 875 225 1625 
Q 225 2347 608 2795 
Q 991 3244 1613 3278 
Q 1338 3463 544 4172 
L 544 4581 
L 3047 4581 
L 3047 4122 
L 1300 4122 
z
M 1778 384 
Q 2234 384 2500 711 
Q 2766 1038 2766 1619 
Q 2766 2175 2517 2504 
Q 2269 2834 1778 2834 
Q 1359 2834 1079 2490 
Q 800 2147 800 1619 
Q 800 1050 1070 717 
Q 1341 384 1778 384 
z
" transform="scale(0.015625)"/>
      <path id="ArialUnicodeMS-29" d="M 634 4659 
Q 1153 3997 1450 3212 
Q 1747 2428 1747 1656 
Q 1747 788 1431 41 
Q 1116 -706 634 -1344 
L 231 -1344 
Q 788 -431 977 255 
Q 1166 941 1166 1650 
Q 1166 3163 231 4659 
L 634 4659 
z
" transform="scale(0.015625)"/>
     </defs>
     <use xlink:href="#ArialUnicodeMS-540d"/>
     <use xlink:href="#ArialUnicodeMS-4e49" x="100"/>
     <use xlink:href="#ArialUnicodeMS-56de" x="200"/>
     <use xlink:href="#ArialUnicodeMS-62a5" x="300"/>
     <use xlink:href="#ArialUnicodeMS-51cf" x="400"/>
     <use xlink:href="#ArialUnicodeMS-8ba9" x="500"/>
     <use xlink:href="#ArialUnicodeMS-20" x="600"/>
     <use xlink:href="#ArialUnicodeMS-28" x="627.783203"/>
     <use xlink:href="#ArialUnicodeMS-3b4" x="661.083984"/>
     <use xlink:href="#ArialUnicodeMS-29" x="716.796875"/>
    </g>
   </g>
   <g id="text_13">
    <!-- 总效用构成：金钱回报 + 精神红利 -->
    <g style="fill: #333333" transform="translate(152.324292 22.021875) scale(0.15 -0.15)">
     <defs>
      <path id="ArialUnicodeMS-603b" d="M 4769 1806 
L 1478 1806 
L 1478 4078 
L 2419 4078 
Q 2128 4613 1550 5044 
L 1931 5306 
Q 2534 4856 2841 4281 
L 2547 4084 
L 2547 4078 
L 3738 4078 
L 3738 4084 
L 3406 4281 
Q 3853 4584 4219 5306 
L 4581 5056 
Q 4338 4425 3897 4084 
L 3909 4078 
L 4769 4078 
L 4769 1806 
z
M 4281 2272 
L 4281 3609 
L 1966 3609 
L 1966 2272 
L 4281 2272 
z
M 3950 825 
L 3541 538 
Q 3347 1056 2859 1459 
L 3213 1716 
Q 3631 1331 3950 825 
z
M 4903 709 
Q 4700 -9 4409 -91 
L 4225 -141 
L 2431 -141 
Q 2250 -141 2108 -1 
Q 1966 138 1966 306 
L 1966 1556 
L 2450 1556 
L 2450 422 
Q 2475 325 2584 325 
L 4178 325 
Q 4259 325 4340 517 
Q 4422 709 4447 966 
L 4903 709 
z
M 6003 409 
L 5619 103 
Q 5209 828 4653 1222 
L 5019 1497 
Q 5606 1100 6003 409 
z
M 1778 1216 
Q 1475 497 744 -25 
L 403 306 
Q 972 709 1459 1472 
L 1778 1216 
z
" transform="scale(0.015625)"/>
      <path id="ArialUnicodeMS-6784" d="M 5881 4581 
L 5869 3028 
Q 5869 2181 5725 1093 
Q 5581 6 5389 -191 
Q 5197 -388 4941 -388 
Q 4788 -388 4384 -263 
L 4225 306 
Q 4341 275 4573 183 
Q 4806 91 4928 91 
Q 5066 91 5106 366 
L 5259 1369 
Q 5322 1784 5344 2297 
L 5409 4122 
L 3322 4122 
Q 3125 3428 2681 2803 
L 2259 3084 
Q 2956 4022 3059 5388 
L 3519 5234 
Q 3513 5059 3425 4581 
L 5881 4581 
z
M 2778 2088 
L 2369 1838 
Q 2175 2353 1856 2613 
L 1856 -378 
L 1375 -378 
L 1375 2203 
L 1363 2203 
Q 1194 1634 684 1038 
L 288 1338 
Q 1078 2188 1313 3628 
L 531 3628 
L 531 4097 
L 1369 4097 
L 1369 5338 
L 1856 5338 
L 1856 4097 
L 2584 4097 
L 2584 3634 
L 1856 3634 
L 1856 3022 
L 2022 3116 
Q 2672 2516 2778 2088 
z
M 5178 878 
L 4709 634 
Q 4669 1056 4628 1141 
Q 3647 997 3066 781 
L 2638 1241 
Q 3528 2541 3694 3719 
L 4172 3488 
Q 3866 2281 3475 1691 
L 3278 1388 
L 4475 1594 
Q 4456 1650 4345 1806 
Q 4234 1963 4184 2041 
L 4581 2259 
Q 5094 1675 5178 878 
z
" transform="scale(0.015625)"/>
      <path id="ArialUnicodeMS-6210" d="M 6047 806 
Q 6053 666 5929 261 
Q 5806 -144 5709 -276 
Q 5613 -409 5428 -409 
Q 5159 -409 4751 47 
Q 4344 503 4153 947 
Q 3516 272 2859 -128 
L 2419 213 
Q 3338 709 3922 1409 
Q 3591 2216 3438 3769 
L 1516 3769 
L 1516 2900 
L 3225 2900 
Q 3181 1622 3020 1140 
Q 2859 659 2338 659 
Q 2150 659 1819 709 
L 1606 1241 
Q 2009 1119 2363 1119 
Q 2584 1119 2648 1505 
Q 2713 1891 2725 2431 
L 1509 2431 
Q 1481 1084 1270 496 
Q 1059 -91 728 -459 
L 319 -153 
Q 1000 541 1013 2009 
L 1031 4238 
L 3391 4238 
Q 3359 4997 3359 5319 
L 3841 5319 
Q 3850 4619 3878 4238 
L 5747 4238 
L 5747 3769 
L 3909 3769 
Q 4025 2497 4288 1838 
Q 4734 2413 5106 3431 
L 5550 3284 
Q 5113 2075 4500 1325 
Q 4738 869 5008 498 
Q 5278 128 5409 128 
Q 5450 128 5509 462 
Q 5569 797 5575 1081 
L 6047 806 
z
M 5650 4659 
L 5306 4359 
Q 4688 4859 4063 4928 
L 4447 5275 
Q 5144 5119 5650 4659 
z
" transform="scale(0.015625)"/>
      <path id="ArialUnicodeMS-ff1a" d="M 3520 2675 
L 2879 2675 
L 2879 3316 
L 3520 3316 
L 3520 2675 
z
M 3520 0 
L 2879 0 
L 2879 641 
L 3520 641 
L 3520 0 
z
" transform="scale(0.015625)"/>
      <path id="ArialUnicodeMS-94b1" d="M 2766 4063 
L 1497 4063 
Q 1384 3722 1253 3488 
L 2681 3488 
L 2681 3022 
L 1900 3022 
L 1900 2363 
L 2759 2363 
L 2759 1894 
L 1900 1894 
L 1900 525 
L 2759 953 
L 2759 428 
L 1581 -178 
L 1319 244 
Q 1416 341 1416 447 
L 1416 1894 
L 488 1894 
L 488 2363 
L 1416 2363 
L 1416 3022 
L 991 3022 
Q 838 2781 628 2559 
L 244 2859 
Q 1066 3772 1331 5313 
L 1784 5166 
Q 1728 4822 1638 4531 
L 2766 4531 
L 2766 4063 
z
M 6156 416 
Q 6125 163 5972 -143 
Q 5819 -450 5566 -450 
Q 5306 -450 4931 -89 
Q 4556 272 4372 609 
Q 3363 -163 2706 -416 
L 2369 -25 
Q 3419 397 4109 1031 
Q 3875 1531 3788 2169 
L 2894 2106 
L 2853 2553 
L 3731 2613 
Q 3691 3134 3700 3303 
L 2944 3263 
L 2894 3725 
L 3694 3769 
L 3694 5241 
L 4178 5241 
L 4178 3794 
L 5672 3897 
L 5709 3444 
L 4178 3334 
Q 4178 3222 4213 2650 
L 5806 2753 
L 5844 2303 
L 4263 2194 
Q 4297 1928 4519 1375 
Q 5156 2088 5216 2188 
L 5606 1925 
Q 5322 1466 4750 922 
Q 5069 391 5538 72 
Q 5578 97 5734 659 
L 6156 416 
z
M 5388 4244 
L 5013 3956 
Q 4700 4497 4256 4763 
L 4556 5044 
Q 5166 4694 5388 4244 
z
" transform="scale(0.015625)"/>
      <path id="ArialUnicodeMS-2b" d="M 3384 1997 
L 2131 1997 
L 2131 744 
L 1606 744 
L 1606 1997 
L 353 1997 
L 353 2522 
L 1606 2522 
L 1606 3775 
L 2131 3775 
L 2131 2522 
L 3384 2522 
L 3384 1997 
z
" transform="scale(0.015625)"/>
      <path id="ArialUnicodeMS-7cbe" d="M 6106 2944 
L 2638 2944 
L 2638 3413 
L 4038 3413 
L 4038 3719 
L 2963 3719 
L 2963 4159 
L 4038 4159 
L 4038 4441 
L 2778 4441 
L 2772 4575 
Q 2538 3791 2284 3463 
L 1931 3628 
L 1931 3263 
L 2584 3263 
L 2584 2797 
L 1931 2797 
L 1931 2394 
L 2081 2516 
Q 2644 1991 2881 1434 
L 2472 1234 
Q 2338 1638 1931 2053 
L 1931 -422 
L 1447 -422 
L 1447 1684 
Q 975 856 622 550 
L 288 891 
Q 1063 1738 1416 2797 
L 538 2797 
L 538 3263 
L 1447 3263 
L 1447 5331 
L 1925 5331 
L 1925 3725 
Q 2247 4241 2413 4872 
L 2778 4703 
L 2778 4909 
L 4038 4909 
L 4038 5356 
L 4525 5356 
L 4525 4909 
L 5863 4909 
L 5863 4441 
L 4525 4441 
L 4525 4159 
L 5644 4159 
L 5644 3719 
L 4525 3719 
L 4525 3413 
L 6106 3413 
L 6106 2944 
z
M 1375 3616 
L 928 3438 
Q 909 4059 469 4684 
L 891 4850 
Q 1288 4291 1375 3616 
z
M 5672 213 
Q 5672 0 5528 -136 
Q 5384 -272 5172 -281 
L 4519 -306 
L 4391 172 
L 5025 159 
Q 5184 159 5184 319 
L 5184 628 
L 3425 628 
L 3425 -422 
L 2938 -422 
L 2938 2638 
L 5672 2638 
L 5672 213 
z
M 5184 1875 
L 5184 2169 
L 3425 2169 
L 3425 1875 
L 5184 1875 
z
M 5184 1094 
L 5184 1409 
L 3425 1409 
L 3425 1094 
L 5184 1094 
z
" transform="scale(0.015625)"/>
      <path id="ArialUnicodeMS-795e" d="M 5784 1294 
L 4556 1294 
L 4556 -428 
L 4072 -428 
L 4072 1294 
L 2809 1294 
L 2809 1644 
L 2503 1409 
Q 2331 1741 1959 2034 
L 1959 -428 
L 1472 -428 
L 1472 2119 
Q 844 1603 647 1503 
L 353 1869 
Q 1647 2628 2022 3616 
L 556 3616 
L 556 4084 
L 1503 4084 
L 1503 5319 
L 1991 5319 
L 1991 4084 
L 2631 4084 
Q 2466 3166 1959 2584 
L 1959 2400 
L 2106 2509 
Q 2534 2213 2809 1813 
L 2809 4313 
L 4072 4313 
L 4072 5356 
L 4556 5356 
L 4556 4313 
L 5784 4313 
L 5784 1294 
z
M 5300 3041 
L 5300 3847 
L 4556 3847 
L 4556 3041 
L 5300 3041 
z
M 4072 3041 
L 4072 3847 
L 3297 3847 
L 3297 3041 
L 4072 3041 
z
M 5300 1759 
L 5300 2597 
L 4556 2597 
L 4556 1759 
L 5300 1759 
z
M 4072 1759 
L 4072 2597 
L 3297 2597 
L 3297 1759 
L 4072 1759 
z
" transform="scale(0.015625)"/>
      <path id="ArialUnicodeMS-7ea2" d="M 2656 1741 
Q 1184 1391 744 1247 
L 500 1703 
Q 1125 2331 1409 2766 
Q 1053 2678 716 2572 
L 475 3009 
Q 1153 4281 1550 5300 
L 1997 5094 
Q 1550 4044 1056 3150 
L 1728 3291 
Q 1884 3522 2156 4056 
L 2606 3853 
Q 1966 2547 1281 1906 
L 1294 1894 
L 2656 2228 
L 2656 1741 
z
M 5991 19 
L 2438 19 
L 2438 488 
L 3928 488 
L 3928 4294 
L 2669 4294 
L 2669 4763 
L 5716 4763 
L 5716 4294 
L 4453 4294 
L 4453 488 
L 5991 488 
L 5991 19 
z
M 2791 781 
L 750 72 
L 513 513 
Q 1988 1006 2791 1259 
L 2791 781 
z
" transform="scale(0.015625)"/>
      <path id="ArialUnicodeMS-5229" d="M 5888 153 
Q 5888 3 5755 -178 
Q 5622 -359 5309 -359 
L 4513 -353 
L 4359 172 
L 5228 134 
Q 5381 172 5381 288 
L 5381 5288 
L 5888 5288 
L 5888 153 
z
M 3950 1259 
L 3525 909 
Q 3119 1706 2559 2169 
L 2559 -428 
L 2075 -428 
L 2075 2144 
Q 1766 1428 794 525 
L 366 831 
Q 1484 1806 2003 3097 
L 622 3097 
L 622 3566 
L 2053 3566 
L 2053 4397 
Q 1469 4281 813 4281 
L 563 4763 
Q 2453 4819 3641 5209 
L 3928 4800 
Q 3109 4544 2541 4453 
L 2541 3566 
L 3891 3566 
L 3891 3097 
L 2541 3097 
L 2541 2547 
L 2706 2669 
Q 3581 1938 3950 1259 
z
M 4647 794 
L 4159 794 
L 4159 4531 
L 4647 4531 
L 4647 794 
z
" transform="scale(0.015625)"/>
     </defs>
     <use xlink:href="#ArialUnicodeMS-603b"/>
     <use xlink:href="#ArialUnicodeMS-6548" x="100"/>
     <use xlink:href="#ArialUnicodeMS-7528" x="200"/>
     <use xlink:href="#ArialUnicodeMS-6784" x="300"/>
     <use xlink:href="#ArialUnicodeMS-6210" x="400"/>
     <use xlink:href="#ArialUnicodeMS-ff1a" x="500"/>
     <use xlink:href="#ArialUnicodeMS-91d1" x="600"/>
     <use xlink:href="#ArialUnicodeMS-94b1" x="700"/>
     <use xlink:href="#ArialUnicodeMS-56de" x="800"/>
     <use xlink:href="#ArialUnicodeMS-62a5" x="900"/>
     <use xlink:href="#ArialUnicodeMS-20" x="1000"/>
     <use xlink:href="#ArialUnicodeMS-2b" x="1027.783203"/>
     <use xlink:href="#ArialUnicodeMS-20" x="1086.181641"/>
     <use xlink:href="#ArialUnicodeMS-7cbe" x="1113.964844"/>
     <use xlink:href="#ArialUnicodeMS-795e" x="1213.964844"/>
     <use xlink:href="#ArialUnicodeMS-7ea2" x="1313.964844"/>
     <use xlink:href="#ArialUnicodeMS-5229" x="1413.964844"/>
    </g>
   </g>
   <g id="legend_1">
    <g id="patch_10">
     <path d="M 60.02 56.337187 
L 82.02 56.337187 
L 82.02 48.637187 
L 60.02 48.637187 
z
" style="fill: #94a3b8; opacity: 0.8"/>
    </g>
    <g id="text_14">
     <!-- 金钱回报 E[r] -->
     <g transform="translate(90.82 56.337187) scale(0.11 -0.11)">
      <defs>
       <path id="ArialUnicodeMS-45" d="M 3928 0 
L 506 0 
L 506 4581 
L 3822 4581 
L 3822 4038 
L 1113 4038 
L 1113 2638 
L 3647 2638 
L 3647 2094 
L 1113 2094 
L 1113 544 
L 3928 544 
L 3928 0 
z
" transform="scale(0.015625)"/>
       <path id="ArialUnicodeMS-5b" d="M 1678 -1275 
L 434 -1275 
L 434 4581 
L 1678 4581 
L 1678 4116 
L 997 4116 
L 997 -806 
L 1678 -806 
L 1678 -1275 
z
" transform="scale(0.015625)"/>
       <path id="ArialUnicodeMS-72" d="M 2216 3213 
L 2022 2694 
Q 1813 2816 1613 2816 
Q 1297 2816 1134 2533 
Q 972 2250 972 1741 
L 972 0 
L 409 0 
L 409 3316 
L 922 3316 
L 922 2816 
L 934 2816 
Q 1203 3391 1638 3391 
Q 1925 3391 2216 3213 
z
" transform="scale(0.015625)"/>
       <path id="ArialUnicodeMS-5d" d="M 1344 -1275 
L 103 -1275 
L 103 -806 
L 781 -806 
L 781 4116 
L 103 4116 
L 103 4581 
L 1344 4581 
L 1344 -1275 
z
" transform="scale(0.015625)"/>
      </defs>
      <use xlink:href="#ArialUnicodeMS-91d1"/>
      <use xlink:href="#ArialUnicodeMS-94b1" x="100"/>
      <use xlink:href="#ArialUnicodeMS-56de" x="200"/>
      <use xlink:href="#ArialUnicodeMS-62a5" x="300"/>
      <use xlink:href="#ArialUnicodeMS-20" x="400"/>
      <use xlink:href="#ArialUnicodeMS-45" x="427.783203"/>
      <use xlink:href="#ArialUnicodeMS-5b" x="494.482422"/>
      <use xlink:href="#ArialUnicodeMS-72" x="522.265625"/>
      <use xlink:href="#ArialUnicodeMS-5d" x="555.566406"/>
     </g>
    </g>
    <g id="patch_11">
     <path d="M 60.02 71.902187 
L 82.02 71.902187 
L 82.02 64.202187 
L 60.02 64.202187 
z
" style="fill: #8b5cf6; opacity: 0.8"/>
    </g>
    <g id="text_15">
     <!-- 精神红利 δ·D -->
     <g transform="translate(90.82 71.902187) scale(0.11 -0.11)">
      <defs>
       <path id="ArialUnicodeMS-b7" d="M 1209 1931 
L 569 1931 
L 569 2572 
L 1209 2572 
L 1209 1931 
z
" transform="scale(0.015625)"/>
       <path id="ArialUnicodeMS-44" d="M 513 4581 
L 2094 4581 
Q 2509 4581 2809 4539 
Q 3109 4497 3382 4333 
Q 3656 4169 3861 3881 
Q 4066 3594 4183 3220 
Q 4300 2847 4300 2316 
Q 4300 1303 3819 651 
Q 3338 0 2163 0 
L 513 0 
L 513 4581 
z
M 1119 544 
L 2100 544 
Q 2400 544 2636 581 
Q 2872 619 3114 784 
Q 3356 950 3515 1328 
Q 3675 1706 3675 2328 
Q 3675 2672 3614 2970 
Q 3553 3269 3389 3514 
Q 3225 3759 3012 3873 
Q 2800 3988 2598 4013 
Q 2397 4038 2081 4038 
L 1119 4038 
L 1119 544 
z
" transform="scale(0.015625)"/>
      </defs>
      <use xlink:href="#ArialUnicodeMS-7cbe"/>
      <use xlink:href="#ArialUnicodeMS-795e" x="100"/>
      <use xlink:href="#ArialUnicodeMS-7ea2" x="200"/>
      <use xlink:href="#ArialUnicodeMS-5229" x="300"/>
      <use xlink:href="#ArialUnicodeMS-20" x="400"/>
      <use xlink:href="#ArialUnicodeMS-3b4" x="427.783203"/>
      <use xlink:href="#ArialUnicodeMS-b7" x="483.496094"/>
      <use xlink:href="#ArialUnicodeMS-44" x="511.279297"/>
     </g>
    </g>
   </g>
  </g>
 </g>
 <defs>
  <clipPath id="pde24a6142c">
   <rect x="50.12" y="37.021875" width="431.503896" height="294.018125"/>
  </clipPath>
 </defs>
</svg>
