<?xml version="1.0" encoding="utf-8" standalone="no"?>
<!DOCTYPE svg PUBLIC "-//W3C//DTD SVG 1.1//EN"
  "http://www.w3.org/Graphics/SVG/1.1/DTD/svg11.dtd">
<svg xmlns:xlink="http://www.w3.org/1999/xlink" width="432pt" height="288pt" viewBox="0 0 432 288" xmlns="http://www.w3.org/2000/svg" version="1.1">
 <metadata>
  <rdf:RDF xmlns:dc="http://purl.org/dc/elements/1.1/" xmlns:cc="http://creativecommons.org/ns#" xmlns:rdf="http://www.w3.org/1999/02/22-rdf-syntax-ns#">
   <cc:Work>
    <dc:type rdf:resource="http://purl.org/dc/dcmitype/StillImage"/>
    <dc:date>2026-05-11T09:52:22.315561</dc:date>
    <dc:format>image/svg+xml</dc:format>
    <dc:creator>
     <cc:Agent>
      <dc:title>Matplotlib v3.9.4, https://matplotlib.org/</dc:title>
     </cc:Agent>
    </dc:creator>
   </cc:Work>
  </rdf:RDF>
 </metadata>
 <defs>
  <style type="text/css">*{stroke-linejoin: round; stroke-linecap: butt}</style>
 </defs>
 <g id="figure_1">
  <g id="patch_1">
   <path d="M 0 288 
L 432 288 
L 432 0 
L 0 0 
z
" style="fill: #ffffff"/>
  </g>
  <g id="axes_1">
   <g id="patch_2">
    <path d="M 27.225625 260.84 
L 421.2 260.84 
L 421.2 10.8 
L 27.225625 10.8 
z
" style="fill: #ffffff"/>
   </g>
   <g id="patch_3">
    <path d="M 45.133551 260.84 
L 204.315117 260.84 
L 204.315117 10.8 
L 45.133551 10.8 
z
" clip-path="url(#p20545cded1)" style="fill: #34495e"/>
   </g>
   <g id="patch_4">
    <path d="M 244.110508 260.84 
L 403.292074 260.84 
L 403.292074 85.812 
L 244.110508 85.812 
z
" clip-path="url(#p20545cded1)" style="fill: #34495e"/>
   </g>
   <g id="patch_5">
    <path d="M 45.133551 10.8 
L 204.315117 10.8 
L 204.315117 10.8 
L 45.133551 10.8 
z
" clip-path="url(#p20545cded1)" style="fill: #f39c12"/>
   </g>
   <g id="patch_6">
    <path d="M 244.110508 85.812 
L 403.292074 85.812 
L 403.292074 10.8 
L 244.110508 10.8 
z
" clip-path="url(#p20545cded1)" style="fill: #f39c12"/>
   </g>
   <g id="matplotlib.axis_1">
    <g id="xtick_1">
     <g id="line2d_1">
      <path d="M 124.724334 260.84 
L 124.724334 10.8 
" clip-path="url(#p20545cded1)" style="fill: none; stroke-dasharray: 2.96,1.28; stroke-dashoffset: 0; stroke: #b0b0b0; stroke-opacity: 0.3; stroke-width: 0.8"/>
     </g>
     <g id="line2d_2">
      <defs>
       <path id="m1e922df7e7" d="M 0 0 
L 0 3.5 
" style="stroke: #000000; stroke-width: 0.8"/>
      </defs>
      <g>
       <use xlink:href="#m1e922df7e7" x="124.724334" y="260.84" style="stroke: #000000; stroke-width: 0.8"/>
      </g>
     </g>
     <g id="text_1">
      <!-- 金融资产 -->
      <g transform="translate(104.724334 275.105625) scale(0.1 -0.1)">
       <defs>
        <path id="ArialUnicodeMS-91d1" d="M 6144 3163 
L 5753 2766 
Q 5238 2934 4647 3328 
L 4647 3072 
L 3488 3072 
L 3488 2328 
L 5228 2328 
L 5228 1869 
L 3488 1869 
L 3488 325 
L 5778 325 
L 5778 -134 
L 709 -134 
L 709 325 
L 3003 325 
L 3003 1869 
L 1234 1869 
L 1234 2328 
L 3003 2328 
L 3003 3072 
L 1838 3072 
L 1838 3341 
Q 1266 2969 672 2700 
L 347 3103 
Q 2378 4019 3225 5478 
L 3622 5209 
L 3531 5044 
Q 4700 3588 6144 3163 
z
M 4378 3525 
Q 3634 4109 3244 4647 
Q 2638 3903 2113 3547 
L 2113 3525 
L 4378 3525 
z
M 5025 1522 
Q 4675 769 4141 359 
L 3706 659 
Q 4281 1072 4634 1806 
L 5025 1522 
z
M 2644 628 
L 2175 428 
Q 1897 1125 1441 1544 
L 1875 1747 
Q 2356 1334 2644 628 
z
" transform="scale(0.015625)"/>
        <path id="ArialUnicodeMS-878d" d="M 6188 -153 
Q 5934 -256 5728 -306 
Q 5663 131 5631 213 
Q 5316 122 3653 -219 
L 3463 166 
L 3450 166 
Q 3425 -9 3290 -151 
Q 3156 -294 2939 -303 
Q 2722 -313 2431 -313 
L 2284 122 
Q 2400 128 2537 109 
Q 2675 91 2722 91 
Q 2894 91 2948 158 
Q 3003 225 3003 459 
L 3003 1403 
Q 2700 1391 2512 1469 
Q 2325 1547 2289 1706 
Q 2253 1866 2203 2369 
L 1906 2375 
Q 1925 2031 1764 1711 
Q 1603 1391 1269 1281 
L 1269 1269 
L 2875 1269 
Q 2884 1125 2881 831 
L 2222 831 
L 2222 -31 
L 1772 -31 
L 1772 831 
L 1203 831 
L 1203 1269 
L 1069 1478 
L 1056 1478 
L 1056 -397 
L 603 -397 
L 603 2847 
L 3456 2847 
L 3456 263 
Q 4519 438 4575 453 
L 4575 1619 
L 3794 1619 
L 3794 4006 
L 4575 4006 
L 4575 5288 
L 5031 5281 
L 5031 4006 
L 5819 4006 
L 5819 1619 
L 5038 1619 
L 5038 513 
Q 5075 525 5265 558 
Q 5456 591 5503 616 
Q 5488 641 5414 817 
Q 5341 994 5241 1106 
L 5644 1253 
Q 6047 741 6188 -153 
z
M 5388 2094 
L 5388 3547 
L 5031 3541 
L 5031 2094 
L 5388 2094 
z
M 4575 2094 
L 4575 3547 
L 4244 3547 
L 4244 2094 
L 4575 2094 
z
M 3009 1844 
L 3009 2375 
L 2638 2375 
L 2638 1931 
Q 2666 1884 2692 1876 
Q 2719 1869 2819 1859 
Q 2919 1850 3009 1844 
z
M 1472 2375 
L 1063 2375 
L 1063 1650 
Q 1513 1853 1472 2375 
z
M 3694 4659 
L 409 4659 
L 409 5119 
L 3694 5119 
L 3694 4659 
z
M 3156 3122 
L 928 3122 
L 928 4372 
L 3156 4372 
L 3156 3122 
z
M 2681 3559 
L 2681 3922 
L 1394 3922 
L 1394 3559 
L 2681 3559 
z
" transform="scale(0.015625)"/>
        <path id="ArialUnicodeMS-8d44" d="M 5522 4863 
Q 5541 4597 5477 4328 
Q 5413 4059 5131 3622 
L 4697 3859 
Q 4913 4106 5013 4397 
L 3144 4397 
Q 2878 3913 2203 3444 
L 1875 3822 
Q 2672 4297 3003 5306 
L 3431 5153 
Q 3403 5059 3322 4863 
L 5522 4863 
z
M 1766 4550 
L 1409 4172 
Q 1103 4628 594 4941 
L 891 5234 
Q 1459 4978 1766 4550 
z
M 6009 2778 
L 5678 2369 
Q 4472 2688 3788 3481 
Q 3591 3172 3142 2912 
Q 2694 2653 2222 2578 
L 2222 2572 
L 4813 2572 
L 4813 575 
L 4325 575 
L 4325 2106 
L 2119 2106 
L 2119 575 
L 1631 575 
L 1631 2572 
L 1913 2572 
L 1716 2847 
Q 2591 3081 3020 3382 
Q 3450 3684 3641 4250 
L 4091 4147 
L 4006 3897 
Q 4269 3525 4686 3267 
Q 5103 3009 6009 2778 
z
M 1806 3688 
Q 1628 3134 831 2369 
L 453 2713 
Q 1106 3253 1453 3922 
L 1806 3688 
z
M 3450 1906 
Q 3453 572 2761 120 
Q 2069 -331 819 -384 
L 594 84 
Q 1419 134 1742 186 
Q 2066 238 2409 461 
Q 2753 684 2848 979 
Q 2944 1275 2988 1906 
L 3450 1906 
z
M 5503 0 
L 5259 -447 
Q 4506 47 3272 306 
L 3494 722 
Q 4728 478 5503 0 
z
" transform="scale(0.015625)"/>
        <path id="ArialUnicodeMS-4ea7" d="M 5691 3994 
L 481 3994 
L 481 4434 
L 3053 4434 
Q 2816 4841 2431 5125 
L 2766 5394 
Q 3319 4947 3578 4550 
L 3413 4447 
L 3413 4434 
L 5691 4434 
L 5691 3994 
z
M 5691 2547 
L 1509 2547 
L 1509 1375 
Q 1509 219 519 -403 
L 159 -38 
Q 1025 456 1025 1516 
L 1025 2988 
L 2278 2988 
Q 2122 3325 1691 3681 
L 1997 3938 
Q 2450 3641 2803 3138 
L 2584 2988 
L 3413 2988 
Q 3856 3441 4056 3928 
L 4481 3700 
Q 4278 3306 4000 2988 
L 5691 2988 
L 5691 2547 
z
" transform="scale(0.015625)"/>
       </defs>
       <use xlink:href="#ArialUnicodeMS-91d1"/>
       <use xlink:href="#ArialUnicodeMS-878d" x="100"/>
       <use xlink:href="#ArialUnicodeMS-8d44" x="200"/>
       <use xlink:href="#ArialUnicodeMS-4ea7" x="300"/>
      </g>
     </g>
    </g>
    <g id="xtick_2">
     <g id="line2d_3">
      <path d="M 323.701291 260.84 
L 323.701291 10.8 
" clip-path="url(#p20545cded1)" style="fill: none; stroke-dasharray: 2.96,1.28; stroke-dashoffset: 0; stroke: #b0b0b0; stroke-opacity: 0.3; stroke-width: 0.8"/>
     </g>
     <g id="line2d_4">
      <g>
       <use xlink:href="#m1e922df7e7" x="323.701291" y="260.84" style="stroke: #000000; stroke-width: 0.8"/>
      </g>
     </g>
     <g id="text_2">
      <!-- 艺术品 -->
      <g transform="translate(308.701291 274.997813) scale(0.1 -0.1)">
       <defs>
        <path id="ArialUnicodeMS-827a" d="M 5881 4172 
L 4256 4172 
L 4256 3494 
L 3775 3494 
L 3775 4172 
L 2497 4172 
L 2497 3494 
L 2016 3494 
L 2016 4172 
L 441 4172 
L 441 4616 
L 2016 4616 
L 2016 5247 
L 2497 5247 
L 2497 4616 
L 3775 4616 
L 3775 5247 
L 4256 5247 
L 4256 4616 
L 5881 4616 
L 5881 4172 
z
M 5663 916 
Q 5522 -184 5006 -184 
L 1709 -184 
Q 1484 -184 1356 -32 
Q 1228 119 1228 338 
Q 1228 650 1828 1256 
Q 2428 1863 3681 2706 
L 3681 2713 
L 1325 2713 
L 1325 3181 
L 4494 3181 
L 4494 2725 
Q 3250 1931 2486 1186 
Q 1722 441 1722 338 
Q 1722 281 1772 281 
L 4825 281 
Q 5103 281 5172 1106 
L 5663 916 
z
" transform="scale(0.015625)"/>
        <path id="ArialUnicodeMS-672f" d="M 6059 494 
L 5716 103 
Q 5100 413 4472 1198 
Q 3844 1984 3513 3291 
L 3372 3291 
L 3372 -441 
L 2888 -441 
L 2888 3291 
L 2747 3291 
Q 2241 1028 563 109 
L 219 481 
Q 1775 1356 2278 3291 
L 391 3291 
L 391 3756 
L 2888 3756 
L 2888 5216 
L 3372 5216 
L 3372 3756 
L 5850 3756 
L 5850 3291 
L 3975 3291 
Q 4609 1278 6059 494 
z
M 5125 4159 
L 4750 3859 
Q 4403 4409 3744 4738 
L 4056 5050 
Q 4722 4747 5125 4159 
z
" transform="scale(0.015625)"/>
        <path id="ArialUnicodeMS-54c1" d="M 4997 2963 
L 1363 2963 
L 1363 5069 
L 4997 5069 
L 4997 2963 
z
M 4575 3378 
L 4575 4653 
L 1806 4653 
L 1806 3378 
L 4575 3378 
z
M 5656 -372 
L 5172 -372 
L 5172 72 
L 3956 72 
L 3956 -372 
L 3469 -372 
L 3469 2491 
L 5656 2491 
L 5656 -372 
z
M 5172 538 
L 5172 2022 
L 3956 2022 
L 3956 538 
L 5172 538 
z
M 2894 -397 
L 2406 -397 
L 2406 38 
L 1228 38 
L 1228 -422 
L 744 -409 
L 744 2472 
L 2894 2472 
L 2894 -397 
z
M 2406 506 
L 2406 2003 
L 1228 2003 
L 1228 506 
L 2406 506 
z
" transform="scale(0.015625)"/>
       </defs>
       <use xlink:href="#ArialUnicodeMS-827a"/>
       <use xlink:href="#ArialUnicodeMS-672f" x="100"/>
       <use xlink:href="#ArialUnicodeMS-54c1" x="200"/>
      </g>
     </g>
    </g>
   </g>
   <g id="matplotlib.axis_2">
    <g id="text_3">
     <!-- 投资者总效用 (U) -->
     <g transform="translate(20.705625 181.815625) rotate(-90) scale(0.12 -0.12)">
      <defs>
       <path id="ArialUnicodeMS-6295" d="M 2625 3603 
L 1888 3603 
L 1888 2322 
L 2606 2559 
L 2606 2094 
Q 2516 2047 1888 1838 
L 1888 122 
Q 1888 -91 1739 -242 
Q 1591 -394 1331 -397 
L 744 -403 
L 581 78 
Q 694 50 1259 50 
Q 1403 50 1403 197 
L 1403 1684 
Q 938 1513 659 1441 
L 359 1863 
Q 959 2000 1403 2156 
L 1403 3603 
L 569 3603 
L 569 4072 
L 1403 4072 
L 1403 5253 
L 1888 5253 
L 1888 4072 
L 2625 4072 
L 2625 3603 
z
M 6041 3775 
Q 5925 3003 5522 3003 
L 5069 3003 
Q 4844 3003 4709 3133 
Q 4575 3263 4575 3488 
L 4575 4628 
L 3628 4628 
Q 3628 3994 3586 3712 
Q 3544 3431 3342 3167 
Q 3141 2903 2841 2719 
L 2450 3066 
Q 3144 3475 3144 4072 
L 3144 5094 
L 5069 5094 
L 5069 3603 
Q 5069 3469 5197 3469 
L 5375 3469 
Q 5531 3469 5569 4013 
L 6041 3775 
z
M 6163 25 
L 5850 -422 
Q 5116 -222 4159 531 
Q 3409 -91 2456 -397 
L 2131 31 
Q 3250 384 3816 884 
Q 3328 1450 3053 2216 
L 2719 2216 
L 2719 2681 
L 5422 2681 
Q 5341 1663 4544 863 
Q 5231 284 6163 25 
z
M 4831 2216 
L 3572 2216 
Q 3850 1494 4184 1216 
Q 4666 1688 4831 2216 
z
" transform="scale(0.015625)"/>
       <path id="ArialUnicodeMS-8005" d="M 5947 2931 
L 3706 2931 
Q 3225 2606 2822 2413 
L 5106 2413 
L 5106 -409 
L 4622 -409 
L 4622 -31 
L 2450 -31 
L 2450 -409 
L 1966 -409 
L 1966 1947 
L 709 1416 
L 397 1838 
Q 1816 2338 2803 2925 
L 744 2925 
L 744 3397 
L 2741 3397 
L 2741 4091 
L 1356 4091 
L 1356 4556 
L 2741 4556 
L 2741 5350 
L 3244 5350 
L 3244 4556 
L 4441 4556 
L 4441 4178 
Q 4838 4628 5131 4991 
L 5556 4722 
Q 4878 3850 4341 3397 
L 5947 3397 
L 5947 2931 
z
M 4347 4091 
L 3244 4091 
L 3238 3397 
L 3566 3397 
Q 3872 3625 4347 4091 
z
M 4622 1447 
L 4622 1953 
L 2450 1953 
L 2450 1447 
L 4622 1447 
z
M 4622 434 
L 4622 978 
L 2450 978 
L 2450 434 
L 4622 434 
z
" transform="scale(0.015625)"/>
       <path id="ArialUnicodeMS-603b" d="M 4769 1806 
L 1478 1806 
L 1478 4078 
L 2419 4078 
Q 2128 4613 1550 5044 
L 1931 5306 
Q 2534 4856 2841 4281 
L 2547 4084 
L 2547 4078 
L 3738 4078 
L 3738 4084 
L 3406 4281 
Q 3853 4584 4219 5306 
L 4581 5056 
Q 4338 4425 3897 4084 
L 3909 4078 
L 4769 4078 
L 4769 1806 
z
M 4281 2272 
L 4281 3609 
L 1966 3609 
L 1966 2272 
L 4281 2272 
z
M 3950 825 
L 3541 538 
Q 3347 1056 2859 1459 
L 3213 1716 
Q 3631 1331 3950 825 
z
M 4903 709 
Q 4700 -9 4409 -91 
L 4225 -141 
L 2431 -141 
Q 2250 -141 2108 -1 
Q 1966 138 1966 306 
L 1966 1556 
L 2450 1556 
L 2450 422 
Q 2475 325 2584 325 
L 4178 325 
Q 4259 325 4340 517 
Q 4422 709 4447 966 
L 4903 709 
z
M 6003 409 
L 5619 103 
Q 5209 828 4653 1222 
L 5019 1497 
Q 5606 1100 6003 409 
z
M 1778 1216 
Q 1475 497 744 -25 
L 403 306 
Q 972 709 1459 1472 
L 1778 1216 
z
" transform="scale(0.015625)"/>
       <path id="ArialUnicodeMS-6548" d="M 6119 -38 
L 5747 -409 
Q 5044 116 4609 756 
Q 4109 116 3384 -403 
L 3009 -63 
Q 3956 584 4341 1197 
Q 4041 1756 3866 2534 
Q 3672 2144 3450 1850 
L 3022 2081 
Q 3528 2766 3722 3500 
Q 3916 4234 3916 5338 
L 4366 5259 
Q 4384 4781 4306 4072 
L 5953 4072 
L 5953 3603 
L 5569 3603 
Q 5491 2219 4884 1184 
Q 5456 391 6119 -38 
z
M 5063 3603 
L 4231 3603 
L 4166 3322 
Q 4375 2238 4628 1716 
Q 5025 2469 5063 3603 
z
M 3359 3878 
L 569 3878 
L 569 4347 
L 1753 4347 
L 1753 5184 
L 2253 5184 
L 2253 4347 
L 3359 4347 
L 3359 3878 
z
M 1656 3641 
Q 1409 2850 775 2419 
L 384 2719 
Q 953 3006 1234 3803 
L 1656 3641 
z
M 3366 2803 
L 2969 2553 
Q 2688 3184 2150 3547 
L 2559 3794 
Q 3134 3359 3366 2803 
z
M 3278 628 
L 2888 281 
Q 2581 716 2234 1063 
Q 1747 269 769 -306 
L 469 103 
Q 1353 613 1869 1416 
Q 1272 2016 984 2163 
L 1344 2456 
Q 1422 2409 2113 1838 
Q 2219 2069 2375 2650 
L 2797 2456 
Q 2691 1897 2491 1503 
Q 2981 1028 3278 628 
z
" transform="scale(0.015625)"/>
       <path id="ArialUnicodeMS-7528" d="M 5472 159 
Q 5472 -66 5340 -219 
Q 5209 -372 5013 -372 
L 4347 -372 
L 4191 128 
L 4722 113 
Q 4966 113 4966 256 
L 4966 1722 
L 3572 1722 
L 3572 13 
L 3084 13 
L 3084 1722 
L 1678 1722 
Q 1584 466 744 -469 
L 331 -159 
Q 794 394 1001 936 
Q 1209 1478 1209 2194 
L 1209 5044 
L 5472 5044 
L 5472 159 
z
M 4966 3641 
L 4966 4575 
L 3572 4575 
L 3572 3641 
L 4966 3641 
z
M 3084 3641 
L 3084 4575 
L 1697 4575 
L 1697 3641 
L 3084 3641 
z
M 4966 2188 
L 4966 3175 
L 3572 3175 
L 3572 2188 
L 4966 2188 
z
M 3084 2188 
L 3084 3175 
L 1697 3175 
L 1697 2188 
L 3084 2188 
z
" transform="scale(0.015625)"/>
       <path id="ArialUnicodeMS-20" transform="scale(0.015625)"/>
       <path id="ArialUnicodeMS-28" d="M 1900 -1344 
L 1497 -1344 
Q 978 -681 681 103 
Q 384 888 384 1656 
Q 384 2528 700 3275 
Q 1016 4022 1497 4659 
L 1900 4659 
Q 1344 3747 1155 3059 
Q 966 2372 966 1663 
Q 966 153 1900 -1344 
z
" transform="scale(0.015625)"/>
       <path id="ArialUnicodeMS-55" d="M 4109 1931 
Q 4109 1578 4070 1278 
Q 4031 978 3864 661 
Q 3697 344 3320 133 
Q 2944 -78 2316 -78 
Q 1703 -78 1328 109 
Q 953 297 778 594 
Q 603 891 554 1212 
Q 506 1534 506 1931 
L 506 4581 
L 1113 4581 
L 1113 1941 
Q 1113 1528 1172 1229 
Q 1231 931 1484 700 
Q 1738 469 2266 469 
Q 2800 469 3069 653 
Q 3338 838 3419 1145 
Q 3500 1453 3500 1941 
L 3500 4581 
L 4109 4581 
L 4109 1931 
z
" transform="scale(0.015625)"/>
       <path id="ArialUnicodeMS-29" d="M 634 4659 
Q 1153 3997 1450 3212 
Q 1747 2428 1747 1656 
Q 1747 788 1431 41 
Q 1116 -706 634 -1344 
L 231 -1344 
Q 788 -431 977 255 
Q 1166 941 1166 1650 
Q 1166 3163 231 4659 
L 634 4659 
z
" transform="scale(0.015625)"/>
      </defs>
      <use xlink:href="#ArialUnicodeMS-6295"/>
      <use xlink:href="#ArialUnicodeMS-8d44" x="100"/>
      <use xlink:href="#ArialUnicodeMS-8005" x="200"/>
      <use xlink:href="#ArialUnicodeMS-603b" x="300"/>
      <use xlink:href="#ArialUnicodeMS-6548" x="400"/>
      <use xlink:href="#ArialUnicodeMS-7528" x="500"/>
      <use xlink:href="#ArialUnicodeMS-20" x="600"/>
      <use xlink:href="#ArialUnicodeMS-28" x="627.783203"/>
      <use xlink:href="#ArialUnicodeMS-55" x="661.083984"/>
      <use xlink:href="#ArialUnicodeMS-29" x="733.300781"/>
     </g>
    </g>
   </g>
   <g id="patch_7">
    <path d="M 27.225625 260.84 
L 27.225625 10.8 
" style="fill: none; stroke: #000000; stroke-width: 0.8; stroke-linejoin: miter; stroke-linecap: square"/>
   </g>
   <g id="patch_8">
    <path d="M 27.225625 260.84 
L 421.2 260.84 
" style="fill: none; stroke: #000000; stroke-width: 0.8; stroke-linejoin: miter; stroke-linecap: square"/>
   </g>
   <g id="legend_1">
    <g id="patch_9">
     <path d="M 344.2 27.070312 
L 364.2 27.070312 
L 364.2 20.070312 
L 344.2 20.070312 
z
" style="fill: #34495e"/>
    </g>
    <g id="text_4">
     <!-- 金钱回报 -->
     <g transform="translate(372.2 27.070312) scale(0.1 -0.1)">
      <defs>
       <path id="ArialUnicodeMS-94b1" d="M 2766 4063 
L 1497 4063 
Q 1384 3722 1253 3488 
L 2681 3488 
L 2681 3022 
L 1900 3022 
L 1900 2363 
L 2759 2363 
L 2759 1894 
L 1900 1894 
L 1900 525 
L 2759 953 
L 2759 428 
L 1581 -178 
L 1319 244 
Q 1416 341 1416 447 
L 1416 1894 
L 488 1894 
L 488 2363 
L 1416 2363 
L 1416 3022 
L 991 3022 
Q 838 2781 628 2559 
L 244 2859 
Q 1066 3772 1331 5313 
L 1784 5166 
Q 1728 4822 1638 4531 
L 2766 4531 
L 2766 4063 
z
M 6156 416 
Q 6125 163 5972 -143 
Q 5819 -450 5566 -450 
Q 5306 -450 4931 -89 
Q 4556 272 4372 609 
Q 3363 -163 2706 -416 
L 2369 -25 
Q 3419 397 4109 1031 
Q 3875 1531 3788 2169 
L 2894 2106 
L 2853 2553 
L 3731 2613 
Q 3691 3134 3700 3303 
L 2944 3263 
L 2894 3725 
L 3694 3769 
L 3694 5241 
L 4178 5241 
L 4178 3794 
L 5672 3897 
L 5709 3444 
L 4178 3334 
Q 4178 3222 4213 2650 
L 5806 2753 
L 5844 2303 
L 4263 2194 
Q 4297 1928 4519 1375 
Q 5156 2088 5216 2188 
L 5606 1925 
Q 5322 1466 4750 922 
Q 5069 391 5538 72 
Q 5578 97 5734 659 
L 6156 416 
z
M 5388 4244 
L 5013 3956 
Q 4700 4497 4256 4763 
L 4556 5044 
Q 5166 4694 5388 4244 
z
" transform="scale(0.015625)"/>
       <path id="ArialUnicodeMS-56de" d="M 5575 -134 
L 5088 -147 
L 5088 313 
L 1313 313 
L 1313 -191 
L 825 -191 
L 825 4825 
L 5575 4825 
L 5575 -134 
z
M 5088 794 
L 5088 4366 
L 1313 4366 
L 1313 794 
L 5088 794 
z
M 4378 1509 
L 1997 1509 
L 1997 3653 
L 4378 3653 
L 4378 1509 
z
M 3891 1972 
L 3891 3194 
L 2484 3194 
L 2484 1972 
L 3891 1972 
z
" transform="scale(0.015625)"/>
       <path id="ArialUnicodeMS-62a5" d="M 2828 3603 
L 1959 3603 
L 1959 2425 
L 2784 2713 
L 2784 2228 
L 1959 1931 
L 1959 219 
Q 1959 -106 1829 -232 
Q 1700 -359 1416 -359 
Q 1181 -359 775 -288 
L 616 213 
Q 1197 109 1334 109 
Q 1453 109 1453 288 
L 1453 1753 
L 550 1428 
L 313 1919 
L 1453 2284 
L 1453 3603 
L 453 3603 
L 453 4072 
L 1453 4072 
L 1453 5247 
L 1959 5247 
L 1959 4072 
L 2828 4072 
L 2828 3603 
z
M 6053 -31 
L 5716 -403 
Q 5125 -69 4716 416 
Q 4522 78 3872 -422 
L 3609 -159 
L 3609 -441 
L 3103 -441 
L 3103 5019 
L 5491 5019 
Q 5463 4247 5355 3901 
Q 5247 3556 5087 3437 
Q 4928 3319 4609 3319 
Q 4359 3319 4078 3391 
L 3956 3884 
Q 4338 3788 4641 3788 
Q 4744 3788 4794 3839 
Q 4844 3891 4900 4087 
Q 4956 4284 4966 4550 
L 3609 4550 
L 3609 3041 
L 5544 3041 
Q 5519 1894 4978 863 
Q 5256 463 6053 -31 
z
M 5038 2572 
L 4353 2572 
Q 4441 1913 4709 1319 
Q 4997 1922 5038 2572 
z
M 4422 856 
Q 4019 1619 3878 2572 
L 3609 2572 
L 3609 31 
Q 4144 369 4422 856 
z
" transform="scale(0.015625)"/>
      </defs>
      <use xlink:href="#ArialUnicodeMS-91d1"/>
      <use xlink:href="#ArialUnicodeMS-94b1" x="100"/>
      <use xlink:href="#ArialUnicodeMS-56de" x="200"/>
      <use xlink:href="#ArialUnicodeMS-62a5" x="300"/>
     </g>
    </g>
    <g id="patch_10">
     <path d="M 344.2 41.220313 
L 364.2 41.220313 
L 364.2 34.220313 
L 344.2 34.220313 
z
" style="fill: #f39c12"/>
    </g>
    <g id="text_5">
     <!-- 精神红利 -->
     <g transform="translate(372.2 41.220313) scale(0.1 -0.1)">
      <defs>
       <path id="ArialUnicodeMS-7cbe" d="M 6106 2944 
L 2638 2944 
L 2638 3413 
L 4038 3413 
L 4038 3719 
L 2963 3719 
L 2963 4159 
L 4038 4159 
L 4038 4441 
L 2778 4441 
L 2772 4575 
Q 2538 3791 2284 3463 
L 1931 3628 
L 1931 3263 
L 2584 3263 
L 2584 2797 
L 1931 2797 
L 1931 2394 
L 2081 2516 
Q 2644 1991 2881 1434 
L 2472 1234 
Q 2338 1638 1931 2053 
L 1931 -422 
L 1447 -422 
L 1447 1684 
Q 975 856 622 550 
L 288 891 
Q 1063 1738 1416 2797 
L 538 2797 
L 538 3263 
L 1447 3263 
L 1447 5331 
L 1925 5331 
L 1925 3725 
Q 2247 4241 2413 4872 
L 2778 4703 
L 2778 4909 
L 4038 4909 
L 4038 5356 
L 4525 5356 
L 4525 4909 
L 5863 4909 
L 5863 4441 
L 4525 4441 
L 4525 4159 
L 5644 4159 
L 5644 3719 
L 4525 3719 
L 4525 3413 
L 6106 3413 
L 6106 2944 
z
M 1375 3616 
L 928 3438 
Q 909 4059 469 4684 
L 891 4850 
Q 1288 4291 1375 3616 
z
M 5672 213 
Q 5672 0 5528 -136 
Q 5384 -272 5172 -281 
L 4519 -306 
L 4391 172 
L 5025 159 
Q 5184 159 5184 319 
L 5184 628 
L 3425 628 
L 3425 -422 
L 2938 -422 
L 2938 2638 
L 5672 2638 
L 5672 213 
z
M 5184 1875 
L 5184 2169 
L 3425 2169 
L 3425 1875 
L 5184 1875 
z
M 5184 1094 
L 5184 1409 
L 3425 1409 
L 3425 1094 
L 5184 1094 
z
" transform="scale(0.015625)"/>
       <path id="ArialUnicodeMS-795e" d="M 5784 1294 
L 4556 1294 
L 4556 -428 
L 4072 -428 
L 4072 1294 
L 2809 1294 
L 2809 1644 
L 2503 1409 
Q 2331 1741 1959 2034 
L 1959 -428 
L 1472 -428 
L 1472 2119 
Q 844 1603 647 1503 
L 353 1869 
Q 1647 2628 2022 3616 
L 556 3616 
L 556 4084 
L 1503 4084 
L 1503 5319 
L 1991 5319 
L 1991 4084 
L 2631 4084 
Q 2466 3166 1959 2584 
L 1959 2400 
L 2106 2509 
Q 2534 2213 2809 1813 
L 2809 4313 
L 4072 4313 
L 4072 5356 
L 4556 5356 
L 4556 4313 
L 5784 4313 
L 5784 1294 
z
M 5300 3041 
L 5300 3847 
L 4556 3847 
L 4556 3041 
L 5300 3041 
z
M 4072 3041 
L 4072 3847 
L 3297 3847 
L 3297 3041 
L 4072 3041 
z
M 5300 1759 
L 5300 2597 
L 4556 2597 
L 4556 1759 
L 5300 1759 
z
M 4072 1759 
L 4072 2597 
L 3297 2597 
L 3297 1759 
L 4072 1759 
z
" transform="scale(0.015625)"/>
       <path id="ArialUnicodeMS-7ea2" d="M 2656 1741 
Q 1184 1391 744 1247 
L 500 1703 
Q 1125 2331 1409 2766 
Q 1053 2678 716 2572 
L 475 3009 
Q 1153 4281 1550 5300 
L 1997 5094 
Q 1550 4044 1056 3150 
L 1728 3291 
Q 1884 3522 2156 4056 
L 2606 3853 
Q 1966 2547 1281 1906 
L 1294 1894 
L 2656 2228 
L 2656 1741 
z
M 5991 19 
L 2438 19 
L 2438 488 
L 3928 488 
L 3928 4294 
L 2669 4294 
L 2669 4763 
L 5716 4763 
L 5716 4294 
L 4453 4294 
L 4453 488 
L 5991 488 
L 5991 19 
z
M 2791 781 
L 750 72 
L 513 513 
Q 1988 1006 2791 1259 
L 2791 781 
z
" transform="scale(0.015625)"/>
       <path id="ArialUnicodeMS-5229" d="M 5888 153 
Q 5888 3 5755 -178 
Q 5622 -359 5309 -359 
L 4513 -353 
L 4359 172 
L 5228 134 
Q 5381 172 5381 288 
L 5381 5288 
L 5888 5288 
L 5888 153 
z
M 3950 1259 
L 3525 909 
Q 3119 1706 2559 2169 
L 2559 -428 
L 2075 -428 
L 2075 2144 
Q 1766 1428 794 525 
L 366 831 
Q 1484 1806 2003 3097 
L 622 3097 
L 622 3566 
L 2053 3566 
L 2053 4397 
Q 1469 4281 813 4281 
L 563 4763 
Q 2453 4819 3641 5209 
L 3928 4800 
Q 3109 4544 2541 4453 
L 2541 3566 
L 3891 3566 
L 3891 3097 
L 2541 3097 
L 2541 2547 
L 2706 2669 
Q 3581 1938 3950 1259 
z
M 4647 794 
L 4159 794 
L 4159 4531 
L 4647 4531 
L 4647 794 
z
" transform="scale(0.015625)"/>
      </defs>
      <use xlink:href="#ArialUnicodeMS-7cbe"/>
      <use xlink:href="#ArialUnicodeMS-795e" x="100"/>
      <use xlink:href="#ArialUnicodeMS-7ea2" x="200"/>
      <use xlink:href="#ArialUnicodeMS-5229" x="300"/>
     </g>
    </g>
   </g>
  </g>
 </g>
 <defs>
  <clipPath id="p20545cded1">
   <rect x="27.225625" y="10.8" width="393.974375" height="250.04"/>
  </clipPath>
 </defs>
</svg>
