<?xml version="1.0" encoding="utf-8" standalone="no"?>
<!DOCTYPE svg PUBLIC "-//W3C//DTD SVG 1.1//EN"
  "http://www.w3.org/Graphics/SVG/1.1/DTD/svg11.dtd">
<svg xmlns:xlink="http://www.w3.org/1999/xlink" width="432pt" height="288pt" viewBox="0 0 432 288" xmlns="http://www.w3.org/2000/svg" version="1.1">
 <metadata>
  <rdf:RDF xmlns:dc="http://purl.org/dc/elements/1.1/" xmlns:cc="http://creativecommons.org/ns#" xmlns:rdf="http://www.w3.org/1999/02/22-rdf-syntax-ns#">
   <cc:Work>
    <dc:type rdf:resource="http://purl.org/dc/dcmitype/StillImage"/>
    <dc:date>2026-05-11T09:52:22.339593</dc:date>
    <dc:format>image/svg+xml</dc:format>
    <dc:creator>
     <cc:Agent>
      <dc:title>Matplotlib v3.9.4, https://matplotlib.org/</dc:title>
     </cc:Agent>
    </dc:creator>
   </cc:Work>
  </rdf:RDF>
 </metadata>
 <defs>
  <style type="text/css">*{stroke-linejoin: round; stroke-linecap: butt}</style>
 </defs>
 <g id="figure_1">
  <g id="patch_1">
   <path d="M 0 288 
L 432 288 
L 432 0 
L 0 0 
z
" style="fill: #ffffff"/>
  </g>
  <g id="axes_1">
   <g id="patch_2">
    <path d="M 26.0275 260.84 
L 421.2 260.84 
L 421.2 10.8 
L 26.0275 10.8 
z
" style="fill: #ffffff"/>
   </g>
   <g id="patch_3">
    <path d="M 43.989886 260.84 
L 203.655543 260.84 
L 203.655543 10.8 
L 43.989886 10.8 
z
" clip-path="url(#p782fd476ff)" style="fill: #34495e"/>
   </g>
   <g id="patch_4">
    <path d="M 243.571957 260.84 
L 403.237614 260.84 
L 403.237614 85.812 
L 243.571957 85.812 
z
" clip-path="url(#p782fd476ff)" style="fill: #34495e"/>
   </g>
   <g id="patch_5">
    <path d="M 43.989886 10.8 
L 203.655543 10.8 
L 203.655543 10.8 
L 43.989886 10.8 
z
" clip-path="url(#p782fd476ff)" style="fill: #f39c12"/>
   </g>
   <g id="patch_6">
    <path d="M 243.571957 85.812 
L 403.237614 85.812 
L 403.237614 10.8 
L 243.571957 10.8 
z
" clip-path="url(#p782fd476ff)" style="fill: #f39c12"/>
   </g>
   <g id="matplotlib.axis_1">
    <g id="xtick_1">
     <g id="line2d_1">
      <path d="M 123.822715 260.84 
L 123.822715 10.8 
" clip-path="url(#p782fd476ff)" style="fill: none; stroke-dasharray: 2.96,1.28; stroke-dashoffset: 0; stroke: #b0b0b0; stroke-opacity: 0.3; stroke-width: 0.8"/>
     </g>
     <g id="line2d_2">
      <defs>
       <path id="m9e295bb588" d="M 0 0 
L 0 3.5 
" style="stroke: #000000; stroke-width: 0.8"/>
      </defs>
      <g>
       <use xlink:href="#m9e295bb588" x="123.822715" y="260.84" style="stroke: #000000; stroke-width: 0.8"/>
      </g>
     </g>
     <g id="text_1">
      <!-- Financial Asset -->
      <g transform="translate(89.920371 274.997813) scale(0.1 -0.1)">
       <defs>
        <path id="ArialUnicodeMS-46" d="M 3603 4038 
L 1119 4038 
L 1119 2619 
L 3272 2619 
L 3272 2075 
L 1119 2075 
L 1119 0 
L 513 0 
L 513 4581 
L 3603 4581 
L 3603 4038 
z
" transform="scale(0.015625)"/>
        <path id="ArialUnicodeMS-69" d="M 991 0 
L 428 0 
L 428 3316 
L 991 3316 
L 991 0 
z
M 991 3944 
L 428 3944 
L 428 4581 
L 991 4581 
L 991 3944 
z
" transform="scale(0.015625)"/>
        <path id="ArialUnicodeMS-6e" d="M 3138 0 
L 2572 0 
L 2572 2016 
Q 2572 2525 2389 2715 
Q 2206 2906 1881 2906 
Q 1631 2906 1407 2784 
Q 1184 2663 1090 2441 
Q 997 2219 997 1813 
L 997 0 
L 434 0 
L 434 3316 
L 941 3316 
L 941 2847 
L 953 2847 
Q 1131 3119 1392 3255 
Q 1653 3391 1997 3391 
Q 2259 3391 2515 3297 
Q 2772 3203 2917 3015 
Q 3063 2828 3100 2615 
Q 3138 2403 3138 2041 
L 3138 0 
z
" transform="scale(0.015625)"/>
        <path id="ArialUnicodeMS-61" d="M 3303 0 
L 2713 0 
Q 2631 156 2597 409 
Q 2031 -78 1375 -78 
Q 850 -78 547 184 
Q 244 447 244 878 
Q 244 1291 536 1558 
Q 828 1825 1550 1913 
L 2075 1991 
Q 2369 2038 2559 2106 
Q 2559 2359 2543 2464 
Q 2528 2569 2451 2681 
Q 2375 2794 2206 2862 
Q 2038 2931 1753 2931 
Q 1391 2931 1180 2797 
Q 969 2663 891 2297 
L 341 2369 
Q 431 2878 806 3134 
Q 1181 3391 1838 3391 
Q 2434 3391 2714 3214 
Q 2994 3038 3058 2788 
Q 3122 2538 3122 2144 
L 3122 1388 
Q 3122 697 3148 461 
Q 3175 225 3303 0 
z
M 2559 1459 
L 2559 1663 
Q 2119 1516 1481 1430 
Q 844 1344 844 891 
Q 844 663 1016 514 
Q 1188 366 1509 366 
Q 1925 366 2242 614 
Q 2559 863 2559 1459 
z
" transform="scale(0.015625)"/>
        <path id="ArialUnicodeMS-63" d="M 3144 1147 
Q 3034 513 2643 217 
Q 2253 -78 1759 -78 
Q 1038 -78 644 395 
Q 250 869 250 1650 
Q 250 2297 476 2686 
Q 703 3075 1043 3233 
Q 1384 3391 1759 3391 
Q 2272 3391 2636 3125 
Q 3000 2859 3084 2344 
L 2541 2259 
Q 2456 2594 2267 2762 
Q 2078 2931 1784 2931 
Q 1313 2931 1069 2597 
Q 825 2263 825 1663 
Q 825 1050 1064 717 
Q 1303 384 1753 384 
Q 2116 384 2323 592 
Q 2531 800 2584 1216 
L 3144 1147 
z
" transform="scale(0.015625)"/>
        <path id="ArialUnicodeMS-6c" d="M 991 0 
L 428 0 
L 428 4581 
L 991 4581 
L 991 0 
z
" transform="scale(0.015625)"/>
        <path id="ArialUnicodeMS-20" transform="scale(0.015625)"/>
        <path id="ArialUnicodeMS-41" d="M 4275 0 
L 3591 0 
L 3053 1394 
L 1141 1394 
L 634 0 
L -6 0 
L 1753 4581 
L 2406 4581 
L 4275 0 
z
M 2869 1875 
Q 2306 3363 2234 3564 
Q 2163 3766 2075 4103 
L 2059 4103 
Q 1972 3641 1825 3247 
L 1313 1875 
L 2869 1875 
z
" transform="scale(0.015625)"/>
        <path id="ArialUnicodeMS-73" d="M 2278 2388 
Q 2241 2659 2058 2795 
Q 1875 2931 1550 2931 
Q 1228 2931 1029 2822 
Q 831 2713 831 2503 
Q 831 2306 989 2222 
Q 1147 2138 1613 2016 
Q 2138 1881 2398 1778 
Q 2659 1675 2804 1489 
Q 2950 1303 2950 972 
Q 2950 528 2587 225 
Q 2225 -78 1619 -78 
Q 988 -78 633 189 
Q 278 456 197 991 
L 756 1075 
Q 800 728 1014 556 
Q 1228 384 1613 384 
Q 1981 384 2178 539 
Q 2375 694 2375 916 
Q 2375 1066 2284 1156 
Q 2194 1247 2058 1292 
Q 1922 1338 1447 1453 
Q 741 1622 514 1862 
Q 288 2103 288 2438 
Q 288 2853 619 3122 
Q 950 3391 1509 3391 
Q 2103 3391 2433 3158 
Q 2763 2925 2828 2463 
L 2278 2388 
z
" transform="scale(0.015625)"/>
        <path id="ArialUnicodeMS-65" d="M 3309 1516 
L 825 1516 
Q 859 966 1139 675 
Q 1419 384 1838 384 
Q 2159 384 2378 554 
Q 2597 725 2713 1069 
L 3291 997 
Q 3150 478 2775 200 
Q 2400 -78 1838 -78 
Q 1091 -78 670 380 
Q 250 838 250 1631 
Q 250 2416 658 2903 
Q 1066 3391 1806 3391 
Q 2169 3391 2505 3231 
Q 2841 3072 3075 2689 
Q 3309 2306 3309 1516 
z
M 2731 1978 
Q 2697 2484 2417 2707 
Q 2138 2931 1806 2931 
Q 1409 2931 1153 2665 
Q 897 2400 856 1978 
L 2731 1978 
z
" transform="scale(0.015625)"/>
        <path id="ArialUnicodeMS-74" d="M 1722 6 
Q 1472 -44 1300 -44 
Q 931 -44 762 86 
Q 594 216 556 416 
Q 519 616 519 972 
L 519 2881 
L 109 2881 
L 109 3316 
L 519 3316 
L 519 4141 
L 1081 4481 
L 1081 3316 
L 1644 3316 
L 1644 2881 
L 1081 2881 
L 1081 941 
Q 1081 691 1132 586 
Q 1184 481 1394 481 
Q 1516 481 1644 506 
L 1722 6 
z
" transform="scale(0.015625)"/>
       </defs>
       <use xlink:href="#ArialUnicodeMS-46"/>
       <use xlink:href="#ArialUnicodeMS-69" x="61.083984"/>
       <use xlink:href="#ArialUnicodeMS-6e" x="83.300781"/>
       <use xlink:href="#ArialUnicodeMS-61" x="138.916016"/>
       <use xlink:href="#ArialUnicodeMS-6e" x="194.53125"/>
       <use xlink:href="#ArialUnicodeMS-63" x="250.146484"/>
       <use xlink:href="#ArialUnicodeMS-69" x="300.146484"/>
       <use xlink:href="#ArialUnicodeMS-61" x="322.363281"/>
       <use xlink:href="#ArialUnicodeMS-6c" x="377.978516"/>
       <use xlink:href="#ArialUnicodeMS-20" x="400.195312"/>
       <use xlink:href="#ArialUnicodeMS-41" x="427.978516"/>
       <use xlink:href="#ArialUnicodeMS-73" x="494.677734"/>
       <use xlink:href="#ArialUnicodeMS-73" x="544.677734"/>
       <use xlink:href="#ArialUnicodeMS-65" x="594.677734"/>
       <use xlink:href="#ArialUnicodeMS-74" x="650.292969"/>
      </g>
     </g>
    </g>
    <g id="xtick_2">
     <g id="line2d_3">
      <path d="M 323.404785 260.84 
L 323.404785 10.8 
" clip-path="url(#p782fd476ff)" style="fill: none; stroke-dasharray: 2.96,1.28; stroke-dashoffset: 0; stroke: #b0b0b0; stroke-opacity: 0.3; stroke-width: 0.8"/>
     </g>
     <g id="line2d_4">
      <g>
       <use xlink:href="#m9e295bb588" x="323.404785" y="260.84" style="stroke: #000000; stroke-width: 0.8"/>
      </g>
     </g>
     <g id="text_2">
      <!-- Fine Art -->
      <g transform="translate(305.900879 274.997813) scale(0.1 -0.1)">
       <defs>
        <path id="ArialUnicodeMS-72" d="M 2216 3213 
L 2022 2694 
Q 1813 2816 1613 2816 
Q 1297 2816 1134 2533 
Q 972 2250 972 1741 
L 972 0 
L 409 0 
L 409 3316 
L 922 3316 
L 922 2816 
L 934 2816 
Q 1203 3391 1638 3391 
Q 1925 3391 2216 3213 
z
" transform="scale(0.015625)"/>
       </defs>
       <use xlink:href="#ArialUnicodeMS-46"/>
       <use xlink:href="#ArialUnicodeMS-69" x="61.083984"/>
       <use xlink:href="#ArialUnicodeMS-6e" x="83.300781"/>
       <use xlink:href="#ArialUnicodeMS-65" x="138.916016"/>
       <use xlink:href="#ArialUnicodeMS-20" x="194.53125"/>
       <use xlink:href="#ArialUnicodeMS-41" x="222.314453"/>
       <use xlink:href="#ArialUnicodeMS-72" x="289.013672"/>
       <use xlink:href="#ArialUnicodeMS-74" x="322.314453"/>
      </g>
     </g>
    </g>
   </g>
   <g id="matplotlib.axis_2">
    <g id="text_3">
     <!-- Total Investor Utility (U) -->
     <g transform="translate(19.5075 198.494688) rotate(-90) scale(0.12 -0.12)">
      <defs>
       <path id="ArialUnicodeMS-54" d="M 3769 4038 
L 2253 4038 
L 2253 0 
L 1644 0 
L 1644 4038 
L 141 4038 
L 141 4581 
L 3769 4581 
L 3769 4038 
z
" transform="scale(0.015625)"/>
       <path id="ArialUnicodeMS-6f" d="M 1778 3391 
Q 2450 3391 2892 2953 
Q 3334 2516 3334 1709 
Q 3334 731 2856 326 
Q 2378 -78 1778 -78 
Q 1150 -78 687 337 
Q 225 753 225 1656 
Q 225 2531 672 2961 
Q 1119 3391 1778 3391 
z
M 1778 384 
Q 2259 384 2509 740 
Q 2759 1097 2759 1678 
Q 2759 2300 2476 2615 
Q 2194 2931 1778 2931 
Q 1350 2931 1075 2611 
Q 800 2291 800 1656 
Q 800 1025 1079 704 
Q 1359 384 1778 384 
z
" transform="scale(0.015625)"/>
       <path id="ArialUnicodeMS-49" d="M 1197 0 
L 588 0 
L 588 4581 
L 1197 4581 
L 1197 0 
z
" transform="scale(0.015625)"/>
       <path id="ArialUnicodeMS-76" d="M 3122 3316 
L 1869 0 
L 1344 0 
L 84 3316 
L 678 3316 
L 1363 1397 
Q 1556 853 1594 659 
L 1606 659 
Q 1656 859 1778 1197 
L 2547 3316 
L 3122 3316 
z
" transform="scale(0.015625)"/>
       <path id="ArialUnicodeMS-55" d="M 4109 1931 
Q 4109 1578 4070 1278 
Q 4031 978 3864 661 
Q 3697 344 3320 133 
Q 2944 -78 2316 -78 
Q 1703 -78 1328 109 
Q 953 297 778 594 
Q 603 891 554 1212 
Q 506 1534 506 1931 
L 506 4581 
L 1113 4581 
L 1113 1941 
Q 1113 1528 1172 1229 
Q 1231 931 1484 700 
Q 1738 469 2266 469 
Q 2800 469 3069 653 
Q 3338 838 3419 1145 
Q 3500 1453 3500 1941 
L 3500 4581 
L 4109 4581 
L 4109 1931 
z
" transform="scale(0.015625)"/>
       <path id="ArialUnicodeMS-79" d="M 3150 3316 
L 1881 -56 
Q 1878 -63 1875 -78 
Q 1694 -641 1451 -992 
Q 1209 -1344 763 -1344 
Q 613 -1344 397 -1281 
L 341 -750 
Q 503 -800 659 -800 
Q 972 -800 1092 -628 
Q 1213 -456 1363 -6 
L 103 3316 
L 709 3316 
L 1491 1144 
Q 1559 944 1638 628 
L 1650 628 
Q 1728 991 1850 1319 
L 2578 3316 
L 3150 3316 
z
" transform="scale(0.015625)"/>
       <path id="ArialUnicodeMS-28" d="M 1900 -1344 
L 1497 -1344 
Q 978 -681 681 103 
Q 384 888 384 1656 
Q 384 2528 700 3275 
Q 1016 4022 1497 4659 
L 1900 4659 
Q 1344 3747 1155 3059 
Q 966 2372 966 1663 
Q 966 153 1900 -1344 
z
" transform="scale(0.015625)"/>
       <path id="ArialUnicodeMS-29" d="M 634 4659 
Q 1153 3997 1450 3212 
Q 1747 2428 1747 1656 
Q 1747 788 1431 41 
Q 1116 -706 634 -1344 
L 231 -1344 
Q 788 -431 977 255 
Q 1166 941 1166 1650 
Q 1166 3163 231 4659 
L 634 4659 
z
" transform="scale(0.015625)"/>
      </defs>
      <use xlink:href="#ArialUnicodeMS-54"/>
      <use xlink:href="#ArialUnicodeMS-6f" x="61.083984"/>
      <use xlink:href="#ArialUnicodeMS-74" x="116.699219"/>
      <use xlink:href="#ArialUnicodeMS-61" x="144.482422"/>
      <use xlink:href="#ArialUnicodeMS-6c" x="200.097656"/>
      <use xlink:href="#ArialUnicodeMS-20" x="222.314453"/>
      <use xlink:href="#ArialUnicodeMS-49" x="250.097656"/>
      <use xlink:href="#ArialUnicodeMS-6e" x="277.880859"/>
      <use xlink:href="#ArialUnicodeMS-76" x="333.496094"/>
      <use xlink:href="#ArialUnicodeMS-65" x="383.496094"/>
      <use xlink:href="#ArialUnicodeMS-73" x="439.111328"/>
      <use xlink:href="#ArialUnicodeMS-74" x="489.111328"/>
      <use xlink:href="#ArialUnicodeMS-6f" x="516.894531"/>
      <use xlink:href="#ArialUnicodeMS-72" x="572.509766"/>
      <use xlink:href="#ArialUnicodeMS-20" x="605.810547"/>
      <use xlink:href="#ArialUnicodeMS-55" x="633.59375"/>
      <use xlink:href="#ArialUnicodeMS-74" x="705.810547"/>
      <use xlink:href="#ArialUnicodeMS-69" x="733.59375"/>
      <use xlink:href="#ArialUnicodeMS-6c" x="755.810547"/>
      <use xlink:href="#ArialUnicodeMS-69" x="778.027344"/>
      <use xlink:href="#ArialUnicodeMS-74" x="800.244141"/>
      <use xlink:href="#ArialUnicodeMS-79" x="828.027344"/>
      <use xlink:href="#ArialUnicodeMS-20" x="878.027344"/>
      <use xlink:href="#ArialUnicodeMS-28" x="905.810547"/>
      <use xlink:href="#ArialUnicodeMS-55" x="939.111328"/>
      <use xlink:href="#ArialUnicodeMS-29" x="1011.328125"/>
     </g>
    </g>
   </g>
   <g id="patch_7">
    <path d="M 26.0275 260.84 
L 26.0275 10.8 
" style="fill: none; stroke: #000000; stroke-width: 0.8; stroke-linejoin: miter; stroke-linecap: square"/>
   </g>
   <g id="patch_8">
    <path d="M 26.0275 260.84 
L 421.2 260.84 
" style="fill: none; stroke: #000000; stroke-width: 0.8; stroke-linejoin: miter; stroke-linecap: square"/>
   </g>
   <g id="legend_1">
    <g id="patch_9">
     <path d="M 306.385938 26.957812 
L 326.385938 26.957812 
L 326.385938 19.957812 
L 306.385938 19.957812 
z
" style="fill: #34495e"/>
    </g>
    <g id="text_4">
     <!-- Monetary Return -->
     <g transform="translate(334.385938 26.957812) scale(0.1 -0.1)">
      <defs>
       <path id="ArialUnicodeMS-4d" d="M 4844 0 
L 4269 0 
L 4269 3834 
L 4256 3834 
L 2938 0 
L 2394 0 
L 1081 3897 
L 1063 3897 
L 1063 0 
L 488 0 
L 488 4581 
L 1394 4581 
L 2478 1338 
Q 2659 797 2688 659 
L 2700 659 
Q 2784 925 2944 1394 
L 4038 4581 
L 4844 4581 
L 4844 0 
z
" transform="scale(0.015625)"/>
       <path id="ArialUnicodeMS-52" d="M 4550 0 
L 3788 0 
Q 3103 1081 2937 1328 
Q 2772 1575 2589 1751 
Q 2406 1928 2245 1975 
Q 2084 2022 1819 2022 
L 1119 2022 
L 1119 0 
L 513 0 
L 513 4581 
L 2541 4581 
Q 2956 4581 3237 4528 
Q 3519 4475 3731 4304 
Q 3944 4134 4058 3875 
Q 4172 3616 4172 3328 
Q 4172 2809 3844 2493 
Q 3516 2178 2888 2094 
L 2888 2081 
Q 3347 1878 3750 1247 
L 4550 0 
z
M 1119 2566 
L 2419 2566 
Q 2813 2566 3042 2633 
Q 3272 2700 3409 2894 
Q 3547 3088 3547 3328 
Q 3547 3641 3319 3859 
Q 3091 4078 2566 4078 
L 1119 4078 
L 1119 2566 
z
" transform="scale(0.015625)"/>
       <path id="ArialUnicodeMS-75" d="M 3116 0 
L 2613 0 
L 2613 488 
L 2597 488 
Q 2216 -78 1556 -78 
Q 1209 -78 914 83 
Q 619 244 520 526 
Q 422 809 422 1259 
L 422 3316 
L 984 3316 
L 984 1478 
Q 984 1038 1026 847 
Q 1069 656 1247 532 
Q 1425 409 1672 409 
Q 1991 409 2272 629 
Q 2553 850 2553 1544 
L 2553 3316 
L 3116 3316 
L 3116 0 
z
" transform="scale(0.015625)"/>
      </defs>
      <use xlink:href="#ArialUnicodeMS-4d"/>
      <use xlink:href="#ArialUnicodeMS-6f" x="83.300781"/>
      <use xlink:href="#ArialUnicodeMS-6e" x="138.916016"/>
      <use xlink:href="#ArialUnicodeMS-65" x="194.53125"/>
      <use xlink:href="#ArialUnicodeMS-74" x="250.146484"/>
      <use xlink:href="#ArialUnicodeMS-61" x="277.929688"/>
      <use xlink:href="#ArialUnicodeMS-72" x="333.544922"/>
      <use xlink:href="#ArialUnicodeMS-79" x="366.845703"/>
      <use xlink:href="#ArialUnicodeMS-20" x="416.845703"/>
      <use xlink:href="#ArialUnicodeMS-52" x="444.628906"/>
      <use xlink:href="#ArialUnicodeMS-65" x="516.845703"/>
      <use xlink:href="#ArialUnicodeMS-74" x="572.460938"/>
      <use xlink:href="#ArialUnicodeMS-75" x="600.244141"/>
      <use xlink:href="#ArialUnicodeMS-72" x="655.859375"/>
      <use xlink:href="#ArialUnicodeMS-6e" x="689.160156"/>
     </g>
    </g>
    <g id="patch_10">
     <path d="M 306.385938 41.3375 
L 326.385938 41.3375 
L 326.385938 34.3375 
L 306.385938 34.3375 
z
" style="fill: #f39c12"/>
    </g>
    <g id="text_5">
     <!-- Spiritual Dividend -->
     <g transform="translate(334.385938 41.3375) scale(0.1 -0.1)">
      <defs>
       <path id="ArialUnicodeMS-53" d="M 3213 3238 
Q 3175 3675 2897 3895 
Q 2619 4116 2100 4116 
Q 1631 4116 1337 3941 
Q 1044 3766 1044 3431 
Q 1044 3134 1270 2989 
Q 1497 2844 2138 2700 
Q 2706 2575 3065 2444 
Q 3425 2313 3681 2036 
Q 3938 1759 3938 1294 
Q 3938 703 3467 312 
Q 2997 -78 2241 -78 
Q 1275 -78 795 353 
Q 316 784 288 1472 
L 863 1522 
Q 903 972 1287 720 
Q 1672 469 2216 469 
Q 2725 469 3039 678 
Q 3353 888 3353 1247 
Q 3353 1622 3025 1794 
Q 2697 1966 1923 2133 
Q 1150 2300 809 2603 
Q 469 2906 469 3391 
Q 469 3941 900 4300 
Q 1331 4659 2075 4659 
Q 2838 4659 3302 4301 
Q 3766 3944 3794 3284 
L 3213 3238 
z
" transform="scale(0.015625)"/>
       <path id="ArialUnicodeMS-70" d="M 959 2888 
Q 1275 3391 1906 3391 
Q 2559 3391 2937 2917 
Q 3316 2444 3316 1684 
Q 3316 875 2897 398 
Q 2478 -78 1869 -78 
Q 1334 -78 1013 347 
L 997 347 
L 997 -1275 
L 434 -1275 
L 434 3316 
L 947 3316 
L 947 2888 
L 959 2888 
z
M 1831 384 
Q 2225 384 2483 711 
Q 2741 1038 2741 1684 
Q 2741 2294 2492 2622 
Q 2244 2950 1856 2950 
Q 1456 2950 1198 2584 
Q 941 2219 941 1638 
Q 941 1022 1187 703 
Q 1434 384 1831 384 
z
" transform="scale(0.015625)"/>
       <path id="ArialUnicodeMS-44" d="M 513 4581 
L 2094 4581 
Q 2509 4581 2809 4539 
Q 3109 4497 3382 4333 
Q 3656 4169 3861 3881 
Q 4066 3594 4183 3220 
Q 4300 2847 4300 2316 
Q 4300 1303 3819 651 
Q 3338 0 2163 0 
L 513 0 
L 513 4581 
z
M 1119 544 
L 2100 544 
Q 2400 544 2636 581 
Q 2872 619 3114 784 
Q 3356 950 3515 1328 
Q 3675 1706 3675 2328 
Q 3675 2672 3614 2970 
Q 3553 3269 3389 3514 
Q 3225 3759 3012 3873 
Q 2800 3988 2598 4013 
Q 2397 4038 2081 4038 
L 1119 4038 
L 1119 544 
z
" transform="scale(0.015625)"/>
       <path id="ArialUnicodeMS-64" d="M 3109 0 
L 2584 0 
L 2584 422 
L 2572 422 
Q 2269 -78 1656 -78 
Q 1047 -78 639 405 
Q 231 888 231 1656 
Q 231 2459 615 2925 
Q 1000 3391 1631 3391 
Q 2225 3391 2534 2938 
L 2547 2938 
L 2547 4581 
L 3109 4581 
L 3109 0 
z
M 1716 384 
Q 2084 384 2340 687 
Q 2597 991 2597 1606 
Q 2597 2213 2362 2572 
Q 2128 2931 1691 2931 
Q 1253 2931 1029 2579 
Q 806 2228 806 1656 
Q 806 1244 926 958 
Q 1047 672 1262 528 
Q 1478 384 1716 384 
z
" transform="scale(0.015625)"/>
      </defs>
      <use xlink:href="#ArialUnicodeMS-53"/>
      <use xlink:href="#ArialUnicodeMS-70" x="66.699219"/>
      <use xlink:href="#ArialUnicodeMS-69" x="122.314453"/>
      <use xlink:href="#ArialUnicodeMS-72" x="144.53125"/>
      <use xlink:href="#ArialUnicodeMS-69" x="177.832031"/>
      <use xlink:href="#ArialUnicodeMS-74" x="200.048828"/>
      <use xlink:href="#ArialUnicodeMS-75" x="227.832031"/>
      <use xlink:href="#ArialUnicodeMS-61" x="283.447266"/>
      <use xlink:href="#ArialUnicodeMS-6c" x="339.0625"/>
      <use xlink:href="#ArialUnicodeMS-20" x="361.279297"/>
      <use xlink:href="#ArialUnicodeMS-44" x="389.0625"/>
      <use xlink:href="#ArialUnicodeMS-69" x="461.279297"/>
      <use xlink:href="#ArialUnicodeMS-76" x="483.496094"/>
      <use xlink:href="#ArialUnicodeMS-69" x="533.496094"/>
      <use xlink:href="#ArialUnicodeMS-64" x="555.712891"/>
      <use xlink:href="#ArialUnicodeMS-65" x="611.328125"/>
      <use xlink:href="#ArialUnicodeMS-6e" x="666.943359"/>
      <use xlink:href="#ArialUnicodeMS-64" x="722.558594"/>
     </g>
    </g>
   </g>
  </g>
 </g>
 <defs>
  <clipPath id="p782fd476ff">
   <rect x="26.0275" y="10.8" width="395.1725" height="250.04"/>
  </clipPath>
 </defs>
</svg>
